%TF.GenerationSoftware,KiCad,Pcbnew,6.0.4-6f826c9f35~116~ubuntu20.04.1*%
%TF.CreationDate,2022-12-15T23:45:36+00:00*%
%TF.ProjectId,TFESC01,54464553-4330-4312-9e6b-696361645f70,rev?*%
%TF.SameCoordinates,Original*%
%TF.FileFunction,Soldermask,Top*%
%TF.FilePolarity,Negative*%
%FSLAX46Y46*%
G04 Gerber Fmt 4.6, Leading zero omitted, Abs format (unit mm)*
G04 Created by KiCad (PCBNEW 6.0.4-6f826c9f35~116~ubuntu20.04.1) date 2022-12-15 23:45:36*
%MOMM*%
%LPD*%
G01*
G04 APERTURE LIST*
%ADD10R,0.890000X0.420000*%
%ADD11R,0.800000X0.750000*%
%ADD12R,0.750000X0.800000*%
%ADD13R,0.900000X0.500000*%
%ADD14R,0.500000X0.900000*%
%ADD15R,1.700000X0.900000*%
%ADD16R,1.200000X0.900000*%
%ADD17R,1.060000X0.650000*%
%ADD18R,1.200000X1.200000*%
%ADD19R,1.800860X1.198880*%
%ADD20R,0.900000X1.700000*%
%ADD21R,0.700000X0.700000*%
%ADD22R,1.000000X0.750000*%
%ADD23R,0.905000X0.495000*%
%ADD24R,0.425000X0.750000*%
%ADD25R,4.105000X4.560000*%
%ADD26R,3.400000X1.300000*%
%ADD27C,0.254000*%
G04 APERTURE END LIST*
D10*
%TO.C,U4*%
X72895000Y-91025000D03*
X72895000Y-91675000D03*
X72895000Y-92325000D03*
X72895000Y-92975000D03*
X77105000Y-92975000D03*
X77105000Y-92325000D03*
X77105000Y-91675000D03*
X77105000Y-91025000D03*
%TD*%
%TO.C,U5*%
X72895000Y-96825000D03*
X72895000Y-97475000D03*
X72895000Y-98125000D03*
X72895000Y-98775000D03*
X77105000Y-98775000D03*
X77105000Y-98125000D03*
X77105000Y-97475000D03*
X77105000Y-96825000D03*
%TD*%
%TO.C,U6*%
X72895000Y-85225000D03*
X72895000Y-85875000D03*
X72895000Y-86525000D03*
X72895000Y-87175000D03*
X77105000Y-87175000D03*
X77105000Y-86525000D03*
X77105000Y-85875000D03*
X77105000Y-85225000D03*
%TD*%
D11*
%TO.C,C9*%
X74300000Y-95200000D03*
X75800000Y-95200000D03*
%TD*%
%TO.C,C10*%
X74250000Y-89400000D03*
X75750000Y-89400000D03*
%TD*%
%TO.C,C11*%
X74250000Y-83600000D03*
X75750000Y-83600000D03*
%TD*%
%TO.C,C14*%
X123650000Y-94800000D03*
X122150000Y-94800000D03*
%TD*%
%TO.C,C15*%
X120750000Y-94800000D03*
X119250000Y-94800000D03*
%TD*%
%TO.C,C16*%
X117950000Y-94800000D03*
X116450000Y-94800000D03*
%TD*%
D12*
%TO.C,C17*%
X115100000Y-89250000D03*
X115100000Y-87750000D03*
%TD*%
%TO.C,C21*%
X124700000Y-94750000D03*
X124700000Y-93250000D03*
%TD*%
D13*
%TO.C,R4*%
X127550000Y-83200000D03*
X127550000Y-84700000D03*
%TD*%
%TO.C,R5*%
X129100000Y-83200000D03*
X129100000Y-84700000D03*
%TD*%
%TO.C,R12*%
X78500000Y-90500000D03*
X78500000Y-89000000D03*
%TD*%
%TO.C,R13*%
X78500000Y-93000000D03*
X78500000Y-91500000D03*
%TD*%
%TO.C,R14*%
X78500000Y-96350000D03*
X78500000Y-94850000D03*
%TD*%
%TO.C,R15*%
X78500000Y-99100000D03*
X78500000Y-97600000D03*
%TD*%
%TO.C,R16*%
X78500000Y-84900000D03*
X78500000Y-83400000D03*
%TD*%
%TO.C,R17*%
X78500000Y-87150000D03*
X78500000Y-85650000D03*
%TD*%
D14*
%TO.C,R18*%
X123650000Y-93500000D03*
X122150000Y-93500000D03*
%TD*%
%TO.C,R19*%
X120750000Y-93500000D03*
X119250000Y-93500000D03*
%TD*%
%TO.C,R20*%
X117950000Y-93500000D03*
X116450000Y-93500000D03*
%TD*%
D13*
%TO.C,C23*%
X120600000Y-87300000D03*
X120600000Y-85800000D03*
%TD*%
D15*
%TO.C,C24*%
X115650000Y-85800000D03*
X115650000Y-82900000D03*
%TD*%
%TO.C,C25*%
X123950000Y-85850000D03*
X123950000Y-88750000D03*
%TD*%
D16*
%TO.C,D1*%
X122050000Y-88900000D03*
X122050000Y-85600000D03*
%TD*%
D14*
%TO.C,R21*%
X124600000Y-84260000D03*
X123100000Y-84260000D03*
%TD*%
%TO.C,R22*%
X120650000Y-84280000D03*
X122150000Y-84280000D03*
%TD*%
D17*
%TO.C,U8*%
X119400000Y-86000000D03*
X119400000Y-85050000D03*
X119400000Y-84100000D03*
X117200000Y-84100000D03*
X117200000Y-85050000D03*
X117200000Y-86000000D03*
%TD*%
D18*
%TO.C,P9*%
X112300000Y-87250000D03*
X112300000Y-88750000D03*
X112300000Y-90250000D03*
X112300000Y-91750000D03*
X112300000Y-93250000D03*
X112300000Y-94750000D03*
%TD*%
%TO.C,P10*%
X127575000Y-94750000D03*
X127575000Y-93250000D03*
X127575000Y-91750000D03*
X127575000Y-90250000D03*
X127575000Y-88750000D03*
X127575000Y-87250000D03*
%TD*%
D14*
%TO.C,D3*%
X116650000Y-91600000D03*
X115150000Y-91600000D03*
%TD*%
%TO.C,D4*%
X116650000Y-90400000D03*
X115150000Y-90400000D03*
%TD*%
%TO.C,R28*%
X122150000Y-92200000D03*
X123650000Y-92200000D03*
%TD*%
%TO.C,R29*%
X120750000Y-92200000D03*
X119250000Y-92200000D03*
%TD*%
D12*
%TO.C,C30*%
X125200000Y-96917094D03*
X125200000Y-98417094D03*
%TD*%
%TO.C,C31*%
X117400000Y-98417094D03*
X117400000Y-96917094D03*
%TD*%
D19*
%TO.C,X1*%
X123322290Y-96468214D03*
X119324330Y-98865974D03*
X123322290Y-98865974D03*
X119324330Y-96468214D03*
%TD*%
D20*
%TO.C,C12*%
X110250000Y-94900000D03*
X107350000Y-94900000D03*
%TD*%
%TO.C,C13*%
X95200000Y-94900000D03*
X98100000Y-94900000D03*
%TD*%
%TO.C,C34*%
X102150000Y-91000000D03*
X99250000Y-91000000D03*
%TD*%
%TO.C,C40*%
X110250000Y-91000000D03*
X107350000Y-91000000D03*
%TD*%
%TO.C,C42*%
X94050000Y-94900000D03*
X91150000Y-94900000D03*
%TD*%
%TO.C,C44*%
X102150000Y-85150000D03*
X99250000Y-85150000D03*
%TD*%
%TO.C,C45*%
X95200000Y-85150000D03*
X98100000Y-85150000D03*
%TD*%
%TO.C,C46*%
X95200000Y-92950000D03*
X98100000Y-92950000D03*
%TD*%
%TO.C,C47*%
X110250000Y-92950000D03*
X107350000Y-92950000D03*
%TD*%
%TO.C,C48*%
X103300000Y-96850000D03*
X106200000Y-96850000D03*
%TD*%
%TO.C,C49*%
X103300000Y-85150000D03*
X106200000Y-85150000D03*
%TD*%
%TO.C,C50*%
X102150000Y-92950000D03*
X99250000Y-92950000D03*
%TD*%
%TO.C,C51*%
X103300000Y-87100000D03*
X106200000Y-87100000D03*
%TD*%
%TO.C,C52*%
X103300000Y-94900000D03*
X106200000Y-94900000D03*
%TD*%
%TO.C,C53*%
X102150000Y-94900000D03*
X99250000Y-94900000D03*
%TD*%
%TO.C,C54*%
X95200000Y-96850000D03*
X98100000Y-96850000D03*
%TD*%
%TO.C,C55*%
X103300000Y-92950000D03*
X106200000Y-92950000D03*
%TD*%
%TO.C,C56*%
X102150000Y-96850000D03*
X99250000Y-96850000D03*
%TD*%
%TO.C,C57*%
X95200000Y-91000000D03*
X98100000Y-91000000D03*
%TD*%
%TO.C,C58*%
X94050000Y-91000000D03*
X91150000Y-91000000D03*
%TD*%
%TO.C,C59*%
X102150000Y-89050000D03*
X99250000Y-89050000D03*
%TD*%
%TO.C,C64*%
X110250000Y-96850000D03*
X107350000Y-96850000D03*
%TD*%
D18*
%TO.C,P11*%
X131450000Y-94750000D03*
X131450000Y-93250000D03*
X131450000Y-91750000D03*
X131450000Y-90250000D03*
X131450000Y-88750000D03*
X131450000Y-87250000D03*
%TD*%
D20*
%TO.C,C68*%
X110250000Y-89050000D03*
X107350000Y-89050000D03*
%TD*%
%TO.C,C69*%
X94050000Y-96850000D03*
X91150000Y-96850000D03*
%TD*%
%TO.C,C70*%
X102150000Y-87100000D03*
X99250000Y-87100000D03*
%TD*%
%TO.C,C71*%
X95200000Y-89050000D03*
X98100000Y-89050000D03*
%TD*%
%TO.C,C72*%
X95200000Y-87100000D03*
X98100000Y-87100000D03*
%TD*%
%TO.C,C73*%
X103300000Y-91000000D03*
X106200000Y-91000000D03*
%TD*%
D21*
%TO.C,P1*%
X68600000Y-92050000D03*
X70000000Y-90650000D03*
X69300000Y-89950000D03*
X68600000Y-90650000D03*
X70000000Y-92050000D03*
X69300000Y-92050000D03*
X69300000Y-90650000D03*
X70000000Y-89950000D03*
X70000000Y-91350000D03*
X69300000Y-91350000D03*
X68600000Y-91350000D03*
X68600000Y-89950000D03*
%TD*%
%TO.C,P2*%
X69300000Y-95750000D03*
X70000000Y-97850000D03*
X68600000Y-96450000D03*
X68600000Y-97150000D03*
X69300000Y-96450000D03*
X68600000Y-97850000D03*
X68600000Y-95750000D03*
X69300000Y-97850000D03*
X70000000Y-97150000D03*
X70000000Y-96450000D03*
X70000000Y-95750000D03*
X69300000Y-97150000D03*
%TD*%
%TO.C,P3*%
X69300000Y-86250000D03*
X69300000Y-85550000D03*
X68600000Y-85550000D03*
X70000000Y-84150000D03*
X68600000Y-84850000D03*
X69300000Y-84150000D03*
X68600000Y-86250000D03*
X70000000Y-84850000D03*
X70000000Y-85550000D03*
X68600000Y-84150000D03*
X70000000Y-86250000D03*
X69300000Y-84850000D03*
%TD*%
%TO.C,P4*%
X79900000Y-90700000D03*
X80600000Y-90700000D03*
X79900000Y-90000000D03*
X80600000Y-91400000D03*
X81300000Y-91400000D03*
X81300000Y-92100000D03*
X79900000Y-91400000D03*
X80600000Y-90000000D03*
X79900000Y-92100000D03*
X81300000Y-90700000D03*
X81300000Y-90000000D03*
X80600000Y-92100000D03*
%TD*%
%TO.C,P5*%
X79900000Y-97850000D03*
X79900000Y-97150000D03*
X80600000Y-97150000D03*
X79900000Y-95750000D03*
X79900000Y-96450000D03*
X81300000Y-95750000D03*
X80600000Y-97850000D03*
X81300000Y-96450000D03*
X80600000Y-96450000D03*
X81300000Y-97850000D03*
X80600000Y-95750000D03*
X81300000Y-97150000D03*
%TD*%
%TO.C,P6*%
X79900000Y-85650000D03*
X80600000Y-85650000D03*
X81300000Y-86350000D03*
X80600000Y-86350000D03*
X81300000Y-85650000D03*
X80600000Y-84950000D03*
X81300000Y-84250000D03*
X81300000Y-84950000D03*
X79900000Y-84250000D03*
X79900000Y-86350000D03*
X80600000Y-84250000D03*
X79900000Y-84950000D03*
%TD*%
D12*
%TO.C,C77*%
X126550000Y-98350000D03*
X126550000Y-96850000D03*
%TD*%
D13*
%TO.C,R31*%
X128150000Y-98300000D03*
X128150000Y-96800000D03*
%TD*%
D14*
%TO.C,R32*%
X79850000Y-88100000D03*
X81350000Y-88100000D03*
%TD*%
D13*
%TO.C,R33*%
X126000000Y-83200000D03*
X126000000Y-84700000D03*
%TD*%
D12*
%TO.C,C78*%
X130850000Y-98300000D03*
X130850000Y-96800000D03*
%TD*%
D13*
%TO.C,R34*%
X129550000Y-98300000D03*
X129550000Y-96800000D03*
%TD*%
D20*
%TO.C,C28*%
X94050000Y-87100000D03*
X91150000Y-87100000D03*
%TD*%
%TO.C,C35*%
X110250000Y-85150000D03*
X107350000Y-85150000D03*
%TD*%
%TO.C,C36*%
X94050000Y-92950000D03*
X91150000Y-92950000D03*
%TD*%
%TO.C,C39*%
X94050000Y-85150000D03*
X91150000Y-85150000D03*
%TD*%
%TO.C,C60*%
X103300000Y-89050000D03*
X106200000Y-89050000D03*
%TD*%
%TO.C,C61*%
X110250000Y-87100000D03*
X107350000Y-87100000D03*
%TD*%
%TO.C,C62*%
X94050000Y-89050000D03*
X91150000Y-89050000D03*
%TD*%
D22*
%TO.C,Q2*%
X88095000Y-89095000D03*
X88095000Y-90365000D03*
X88095000Y-91635000D03*
X88095000Y-92905000D03*
D23*
X85752500Y-88472500D03*
D24*
X82312500Y-89095000D03*
X82312500Y-92905000D03*
D23*
X85752500Y-93527500D03*
D25*
X84577500Y-91000000D03*
%TD*%
D22*
%TO.C,Q4*%
X88100000Y-94895000D03*
X88100000Y-96165000D03*
X88100000Y-98705000D03*
X88100000Y-97435000D03*
D24*
X82317500Y-98705000D03*
D25*
X84582500Y-96800000D03*
D23*
X85757500Y-99327500D03*
D24*
X82317500Y-94895000D03*
D23*
X85757500Y-94272500D03*
%TD*%
D22*
%TO.C,Q6*%
X88100000Y-83295000D03*
X88100000Y-84565000D03*
X88100000Y-85835000D03*
X88100000Y-87105000D03*
D25*
X84582500Y-85200000D03*
D24*
X82317500Y-87105000D03*
D23*
X85757500Y-82672500D03*
X85757500Y-87727500D03*
D24*
X82317500Y-83295000D03*
%TD*%
D12*
%TO.C,C22*%
X115100000Y-93750000D03*
X115100000Y-95250000D03*
%TD*%
%TO.C,C29*%
X116300000Y-87750000D03*
X116300000Y-89250000D03*
%TD*%
D26*
%TO.C,L1*%
X119250000Y-88400000D03*
X119250000Y-90500000D03*
%TD*%
D27*
X90223000Y-97650000D02*
X90232667Y-97698601D01*
X90260197Y-97739803D01*
X90610197Y-98089803D01*
X90651399Y-98117333D01*
X90700000Y-98127000D01*
X110950000Y-98127000D01*
X110998601Y-98117333D01*
X111039803Y-98089803D01*
X111067333Y-98048601D01*
X111077000Y-98000000D01*
X111077000Y-96577000D01*
X114423000Y-96577000D01*
X114423000Y-99373000D01*
X90302606Y-99373000D01*
X88977000Y-98047394D01*
X88977000Y-85027000D01*
X90223000Y-85027000D01*
X90223000Y-97650000D01*
X90223000Y-97650000D02*
X90223000Y-85027000D01*
G36*
X90223000Y-97650000D02*
G01*
X90232667Y-97698601D01*
X90260197Y-97739803D01*
X90610197Y-98089803D01*
X90651399Y-98117333D01*
X90700000Y-98127000D01*
X110950000Y-98127000D01*
X110998601Y-98117333D01*
X111039803Y-98089803D01*
X111067333Y-98048601D01*
X111077000Y-98000000D01*
X111077000Y-96577000D01*
X114423000Y-96577000D01*
X114423000Y-99373000D01*
X90302606Y-99373000D01*
X88977000Y-98047394D01*
X88977000Y-85027000D01*
X90223000Y-85027000D01*
X90223000Y-97650000D01*
G37*
X70473000Y-87123000D02*
X67777000Y-87123000D01*
X67777000Y-83327000D01*
X70473000Y-83327000D01*
X70473000Y-87123000D01*
X70473000Y-87123000D02*
X70473000Y-83327000D01*
G36*
X70473000Y-87123000D02*
G01*
X67777000Y-87123000D01*
X67777000Y-83327000D01*
X70473000Y-83327000D01*
X70473000Y-87123000D01*
G37*
X70423000Y-92873000D02*
X67777000Y-92873000D01*
X67777000Y-89127000D01*
X70423000Y-89127000D01*
X70423000Y-92873000D01*
X70423000Y-92873000D02*
X70423000Y-89127000D01*
G36*
X70423000Y-92873000D02*
G01*
X67777000Y-92873000D01*
X67777000Y-89127000D01*
X70423000Y-89127000D01*
X70423000Y-92873000D01*
G37*
X81523000Y-83952606D02*
X81523000Y-86647394D01*
X81047394Y-87123000D01*
X80152606Y-87123000D01*
X79677000Y-86647394D01*
X79677000Y-83952606D01*
X80152606Y-83477000D01*
X81047394Y-83477000D01*
X81523000Y-83952606D01*
X81523000Y-83952606D02*
X81047394Y-83477000D01*
G36*
X81523000Y-83952606D02*
G01*
X81523000Y-86647394D01*
X81047394Y-87123000D01*
X80152606Y-87123000D01*
X79677000Y-86647394D01*
X79677000Y-83952606D01*
X80152606Y-83477000D01*
X81047394Y-83477000D01*
X81523000Y-83952606D01*
G37*
X70423000Y-98673000D02*
X67777000Y-98673000D01*
X67777000Y-94927000D01*
X70423000Y-94927000D01*
X70423000Y-98673000D01*
X70423000Y-98673000D02*
X70423000Y-94927000D01*
G36*
X70423000Y-98673000D02*
G01*
X67777000Y-98673000D01*
X67777000Y-94927000D01*
X70423000Y-94927000D01*
X70423000Y-98673000D01*
G37*
X114423000Y-85423000D02*
X111077000Y-85423000D01*
X111077000Y-84000000D01*
X111067333Y-83951399D01*
X111039803Y-83910197D01*
X110998601Y-83882667D01*
X110950000Y-83873000D01*
X88977000Y-83873000D01*
X88977000Y-82627000D01*
X114423000Y-82627000D01*
X114423000Y-85423000D01*
X114423000Y-85423000D02*
X114423000Y-82627000D01*
G36*
X114423000Y-85423000D02*
G01*
X111077000Y-85423000D01*
X111077000Y-84000000D01*
X111067333Y-83951399D01*
X111039803Y-83910197D01*
X110998601Y-83882667D01*
X110950000Y-83873000D01*
X88977000Y-83873000D01*
X88977000Y-82627000D01*
X114423000Y-82627000D01*
X114423000Y-85423000D01*
G37*
X81523000Y-95450960D02*
X81523000Y-98150599D01*
X81044132Y-98673000D01*
X80155868Y-98673000D01*
X79677000Y-98150599D01*
X79677000Y-95450960D01*
X80154266Y-94952000D01*
X81045734Y-94952000D01*
X81523000Y-95450960D01*
X81523000Y-95450960D02*
X81045734Y-94952000D01*
G36*
X81523000Y-95450960D02*
G01*
X81523000Y-98150599D01*
X81044132Y-98673000D01*
X80155868Y-98673000D01*
X79677000Y-98150599D01*
X79677000Y-95450960D01*
X80154266Y-94952000D01*
X81045734Y-94952000D01*
X81523000Y-95450960D01*
G37*
X81523000Y-89702606D02*
X81523000Y-92397394D01*
X81047394Y-92873000D01*
X80152606Y-92873000D01*
X79677000Y-92397394D01*
X79677000Y-89702606D01*
X80152606Y-89227000D01*
X81047394Y-89227000D01*
X81523000Y-89702606D01*
X81523000Y-89702606D02*
X81047394Y-89227000D01*
G36*
X81523000Y-89702606D02*
G01*
X81523000Y-92397394D01*
X81047394Y-92873000D01*
X80152606Y-92873000D01*
X79677000Y-92397394D01*
X79677000Y-89702606D01*
X80152606Y-89227000D01*
X81047394Y-89227000D01*
X81523000Y-89702606D01*
G37*
G36*
X90340819Y-84893152D02*
G01*
X90351387Y-84897530D01*
X90352470Y-84898613D01*
X90356848Y-84909181D01*
X90357000Y-84909946D01*
X90357000Y-97626821D01*
X90371340Y-97661442D01*
X90688558Y-97978660D01*
X90723179Y-97993000D01*
X110894603Y-97993000D01*
X110928825Y-97978825D01*
X110943000Y-97944603D01*
X110943000Y-96459946D01*
X110943152Y-96459181D01*
X110947530Y-96448613D01*
X110948613Y-96447530D01*
X110959181Y-96443152D01*
X110959946Y-96443000D01*
X114540054Y-96443000D01*
X114540819Y-96443152D01*
X114551387Y-96447530D01*
X114552470Y-96448613D01*
X114556848Y-96459181D01*
X114557000Y-96459946D01*
X114557000Y-99490054D01*
X114556848Y-99490819D01*
X114552470Y-99501387D01*
X114551387Y-99502470D01*
X114540819Y-99506848D01*
X114540054Y-99507000D01*
X90259946Y-99507000D01*
X90259181Y-99506848D01*
X90238668Y-99498351D01*
X90238019Y-99497917D01*
X88852083Y-98111981D01*
X88851649Y-98111332D01*
X88846612Y-98099172D01*
X88852000Y-98099172D01*
X90250828Y-99498000D01*
X114548000Y-99498000D01*
X114548000Y-96452000D01*
X110952000Y-96452000D01*
X110952000Y-98000000D01*
X110951000Y-98001732D01*
X110950000Y-98002000D01*
X90700000Y-98002000D01*
X90698586Y-98001414D01*
X90348586Y-97651414D01*
X90348000Y-97650000D01*
X90348000Y-84902000D01*
X88852000Y-84902000D01*
X88852000Y-98099172D01*
X88846612Y-98099172D01*
X88843152Y-98090819D01*
X88843000Y-98090054D01*
X88843000Y-84909946D01*
X88843152Y-84909181D01*
X88847530Y-84898613D01*
X88848613Y-84897530D01*
X88859181Y-84893152D01*
X88859946Y-84893000D01*
X90340054Y-84893000D01*
X90340819Y-84893152D01*
G37*
G36*
X70540819Y-94793152D02*
G01*
X70551387Y-94797530D01*
X70552470Y-94798613D01*
X70556848Y-94809181D01*
X70557000Y-94809946D01*
X70557000Y-98790054D01*
X70556848Y-98790819D01*
X70552470Y-98801387D01*
X70551387Y-98802470D01*
X70540819Y-98806848D01*
X70540054Y-98807000D01*
X68179183Y-98807000D01*
X68178418Y-98806848D01*
X68163180Y-98800536D01*
X68162263Y-98799770D01*
X68160993Y-98797795D01*
X68160801Y-98797412D01*
X68075076Y-98567575D01*
X68075031Y-98567439D01*
X68073829Y-98563343D01*
X68073794Y-98563205D01*
X68013898Y-98287869D01*
X68013872Y-98287729D01*
X68013263Y-98283494D01*
X68013248Y-98283352D01*
X67993081Y-98001375D01*
X67993077Y-98001304D01*
X67993028Y-97999927D01*
X68002000Y-97999927D01*
X68022342Y-98284348D01*
X68082937Y-98562897D01*
X68170626Y-98798000D01*
X70548000Y-98798000D01*
X70548000Y-94802000D01*
X68002000Y-94802000D01*
X68002000Y-97999927D01*
X67993028Y-97999927D01*
X67993001Y-97999186D01*
X67993000Y-97999114D01*
X67993000Y-94809946D01*
X67993152Y-94809181D01*
X67997530Y-94798613D01*
X67998613Y-94797530D01*
X68009181Y-94793152D01*
X68009946Y-94793000D01*
X70540054Y-94793000D01*
X70540819Y-94793152D01*
G37*
G36*
X81090552Y-94818161D02*
G01*
X81111476Y-94827101D01*
X81112135Y-94827558D01*
X81648383Y-95388181D01*
X81648794Y-95388818D01*
X81656856Y-95408912D01*
X81657000Y-95409657D01*
X81657000Y-98190617D01*
X81656864Y-98191342D01*
X81649210Y-98211019D01*
X81648820Y-98211645D01*
X81112261Y-98796982D01*
X81111592Y-98797462D01*
X81090295Y-98806831D01*
X81089490Y-98807000D01*
X80110510Y-98807000D01*
X80109705Y-98806831D01*
X80088408Y-98797462D01*
X80087739Y-98796982D01*
X79551180Y-98211645D01*
X79550790Y-98211019D01*
X79546202Y-98199223D01*
X79552000Y-98199223D01*
X80100879Y-98798000D01*
X81099121Y-98798000D01*
X81648000Y-98199223D01*
X81648000Y-95400802D01*
X81099146Y-94827000D01*
X80100854Y-94827000D01*
X79552000Y-95400802D01*
X79552000Y-98199223D01*
X79546202Y-98199223D01*
X79543136Y-98191342D01*
X79543000Y-98190617D01*
X79543000Y-95409657D01*
X79543144Y-95408912D01*
X79551206Y-95388818D01*
X79551617Y-95388181D01*
X80087865Y-94827558D01*
X80088524Y-94827101D01*
X80109448Y-94818161D01*
X80110234Y-94818000D01*
X81089766Y-94818000D01*
X81090552Y-94818161D01*
G37*
G36*
X81090819Y-89093152D02*
G01*
X81111332Y-89101649D01*
X81111981Y-89102083D01*
X81647917Y-89638019D01*
X81648351Y-89638668D01*
X81656848Y-89659181D01*
X81657000Y-89659946D01*
X81657000Y-92440054D01*
X81656848Y-92440819D01*
X81648351Y-92461332D01*
X81647917Y-92461981D01*
X81111981Y-92997917D01*
X81111332Y-92998351D01*
X81090819Y-93006848D01*
X81090054Y-93007000D01*
X80109946Y-93007000D01*
X80109181Y-93006848D01*
X80088668Y-92998351D01*
X80088019Y-92997917D01*
X79552083Y-92461981D01*
X79551649Y-92461332D01*
X79546612Y-92449172D01*
X79552000Y-92449172D01*
X80100828Y-92998000D01*
X81099172Y-92998000D01*
X81648000Y-92449172D01*
X81648000Y-89650828D01*
X81099172Y-89102000D01*
X80100828Y-89102000D01*
X79552000Y-89650828D01*
X79552000Y-92449172D01*
X79546612Y-92449172D01*
X79543152Y-92440819D01*
X79543000Y-92440054D01*
X79543000Y-89659946D01*
X79543152Y-89659181D01*
X79551649Y-89638668D01*
X79552083Y-89638019D01*
X80088019Y-89102083D01*
X80088668Y-89101649D01*
X80109181Y-89093152D01*
X80109946Y-89093000D01*
X81090054Y-89093000D01*
X81090819Y-89093152D01*
G37*
G36*
X70540819Y-88993152D02*
G01*
X70551387Y-88997530D01*
X70552470Y-88998613D01*
X70556848Y-89009181D01*
X70557000Y-89009946D01*
X70557000Y-92990054D01*
X70556848Y-92990819D01*
X70552470Y-93001387D01*
X70551387Y-93002470D01*
X70540819Y-93006848D01*
X70540054Y-93007000D01*
X68009946Y-93007000D01*
X68009181Y-93006848D01*
X67998613Y-93002470D01*
X67997530Y-93001387D01*
X67996127Y-92998000D01*
X68002000Y-92998000D01*
X70548000Y-92998000D01*
X70548000Y-89002000D01*
X68002000Y-89002000D01*
X68002000Y-92998000D01*
X67996127Y-92998000D01*
X67993152Y-92990819D01*
X67993000Y-92990054D01*
X67993000Y-89009946D01*
X67993152Y-89009181D01*
X67997530Y-88998613D01*
X67998613Y-88997530D01*
X68009181Y-88993152D01*
X68009946Y-88993000D01*
X70540054Y-88993000D01*
X70540819Y-88993152D01*
G37*
G36*
X70590819Y-83193152D02*
G01*
X70601387Y-83197530D01*
X70602470Y-83198613D01*
X70606848Y-83209181D01*
X70607000Y-83209946D01*
X70607000Y-87240054D01*
X70606848Y-87240819D01*
X70602470Y-87251387D01*
X70601387Y-87252470D01*
X70590819Y-87256848D01*
X70590054Y-87257000D01*
X68009946Y-87257000D01*
X68009181Y-87256848D01*
X67998613Y-87252470D01*
X67997530Y-87251387D01*
X67996127Y-87248000D01*
X68002000Y-87248000D01*
X70598000Y-87248000D01*
X70598000Y-83202000D01*
X68170626Y-83202000D01*
X68082937Y-83437103D01*
X68022342Y-83715652D01*
X68002000Y-84000073D01*
X68002000Y-87248000D01*
X67996127Y-87248000D01*
X67993152Y-87240819D01*
X67993000Y-87240054D01*
X67993000Y-84000886D01*
X67993001Y-84000814D01*
X67993077Y-83998696D01*
X67993081Y-83998625D01*
X68013248Y-83716648D01*
X68013263Y-83716506D01*
X68013872Y-83712271D01*
X68013898Y-83712131D01*
X68073794Y-83436795D01*
X68073829Y-83436657D01*
X68075031Y-83432561D01*
X68075076Y-83432425D01*
X68159204Y-83206871D01*
X68159614Y-83206207D01*
X68170852Y-83194136D01*
X68171891Y-83193545D01*
X68174186Y-83193046D01*
X68174611Y-83193000D01*
X70590054Y-83193000D01*
X70590819Y-83193152D01*
G37*
G36*
X81090819Y-83343152D02*
G01*
X81111332Y-83351649D01*
X81111981Y-83352083D01*
X81647917Y-83888019D01*
X81648351Y-83888668D01*
X81656848Y-83909181D01*
X81657000Y-83909946D01*
X81657000Y-86690054D01*
X81656848Y-86690819D01*
X81648351Y-86711332D01*
X81647917Y-86711981D01*
X81111981Y-87247917D01*
X81111332Y-87248351D01*
X81090819Y-87256848D01*
X81090054Y-87257000D01*
X80109946Y-87257000D01*
X80109181Y-87256848D01*
X80088668Y-87248351D01*
X80088019Y-87247917D01*
X79552083Y-86711981D01*
X79551649Y-86711332D01*
X79546612Y-86699172D01*
X79552000Y-86699172D01*
X80100828Y-87248000D01*
X81099172Y-87248000D01*
X81648000Y-86699172D01*
X81648000Y-83900828D01*
X81099172Y-83352000D01*
X80100828Y-83352000D01*
X79552000Y-83900828D01*
X79552000Y-86699172D01*
X79546612Y-86699172D01*
X79543152Y-86690819D01*
X79543000Y-86690054D01*
X79543000Y-83909946D01*
X79543152Y-83909181D01*
X79551649Y-83888668D01*
X79552083Y-83888019D01*
X80088019Y-83352083D01*
X80088668Y-83351649D01*
X80109181Y-83343152D01*
X80109946Y-83343000D01*
X81090054Y-83343000D01*
X81090819Y-83343152D01*
G37*
G36*
X114540819Y-82493152D02*
G01*
X114551387Y-82497530D01*
X114552470Y-82498613D01*
X114556848Y-82509181D01*
X114557000Y-82509946D01*
X114557000Y-85540054D01*
X114556848Y-85540819D01*
X114552470Y-85551387D01*
X114551387Y-85552470D01*
X114540819Y-85556848D01*
X114540054Y-85557000D01*
X110959946Y-85557000D01*
X110959181Y-85556848D01*
X110948613Y-85552470D01*
X110947530Y-85551387D01*
X110943152Y-85540819D01*
X110943000Y-85540054D01*
X110943000Y-84055397D01*
X110928825Y-84021175D01*
X110894603Y-84007000D01*
X88859946Y-84007000D01*
X88859181Y-84006848D01*
X88848613Y-84002470D01*
X88847530Y-84001387D01*
X88846127Y-83998000D01*
X88852000Y-83998000D01*
X110950000Y-83998000D01*
X110951732Y-83999000D01*
X110952000Y-84000000D01*
X110952000Y-85548000D01*
X114548000Y-85548000D01*
X114548000Y-82502000D01*
X88852000Y-82502000D01*
X88852000Y-83998000D01*
X88846127Y-83998000D01*
X88843152Y-83990819D01*
X88843000Y-83990054D01*
X88843000Y-82509946D01*
X88843152Y-82509181D01*
X88847530Y-82498613D01*
X88848613Y-82497530D01*
X88859181Y-82493152D01*
X88859946Y-82493000D01*
X114540054Y-82493000D01*
X114540819Y-82493152D01*
G37*
M02*
