%TF.GenerationSoftware,KiCad,Pcbnew,6.0.4-6f826c9f35~116~ubuntu20.04.1*%
%TF.CreationDate,2022-12-15T23:45:36+00:00*%
%TF.ProjectId,TFESC01,54464553-4330-4312-9e6b-696361645f70,rev?*%
%TF.SameCoordinates,Original*%
%TF.FileFunction,Soldermask,Bot*%
%TF.FilePolarity,Negative*%
%FSLAX46Y46*%
G04 Gerber Fmt 4.6, Leading zero omitted, Abs format (unit mm)*
G04 Created by KiCad (PCBNEW 6.0.4-6f826c9f35~116~ubuntu20.04.1) date 2022-12-15 23:45:36*
%MOMM*%
%LPD*%
G01*
G04 APERTURE LIST*
%ADD10R,1.200000X1.200000*%
%ADD11R,0.700000X0.700000*%
%ADD12R,0.750000X0.800000*%
%ADD13R,0.270000X1.270480*%
%ADD14R,1.270480X0.270000*%
%ADD15R,0.800000X0.750000*%
%ADD16R,0.900000X0.500000*%
%ADD17R,0.900000X1.700000*%
%ADD18R,0.500000X0.900000*%
%ADD19R,1.000000X0.750000*%
%ADD20R,0.425000X0.750000*%
%ADD21R,0.905000X0.495000*%
%ADD22R,4.105000X4.560000*%
%ADD23R,0.600000X0.300000*%
%ADD24R,2.600000X3.000000*%
%ADD25R,1.800000X3.400000*%
%ADD26R,0.900000X0.800000*%
%ADD27C,0.254000*%
G04 APERTURE END LIST*
D10*
%TO.C,P9*%
X112300000Y-87250000D03*
X112300000Y-88750000D03*
X112300000Y-90250000D03*
X112300000Y-91750000D03*
X112300000Y-93250000D03*
X112300000Y-94750000D03*
%TD*%
%TO.C,P10*%
X127575000Y-94750000D03*
X127575000Y-93250000D03*
X127575000Y-91750000D03*
X127575000Y-90250000D03*
X127575000Y-88750000D03*
X127575000Y-87250000D03*
%TD*%
%TO.C,P11*%
X131450000Y-94750000D03*
X131450000Y-93250000D03*
X131450000Y-91750000D03*
X131450000Y-90250000D03*
X131450000Y-88750000D03*
X131450000Y-87250000D03*
%TD*%
D11*
%TO.C,P1*%
X68600000Y-92050000D03*
X70000000Y-90650000D03*
X69300000Y-89950000D03*
X68600000Y-90650000D03*
X70000000Y-92050000D03*
X69300000Y-92050000D03*
X69300000Y-90650000D03*
X70000000Y-89950000D03*
X70000000Y-91350000D03*
X69300000Y-91350000D03*
X68600000Y-91350000D03*
X68600000Y-89950000D03*
%TD*%
%TO.C,P2*%
X69300000Y-95750000D03*
X70000000Y-97850000D03*
X68600000Y-96450000D03*
X68600000Y-97150000D03*
X69300000Y-96450000D03*
X68600000Y-97850000D03*
X68600000Y-95750000D03*
X69300000Y-97850000D03*
X70000000Y-97150000D03*
X70000000Y-96450000D03*
X70000000Y-95750000D03*
X69300000Y-97150000D03*
%TD*%
%TO.C,P3*%
X69300000Y-86250000D03*
X69300000Y-85550000D03*
X68600000Y-85550000D03*
X70000000Y-84150000D03*
X68600000Y-84850000D03*
X69300000Y-84150000D03*
X68600000Y-86250000D03*
X70000000Y-84850000D03*
X70000000Y-85550000D03*
X68600000Y-84150000D03*
X70000000Y-86250000D03*
X69300000Y-84850000D03*
%TD*%
%TO.C,P4*%
X79900000Y-90700000D03*
X80600000Y-90700000D03*
X79900000Y-90000000D03*
X80600000Y-91400000D03*
X81300000Y-91400000D03*
X81300000Y-92100000D03*
X79900000Y-91400000D03*
X80600000Y-90000000D03*
X79900000Y-92100000D03*
X81300000Y-90700000D03*
X81300000Y-90000000D03*
X80600000Y-92100000D03*
%TD*%
%TO.C,P5*%
X79900000Y-97850000D03*
X79900000Y-97150000D03*
X80600000Y-97150000D03*
X79900000Y-95750000D03*
X79900000Y-96450000D03*
X81300000Y-95750000D03*
X80600000Y-97850000D03*
X81300000Y-96450000D03*
X80600000Y-96450000D03*
X81300000Y-97850000D03*
X80600000Y-95750000D03*
X81300000Y-97150000D03*
%TD*%
%TO.C,P6*%
X79900000Y-85650000D03*
X80600000Y-85650000D03*
X81300000Y-86350000D03*
X80600000Y-86350000D03*
X81300000Y-85650000D03*
X80600000Y-84950000D03*
X81300000Y-84250000D03*
X81300000Y-84950000D03*
X79900000Y-84250000D03*
X79900000Y-86350000D03*
X80600000Y-84250000D03*
X79900000Y-84950000D03*
%TD*%
D12*
%TO.C,C1*%
X89750000Y-91000000D03*
X89750000Y-89500000D03*
%TD*%
%TO.C,C2*%
X89750000Y-95650000D03*
X89750000Y-94150000D03*
%TD*%
%TO.C,C3*%
X89750000Y-86550000D03*
X89750000Y-85050000D03*
%TD*%
D13*
%TO.C,U7*%
X123649040Y-96750560D03*
X123151200Y-96750560D03*
X122650820Y-96750560D03*
X122150440Y-96750560D03*
X121650060Y-96750560D03*
X121149680Y-96750560D03*
X120649300Y-96750560D03*
X120148920Y-96750560D03*
X119651080Y-96750560D03*
X119150700Y-96750560D03*
X118650320Y-96750560D03*
X118149940Y-96750560D03*
X117649560Y-96750560D03*
X117149180Y-96750560D03*
X116648800Y-96750560D03*
X116150960Y-96750560D03*
D14*
X114149440Y-94749040D03*
X114149440Y-94251200D03*
X114149440Y-93750820D03*
X114149440Y-93250440D03*
X114149440Y-92750060D03*
X114149440Y-92249680D03*
X114149440Y-91749300D03*
X114149440Y-91248920D03*
X114149440Y-90751080D03*
X114149440Y-90250700D03*
X114149440Y-89750320D03*
X114149440Y-89249940D03*
X114149440Y-88749560D03*
X114149440Y-88249180D03*
X114149440Y-87748800D03*
X114149440Y-87250960D03*
D13*
X116150960Y-85249440D03*
X116648800Y-85249440D03*
X117149180Y-85249440D03*
X117649560Y-85249440D03*
X118149940Y-85249440D03*
X118650320Y-85249440D03*
X119150700Y-85249440D03*
X119651080Y-85249440D03*
X120148920Y-85249440D03*
X120649300Y-85249440D03*
X121149680Y-85249440D03*
X121650060Y-85249440D03*
X122150440Y-85249440D03*
X122650820Y-85249440D03*
X123151200Y-85249440D03*
X123649040Y-85249440D03*
D14*
X125650560Y-87250960D03*
X125650560Y-87748800D03*
X125650560Y-88249180D03*
X125650560Y-88749560D03*
X125650560Y-89249940D03*
X125650560Y-89750320D03*
X125650560Y-90250700D03*
X125650560Y-90751080D03*
X125650560Y-91248920D03*
X125650560Y-91749300D03*
X125650560Y-92249680D03*
X125650560Y-92750060D03*
X125650560Y-93250440D03*
X125650560Y-93750820D03*
X125650560Y-94251200D03*
X125650560Y-94749040D03*
%TD*%
D15*
%TO.C,C6*%
X91250000Y-92350000D03*
X89750000Y-92350000D03*
%TD*%
%TO.C,C7*%
X91250000Y-96900000D03*
X89750000Y-96900000D03*
%TD*%
%TO.C,C8*%
X91150000Y-87800000D03*
X89650000Y-87800000D03*
%TD*%
%TO.C,C18*%
X121150000Y-83500000D03*
X122650000Y-83500000D03*
%TD*%
%TO.C,C19*%
X118250000Y-98500000D03*
X119750000Y-98500000D03*
%TD*%
D12*
%TO.C,C20*%
X125500000Y-98150000D03*
X125500000Y-96650000D03*
%TD*%
D16*
%TO.C,R6*%
X91250000Y-89600000D03*
X91250000Y-91100000D03*
%TD*%
%TO.C,R7*%
X97800000Y-92650000D03*
X97800000Y-91150000D03*
%TD*%
%TO.C,R8*%
X91250000Y-94150000D03*
X91250000Y-95650000D03*
%TD*%
%TO.C,R9*%
X97800000Y-97150000D03*
X97800000Y-95650000D03*
%TD*%
%TO.C,R10*%
X91250000Y-85050000D03*
X91250000Y-86550000D03*
%TD*%
%TO.C,R11*%
X97750000Y-88150000D03*
X97750000Y-86650000D03*
%TD*%
%TO.C,R25*%
X129600000Y-95400000D03*
X129600000Y-93900000D03*
%TD*%
%TO.C,R27*%
X129550000Y-91000000D03*
X129550000Y-92500000D03*
%TD*%
D17*
%TO.C,C4*%
X102150000Y-94900000D03*
X99250000Y-94900000D03*
%TD*%
%TO.C,C5*%
X103300000Y-85150000D03*
X106200000Y-85150000D03*
%TD*%
%TO.C,C33*%
X102150000Y-87100000D03*
X99250000Y-87100000D03*
%TD*%
%TO.C,C37*%
X103300000Y-91000000D03*
X106200000Y-91000000D03*
%TD*%
%TO.C,C38*%
X103300000Y-89050000D03*
X106200000Y-89050000D03*
%TD*%
%TO.C,C41*%
X102150000Y-96850000D03*
X99250000Y-96850000D03*
%TD*%
%TO.C,C43*%
X102150000Y-89050000D03*
X99250000Y-89050000D03*
%TD*%
%TO.C,C65*%
X103300000Y-87100000D03*
X106200000Y-87100000D03*
%TD*%
%TO.C,C66*%
X103300000Y-92950000D03*
X106200000Y-92950000D03*
%TD*%
%TO.C,C67*%
X102150000Y-92950000D03*
X99250000Y-92950000D03*
%TD*%
D18*
%TO.C,C76*%
X130250000Y-87200000D03*
X128750000Y-87200000D03*
%TD*%
%TO.C,R30*%
X130250000Y-88750000D03*
X128750000Y-88750000D03*
%TD*%
D17*
%TO.C,C32*%
X103300000Y-94900000D03*
X106200000Y-94900000D03*
%TD*%
%TO.C,C63*%
X102150000Y-85150000D03*
X99250000Y-85150000D03*
%TD*%
%TO.C,C74*%
X102150000Y-91000000D03*
X99250000Y-91000000D03*
%TD*%
%TO.C,C75*%
X103300000Y-96850000D03*
X106200000Y-96850000D03*
%TD*%
%TO.C,C79*%
X110250000Y-85150000D03*
X107350000Y-85150000D03*
%TD*%
%TO.C,C80*%
X110250000Y-87100000D03*
X107350000Y-87100000D03*
%TD*%
%TO.C,C81*%
X110250000Y-94900000D03*
X107350000Y-94900000D03*
%TD*%
%TO.C,C82*%
X110250000Y-96850000D03*
X107350000Y-96850000D03*
%TD*%
%TO.C,C83*%
X110250000Y-89050000D03*
X107350000Y-89050000D03*
%TD*%
%TO.C,C84*%
X110250000Y-91000000D03*
X107350000Y-91000000D03*
%TD*%
%TO.C,C85*%
X110250000Y-92950000D03*
X107350000Y-92950000D03*
%TD*%
D19*
%TO.C,Q1*%
X82500000Y-89095000D03*
X82500000Y-90365000D03*
X82500000Y-91635000D03*
X82500000Y-92905000D03*
D20*
X88282500Y-92905000D03*
D21*
X84842500Y-93527500D03*
X84842500Y-88472500D03*
D20*
X88282500Y-89095000D03*
D22*
X86017500Y-91000000D03*
%TD*%
D19*
%TO.C,Q3*%
X82500000Y-94895000D03*
X82500000Y-97435000D03*
X82500000Y-98705000D03*
X82500000Y-96165000D03*
D22*
X86017500Y-96800000D03*
D20*
X88282500Y-94895000D03*
X88282500Y-98705000D03*
D21*
X84842500Y-94272500D03*
X84842500Y-99327500D03*
%TD*%
D19*
%TO.C,Q5*%
X82500000Y-83295000D03*
X82500000Y-87105000D03*
X82500000Y-85835000D03*
X82500000Y-84565000D03*
D20*
X88282500Y-83295000D03*
X88282500Y-87105000D03*
D21*
X84842500Y-87727500D03*
D22*
X86017500Y-85200000D03*
D21*
X84842500Y-82672500D03*
%TD*%
D23*
%TO.C,U1*%
X92600000Y-92350000D03*
X92600000Y-91550000D03*
X92600000Y-90750000D03*
X92600000Y-89950000D03*
X92600000Y-89150000D03*
X96400000Y-89150000D03*
X96400000Y-89950000D03*
D24*
X94500000Y-90750000D03*
D23*
X96400000Y-90750000D03*
X96400000Y-91550000D03*
X96400000Y-92350000D03*
%TD*%
%TO.C,U2*%
X92600000Y-96850000D03*
X92600000Y-96050000D03*
X92600000Y-95250000D03*
X92600000Y-94450000D03*
X92600000Y-93650000D03*
X96400000Y-93650000D03*
X96400000Y-94450000D03*
X96400000Y-95250000D03*
D24*
X94500000Y-95250000D03*
D23*
X96400000Y-96050000D03*
X96400000Y-96850000D03*
%TD*%
%TO.C,U3*%
X92600000Y-87850000D03*
X92600000Y-87050000D03*
X92600000Y-86250000D03*
X92600000Y-85450000D03*
X92600000Y-84650000D03*
X96400000Y-84650000D03*
X96400000Y-85450000D03*
X96400000Y-86250000D03*
D24*
X94500000Y-86250000D03*
D23*
X96400000Y-87050000D03*
X96400000Y-87850000D03*
%TD*%
D25*
%TO.C,R1*%
X72400000Y-91000000D03*
X77600000Y-91000000D03*
%TD*%
%TO.C,R2*%
X72400000Y-96800000D03*
X77600000Y-96800000D03*
%TD*%
%TO.C,R3*%
X72400000Y-85200000D03*
X77600000Y-85200000D03*
%TD*%
D15*
%TO.C,C26*%
X124150000Y-83500000D03*
X125650000Y-83500000D03*
%TD*%
%TO.C,C27*%
X123600000Y-98500000D03*
X122100000Y-98500000D03*
%TD*%
%TO.C,C86*%
X117050000Y-98500000D03*
X115550000Y-98500000D03*
%TD*%
D12*
%TO.C,C87*%
X131700000Y-96667242D03*
X131700000Y-98167242D03*
%TD*%
%TO.C,C88*%
X127300000Y-83750000D03*
X127300000Y-85250000D03*
%TD*%
%TO.C,C89*%
X131700000Y-83750000D03*
X131700000Y-85250000D03*
%TD*%
%TO.C,C90*%
X127300000Y-96667242D03*
X127300000Y-98167242D03*
%TD*%
D26*
%TO.C,U9*%
X128500000Y-85450000D03*
X128500000Y-83550000D03*
X130500000Y-84500000D03*
%TD*%
%TO.C,U10*%
X128500000Y-98367242D03*
X128500000Y-96467242D03*
X130500000Y-97417242D03*
%TD*%
D27*
X70423000Y-98673000D02*
X67777000Y-98673000D01*
X67777000Y-94927000D01*
X70423000Y-94927000D01*
X70423000Y-98673000D01*
X70423000Y-98673000D02*
X70423000Y-94927000D01*
G36*
X70423000Y-98673000D02*
G01*
X67777000Y-98673000D01*
X67777000Y-94927000D01*
X70423000Y-94927000D01*
X70423000Y-98673000D01*
G37*
X70423000Y-92873000D02*
X67777000Y-92873000D01*
X67777000Y-89127000D01*
X70423000Y-89127000D01*
X70423000Y-92873000D01*
X70423000Y-92873000D02*
X70423000Y-89127000D01*
G36*
X70423000Y-92873000D02*
G01*
X67777000Y-92873000D01*
X67777000Y-89127000D01*
X70423000Y-89127000D01*
X70423000Y-92873000D01*
G37*
X81523000Y-95450960D02*
X81523000Y-98150599D01*
X81044132Y-98673000D01*
X80155868Y-98673000D01*
X79677000Y-98150599D01*
X79677000Y-95450960D01*
X80154266Y-94952000D01*
X81045734Y-94952000D01*
X81523000Y-95450960D01*
X81523000Y-95450960D02*
X81045734Y-94952000D01*
G36*
X81523000Y-95450960D02*
G01*
X81523000Y-98150599D01*
X81044132Y-98673000D01*
X80155868Y-98673000D01*
X79677000Y-98150599D01*
X79677000Y-95450960D01*
X80154266Y-94952000D01*
X81045734Y-94952000D01*
X81523000Y-95450960D01*
G37*
X81523000Y-89702606D02*
X81523000Y-92397394D01*
X81047394Y-92873000D01*
X80152606Y-92873000D01*
X79677000Y-92397394D01*
X79677000Y-89702606D01*
X80152606Y-89227000D01*
X81047394Y-89227000D01*
X81523000Y-89702606D01*
X81523000Y-89702606D02*
X81047394Y-89227000D01*
G36*
X81523000Y-89702606D02*
G01*
X81523000Y-92397394D01*
X81047394Y-92873000D01*
X80152606Y-92873000D01*
X79677000Y-92397394D01*
X79677000Y-89702606D01*
X80152606Y-89227000D01*
X81047394Y-89227000D01*
X81523000Y-89702606D01*
G37*
X110573000Y-83873000D02*
X88977000Y-83873000D01*
X88977000Y-82627000D01*
X110573000Y-82627000D01*
X110573000Y-83873000D01*
X110573000Y-83873000D02*
X110573000Y-82627000D01*
G36*
X110573000Y-83873000D02*
G01*
X88977000Y-83873000D01*
X88977000Y-82627000D01*
X110573000Y-82627000D01*
X110573000Y-83873000D01*
G37*
X110573000Y-99373000D02*
X89927000Y-99373000D01*
X89927000Y-98127000D01*
X110573000Y-98127000D01*
X110573000Y-99373000D01*
X110573000Y-99373000D02*
X110573000Y-98127000D01*
G36*
X110573000Y-99373000D02*
G01*
X89927000Y-99373000D01*
X89927000Y-98127000D01*
X110573000Y-98127000D01*
X110573000Y-99373000D01*
G37*
X70473000Y-87123000D02*
X67777000Y-87123000D01*
X67777000Y-83327000D01*
X70473000Y-83327000D01*
X70473000Y-87123000D01*
X70473000Y-87123000D02*
X70473000Y-83327000D01*
G36*
X70473000Y-87123000D02*
G01*
X67777000Y-87123000D01*
X67777000Y-83327000D01*
X70473000Y-83327000D01*
X70473000Y-87123000D01*
G37*
X81523000Y-83952606D02*
X81523000Y-86647394D01*
X81047394Y-87123000D01*
X80152606Y-87123000D01*
X79677000Y-86647394D01*
X79677000Y-83952606D01*
X80152606Y-83477000D01*
X81047394Y-83477000D01*
X81523000Y-83952606D01*
X81523000Y-83952606D02*
X81047394Y-83477000D01*
G36*
X81523000Y-83952606D02*
G01*
X81523000Y-86647394D01*
X81047394Y-87123000D01*
X80152606Y-87123000D01*
X79677000Y-86647394D01*
X79677000Y-83952606D01*
X80152606Y-83477000D01*
X81047394Y-83477000D01*
X81523000Y-83952606D01*
G37*
G36*
X110690819Y-97993152D02*
G01*
X110701387Y-97997530D01*
X110702470Y-97998613D01*
X110706848Y-98009181D01*
X110707000Y-98009946D01*
X110707000Y-99490054D01*
X110706848Y-99490819D01*
X110702470Y-99501387D01*
X110701387Y-99502470D01*
X110690819Y-99506848D01*
X110690054Y-99507000D01*
X89809946Y-99507000D01*
X89809181Y-99506848D01*
X89798613Y-99502470D01*
X89797530Y-99501387D01*
X89796127Y-99498000D01*
X89802000Y-99498000D01*
X110698000Y-99498000D01*
X110698000Y-98002000D01*
X89802000Y-98002000D01*
X89802000Y-99498000D01*
X89796127Y-99498000D01*
X89793152Y-99490819D01*
X89793000Y-99490054D01*
X89793000Y-98009946D01*
X89793152Y-98009181D01*
X89797530Y-97998613D01*
X89798613Y-97997530D01*
X89809181Y-97993152D01*
X89809946Y-97993000D01*
X110690054Y-97993000D01*
X110690819Y-97993152D01*
G37*
G36*
X81090552Y-94818161D02*
G01*
X81111476Y-94827101D01*
X81112135Y-94827558D01*
X81648383Y-95388181D01*
X81648794Y-95388818D01*
X81656856Y-95408912D01*
X81657000Y-95409657D01*
X81657000Y-98190617D01*
X81656864Y-98191342D01*
X81649210Y-98211019D01*
X81648820Y-98211645D01*
X81112261Y-98796982D01*
X81111592Y-98797462D01*
X81090295Y-98806831D01*
X81089490Y-98807000D01*
X80110510Y-98807000D01*
X80109705Y-98806831D01*
X80088408Y-98797462D01*
X80087739Y-98796982D01*
X79551180Y-98211645D01*
X79550790Y-98211019D01*
X79546202Y-98199223D01*
X79552000Y-98199223D01*
X80100879Y-98798000D01*
X81099121Y-98798000D01*
X81648000Y-98199223D01*
X81648000Y-95400802D01*
X81099146Y-94827000D01*
X80100854Y-94827000D01*
X79552000Y-95400802D01*
X79552000Y-98199223D01*
X79546202Y-98199223D01*
X79543136Y-98191342D01*
X79543000Y-98190617D01*
X79543000Y-95409657D01*
X79543144Y-95408912D01*
X79551206Y-95388818D01*
X79551617Y-95388181D01*
X80087865Y-94827558D01*
X80088524Y-94827101D01*
X80109448Y-94818161D01*
X80110234Y-94818000D01*
X81089766Y-94818000D01*
X81090552Y-94818161D01*
G37*
G36*
X70540819Y-94793152D02*
G01*
X70551387Y-94797530D01*
X70552470Y-94798613D01*
X70556848Y-94809181D01*
X70557000Y-94809946D01*
X70557000Y-98790054D01*
X70556848Y-98790819D01*
X70552470Y-98801387D01*
X70551387Y-98802470D01*
X70540819Y-98806848D01*
X70540054Y-98807000D01*
X68179183Y-98807000D01*
X68178418Y-98806848D01*
X68163180Y-98800536D01*
X68162263Y-98799770D01*
X68160993Y-98797795D01*
X68160801Y-98797412D01*
X68075076Y-98567575D01*
X68075031Y-98567439D01*
X68073829Y-98563343D01*
X68073794Y-98563205D01*
X68013898Y-98287869D01*
X68013872Y-98287729D01*
X68013263Y-98283494D01*
X68013248Y-98283352D01*
X67993081Y-98001375D01*
X67993077Y-98001304D01*
X67993028Y-97999927D01*
X68002000Y-97999927D01*
X68022342Y-98284348D01*
X68082937Y-98562897D01*
X68170626Y-98798000D01*
X70548000Y-98798000D01*
X70548000Y-94802000D01*
X68002000Y-94802000D01*
X68002000Y-97999927D01*
X67993028Y-97999927D01*
X67993001Y-97999186D01*
X67993000Y-97999114D01*
X67993000Y-94809946D01*
X67993152Y-94809181D01*
X67997530Y-94798613D01*
X67998613Y-94797530D01*
X68009181Y-94793152D01*
X68009946Y-94793000D01*
X70540054Y-94793000D01*
X70540819Y-94793152D01*
G37*
G36*
X81090819Y-89093152D02*
G01*
X81111332Y-89101649D01*
X81111981Y-89102083D01*
X81647917Y-89638019D01*
X81648351Y-89638668D01*
X81656848Y-89659181D01*
X81657000Y-89659946D01*
X81657000Y-92440054D01*
X81656848Y-92440819D01*
X81648351Y-92461332D01*
X81647917Y-92461981D01*
X81111981Y-92997917D01*
X81111332Y-92998351D01*
X81090819Y-93006848D01*
X81090054Y-93007000D01*
X80109946Y-93007000D01*
X80109181Y-93006848D01*
X80088668Y-92998351D01*
X80088019Y-92997917D01*
X79552083Y-92461981D01*
X79551649Y-92461332D01*
X79546612Y-92449172D01*
X79552000Y-92449172D01*
X80100828Y-92998000D01*
X81099172Y-92998000D01*
X81648000Y-92449172D01*
X81648000Y-89650828D01*
X81099172Y-89102000D01*
X80100828Y-89102000D01*
X79552000Y-89650828D01*
X79552000Y-92449172D01*
X79546612Y-92449172D01*
X79543152Y-92440819D01*
X79543000Y-92440054D01*
X79543000Y-89659946D01*
X79543152Y-89659181D01*
X79551649Y-89638668D01*
X79552083Y-89638019D01*
X80088019Y-89102083D01*
X80088668Y-89101649D01*
X80109181Y-89093152D01*
X80109946Y-89093000D01*
X81090054Y-89093000D01*
X81090819Y-89093152D01*
G37*
G36*
X70540819Y-88993152D02*
G01*
X70551387Y-88997530D01*
X70552470Y-88998613D01*
X70556848Y-89009181D01*
X70557000Y-89009946D01*
X70557000Y-92990054D01*
X70556848Y-92990819D01*
X70552470Y-93001387D01*
X70551387Y-93002470D01*
X70540819Y-93006848D01*
X70540054Y-93007000D01*
X68009946Y-93007000D01*
X68009181Y-93006848D01*
X67998613Y-93002470D01*
X67997530Y-93001387D01*
X67996127Y-92998000D01*
X68002000Y-92998000D01*
X70548000Y-92998000D01*
X70548000Y-89002000D01*
X68002000Y-89002000D01*
X68002000Y-92998000D01*
X67996127Y-92998000D01*
X67993152Y-92990819D01*
X67993000Y-92990054D01*
X67993000Y-89009946D01*
X67993152Y-89009181D01*
X67997530Y-88998613D01*
X67998613Y-88997530D01*
X68009181Y-88993152D01*
X68009946Y-88993000D01*
X70540054Y-88993000D01*
X70540819Y-88993152D01*
G37*
G36*
X81090819Y-83343152D02*
G01*
X81111332Y-83351649D01*
X81111981Y-83352083D01*
X81647917Y-83888019D01*
X81648351Y-83888668D01*
X81656848Y-83909181D01*
X81657000Y-83909946D01*
X81657000Y-86690054D01*
X81656848Y-86690819D01*
X81648351Y-86711332D01*
X81647917Y-86711981D01*
X81111981Y-87247917D01*
X81111332Y-87248351D01*
X81090819Y-87256848D01*
X81090054Y-87257000D01*
X80109946Y-87257000D01*
X80109181Y-87256848D01*
X80088668Y-87248351D01*
X80088019Y-87247917D01*
X79552083Y-86711981D01*
X79551649Y-86711332D01*
X79546612Y-86699172D01*
X79552000Y-86699172D01*
X80100828Y-87248000D01*
X81099172Y-87248000D01*
X81648000Y-86699172D01*
X81648000Y-83900828D01*
X81099172Y-83352000D01*
X80100828Y-83352000D01*
X79552000Y-83900828D01*
X79552000Y-86699172D01*
X79546612Y-86699172D01*
X79543152Y-86690819D01*
X79543000Y-86690054D01*
X79543000Y-83909946D01*
X79543152Y-83909181D01*
X79551649Y-83888668D01*
X79552083Y-83888019D01*
X80088019Y-83352083D01*
X80088668Y-83351649D01*
X80109181Y-83343152D01*
X80109946Y-83343000D01*
X81090054Y-83343000D01*
X81090819Y-83343152D01*
G37*
G36*
X70590819Y-83193152D02*
G01*
X70601387Y-83197530D01*
X70602470Y-83198613D01*
X70606848Y-83209181D01*
X70607000Y-83209946D01*
X70607000Y-87240054D01*
X70606848Y-87240819D01*
X70602470Y-87251387D01*
X70601387Y-87252470D01*
X70590819Y-87256848D01*
X70590054Y-87257000D01*
X68009946Y-87257000D01*
X68009181Y-87256848D01*
X67998613Y-87252470D01*
X67997530Y-87251387D01*
X67996127Y-87248000D01*
X68002000Y-87248000D01*
X70598000Y-87248000D01*
X70598000Y-83202000D01*
X68170626Y-83202000D01*
X68082937Y-83437103D01*
X68022342Y-83715652D01*
X68002000Y-84000073D01*
X68002000Y-87248000D01*
X67996127Y-87248000D01*
X67993152Y-87240819D01*
X67993000Y-87240054D01*
X67993000Y-84000886D01*
X67993001Y-84000814D01*
X67993077Y-83998696D01*
X67993081Y-83998625D01*
X68013248Y-83716648D01*
X68013263Y-83716506D01*
X68013872Y-83712271D01*
X68013898Y-83712131D01*
X68073794Y-83436795D01*
X68073829Y-83436657D01*
X68075031Y-83432561D01*
X68075076Y-83432425D01*
X68159204Y-83206871D01*
X68159614Y-83206207D01*
X68170852Y-83194136D01*
X68171891Y-83193545D01*
X68174186Y-83193046D01*
X68174611Y-83193000D01*
X70590054Y-83193000D01*
X70590819Y-83193152D01*
G37*
G36*
X110690819Y-82493152D02*
G01*
X110701387Y-82497530D01*
X110702470Y-82498613D01*
X110706848Y-82509181D01*
X110707000Y-82509946D01*
X110707000Y-83990054D01*
X110706848Y-83990819D01*
X110702470Y-84001387D01*
X110701387Y-84002470D01*
X110690819Y-84006848D01*
X110690054Y-84007000D01*
X88859946Y-84007000D01*
X88859181Y-84006848D01*
X88848613Y-84002470D01*
X88847530Y-84001387D01*
X88846127Y-83998000D01*
X88852000Y-83998000D01*
X110698000Y-83998000D01*
X110698000Y-82502000D01*
X88852000Y-82502000D01*
X88852000Y-83998000D01*
X88846127Y-83998000D01*
X88843152Y-83990819D01*
X88843000Y-83990054D01*
X88843000Y-82509946D01*
X88843152Y-82509181D01*
X88847530Y-82498613D01*
X88848613Y-82497530D01*
X88859181Y-82493152D01*
X88859946Y-82493000D01*
X110690054Y-82493000D01*
X110690819Y-82493152D01*
G37*
M02*
