  0
SECTION
  2
HEADER
  9
$ANGBASE
  50
0.0
  9
$ANGDIR
  70
1
  9
$MEASUREMENT
  70
0
  0
ENDSEC
  0
SECTION
  2
TABLES
  0
TABLE
  2
LTYPE
  70
4
  0
LTYPE
  5
40F
  2
CONTINUOUS
  70
0
  3
Solid line
  72
65
  73
0
  40
0.0
  0
LTYPE
  5
410
  2
DASHDOT
 70
0
  3
Dash Dot ____ _ ____ _
 72
65
 73
4
 40
2.0
 49
1.25
 49
-0.25
 49
0.25
 49
-0.25
  0
LTYPE
  5
411
  2
DASHED
 70
0
  3
Dashed __ __ __ __ __
 72
65
 73
2
 40
0.75
 49
0.5
 49
-0.25
  0
LTYPE
  5
43B
  2
DOTTED
 70
0
  3
Dotted .  .  .  .
 72
65
 73
2
 40
0.2
 49
0.0
 49
-0.2
  0
ENDTAB
  0
TABLE
  2
STYLE
  70
4
  0
STYLE
  2
KICAD
  70
0
  40
0
  41
1
  42
1
  50
0
  71
0
  3
isocp.shx
  0
STYLE
  2
KICADB
  70
0
  40
0
  41
1
  42
1
  50
0
  71
0
  3
isocp.shx
  0
STYLE
  2
KICADI
  70
0
  40
0
  41
1
  42
1
  50
15
  71
0
  3
isocp.shx
  0
STYLE
  2
KICADBI
  70
0
  40
0
  41
1
  42
1
  50
15
  71
0
  3
isocp.shx
  0
ENDTAB
  0
TABLE
  2
LAYER
  70
1
  0
LAYER
  2
BLACK
  70
0
  62
7
  6
CONTINUOUS
  0
ENDTAB
  0
ENDSEC
  0
SECTION
  2
ENTITIES
0
LINE
8
BLACK
6
CONTINUOUS
10
4.82205
20
-3.6252
11
4.82267
21
-3.62546
0
LINE
8
BLACK
6
CONTINUOUS
10
4.82267
20
-3.62546
11
4.82332
21
-3.62566
0
LINE
8
BLACK
6
CONTINUOUS
10
4.82332
20
-3.62566
11
4.87095
21
-3.66582
0
LINE
8
BLACK
6
CONTINUOUS
10
4.87095
20
-3.66582
11
4.87099
21
-3.66589
0
LINE
8
BLACK
6
CONTINUOUS
10
4.87099
20
-3.66589
11
4.87106
21
-3.66592
0
LINE
8
BLACK
6
CONTINUOUS
10
4.87106
20
-3.66592
11
4.87133
21
-3.66655
0
LINE
8
BLACK
6
CONTINUOUS
10
4.87133
20
-3.66655
11
4.87165
21
-3.66716
0
LINE
8
BLACK
6
CONTINUOUS
10
4.87165
20
-3.66716
11
4.87162
21
-3.66723
0
LINE
8
BLACK
6
CONTINUOUS
10
4.87162
20
-3.66723
11
4.87165
21
-3.66731
0
LINE
8
BLACK
6
CONTINUOUS
10
4.87165
20
-3.66731
11
4.87242
21
-3.75479
0
LINE
8
BLACK
6
CONTINUOUS
10
4.87242
20
-3.75479
11
5.29928
21
-3.76929
0
LINE
8
BLACK
6
CONTINUOUS
10
5.29928
20
-3.76929
11
5.30065
21
-3.76992
0
LINE
8
BLACK
6
CONTINUOUS
10
5.30065
20
-3.76992
11
5.30118
21
-3.77133
0
LINE
8
BLACK
6
CONTINUOUS
10
5.30118
20
-3.77133
11
5.30056
21
-3.7727
0
LINE
8
BLACK
6
CONTINUOUS
10
5.30056
20
-3.7727
11
5.29915
21
-3.77323
0
LINE
8
BLACK
6
CONTINUOUS
10
5.29915
20
-3.77323
11
4.87041
21
-3.75866
0
LINE
8
BLACK
6
CONTINUOUS
10
4.87041
20
-3.75866
11
4.86976
21
-3.75836
0
LINE
8
BLACK
6
CONTINUOUS
10
4.86976
20
-3.75836
11
4.86909
21
-3.7581
0
LINE
8
BLACK
6
CONTINUOUS
10
4.86909
20
-3.7581
11
4.86908
21
-3.75806
0
LINE
8
BLACK
6
CONTINUOUS
10
4.86908
20
-3.75806
11
4.86903
21
-3.75804
0
LINE
8
BLACK
6
CONTINUOUS
10
4.86903
20
-3.75804
11
4.86878
21
-3.75737
0
LINE
8
BLACK
6
CONTINUOUS
10
4.86878
20
-3.75737
11
4.8685
21
-3.75671
0
LINE
8
BLACK
6
CONTINUOUS
10
4.8685
20
-3.75671
11
4.86772
21
-3.66824
0
LINE
8
BLACK
6
CONTINUOUS
10
4.86772
20
-3.66824
11
4.82133
21
-3.62913
0
LINE
8
BLACK
6
CONTINUOUS
10
4.82133
20
-3.62913
11
4.60552
21
-3.62874
0
LINE
8
BLACK
6
CONTINUOUS
10
4.60552
20
-3.62874
11
4.52204
21
-3.70911
0
LINE
8
BLACK
6
CONTINUOUS
10
4.52204
20
-3.70911
11
4.52133
21
-3.8563
0
LINE
8
BLACK
6
CONTINUOUS
10
4.52133
20
-3.8563
11
4.52756
21
-3.8563
0
LINE
8
BLACK
6
CONTINUOUS
10
4.52756
20
-3.8563
11
4.52895
21
-3.85688
0
LINE
8
BLACK
6
CONTINUOUS
10
4.52895
20
-3.85688
11
4.52953
21
-3.85827
0
LINE
8
BLACK
6
CONTINUOUS
10
4.52953
20
-3.85827
11
4.52895
21
-3.85966
0
LINE
8
BLACK
6
CONTINUOUS
10
4.52895
20
-3.85966
11
4.52756
21
-3.86024
0
LINE
8
BLACK
6
CONTINUOUS
10
4.52756
20
-3.86024
11
4.52131
21
-3.86024
0
LINE
8
BLACK
6
CONTINUOUS
10
4.52131
20
-3.86024
11
4.52087
21
-3.95237
0
LINE
8
BLACK
6
CONTINUOUS
10
4.52087
20
-3.95237
11
4.52028
21
-3.95376
0
LINE
8
BLACK
6
CONTINUOUS
10
4.52028
20
-3.95376
11
4.51889
21
-3.95433
0
LINE
8
BLACK
6
CONTINUOUS
10
4.51889
20
-3.95433
11
4.5175
21
-3.95375
0
LINE
8
BLACK
6
CONTINUOUS
10
4.5175
20
-3.95375
11
4.51693
21
-3.95235
0
LINE
8
BLACK
6
CONTINUOUS
10
4.51693
20
-3.95235
11
4.51737
21
-3.86024
0
LINE
8
BLACK
6
CONTINUOUS
10
4.51737
20
-3.86024
11
3.56496
21
-3.86024
0
LINE
8
BLACK
6
CONTINUOUS
10
3.56496
20
-3.86024
11
3.56496
21
-3.95669
0
LINE
8
BLACK
6
CONTINUOUS
10
3.56496
20
-3.95669
11
3.56438
21
-3.95808
0
LINE
8
BLACK
6
CONTINUOUS
10
3.56438
20
-3.95808
11
3.56299
21
-3.95866
0
LINE
8
BLACK
6
CONTINUOUS
10
3.56299
20
-3.95866
11
3.5616
21
-3.95808
0
LINE
8
BLACK
6
CONTINUOUS
10
3.5616
20
-3.95808
11
3.56102
21
-3.95669
0
LINE
8
BLACK
6
CONTINUOUS
10
3.56102
20
-3.95669
11
3.56102
21
-3.85827
0
LINE
8
BLACK
6
CONTINUOUS
10
3.56102
20
-3.85827
11
3.5616
21
-3.85688
0
LINE
8
BLACK
6
CONTINUOUS
10
3.5616
20
-3.85688
11
3.56299
21
-3.8563
0
LINE
8
BLACK
6
CONTINUOUS
10
3.56299
20
-3.8563
11
4.51739
21
-3.8563
0
LINE
8
BLACK
6
CONTINUOUS
10
4.51739
20
-3.8563
11
4.51811
21
-3.70826
0
LINE
8
BLACK
6
CONTINUOUS
10
4.51811
20
-3.70826
11
4.51812
21
-3.70824
0
LINE
8
BLACK
6
CONTINUOUS
10
4.51812
20
-3.70824
11
4.51811
21
-3.70823
0
LINE
8
BLACK
6
CONTINUOUS
10
4.51811
20
-3.70823
11
4.51841
21
-3.70755
0
LINE
8
BLACK
6
CONTINUOUS
10
4.51841
20
-3.70755
11
4.51869
21
-3.70687
0
LINE
8
BLACK
6
CONTINUOUS
10
4.51869
20
-3.70687
11
4.51871
21
-3.70686
0
LINE
8
BLACK
6
CONTINUOUS
10
4.51871
20
-3.70686
11
4.51871
21
-3.70685
0
LINE
8
BLACK
6
CONTINUOUS
10
4.51871
20
-3.70685
11
4.60336
21
-3.62535
0
LINE
8
BLACK
6
CONTINUOUS
10
4.60336
20
-3.62535
11
4.60405
21
-3.62508
0
LINE
8
BLACK
6
CONTINUOUS
10
4.60405
20
-3.62508
11
4.60473
21
-3.6248
0
LINE
8
BLACK
6
CONTINUOUS
10
4.60473
20
-3.6248
11
4.82205
21
-3.6252
0
LINE
8
BLACK
6
CONTINUOUS
10
5.23368
20
-3.58129
11
5.23425
21
-3.58268
0
LINE
8
BLACK
6
CONTINUOUS
10
5.23425
20
-3.58268
11
5.23368
21
-3.58407
0
LINE
8
BLACK
6
CONTINUOUS
10
5.23368
20
-3.58407
11
5.23228
21
-3.58465
0
LINE
8
BLACK
6
CONTINUOUS
10
5.23228
20
-3.58465
11
2.67717
21
-3.58465
0
LINE
8
BLACK
6
CONTINUOUS
10
2.67717
20
-3.58465
11
2.67577
21
-3.58407
0
LINE
8
BLACK
6
CONTINUOUS
10
2.67577
20
-3.58407
11
2.6752
21
-3.58268
0
LINE
8
BLACK
6
CONTINUOUS
10
2.6752
20
-3.58268
11
2.67577
21
-3.58129
0
LINE
8
BLACK
6
CONTINUOUS
10
2.67577
20
-3.58129
11
2.67717
21
-3.58071
0
LINE
8
BLACK
6
CONTINUOUS
10
2.67717
20
-3.58071
11
5.23228
21
-3.58071
0
LINE
8
BLACK
6
CONTINUOUS
10
5.23228
20
-3.58071
11
5.23368
21
-3.58129
0
LINE
8
BLACK
6
CONTINUOUS
10
3.5616
20
-3.30848
11
3.56102
21
-3.30709
0
LINE
8
BLACK
6
CONTINUOUS
10
3.56102
20
-3.30709
11
3.56102
21
-3.20866
0
LINE
8
BLACK
6
CONTINUOUS
10
3.56102
20
-3.20866
11
3.5616
21
-3.20727
0
LINE
8
BLACK
6
CONTINUOUS
10
3.5616
20
-3.20727
11
3.56299
21
-3.20669
0
LINE
8
BLACK
6
CONTINUOUS
10
3.56299
20
-3.20669
11
3.56438
21
-3.20727
0
LINE
8
BLACK
6
CONTINUOUS
10
3.56438
20
-3.20727
11
3.56496
21
-3.20866
0
LINE
8
BLACK
6
CONTINUOUS
10
3.56496
20
-3.20866
11
3.56496
21
-3.30512
0
LINE
8
BLACK
6
CONTINUOUS
10
3.56496
20
-3.30512
11
4.50591
21
-3.30512
0
LINE
8
BLACK
6
CONTINUOUS
10
4.50591
20
-3.30512
11
4.50591
21
-3.18898
0
LINE
8
BLACK
6
CONTINUOUS
10
4.50591
20
-3.18898
11
4.50648
21
-3.18758
0
LINE
8
BLACK
6
CONTINUOUS
10
4.50648
20
-3.18758
11
4.50787
21
-3.18701
0
LINE
8
BLACK
6
CONTINUOUS
10
4.50787
20
-3.18701
11
4.50927
21
-3.18758
0
LINE
8
BLACK
6
CONTINUOUS
10
4.50927
20
-3.18758
11
4.50984
21
-3.18898
0
LINE
8
BLACK
6
CONTINUOUS
10
4.50984
20
-3.18898
11
4.50984
21
-3.30709
0
LINE
8
BLACK
6
CONTINUOUS
10
4.50984
20
-3.30709
11
4.50927
21
-3.30848
0
LINE
8
BLACK
6
CONTINUOUS
10
4.50927
20
-3.30848
11
4.50787
21
-3.30906
0
LINE
8
BLACK
6
CONTINUOUS
10
4.50787
20
-3.30906
11
3.56299
21
-3.30906
0
LINE
8
BLACK
6
CONTINUOUS
10
3.56299
20
-3.30906
11
3.5616
21
-3.30848
  0
ENDSEC
  0
EOF
