  0
SECTION
  2
HEADER
  9
$ANGBASE
  50
0.0
  9
$ANGDIR
  70
1
  9
$MEASUREMENT
  70
0
  0
ENDSEC
  0
SECTION
  2
TABLES
  0
TABLE
  2
LTYPE
  70
4
  0
LTYPE
  5
40F
  2
CONTINUOUS
  70
0
  3
Solid line
  72
65
  73
0
  40
0.0
  0
LTYPE
  5
410
  2
DASHDOT
 70
0
  3
Dash Dot ____ _ ____ _
 72
65
 73
4
 40
2.0
 49
1.25
 49
-0.25
 49
0.25
 49
-0.25
  0
LTYPE
  5
411
  2
DASHED
 70
0
  3
Dashed __ __ __ __ __
 72
65
 73
2
 40
0.75
 49
0.5
 49
-0.25
  0
LTYPE
  5
43B
  2
DOTTED
 70
0
  3
Dotted .  .  .  .
 72
65
 73
2
 40
0.2
 49
0.0
 49
-0.2
  0
ENDTAB
  0
TABLE
  2
STYLE
  70
4
  0
STYLE
  2
KICAD
  70
0
  40
0
  41
1
  42
1
  50
0
  71
0
  3
isocp.shx
  0
STYLE
  2
KICADB
  70
0
  40
0
  41
1
  42
1
  50
0
  71
0
  3
isocp.shx
  0
STYLE
  2
KICADI
  70
0
  40
0
  41
1
  42
1
  50
15
  71
0
  3
isocp.shx
  0
STYLE
  2
KICADBI
  70
0
  40
0
  41
1
  42
1
  50
15
  71
0
  3
isocp.shx
  0
ENDTAB
  0
TABLE
  2
LAYER
  70
1
  0
LAYER
  2
BLACK
  70
0
  62
7
  6
CONTINUOUS
  0
ENDTAB
  0
ENDSEC
  0
SECTION
  2
ENTITIES
0
LINE
8
BLACK
6
CONTINUOUS
10
2.67782
20
-3.86855
11
2.67983
21
-3.87865
0
LINE
8
BLACK
6
CONTINUOUS
10
2.67983
20
-3.87865
11
2.68314
21
-3.88841
0
LINE
8
BLACK
6
CONTINUOUS
10
2.68314
20
-3.88841
11
2.6877
21
-3.89765
0
LINE
8
BLACK
6
CONTINUOUS
10
2.6877
20
-3.89765
11
2.69342
21
-3.90621
0
LINE
8
BLACK
6
CONTINUOUS
10
2.69342
20
-3.90621
11
2.70021
21
-3.91396
0
LINE
8
BLACK
6
CONTINUOUS
10
2.70021
20
-3.91396
11
2.70796
21
-3.92075
0
LINE
8
BLACK
6
CONTINUOUS
10
2.70796
20
-3.92075
11
2.71653
21
-3.92648
0
LINE
8
BLACK
6
CONTINUOUS
10
2.71653
20
-3.92648
11
2.72577
21
-3.93103
0
LINE
8
BLACK
6
CONTINUOUS
10
2.72577
20
-3.93103
11
2.73552
21
-3.93434
0
LINE
8
BLACK
6
CONTINUOUS
10
2.73552
20
-3.93434
11
2.74563
21
-3.93635
0
LINE
8
BLACK
6
CONTINUOUS
10
2.74563
20
-3.93635
11
2.75591
21
-3.93703
0
LINE
8
BLACK
6
CONTINUOUS
10
2.75591
20
-3.93703
11
2.75591
21
-3.93716
0
LINE
8
BLACK
6
CONTINUOUS
10
2.75591
20
-3.93716
11
2.74561
21
-3.93648
0
LINE
8
BLACK
6
CONTINUOUS
10
2.74561
20
-3.93648
11
2.73549
21
-3.93447
0
LINE
8
BLACK
6
CONTINUOUS
10
2.73549
20
-3.93447
11
2.72572
21
-3.93115
0
LINE
8
BLACK
6
CONTINUOUS
10
2.72572
20
-3.93115
11
2.71646
21
-3.92659
0
LINE
8
BLACK
6
CONTINUOUS
10
2.71646
20
-3.92659
11
2.70788
21
-3.92085
0
LINE
8
BLACK
6
CONTINUOUS
10
2.70788
20
-3.92085
11
2.70012
21
-3.91405
0
LINE
8
BLACK
6
CONTINUOUS
10
2.70012
20
-3.91405
11
2.69332
21
-3.90629
0
LINE
8
BLACK
6
CONTINUOUS
10
2.69332
20
-3.90629
11
2.68759
21
-3.89771
0
LINE
8
BLACK
6
CONTINUOUS
10
2.68759
20
-3.89771
11
2.68302
21
-3.88846
0
LINE
8
BLACK
6
CONTINUOUS
10
2.68302
20
-3.88846
11
2.6797
21
-3.87869
0
LINE
8
BLACK
6
CONTINUOUS
10
2.6797
20
-3.87869
11
2.67769
21
-3.86856
0
LINE
8
BLACK
6
CONTINUOUS
10
2.67769
20
-3.86856
11
2.67702
21
-3.85827
0
LINE
8
BLACK
6
CONTINUOUS
10
2.67702
20
-3.85827
11
2.67715
21
-3.85827
0
LINE
8
BLACK
6
CONTINUOUS
10
2.67715
20
-3.85827
11
2.67782
21
-3.86855
0
LINE
8
BLACK
6
CONTINUOUS
10
5.23569
20
-3.86856
11
5.23368
21
-3.87869
0
LINE
8
BLACK
6
CONTINUOUS
10
5.23368
20
-3.87869
11
5.23036
21
-3.88846
0
LINE
8
BLACK
6
CONTINUOUS
10
5.23036
20
-3.88846
11
5.2258
21
-3.89771
0
LINE
8
BLACK
6
CONTINUOUS
10
5.2258
20
-3.89771
11
5.22007
21
-3.90629
0
LINE
8
BLACK
6
CONTINUOUS
10
5.22007
20
-3.90629
11
5.21326
21
-3.91405
0
LINE
8
BLACK
6
CONTINUOUS
10
5.21326
20
-3.91405
11
5.20551
21
-3.92085
0
LINE
8
BLACK
6
CONTINUOUS
10
5.20551
20
-3.92085
11
5.19693
21
-3.92659
0
LINE
8
BLACK
6
CONTINUOUS
10
5.19693
20
-3.92659
11
5.18767
21
-3.93115
0
LINE
8
BLACK
6
CONTINUOUS
10
5.18767
20
-3.93115
11
5.1779
21
-3.93447
0
LINE
8
BLACK
6
CONTINUOUS
10
5.1779
20
-3.93447
11
5.16778
21
-3.93648
0
LINE
8
BLACK
6
CONTINUOUS
10
5.16778
20
-3.93648
11
5.15748
21
-3.93716
0
LINE
8
BLACK
6
CONTINUOUS
10
5.15748
20
-3.93716
11
5.15748
21
-3.93703
0
LINE
8
BLACK
6
CONTINUOUS
10
5.15748
20
-3.93703
11
5.16776
21
-3.93635
0
LINE
8
BLACK
6
CONTINUOUS
10
5.16776
20
-3.93635
11
5.17786
21
-3.93434
0
LINE
8
BLACK
6
CONTINUOUS
10
5.17786
20
-3.93434
11
5.18762
21
-3.93103
0
LINE
8
BLACK
6
CONTINUOUS
10
5.18762
20
-3.93103
11
5.19686
21
-3.92648
0
LINE
8
BLACK
6
CONTINUOUS
10
5.19686
20
-3.92648
11
5.20543
21
-3.92075
0
LINE
8
BLACK
6
CONTINUOUS
10
5.20543
20
-3.92075
11
5.21317
21
-3.91396
0
LINE
8
BLACK
6
CONTINUOUS
10
5.21317
20
-3.91396
11
5.21996
21
-3.90621
0
LINE
8
BLACK
6
CONTINUOUS
10
5.21996
20
-3.90621
11
5.22569
21
-3.89765
0
LINE
8
BLACK
6
CONTINUOUS
10
5.22569
20
-3.89765
11
5.23024
21
-3.88841
0
LINE
8
BLACK
6
CONTINUOUS
10
5.23024
20
-3.88841
11
5.23356
21
-3.87865
0
LINE
8
BLACK
6
CONTINUOUS
10
5.23356
20
-3.87865
11
5.23557
21
-3.86855
0
LINE
8
BLACK
6
CONTINUOUS
10
5.23557
20
-3.86855
11
5.23624
21
-3.85827
0
LINE
8
BLACK
6
CONTINUOUS
10
5.23624
20
-3.85827
11
5.23637
21
-3.85827
0
LINE
8
BLACK
6
CONTINUOUS
10
5.23637
20
-3.85827
11
5.23569
21
-3.86856
0
LINE
8
BLACK
6
CONTINUOUS
10
2.75589
20
-3.93702
11
2.75589
21
-3.93701
0
LINE
8
BLACK
6
CONTINUOUS
10
2.75589
20
-3.93701
11
2.75589
21
-3.93699
0
LINE
8
BLACK
6
CONTINUOUS
10
2.75589
20
-3.93699
11
2.75591
21
-3.93699
0
LINE
8
BLACK
6
CONTINUOUS
10
2.75591
20
-3.93699
11
5.15748
21
-3.93699
0
LINE
8
BLACK
6
CONTINUOUS
10
5.15748
20
-3.93699
11
5.15749
21
-3.93699
0
LINE
8
BLACK
6
CONTINUOUS
10
5.15749
20
-3.93699
11
5.1575
21
-3.93701
0
LINE
8
BLACK
6
CONTINUOUS
10
5.1575
20
-3.93701
11
5.15749
21
-3.93702
0
LINE
8
BLACK
6
CONTINUOUS
10
5.15749
20
-3.93702
11
5.15748
21
-3.93703
0
LINE
8
BLACK
6
CONTINUOUS
10
5.15748
20
-3.93703
11
2.75591
21
-3.93703
0
LINE
8
BLACK
6
CONTINUOUS
10
2.75591
20
-3.93703
11
2.75589
21
-3.93702
0
LINE
8
BLACK
6
CONTINUOUS
10
2.67718
20
-3.30707
11
2.67719
21
-3.30709
0
LINE
8
BLACK
6
CONTINUOUS
10
2.67719
20
-3.30709
11
2.67719
21
-3.85827
0
LINE
8
BLACK
6
CONTINUOUS
10
2.67719
20
-3.85827
11
2.67718
21
-3.85828
0
LINE
8
BLACK
6
CONTINUOUS
10
2.67718
20
-3.85828
11
2.67717
21
-3.85829
0
LINE
8
BLACK
6
CONTINUOUS
10
2.67717
20
-3.85829
11
2.67715
21
-3.85828
0
LINE
8
BLACK
6
CONTINUOUS
10
2.67715
20
-3.85828
11
2.67715
21
-3.85827
0
LINE
8
BLACK
6
CONTINUOUS
10
2.67715
20
-3.85827
11
2.67715
21
-3.30709
0
LINE
8
BLACK
6
CONTINUOUS
10
2.67715
20
-3.30709
11
2.67715
21
-3.30707
0
LINE
8
BLACK
6
CONTINUOUS
10
2.67715
20
-3.30707
11
2.67717
21
-3.30707
0
LINE
8
BLACK
6
CONTINUOUS
10
2.67717
20
-3.30707
11
2.67718
21
-3.30707
0
LINE
8
BLACK
6
CONTINUOUS
10
5.23623
20
-3.30707
11
5.23624
21
-3.30709
0
LINE
8
BLACK
6
CONTINUOUS
10
5.23624
20
-3.30709
11
5.23624
21
-3.85827
0
LINE
8
BLACK
6
CONTINUOUS
10
5.23624
20
-3.85827
11
5.23623
21
-3.85828
0
LINE
8
BLACK
6
CONTINUOUS
10
5.23623
20
-3.85828
11
5.23622
21
-3.85829
0
LINE
8
BLACK
6
CONTINUOUS
10
5.23622
20
-3.85829
11
5.23621
21
-3.85828
0
LINE
8
BLACK
6
CONTINUOUS
10
5.23621
20
-3.85828
11
5.2362
21
-3.85827
0
LINE
8
BLACK
6
CONTINUOUS
10
5.2362
20
-3.85827
11
5.2362
21
-3.30709
0
LINE
8
BLACK
6
CONTINUOUS
10
5.2362
20
-3.30709
11
5.23621
21
-3.30707
0
LINE
8
BLACK
6
CONTINUOUS
10
5.23621
20
-3.30707
11
5.23622
21
-3.30707
0
LINE
8
BLACK
6
CONTINUOUS
10
5.23622
20
-3.30707
11
5.23623
21
-3.30707
0
LINE
8
BLACK
6
CONTINUOUS
10
2.75591
20
-3.22833
11
2.74563
21
-3.229
0
LINE
8
BLACK
6
CONTINUOUS
10
2.74563
20
-3.229
11
2.73552
21
-3.23101
0
LINE
8
BLACK
6
CONTINUOUS
10
2.73552
20
-3.23101
11
2.72577
21
-3.23432
0
LINE
8
BLACK
6
CONTINUOUS
10
2.72577
20
-3.23432
11
2.71653
21
-3.23888
0
LINE
8
BLACK
6
CONTINUOUS
10
2.71653
20
-3.23888
11
2.70796
21
-3.2446
0
LINE
8
BLACK
6
CONTINUOUS
10
2.70796
20
-3.2446
11
2.70021
21
-3.2514
0
LINE
8
BLACK
6
CONTINUOUS
10
2.70021
20
-3.2514
11
2.69342
21
-3.25914
0
LINE
8
BLACK
6
CONTINUOUS
10
2.69342
20
-3.25914
11
2.6877
21
-3.26771
0
LINE
8
BLACK
6
CONTINUOUS
10
2.6877
20
-3.26771
11
2.68314
21
-3.27695
0
LINE
8
BLACK
6
CONTINUOUS
10
2.68314
20
-3.27695
11
2.67983
21
-3.2867
0
LINE
8
BLACK
6
CONTINUOUS
10
2.67983
20
-3.2867
11
2.67782
21
-3.29681
0
LINE
8
BLACK
6
CONTINUOUS
10
2.67782
20
-3.29681
11
2.67715
21
-3.30709
0
LINE
8
BLACK
6
CONTINUOUS
10
2.67715
20
-3.30709
11
2.67702
21
-3.30709
0
LINE
8
BLACK
6
CONTINUOUS
10
2.67702
20
-3.30709
11
2.67769
21
-3.29679
0
LINE
8
BLACK
6
CONTINUOUS
10
2.67769
20
-3.29679
11
2.6797
21
-3.28667
0
LINE
8
BLACK
6
CONTINUOUS
10
2.6797
20
-3.28667
11
2.68302
21
-3.2769
0
LINE
8
BLACK
6
CONTINUOUS
10
2.68302
20
-3.2769
11
2.68759
21
-3.26764
0
LINE
8
BLACK
6
CONTINUOUS
10
2.68759
20
-3.26764
11
2.69332
21
-3.25906
0
LINE
8
BLACK
6
CONTINUOUS
10
2.69332
20
-3.25906
11
2.70012
21
-3.2513
0
LINE
8
BLACK
6
CONTINUOUS
10
2.70012
20
-3.2513
11
2.70788
21
-3.2445
0
LINE
8
BLACK
6
CONTINUOUS
10
2.70788
20
-3.2445
11
2.71646
21
-3.23877
0
LINE
8
BLACK
6
CONTINUOUS
10
2.71646
20
-3.23877
11
2.72572
21
-3.2342
0
LINE
8
BLACK
6
CONTINUOUS
10
2.72572
20
-3.2342
11
2.73549
21
-3.23089
0
LINE
8
BLACK
6
CONTINUOUS
10
2.73549
20
-3.23089
11
2.74561
21
-3.22887
0
LINE
8
BLACK
6
CONTINUOUS
10
2.74561
20
-3.22887
11
2.75591
21
-3.2282
0
LINE
8
BLACK
6
CONTINUOUS
10
2.75591
20
-3.2282
11
2.75591
21
-3.22833
0
LINE
8
BLACK
6
CONTINUOUS
10
5.16778
20
-3.22887
11
5.1779
21
-3.23089
0
LINE
8
BLACK
6
CONTINUOUS
10
5.1779
20
-3.23089
11
5.18767
21
-3.2342
0
LINE
8
BLACK
6
CONTINUOUS
10
5.18767
20
-3.2342
11
5.19693
21
-3.23877
0
LINE
8
BLACK
6
CONTINUOUS
10
5.19693
20
-3.23877
11
5.20551
21
-3.2445
0
LINE
8
BLACK
6
CONTINUOUS
10
5.20551
20
-3.2445
11
5.21326
21
-3.2513
0
LINE
8
BLACK
6
CONTINUOUS
10
5.21326
20
-3.2513
11
5.22007
21
-3.25906
0
LINE
8
BLACK
6
CONTINUOUS
10
5.22007
20
-3.25906
11
5.2258
21
-3.26764
0
LINE
8
BLACK
6
CONTINUOUS
10
5.2258
20
-3.26764
11
5.23036
21
-3.2769
0
LINE
8
BLACK
6
CONTINUOUS
10
5.23036
20
-3.2769
11
5.23368
21
-3.28667
0
LINE
8
BLACK
6
CONTINUOUS
10
5.23368
20
-3.28667
11
5.23569
21
-3.29679
0
LINE
8
BLACK
6
CONTINUOUS
10
5.23569
20
-3.29679
11
5.23637
21
-3.30709
0
LINE
8
BLACK
6
CONTINUOUS
10
5.23637
20
-3.30709
11
5.23624
21
-3.30709
0
LINE
8
BLACK
6
CONTINUOUS
10
5.23624
20
-3.30709
11
5.23557
21
-3.29681
0
LINE
8
BLACK
6
CONTINUOUS
10
5.23557
20
-3.29681
11
5.23356
21
-3.2867
0
LINE
8
BLACK
6
CONTINUOUS
10
5.23356
20
-3.2867
11
5.23024
21
-3.27695
0
LINE
8
BLACK
6
CONTINUOUS
10
5.23024
20
-3.27695
11
5.22569
21
-3.26771
0
LINE
8
BLACK
6
CONTINUOUS
10
5.22569
20
-3.26771
11
5.21996
21
-3.25914
0
LINE
8
BLACK
6
CONTINUOUS
10
5.21996
20
-3.25914
11
5.21317
21
-3.2514
0
LINE
8
BLACK
6
CONTINUOUS
10
5.21317
20
-3.2514
11
5.20543
21
-3.2446
0
LINE
8
BLACK
6
CONTINUOUS
10
5.20543
20
-3.2446
11
5.19686
21
-3.23888
0
LINE
8
BLACK
6
CONTINUOUS
10
5.19686
20
-3.23888
11
5.18762
21
-3.23432
0
LINE
8
BLACK
6
CONTINUOUS
10
5.18762
20
-3.23432
11
5.17786
21
-3.23101
0
LINE
8
BLACK
6
CONTINUOUS
10
5.17786
20
-3.23101
11
5.16776
21
-3.229
0
LINE
8
BLACK
6
CONTINUOUS
10
5.16776
20
-3.229
11
5.15748
21
-3.22833
0
LINE
8
BLACK
6
CONTINUOUS
10
5.15748
20
-3.22833
11
5.15748
21
-3.2282
0
LINE
8
BLACK
6
CONTINUOUS
10
5.15748
20
-3.2282
11
5.16778
21
-3.22887
0
LINE
8
BLACK
6
CONTINUOUS
10
2.75589
20
-3.22836
11
2.75589
21
-3.22835
0
LINE
8
BLACK
6
CONTINUOUS
10
2.75589
20
-3.22835
11
2.75589
21
-3.22833
0
LINE
8
BLACK
6
CONTINUOUS
10
2.75589
20
-3.22833
11
2.75591
21
-3.22833
0
LINE
8
BLACK
6
CONTINUOUS
10
2.75591
20
-3.22833
11
5.15748
21
-3.22833
0
LINE
8
BLACK
6
CONTINUOUS
10
5.15748
20
-3.22833
11
5.15749
21
-3.22833
0
LINE
8
BLACK
6
CONTINUOUS
10
5.15749
20
-3.22833
11
5.1575
21
-3.22835
0
LINE
8
BLACK
6
CONTINUOUS
10
5.1575
20
-3.22835
11
5.15749
21
-3.22836
0
LINE
8
BLACK
6
CONTINUOUS
10
5.15749
20
-3.22836
11
5.15748
21
-3.22837
0
LINE
8
BLACK
6
CONTINUOUS
10
5.15748
20
-3.22837
11
2.75591
21
-3.22837
0
LINE
8
BLACK
6
CONTINUOUS
10
2.75591
20
-3.22837
11
2.75589
21
-3.22836
  0
ENDSEC
  0
EOF
