  0
SECTION
  2
HEADER
  9
$ANGBASE
  50
0.0
  9
$ANGDIR
  70
1
  9
$MEASUREMENT
  70
0
  0
ENDSEC
  0
SECTION
  2
TABLES
  0
TABLE
  2
LTYPE
  70
4
  0
LTYPE
  5
40F
  2
CONTINUOUS
  70
0
  3
Solid line
  72
65
  73
0
  40
0.0
  0
LTYPE
  5
410
  2
DASHDOT
 70
0
  3
Dash Dot ____ _ ____ _
 72
65
 73
4
 40
2.0
 49
1.25
 49
-0.25
 49
0.25
 49
-0.25
  0
LTYPE
  5
411
  2
DASHED
 70
0
  3
Dashed __ __ __ __ __
 72
65
 73
2
 40
0.75
 49
0.5
 49
-0.25
  0
LTYPE
  5
43B
  2
DOTTED
 70
0
  3
Dotted .  .  .  .
 72
65
 73
2
 40
0.2
 49
0.0
 49
-0.2
  0
ENDTAB
  0
TABLE
  2
STYLE
  70
4
  0
STYLE
  2
KICAD
  70
0
  40
0
  41
1
  42
1
  50
0
  71
0
  3
isocp.shx
  0
STYLE
  2
KICADB
  70
0
  40
0
  41
1
  42
1
  50
0
  71
0
  3
isocp.shx
  0
STYLE
  2
KICADI
  70
0
  40
0
  41
1
  42
1
  50
15
  71
0
  3
isocp.shx
  0
STYLE
  2
KICADBI
  70
0
  40
0
  41
1
  42
1
  50
15
  71
0
  3
isocp.shx
  0
ENDTAB
  0
TABLE
  2
LAYER
  70
1
  0
LAYER
  2
BLACK
  70
0
  62
7
  6
CONTINUOUS
  0
ENDTAB
  0
ENDSEC
  0
SECTION
  2
ENTITIES
0
LINE
8
BLACK
6
CONTINUOUS
10
3.39053
20
-3.91833
11
3.36203
21
-3.91833
0
LINE
8
BLACK
6
CONTINUOUS
10
3.36203
20
-3.91833
11
3.36203
21
-3.90274
0
LINE
8
BLACK
6
CONTINUOUS
10
3.36203
20
-3.90274
11
3.39053
21
-3.90274
0
LINE
8
BLACK
6
CONTINUOUS
10
3.39053
20
-3.90274
11
3.39053
21
-3.91833
0
LINE
8
BLACK
6
CONTINUOUS
10
4.89066
20
-3.91596
11
4.81976
21
-3.91596
0
LINE
8
BLACK
6
CONTINUOUS
10
4.81976
20
-3.91596
11
4.81976
21
-3.86876
0
LINE
8
BLACK
6
CONTINUOUS
10
4.81976
20
-3.86876
11
4.89066
21
-3.86876
0
LINE
8
BLACK
6
CONTINUOUS
10
4.89066
20
-3.86876
11
4.89066
21
-3.91596
0
LINE
8
BLACK
6
CONTINUOUS
10
4.73326
20
-3.91596
11
4.66236
21
-3.91596
0
LINE
8
BLACK
6
CONTINUOUS
10
4.66236
20
-3.91596
11
4.66236
21
-3.86876
0
LINE
8
BLACK
6
CONTINUOUS
10
4.66236
20
-3.86876
11
4.73326
21
-3.86876
0
LINE
8
BLACK
6
CONTINUOUS
10
4.73326
20
-3.86876
11
4.73326
21
-3.91596
0
LINE
8
BLACK
6
CONTINUOUS
10
3.10827
20
-3.91142
11
3.07283
21
-3.91142
0
LINE
8
BLACK
6
CONTINUOUS
10
3.07283
20
-3.91142
11
3.07283
21
-3.89173
0
LINE
8
BLACK
6
CONTINUOUS
10
3.07283
20
-3.89173
11
3.10827
21
-3.89173
0
LINE
8
BLACK
6
CONTINUOUS
10
3.10827
20
-3.89173
11
3.10827
21
-3.91142
0
LINE
8
BLACK
6
CONTINUOUS
10
3.48425
20
-3.89783
11
3.45276
21
-3.89783
0
LINE
8
BLACK
6
CONTINUOUS
10
3.45276
20
-3.89783
11
3.45276
21
-3.87421
0
LINE
8
BLACK
6
CONTINUOUS
10
3.45276
20
-3.87421
11
3.48425
21
-3.87421
0
LINE
8
BLACK
6
CONTINUOUS
10
3.48425
20
-3.87421
11
3.48425
21
-3.89783
0
LINE
8
BLACK
6
CONTINUOUS
10
3.24754
20
-3.89783
11
3.23415
21
-3.89783
0
LINE
8
BLACK
6
CONTINUOUS
10
3.23415
20
-3.89783
11
3.23415
21
-3.87421
0
LINE
8
BLACK
6
CONTINUOUS
10
3.23415
20
-3.87421
11
3.24754
21
-3.87421
0
LINE
8
BLACK
6
CONTINUOUS
10
3.24754
20
-3.87421
11
3.24754
21
-3.89783
0
LINE
8
BLACK
6
CONTINUOUS
10
3.04965
20
-3.89539
11
3.02161
21
-3.89539
0
LINE
8
BLACK
6
CONTINUOUS
10
3.02161
20
-3.89539
11
3.02161
21
-3.88217
0
LINE
8
BLACK
6
CONTINUOUS
10
3.02161
20
-3.88217
11
3.04965
21
-3.88217
0
LINE
8
BLACK
6
CONTINUOUS
10
3.04965
20
-3.88217
11
3.04965
21
-3.89539
0
LINE
8
BLACK
6
CONTINUOUS
10
2.8839
20
-3.89539
11
2.85587
21
-3.89539
0
LINE
8
BLACK
6
CONTINUOUS
10
2.85587
20
-3.89539
11
2.85587
21
-3.88217
0
LINE
8
BLACK
6
CONTINUOUS
10
2.85587
20
-3.88217
11
2.8839
21
-3.88217
0
LINE
8
BLACK
6
CONTINUOUS
10
2.8839
20
-3.88217
11
2.8839
21
-3.89539
0
LINE
8
BLACK
6
CONTINUOUS
10
4.63681
20
-3.89044
11
4.60728
21
-3.89044
0
LINE
8
BLACK
6
CONTINUOUS
10
4.60728
20
-3.89044
11
4.60728
21
-3.85894
0
LINE
8
BLACK
6
CONTINUOUS
10
4.60728
20
-3.85894
11
4.63681
21
-3.85894
0
LINE
8
BLACK
6
CONTINUOUS
10
4.63681
20
-3.85894
11
4.63681
21
-3.89044
0
LINE
8
BLACK
6
CONTINUOUS
10
4.9439
20
-3.89044
11
4.91437
21
-3.89044
0
LINE
8
BLACK
6
CONTINUOUS
10
4.91437
20
-3.89044
11
4.91437
21
-3.85894
0
LINE
8
BLACK
6
CONTINUOUS
10
4.91437
20
-3.85894
11
4.9439
21
-3.85894
0
LINE
8
BLACK
6
CONTINUOUS
10
4.9439
20
-3.85894
11
4.9439
21
-3.89044
0
LINE
8
BLACK
6
CONTINUOUS
10
4.99705
20
-3.8878
11
4.96752
21
-3.8878
0
LINE
8
BLACK
6
CONTINUOUS
10
4.96752
20
-3.8878
11
4.96752
21
-3.8563
0
LINE
8
BLACK
6
CONTINUOUS
10
4.96752
20
-3.8563
11
4.99705
21
-3.8563
0
LINE
8
BLACK
6
CONTINUOUS
10
4.99705
20
-3.8563
11
4.99705
21
-3.8878
0
LINE
8
BLACK
6
CONTINUOUS
10
5.16634
20
-3.88583
11
5.13681
21
-3.88583
0
LINE
8
BLACK
6
CONTINUOUS
10
5.13681
20
-3.88583
11
5.13681
21
-3.85433
0
LINE
8
BLACK
6
CONTINUOUS
10
5.13681
20
-3.85433
11
5.16634
21
-3.85433
0
LINE
8
BLACK
6
CONTINUOUS
10
5.16634
20
-3.85433
11
5.16634
21
-3.88583
0
LINE
8
BLACK
6
CONTINUOUS
10
3.39467
20
-3.88283
11
3.26537
21
-3.88283
0
LINE
8
BLACK
6
CONTINUOUS
10
3.26537
20
-3.88283
11
3.26537
21
-3.73921
0
LINE
8
BLACK
6
CONTINUOUS
10
3.26537
20
-3.73921
11
3.39467
21
-3.73921
0
LINE
8
BLACK
6
CONTINUOUS
10
3.39467
20
-3.73921
11
3.39467
21
-3.88283
0
LINE
8
BLACK
6
CONTINUOUS
10
5.11811
20
-3.87992
11
5.08268
21
-3.87992
0
LINE
8
BLACK
6
CONTINUOUS
10
5.08268
20
-3.87992
11
5.08268
21
-3.86024
0
LINE
8
BLACK
6
CONTINUOUS
10
5.08268
20
-3.86024
11
5.11811
21
-3.86024
0
LINE
8
BLACK
6
CONTINUOUS
10
5.11811
20
-3.86024
11
5.11811
21
-3.87992
0
LINE
8
BLACK
6
CONTINUOUS
10
5.06299
20
-3.87992
11
5.02756
21
-3.87992
0
LINE
8
BLACK
6
CONTINUOUS
10
5.02756
20
-3.87992
11
5.02756
21
-3.86024
0
LINE
8
BLACK
6
CONTINUOUS
10
5.02756
20
-3.86024
11
5.06299
21
-3.86024
0
LINE
8
BLACK
6
CONTINUOUS
10
5.06299
20
-3.86024
11
5.06299
21
-3.87992
0
LINE
8
BLACK
6
CONTINUOUS
10
2.8839
20
-3.8698
11
2.85587
21
-3.8698
0
LINE
8
BLACK
6
CONTINUOUS
10
2.85587
20
-3.8698
11
2.85587
21
-3.85657
0
LINE
8
BLACK
6
CONTINUOUS
10
2.85587
20
-3.85657
11
2.8839
21
-3.85657
0
LINE
8
BLACK
6
CONTINUOUS
10
2.8839
20
-3.85657
11
2.8839
21
-3.8698
0
LINE
8
BLACK
6
CONTINUOUS
10
3.04965
20
-3.8698
11
3.02161
21
-3.8698
0
LINE
8
BLACK
6
CONTINUOUS
10
3.02161
20
-3.8698
11
3.02161
21
-3.85657
0
LINE
8
BLACK
6
CONTINUOUS
10
3.02161
20
-3.85657
11
3.04965
21
-3.85657
0
LINE
8
BLACK
6
CONTINUOUS
10
3.04965
20
-3.85657
11
3.04965
21
-3.8698
0
LINE
8
BLACK
6
CONTINUOUS
10
3.10827
20
-3.85236
11
3.07283
21
-3.85236
0
LINE
8
BLACK
6
CONTINUOUS
10
3.07283
20
-3.85236
11
3.07283
21
-3.83268
0
LINE
8
BLACK
6
CONTINUOUS
10
3.07283
20
-3.83268
11
3.10827
21
-3.83268
0
LINE
8
BLACK
6
CONTINUOUS
10
3.10827
20
-3.83268
11
3.10827
21
-3.85236
0
LINE
8
BLACK
6
CONTINUOUS
10
3.48425
20
-3.84783
11
3.45276
21
-3.84783
0
LINE
8
BLACK
6
CONTINUOUS
10
3.45276
20
-3.84783
11
3.45276
21
-3.82421
0
LINE
8
BLACK
6
CONTINUOUS
10
3.45276
20
-3.82421
11
3.48425
21
-3.82421
0
LINE
8
BLACK
6
CONTINUOUS
10
3.48425
20
-3.82421
11
3.48425
21
-3.84783
0
LINE
8
BLACK
6
CONTINUOUS
10
3.76575
20
-3.84646
11
3.73031
21
-3.84646
0
LINE
8
BLACK
6
CONTINUOUS
10
3.73031
20
-3.84646
11
3.73031
21
-3.77953
0
LINE
8
BLACK
6
CONTINUOUS
10
3.73031
20
-3.77953
11
3.76575
21
-3.77953
0
LINE
8
BLACK
6
CONTINUOUS
10
3.76575
20
-3.77953
11
3.76575
21
-3.84646
0
LINE
8
BLACK
6
CONTINUOUS
10
3.6063
20
-3.84646
11
3.57087
21
-3.84646
0
LINE
8
BLACK
6
CONTINUOUS
10
3.57087
20
-3.84646
11
3.57087
21
-3.77953
0
LINE
8
BLACK
6
CONTINUOUS
10
3.57087
20
-3.77953
11
3.6063
21
-3.77953
0
LINE
8
BLACK
6
CONTINUOUS
10
3.6063
20
-3.77953
11
3.6063
21
-3.84646
0
LINE
8
BLACK
6
CONTINUOUS
10
3.9252
20
-3.84646
11
3.88976
21
-3.84646
0
LINE
8
BLACK
6
CONTINUOUS
10
3.88976
20
-3.84646
11
3.88976
21
-3.77953
0
LINE
8
BLACK
6
CONTINUOUS
10
3.88976
20
-3.77953
11
3.9252
21
-3.77953
0
LINE
8
BLACK
6
CONTINUOUS
10
3.9252
20
-3.77953
11
3.9252
21
-3.84646
0
LINE
8
BLACK
6
CONTINUOUS
10
3.72047
20
-3.84646
11
3.68504
21
-3.84646
0
LINE
8
BLACK
6
CONTINUOUS
10
3.68504
20
-3.84646
11
3.68504
21
-3.77953
0
LINE
8
BLACK
6
CONTINUOUS
10
3.68504
20
-3.77953
11
3.72047
21
-3.77953
0
LINE
8
BLACK
6
CONTINUOUS
10
3.72047
20
-3.77953
11
3.72047
21
-3.84646
0
LINE
8
BLACK
6
CONTINUOUS
10
4.03937
20
-3.84646
11
4.00394
21
-3.84646
0
LINE
8
BLACK
6
CONTINUOUS
10
4.00394
20
-3.84646
11
4.00394
21
-3.77953
0
LINE
8
BLACK
6
CONTINUOUS
10
4.00394
20
-3.77953
11
4.03937
21
-3.77953
0
LINE
8
BLACK
6
CONTINUOUS
10
4.03937
20
-3.77953
11
4.03937
21
-3.84646
0
LINE
8
BLACK
6
CONTINUOUS
10
3.87992
20
-3.84646
11
3.84449
21
-3.84646
0
LINE
8
BLACK
6
CONTINUOUS
10
3.84449
20
-3.84646
11
3.84449
21
-3.77953
0
LINE
8
BLACK
6
CONTINUOUS
10
3.84449
20
-3.77953
11
3.87992
21
-3.77953
0
LINE
8
BLACK
6
CONTINUOUS
10
3.87992
20
-3.77953
11
3.87992
21
-3.84646
0
LINE
8
BLACK
6
CONTINUOUS
10
4.19882
20
-3.84646
11
4.16339
21
-3.84646
0
LINE
8
BLACK
6
CONTINUOUS
10
4.16339
20
-3.84646
11
4.16339
21
-3.77953
0
LINE
8
BLACK
6
CONTINUOUS
10
4.16339
20
-3.77953
11
4.19882
21
-3.77953
0
LINE
8
BLACK
6
CONTINUOUS
10
4.19882
20
-3.77953
11
4.19882
21
-3.84646
0
LINE
8
BLACK
6
CONTINUOUS
10
4.08465
20
-3.84646
11
4.04921
21
-3.84646
0
LINE
8
BLACK
6
CONTINUOUS
10
4.04921
20
-3.84646
11
4.04921
21
-3.77953
0
LINE
8
BLACK
6
CONTINUOUS
10
4.04921
20
-3.77953
11
4.08465
21
-3.77953
0
LINE
8
BLACK
6
CONTINUOUS
10
4.08465
20
-3.77953
11
4.08465
21
-3.84646
0
LINE
8
BLACK
6
CONTINUOUS
10
4.35827
20
-3.84646
11
4.32283
21
-3.84646
0
LINE
8
BLACK
6
CONTINUOUS
10
4.32283
20
-3.84646
11
4.32283
21
-3.77953
0
LINE
8
BLACK
6
CONTINUOUS
10
4.32283
20
-3.77953
11
4.35827
21
-3.77953
0
LINE
8
BLACK
6
CONTINUOUS
10
4.35827
20
-3.77953
11
4.35827
21
-3.84646
0
LINE
8
BLACK
6
CONTINUOUS
10
4.24409
20
-3.84646
11
4.20866
21
-3.84646
0
LINE
8
BLACK
6
CONTINUOUS
10
4.20866
20
-3.84646
11
4.20866
21
-3.77953
0
LINE
8
BLACK
6
CONTINUOUS
10
4.20866
20
-3.77953
11
4.24409
21
-3.77953
0
LINE
8
BLACK
6
CONTINUOUS
10
4.24409
20
-3.77953
11
4.24409
21
-3.84646
0
LINE
8
BLACK
6
CONTINUOUS
10
3.04965
20
-3.84421
11
3.02161
21
-3.84421
0
LINE
8
BLACK
6
CONTINUOUS
10
3.02161
20
-3.84421
11
3.02161
21
-3.83098
0
LINE
8
BLACK
6
CONTINUOUS
10
3.02161
20
-3.83098
11
3.04965
21
-3.83098
0
LINE
8
BLACK
6
CONTINUOUS
10
3.04965
20
-3.83098
11
3.04965
21
-3.84421
0
LINE
8
BLACK
6
CONTINUOUS
10
2.8839
20
-3.84421
11
2.85587
21
-3.84421
0
LINE
8
BLACK
6
CONTINUOUS
10
2.85587
20
-3.84421
11
2.85587
21
-3.83098
0
LINE
8
BLACK
6
CONTINUOUS
10
2.85587
20
-3.83098
11
2.8839
21
-3.83098
0
LINE
8
BLACK
6
CONTINUOUS
10
2.8839
20
-3.83098
11
2.8839
21
-3.84421
0
LINE
8
BLACK
6
CONTINUOUS
10
4.63681
20
-3.83138
11
4.60728
21
-3.83138
0
LINE
8
BLACK
6
CONTINUOUS
10
4.60728
20
-3.83138
11
4.60728
21
-3.79989
0
LINE
8
BLACK
6
CONTINUOUS
10
4.60728
20
-3.79989
11
4.63681
21
-3.79989
0
LINE
8
BLACK
6
CONTINUOUS
10
4.63681
20
-3.79989
11
4.63681
21
-3.83138
0
LINE
8
BLACK
6
CONTINUOUS
10
4.9439
20
-3.83138
11
4.91437
21
-3.83138
0
LINE
8
BLACK
6
CONTINUOUS
10
4.91437
20
-3.83138
11
4.91437
21
-3.79989
0
LINE
8
BLACK
6
CONTINUOUS
10
4.91437
20
-3.79989
11
4.9439
21
-3.79989
0
LINE
8
BLACK
6
CONTINUOUS
10
4.9439
20
-3.79989
11
4.9439
21
-3.83138
0
LINE
8
BLACK
6
CONTINUOUS
10
4.99705
20
-3.82874
11
4.96752
21
-3.82874
0
LINE
8
BLACK
6
CONTINUOUS
10
4.96752
20
-3.82874
11
4.96752
21
-3.79724
0
LINE
8
BLACK
6
CONTINUOUS
10
4.96752
20
-3.79724
11
4.99705
21
-3.79724
0
LINE
8
BLACK
6
CONTINUOUS
10
4.99705
20
-3.79724
11
4.99705
21
-3.82874
0
LINE
8
BLACK
6
CONTINUOUS
10
5.16634
20
-3.82677
11
5.13681
21
-3.82677
0
LINE
8
BLACK
6
CONTINUOUS
10
5.13681
20
-3.82677
11
5.13681
21
-3.79528
0
LINE
8
BLACK
6
CONTINUOUS
10
5.13681
20
-3.79528
11
5.16634
21
-3.79528
0
LINE
8
BLACK
6
CONTINUOUS
10
5.16634
20
-3.79528
11
5.16634
21
-3.82677
0
LINE
8
BLACK
6
CONTINUOUS
10
4.73326
20
-3.82156
11
4.66236
21
-3.82156
0
LINE
8
BLACK
6
CONTINUOUS
10
4.66236
20
-3.82156
11
4.66236
21
-3.77436
0
LINE
8
BLACK
6
CONTINUOUS
10
4.66236
20
-3.77436
11
4.73326
21
-3.77436
0
LINE
8
BLACK
6
CONTINUOUS
10
4.73326
20
-3.77436
11
4.73326
21
-3.82156
0
LINE
8
BLACK
6
CONTINUOUS
10
4.89066
20
-3.82156
11
4.81976
21
-3.82156
0
LINE
8
BLACK
6
CONTINUOUS
10
4.81976
20
-3.82156
11
4.81976
21
-3.77436
0
LINE
8
BLACK
6
CONTINUOUS
10
4.81976
20
-3.77436
11
4.89066
21
-3.77436
0
LINE
8
BLACK
6
CONTINUOUS
10
4.89066
20
-3.77436
11
4.89066
21
-3.82156
0
LINE
8
BLACK
6
CONTINUOUS
10
5.06299
20
-3.82087
11
5.02756
21
-3.82087
0
LINE
8
BLACK
6
CONTINUOUS
10
5.02756
20
-3.82087
11
5.02756
21
-3.80118
0
LINE
8
BLACK
6
CONTINUOUS
10
5.02756
20
-3.80118
11
5.06299
21
-3.80118
0
LINE
8
BLACK
6
CONTINUOUS
10
5.06299
20
-3.80118
11
5.06299
21
-3.82087
0
LINE
8
BLACK
6
CONTINUOUS
10
5.11811
20
-3.82087
11
5.08268
21
-3.82087
0
LINE
8
BLACK
6
CONTINUOUS
10
5.08268
20
-3.82087
11
5.08268
21
-3.80118
0
LINE
8
BLACK
6
CONTINUOUS
10
5.08268
20
-3.80118
11
5.11811
21
-3.80118
0
LINE
8
BLACK
6
CONTINUOUS
10
5.11811
20
-3.80118
11
5.11811
21
-3.82087
0
LINE
8
BLACK
6
CONTINUOUS
10
3.04965
20
-3.81862
11
3.02161
21
-3.81862
0
LINE
8
BLACK
6
CONTINUOUS
10
3.02161
20
-3.81862
11
3.02161
21
-3.80539
0
LINE
8
BLACK
6
CONTINUOUS
10
3.02161
20
-3.80539
11
3.04965
21
-3.80539
0
LINE
8
BLACK
6
CONTINUOUS
10
3.04965
20
-3.80539
11
3.04965
21
-3.81862
0
LINE
8
BLACK
6
CONTINUOUS
10
2.8839
20
-3.81862
11
2.85587
21
-3.81862
0
LINE
8
BLACK
6
CONTINUOUS
10
2.85587
20
-3.81862
11
2.85587
21
-3.80539
0
LINE
8
BLACK
6
CONTINUOUS
10
2.85587
20
-3.80539
11
2.8839
21
-3.80539
0
LINE
8
BLACK
6
CONTINUOUS
10
2.8839
20
-3.80539
11
2.8839
21
-3.81862
0
LINE
8
BLACK
6
CONTINUOUS
10
3.10827
20
-3.80315
11
3.07283
21
-3.80315
0
LINE
8
BLACK
6
CONTINUOUS
10
3.07283
20
-3.80315
11
3.07283
21
-3.78346
0
LINE
8
BLACK
6
CONTINUOUS
10
3.07283
20
-3.78346
11
3.10827
21
-3.78346
0
LINE
8
BLACK
6
CONTINUOUS
10
3.10827
20
-3.78346
11
3.10827
21
-3.80315
0
LINE
8
BLACK
6
CONTINUOUS
10
3.48425
20
-3.79783
11
3.45276
21
-3.79783
0
LINE
8
BLACK
6
CONTINUOUS
10
3.45276
20
-3.79783
11
3.45276
21
-3.77421
0
LINE
8
BLACK
6
CONTINUOUS
10
3.45276
20
-3.77421
11
3.48425
21
-3.77421
0
LINE
8
BLACK
6
CONTINUOUS
10
3.48425
20
-3.77421
11
3.48425
21
-3.79783
0
LINE
8
BLACK
6
CONTINUOUS
10
4.08465
20
-3.76969
11
4.04921
21
-3.76969
0
LINE
8
BLACK
6
CONTINUOUS
10
4.04921
20
-3.76969
11
4.04921
21
-3.70276
0
LINE
8
BLACK
6
CONTINUOUS
10
4.04921
20
-3.70276
11
4.08465
21
-3.70276
0
LINE
8
BLACK
6
CONTINUOUS
10
4.08465
20
-3.70276
11
4.08465
21
-3.76969
0
LINE
8
BLACK
6
CONTINUOUS
10
4.19882
20
-3.76969
11
4.16339
21
-3.76969
0
LINE
8
BLACK
6
CONTINUOUS
10
4.16339
20
-3.76969
11
4.16339
21
-3.70276
0
LINE
8
BLACK
6
CONTINUOUS
10
4.16339
20
-3.70276
11
4.19882
21
-3.70276
0
LINE
8
BLACK
6
CONTINUOUS
10
4.19882
20
-3.70276
11
4.19882
21
-3.76969
0
LINE
8
BLACK
6
CONTINUOUS
10
4.03937
20
-3.76969
11
4.00394
21
-3.76969
0
LINE
8
BLACK
6
CONTINUOUS
10
4.00394
20
-3.76969
11
4.00394
21
-3.70276
0
LINE
8
BLACK
6
CONTINUOUS
10
4.00394
20
-3.70276
11
4.03937
21
-3.70276
0
LINE
8
BLACK
6
CONTINUOUS
10
4.03937
20
-3.70276
11
4.03937
21
-3.76969
0
LINE
8
BLACK
6
CONTINUOUS
10
3.9252
20
-3.76969
11
3.88976
21
-3.76969
0
LINE
8
BLACK
6
CONTINUOUS
10
3.88976
20
-3.76969
11
3.88976
21
-3.70276
0
LINE
8
BLACK
6
CONTINUOUS
10
3.88976
20
-3.70276
11
3.9252
21
-3.70276
0
LINE
8
BLACK
6
CONTINUOUS
10
3.9252
20
-3.70276
11
3.9252
21
-3.76969
0
LINE
8
BLACK
6
CONTINUOUS
10
3.72047
20
-3.76969
11
3.68504
21
-3.76969
0
LINE
8
BLACK
6
CONTINUOUS
10
3.68504
20
-3.76969
11
3.68504
21
-3.70276
0
LINE
8
BLACK
6
CONTINUOUS
10
3.68504
20
-3.70276
11
3.72047
21
-3.70276
0
LINE
8
BLACK
6
CONTINUOUS
10
3.72047
20
-3.70276
11
3.72047
21
-3.76969
0
LINE
8
BLACK
6
CONTINUOUS
10
4.35827
20
-3.76969
11
4.32283
21
-3.76969
0
LINE
8
BLACK
6
CONTINUOUS
10
4.32283
20
-3.76969
11
4.32283
21
-3.70276
0
LINE
8
BLACK
6
CONTINUOUS
10
4.32283
20
-3.70276
11
4.35827
21
-3.70276
0
LINE
8
BLACK
6
CONTINUOUS
10
4.35827
20
-3.70276
11
4.35827
21
-3.76969
0
LINE
8
BLACK
6
CONTINUOUS
10
3.6063
20
-3.76969
11
3.57087
21
-3.76969
0
LINE
8
BLACK
6
CONTINUOUS
10
3.57087
20
-3.76969
11
3.57087
21
-3.70276
0
LINE
8
BLACK
6
CONTINUOUS
10
3.57087
20
-3.70276
11
3.6063
21
-3.70276
0
LINE
8
BLACK
6
CONTINUOUS
10
3.6063
20
-3.70276
11
3.6063
21
-3.76969
0
LINE
8
BLACK
6
CONTINUOUS
10
4.24409
20
-3.76969
11
4.20866
21
-3.76969
0
LINE
8
BLACK
6
CONTINUOUS
10
4.20866
20
-3.76969
11
4.20866
21
-3.70276
0
LINE
8
BLACK
6
CONTINUOUS
10
4.20866
20
-3.70276
11
4.24409
21
-3.70276
0
LINE
8
BLACK
6
CONTINUOUS
10
4.24409
20
-3.70276
11
4.24409
21
-3.76969
0
LINE
8
BLACK
6
CONTINUOUS
10
3.76575
20
-3.76969
11
3.73031
21
-3.76969
0
LINE
8
BLACK
6
CONTINUOUS
10
3.73031
20
-3.76969
11
3.73031
21
-3.70276
0
LINE
8
BLACK
6
CONTINUOUS
10
3.73031
20
-3.70276
11
3.76575
21
-3.70276
0
LINE
8
BLACK
6
CONTINUOUS
10
3.76575
20
-3.70276
11
3.76575
21
-3.76969
0
LINE
8
BLACK
6
CONTINUOUS
10
3.87992
20
-3.76969
11
3.84449
21
-3.76969
0
LINE
8
BLACK
6
CONTINUOUS
10
3.84449
20
-3.76969
11
3.84449
21
-3.70276
0
LINE
8
BLACK
6
CONTINUOUS
10
3.84449
20
-3.70276
11
3.87992
21
-3.70276
0
LINE
8
BLACK
6
CONTINUOUS
10
3.87992
20
-3.70276
11
3.87992
21
-3.76969
0
LINE
8
BLACK
6
CONTINUOUS
10
4.54626
20
-3.76575
11
4.51673
21
-3.76575
0
LINE
8
BLACK
6
CONTINUOUS
10
4.51673
20
-3.76575
11
4.51673
21
-3.73425
0
LINE
8
BLACK
6
CONTINUOUS
10
4.51673
20
-3.73425
11
4.54626
21
-3.73425
0
LINE
8
BLACK
6
CONTINUOUS
10
4.54626
20
-3.73425
11
4.54626
21
-3.76575
0
LINE
8
BLACK
6
CONTINUOUS
10
3
20
-3.7628
11
2.9685
21
-3.7628
0
LINE
8
BLACK
6
CONTINUOUS
10
2.9685
20
-3.7628
11
2.9685
21
-3.73327
0
LINE
8
BLACK
6
CONTINUOUS
10
2.9685
20
-3.73327
11
3
21
-3.73327
0
LINE
8
BLACK
6
CONTINUOUS
10
3
20
-3.73327
11
3
21
-3.7628
0
LINE
8
BLACK
6
CONTINUOUS
10
2.94094
20
-3.7628
11
2.90945
21
-3.7628
0
LINE
8
BLACK
6
CONTINUOUS
10
2.90945
20
-3.7628
11
2.90945
21
-3.73327
0
LINE
8
BLACK
6
CONTINUOUS
10
2.90945
20
-3.73327
11
2.94094
21
-3.73327
0
LINE
8
BLACK
6
CONTINUOUS
10
2.94094
20
-3.73327
11
2.94094
21
-3.7628
0
LINE
8
BLACK
6
CONTINUOUS
10
3.48425
20
-3.74783
11
3.45276
21
-3.74783
0
LINE
8
BLACK
6
CONTINUOUS
10
3.45276
20
-3.74783
11
3.45276
21
-3.72421
0
LINE
8
BLACK
6
CONTINUOUS
10
3.45276
20
-3.72421
11
3.48425
21
-3.72421
0
LINE
8
BLACK
6
CONTINUOUS
10
3.48425
20
-3.72421
11
3.48425
21
-3.74783
0
LINE
8
BLACK
6
CONTINUOUS
10
3.24754
20
-3.74783
11
3.23415
21
-3.74783
0
LINE
8
BLACK
6
CONTINUOUS
10
3.23415
20
-3.74783
11
3.23415
21
-3.72421
0
LINE
8
BLACK
6
CONTINUOUS
10
3.23415
20
-3.72421
11
3.24754
21
-3.72421
0
LINE
8
BLACK
6
CONTINUOUS
10
3.24754
20
-3.72421
11
3.24754
21
-3.74783
0
LINE
8
BLACK
6
CONTINUOUS
10
4.60039
20
-3.74705
11
4.5689
21
-3.74705
0
LINE
8
BLACK
6
CONTINUOUS
10
4.5689
20
-3.74705
11
4.5689
21
-3.71752
0
LINE
8
BLACK
6
CONTINUOUS
10
4.5689
20
-3.71752
11
4.60039
21
-3.71752
0
LINE
8
BLACK
6
CONTINUOUS
10
4.60039
20
-3.71752
11
4.60039
21
-3.74705
0
LINE
8
BLACK
6
CONTINUOUS
10
4.65945
20
-3.74705
11
4.62795
21
-3.74705
0
LINE
8
BLACK
6
CONTINUOUS
10
4.62795
20
-3.74705
11
4.62795
21
-3.71752
0
LINE
8
BLACK
6
CONTINUOUS
10
4.62795
20
-3.71752
11
4.65945
21
-3.71752
0
LINE
8
BLACK
6
CONTINUOUS
10
4.65945
20
-3.71752
11
4.65945
21
-3.74705
0
LINE
8
BLACK
6
CONTINUOUS
10
4.71063
20
-3.74705
11
4.67913
21
-3.74705
0
LINE
8
BLACK
6
CONTINUOUS
10
4.67913
20
-3.74705
11
4.67913
21
-3.71752
0
LINE
8
BLACK
6
CONTINUOUS
10
4.67913
20
-3.71752
11
4.71063
21
-3.71752
0
LINE
8
BLACK
6
CONTINUOUS
10
4.71063
20
-3.71752
11
4.71063
21
-3.74705
0
LINE
8
BLACK
6
CONTINUOUS
10
4.76969
20
-3.74705
11
4.73819
21
-3.74705
0
LINE
8
BLACK
6
CONTINUOUS
10
4.73819
20
-3.74705
11
4.73819
21
-3.71752
0
LINE
8
BLACK
6
CONTINUOUS
10
4.73819
20
-3.71752
11
4.76969
21
-3.71752
0
LINE
8
BLACK
6
CONTINUOUS
10
4.76969
20
-3.71752
11
4.76969
21
-3.74705
0
LINE
8
BLACK
6
CONTINUOUS
10
4.8248
20
-3.74705
11
4.79331
21
-3.74705
0
LINE
8
BLACK
6
CONTINUOUS
10
4.79331
20
-3.74705
11
4.79331
21
-3.71752
0
LINE
8
BLACK
6
CONTINUOUS
10
4.79331
20
-3.71752
11
4.8248
21
-3.71752
0
LINE
8
BLACK
6
CONTINUOUS
10
4.8248
20
-3.71752
11
4.8248
21
-3.74705
0
LINE
8
BLACK
6
CONTINUOUS
10
4.88386
20
-3.74705
11
4.85236
21
-3.74705
0
LINE
8
BLACK
6
CONTINUOUS
10
4.85236
20
-3.74705
11
4.85236
21
-3.71752
0
LINE
8
BLACK
6
CONTINUOUS
10
4.85236
20
-3.71752
11
4.88386
21
-3.71752
0
LINE
8
BLACK
6
CONTINUOUS
10
4.88386
20
-3.71752
11
4.88386
21
-3.74705
0
LINE
8
BLACK
6
CONTINUOUS
10
4.92421
20
-3.74606
11
4.89469
21
-3.74606
0
LINE
8
BLACK
6
CONTINUOUS
10
4.89469
20
-3.74606
11
4.89469
21
-3.71457
0
LINE
8
BLACK
6
CONTINUOUS
10
4.89469
20
-3.71457
11
4.92421
21
-3.71457
0
LINE
8
BLACK
6
CONTINUOUS
10
4.92421
20
-3.71457
11
4.92421
21
-3.74606
0
LINE
8
BLACK
6
CONTINUOUS
10
3.10827
20
-3.74409
11
3.07283
21
-3.74409
0
LINE
8
BLACK
6
CONTINUOUS
10
3.07283
20
-3.74409
11
3.07283
21
-3.72441
0
LINE
8
BLACK
6
CONTINUOUS
10
3.07283
20
-3.72441
11
3.10827
21
-3.72441
0
LINE
8
BLACK
6
CONTINUOUS
10
3.10827
20
-3.72441
11
3.10827
21
-3.74409
0
LINE
8
BLACK
6
CONTINUOUS
10
3.39053
20
-3.71931
11
3.36203
21
-3.71931
0
LINE
8
BLACK
6
CONTINUOUS
10
3.36203
20
-3.71931
11
3.36203
21
-3.70372
0
LINE
8
BLACK
6
CONTINUOUS
10
3.36203
20
-3.70372
11
3.39053
21
-3.70372
0
LINE
8
BLACK
6
CONTINUOUS
10
3.39053
20
-3.70372
11
3.39053
21
-3.71931
0
LINE
8
BLACK
6
CONTINUOUS
10
4.54626
20
-3.70669
11
4.51673
21
-3.70669
0
LINE
8
BLACK
6
CONTINUOUS
10
4.51673
20
-3.70669
11
4.51673
21
-3.6752
0
LINE
8
BLACK
6
CONTINUOUS
10
4.51673
20
-3.6752
11
4.54626
21
-3.6752
0
LINE
8
BLACK
6
CONTINUOUS
10
4.54626
20
-3.6752
11
4.54626
21
-3.70669
0
LINE
8
BLACK
6
CONTINUOUS
10
4.87795
20
-3.69882
11
4.85827
21
-3.69882
0
LINE
8
BLACK
6
CONTINUOUS
10
4.85827
20
-3.69882
11
4.85827
21
-3.66339
0
LINE
8
BLACK
6
CONTINUOUS
10
4.85827
20
-3.66339
11
4.87795
21
-3.66339
0
LINE
8
BLACK
6
CONTINUOUS
10
4.87795
20
-3.66339
11
4.87795
21
-3.69882
0
LINE
8
BLACK
6
CONTINUOUS
10
4.59449
20
-3.69882
11
4.5748
21
-3.69882
0
LINE
8
BLACK
6
CONTINUOUS
10
4.5748
20
-3.69882
11
4.5748
21
-3.66339
0
LINE
8
BLACK
6
CONTINUOUS
10
4.5748
20
-3.66339
11
4.59449
21
-3.66339
0
LINE
8
BLACK
6
CONTINUOUS
10
4.59449
20
-3.66339
11
4.59449
21
-3.69882
0
LINE
8
BLACK
6
CONTINUOUS
10
4.65354
20
-3.69882
11
4.63386
21
-3.69882
0
LINE
8
BLACK
6
CONTINUOUS
10
4.63386
20
-3.69882
11
4.63386
21
-3.66339
0
LINE
8
BLACK
6
CONTINUOUS
10
4.63386
20
-3.66339
11
4.65354
21
-3.66339
0
LINE
8
BLACK
6
CONTINUOUS
10
4.65354
20
-3.66339
11
4.65354
21
-3.69882
0
LINE
8
BLACK
6
CONTINUOUS
10
4.70472
20
-3.69882
11
4.68504
21
-3.69882
0
LINE
8
BLACK
6
CONTINUOUS
10
4.68504
20
-3.69882
11
4.68504
21
-3.66339
0
LINE
8
BLACK
6
CONTINUOUS
10
4.68504
20
-3.66339
11
4.70472
21
-3.66339
0
LINE
8
BLACK
6
CONTINUOUS
10
4.70472
20
-3.66339
11
4.70472
21
-3.69882
0
LINE
8
BLACK
6
CONTINUOUS
10
4.76378
20
-3.69882
11
4.74409
21
-3.69882
0
LINE
8
BLACK
6
CONTINUOUS
10
4.74409
20
-3.69882
11
4.74409
21
-3.66339
0
LINE
8
BLACK
6
CONTINUOUS
10
4.74409
20
-3.66339
11
4.76378
21
-3.66339
0
LINE
8
BLACK
6
CONTINUOUS
10
4.76378
20
-3.66339
11
4.76378
21
-3.69882
0
LINE
8
BLACK
6
CONTINUOUS
10
4.8189
20
-3.69882
11
4.79921
21
-3.69882
0
LINE
8
BLACK
6
CONTINUOUS
10
4.79921
20
-3.69882
11
4.79921
21
-3.66339
0
LINE
8
BLACK
6
CONTINUOUS
10
4.79921
20
-3.66339
11
4.8189
21
-3.66339
0
LINE
8
BLACK
6
CONTINUOUS
10
4.8189
20
-3.66339
11
4.8189
21
-3.69882
0
LINE
8
BLACK
6
CONTINUOUS
10
3.87992
20
-3.69291
11
3.84449
21
-3.69291
0
LINE
8
BLACK
6
CONTINUOUS
10
3.84449
20
-3.69291
11
3.84449
21
-3.62598
0
LINE
8
BLACK
6
CONTINUOUS
10
3.84449
20
-3.62598
11
3.87992
21
-3.62598
0
LINE
8
BLACK
6
CONTINUOUS
10
3.87992
20
-3.62598
11
3.87992
21
-3.69291
0
LINE
8
BLACK
6
CONTINUOUS
10
3.72047
20
-3.69291
11
3.68504
21
-3.69291
0
LINE
8
BLACK
6
CONTINUOUS
10
3.68504
20
-3.69291
11
3.68504
21
-3.62598
0
LINE
8
BLACK
6
CONTINUOUS
10
3.68504
20
-3.62598
11
3.72047
21
-3.62598
0
LINE
8
BLACK
6
CONTINUOUS
10
3.72047
20
-3.62598
11
3.72047
21
-3.69291
0
LINE
8
BLACK
6
CONTINUOUS
10
4.24409
20
-3.69291
11
4.20866
21
-3.69291
0
LINE
8
BLACK
6
CONTINUOUS
10
4.20866
20
-3.69291
11
4.20866
21
-3.62598
0
LINE
8
BLACK
6
CONTINUOUS
10
4.20866
20
-3.62598
11
4.24409
21
-3.62598
0
LINE
8
BLACK
6
CONTINUOUS
10
4.24409
20
-3.62598
11
4.24409
21
-3.69291
0
LINE
8
BLACK
6
CONTINUOUS
10
3.6063
20
-3.69291
11
3.57087
21
-3.69291
0
LINE
8
BLACK
6
CONTINUOUS
10
3.57087
20
-3.69291
11
3.57087
21
-3.62598
0
LINE
8
BLACK
6
CONTINUOUS
10
3.57087
20
-3.62598
11
3.6063
21
-3.62598
0
LINE
8
BLACK
6
CONTINUOUS
10
3.6063
20
-3.62598
11
3.6063
21
-3.69291
0
LINE
8
BLACK
6
CONTINUOUS
10
4.03937
20
-3.69291
11
4.00394
21
-3.69291
0
LINE
8
BLACK
6
CONTINUOUS
10
4.00394
20
-3.69291
11
4.00394
21
-3.62598
0
LINE
8
BLACK
6
CONTINUOUS
10
4.00394
20
-3.62598
11
4.03937
21
-3.62598
0
LINE
8
BLACK
6
CONTINUOUS
10
4.03937
20
-3.62598
11
4.03937
21
-3.69291
0
LINE
8
BLACK
6
CONTINUOUS
10
3.9252
20
-3.69291
11
3.88976
21
-3.69291
0
LINE
8
BLACK
6
CONTINUOUS
10
3.88976
20
-3.69291
11
3.88976
21
-3.62598
0
LINE
8
BLACK
6
CONTINUOUS
10
3.88976
20
-3.62598
11
3.9252
21
-3.62598
0
LINE
8
BLACK
6
CONTINUOUS
10
3.9252
20
-3.62598
11
3.9252
21
-3.69291
0
LINE
8
BLACK
6
CONTINUOUS
10
4.35827
20
-3.69291
11
4.32283
21
-3.69291
0
LINE
8
BLACK
6
CONTINUOUS
10
4.32283
20
-3.69291
11
4.32283
21
-3.62598
0
LINE
8
BLACK
6
CONTINUOUS
10
4.32283
20
-3.62598
11
4.35827
21
-3.62598
0
LINE
8
BLACK
6
CONTINUOUS
10
4.35827
20
-3.62598
11
4.35827
21
-3.69291
0
LINE
8
BLACK
6
CONTINUOUS
10
4.08465
20
-3.69291
11
4.04921
21
-3.69291
0
LINE
8
BLACK
6
CONTINUOUS
10
4.04921
20
-3.69291
11
4.04921
21
-3.62598
0
LINE
8
BLACK
6
CONTINUOUS
10
4.04921
20
-3.62598
11
4.08465
21
-3.62598
0
LINE
8
BLACK
6
CONTINUOUS
10
4.08465
20
-3.62598
11
4.08465
21
-3.69291
0
LINE
8
BLACK
6
CONTINUOUS
10
4.19882
20
-3.69291
11
4.16339
21
-3.69291
0
LINE
8
BLACK
6
CONTINUOUS
10
4.16339
20
-3.69291
11
4.16339
21
-3.62598
0
LINE
8
BLACK
6
CONTINUOUS
10
4.16339
20
-3.62598
11
4.19882
21
-3.62598
0
LINE
8
BLACK
6
CONTINUOUS
10
4.19882
20
-3.62598
11
4.19882
21
-3.69291
0
LINE
8
BLACK
6
CONTINUOUS
10
3.76575
20
-3.69291
11
3.73031
21
-3.69291
0
LINE
8
BLACK
6
CONTINUOUS
10
3.73031
20
-3.69291
11
3.73031
21
-3.62598
0
LINE
8
BLACK
6
CONTINUOUS
10
3.73031
20
-3.62598
11
3.76575
21
-3.62598
0
LINE
8
BLACK
6
CONTINUOUS
10
3.76575
20
-3.62598
11
3.76575
21
-3.69291
0
LINE
8
BLACK
6
CONTINUOUS
10
3.39033
20
-3.68998
11
3.36183
21
-3.68998
0
LINE
8
BLACK
6
CONTINUOUS
10
3.36183
20
-3.68998
11
3.36183
21
-3.67439
0
LINE
8
BLACK
6
CONTINUOUS
10
3.36183
20
-3.67439
11
3.39033
21
-3.67439
0
LINE
8
BLACK
6
CONTINUOUS
10
3.39033
20
-3.67439
11
3.39033
21
-3.68998
0
LINE
8
BLACK
6
CONTINUOUS
10
4.92421
20
-3.68701
11
4.89469
21
-3.68701
0
LINE
8
BLACK
6
CONTINUOUS
10
4.89469
20
-3.68701
11
4.89469
21
-3.65551
0
LINE
8
BLACK
6
CONTINUOUS
10
4.89469
20
-3.65551
11
4.92421
21
-3.65551
0
LINE
8
BLACK
6
CONTINUOUS
10
4.92421
20
-3.65551
11
4.92421
21
-3.68701
0
LINE
8
BLACK
6
CONTINUOUS
10
3.10827
20
-3.67126
11
3.07283
21
-3.67126
0
LINE
8
BLACK
6
CONTINUOUS
10
3.07283
20
-3.67126
11
3.07283
21
-3.65157
0
LINE
8
BLACK
6
CONTINUOUS
10
3.07283
20
-3.65157
11
3.10827
21
-3.65157
0
LINE
8
BLACK
6
CONTINUOUS
10
3.10827
20
-3.65157
11
3.10827
21
-3.67126
0
LINE
8
BLACK
6
CONTINUOUS
10
3.24734
20
-3.66949
11
3.23396
21
-3.66949
0
LINE
8
BLACK
6
CONTINUOUS
10
3.23396
20
-3.66949
11
3.23396
21
-3.64587
0
LINE
8
BLACK
6
CONTINUOUS
10
3.23396
20
-3.64587
11
3.24734
21
-3.64587
0
LINE
8
BLACK
6
CONTINUOUS
10
3.24734
20
-3.64587
11
3.24734
21
-3.66949
0
LINE
8
BLACK
6
CONTINUOUS
10
3.48406
20
-3.66949
11
3.45256
21
-3.66949
0
LINE
8
BLACK
6
CONTINUOUS
10
3.45256
20
-3.66949
11
3.45256
21
-3.64587
0
LINE
8
BLACK
6
CONTINUOUS
10
3.45256
20
-3.64587
11
3.48406
21
-3.64587
0
LINE
8
BLACK
6
CONTINUOUS
10
3.48406
20
-3.64587
11
3.48406
21
-3.66949
0
LINE
8
BLACK
6
CONTINUOUS
10
3.04965
20
-3.66705
11
3.02161
21
-3.66705
0
LINE
8
BLACK
6
CONTINUOUS
10
3.02161
20
-3.66705
11
3.02161
21
-3.65382
0
LINE
8
BLACK
6
CONTINUOUS
10
3.02161
20
-3.65382
11
3.04965
21
-3.65382
0
LINE
8
BLACK
6
CONTINUOUS
10
3.04965
20
-3.65382
11
3.04965
21
-3.66705
0
LINE
8
BLACK
6
CONTINUOUS
10
2.8839
20
-3.66705
11
2.85587
21
-3.66705
0
LINE
8
BLACK
6
CONTINUOUS
10
2.85587
20
-3.66705
11
2.85587
21
-3.65382
0
LINE
8
BLACK
6
CONTINUOUS
10
2.85587
20
-3.65382
11
2.8839
21
-3.65382
0
LINE
8
BLACK
6
CONTINUOUS
10
2.8839
20
-3.65382
11
2.8839
21
-3.66705
0
LINE
8
BLACK
6
CONTINUOUS
10
3.39447
20
-3.65449
11
3.26518
21
-3.65449
0
LINE
8
BLACK
6
CONTINUOUS
10
3.26518
20
-3.65449
11
3.26518
21
-3.51087
0
LINE
8
BLACK
6
CONTINUOUS
10
3.26518
20
-3.51087
11
3.39447
21
-3.51087
0
LINE
8
BLACK
6
CONTINUOUS
10
3.39447
20
-3.51087
11
3.39447
21
-3.65449
0
LINE
8
BLACK
6
CONTINUOUS
10
4.76378
20
-3.64764
11
4.74409
21
-3.64764
0
LINE
8
BLACK
6
CONTINUOUS
10
4.74409
20
-3.64764
11
4.74409
21
-3.6122
0
LINE
8
BLACK
6
CONTINUOUS
10
4.74409
20
-3.6122
11
4.76378
21
-3.6122
0
LINE
8
BLACK
6
CONTINUOUS
10
4.76378
20
-3.6122
11
4.76378
21
-3.64764
0
LINE
8
BLACK
6
CONTINUOUS
10
4.70472
20
-3.64764
11
4.68504
21
-3.64764
0
LINE
8
BLACK
6
CONTINUOUS
10
4.68504
20
-3.64764
11
4.68504
21
-3.6122
0
LINE
8
BLACK
6
CONTINUOUS
10
4.68504
20
-3.6122
11
4.70472
21
-3.6122
0
LINE
8
BLACK
6
CONTINUOUS
10
4.70472
20
-3.6122
11
4.70472
21
-3.64764
0
LINE
8
BLACK
6
CONTINUOUS
10
4.87795
20
-3.64764
11
4.85827
21
-3.64764
0
LINE
8
BLACK
6
CONTINUOUS
10
4.85827
20
-3.64764
11
4.85827
21
-3.6122
0
LINE
8
BLACK
6
CONTINUOUS
10
4.85827
20
-3.6122
11
4.87795
21
-3.6122
0
LINE
8
BLACK
6
CONTINUOUS
10
4.87795
20
-3.6122
11
4.87795
21
-3.64764
0
LINE
8
BLACK
6
CONTINUOUS
10
4.8189
20
-3.64764
11
4.79921
21
-3.64764
0
LINE
8
BLACK
6
CONTINUOUS
10
4.79921
20
-3.64764
11
4.79921
21
-3.6122
0
LINE
8
BLACK
6
CONTINUOUS
10
4.79921
20
-3.6122
11
4.8189
21
-3.6122
0
LINE
8
BLACK
6
CONTINUOUS
10
4.8189
20
-3.6122
11
4.8189
21
-3.64764
0
LINE
8
BLACK
6
CONTINUOUS
10
2.8839
20
-3.64146
11
2.85587
21
-3.64146
0
LINE
8
BLACK
6
CONTINUOUS
10
2.85587
20
-3.64146
11
2.85587
21
-3.62823
0
LINE
8
BLACK
6
CONTINUOUS
10
2.85587
20
-3.62823
11
2.8839
21
-3.62823
0
LINE
8
BLACK
6
CONTINUOUS
10
2.8839
20
-3.62823
11
2.8839
21
-3.64146
0
LINE
8
BLACK
6
CONTINUOUS
10
3.04965
20
-3.64146
11
3.02161
21
-3.64146
0
LINE
8
BLACK
6
CONTINUOUS
10
3.02161
20
-3.64146
11
3.02161
21
-3.62823
0
LINE
8
BLACK
6
CONTINUOUS
10
3.02161
20
-3.62823
11
3.04965
21
-3.62823
0
LINE
8
BLACK
6
CONTINUOUS
10
3.04965
20
-3.62823
11
3.04965
21
-3.64146
0
LINE
8
BLACK
6
CONTINUOUS
10
4.54331
20
-3.62402
11
4.52362
21
-3.62402
0
LINE
8
BLACK
6
CONTINUOUS
10
4.52362
20
-3.62402
11
4.52362
21
-3.58858
0
LINE
8
BLACK
6
CONTINUOUS
10
4.52362
20
-3.58858
11
4.54331
21
-3.58858
0
LINE
8
BLACK
6
CONTINUOUS
10
4.54331
20
-3.58858
11
4.54331
21
-3.62402
0
LINE
8
BLACK
6
CONTINUOUS
10
4.60236
20
-3.62402
11
4.58268
21
-3.62402
0
LINE
8
BLACK
6
CONTINUOUS
10
4.58268
20
-3.62402
11
4.58268
21
-3.58858
0
LINE
8
BLACK
6
CONTINUOUS
10
4.58268
20
-3.58858
11
4.60236
21
-3.58858
0
LINE
8
BLACK
6
CONTINUOUS
10
4.60236
20
-3.58858
11
4.60236
21
-3.62402
0
LINE
8
BLACK
6
CONTINUOUS
10
3.48406
20
-3.61949
11
3.45256
21
-3.61949
0
LINE
8
BLACK
6
CONTINUOUS
10
3.45256
20
-3.61949
11
3.45256
21
-3.59587
0
LINE
8
BLACK
6
CONTINUOUS
10
3.45256
20
-3.59587
11
3.48406
21
-3.59587
0
LINE
8
BLACK
6
CONTINUOUS
10
3.48406
20
-3.59587
11
3.48406
21
-3.61949
0
LINE
8
BLACK
6
CONTINUOUS
10
4.19882
20
-3.61614
11
4.16339
21
-3.61614
0
LINE
8
BLACK
6
CONTINUOUS
10
4.16339
20
-3.61614
11
4.16339
21
-3.54921
0
LINE
8
BLACK
6
CONTINUOUS
10
4.16339
20
-3.54921
11
4.19882
21
-3.54921
0
LINE
8
BLACK
6
CONTINUOUS
10
4.19882
20
-3.54921
11
4.19882
21
-3.61614
0
LINE
8
BLACK
6
CONTINUOUS
10
4.24409
20
-3.61614
11
4.20866
21
-3.61614
0
LINE
8
BLACK
6
CONTINUOUS
10
4.20866
20
-3.61614
11
4.20866
21
-3.54921
0
LINE
8
BLACK
6
CONTINUOUS
10
4.20866
20
-3.54921
11
4.24409
21
-3.54921
0
LINE
8
BLACK
6
CONTINUOUS
10
4.24409
20
-3.54921
11
4.24409
21
-3.61614
0
LINE
8
BLACK
6
CONTINUOUS
10
4.35827
20
-3.61614
11
4.32283
21
-3.61614
0
LINE
8
BLACK
6
CONTINUOUS
10
4.32283
20
-3.61614
11
4.32283
21
-3.54921
0
LINE
8
BLACK
6
CONTINUOUS
10
4.32283
20
-3.54921
11
4.35827
21
-3.54921
0
LINE
8
BLACK
6
CONTINUOUS
10
4.35827
20
-3.54921
11
4.35827
21
-3.61614
0
LINE
8
BLACK
6
CONTINUOUS
10
3.9252
20
-3.61614
11
3.88976
21
-3.61614
0
LINE
8
BLACK
6
CONTINUOUS
10
3.88976
20
-3.61614
11
3.88976
21
-3.54921
0
LINE
8
BLACK
6
CONTINUOUS
10
3.88976
20
-3.54921
11
3.9252
21
-3.54921
0
LINE
8
BLACK
6
CONTINUOUS
10
3.9252
20
-3.54921
11
3.9252
21
-3.61614
0
LINE
8
BLACK
6
CONTINUOUS
10
4.03937
20
-3.61614
11
4.00394
21
-3.61614
0
LINE
8
BLACK
6
CONTINUOUS
10
4.00394
20
-3.61614
11
4.00394
21
-3.54921
0
LINE
8
BLACK
6
CONTINUOUS
10
4.00394
20
-3.54921
11
4.03937
21
-3.54921
0
LINE
8
BLACK
6
CONTINUOUS
10
4.03937
20
-3.54921
11
4.03937
21
-3.61614
0
LINE
8
BLACK
6
CONTINUOUS
10
3.76575
20
-3.61614
11
3.73031
21
-3.61614
0
LINE
8
BLACK
6
CONTINUOUS
10
3.73031
20
-3.61614
11
3.73031
21
-3.54921
0
LINE
8
BLACK
6
CONTINUOUS
10
3.73031
20
-3.54921
11
3.76575
21
-3.54921
0
LINE
8
BLACK
6
CONTINUOUS
10
3.76575
20
-3.54921
11
3.76575
21
-3.61614
0
LINE
8
BLACK
6
CONTINUOUS
10
4.08465
20
-3.61614
11
4.04921
21
-3.61614
0
LINE
8
BLACK
6
CONTINUOUS
10
4.04921
20
-3.61614
11
4.04921
21
-3.54921
0
LINE
8
BLACK
6
CONTINUOUS
10
4.04921
20
-3.54921
11
4.08465
21
-3.54921
0
LINE
8
BLACK
6
CONTINUOUS
10
4.08465
20
-3.54921
11
4.08465
21
-3.61614
0
LINE
8
BLACK
6
CONTINUOUS
10
3.6063
20
-3.61614
11
3.57087
21
-3.61614
0
LINE
8
BLACK
6
CONTINUOUS
10
3.57087
20
-3.61614
11
3.57087
21
-3.54921
0
LINE
8
BLACK
6
CONTINUOUS
10
3.57087
20
-3.54921
11
3.6063
21
-3.54921
0
LINE
8
BLACK
6
CONTINUOUS
10
3.6063
20
-3.54921
11
3.6063
21
-3.61614
0
LINE
8
BLACK
6
CONTINUOUS
10
3.72047
20
-3.61614
11
3.68504
21
-3.61614
0
LINE
8
BLACK
6
CONTINUOUS
10
3.68504
20
-3.61614
11
3.68504
21
-3.54921
0
LINE
8
BLACK
6
CONTINUOUS
10
3.68504
20
-3.54921
11
3.72047
21
-3.54921
0
LINE
8
BLACK
6
CONTINUOUS
10
3.72047
20
-3.54921
11
3.72047
21
-3.61614
0
LINE
8
BLACK
6
CONTINUOUS
10
3.87992
20
-3.61614
11
3.84449
21
-3.61614
0
LINE
8
BLACK
6
CONTINUOUS
10
3.84449
20
-3.61614
11
3.84449
21
-3.54921
0
LINE
8
BLACK
6
CONTINUOUS
10
3.84449
20
-3.54921
11
3.87992
21
-3.54921
0
LINE
8
BLACK
6
CONTINUOUS
10
3.87992
20
-3.54921
11
3.87992
21
-3.61614
0
LINE
8
BLACK
6
CONTINUOUS
10
2.8839
20
-3.61587
11
2.85587
21
-3.61587
0
LINE
8
BLACK
6
CONTINUOUS
10
2.85587
20
-3.61587
11
2.85587
21
-3.60264
0
LINE
8
BLACK
6
CONTINUOUS
10
2.85587
20
-3.60264
11
2.8839
21
-3.60264
0
LINE
8
BLACK
6
CONTINUOUS
10
2.8839
20
-3.60264
11
2.8839
21
-3.61587
0
LINE
8
BLACK
6
CONTINUOUS
10
3.04965
20
-3.61587
11
3.02161
21
-3.61587
0
LINE
8
BLACK
6
CONTINUOUS
10
3.02161
20
-3.61587
11
3.02161
21
-3.60264
0
LINE
8
BLACK
6
CONTINUOUS
10
3.02161
20
-3.60264
11
3.04965
21
-3.60264
0
LINE
8
BLACK
6
CONTINUOUS
10
3.04965
20
-3.60264
11
3.04965
21
-3.61587
0
LINE
8
BLACK
6
CONTINUOUS
10
3.10827
20
-3.6122
11
3.07283
21
-3.6122
0
LINE
8
BLACK
6
CONTINUOUS
10
3.07283
20
-3.6122
11
3.07283
21
-3.59252
0
LINE
8
BLACK
6
CONTINUOUS
10
3.07283
20
-3.59252
11
3.10827
21
-3.59252
0
LINE
8
BLACK
6
CONTINUOUS
10
3.10827
20
-3.59252
11
3.10827
21
-3.6122
0
LINE
8
BLACK
6
CONTINUOUS
10
3.04965
20
-3.59028
11
3.02161
21
-3.59028
0
LINE
8
BLACK
6
CONTINUOUS
10
3.02161
20
-3.59028
11
3.02161
21
-3.57705
0
LINE
8
BLACK
6
CONTINUOUS
10
3.02161
20
-3.57705
11
3.04965
21
-3.57705
0
LINE
8
BLACK
6
CONTINUOUS
10
3.04965
20
-3.57705
11
3.04965
21
-3.59028
0
LINE
8
BLACK
6
CONTINUOUS
10
2.8839
20
-3.59028
11
2.85587
21
-3.59028
0
LINE
8
BLACK
6
CONTINUOUS
10
2.85587
20
-3.59028
11
2.85587
21
-3.57705
0
LINE
8
BLACK
6
CONTINUOUS
10
2.85587
20
-3.57705
11
2.8839
21
-3.57705
0
LINE
8
BLACK
6
CONTINUOUS
10
2.8839
20
-3.57705
11
2.8839
21
-3.59028
0
LINE
8
BLACK
6
CONTINUOUS
10
4.76181
20
-3.58858
11
4.62795
21
-3.58858
0
LINE
8
BLACK
6
CONTINUOUS
10
4.62795
20
-3.58858
11
4.62795
21
-3.5374
0
LINE
8
BLACK
6
CONTINUOUS
10
4.62795
20
-3.5374
11
4.76181
21
-3.5374
0
LINE
8
BLACK
6
CONTINUOUS
10
4.76181
20
-3.5374
11
4.76181
21
-3.58858
0
LINE
8
BLACK
6
CONTINUOUS
10
4.54331
20
-3.57677
11
4.52362
21
-3.57677
0
LINE
8
BLACK
6
CONTINUOUS
10
4.52362
20
-3.57677
11
4.52362
21
-3.54134
0
LINE
8
BLACK
6
CONTINUOUS
10
4.52362
20
-3.54134
11
4.54331
21
-3.54134
0
LINE
8
BLACK
6
CONTINUOUS
10
4.54331
20
-3.54134
11
4.54331
21
-3.57677
0
LINE
8
BLACK
6
CONTINUOUS
10
4.60236
20
-3.57677
11
4.58268
21
-3.57677
0
LINE
8
BLACK
6
CONTINUOUS
10
4.58268
20
-3.57677
11
4.58268
21
-3.54134
0
LINE
8
BLACK
6
CONTINUOUS
10
4.58268
20
-3.54134
11
4.60236
21
-3.54134
0
LINE
8
BLACK
6
CONTINUOUS
10
4.60236
20
-3.54134
11
4.60236
21
-3.57677
0
LINE
8
BLACK
6
CONTINUOUS
10
3.10827
20
-3.57283
11
3.07283
21
-3.57283
0
LINE
8
BLACK
6
CONTINUOUS
10
3.07283
20
-3.57283
11
3.07283
21
-3.55315
0
LINE
8
BLACK
6
CONTINUOUS
10
3.07283
20
-3.55315
11
3.10827
21
-3.55315
0
LINE
8
BLACK
6
CONTINUOUS
10
3.10827
20
-3.55315
11
3.10827
21
-3.57283
0
LINE
8
BLACK
6
CONTINUOUS
10
3.48406
20
-3.56949
11
3.45256
21
-3.56949
0
LINE
8
BLACK
6
CONTINUOUS
10
3.45256
20
-3.56949
11
3.45256
21
-3.54587
0
LINE
8
BLACK
6
CONTINUOUS
10
3.45256
20
-3.54587
11
3.48406
21
-3.54587
0
LINE
8
BLACK
6
CONTINUOUS
10
3.48406
20
-3.54587
11
3.48406
21
-3.56949
0
LINE
8
BLACK
6
CONTINUOUS
10
3.9252
20
-3.53937
11
3.88976
21
-3.53937
0
LINE
8
BLACK
6
CONTINUOUS
10
3.88976
20
-3.53937
11
3.88976
21
-3.47244
0
LINE
8
BLACK
6
CONTINUOUS
10
3.88976
20
-3.47244
11
3.9252
21
-3.47244
0
LINE
8
BLACK
6
CONTINUOUS
10
3.9252
20
-3.47244
11
3.9252
21
-3.53937
0
LINE
8
BLACK
6
CONTINUOUS
10
4.03937
20
-3.53937
11
4.00394
21
-3.53937
0
LINE
8
BLACK
6
CONTINUOUS
10
4.00394
20
-3.53937
11
4.00394
21
-3.47244
0
LINE
8
BLACK
6
CONTINUOUS
10
4.00394
20
-3.47244
11
4.03937
21
-3.47244
0
LINE
8
BLACK
6
CONTINUOUS
10
4.03937
20
-3.47244
11
4.03937
21
-3.53937
0
LINE
8
BLACK
6
CONTINUOUS
10
4.35827
20
-3.53937
11
4.32283
21
-3.53937
0
LINE
8
BLACK
6
CONTINUOUS
10
4.32283
20
-3.53937
11
4.32283
21
-3.47244
0
LINE
8
BLACK
6
CONTINUOUS
10
4.32283
20
-3.47244
11
4.35827
21
-3.47244
0
LINE
8
BLACK
6
CONTINUOUS
10
4.35827
20
-3.47244
11
4.35827
21
-3.53937
0
LINE
8
BLACK
6
CONTINUOUS
10
4.24409
20
-3.53937
11
4.20866
21
-3.53937
0
LINE
8
BLACK
6
CONTINUOUS
10
4.20866
20
-3.53937
11
4.20866
21
-3.47244
0
LINE
8
BLACK
6
CONTINUOUS
10
4.20866
20
-3.47244
11
4.24409
21
-3.47244
0
LINE
8
BLACK
6
CONTINUOUS
10
4.24409
20
-3.47244
11
4.24409
21
-3.53937
0
LINE
8
BLACK
6
CONTINUOUS
10
3.76575
20
-3.53937
11
3.73031
21
-3.53937
0
LINE
8
BLACK
6
CONTINUOUS
10
3.73031
20
-3.53937
11
3.73031
21
-3.47244
0
LINE
8
BLACK
6
CONTINUOUS
10
3.73031
20
-3.47244
11
3.76575
21
-3.47244
0
LINE
8
BLACK
6
CONTINUOUS
10
3.76575
20
-3.47244
11
3.76575
21
-3.53937
0
LINE
8
BLACK
6
CONTINUOUS
10
3.6063
20
-3.53937
11
3.57087
21
-3.53937
0
LINE
8
BLACK
6
CONTINUOUS
10
3.57087
20
-3.53937
11
3.57087
21
-3.47244
0
LINE
8
BLACK
6
CONTINUOUS
10
3.57087
20
-3.47244
11
3.6063
21
-3.47244
0
LINE
8
BLACK
6
CONTINUOUS
10
3.6063
20
-3.47244
11
3.6063
21
-3.53937
0
LINE
8
BLACK
6
CONTINUOUS
10
3.72047
20
-3.53937
11
3.68504
21
-3.53937
0
LINE
8
BLACK
6
CONTINUOUS
10
3.68504
20
-3.53937
11
3.68504
21
-3.47244
0
LINE
8
BLACK
6
CONTINUOUS
10
3.68504
20
-3.47244
11
3.72047
21
-3.47244
0
LINE
8
BLACK
6
CONTINUOUS
10
3.72047
20
-3.47244
11
3.72047
21
-3.53937
0
LINE
8
BLACK
6
CONTINUOUS
10
4.08465
20
-3.53937
11
4.04921
21
-3.53937
0
LINE
8
BLACK
6
CONTINUOUS
10
4.04921
20
-3.53937
11
4.04921
21
-3.47244
0
LINE
8
BLACK
6
CONTINUOUS
10
4.04921
20
-3.47244
11
4.08465
21
-3.47244
0
LINE
8
BLACK
6
CONTINUOUS
10
4.08465
20
-3.47244
11
4.08465
21
-3.53937
0
LINE
8
BLACK
6
CONTINUOUS
10
4.19882
20
-3.53937
11
4.16339
21
-3.53937
0
LINE
8
BLACK
6
CONTINUOUS
10
4.16339
20
-3.53937
11
4.16339
21
-3.47244
0
LINE
8
BLACK
6
CONTINUOUS
10
4.16339
20
-3.47244
11
4.19882
21
-3.47244
0
LINE
8
BLACK
6
CONTINUOUS
10
4.19882
20
-3.47244
11
4.19882
21
-3.53937
0
LINE
8
BLACK
6
CONTINUOUS
10
3.87992
20
-3.53937
11
3.84449
21
-3.53937
0
LINE
8
BLACK
6
CONTINUOUS
10
3.84449
20
-3.53937
11
3.84449
21
-3.47244
0
LINE
8
BLACK
6
CONTINUOUS
10
3.84449
20
-3.47244
11
3.87992
21
-3.47244
0
LINE
8
BLACK
6
CONTINUOUS
10
3.87992
20
-3.47244
11
3.87992
21
-3.53937
0
LINE
8
BLACK
6
CONTINUOUS
10
2.93898
20
-3.53445
11
2.90748
21
-3.53445
0
LINE
8
BLACK
6
CONTINUOUS
10
2.90748
20
-3.53445
11
2.90748
21
-3.50492
0
LINE
8
BLACK
6
CONTINUOUS
10
2.90748
20
-3.50492
11
2.93898
21
-3.50492
0
LINE
8
BLACK
6
CONTINUOUS
10
2.93898
20
-3.50492
11
2.93898
21
-3.53445
0
LINE
8
BLACK
6
CONTINUOUS
10
2.99803
20
-3.53445
11
2.96654
21
-3.53445
0
LINE
8
BLACK
6
CONTINUOUS
10
2.96654
20
-3.53445
11
2.96654
21
-3.50492
0
LINE
8
BLACK
6
CONTINUOUS
10
2.96654
20
-3.50492
11
2.99803
21
-3.50492
0
LINE
8
BLACK
6
CONTINUOUS
10
2.99803
20
-3.50492
11
2.99803
21
-3.53445
0
LINE
8
BLACK
6
CONTINUOUS
10
4.54626
20
-3.52953
11
4.51673
21
-3.52953
0
LINE
8
BLACK
6
CONTINUOUS
10
4.51673
20
-3.52953
11
4.51673
21
-3.49803
0
LINE
8
BLACK
6
CONTINUOUS
10
4.51673
20
-3.49803
11
4.54626
21
-3.49803
0
LINE
8
BLACK
6
CONTINUOUS
10
4.54626
20
-3.49803
11
4.54626
21
-3.52953
0
LINE
8
BLACK
6
CONTINUOUS
10
4.5935
20
-3.52953
11
4.56398
21
-3.52953
0
LINE
8
BLACK
6
CONTINUOUS
10
4.56398
20
-3.52953
11
4.56398
21
-3.49803
0
LINE
8
BLACK
6
CONTINUOUS
10
4.56398
20
-3.49803
11
4.5935
21
-3.49803
0
LINE
8
BLACK
6
CONTINUOUS
10
4.5935
20
-3.49803
11
4.5935
21
-3.52953
0
LINE
8
BLACK
6
CONTINUOUS
10
3.48406
20
-3.51949
11
3.45256
21
-3.51949
0
LINE
8
BLACK
6
CONTINUOUS
10
3.45256
20
-3.51949
11
3.45256
21
-3.49587
0
LINE
8
BLACK
6
CONTINUOUS
10
3.45256
20
-3.49587
11
3.48406
21
-3.49587
0
LINE
8
BLACK
6
CONTINUOUS
10
3.48406
20
-3.49587
11
3.48406
21
-3.51949
0
LINE
8
BLACK
6
CONTINUOUS
10
3.24734
20
-3.51949
11
3.23396
21
-3.51949
0
LINE
8
BLACK
6
CONTINUOUS
10
3.23396
20
-3.51949
11
3.23396
21
-3.49587
0
LINE
8
BLACK
6
CONTINUOUS
10
3.23396
20
-3.49587
11
3.24734
21
-3.49587
0
LINE
8
BLACK
6
CONTINUOUS
10
3.24734
20
-3.49587
11
3.24734
21
-3.51949
0
LINE
8
BLACK
6
CONTINUOUS
10
4.82874
20
-3.51772
11
4.7815
21
-3.51772
0
LINE
8
BLACK
6
CONTINUOUS
10
4.7815
20
-3.51772
11
4.7815
21
-3.48228
0
LINE
8
BLACK
6
CONTINUOUS
10
4.7815
20
-3.48228
11
4.82874
21
-3.48228
0
LINE
8
BLACK
6
CONTINUOUS
10
4.82874
20
-3.48228
11
4.82874
21
-3.51772
0
LINE
8
BLACK
6
CONTINUOUS
10
3.10827
20
-3.51378
11
3.07283
21
-3.51378
0
LINE
8
BLACK
6
CONTINUOUS
10
3.07283
20
-3.51378
11
3.07283
21
-3.49409
0
LINE
8
BLACK
6
CONTINUOUS
10
3.07283
20
-3.49409
11
3.10827
21
-3.49409
0
LINE
8
BLACK
6
CONTINUOUS
10
3.10827
20
-3.49409
11
3.10827
21
-3.51378
0
LINE
8
BLACK
6
CONTINUOUS
10
4.91339
20
-3.51181
11
4.84646
21
-3.51181
0
LINE
8
BLACK
6
CONTINUOUS
10
4.84646
20
-3.51181
11
4.84646
21
-3.47638
0
LINE
8
BLACK
6
CONTINUOUS
10
4.84646
20
-3.47638
11
4.91339
21
-3.47638
0
LINE
8
BLACK
6
CONTINUOUS
10
4.91339
20
-3.47638
11
4.91339
21
-3.51181
0
LINE
8
BLACK
6
CONTINUOUS
10
4.76181
20
-3.50591
11
4.62795
21
-3.50591
0
LINE
8
BLACK
6
CONTINUOUS
10
4.62795
20
-3.50591
11
4.62795
21
-3.45472
0
LINE
8
BLACK
6
CONTINUOUS
10
4.62795
20
-3.45472
11
4.76181
21
-3.45472
0
LINE
8
BLACK
6
CONTINUOUS
10
4.76181
20
-3.45472
11
4.76181
21
-3.50591
0
LINE
8
BLACK
6
CONTINUOUS
10
3.39033
20
-3.49096
11
3.36183
21
-3.49096
0
LINE
8
BLACK
6
CONTINUOUS
10
3.36183
20
-3.49096
11
3.36183
21
-3.47537
0
LINE
8
BLACK
6
CONTINUOUS
10
3.36183
20
-3.47537
11
3.39033
21
-3.47537
0
LINE
8
BLACK
6
CONTINUOUS
10
3.39033
20
-3.47537
11
3.39033
21
-3.49096
0
LINE
8
BLACK
6
CONTINUOUS
10
3.2126
20
-3.48622
11
3.19291
21
-3.48622
0
LINE
8
BLACK
6
CONTINUOUS
10
3.19291
20
-3.48622
11
3.19291
21
-3.45079
0
LINE
8
BLACK
6
CONTINUOUS
10
3.19291
20
-3.45079
11
3.2126
21
-3.45079
0
LINE
8
BLACK
6
CONTINUOUS
10
3.2126
20
-3.45079
11
3.2126
21
-3.48622
0
LINE
8
BLACK
6
CONTINUOUS
10
3.15354
20
-3.48622
11
3.13386
21
-3.48622
0
LINE
8
BLACK
6
CONTINUOUS
10
3.13386
20
-3.48622
11
3.13386
21
-3.45079
0
LINE
8
BLACK
6
CONTINUOUS
10
3.13386
20
-3.45079
11
3.15354
21
-3.45079
0
LINE
8
BLACK
6
CONTINUOUS
10
3.15354
20
-3.45079
11
3.15354
21
-3.48622
0
LINE
8
BLACK
6
CONTINUOUS
10
4.5935
20
-3.47047
11
4.56398
21
-3.47047
0
LINE
8
BLACK
6
CONTINUOUS
10
4.56398
20
-3.47047
11
4.56398
21
-3.43898
0
LINE
8
BLACK
6
CONTINUOUS
10
4.56398
20
-3.43898
11
4.5935
21
-3.43898
0
LINE
8
BLACK
6
CONTINUOUS
10
4.5935
20
-3.43898
11
4.5935
21
-3.47047
0
LINE
8
BLACK
6
CONTINUOUS
10
4.54626
20
-3.47047
11
4.51673
21
-3.47047
0
LINE
8
BLACK
6
CONTINUOUS
10
4.51673
20
-3.47047
11
4.51673
21
-3.43898
0
LINE
8
BLACK
6
CONTINUOUS
10
4.51673
20
-3.43898
11
4.54626
21
-3.43898
0
LINE
8
BLACK
6
CONTINUOUS
10
4.54626
20
-3.43898
11
4.54626
21
-3.47047
0
LINE
8
BLACK
6
CONTINUOUS
10
3.72047
20
-3.4626
11
3.68504
21
-3.4626
0
LINE
8
BLACK
6
CONTINUOUS
10
3.68504
20
-3.4626
11
3.68504
21
-3.39567
0
LINE
8
BLACK
6
CONTINUOUS
10
3.68504
20
-3.39567
11
3.72047
21
-3.39567
0
LINE
8
BLACK
6
CONTINUOUS
10
3.72047
20
-3.39567
11
3.72047
21
-3.4626
0
LINE
8
BLACK
6
CONTINUOUS
10
3.6063
20
-3.4626
11
3.57087
21
-3.4626
0
LINE
8
BLACK
6
CONTINUOUS
10
3.57087
20
-3.4626
11
3.57087
21
-3.39567
0
LINE
8
BLACK
6
CONTINUOUS
10
3.57087
20
-3.39567
11
3.6063
21
-3.39567
0
LINE
8
BLACK
6
CONTINUOUS
10
3.6063
20
-3.39567
11
3.6063
21
-3.4626
0
LINE
8
BLACK
6
CONTINUOUS
10
4.35827
20
-3.4626
11
4.32283
21
-3.4626
0
LINE
8
BLACK
6
CONTINUOUS
10
4.32283
20
-3.4626
11
4.32283
21
-3.39567
0
LINE
8
BLACK
6
CONTINUOUS
10
4.32283
20
-3.39567
11
4.35827
21
-3.39567
0
LINE
8
BLACK
6
CONTINUOUS
10
4.35827
20
-3.39567
11
4.35827
21
-3.4626
0
LINE
8
BLACK
6
CONTINUOUS
10
4.24409
20
-3.4626
11
4.20866
21
-3.4626
0
LINE
8
BLACK
6
CONTINUOUS
10
4.20866
20
-3.4626
11
4.20866
21
-3.39567
0
LINE
8
BLACK
6
CONTINUOUS
10
4.20866
20
-3.39567
11
4.24409
21
-3.39567
0
LINE
8
BLACK
6
CONTINUOUS
10
4.24409
20
-3.39567
11
4.24409
21
-3.4626
0
LINE
8
BLACK
6
CONTINUOUS
10
4.19882
20
-3.4626
11
4.16339
21
-3.4626
0
LINE
8
BLACK
6
CONTINUOUS
10
4.16339
20
-3.4626
11
4.16339
21
-3.39567
0
LINE
8
BLACK
6
CONTINUOUS
10
4.16339
20
-3.39567
11
4.19882
21
-3.39567
0
LINE
8
BLACK
6
CONTINUOUS
10
4.19882
20
-3.39567
11
4.19882
21
-3.4626
0
LINE
8
BLACK
6
CONTINUOUS
10
3.87992
20
-3.4626
11
3.84449
21
-3.4626
0
LINE
8
BLACK
6
CONTINUOUS
10
3.84449
20
-3.4626
11
3.84449
21
-3.39567
0
LINE
8
BLACK
6
CONTINUOUS
10
3.84449
20
-3.39567
11
3.87992
21
-3.39567
0
LINE
8
BLACK
6
CONTINUOUS
10
3.87992
20
-3.39567
11
3.87992
21
-3.4626
0
LINE
8
BLACK
6
CONTINUOUS
10
3.76575
20
-3.4626
11
3.73031
21
-3.4626
0
LINE
8
BLACK
6
CONTINUOUS
10
3.73031
20
-3.4626
11
3.73031
21
-3.39567
0
LINE
8
BLACK
6
CONTINUOUS
10
3.73031
20
-3.39567
11
3.76575
21
-3.39567
0
LINE
8
BLACK
6
CONTINUOUS
10
3.76575
20
-3.39567
11
3.76575
21
-3.4626
0
LINE
8
BLACK
6
CONTINUOUS
10
3.9252
20
-3.4626
11
3.88976
21
-3.4626
0
LINE
8
BLACK
6
CONTINUOUS
10
3.88976
20
-3.4626
11
3.88976
21
-3.39567
0
LINE
8
BLACK
6
CONTINUOUS
10
3.88976
20
-3.39567
11
3.9252
21
-3.39567
0
LINE
8
BLACK
6
CONTINUOUS
10
3.9252
20
-3.39567
11
3.9252
21
-3.4626
0
LINE
8
BLACK
6
CONTINUOUS
10
4.03937
20
-3.4626
11
4.00394
21
-3.4626
0
LINE
8
BLACK
6
CONTINUOUS
10
4.00394
20
-3.4626
11
4.00394
21
-3.39567
0
LINE
8
BLACK
6
CONTINUOUS
10
4.00394
20
-3.39567
11
4.03937
21
-3.39567
0
LINE
8
BLACK
6
CONTINUOUS
10
4.03937
20
-3.39567
11
4.03937
21
-3.4626
0
LINE
8
BLACK
6
CONTINUOUS
10
4.08465
20
-3.4626
11
4.04921
21
-3.4626
0
LINE
8
BLACK
6
CONTINUOUS
10
4.04921
20
-3.4626
11
4.04921
21
-3.39567
0
LINE
8
BLACK
6
CONTINUOUS
10
4.04921
20
-3.39567
11
4.08465
21
-3.39567
0
LINE
8
BLACK
6
CONTINUOUS
10
4.08465
20
-3.39567
11
4.08465
21
-3.4626
0
LINE
8
BLACK
6
CONTINUOUS
10
3.39053
20
-3.46163
11
3.36203
21
-3.46163
0
LINE
8
BLACK
6
CONTINUOUS
10
3.36203
20
-3.46163
11
3.36203
21
-3.44604
0
LINE
8
BLACK
6
CONTINUOUS
10
3.36203
20
-3.44604
11
3.39053
21
-3.44604
0
LINE
8
BLACK
6
CONTINUOUS
10
3.39053
20
-3.44604
11
3.39053
21
-3.46163
0
LINE
8
BLACK
6
CONTINUOUS
10
4.76575
20
-3.44685
11
4.73031
21
-3.44685
0
LINE
8
BLACK
6
CONTINUOUS
10
4.73031
20
-3.44685
11
4.73031
21
-3.42717
0
LINE
8
BLACK
6
CONTINUOUS
10
4.73031
20
-3.42717
11
4.76575
21
-3.42717
0
LINE
8
BLACK
6
CONTINUOUS
10
4.76575
20
-3.42717
11
4.76575
21
-3.44685
0
LINE
8
BLACK
6
CONTINUOUS
10
3.48425
20
-3.44114
11
3.45276
21
-3.44114
0
LINE
8
BLACK
6
CONTINUOUS
10
3.45276
20
-3.44114
11
3.45276
21
-3.41752
0
LINE
8
BLACK
6
CONTINUOUS
10
3.45276
20
-3.41752
11
3.48425
21
-3.41752
0
LINE
8
BLACK
6
CONTINUOUS
10
3.48425
20
-3.41752
11
3.48425
21
-3.44114
0
LINE
8
BLACK
6
CONTINUOUS
10
3.24754
20
-3.44114
11
3.23415
21
-3.44114
0
LINE
8
BLACK
6
CONTINUOUS
10
3.23415
20
-3.44114
11
3.23415
21
-3.41752
0
LINE
8
BLACK
6
CONTINUOUS
10
3.23415
20
-3.41752
11
3.24754
21
-3.41752
0
LINE
8
BLACK
6
CONTINUOUS
10
3.24754
20
-3.41752
11
3.24754
21
-3.44114
0
LINE
8
BLACK
6
CONTINUOUS
10
3.10827
20
-3.44094
11
3.07283
21
-3.44094
0
LINE
8
BLACK
6
CONTINUOUS
10
3.07283
20
-3.44094
11
3.07283
21
-3.42126
0
LINE
8
BLACK
6
CONTINUOUS
10
3.07283
20
-3.42126
11
3.10827
21
-3.42126
0
LINE
8
BLACK
6
CONTINUOUS
10
3.10827
20
-3.42126
11
3.10827
21
-3.44094
0
LINE
8
BLACK
6
CONTINUOUS
10
3.04965
20
-3.4387
11
3.02161
21
-3.4387
0
LINE
8
BLACK
6
CONTINUOUS
10
3.02161
20
-3.4387
11
3.02161
21
-3.42547
0
LINE
8
BLACK
6
CONTINUOUS
10
3.02161
20
-3.42547
11
3.04965
21
-3.42547
0
LINE
8
BLACK
6
CONTINUOUS
10
3.04965
20
-3.42547
11
3.04965
21
-3.4387
0
LINE
8
BLACK
6
CONTINUOUS
10
2.8839
20
-3.4387
11
2.85587
21
-3.4387
0
LINE
8
BLACK
6
CONTINUOUS
10
2.85587
20
-3.4387
11
2.85587
21
-3.42547
0
LINE
8
BLACK
6
CONTINUOUS
10
2.85587
20
-3.42547
11
2.8839
21
-3.42547
0
LINE
8
BLACK
6
CONTINUOUS
10
2.8839
20
-3.42547
11
2.8839
21
-3.4387
0
LINE
8
BLACK
6
CONTINUOUS
10
3.39467
20
-3.42614
11
3.26537
21
-3.42614
0
LINE
8
BLACK
6
CONTINUOUS
10
3.26537
20
-3.42614
11
3.26537
21
-3.28252
0
LINE
8
BLACK
6
CONTINUOUS
10
3.26537
20
-3.28252
11
3.39467
21
-3.28252
0
LINE
8
BLACK
6
CONTINUOUS
10
3.39467
20
-3.28252
11
3.39467
21
-3.42614
0
LINE
8
BLACK
6
CONTINUOUS
10
3.04965
20
-3.41311
11
3.02161
21
-3.41311
0
LINE
8
BLACK
6
CONTINUOUS
10
3.02161
20
-3.41311
11
3.02161
21
-3.39988
0
LINE
8
BLACK
6
CONTINUOUS
10
3.02161
20
-3.39988
11
3.04965
21
-3.39988
0
LINE
8
BLACK
6
CONTINUOUS
10
3.04965
20
-3.39988
11
3.04965
21
-3.41311
0
LINE
8
BLACK
6
CONTINUOUS
10
2.8839
20
-3.41311
11
2.85587
21
-3.41311
0
LINE
8
BLACK
6
CONTINUOUS
10
2.85587
20
-3.41311
11
2.85587
21
-3.39988
0
LINE
8
BLACK
6
CONTINUOUS
10
2.85587
20
-3.39988
11
2.8839
21
-3.39988
0
LINE
8
BLACK
6
CONTINUOUS
10
2.8839
20
-3.39988
11
2.8839
21
-3.41311
0
LINE
8
BLACK
6
CONTINUOUS
10
4.91339
20
-3.39764
11
4.84646
21
-3.39764
0
LINE
8
BLACK
6
CONTINUOUS
10
4.84646
20
-3.39764
11
4.84646
21
-3.3622
0
LINE
8
BLACK
6
CONTINUOUS
10
4.84646
20
-3.3622
11
4.91339
21
-3.3622
0
LINE
8
BLACK
6
CONTINUOUS
10
4.91339
20
-3.3622
11
4.91339
21
-3.39764
0
LINE
8
BLACK
6
CONTINUOUS
10
4.71748
20
-3.39606
11
4.68409
21
-3.39606
0
LINE
8
BLACK
6
CONTINUOUS
10
4.68409
20
-3.39606
11
4.68409
21
-3.37559
0
LINE
8
BLACK
6
CONTINUOUS
10
4.68409
20
-3.37559
11
4.71748
21
-3.37559
0
LINE
8
BLACK
6
CONTINUOUS
10
4.71748
20
-3.37559
11
4.71748
21
-3.39606
0
LINE
8
BLACK
6
CONTINUOUS
10
4.63087
20
-3.39606
11
4.59748
21
-3.39606
0
LINE
8
BLACK
6
CONTINUOUS
10
4.59748
20
-3.39606
11
4.59748
21
-3.37559
0
LINE
8
BLACK
6
CONTINUOUS
10
4.59748
20
-3.37559
11
4.63087
21
-3.37559
0
LINE
8
BLACK
6
CONTINUOUS
10
4.63087
20
-3.37559
11
4.63087
21
-3.39606
0
LINE
8
BLACK
6
CONTINUOUS
10
4.58661
20
-3.39567
11
4.51969
21
-3.39567
0
LINE
8
BLACK
6
CONTINUOUS
10
4.51969
20
-3.39567
11
4.51969
21
-3.36024
0
LINE
8
BLACK
6
CONTINUOUS
10
4.51969
20
-3.36024
11
4.58661
21
-3.36024
0
LINE
8
BLACK
6
CONTINUOUS
10
4.58661
20
-3.36024
11
4.58661
21
-3.39567
0
LINE
8
BLACK
6
CONTINUOUS
10
3.48425
20
-3.39114
11
3.45276
21
-3.39114
0
LINE
8
BLACK
6
CONTINUOUS
10
3.45276
20
-3.39114
11
3.45276
21
-3.36752
0
LINE
8
BLACK
6
CONTINUOUS
10
3.45276
20
-3.36752
11
3.48425
21
-3.36752
0
LINE
8
BLACK
6
CONTINUOUS
10
3.48425
20
-3.36752
11
3.48425
21
-3.39114
0
LINE
8
BLACK
6
CONTINUOUS
10
4.82874
20
-3.3878
11
4.7815
21
-3.3878
0
LINE
8
BLACK
6
CONTINUOUS
10
4.7815
20
-3.3878
11
4.7815
21
-3.35236
0
LINE
8
BLACK
6
CONTINUOUS
10
4.7815
20
-3.35236
11
4.82874
21
-3.35236
0
LINE
8
BLACK
6
CONTINUOUS
10
4.82874
20
-3.35236
11
4.82874
21
-3.3878
0
LINE
8
BLACK
6
CONTINUOUS
10
4.76575
20
-3.3878
11
4.73031
21
-3.3878
0
LINE
8
BLACK
6
CONTINUOUS
10
4.73031
20
-3.3878
11
4.73031
21
-3.36811
0
LINE
8
BLACK
6
CONTINUOUS
10
4.73031
20
-3.36811
11
4.76575
21
-3.36811
0
LINE
8
BLACK
6
CONTINUOUS
10
4.76575
20
-3.36811
11
4.76575
21
-3.3878
0
LINE
8
BLACK
6
CONTINUOUS
10
2.8839
20
-3.38752
11
2.85587
21
-3.38752
0
LINE
8
BLACK
6
CONTINUOUS
10
2.85587
20
-3.38752
11
2.85587
21
-3.37429
0
LINE
8
BLACK
6
CONTINUOUS
10
2.85587
20
-3.37429
11
2.8839
21
-3.37429
0
LINE
8
BLACK
6
CONTINUOUS
10
2.8839
20
-3.37429
11
2.8839
21
-3.38752
0
LINE
8
BLACK
6
CONTINUOUS
10
3.04965
20
-3.38752
11
3.02161
21
-3.38752
0
LINE
8
BLACK
6
CONTINUOUS
10
3.02161
20
-3.38752
11
3.02161
21
-3.37429
0
LINE
8
BLACK
6
CONTINUOUS
10
3.02161
20
-3.37429
11
3.04965
21
-3.37429
0
LINE
8
BLACK
6
CONTINUOUS
10
3.04965
20
-3.37429
11
3.04965
21
-3.38752
0
LINE
8
BLACK
6
CONTINUOUS
10
3.76575
20
-3.38583
11
3.73031
21
-3.38583
0
LINE
8
BLACK
6
CONTINUOUS
10
3.73031
20
-3.38583
11
3.73031
21
-3.3189
0
LINE
8
BLACK
6
CONTINUOUS
10
3.73031
20
-3.3189
11
3.76575
21
-3.3189
0
LINE
8
BLACK
6
CONTINUOUS
10
3.76575
20
-3.3189
11
3.76575
21
-3.38583
0
LINE
8
BLACK
6
CONTINUOUS
10
3.72047
20
-3.38583
11
3.68504
21
-3.38583
0
LINE
8
BLACK
6
CONTINUOUS
10
3.68504
20
-3.38583
11
3.68504
21
-3.3189
0
LINE
8
BLACK
6
CONTINUOUS
10
3.68504
20
-3.3189
11
3.72047
21
-3.3189
0
LINE
8
BLACK
6
CONTINUOUS
10
3.72047
20
-3.3189
11
3.72047
21
-3.38583
0
LINE
8
BLACK
6
CONTINUOUS
10
3.87992
20
-3.38583
11
3.84449
21
-3.38583
0
LINE
8
BLACK
6
CONTINUOUS
10
3.84449
20
-3.38583
11
3.84449
21
-3.3189
0
LINE
8
BLACK
6
CONTINUOUS
10
3.84449
20
-3.3189
11
3.87992
21
-3.3189
0
LINE
8
BLACK
6
CONTINUOUS
10
3.87992
20
-3.3189
11
3.87992
21
-3.38583
0
LINE
8
BLACK
6
CONTINUOUS
10
3.9252
20
-3.38583
11
3.88976
21
-3.38583
0
LINE
8
BLACK
6
CONTINUOUS
10
3.88976
20
-3.38583
11
3.88976
21
-3.3189
0
LINE
8
BLACK
6
CONTINUOUS
10
3.88976
20
-3.3189
11
3.9252
21
-3.3189
0
LINE
8
BLACK
6
CONTINUOUS
10
3.9252
20
-3.3189
11
3.9252
21
-3.38583
0
LINE
8
BLACK
6
CONTINUOUS
10
4.03937
20
-3.38583
11
4.00394
21
-3.38583
0
LINE
8
BLACK
6
CONTINUOUS
10
4.00394
20
-3.38583
11
4.00394
21
-3.3189
0
LINE
8
BLACK
6
CONTINUOUS
10
4.00394
20
-3.3189
11
4.03937
21
-3.3189
0
LINE
8
BLACK
6
CONTINUOUS
10
4.03937
20
-3.3189
11
4.03937
21
-3.38583
0
LINE
8
BLACK
6
CONTINUOUS
10
4.08465
20
-3.38583
11
4.04921
21
-3.38583
0
LINE
8
BLACK
6
CONTINUOUS
10
4.04921
20
-3.38583
11
4.04921
21
-3.3189
0
LINE
8
BLACK
6
CONTINUOUS
10
4.04921
20
-3.3189
11
4.08465
21
-3.3189
0
LINE
8
BLACK
6
CONTINUOUS
10
4.08465
20
-3.3189
11
4.08465
21
-3.38583
0
LINE
8
BLACK
6
CONTINUOUS
10
4.19882
20
-3.38583
11
4.16339
21
-3.38583
0
LINE
8
BLACK
6
CONTINUOUS
10
4.16339
20
-3.38583
11
4.16339
21
-3.3189
0
LINE
8
BLACK
6
CONTINUOUS
10
4.16339
20
-3.3189
11
4.19882
21
-3.3189
0
LINE
8
BLACK
6
CONTINUOUS
10
4.19882
20
-3.3189
11
4.19882
21
-3.38583
0
LINE
8
BLACK
6
CONTINUOUS
10
3.6063
20
-3.38583
11
3.57087
21
-3.38583
0
LINE
8
BLACK
6
CONTINUOUS
10
3.57087
20
-3.38583
11
3.57087
21
-3.3189
0
LINE
8
BLACK
6
CONTINUOUS
10
3.57087
20
-3.3189
11
3.6063
21
-3.3189
0
LINE
8
BLACK
6
CONTINUOUS
10
3.6063
20
-3.3189
11
3.6063
21
-3.38583
0
LINE
8
BLACK
6
CONTINUOUS
10
4.35827
20
-3.38583
11
4.32283
21
-3.38583
0
LINE
8
BLACK
6
CONTINUOUS
10
4.32283
20
-3.38583
11
4.32283
21
-3.3189
0
LINE
8
BLACK
6
CONTINUOUS
10
4.32283
20
-3.3189
11
4.35827
21
-3.3189
0
LINE
8
BLACK
6
CONTINUOUS
10
4.35827
20
-3.3189
11
4.35827
21
-3.38583
0
LINE
8
BLACK
6
CONTINUOUS
10
4.24409
20
-3.38583
11
4.20866
21
-3.38583
0
LINE
8
BLACK
6
CONTINUOUS
10
4.20866
20
-3.38583
11
4.20866
21
-3.3189
0
LINE
8
BLACK
6
CONTINUOUS
10
4.20866
20
-3.3189
11
4.24409
21
-3.3189
0
LINE
8
BLACK
6
CONTINUOUS
10
4.24409
20
-3.3189
11
4.24409
21
-3.38583
0
LINE
8
BLACK
6
CONTINUOUS
10
3.10827
20
-3.38189
11
3.07283
21
-3.38189
0
LINE
8
BLACK
6
CONTINUOUS
10
3.07283
20
-3.38189
11
3.07283
21
-3.3622
0
LINE
8
BLACK
6
CONTINUOUS
10
3.07283
20
-3.3622
11
3.10827
21
-3.3622
0
LINE
8
BLACK
6
CONTINUOUS
10
3.10827
20
-3.3622
11
3.10827
21
-3.38189
0
LINE
8
BLACK
6
CONTINUOUS
10
2.8839
20
-3.36193
11
2.85587
21
-3.36193
0
LINE
8
BLACK
6
CONTINUOUS
10
2.85587
20
-3.36193
11
2.85587
21
-3.3487
0
LINE
8
BLACK
6
CONTINUOUS
10
2.85587
20
-3.3487
11
2.8839
21
-3.3487
0
LINE
8
BLACK
6
CONTINUOUS
10
2.8839
20
-3.3487
11
2.8839
21
-3.36193
0
LINE
8
BLACK
6
CONTINUOUS
10
3.04965
20
-3.36193
11
3.02161
21
-3.36193
0
LINE
8
BLACK
6
CONTINUOUS
10
3.02161
20
-3.36193
11
3.02161
21
-3.3487
0
LINE
8
BLACK
6
CONTINUOUS
10
3.02161
20
-3.3487
11
3.04965
21
-3.3487
0
LINE
8
BLACK
6
CONTINUOUS
10
3.04965
20
-3.3487
11
3.04965
21
-3.36193
0
LINE
8
BLACK
6
CONTINUOUS
10
4.63087
20
-3.35866
11
4.59748
21
-3.35866
0
LINE
8
BLACK
6
CONTINUOUS
10
4.59748
20
-3.35866
11
4.59748
21
-3.33819
0
LINE
8
BLACK
6
CONTINUOUS
10
4.59748
20
-3.33819
11
4.63087
21
-3.33819
0
LINE
8
BLACK
6
CONTINUOUS
10
4.63087
20
-3.33819
11
4.63087
21
-3.35866
0
LINE
8
BLACK
6
CONTINUOUS
10
4.71748
20
-3.35866
11
4.68409
21
-3.35866
0
LINE
8
BLACK
6
CONTINUOUS
10
4.68409
20
-3.35866
11
4.68409
21
-3.33819
0
LINE
8
BLACK
6
CONTINUOUS
10
4.68409
20
-3.33819
11
4.71748
21
-3.33819
0
LINE
8
BLACK
6
CONTINUOUS
10
4.71748
20
-3.33819
11
4.71748
21
-3.35866
0
LINE
8
BLACK
6
CONTINUOUS
10
3.10827
20
-3.35236
11
3.07283
21
-3.35236
0
LINE
8
BLACK
6
CONTINUOUS
10
3.07283
20
-3.35236
11
3.07283
21
-3.33268
0
LINE
8
BLACK
6
CONTINUOUS
10
3.07283
20
-3.33268
11
3.10827
21
-3.33268
0
LINE
8
BLACK
6
CONTINUOUS
10
3.10827
20
-3.33268
11
3.10827
21
-3.35236
0
LINE
8
BLACK
6
CONTINUOUS
10
4.97835
20
-3.34449
11
4.94291
21
-3.34449
0
LINE
8
BLACK
6
CONTINUOUS
10
4.94291
20
-3.34449
11
4.94291
21
-3.3248
0
LINE
8
BLACK
6
CONTINUOUS
10
4.94291
20
-3.3248
11
4.97835
21
-3.3248
0
LINE
8
BLACK
6
CONTINUOUS
10
4.97835
20
-3.3248
11
4.97835
21
-3.34449
0
LINE
8
BLACK
6
CONTINUOUS
10
5.10039
20
-3.34449
11
5.06496
21
-3.34449
0
LINE
8
BLACK
6
CONTINUOUS
10
5.06496
20
-3.34449
11
5.06496
21
-3.3248
0
LINE
8
BLACK
6
CONTINUOUS
10
5.06496
20
-3.3248
11
5.10039
21
-3.3248
0
LINE
8
BLACK
6
CONTINUOUS
10
5.10039
20
-3.3248
11
5.10039
21
-3.34449
0
LINE
8
BLACK
6
CONTINUOUS
10
5.03937
20
-3.34449
11
5.00394
21
-3.34449
0
LINE
8
BLACK
6
CONTINUOUS
10
5.00394
20
-3.34449
11
5.00394
21
-3.3248
0
LINE
8
BLACK
6
CONTINUOUS
10
5.00394
20
-3.3248
11
5.03937
21
-3.3248
0
LINE
8
BLACK
6
CONTINUOUS
10
5.03937
20
-3.3248
11
5.03937
21
-3.34449
0
LINE
8
BLACK
6
CONTINUOUS
10
3.48425
20
-3.34114
11
3.45276
21
-3.34114
0
LINE
8
BLACK
6
CONTINUOUS
10
3.45276
20
-3.34114
11
3.45276
21
-3.31752
0
LINE
8
BLACK
6
CONTINUOUS
10
3.45276
20
-3.31752
11
3.48425
21
-3.31752
0
LINE
8
BLACK
6
CONTINUOUS
10
3.48425
20
-3.31752
11
3.48425
21
-3.34114
0
LINE
8
BLACK
6
CONTINUOUS
10
4.75984
20
-3.33583
11
4.74016
21
-3.33583
0
LINE
8
BLACK
6
CONTINUOUS
10
4.74016
20
-3.33583
11
4.74016
21
-3.30039
0
LINE
8
BLACK
6
CONTINUOUS
10
4.74016
20
-3.30039
11
4.75984
21
-3.30039
0
LINE
8
BLACK
6
CONTINUOUS
10
4.75984
20
-3.30039
11
4.75984
21
-3.33583
0
LINE
8
BLACK
6
CONTINUOUS
10
4.8189
20
-3.33583
11
4.79921
21
-3.33583
0
LINE
8
BLACK
6
CONTINUOUS
10
4.79921
20
-3.33583
11
4.79921
21
-3.30039
0
LINE
8
BLACK
6
CONTINUOUS
10
4.79921
20
-3.30039
11
4.8189
21
-3.30039
0
LINE
8
BLACK
6
CONTINUOUS
10
4.8189
20
-3.30039
11
4.8189
21
-3.33583
0
LINE
8
BLACK
6
CONTINUOUS
10
4.91535
20
-3.33504
11
4.89567
21
-3.33504
0
LINE
8
BLACK
6
CONTINUOUS
10
4.89567
20
-3.33504
11
4.89567
21
-3.29961
0
LINE
8
BLACK
6
CONTINUOUS
10
4.89567
20
-3.29961
11
4.91535
21
-3.29961
0
LINE
8
BLACK
6
CONTINUOUS
10
4.91535
20
-3.29961
11
4.91535
21
-3.33504
0
LINE
8
BLACK
6
CONTINUOUS
10
4.8563
20
-3.33504
11
4.83661
21
-3.33504
0
LINE
8
BLACK
6
CONTINUOUS
10
4.83661
20
-3.33504
11
4.83661
21
-3.29961
0
LINE
8
BLACK
6
CONTINUOUS
10
4.83661
20
-3.29961
11
4.8563
21
-3.29961
0
LINE
8
BLACK
6
CONTINUOUS
10
4.8563
20
-3.29961
11
4.8563
21
-3.33504
0
LINE
8
BLACK
6
CONTINUOUS
10
4.71748
20
-3.32126
11
4.68409
21
-3.32126
0
LINE
8
BLACK
6
CONTINUOUS
10
4.68409
20
-3.32126
11
4.68409
21
-3.30079
0
LINE
8
BLACK
6
CONTINUOUS
10
4.68409
20
-3.30079
11
4.71748
21
-3.30079
0
LINE
8
BLACK
6
CONTINUOUS
10
4.71748
20
-3.30079
11
4.71748
21
-3.32126
0
LINE
8
BLACK
6
CONTINUOUS
10
4.63087
20
-3.32126
11
4.59748
21
-3.32126
0
LINE
8
BLACK
6
CONTINUOUS
10
4.59748
20
-3.32126
11
4.59748
21
-3.30079
0
LINE
8
BLACK
6
CONTINUOUS
10
4.59748
20
-3.30079
11
4.63087
21
-3.30079
0
LINE
8
BLACK
6
CONTINUOUS
10
4.63087
20
-3.30079
11
4.63087
21
-3.32126
0
LINE
8
BLACK
6
CONTINUOUS
10
2.93898
20
-3.3061
11
2.90748
21
-3.3061
0
LINE
8
BLACK
6
CONTINUOUS
10
2.90748
20
-3.3061
11
2.90748
21
-3.27657
0
LINE
8
BLACK
6
CONTINUOUS
10
2.90748
20
-3.27657
11
2.93898
21
-3.27657
0
LINE
8
BLACK
6
CONTINUOUS
10
2.93898
20
-3.27657
11
2.93898
21
-3.3061
0
LINE
8
BLACK
6
CONTINUOUS
10
2.99803
20
-3.3061
11
2.96654
21
-3.3061
0
LINE
8
BLACK
6
CONTINUOUS
10
2.96654
20
-3.3061
11
2.96654
21
-3.27657
0
LINE
8
BLACK
6
CONTINUOUS
10
2.96654
20
-3.27657
11
2.99803
21
-3.27657
0
LINE
8
BLACK
6
CONTINUOUS
10
2.99803
20
-3.27657
11
2.99803
21
-3.3061
0
LINE
8
BLACK
6
CONTINUOUS
10
3.10827
20
-3.29331
11
3.07283
21
-3.29331
0
LINE
8
BLACK
6
CONTINUOUS
10
3.07283
20
-3.29331
11
3.07283
21
-3.27362
0
LINE
8
BLACK
6
CONTINUOUS
10
3.07283
20
-3.27362
11
3.10827
21
-3.27362
0
LINE
8
BLACK
6
CONTINUOUS
10
3.10827
20
-3.27362
11
3.10827
21
-3.29331
0
LINE
8
BLACK
6
CONTINUOUS
10
3.48425
20
-3.29114
11
3.45276
21
-3.29114
0
LINE
8
BLACK
6
CONTINUOUS
10
3.45276
20
-3.29114
11
3.45276
21
-3.26752
0
LINE
8
BLACK
6
CONTINUOUS
10
3.45276
20
-3.26752
11
3.48425
21
-3.26752
0
LINE
8
BLACK
6
CONTINUOUS
10
3.48425
20
-3.26752
11
3.48425
21
-3.29114
0
LINE
8
BLACK
6
CONTINUOUS
10
3.24754
20
-3.29114
11
3.23415
21
-3.29114
0
LINE
8
BLACK
6
CONTINUOUS
10
3.23415
20
-3.29114
11
3.23415
21
-3.26752
0
LINE
8
BLACK
6
CONTINUOUS
10
3.23415
20
-3.26752
11
3.24754
21
-3.26752
0
LINE
8
BLACK
6
CONTINUOUS
10
3.24754
20
-3.26752
11
3.24754
21
-3.29114
0
LINE
8
BLACK
6
CONTINUOUS
10
4.97835
20
-3.28543
11
4.94291
21
-3.28543
0
LINE
8
BLACK
6
CONTINUOUS
10
4.94291
20
-3.28543
11
4.94291
21
-3.26575
0
LINE
8
BLACK
6
CONTINUOUS
10
4.94291
20
-3.26575
11
4.97835
21
-3.26575
0
LINE
8
BLACK
6
CONTINUOUS
10
4.97835
20
-3.26575
11
4.97835
21
-3.28543
0
LINE
8
BLACK
6
CONTINUOUS
10
5.03937
20
-3.28543
11
5.00394
21
-3.28543
0
LINE
8
BLACK
6
CONTINUOUS
10
5.00394
20
-3.28543
11
5.00394
21
-3.26575
0
LINE
8
BLACK
6
CONTINUOUS
10
5.00394
20
-3.26575
11
5.03937
21
-3.26575
0
LINE
8
BLACK
6
CONTINUOUS
10
5.03937
20
-3.26575
11
5.03937
21
-3.28543
0
LINE
8
BLACK
6
CONTINUOUS
10
5.10039
20
-3.28543
11
5.06496
21
-3.28543
0
LINE
8
BLACK
6
CONTINUOUS
10
5.06496
20
-3.28543
11
5.06496
21
-3.26575
0
LINE
8
BLACK
6
CONTINUOUS
10
5.06496
20
-3.26575
11
5.10039
21
-3.26575
0
LINE
8
BLACK
6
CONTINUOUS
10
5.10039
20
-3.26575
11
5.10039
21
-3.28543
0
LINE
8
BLACK
6
CONTINUOUS
10
4.58661
20
-3.2815
11
4.51969
21
-3.2815
0
LINE
8
BLACK
6
CONTINUOUS
10
4.51969
20
-3.2815
11
4.51969
21
-3.24606
0
LINE
8
BLACK
6
CONTINUOUS
10
4.51969
20
-3.24606
11
4.58661
21
-3.24606
0
LINE
8
BLACK
6
CONTINUOUS
10
4.58661
20
-3.24606
11
4.58661
21
-3.2815
0
LINE
8
BLACK
6
CONTINUOUS
10
3.39053
20
-3.26262
11
3.36203
21
-3.26262
0
LINE
8
BLACK
6
CONTINUOUS
10
3.36203
20
-3.26262
11
3.36203
21
-3.24703
0
LINE
8
BLACK
6
CONTINUOUS
10
3.36203
20
-3.24703
11
3.39053
21
-3.24703
0
LINE
8
BLACK
6
CONTINUOUS
10
3.39053
20
-3.24703
11
3.39053
21
-3.26262
  0
ENDSEC
  0
EOF
