  0
SECTION
  2
HEADER
  9
$ANGBASE
  50
0.0
  9
$ANGDIR
  70
1
  9
$MEASUREMENT
  70
0
  0
ENDSEC
  0
SECTION
  2
TABLES
  0
TABLE
  2
LTYPE
  70
4
  0
LTYPE
  5
40F
  2
CONTINUOUS
  70
0
  3
Solid line
  72
65
  73
0
  40
0.0
  0
LTYPE
  5
410
  2
DASHDOT
 70
0
  3
Dash Dot ____ _ ____ _
 72
65
 73
4
 40
2.0
 49
1.25
 49
-0.25
 49
0.25
 49
-0.25
  0
LTYPE
  5
411
  2
DASHED
 70
0
  3
Dashed __ __ __ __ __
 72
65
 73
2
 40
0.75
 49
0.5
 49
-0.25
  0
LTYPE
  5
43B
  2
DOTTED
 70
0
  3
Dotted .  .  .  .
 72
65
 73
2
 40
0.2
 49
0.0
 49
-0.2
  0
ENDTAB
  0
TABLE
  2
STYLE
  70
4
  0
STYLE
  2
KICAD
  70
0
  40
0
  41
1
  42
1
  50
0
  71
0
  3
isocp.shx
  0
STYLE
  2
KICADB
  70
0
  40
0
  41
1
  42
1
  50
0
  71
0
  3
isocp.shx
  0
STYLE
  2
KICADI
  70
0
  40
0
  41
1
  42
1
  50
15
  71
0
  3
isocp.shx
  0
STYLE
  2
KICADBI
  70
0
  40
0
  41
1
  42
1
  50
15
  71
0
  3
isocp.shx
  0
ENDTAB
  0
TABLE
  2
LAYER
  70
1
  0
LAYER
  2
BLACK
  70
0
  62
7
  6
CONTINUOUS
  0
ENDTAB
  0
ENDSEC
  0
SECTION
  2
ENTITIES
0
LINE
8
BLACK
6
CONTINUOUS
10
3.35451
20
-3.91833
11
3.326
21
-3.91833
0
LINE
8
BLACK
6
CONTINUOUS
10
3.326
20
-3.91833
11
3.326
21
-3.90274
0
LINE
8
BLACK
6
CONTINUOUS
10
3.326
20
-3.90274
11
3.35451
21
-3.90274
0
LINE
8
BLACK
6
CONTINUOUS
10
3.35451
20
-3.90274
11
3.35451
21
-3.91833
0
LINE
8
BLACK
6
CONTINUOUS
10
3.26378
20
-3.89783
11
3.23228
21
-3.89783
0
LINE
8
BLACK
6
CONTINUOUS
10
3.23228
20
-3.89783
11
3.23228
21
-3.87421
0
LINE
8
BLACK
6
CONTINUOUS
10
3.23228
20
-3.87421
11
3.26378
21
-3.87421
0
LINE
8
BLACK
6
CONTINUOUS
10
3.26378
20
-3.87421
11
3.26378
21
-3.89783
0
LINE
8
BLACK
6
CONTINUOUS
10
3.48238
20
-3.89783
11
3.469
21
-3.89783
0
LINE
8
BLACK
6
CONTINUOUS
10
3.469
20
-3.89783
11
3.469
21
-3.87421
0
LINE
8
BLACK
6
CONTINUOUS
10
3.469
20
-3.87421
11
3.48238
21
-3.87421
0
LINE
8
BLACK
6
CONTINUOUS
10
3.48238
20
-3.87421
11
3.48238
21
-3.89783
0
LINE
8
BLACK
6
CONTINUOUS
10
4.73031
20
-3.89272
11
4.69882
21
-3.89272
0
LINE
8
BLACK
6
CONTINUOUS
10
4.69882
20
-3.89272
11
4.69882
21
-3.86319
0
LINE
8
BLACK
6
CONTINUOUS
10
4.69882
20
-3.86319
11
4.73031
21
-3.86319
0
LINE
8
BLACK
6
CONTINUOUS
10
4.73031
20
-3.86319
11
4.73031
21
-3.89272
0
LINE
8
BLACK
6
CONTINUOUS
10
4.67126
20
-3.89272
11
4.63976
21
-3.89272
0
LINE
8
BLACK
6
CONTINUOUS
10
4.63976
20
-3.89272
11
4.63976
21
-3.86319
0
LINE
8
BLACK
6
CONTINUOUS
10
4.63976
20
-3.86319
11
4.67126
21
-3.86319
0
LINE
8
BLACK
6
CONTINUOUS
10
4.67126
20
-3.86319
11
4.67126
21
-3.89272
0
LINE
8
BLACK
6
CONTINUOUS
10
4.88189
20
-3.89272
11
4.85039
21
-3.89272
0
LINE
8
BLACK
6
CONTINUOUS
10
4.85039
20
-3.89272
11
4.85039
21
-3.86319
0
LINE
8
BLACK
6
CONTINUOUS
10
4.85039
20
-3.86319
11
4.88189
21
-3.86319
0
LINE
8
BLACK
6
CONTINUOUS
10
4.88189
20
-3.86319
11
4.88189
21
-3.89272
0
LINE
8
BLACK
6
CONTINUOUS
10
4.82283
20
-3.89272
11
4.79134
21
-3.89272
0
LINE
8
BLACK
6
CONTINUOUS
10
4.79134
20
-3.89272
11
4.79134
21
-3.86319
0
LINE
8
BLACK
6
CONTINUOUS
10
4.79134
20
-3.86319
11
4.82283
21
-3.86319
0
LINE
8
BLACK
6
CONTINUOUS
10
4.82283
20
-3.86319
11
4.82283
21
-3.89272
0
LINE
8
BLACK
6
CONTINUOUS
10
4.62402
20
-3.89272
11
4.59252
21
-3.89272
0
LINE
8
BLACK
6
CONTINUOUS
10
4.59252
20
-3.89272
11
4.59252
21
-3.86319
0
LINE
8
BLACK
6
CONTINUOUS
10
4.59252
20
-3.86319
11
4.62402
21
-3.86319
0
LINE
8
BLACK
6
CONTINUOUS
10
4.62402
20
-3.86319
11
4.62402
21
-3.89272
0
LINE
8
BLACK
6
CONTINUOUS
10
4.56496
20
-3.89272
11
4.53346
21
-3.89272
0
LINE
8
BLACK
6
CONTINUOUS
10
4.53346
20
-3.89272
11
4.53346
21
-3.86319
0
LINE
8
BLACK
6
CONTINUOUS
10
4.53346
20
-3.86319
11
4.56496
21
-3.86319
0
LINE
8
BLACK
6
CONTINUOUS
10
4.56496
20
-3.86319
11
4.56496
21
-3.89272
0
LINE
8
BLACK
6
CONTINUOUS
10
5.07677
20
-3.88847
11
5.04134
21
-3.88847
0
LINE
8
BLACK
6
CONTINUOUS
10
5.04134
20
-3.88847
11
5.04134
21
-3.85698
0
LINE
8
BLACK
6
CONTINUOUS
10
5.04134
20
-3.85698
11
5.07677
21
-3.85698
0
LINE
8
BLACK
6
CONTINUOUS
10
5.07677
20
-3.85698
11
5.07677
21
-3.88847
0
LINE
8
BLACK
6
CONTINUOUS
10
3.45116
20
-3.88283
11
3.32187
21
-3.88283
0
LINE
8
BLACK
6
CONTINUOUS
10
3.32187
20
-3.88283
11
3.32187
21
-3.73921
0
LINE
8
BLACK
6
CONTINUOUS
10
3.32187
20
-3.73921
11
3.45116
21
-3.73921
0
LINE
8
BLACK
6
CONTINUOUS
10
3.45116
20
-3.73921
11
3.45116
21
-3.88283
0
LINE
8
BLACK
6
CONTINUOUS
10
5.02657
20
-3.8806
11
4.99705
21
-3.8806
0
LINE
8
BLACK
6
CONTINUOUS
10
4.99705
20
-3.8806
11
4.99705
21
-3.8491
0
LINE
8
BLACK
6
CONTINUOUS
10
4.99705
20
-3.8491
11
5.02657
21
-3.8491
0
LINE
8
BLACK
6
CONTINUOUS
10
5.02657
20
-3.8491
11
5.02657
21
-3.8806
0
LINE
8
BLACK
6
CONTINUOUS
10
5.1998
20
-3.8806
11
5.17028
21
-3.8806
0
LINE
8
BLACK
6
CONTINUOUS
10
5.17028
20
-3.8806
11
5.17028
21
-3.8491
0
LINE
8
BLACK
6
CONTINUOUS
10
5.17028
20
-3.8491
11
5.1998
21
-3.8491
0
LINE
8
BLACK
6
CONTINUOUS
10
5.1998
20
-3.8491
11
5.1998
21
-3.8806
0
LINE
8
BLACK
6
CONTINUOUS
10
4.95571
20
-3.87992
11
4.92618
21
-3.87992
0
LINE
8
BLACK
6
CONTINUOUS
10
4.92618
20
-3.87992
11
4.92618
21
-3.84843
0
LINE
8
BLACK
6
CONTINUOUS
10
4.92618
20
-3.84843
11
4.95571
21
-3.84843
0
LINE
8
BLACK
6
CONTINUOUS
10
4.95571
20
-3.84843
11
4.95571
21
-3.87992
0
LINE
8
BLACK
6
CONTINUOUS
10
3.09055
20
-3.87795
11
3.01969
21
-3.87795
0
LINE
8
BLACK
6
CONTINUOUS
10
3.01969
20
-3.87795
11
3.01969
21
-3.74409
0
LINE
8
BLACK
6
CONTINUOUS
10
3.01969
20
-3.74409
11
3.09055
21
-3.74409
0
LINE
8
BLACK
6
CONTINUOUS
10
3.09055
20
-3.74409
11
3.09055
21
-3.87795
0
LINE
8
BLACK
6
CONTINUOUS
10
2.88583
20
-3.87795
11
2.81496
21
-3.87795
0
LINE
8
BLACK
6
CONTINUOUS
10
2.81496
20
-3.87795
11
2.81496
21
-3.74409
0
LINE
8
BLACK
6
CONTINUOUS
10
2.81496
20
-3.74409
11
2.88583
21
-3.74409
0
LINE
8
BLACK
6
CONTINUOUS
10
2.88583
20
-3.74409
11
2.88583
21
-3.87795
0
LINE
8
BLACK
6
CONTINUOUS
10
5.15551
20
-3.85107
11
5.12008
21
-3.85107
0
LINE
8
BLACK
6
CONTINUOUS
10
5.12008
20
-3.85107
11
5.12008
21
-3.81958
0
LINE
8
BLACK
6
CONTINUOUS
10
5.12008
20
-3.81958
11
5.15551
21
-3.81958
0
LINE
8
BLACK
6
CONTINUOUS
10
5.15551
20
-3.81958
11
5.15551
21
-3.85107
0
LINE
8
BLACK
6
CONTINUOUS
10
3.26378
20
-3.84783
11
3.23228
21
-3.84783
0
LINE
8
BLACK
6
CONTINUOUS
10
3.23228
20
-3.84783
11
3.23228
21
-3.82421
0
LINE
8
BLACK
6
CONTINUOUS
10
3.23228
20
-3.82421
11
3.26378
21
-3.82421
0
LINE
8
BLACK
6
CONTINUOUS
10
3.26378
20
-3.82421
11
3.26378
21
-3.84783
0
LINE
8
BLACK
6
CONTINUOUS
10
4.24409
20
-3.84646
11
4.20866
21
-3.84646
0
LINE
8
BLACK
6
CONTINUOUS
10
4.20866
20
-3.84646
11
4.20866
21
-3.77953
0
LINE
8
BLACK
6
CONTINUOUS
10
4.20866
20
-3.77953
11
4.24409
21
-3.77953
0
LINE
8
BLACK
6
CONTINUOUS
10
4.24409
20
-3.77953
11
4.24409
21
-3.84646
0
LINE
8
BLACK
6
CONTINUOUS
10
4.35827
20
-3.84646
11
4.32283
21
-3.84646
0
LINE
8
BLACK
6
CONTINUOUS
10
4.32283
20
-3.84646
11
4.32283
21
-3.77953
0
LINE
8
BLACK
6
CONTINUOUS
10
4.32283
20
-3.77953
11
4.35827
21
-3.77953
0
LINE
8
BLACK
6
CONTINUOUS
10
4.35827
20
-3.77953
11
4.35827
21
-3.84646
0
LINE
8
BLACK
6
CONTINUOUS
10
4.19882
20
-3.84646
11
4.16339
21
-3.84646
0
LINE
8
BLACK
6
CONTINUOUS
10
4.16339
20
-3.84646
11
4.16339
21
-3.77953
0
LINE
8
BLACK
6
CONTINUOUS
10
4.16339
20
-3.77953
11
4.19882
21
-3.77953
0
LINE
8
BLACK
6
CONTINUOUS
10
4.19882
20
-3.77953
11
4.19882
21
-3.84646
0
LINE
8
BLACK
6
CONTINUOUS
10
4.08465
20
-3.84646
11
4.04921
21
-3.84646
0
LINE
8
BLACK
6
CONTINUOUS
10
4.04921
20
-3.84646
11
4.04921
21
-3.77953
0
LINE
8
BLACK
6
CONTINUOUS
10
4.04921
20
-3.77953
11
4.08465
21
-3.77953
0
LINE
8
BLACK
6
CONTINUOUS
10
4.08465
20
-3.77953
11
4.08465
21
-3.84646
0
LINE
8
BLACK
6
CONTINUOUS
10
3.9252
20
-3.84646
11
3.88976
21
-3.84646
0
LINE
8
BLACK
6
CONTINUOUS
10
3.88976
20
-3.84646
11
3.88976
21
-3.77953
0
LINE
8
BLACK
6
CONTINUOUS
10
3.88976
20
-3.77953
11
3.9252
21
-3.77953
0
LINE
8
BLACK
6
CONTINUOUS
10
3.9252
20
-3.77953
11
3.9252
21
-3.84646
0
LINE
8
BLACK
6
CONTINUOUS
10
4.03937
20
-3.84646
11
4.00394
21
-3.84646
0
LINE
8
BLACK
6
CONTINUOUS
10
4.00394
20
-3.84646
11
4.00394
21
-3.77953
0
LINE
8
BLACK
6
CONTINUOUS
10
4.00394
20
-3.77953
11
4.03937
21
-3.77953
0
LINE
8
BLACK
6
CONTINUOUS
10
4.03937
20
-3.77953
11
4.03937
21
-3.84646
0
LINE
8
BLACK
6
CONTINUOUS
10
3.86811
20
-3.83465
11
3.83268
21
-3.83465
0
LINE
8
BLACK
6
CONTINUOUS
10
3.83268
20
-3.83465
11
3.83268
21
-3.81496
0
LINE
8
BLACK
6
CONTINUOUS
10
3.83268
20
-3.81496
11
3.86811
21
-3.81496
0
LINE
8
BLACK
6
CONTINUOUS
10
3.86811
20
-3.81496
11
3.86811
21
-3.83465
0
LINE
8
BLACK
6
CONTINUOUS
10
3.60827
20
-3.82972
11
3.57677
21
-3.82972
0
LINE
8
BLACK
6
CONTINUOUS
10
3.57677
20
-3.82972
11
3.57677
21
-3.8002
0
LINE
8
BLACK
6
CONTINUOUS
10
3.57677
20
-3.8002
11
3.60827
21
-3.8002
0
LINE
8
BLACK
6
CONTINUOUS
10
3.60827
20
-3.8002
11
3.60827
21
-3.82972
0
LINE
8
BLACK
6
CONTINUOUS
10
3.54921
20
-3.82972
11
3.51772
21
-3.82972
0
LINE
8
BLACK
6
CONTINUOUS
10
3.51772
20
-3.82972
11
3.51772
21
-3.8002
0
LINE
8
BLACK
6
CONTINUOUS
10
3.51772
20
-3.8002
11
3.54921
21
-3.8002
0
LINE
8
BLACK
6
CONTINUOUS
10
3.54921
20
-3.8002
11
3.54921
21
-3.82972
0
LINE
8
BLACK
6
CONTINUOUS
10
4.81356
20
-3.82853
11
4.80458
21
-3.82853
0
LINE
8
BLACK
6
CONTINUOUS
10
4.80458
20
-3.82853
11
4.80458
21
-3.78962
0
LINE
8
BLACK
6
CONTINUOUS
10
4.80458
20
-3.78962
11
4.81356
21
-3.78962
0
LINE
8
BLACK
6
CONTINUOUS
10
4.81356
20
-3.78962
11
4.81356
21
-3.82853
0
LINE
8
BLACK
6
CONTINUOUS
10
4.87256
20
-3.82853
11
4.86358
21
-3.82853
0
LINE
8
BLACK
6
CONTINUOUS
10
4.86358
20
-3.82853
11
4.86358
21
-3.78962
0
LINE
8
BLACK
6
CONTINUOUS
10
4.86358
20
-3.78962
11
4.87256
21
-3.78962
0
LINE
8
BLACK
6
CONTINUOUS
10
4.87256
20
-3.78962
11
4.87256
21
-3.82853
0
LINE
8
BLACK
6
CONTINUOUS
10
4.63636
20
-3.82853
11
4.62738
21
-3.82853
0
LINE
8
BLACK
6
CONTINUOUS
10
4.62738
20
-3.82853
11
4.62738
21
-3.78962
0
LINE
8
BLACK
6
CONTINUOUS
10
4.62738
20
-3.78962
11
4.63636
21
-3.78962
0
LINE
8
BLACK
6
CONTINUOUS
10
4.63636
20
-3.78962
11
4.63636
21
-3.82853
0
LINE
8
BLACK
6
CONTINUOUS
10
4.85296
20
-3.82853
11
4.84398
21
-3.82853
0
LINE
8
BLACK
6
CONTINUOUS
10
4.84398
20
-3.82853
11
4.84398
21
-3.78962
0
LINE
8
BLACK
6
CONTINUOUS
10
4.84398
20
-3.78962
11
4.85296
21
-3.78962
0
LINE
8
BLACK
6
CONTINUOUS
10
4.85296
20
-3.78962
11
4.85296
21
-3.82853
0
LINE
8
BLACK
6
CONTINUOUS
10
4.83326
20
-3.82853
11
4.82428
21
-3.82853
0
LINE
8
BLACK
6
CONTINUOUS
10
4.82428
20
-3.82853
11
4.82428
21
-3.78962
0
LINE
8
BLACK
6
CONTINUOUS
10
4.82428
20
-3.78962
11
4.83326
21
-3.78962
0
LINE
8
BLACK
6
CONTINUOUS
10
4.83326
20
-3.78962
11
4.83326
21
-3.82853
0
LINE
8
BLACK
6
CONTINUOUS
10
4.79386
20
-3.82853
11
4.78488
21
-3.82853
0
LINE
8
BLACK
6
CONTINUOUS
10
4.78488
20
-3.82853
11
4.78488
21
-3.78962
0
LINE
8
BLACK
6
CONTINUOUS
10
4.78488
20
-3.78962
11
4.79386
21
-3.78962
0
LINE
8
BLACK
6
CONTINUOUS
10
4.79386
20
-3.78962
11
4.79386
21
-3.82853
0
LINE
8
BLACK
6
CONTINUOUS
10
4.77416
20
-3.82853
11
4.76518
21
-3.82853
0
LINE
8
BLACK
6
CONTINUOUS
10
4.76518
20
-3.82853
11
4.76518
21
-3.78962
0
LINE
8
BLACK
6
CONTINUOUS
10
4.76518
20
-3.78962
11
4.77416
21
-3.78962
0
LINE
8
BLACK
6
CONTINUOUS
10
4.77416
20
-3.78962
11
4.77416
21
-3.82853
0
LINE
8
BLACK
6
CONTINUOUS
10
4.75446
20
-3.82853
11
4.74548
21
-3.82853
0
LINE
8
BLACK
6
CONTINUOUS
10
4.74548
20
-3.82853
11
4.74548
21
-3.78962
0
LINE
8
BLACK
6
CONTINUOUS
10
4.74548
20
-3.78962
11
4.75446
21
-3.78962
0
LINE
8
BLACK
6
CONTINUOUS
10
4.75446
20
-3.78962
11
4.75446
21
-3.82853
0
LINE
8
BLACK
6
CONTINUOUS
10
4.73476
20
-3.82853
11
4.72578
21
-3.82853
0
LINE
8
BLACK
6
CONTINUOUS
10
4.72578
20
-3.82853
11
4.72578
21
-3.78962
0
LINE
8
BLACK
6
CONTINUOUS
10
4.72578
20
-3.78962
11
4.73476
21
-3.78962
0
LINE
8
BLACK
6
CONTINUOUS
10
4.73476
20
-3.78962
11
4.73476
21
-3.82853
0
LINE
8
BLACK
6
CONTINUOUS
10
4.71516
20
-3.82853
11
4.70618
21
-3.82853
0
LINE
8
BLACK
6
CONTINUOUS
10
4.70618
20
-3.82853
11
4.70618
21
-3.78962
0
LINE
8
BLACK
6
CONTINUOUS
10
4.70618
20
-3.78962
11
4.71516
21
-3.78962
0
LINE
8
BLACK
6
CONTINUOUS
10
4.71516
20
-3.78962
11
4.71516
21
-3.82853
0
LINE
8
BLACK
6
CONTINUOUS
10
4.69546
20
-3.82853
11
4.68648
21
-3.82853
0
LINE
8
BLACK
6
CONTINUOUS
10
4.68648
20
-3.82853
11
4.68648
21
-3.78962
0
LINE
8
BLACK
6
CONTINUOUS
10
4.68648
20
-3.78962
11
4.69546
21
-3.78962
0
LINE
8
BLACK
6
CONTINUOUS
10
4.69546
20
-3.78962
11
4.69546
21
-3.82853
0
LINE
8
BLACK
6
CONTINUOUS
10
4.67576
20
-3.82853
11
4.66678
21
-3.82853
0
LINE
8
BLACK
6
CONTINUOUS
10
4.66678
20
-3.82853
11
4.66678
21
-3.78962
0
LINE
8
BLACK
6
CONTINUOUS
10
4.66678
20
-3.78962
11
4.67576
21
-3.78962
0
LINE
8
BLACK
6
CONTINUOUS
10
4.67576
20
-3.78962
11
4.67576
21
-3.82853
0
LINE
8
BLACK
6
CONTINUOUS
10
4.65606
20
-3.82853
11
4.64708
21
-3.82853
0
LINE
8
BLACK
6
CONTINUOUS
10
4.64708
20
-3.82853
11
4.64708
21
-3.78962
0
LINE
8
BLACK
6
CONTINUOUS
10
4.64708
20
-3.78962
11
4.65606
21
-3.78962
0
LINE
8
BLACK
6
CONTINUOUS
10
4.65606
20
-3.78962
11
4.65606
21
-3.82853
0
LINE
8
BLACK
6
CONTINUOUS
10
4.57736
20
-3.82853
11
4.56838
21
-3.82853
0
LINE
8
BLACK
6
CONTINUOUS
10
4.56838
20
-3.82853
11
4.56838
21
-3.78962
0
LINE
8
BLACK
6
CONTINUOUS
10
4.56838
20
-3.78962
11
4.57736
21
-3.78962
0
LINE
8
BLACK
6
CONTINUOUS
10
4.57736
20
-3.78962
11
4.57736
21
-3.82853
0
LINE
8
BLACK
6
CONTINUOUS
10
4.59696
20
-3.82853
11
4.58798
21
-3.82853
0
LINE
8
BLACK
6
CONTINUOUS
10
4.58798
20
-3.82853
11
4.58798
21
-3.78962
0
LINE
8
BLACK
6
CONTINUOUS
10
4.58798
20
-3.78962
11
4.59696
21
-3.78962
0
LINE
8
BLACK
6
CONTINUOUS
10
4.59696
20
-3.78962
11
4.59696
21
-3.82853
0
LINE
8
BLACK
6
CONTINUOUS
10
4.61666
20
-3.82853
11
4.60768
21
-3.82853
0
LINE
8
BLACK
6
CONTINUOUS
10
4.60768
20
-3.82853
11
4.60768
21
-3.78962
0
LINE
8
BLACK
6
CONTINUOUS
10
4.60768
20
-3.78962
11
4.61666
21
-3.78962
0
LINE
8
BLACK
6
CONTINUOUS
10
4.61666
20
-3.78962
11
4.61666
21
-3.82853
0
LINE
8
BLACK
6
CONTINUOUS
10
5.1998
20
-3.82154
11
5.17028
21
-3.82154
0
LINE
8
BLACK
6
CONTINUOUS
10
5.17028
20
-3.82154
11
5.17028
21
-3.79005
0
LINE
8
BLACK
6
CONTINUOUS
10
5.17028
20
-3.79005
11
5.1998
21
-3.79005
0
LINE
8
BLACK
6
CONTINUOUS
10
5.1998
20
-3.79005
11
5.1998
21
-3.82154
0
LINE
8
BLACK
6
CONTINUOUS
10
5.02657
20
-3.82154
11
4.99705
21
-3.82154
0
LINE
8
BLACK
6
CONTINUOUS
10
4.99705
20
-3.82154
11
4.99705
21
-3.79005
0
LINE
8
BLACK
6
CONTINUOUS
10
4.99705
20
-3.79005
11
5.02657
21
-3.79005
0
LINE
8
BLACK
6
CONTINUOUS
10
5.02657
20
-3.79005
11
5.02657
21
-3.82154
0
LINE
8
BLACK
6
CONTINUOUS
10
4.95571
20
-3.82087
11
4.92618
21
-3.82087
0
LINE
8
BLACK
6
CONTINUOUS
10
4.92618
20
-3.82087
11
4.92618
21
-3.78937
0
LINE
8
BLACK
6
CONTINUOUS
10
4.92618
20
-3.78937
11
4.95571
21
-3.78937
0
LINE
8
BLACK
6
CONTINUOUS
10
4.95571
20
-3.78937
11
4.95571
21
-3.82087
0
LINE
8
BLACK
6
CONTINUOUS
10
3.80472
20
-3.81772
11
3.78583
21
-3.81772
0
LINE
8
BLACK
6
CONTINUOUS
10
3.78583
20
-3.81772
11
3.78583
21
-3.80827
0
LINE
8
BLACK
6
CONTINUOUS
10
3.78583
20
-3.80827
11
3.80472
21
-3.80827
0
LINE
8
BLACK
6
CONTINUOUS
10
3.80472
20
-3.80827
11
3.80472
21
-3.81772
0
LINE
8
BLACK
6
CONTINUOUS
10
3.65512
20
-3.81772
11
3.63622
21
-3.81772
0
LINE
8
BLACK
6
CONTINUOUS
10
3.63622
20
-3.81772
11
3.63622
21
-3.80827
0
LINE
8
BLACK
6
CONTINUOUS
10
3.63622
20
-3.80827
11
3.65512
21
-3.80827
0
LINE
8
BLACK
6
CONTINUOUS
10
3.65512
20
-3.80827
11
3.65512
21
-3.81772
0
LINE
8
BLACK
6
CONTINUOUS
10
5.07677
20
-3.81367
11
5.04134
21
-3.81367
0
LINE
8
BLACK
6
CONTINUOUS
10
5.04134
20
-3.81367
11
5.04134
21
-3.78217
0
LINE
8
BLACK
6
CONTINUOUS
10
5.04134
20
-3.78217
11
5.07677
21
-3.78217
0
LINE
8
BLACK
6
CONTINUOUS
10
5.07677
20
-3.78217
11
5.07677
21
-3.81367
0
LINE
8
BLACK
6
CONTINUOUS
10
3.26378
20
-3.79783
11
3.23228
21
-3.79783
0
LINE
8
BLACK
6
CONTINUOUS
10
3.23228
20
-3.79783
11
3.23228
21
-3.77421
0
LINE
8
BLACK
6
CONTINUOUS
10
3.23228
20
-3.77421
11
3.26378
21
-3.77421
0
LINE
8
BLACK
6
CONTINUOUS
10
3.26378
20
-3.77421
11
3.26378
21
-3.79783
0
LINE
8
BLACK
6
CONTINUOUS
10
3.76142
20
-3.79724
11
3.67953
21
-3.79724
0
LINE
8
BLACK
6
CONTINUOUS
10
3.67953
20
-3.79724
11
3.67953
21
-3.70276
0
LINE
8
BLACK
6
CONTINUOUS
10
3.67953
20
-3.70276
11
3.76142
21
-3.70276
0
LINE
8
BLACK
6
CONTINUOUS
10
3.76142
20
-3.70276
11
3.76142
21
-3.79724
0
LINE
8
BLACK
6
CONTINUOUS
10
3.65512
20
-3.78622
11
3.63622
21
-3.78622
0
LINE
8
BLACK
6
CONTINUOUS
10
3.63622
20
-3.78622
11
3.63622
21
-3.77677
0
LINE
8
BLACK
6
CONTINUOUS
10
3.63622
20
-3.77677
11
3.65512
21
-3.77677
0
LINE
8
BLACK
6
CONTINUOUS
10
3.65512
20
-3.77677
11
3.65512
21
-3.78622
0
LINE
8
BLACK
6
CONTINUOUS
10
3.80472
20
-3.78622
11
3.78583
21
-3.78622
0
LINE
8
BLACK
6
CONTINUOUS
10
3.78583
20
-3.78622
11
3.78583
21
-3.77677
0
LINE
8
BLACK
6
CONTINUOUS
10
3.78583
20
-3.77677
11
3.80472
21
-3.77677
0
LINE
8
BLACK
6
CONTINUOUS
10
3.80472
20
-3.77677
11
3.80472
21
-3.78622
0
LINE
8
BLACK
6
CONTINUOUS
10
3.54823
20
-3.7815
11
3.5187
21
-3.7815
0
LINE
8
BLACK
6
CONTINUOUS
10
3.5187
20
-3.7815
11
3.5187
21
-3.75
0
LINE
8
BLACK
6
CONTINUOUS
10
3.5187
20
-3.75
11
3.54823
21
-3.75
0
LINE
8
BLACK
6
CONTINUOUS
10
3.54823
20
-3.75
11
3.54823
21
-3.7815
0
LINE
8
BLACK
6
CONTINUOUS
10
3.61024
20
-3.77559
11
3.5748
21
-3.77559
0
LINE
8
BLACK
6
CONTINUOUS
10
3.5748
20
-3.77559
11
3.5748
21
-3.75591
0
LINE
8
BLACK
6
CONTINUOUS
10
3.5748
20
-3.75591
11
3.61024
21
-3.75591
0
LINE
8
BLACK
6
CONTINUOUS
10
3.61024
20
-3.75591
11
3.61024
21
-3.77559
0
LINE
8
BLACK
6
CONTINUOUS
10
3.86811
20
-3.77559
11
3.83268
21
-3.77559
0
LINE
8
BLACK
6
CONTINUOUS
10
3.83268
20
-3.77559
11
3.83268
21
-3.75591
0
LINE
8
BLACK
6
CONTINUOUS
10
3.83268
20
-3.75591
11
3.86811
21
-3.75591
0
LINE
8
BLACK
6
CONTINUOUS
10
3.86811
20
-3.75591
11
3.86811
21
-3.77559
0
LINE
8
BLACK
6
CONTINUOUS
10
4.03937
20
-3.76969
11
4.00394
21
-3.76969
0
LINE
8
BLACK
6
CONTINUOUS
10
4.00394
20
-3.76969
11
4.00394
21
-3.70276
0
LINE
8
BLACK
6
CONTINUOUS
10
4.00394
20
-3.70276
11
4.03937
21
-3.70276
0
LINE
8
BLACK
6
CONTINUOUS
10
4.03937
20
-3.70276
11
4.03937
21
-3.76969
0
LINE
8
BLACK
6
CONTINUOUS
10
4.24409
20
-3.76969
11
4.20866
21
-3.76969
0
LINE
8
BLACK
6
CONTINUOUS
10
4.20866
20
-3.76969
11
4.20866
21
-3.70276
0
LINE
8
BLACK
6
CONTINUOUS
10
4.20866
20
-3.70276
11
4.24409
21
-3.70276
0
LINE
8
BLACK
6
CONTINUOUS
10
4.24409
20
-3.70276
11
4.24409
21
-3.76969
0
LINE
8
BLACK
6
CONTINUOUS
10
4.35827
20
-3.76969
11
4.32283
21
-3.76969
0
LINE
8
BLACK
6
CONTINUOUS
10
4.32283
20
-3.76969
11
4.32283
21
-3.70276
0
LINE
8
BLACK
6
CONTINUOUS
10
4.32283
20
-3.70276
11
4.35827
21
-3.70276
0
LINE
8
BLACK
6
CONTINUOUS
10
4.35827
20
-3.70276
11
4.35827
21
-3.76969
0
LINE
8
BLACK
6
CONTINUOUS
10
3.9252
20
-3.76969
11
3.88976
21
-3.76969
0
LINE
8
BLACK
6
CONTINUOUS
10
3.88976
20
-3.76969
11
3.88976
21
-3.70276
0
LINE
8
BLACK
6
CONTINUOUS
10
3.88976
20
-3.70276
11
3.9252
21
-3.70276
0
LINE
8
BLACK
6
CONTINUOUS
10
3.9252
20
-3.70276
11
3.9252
21
-3.76969
0
LINE
8
BLACK
6
CONTINUOUS
10
4.19882
20
-3.76969
11
4.16339
21
-3.76969
0
LINE
8
BLACK
6
CONTINUOUS
10
4.16339
20
-3.76969
11
4.16339
21
-3.70276
0
LINE
8
BLACK
6
CONTINUOUS
10
4.16339
20
-3.70276
11
4.19882
21
-3.70276
0
LINE
8
BLACK
6
CONTINUOUS
10
4.19882
20
-3.70276
11
4.19882
21
-3.76969
0
LINE
8
BLACK
6
CONTINUOUS
10
4.08465
20
-3.76969
11
4.04921
21
-3.76969
0
LINE
8
BLACK
6
CONTINUOUS
10
4.04921
20
-3.76969
11
4.04921
21
-3.70276
0
LINE
8
BLACK
6
CONTINUOUS
10
4.04921
20
-3.70276
11
4.08465
21
-3.70276
0
LINE
8
BLACK
6
CONTINUOUS
10
4.08465
20
-3.70276
11
4.08465
21
-3.76969
0
LINE
8
BLACK
6
CONTINUOUS
10
5.12008
20
-3.76575
11
5.08465
21
-3.76575
0
LINE
8
BLACK
6
CONTINUOUS
10
5.08465
20
-3.76575
11
5.08465
21
-3.74606
0
LINE
8
BLACK
6
CONTINUOUS
10
5.08465
20
-3.74606
11
5.12008
21
-3.74606
0
LINE
8
BLACK
6
CONTINUOUS
10
5.12008
20
-3.74606
11
5.12008
21
-3.76575
0
LINE
8
BLACK
6
CONTINUOUS
10
3.65512
20
-3.75472
11
3.63622
21
-3.75472
0
LINE
8
BLACK
6
CONTINUOUS
10
3.63622
20
-3.75472
11
3.63622
21
-3.74528
0
LINE
8
BLACK
6
CONTINUOUS
10
3.63622
20
-3.74528
11
3.65512
21
-3.74528
0
LINE
8
BLACK
6
CONTINUOUS
10
3.65512
20
-3.74528
11
3.65512
21
-3.75472
0
LINE
8
BLACK
6
CONTINUOUS
10
3.80472
20
-3.75472
11
3.78583
21
-3.75472
0
LINE
8
BLACK
6
CONTINUOUS
10
3.78583
20
-3.75472
11
3.78583
21
-3.74528
0
LINE
8
BLACK
6
CONTINUOUS
10
3.78583
20
-3.74528
11
3.80472
21
-3.74528
0
LINE
8
BLACK
6
CONTINUOUS
10
3.80472
20
-3.74528
11
3.80472
21
-3.75472
0
LINE
8
BLACK
6
CONTINUOUS
10
3.48238
20
-3.74783
11
3.469
21
-3.74783
0
LINE
8
BLACK
6
CONTINUOUS
10
3.469
20
-3.74783
11
3.469
21
-3.72421
0
LINE
8
BLACK
6
CONTINUOUS
10
3.469
20
-3.72421
11
3.48238
21
-3.72421
0
LINE
8
BLACK
6
CONTINUOUS
10
3.48238
20
-3.72421
11
3.48238
21
-3.74783
0
LINE
8
BLACK
6
CONTINUOUS
10
3.26378
20
-3.74783
11
3.23228
21
-3.74783
0
LINE
8
BLACK
6
CONTINUOUS
10
3.23228
20
-3.74783
11
3.23228
21
-3.72421
0
LINE
8
BLACK
6
CONTINUOUS
10
3.23228
20
-3.72421
11
3.26378
21
-3.72421
0
LINE
8
BLACK
6
CONTINUOUS
10
3.26378
20
-3.72421
11
3.26378
21
-3.74783
0
LINE
8
BLACK
6
CONTINUOUS
10
4.51353
20
-3.73477
11
4.47462
21
-3.73477
0
LINE
8
BLACK
6
CONTINUOUS
10
4.47462
20
-3.73477
11
4.47462
21
-3.72579
0
LINE
8
BLACK
6
CONTINUOUS
10
4.47462
20
-3.72579
11
4.51353
21
-3.72579
0
LINE
8
BLACK
6
CONTINUOUS
10
4.51353
20
-3.72579
11
4.51353
21
-3.73477
0
LINE
8
BLACK
6
CONTINUOUS
10
4.96633
20
-3.73477
11
4.92742
21
-3.73477
0
LINE
8
BLACK
6
CONTINUOUS
10
4.92742
20
-3.73477
11
4.92742
21
-3.72579
0
LINE
8
BLACK
6
CONTINUOUS
10
4.92742
20
-3.72579
11
4.96633
21
-3.72579
0
LINE
8
BLACK
6
CONTINUOUS
10
4.96633
20
-3.72579
11
4.96633
21
-3.73477
0
LINE
8
BLACK
6
CONTINUOUS
10
3.65512
20
-3.72323
11
3.63622
21
-3.72323
0
LINE
8
BLACK
6
CONTINUOUS
10
3.63622
20
-3.72323
11
3.63622
21
-3.71378
0
LINE
8
BLACK
6
CONTINUOUS
10
3.63622
20
-3.71378
11
3.65512
21
-3.71378
0
LINE
8
BLACK
6
CONTINUOUS
10
3.65512
20
-3.71378
11
3.65512
21
-3.72323
0
LINE
8
BLACK
6
CONTINUOUS
10
3.80472
20
-3.72323
11
3.78583
21
-3.72323
0
LINE
8
BLACK
6
CONTINUOUS
10
3.78583
20
-3.72323
11
3.78583
21
-3.71378
0
LINE
8
BLACK
6
CONTINUOUS
10
3.78583
20
-3.71378
11
3.80472
21
-3.71378
0
LINE
8
BLACK
6
CONTINUOUS
10
3.80472
20
-3.71378
11
3.80472
21
-3.72323
0
LINE
8
BLACK
6
CONTINUOUS
10
3.54823
20
-3.72244
11
3.5187
21
-3.72244
0
LINE
8
BLACK
6
CONTINUOUS
10
3.5187
20
-3.72244
11
3.5187
21
-3.69094
0
LINE
8
BLACK
6
CONTINUOUS
10
3.5187
20
-3.69094
11
3.54823
21
-3.69094
0
LINE
8
BLACK
6
CONTINUOUS
10
3.54823
20
-3.69094
11
3.54823
21
-3.72244
0
LINE
8
BLACK
6
CONTINUOUS
10
3.35451
20
-3.71931
11
3.326
21
-3.71931
0
LINE
8
BLACK
6
CONTINUOUS
10
3.326
20
-3.71931
11
3.326
21
-3.70372
0
LINE
8
BLACK
6
CONTINUOUS
10
3.326
20
-3.70372
11
3.35451
21
-3.70372
0
LINE
8
BLACK
6
CONTINUOUS
10
3.35451
20
-3.70372
11
3.35451
21
-3.71931
0
LINE
8
BLACK
6
CONTINUOUS
10
3.61024
20
-3.71654
11
3.5748
21
-3.71654
0
LINE
8
BLACK
6
CONTINUOUS
10
3.5748
20
-3.71654
11
3.5748
21
-3.69685
0
LINE
8
BLACK
6
CONTINUOUS
10
3.5748
20
-3.69685
11
3.61024
21
-3.69685
0
LINE
8
BLACK
6
CONTINUOUS
10
3.61024
20
-3.69685
11
3.61024
21
-3.71654
0
LINE
8
BLACK
6
CONTINUOUS
10
4.51353
20
-3.71517
11
4.47462
21
-3.71517
0
LINE
8
BLACK
6
CONTINUOUS
10
4.47462
20
-3.71517
11
4.47462
21
-3.70619
0
LINE
8
BLACK
6
CONTINUOUS
10
4.47462
20
-3.70619
11
4.51353
21
-3.70619
0
LINE
8
BLACK
6
CONTINUOUS
10
4.51353
20
-3.70619
11
4.51353
21
-3.71517
0
LINE
8
BLACK
6
CONTINUOUS
10
4.96633
20
-3.71517
11
4.92742
21
-3.71517
0
LINE
8
BLACK
6
CONTINUOUS
10
4.92742
20
-3.71517
11
4.92742
21
-3.70619
0
LINE
8
BLACK
6
CONTINUOUS
10
4.92742
20
-3.70619
11
4.96633
21
-3.70619
0
LINE
8
BLACK
6
CONTINUOUS
10
4.96633
20
-3.70619
11
4.96633
21
-3.71517
0
LINE
8
BLACK
6
CONTINUOUS
10
5.12008
20
-3.70669
11
5.08465
21
-3.70669
0
LINE
8
BLACK
6
CONTINUOUS
10
5.08465
20
-3.70669
11
5.08465
21
-3.68701
0
LINE
8
BLACK
6
CONTINUOUS
10
5.08465
20
-3.68701
11
5.12008
21
-3.68701
0
LINE
8
BLACK
6
CONTINUOUS
10
5.12008
20
-3.68701
11
5.12008
21
-3.70669
0
LINE
8
BLACK
6
CONTINUOUS
10
4.96633
20
-3.69547
11
4.92742
21
-3.69547
0
LINE
8
BLACK
6
CONTINUOUS
10
4.92742
20
-3.69547
11
4.92742
21
-3.68649
0
LINE
8
BLACK
6
CONTINUOUS
10
4.92742
20
-3.68649
11
4.96633
21
-3.68649
0
LINE
8
BLACK
6
CONTINUOUS
10
4.96633
20
-3.68649
11
4.96633
21
-3.69547
0
LINE
8
BLACK
6
CONTINUOUS
10
4.51353
20
-3.69547
11
4.47462
21
-3.69547
0
LINE
8
BLACK
6
CONTINUOUS
10
4.47462
20
-3.69547
11
4.47462
21
-3.68649
0
LINE
8
BLACK
6
CONTINUOUS
10
4.47462
20
-3.68649
11
4.51353
21
-3.68649
0
LINE
8
BLACK
6
CONTINUOUS
10
4.51353
20
-3.68649
11
4.51353
21
-3.69547
0
LINE
8
BLACK
6
CONTINUOUS
10
4.08465
20
-3.69291
11
4.04921
21
-3.69291
0
LINE
8
BLACK
6
CONTINUOUS
10
4.04921
20
-3.69291
11
4.04921
21
-3.62598
0
LINE
8
BLACK
6
CONTINUOUS
10
4.04921
20
-3.62598
11
4.08465
21
-3.62598
0
LINE
8
BLACK
6
CONTINUOUS
10
4.08465
20
-3.62598
11
4.08465
21
-3.69291
0
LINE
8
BLACK
6
CONTINUOUS
10
4.03937
20
-3.69291
11
4.00394
21
-3.69291
0
LINE
8
BLACK
6
CONTINUOUS
10
4.00394
20
-3.69291
11
4.00394
21
-3.62598
0
LINE
8
BLACK
6
CONTINUOUS
10
4.00394
20
-3.62598
11
4.03937
21
-3.62598
0
LINE
8
BLACK
6
CONTINUOUS
10
4.03937
20
-3.62598
11
4.03937
21
-3.69291
0
LINE
8
BLACK
6
CONTINUOUS
10
3.9252
20
-3.69291
11
3.88976
21
-3.69291
0
LINE
8
BLACK
6
CONTINUOUS
10
3.88976
20
-3.69291
11
3.88976
21
-3.62598
0
LINE
8
BLACK
6
CONTINUOUS
10
3.88976
20
-3.62598
11
3.9252
21
-3.62598
0
LINE
8
BLACK
6
CONTINUOUS
10
3.9252
20
-3.62598
11
3.9252
21
-3.69291
0
LINE
8
BLACK
6
CONTINUOUS
10
4.19882
20
-3.69291
11
4.16339
21
-3.69291
0
LINE
8
BLACK
6
CONTINUOUS
10
4.16339
20
-3.69291
11
4.16339
21
-3.62598
0
LINE
8
BLACK
6
CONTINUOUS
10
4.16339
20
-3.62598
11
4.19882
21
-3.62598
0
LINE
8
BLACK
6
CONTINUOUS
10
4.19882
20
-3.62598
11
4.19882
21
-3.69291
0
LINE
8
BLACK
6
CONTINUOUS
10
4.35827
20
-3.69291
11
4.32283
21
-3.69291
0
LINE
8
BLACK
6
CONTINUOUS
10
4.32283
20
-3.69291
11
4.32283
21
-3.62598
0
LINE
8
BLACK
6
CONTINUOUS
10
4.32283
20
-3.62598
11
4.35827
21
-3.62598
0
LINE
8
BLACK
6
CONTINUOUS
10
4.35827
20
-3.62598
11
4.35827
21
-3.69291
0
LINE
8
BLACK
6
CONTINUOUS
10
4.24409
20
-3.69291
11
4.20866
21
-3.69291
0
LINE
8
BLACK
6
CONTINUOUS
10
4.20866
20
-3.69291
11
4.20866
21
-3.62598
0
LINE
8
BLACK
6
CONTINUOUS
10
4.20866
20
-3.62598
11
4.24409
21
-3.62598
0
LINE
8
BLACK
6
CONTINUOUS
10
4.24409
20
-3.62598
11
4.24409
21
-3.69291
0
LINE
8
BLACK
6
CONTINUOUS
10
3.65512
20
-3.69173
11
3.63622
21
-3.69173
0
LINE
8
BLACK
6
CONTINUOUS
10
3.63622
20
-3.69173
11
3.63622
21
-3.68228
0
LINE
8
BLACK
6
CONTINUOUS
10
3.63622
20
-3.68228
11
3.65512
21
-3.68228
0
LINE
8
BLACK
6
CONTINUOUS
10
3.65512
20
-3.68228
11
3.65512
21
-3.69173
0
LINE
8
BLACK
6
CONTINUOUS
10
3.80472
20
-3.69173
11
3.78583
21
-3.69173
0
LINE
8
BLACK
6
CONTINUOUS
10
3.78583
20
-3.69173
11
3.78583
21
-3.68228
0
LINE
8
BLACK
6
CONTINUOUS
10
3.78583
20
-3.68228
11
3.80472
21
-3.68228
0
LINE
8
BLACK
6
CONTINUOUS
10
3.80472
20
-3.68228
11
3.80472
21
-3.69173
0
LINE
8
BLACK
6
CONTINUOUS
10
3.35451
20
-3.68998
11
3.326
21
-3.68998
0
LINE
8
BLACK
6
CONTINUOUS
10
3.326
20
-3.68998
11
3.326
21
-3.67439
0
LINE
8
BLACK
6
CONTINUOUS
10
3.326
20
-3.67439
11
3.35451
21
-3.67439
0
LINE
8
BLACK
6
CONTINUOUS
10
3.35451
20
-3.67439
11
3.35451
21
-3.68998
0
LINE
8
BLACK
6
CONTINUOUS
10
4.51353
20
-3.67577
11
4.47462
21
-3.67577
0
LINE
8
BLACK
6
CONTINUOUS
10
4.47462
20
-3.67577
11
4.47462
21
-3.66679
0
LINE
8
BLACK
6
CONTINUOUS
10
4.47462
20
-3.66679
11
4.51353
21
-3.66679
0
LINE
8
BLACK
6
CONTINUOUS
10
4.51353
20
-3.66679
11
4.51353
21
-3.67577
0
LINE
8
BLACK
6
CONTINUOUS
10
4.96633
20
-3.67577
11
4.92742
21
-3.67577
0
LINE
8
BLACK
6
CONTINUOUS
10
4.92742
20
-3.67577
11
4.92742
21
-3.66679
0
LINE
8
BLACK
6
CONTINUOUS
10
4.92742
20
-3.66679
11
4.96633
21
-3.66679
0
LINE
8
BLACK
6
CONTINUOUS
10
4.96633
20
-3.66679
11
4.96633
21
-3.67577
0
LINE
8
BLACK
6
CONTINUOUS
10
3.26378
20
-3.66949
11
3.23228
21
-3.66949
0
LINE
8
BLACK
6
CONTINUOUS
10
3.23228
20
-3.66949
11
3.23228
21
-3.64587
0
LINE
8
BLACK
6
CONTINUOUS
10
3.23228
20
-3.64587
11
3.26378
21
-3.64587
0
LINE
8
BLACK
6
CONTINUOUS
10
3.26378
20
-3.64587
11
3.26378
21
-3.66949
0
LINE
8
BLACK
6
CONTINUOUS
10
3.48238
20
-3.66949
11
3.469
21
-3.66949
0
LINE
8
BLACK
6
CONTINUOUS
10
3.469
20
-3.66949
11
3.469
21
-3.64587
0
LINE
8
BLACK
6
CONTINUOUS
10
3.469
20
-3.64587
11
3.48238
21
-3.64587
0
LINE
8
BLACK
6
CONTINUOUS
10
3.48238
20
-3.64587
11
3.48238
21
-3.66949
0
LINE
8
BLACK
6
CONTINUOUS
10
3.86811
20
-3.65748
11
3.83268
21
-3.65748
0
LINE
8
BLACK
6
CONTINUOUS
10
3.83268
20
-3.65748
11
3.83268
21
-3.6378
0
LINE
8
BLACK
6
CONTINUOUS
10
3.83268
20
-3.6378
11
3.86811
21
-3.6378
0
LINE
8
BLACK
6
CONTINUOUS
10
3.86811
20
-3.6378
11
3.86811
21
-3.65748
0
LINE
8
BLACK
6
CONTINUOUS
10
4.51353
20
-3.65607
11
4.47462
21
-3.65607
0
LINE
8
BLACK
6
CONTINUOUS
10
4.47462
20
-3.65607
11
4.47462
21
-3.64709
0
LINE
8
BLACK
6
CONTINUOUS
10
4.47462
20
-3.64709
11
4.51353
21
-3.64709
0
LINE
8
BLACK
6
CONTINUOUS
10
4.51353
20
-3.64709
11
4.51353
21
-3.65607
0
LINE
8
BLACK
6
CONTINUOUS
10
4.96633
20
-3.65607
11
4.92742
21
-3.65607
0
LINE
8
BLACK
6
CONTINUOUS
10
4.92742
20
-3.65607
11
4.92742
21
-3.64709
0
LINE
8
BLACK
6
CONTINUOUS
10
4.92742
20
-3.64709
11
4.96633
21
-3.64709
0
LINE
8
BLACK
6
CONTINUOUS
10
4.96633
20
-3.64709
11
4.96633
21
-3.65607
0
LINE
8
BLACK
6
CONTINUOUS
10
3.45116
20
-3.65449
11
3.32187
21
-3.65449
0
LINE
8
BLACK
6
CONTINUOUS
10
3.32187
20
-3.65449
11
3.32187
21
-3.51087
0
LINE
8
BLACK
6
CONTINUOUS
10
3.32187
20
-3.51087
11
3.45116
21
-3.51087
0
LINE
8
BLACK
6
CONTINUOUS
10
3.45116
20
-3.51087
11
3.45116
21
-3.65449
0
LINE
8
BLACK
6
CONTINUOUS
10
5.11811
20
-3.65157
11
5.08268
21
-3.65157
0
LINE
8
BLACK
6
CONTINUOUS
10
5.08268
20
-3.65157
11
5.08268
21
-3.63189
0
LINE
8
BLACK
6
CONTINUOUS
10
5.08268
20
-3.63189
11
5.11811
21
-3.63189
0
LINE
8
BLACK
6
CONTINUOUS
10
5.11811
20
-3.63189
11
5.11811
21
-3.65157
0
LINE
8
BLACK
6
CONTINUOUS
10
3.60827
20
-3.65059
11
3.57677
21
-3.65059
0
LINE
8
BLACK
6
CONTINUOUS
10
3.57677
20
-3.65059
11
3.57677
21
-3.62106
0
LINE
8
BLACK
6
CONTINUOUS
10
3.57677
20
-3.62106
11
3.60827
21
-3.62106
0
LINE
8
BLACK
6
CONTINUOUS
10
3.60827
20
-3.62106
11
3.60827
21
-3.65059
0
LINE
8
BLACK
6
CONTINUOUS
10
3.54921
20
-3.65059
11
3.51772
21
-3.65059
0
LINE
8
BLACK
6
CONTINUOUS
10
3.51772
20
-3.65059
11
3.51772
21
-3.62106
0
LINE
8
BLACK
6
CONTINUOUS
10
3.51772
20
-3.62106
11
3.54921
21
-3.62106
0
LINE
8
BLACK
6
CONTINUOUS
10
3.54921
20
-3.62106
11
3.54921
21
-3.65059
0
LINE
8
BLACK
6
CONTINUOUS
10
3.09055
20
-3.64961
11
3.01969
21
-3.64961
0
LINE
8
BLACK
6
CONTINUOUS
10
3.01969
20
-3.64961
11
3.01969
21
-3.51575
0
LINE
8
BLACK
6
CONTINUOUS
10
3.01969
20
-3.51575
11
3.09055
21
-3.51575
0
LINE
8
BLACK
6
CONTINUOUS
10
3.09055
20
-3.51575
11
3.09055
21
-3.64961
0
LINE
8
BLACK
6
CONTINUOUS
10
2.88583
20
-3.64961
11
2.81496
21
-3.64961
0
LINE
8
BLACK
6
CONTINUOUS
10
2.81496
20
-3.64961
11
2.81496
21
-3.51575
0
LINE
8
BLACK
6
CONTINUOUS
10
2.81496
20
-3.51575
11
2.88583
21
-3.51575
0
LINE
8
BLACK
6
CONTINUOUS
10
2.88583
20
-3.51575
11
2.88583
21
-3.64961
0
LINE
8
BLACK
6
CONTINUOUS
10
3.65512
20
-3.64055
11
3.63622
21
-3.64055
0
LINE
8
BLACK
6
CONTINUOUS
10
3.63622
20
-3.64055
11
3.63622
21
-3.6311
0
LINE
8
BLACK
6
CONTINUOUS
10
3.63622
20
-3.6311
11
3.65512
21
-3.6311
0
LINE
8
BLACK
6
CONTINUOUS
10
3.65512
20
-3.6311
11
3.65512
21
-3.64055
0
LINE
8
BLACK
6
CONTINUOUS
10
3.80472
20
-3.64055
11
3.78583
21
-3.64055
0
LINE
8
BLACK
6
CONTINUOUS
10
3.78583
20
-3.64055
11
3.78583
21
-3.6311
0
LINE
8
BLACK
6
CONTINUOUS
10
3.78583
20
-3.6311
11
3.80472
21
-3.6311
0
LINE
8
BLACK
6
CONTINUOUS
10
3.80472
20
-3.6311
11
3.80472
21
-3.64055
0
LINE
8
BLACK
6
CONTINUOUS
10
4.96633
20
-3.63637
11
4.92742
21
-3.63637
0
LINE
8
BLACK
6
CONTINUOUS
10
4.92742
20
-3.63637
11
4.92742
21
-3.62739
0
LINE
8
BLACK
6
CONTINUOUS
10
4.92742
20
-3.62739
11
4.96633
21
-3.62739
0
LINE
8
BLACK
6
CONTINUOUS
10
4.96633
20
-3.62739
11
4.96633
21
-3.63637
0
LINE
8
BLACK
6
CONTINUOUS
10
4.51353
20
-3.63637
11
4.47462
21
-3.63637
0
LINE
8
BLACK
6
CONTINUOUS
10
4.47462
20
-3.63637
11
4.47462
21
-3.62739
0
LINE
8
BLACK
6
CONTINUOUS
10
4.47462
20
-3.62739
11
4.51353
21
-3.62739
0
LINE
8
BLACK
6
CONTINUOUS
10
4.51353
20
-3.62739
11
4.51353
21
-3.63637
0
LINE
8
BLACK
6
CONTINUOUS
10
3.76142
20
-3.62008
11
3.67953
21
-3.62008
0
LINE
8
BLACK
6
CONTINUOUS
10
3.67953
20
-3.62008
11
3.67953
21
-3.52559
0
LINE
8
BLACK
6
CONTINUOUS
10
3.67953
20
-3.52559
11
3.76142
21
-3.52559
0
LINE
8
BLACK
6
CONTINUOUS
10
3.76142
20
-3.52559
11
3.76142
21
-3.62008
0
LINE
8
BLACK
6
CONTINUOUS
10
3.26378
20
-3.61949
11
3.23228
21
-3.61949
0
LINE
8
BLACK
6
CONTINUOUS
10
3.23228
20
-3.61949
11
3.23228
21
-3.59587
0
LINE
8
BLACK
6
CONTINUOUS
10
3.23228
20
-3.59587
11
3.26378
21
-3.59587
0
LINE
8
BLACK
6
CONTINUOUS
10
3.26378
20
-3.59587
11
3.26378
21
-3.61949
0
LINE
8
BLACK
6
CONTINUOUS
10
4.51353
20
-3.61667
11
4.47462
21
-3.61667
0
LINE
8
BLACK
6
CONTINUOUS
10
4.47462
20
-3.61667
11
4.47462
21
-3.60769
0
LINE
8
BLACK
6
CONTINUOUS
10
4.47462
20
-3.60769
11
4.51353
21
-3.60769
0
LINE
8
BLACK
6
CONTINUOUS
10
4.51353
20
-3.60769
11
4.51353
21
-3.61667
0
LINE
8
BLACK
6
CONTINUOUS
10
4.96633
20
-3.61667
11
4.92742
21
-3.61667
0
LINE
8
BLACK
6
CONTINUOUS
10
4.92742
20
-3.61667
11
4.92742
21
-3.60769
0
LINE
8
BLACK
6
CONTINUOUS
10
4.92742
20
-3.60769
11
4.96633
21
-3.60769
0
LINE
8
BLACK
6
CONTINUOUS
10
4.96633
20
-3.60769
11
4.96633
21
-3.61667
0
LINE
8
BLACK
6
CONTINUOUS
10
4.19882
20
-3.61614
11
4.16339
21
-3.61614
0
LINE
8
BLACK
6
CONTINUOUS
10
4.16339
20
-3.61614
11
4.16339
21
-3.54921
0
LINE
8
BLACK
6
CONTINUOUS
10
4.16339
20
-3.54921
11
4.19882
21
-3.54921
0
LINE
8
BLACK
6
CONTINUOUS
10
4.19882
20
-3.54921
11
4.19882
21
-3.61614
0
LINE
8
BLACK
6
CONTINUOUS
10
4.08465
20
-3.61614
11
4.04921
21
-3.61614
0
LINE
8
BLACK
6
CONTINUOUS
10
4.04921
20
-3.61614
11
4.04921
21
-3.54921
0
LINE
8
BLACK
6
CONTINUOUS
10
4.04921
20
-3.54921
11
4.08465
21
-3.54921
0
LINE
8
BLACK
6
CONTINUOUS
10
4.08465
20
-3.54921
11
4.08465
21
-3.61614
0
LINE
8
BLACK
6
CONTINUOUS
10
4.35827
20
-3.61614
11
4.32283
21
-3.61614
0
LINE
8
BLACK
6
CONTINUOUS
10
4.32283
20
-3.61614
11
4.32283
21
-3.54921
0
LINE
8
BLACK
6
CONTINUOUS
10
4.32283
20
-3.54921
11
4.35827
21
-3.54921
0
LINE
8
BLACK
6
CONTINUOUS
10
4.35827
20
-3.54921
11
4.35827
21
-3.61614
0
LINE
8
BLACK
6
CONTINUOUS
10
4.24409
20
-3.61614
11
4.20866
21
-3.61614
0
LINE
8
BLACK
6
CONTINUOUS
10
4.20866
20
-3.61614
11
4.20866
21
-3.54921
0
LINE
8
BLACK
6
CONTINUOUS
10
4.20866
20
-3.54921
11
4.24409
21
-3.54921
0
LINE
8
BLACK
6
CONTINUOUS
10
4.24409
20
-3.54921
11
4.24409
21
-3.61614
0
LINE
8
BLACK
6
CONTINUOUS
10
3.9252
20
-3.61614
11
3.88976
21
-3.61614
0
LINE
8
BLACK
6
CONTINUOUS
10
3.88976
20
-3.61614
11
3.88976
21
-3.54921
0
LINE
8
BLACK
6
CONTINUOUS
10
3.88976
20
-3.54921
11
3.9252
21
-3.54921
0
LINE
8
BLACK
6
CONTINUOUS
10
3.9252
20
-3.54921
11
3.9252
21
-3.61614
0
LINE
8
BLACK
6
CONTINUOUS
10
4.03937
20
-3.61614
11
4.00394
21
-3.61614
0
LINE
8
BLACK
6
CONTINUOUS
10
4.00394
20
-3.61614
11
4.00394
21
-3.54921
0
LINE
8
BLACK
6
CONTINUOUS
10
4.00394
20
-3.54921
11
4.03937
21
-3.54921
0
LINE
8
BLACK
6
CONTINUOUS
10
4.03937
20
-3.54921
11
4.03937
21
-3.61614
0
LINE
8
BLACK
6
CONTINUOUS
10
3.80472
20
-3.60906
11
3.78583
21
-3.60906
0
LINE
8
BLACK
6
CONTINUOUS
10
3.78583
20
-3.60906
11
3.78583
21
-3.59961
0
LINE
8
BLACK
6
CONTINUOUS
10
3.78583
20
-3.59961
11
3.80472
21
-3.59961
0
LINE
8
BLACK
6
CONTINUOUS
10
3.80472
20
-3.59961
11
3.80472
21
-3.60906
0
LINE
8
BLACK
6
CONTINUOUS
10
3.65512
20
-3.60906
11
3.63622
21
-3.60906
0
LINE
8
BLACK
6
CONTINUOUS
10
3.63622
20
-3.60906
11
3.63622
21
-3.59961
0
LINE
8
BLACK
6
CONTINUOUS
10
3.63622
20
-3.59961
11
3.65512
21
-3.59961
0
LINE
8
BLACK
6
CONTINUOUS
10
3.65512
20
-3.59961
11
3.65512
21
-3.60906
0
LINE
8
BLACK
6
CONTINUOUS
10
3.86811
20
-3.59843
11
3.83268
21
-3.59843
0
LINE
8
BLACK
6
CONTINUOUS
10
3.83268
20
-3.59843
11
3.83268
21
-3.57874
0
LINE
8
BLACK
6
CONTINUOUS
10
3.83268
20
-3.57874
11
3.86811
21
-3.57874
0
LINE
8
BLACK
6
CONTINUOUS
10
3.86811
20
-3.57874
11
3.86811
21
-3.59843
0
LINE
8
BLACK
6
CONTINUOUS
10
3.54823
20
-3.59843
11
3.5187
21
-3.59843
0
LINE
8
BLACK
6
CONTINUOUS
10
3.5187
20
-3.59843
11
3.5187
21
-3.56693
0
LINE
8
BLACK
6
CONTINUOUS
10
3.5187
20
-3.56693
11
3.54823
21
-3.56693
0
LINE
8
BLACK
6
CONTINUOUS
10
3.54823
20
-3.56693
11
3.54823
21
-3.59843
0
LINE
8
BLACK
6
CONTINUOUS
10
4.51353
20
-3.59697
11
4.47462
21
-3.59697
0
LINE
8
BLACK
6
CONTINUOUS
10
4.47462
20
-3.59697
11
4.47462
21
-3.58799
0
LINE
8
BLACK
6
CONTINUOUS
10
4.47462
20
-3.58799
11
4.51353
21
-3.58799
0
LINE
8
BLACK
6
CONTINUOUS
10
4.51353
20
-3.58799
11
4.51353
21
-3.59697
0
LINE
8
BLACK
6
CONTINUOUS
10
4.96633
20
-3.59697
11
4.92742
21
-3.59697
0
LINE
8
BLACK
6
CONTINUOUS
10
4.92742
20
-3.59697
11
4.92742
21
-3.58799
0
LINE
8
BLACK
6
CONTINUOUS
10
4.92742
20
-3.58799
11
4.96633
21
-3.58799
0
LINE
8
BLACK
6
CONTINUOUS
10
4.96633
20
-3.58799
11
4.96633
21
-3.59697
0
LINE
8
BLACK
6
CONTINUOUS
10
3.61024
20
-3.59646
11
3.5748
21
-3.59646
0
LINE
8
BLACK
6
CONTINUOUS
10
3.5748
20
-3.59646
11
3.5748
21
-3.57677
0
LINE
8
BLACK
6
CONTINUOUS
10
3.5748
20
-3.57677
11
3.61024
21
-3.57677
0
LINE
8
BLACK
6
CONTINUOUS
10
3.61024
20
-3.57677
11
3.61024
21
-3.59646
0
LINE
8
BLACK
6
CONTINUOUS
10
5.11811
20
-3.59252
11
5.08268
21
-3.59252
0
LINE
8
BLACK
6
CONTINUOUS
10
5.08268
20
-3.59252
11
5.08268
21
-3.57283
0
LINE
8
BLACK
6
CONTINUOUS
10
5.08268
20
-3.57283
11
5.11811
21
-3.57283
0
LINE
8
BLACK
6
CONTINUOUS
10
5.11811
20
-3.57283
11
5.11811
21
-3.59252
0
LINE
8
BLACK
6
CONTINUOUS
10
3.80472
20
-3.57756
11
3.78583
21
-3.57756
0
LINE
8
BLACK
6
CONTINUOUS
10
3.78583
20
-3.57756
11
3.78583
21
-3.56811
0
LINE
8
BLACK
6
CONTINUOUS
10
3.78583
20
-3.56811
11
3.80472
21
-3.56811
0
LINE
8
BLACK
6
CONTINUOUS
10
3.80472
20
-3.56811
11
3.80472
21
-3.57756
0
LINE
8
BLACK
6
CONTINUOUS
10
3.65512
20
-3.57756
11
3.63622
21
-3.57756
0
LINE
8
BLACK
6
CONTINUOUS
10
3.63622
20
-3.57756
11
3.63622
21
-3.56811
0
LINE
8
BLACK
6
CONTINUOUS
10
3.63622
20
-3.56811
11
3.65512
21
-3.56811
0
LINE
8
BLACK
6
CONTINUOUS
10
3.65512
20
-3.56811
11
3.65512
21
-3.57756
0
LINE
8
BLACK
6
CONTINUOUS
10
4.96633
20
-3.57737
11
4.92742
21
-3.57737
0
LINE
8
BLACK
6
CONTINUOUS
10
4.92742
20
-3.57737
11
4.92742
21
-3.56839
0
LINE
8
BLACK
6
CONTINUOUS
10
4.92742
20
-3.56839
11
4.96633
21
-3.56839
0
LINE
8
BLACK
6
CONTINUOUS
10
4.96633
20
-3.56839
11
4.96633
21
-3.57737
0
LINE
8
BLACK
6
CONTINUOUS
10
4.51353
20
-3.57737
11
4.47462
21
-3.57737
0
LINE
8
BLACK
6
CONTINUOUS
10
4.47462
20
-3.57737
11
4.47462
21
-3.56839
0
LINE
8
BLACK
6
CONTINUOUS
10
4.47462
20
-3.56839
11
4.51353
21
-3.56839
0
LINE
8
BLACK
6
CONTINUOUS
10
4.51353
20
-3.56839
11
4.51353
21
-3.57737
0
LINE
8
BLACK
6
CONTINUOUS
10
3.26378
20
-3.56949
11
3.23228
21
-3.56949
0
LINE
8
BLACK
6
CONTINUOUS
10
3.23228
20
-3.56949
11
3.23228
21
-3.54587
0
LINE
8
BLACK
6
CONTINUOUS
10
3.23228
20
-3.54587
11
3.26378
21
-3.54587
0
LINE
8
BLACK
6
CONTINUOUS
10
3.26378
20
-3.54587
11
3.26378
21
-3.56949
0
LINE
8
BLACK
6
CONTINUOUS
10
4.51353
20
-3.55767
11
4.47462
21
-3.55767
0
LINE
8
BLACK
6
CONTINUOUS
10
4.47462
20
-3.55767
11
4.47462
21
-3.54869
0
LINE
8
BLACK
6
CONTINUOUS
10
4.47462
20
-3.54869
11
4.51353
21
-3.54869
0
LINE
8
BLACK
6
CONTINUOUS
10
4.51353
20
-3.54869
11
4.51353
21
-3.55767
0
LINE
8
BLACK
6
CONTINUOUS
10
4.96633
20
-3.55767
11
4.92742
21
-3.55767
0
LINE
8
BLACK
6
CONTINUOUS
10
4.92742
20
-3.55767
11
4.92742
21
-3.54869
0
LINE
8
BLACK
6
CONTINUOUS
10
4.92742
20
-3.54869
11
4.96633
21
-3.54869
0
LINE
8
BLACK
6
CONTINUOUS
10
4.96633
20
-3.54869
11
4.96633
21
-3.55767
0
LINE
8
BLACK
6
CONTINUOUS
10
3.65512
20
-3.54606
11
3.63622
21
-3.54606
0
LINE
8
BLACK
6
CONTINUOUS
10
3.63622
20
-3.54606
11
3.63622
21
-3.53661
0
LINE
8
BLACK
6
CONTINUOUS
10
3.63622
20
-3.53661
11
3.65512
21
-3.53661
0
LINE
8
BLACK
6
CONTINUOUS
10
3.65512
20
-3.53661
11
3.65512
21
-3.54606
0
LINE
8
BLACK
6
CONTINUOUS
10
3.80472
20
-3.54606
11
3.78583
21
-3.54606
0
LINE
8
BLACK
6
CONTINUOUS
10
3.78583
20
-3.54606
11
3.78583
21
-3.53661
0
LINE
8
BLACK
6
CONTINUOUS
10
3.78583
20
-3.53661
11
3.80472
21
-3.53661
0
LINE
8
BLACK
6
CONTINUOUS
10
3.80472
20
-3.53661
11
3.80472
21
-3.54606
0
LINE
8
BLACK
6
CONTINUOUS
10
3.54823
20
-3.53937
11
3.5187
21
-3.53937
0
LINE
8
BLACK
6
CONTINUOUS
10
3.5187
20
-3.53937
11
3.5187
21
-3.50787
0
LINE
8
BLACK
6
CONTINUOUS
10
3.5187
20
-3.50787
11
3.54823
21
-3.50787
0
LINE
8
BLACK
6
CONTINUOUS
10
3.54823
20
-3.50787
11
3.54823
21
-3.53937
0
LINE
8
BLACK
6
CONTINUOUS
10
4.24409
20
-3.53937
11
4.20866
21
-3.53937
0
LINE
8
BLACK
6
CONTINUOUS
10
4.20866
20
-3.53937
11
4.20866
21
-3.47244
0
LINE
8
BLACK
6
CONTINUOUS
10
4.20866
20
-3.47244
11
4.24409
21
-3.47244
0
LINE
8
BLACK
6
CONTINUOUS
10
4.24409
20
-3.47244
11
4.24409
21
-3.53937
0
LINE
8
BLACK
6
CONTINUOUS
10
4.35827
20
-3.53937
11
4.32283
21
-3.53937
0
LINE
8
BLACK
6
CONTINUOUS
10
4.32283
20
-3.53937
11
4.32283
21
-3.47244
0
LINE
8
BLACK
6
CONTINUOUS
10
4.32283
20
-3.47244
11
4.35827
21
-3.47244
0
LINE
8
BLACK
6
CONTINUOUS
10
4.35827
20
-3.47244
11
4.35827
21
-3.53937
0
LINE
8
BLACK
6
CONTINUOUS
10
3.9252
20
-3.53937
11
3.88976
21
-3.53937
0
LINE
8
BLACK
6
CONTINUOUS
10
3.88976
20
-3.53937
11
3.88976
21
-3.47244
0
LINE
8
BLACK
6
CONTINUOUS
10
3.88976
20
-3.47244
11
3.9252
21
-3.47244
0
LINE
8
BLACK
6
CONTINUOUS
10
3.9252
20
-3.47244
11
3.9252
21
-3.53937
0
LINE
8
BLACK
6
CONTINUOUS
10
4.03937
20
-3.53937
11
4.00394
21
-3.53937
0
LINE
8
BLACK
6
CONTINUOUS
10
4.00394
20
-3.53937
11
4.00394
21
-3.47244
0
LINE
8
BLACK
6
CONTINUOUS
10
4.00394
20
-3.47244
11
4.03937
21
-3.47244
0
LINE
8
BLACK
6
CONTINUOUS
10
4.03937
20
-3.47244
11
4.03937
21
-3.53937
0
LINE
8
BLACK
6
CONTINUOUS
10
4.08465
20
-3.53937
11
4.04921
21
-3.53937
0
LINE
8
BLACK
6
CONTINUOUS
10
4.04921
20
-3.53937
11
4.04921
21
-3.47244
0
LINE
8
BLACK
6
CONTINUOUS
10
4.04921
20
-3.47244
11
4.08465
21
-3.47244
0
LINE
8
BLACK
6
CONTINUOUS
10
4.08465
20
-3.47244
11
4.08465
21
-3.53937
0
LINE
8
BLACK
6
CONTINUOUS
10
4.19882
20
-3.53937
11
4.16339
21
-3.53937
0
LINE
8
BLACK
6
CONTINUOUS
10
4.16339
20
-3.53937
11
4.16339
21
-3.47244
0
LINE
8
BLACK
6
CONTINUOUS
10
4.16339
20
-3.47244
11
4.19882
21
-3.47244
0
LINE
8
BLACK
6
CONTINUOUS
10
4.19882
20
-3.47244
11
4.19882
21
-3.53937
0
LINE
8
BLACK
6
CONTINUOUS
10
4.51353
20
-3.53797
11
4.47462
21
-3.53797
0
LINE
8
BLACK
6
CONTINUOUS
10
4.47462
20
-3.53797
11
4.47462
21
-3.52899
0
LINE
8
BLACK
6
CONTINUOUS
10
4.47462
20
-3.52899
11
4.51353
21
-3.52899
0
LINE
8
BLACK
6
CONTINUOUS
10
4.51353
20
-3.52899
11
4.51353
21
-3.53797
0
LINE
8
BLACK
6
CONTINUOUS
10
4.96633
20
-3.53797
11
4.92742
21
-3.53797
0
LINE
8
BLACK
6
CONTINUOUS
10
4.92742
20
-3.53797
11
4.92742
21
-3.52899
0
LINE
8
BLACK
6
CONTINUOUS
10
4.92742
20
-3.52899
11
4.96633
21
-3.52899
0
LINE
8
BLACK
6
CONTINUOUS
10
4.96633
20
-3.52899
11
4.96633
21
-3.53797
0
LINE
8
BLACK
6
CONTINUOUS
10
3.61024
20
-3.5374
11
3.5748
21
-3.5374
0
LINE
8
BLACK
6
CONTINUOUS
10
3.5748
20
-3.5374
11
3.5748
21
-3.51772
0
LINE
8
BLACK
6
CONTINUOUS
10
3.5748
20
-3.51772
11
3.61024
21
-3.51772
0
LINE
8
BLACK
6
CONTINUOUS
10
3.61024
20
-3.51772
11
3.61024
21
-3.5374
0
LINE
8
BLACK
6
CONTINUOUS
10
3.48238
20
-3.51949
11
3.469
21
-3.51949
0
LINE
8
BLACK
6
CONTINUOUS
10
3.469
20
-3.51949
11
3.469
21
-3.49587
0
LINE
8
BLACK
6
CONTINUOUS
10
3.469
20
-3.49587
11
3.48238
21
-3.49587
0
LINE
8
BLACK
6
CONTINUOUS
10
3.48238
20
-3.49587
11
3.48238
21
-3.51949
0
LINE
8
BLACK
6
CONTINUOUS
10
3.26378
20
-3.51949
11
3.23228
21
-3.51949
0
LINE
8
BLACK
6
CONTINUOUS
10
3.23228
20
-3.51949
11
3.23228
21
-3.49587
0
LINE
8
BLACK
6
CONTINUOUS
10
3.23228
20
-3.49587
11
3.26378
21
-3.49587
0
LINE
8
BLACK
6
CONTINUOUS
10
3.26378
20
-3.49587
11
3.26378
21
-3.51949
0
LINE
8
BLACK
6
CONTINUOUS
10
4.96633
20
-3.51827
11
4.92742
21
-3.51827
0
LINE
8
BLACK
6
CONTINUOUS
10
4.92742
20
-3.51827
11
4.92742
21
-3.50929
0
LINE
8
BLACK
6
CONTINUOUS
10
4.92742
20
-3.50929
11
4.96633
21
-3.50929
0
LINE
8
BLACK
6
CONTINUOUS
10
4.96633
20
-3.50929
11
4.96633
21
-3.51827
0
LINE
8
BLACK
6
CONTINUOUS
10
4.51353
20
-3.51827
11
4.47462
21
-3.51827
0
LINE
8
BLACK
6
CONTINUOUS
10
4.47462
20
-3.51827
11
4.47462
21
-3.50929
0
LINE
8
BLACK
6
CONTINUOUS
10
4.47462
20
-3.50929
11
4.51353
21
-3.50929
0
LINE
8
BLACK
6
CONTINUOUS
10
4.51353
20
-3.50929
11
4.51353
21
-3.51827
0
LINE
8
BLACK
6
CONTINUOUS
10
3.65512
20
-3.51457
11
3.63622
21
-3.51457
0
LINE
8
BLACK
6
CONTINUOUS
10
3.63622
20
-3.51457
11
3.63622
21
-3.50512
0
LINE
8
BLACK
6
CONTINUOUS
10
3.63622
20
-3.50512
11
3.65512
21
-3.50512
0
LINE
8
BLACK
6
CONTINUOUS
10
3.65512
20
-3.50512
11
3.65512
21
-3.51457
0
LINE
8
BLACK
6
CONTINUOUS
10
3.80472
20
-3.51457
11
3.78583
21
-3.51457
0
LINE
8
BLACK
6
CONTINUOUS
10
3.78583
20
-3.51457
11
3.78583
21
-3.50512
0
LINE
8
BLACK
6
CONTINUOUS
10
3.78583
20
-3.50512
11
3.80472
21
-3.50512
0
LINE
8
BLACK
6
CONTINUOUS
10
3.80472
20
-3.50512
11
3.80472
21
-3.51457
0
LINE
8
BLACK
6
CONTINUOUS
10
5.07874
20
-3.51181
11
5.05906
21
-3.51181
0
LINE
8
BLACK
6
CONTINUOUS
10
5.05906
20
-3.51181
11
5.05906
21
-3.47638
0
LINE
8
BLACK
6
CONTINUOUS
10
5.05906
20
-3.47638
11
5.07874
21
-3.47638
0
LINE
8
BLACK
6
CONTINUOUS
10
5.07874
20
-3.47638
11
5.07874
21
-3.51181
0
LINE
8
BLACK
6
CONTINUOUS
10
5.1378
20
-3.51181
11
5.11811
21
-3.51181
0
LINE
8
BLACK
6
CONTINUOUS
10
5.11811
20
-3.51181
11
5.11811
21
-3.47638
0
LINE
8
BLACK
6
CONTINUOUS
10
5.11811
20
-3.47638
11
5.1378
21
-3.47638
0
LINE
8
BLACK
6
CONTINUOUS
10
5.1378
20
-3.47638
11
5.1378
21
-3.51181
0
LINE
8
BLACK
6
CONTINUOUS
10
4.51353
20
-3.49857
11
4.47462
21
-3.49857
0
LINE
8
BLACK
6
CONTINUOUS
10
4.47462
20
-3.49857
11
4.47462
21
-3.48959
0
LINE
8
BLACK
6
CONTINUOUS
10
4.47462
20
-3.48959
11
4.51353
21
-3.48959
0
LINE
8
BLACK
6
CONTINUOUS
10
4.51353
20
-3.48959
11
4.51353
21
-3.49857
0
LINE
8
BLACK
6
CONTINUOUS
10
4.96633
20
-3.49857
11
4.92742
21
-3.49857
0
LINE
8
BLACK
6
CONTINUOUS
10
4.92742
20
-3.49857
11
4.92742
21
-3.48959
0
LINE
8
BLACK
6
CONTINUOUS
10
4.92742
20
-3.48959
11
4.96633
21
-3.48959
0
LINE
8
BLACK
6
CONTINUOUS
10
4.96633
20
-3.48959
11
4.96633
21
-3.49857
0
LINE
8
BLACK
6
CONTINUOUS
10
3.35451
20
-3.49096
11
3.326
21
-3.49096
0
LINE
8
BLACK
6
CONTINUOUS
10
3.326
20
-3.49096
11
3.326
21
-3.47537
0
LINE
8
BLACK
6
CONTINUOUS
10
3.326
20
-3.47537
11
3.35451
21
-3.47537
0
LINE
8
BLACK
6
CONTINUOUS
10
3.35451
20
-3.47537
11
3.35451
21
-3.49096
0
LINE
8
BLACK
6
CONTINUOUS
10
3.86614
20
-3.48031
11
3.83071
21
-3.48031
0
LINE
8
BLACK
6
CONTINUOUS
10
3.83071
20
-3.48031
11
3.83071
21
-3.46063
0
LINE
8
BLACK
6
CONTINUOUS
10
3.83071
20
-3.46063
11
3.86614
21
-3.46063
0
LINE
8
BLACK
6
CONTINUOUS
10
3.86614
20
-3.46063
11
3.86614
21
-3.48031
0
LINE
8
BLACK
6
CONTINUOUS
10
4.51353
20
-3.47887
11
4.47462
21
-3.47887
0
LINE
8
BLACK
6
CONTINUOUS
10
4.47462
20
-3.47887
11
4.47462
21
-3.46989
0
LINE
8
BLACK
6
CONTINUOUS
10
4.47462
20
-3.46989
11
4.51353
21
-3.46989
0
LINE
8
BLACK
6
CONTINUOUS
10
4.51353
20
-3.46989
11
4.51353
21
-3.47887
0
LINE
8
BLACK
6
CONTINUOUS
10
4.96633
20
-3.47887
11
4.92742
21
-3.47887
0
LINE
8
BLACK
6
CONTINUOUS
10
4.92742
20
-3.47887
11
4.92742
21
-3.46989
0
LINE
8
BLACK
6
CONTINUOUS
10
4.92742
20
-3.46989
11
4.96633
21
-3.46989
0
LINE
8
BLACK
6
CONTINUOUS
10
4.96633
20
-3.46989
11
4.96633
21
-3.47887
0
LINE
8
BLACK
6
CONTINUOUS
10
3.54528
20
-3.47146
11
3.51378
21
-3.47146
0
LINE
8
BLACK
6
CONTINUOUS
10
3.51378
20
-3.47146
11
3.51378
21
-3.44193
0
LINE
8
BLACK
6
CONTINUOUS
10
3.51378
20
-3.44193
11
3.54528
21
-3.44193
0
LINE
8
BLACK
6
CONTINUOUS
10
3.54528
20
-3.44193
11
3.54528
21
-3.47146
0
LINE
8
BLACK
6
CONTINUOUS
10
3.60433
20
-3.47146
11
3.57283
21
-3.47146
0
LINE
8
BLACK
6
CONTINUOUS
10
3.57283
20
-3.47146
11
3.57283
21
-3.44193
0
LINE
8
BLACK
6
CONTINUOUS
10
3.57283
20
-3.44193
11
3.60433
21
-3.44193
0
LINE
8
BLACK
6
CONTINUOUS
10
3.60433
20
-3.44193
11
3.60433
21
-3.47146
0
LINE
8
BLACK
6
CONTINUOUS
10
3.80472
20
-3.46339
11
3.78583
21
-3.46339
0
LINE
8
BLACK
6
CONTINUOUS
10
3.78583
20
-3.46339
11
3.78583
21
-3.45394
0
LINE
8
BLACK
6
CONTINUOUS
10
3.78583
20
-3.45394
11
3.80472
21
-3.45394
0
LINE
8
BLACK
6
CONTINUOUS
10
3.80472
20
-3.45394
11
3.80472
21
-3.46339
0
LINE
8
BLACK
6
CONTINUOUS
10
3.65512
20
-3.46339
11
3.63622
21
-3.46339
0
LINE
8
BLACK
6
CONTINUOUS
10
3.63622
20
-3.46339
11
3.63622
21
-3.45394
0
LINE
8
BLACK
6
CONTINUOUS
10
3.63622
20
-3.45394
11
3.65512
21
-3.45394
0
LINE
8
BLACK
6
CONTINUOUS
10
3.65512
20
-3.45394
11
3.65512
21
-3.46339
0
LINE
8
BLACK
6
CONTINUOUS
10
4.24409
20
-3.4626
11
4.20866
21
-3.4626
0
LINE
8
BLACK
6
CONTINUOUS
10
4.20866
20
-3.4626
11
4.20866
21
-3.39567
0
LINE
8
BLACK
6
CONTINUOUS
10
4.20866
20
-3.39567
11
4.24409
21
-3.39567
0
LINE
8
BLACK
6
CONTINUOUS
10
4.24409
20
-3.39567
11
4.24409
21
-3.4626
0
LINE
8
BLACK
6
CONTINUOUS
10
4.35827
20
-3.4626
11
4.32283
21
-3.4626
0
LINE
8
BLACK
6
CONTINUOUS
10
4.32283
20
-3.4626
11
4.32283
21
-3.39567
0
LINE
8
BLACK
6
CONTINUOUS
10
4.32283
20
-3.39567
11
4.35827
21
-3.39567
0
LINE
8
BLACK
6
CONTINUOUS
10
4.35827
20
-3.39567
11
4.35827
21
-3.4626
0
LINE
8
BLACK
6
CONTINUOUS
10
4.03937
20
-3.4626
11
4.00394
21
-3.4626
0
LINE
8
BLACK
6
CONTINUOUS
10
4.00394
20
-3.4626
11
4.00394
21
-3.39567
0
LINE
8
BLACK
6
CONTINUOUS
10
4.00394
20
-3.39567
11
4.03937
21
-3.39567
0
LINE
8
BLACK
6
CONTINUOUS
10
4.03937
20
-3.39567
11
4.03937
21
-3.4626
0
LINE
8
BLACK
6
CONTINUOUS
10
3.9252
20
-3.4626
11
3.88976
21
-3.4626
0
LINE
8
BLACK
6
CONTINUOUS
10
3.88976
20
-3.4626
11
3.88976
21
-3.39567
0
LINE
8
BLACK
6
CONTINUOUS
10
3.88976
20
-3.39567
11
3.9252
21
-3.39567
0
LINE
8
BLACK
6
CONTINUOUS
10
3.9252
20
-3.39567
11
3.9252
21
-3.4626
0
LINE
8
BLACK
6
CONTINUOUS
10
4.08465
20
-3.4626
11
4.04921
21
-3.4626
0
LINE
8
BLACK
6
CONTINUOUS
10
4.04921
20
-3.4626
11
4.04921
21
-3.39567
0
LINE
8
BLACK
6
CONTINUOUS
10
4.04921
20
-3.39567
11
4.08465
21
-3.39567
0
LINE
8
BLACK
6
CONTINUOUS
10
4.08465
20
-3.39567
11
4.08465
21
-3.4626
0
LINE
8
BLACK
6
CONTINUOUS
10
4.19882
20
-3.4626
11
4.16339
21
-3.4626
0
LINE
8
BLACK
6
CONTINUOUS
10
4.16339
20
-3.4626
11
4.16339
21
-3.39567
0
LINE
8
BLACK
6
CONTINUOUS
10
4.16339
20
-3.39567
11
4.19882
21
-3.39567
0
LINE
8
BLACK
6
CONTINUOUS
10
4.19882
20
-3.39567
11
4.19882
21
-3.4626
0
LINE
8
BLACK
6
CONTINUOUS
10
3.35451
20
-3.46163
11
3.326
21
-3.46163
0
LINE
8
BLACK
6
CONTINUOUS
10
3.326
20
-3.46163
11
3.326
21
-3.44604
0
LINE
8
BLACK
6
CONTINUOUS
10
3.326
20
-3.44604
11
3.35451
21
-3.44604
0
LINE
8
BLACK
6
CONTINUOUS
10
3.35451
20
-3.44604
11
3.35451
21
-3.46163
0
LINE
8
BLACK
6
CONTINUOUS
10
4.96633
20
-3.45917
11
4.92742
21
-3.45917
0
LINE
8
BLACK
6
CONTINUOUS
10
4.92742
20
-3.45917
11
4.92742
21
-3.45019
0
LINE
8
BLACK
6
CONTINUOUS
10
4.92742
20
-3.45019
11
4.96633
21
-3.45019
0
LINE
8
BLACK
6
CONTINUOUS
10
4.96633
20
-3.45019
11
4.96633
21
-3.45917
0
LINE
8
BLACK
6
CONTINUOUS
10
4.51353
20
-3.45917
11
4.47462
21
-3.45917
0
LINE
8
BLACK
6
CONTINUOUS
10
4.47462
20
-3.45917
11
4.47462
21
-3.45019
0
LINE
8
BLACK
6
CONTINUOUS
10
4.47462
20
-3.45019
11
4.51353
21
-3.45019
0
LINE
8
BLACK
6
CONTINUOUS
10
4.51353
20
-3.45019
11
4.51353
21
-3.45917
0
LINE
8
BLACK
6
CONTINUOUS
10
5.07874
20
-3.45079
11
5.05906
21
-3.45079
0
LINE
8
BLACK
6
CONTINUOUS
10
5.05906
20
-3.45079
11
5.05906
21
-3.41535
0
LINE
8
BLACK
6
CONTINUOUS
10
5.05906
20
-3.41535
11
5.07874
21
-3.41535
0
LINE
8
BLACK
6
CONTINUOUS
10
5.07874
20
-3.41535
11
5.07874
21
-3.45079
0
LINE
8
BLACK
6
CONTINUOUS
10
5.1378
20
-3.45079
11
5.11811
21
-3.45079
0
LINE
8
BLACK
6
CONTINUOUS
10
5.11811
20
-3.45079
11
5.11811
21
-3.41535
0
LINE
8
BLACK
6
CONTINUOUS
10
5.11811
20
-3.41535
11
5.1378
21
-3.41535
0
LINE
8
BLACK
6
CONTINUOUS
10
5.1378
20
-3.41535
11
5.1378
21
-3.45079
0
LINE
8
BLACK
6
CONTINUOUS
10
3.76142
20
-3.44291
11
3.67953
21
-3.44291
0
LINE
8
BLACK
6
CONTINUOUS
10
3.67953
20
-3.44291
11
3.67953
21
-3.34843
0
LINE
8
BLACK
6
CONTINUOUS
10
3.67953
20
-3.34843
11
3.76142
21
-3.34843
0
LINE
8
BLACK
6
CONTINUOUS
10
3.76142
20
-3.34843
11
3.76142
21
-3.44291
0
LINE
8
BLACK
6
CONTINUOUS
10
3.48238
20
-3.44114
11
3.469
21
-3.44114
0
LINE
8
BLACK
6
CONTINUOUS
10
3.469
20
-3.44114
11
3.469
21
-3.41752
0
LINE
8
BLACK
6
CONTINUOUS
10
3.469
20
-3.41752
11
3.48238
21
-3.41752
0
LINE
8
BLACK
6
CONTINUOUS
10
3.48238
20
-3.41752
11
3.48238
21
-3.44114
0
LINE
8
BLACK
6
CONTINUOUS
10
3.26378
20
-3.44114
11
3.23228
21
-3.44114
0
LINE
8
BLACK
6
CONTINUOUS
10
3.23228
20
-3.44114
11
3.23228
21
-3.41752
0
LINE
8
BLACK
6
CONTINUOUS
10
3.23228
20
-3.41752
11
3.26378
21
-3.41752
0
LINE
8
BLACK
6
CONTINUOUS
10
3.26378
20
-3.41752
11
3.26378
21
-3.44114
0
LINE
8
BLACK
6
CONTINUOUS
10
4.51353
20
-3.43957
11
4.47462
21
-3.43957
0
LINE
8
BLACK
6
CONTINUOUS
10
4.47462
20
-3.43957
11
4.47462
21
-3.43059
0
LINE
8
BLACK
6
CONTINUOUS
10
4.47462
20
-3.43059
11
4.51353
21
-3.43059
0
LINE
8
BLACK
6
CONTINUOUS
10
4.51353
20
-3.43059
11
4.51353
21
-3.43957
0
LINE
8
BLACK
6
CONTINUOUS
10
4.96633
20
-3.43957
11
4.92742
21
-3.43957
0
LINE
8
BLACK
6
CONTINUOUS
10
4.92742
20
-3.43957
11
4.92742
21
-3.43059
0
LINE
8
BLACK
6
CONTINUOUS
10
4.92742
20
-3.43059
11
4.96633
21
-3.43059
0
LINE
8
BLACK
6
CONTINUOUS
10
4.96633
20
-3.43059
11
4.96633
21
-3.43957
0
LINE
8
BLACK
6
CONTINUOUS
10
3.65512
20
-3.43189
11
3.63622
21
-3.43189
0
LINE
8
BLACK
6
CONTINUOUS
10
3.63622
20
-3.43189
11
3.63622
21
-3.42244
0
LINE
8
BLACK
6
CONTINUOUS
10
3.63622
20
-3.42244
11
3.65512
21
-3.42244
0
LINE
8
BLACK
6
CONTINUOUS
10
3.65512
20
-3.42244
11
3.65512
21
-3.43189
0
LINE
8
BLACK
6
CONTINUOUS
10
3.80472
20
-3.43189
11
3.78583
21
-3.43189
0
LINE
8
BLACK
6
CONTINUOUS
10
3.78583
20
-3.43189
11
3.78583
21
-3.42244
0
LINE
8
BLACK
6
CONTINUOUS
10
3.78583
20
-3.42244
11
3.80472
21
-3.42244
0
LINE
8
BLACK
6
CONTINUOUS
10
3.80472
20
-3.42244
11
3.80472
21
-3.43189
0
LINE
8
BLACK
6
CONTINUOUS
10
3.45116
20
-3.42614
11
3.32187
21
-3.42614
0
LINE
8
BLACK
6
CONTINUOUS
10
3.32187
20
-3.42614
11
3.32187
21
-3.28252
0
LINE
8
BLACK
6
CONTINUOUS
10
3.32187
20
-3.28252
11
3.45116
21
-3.28252
0
LINE
8
BLACK
6
CONTINUOUS
10
3.45116
20
-3.28252
11
3.45116
21
-3.42614
0
LINE
8
BLACK
6
CONTINUOUS
10
3.54823
20
-3.42323
11
3.5187
21
-3.42323
0
LINE
8
BLACK
6
CONTINUOUS
10
3.5187
20
-3.42323
11
3.5187
21
-3.39173
0
LINE
8
BLACK
6
CONTINUOUS
10
3.5187
20
-3.39173
11
3.54823
21
-3.39173
0
LINE
8
BLACK
6
CONTINUOUS
10
3.54823
20
-3.39173
11
3.54823
21
-3.42323
0
LINE
8
BLACK
6
CONTINUOUS
10
3.86614
20
-3.42126
11
3.83071
21
-3.42126
0
LINE
8
BLACK
6
CONTINUOUS
10
3.83071
20
-3.42126
11
3.83071
21
-3.40157
0
LINE
8
BLACK
6
CONTINUOUS
10
3.83071
20
-3.40157
11
3.86614
21
-3.40157
0
LINE
8
BLACK
6
CONTINUOUS
10
3.86614
20
-3.40157
11
3.86614
21
-3.42126
0
LINE
8
BLACK
6
CONTINUOUS
10
3.09055
20
-3.42126
11
3.01969
21
-3.42126
0
LINE
8
BLACK
6
CONTINUOUS
10
3.01969
20
-3.42126
11
3.01969
21
-3.2874
0
LINE
8
BLACK
6
CONTINUOUS
10
3.01969
20
-3.2874
11
3.09055
21
-3.2874
0
LINE
8
BLACK
6
CONTINUOUS
10
3.09055
20
-3.2874
11
3.09055
21
-3.42126
0
LINE
8
BLACK
6
CONTINUOUS
10
2.88583
20
-3.42126
11
2.81496
21
-3.42126
0
LINE
8
BLACK
6
CONTINUOUS
10
2.81496
20
-3.42126
11
2.81496
21
-3.2874
0
LINE
8
BLACK
6
CONTINUOUS
10
2.81496
20
-3.2874
11
2.88583
21
-3.2874
0
LINE
8
BLACK
6
CONTINUOUS
10
2.88583
20
-3.2874
11
2.88583
21
-3.42126
0
LINE
8
BLACK
6
CONTINUOUS
10
3.61024
20
-3.41732
11
3.5748
21
-3.41732
0
LINE
8
BLACK
6
CONTINUOUS
10
3.5748
20
-3.41732
11
3.5748
21
-3.39764
0
LINE
8
BLACK
6
CONTINUOUS
10
3.5748
20
-3.39764
11
3.61024
21
-3.39764
0
LINE
8
BLACK
6
CONTINUOUS
10
3.61024
20
-3.39764
11
3.61024
21
-3.41732
0
LINE
8
BLACK
6
CONTINUOUS
10
3.80472
20
-3.40039
11
3.78583
21
-3.40039
0
LINE
8
BLACK
6
CONTINUOUS
10
3.78583
20
-3.40039
11
3.78583
21
-3.39094
0
LINE
8
BLACK
6
CONTINUOUS
10
3.78583
20
-3.39094
11
3.80472
21
-3.39094
0
LINE
8
BLACK
6
CONTINUOUS
10
3.80472
20
-3.39094
11
3.80472
21
-3.40039
0
LINE
8
BLACK
6
CONTINUOUS
10
3.65512
20
-3.40039
11
3.63622
21
-3.40039
0
LINE
8
BLACK
6
CONTINUOUS
10
3.63622
20
-3.40039
11
3.63622
21
-3.39094
0
LINE
8
BLACK
6
CONTINUOUS
10
3.63622
20
-3.39094
11
3.65512
21
-3.39094
0
LINE
8
BLACK
6
CONTINUOUS
10
3.65512
20
-3.39094
11
3.65512
21
-3.40039
0
LINE
8
BLACK
6
CONTINUOUS
10
3.26378
20
-3.39114
11
3.23228
21
-3.39114
0
LINE
8
BLACK
6
CONTINUOUS
10
3.23228
20
-3.39114
11
3.23228
21
-3.36752
0
LINE
8
BLACK
6
CONTINUOUS
10
3.23228
20
-3.36752
11
3.26378
21
-3.36752
0
LINE
8
BLACK
6
CONTINUOUS
10
3.26378
20
-3.36752
11
3.26378
21
-3.39114
0
LINE
8
BLACK
6
CONTINUOUS
10
4.08465
20
-3.38583
11
4.04921
21
-3.38583
0
LINE
8
BLACK
6
CONTINUOUS
10
4.04921
20
-3.38583
11
4.04921
21
-3.3189
0
LINE
8
BLACK
6
CONTINUOUS
10
4.04921
20
-3.3189
11
4.08465
21
-3.3189
0
LINE
8
BLACK
6
CONTINUOUS
10
4.08465
20
-3.3189
11
4.08465
21
-3.38583
0
LINE
8
BLACK
6
CONTINUOUS
10
4.19882
20
-3.38583
11
4.16339
21
-3.38583
0
LINE
8
BLACK
6
CONTINUOUS
10
4.16339
20
-3.38583
11
4.16339
21
-3.3189
0
LINE
8
BLACK
6
CONTINUOUS
10
4.16339
20
-3.3189
11
4.19882
21
-3.3189
0
LINE
8
BLACK
6
CONTINUOUS
10
4.19882
20
-3.3189
11
4.19882
21
-3.38583
0
LINE
8
BLACK
6
CONTINUOUS
10
4.24409
20
-3.38583
11
4.20866
21
-3.38583
0
LINE
8
BLACK
6
CONTINUOUS
10
4.20866
20
-3.38583
11
4.20866
21
-3.3189
0
LINE
8
BLACK
6
CONTINUOUS
10
4.20866
20
-3.3189
11
4.24409
21
-3.3189
0
LINE
8
BLACK
6
CONTINUOUS
10
4.24409
20
-3.3189
11
4.24409
21
-3.38583
0
LINE
8
BLACK
6
CONTINUOUS
10
4.35827
20
-3.38583
11
4.32283
21
-3.38583
0
LINE
8
BLACK
6
CONTINUOUS
10
4.32283
20
-3.38583
11
4.32283
21
-3.3189
0
LINE
8
BLACK
6
CONTINUOUS
10
4.32283
20
-3.3189
11
4.35827
21
-3.3189
0
LINE
8
BLACK
6
CONTINUOUS
10
4.35827
20
-3.3189
11
4.35827
21
-3.38583
0
LINE
8
BLACK
6
CONTINUOUS
10
3.9252
20
-3.38583
11
3.88976
21
-3.38583
0
LINE
8
BLACK
6
CONTINUOUS
10
3.88976
20
-3.38583
11
3.88976
21
-3.3189
0
LINE
8
BLACK
6
CONTINUOUS
10
3.88976
20
-3.3189
11
3.9252
21
-3.3189
0
LINE
8
BLACK
6
CONTINUOUS
10
3.9252
20
-3.3189
11
3.9252
21
-3.38583
0
LINE
8
BLACK
6
CONTINUOUS
10
4.03937
20
-3.38583
11
4.00394
21
-3.38583
0
LINE
8
BLACK
6
CONTINUOUS
10
4.00394
20
-3.38583
11
4.00394
21
-3.3189
0
LINE
8
BLACK
6
CONTINUOUS
10
4.00394
20
-3.3189
11
4.03937
21
-3.3189
0
LINE
8
BLACK
6
CONTINUOUS
10
4.03937
20
-3.3189
11
4.03937
21
-3.38583
0
LINE
8
BLACK
6
CONTINUOUS
10
5.07677
20
-3.37992
11
5.04134
21
-3.37992
0
LINE
8
BLACK
6
CONTINUOUS
10
5.04134
20
-3.37992
11
5.04134
21
-3.34843
0
LINE
8
BLACK
6
CONTINUOUS
10
5.04134
20
-3.34843
11
5.07677
21
-3.34843
0
LINE
8
BLACK
6
CONTINUOUS
10
5.07677
20
-3.34843
11
5.07677
21
-3.37992
0
LINE
8
BLACK
6
CONTINUOUS
10
4.71516
20
-3.37573
11
4.70618
21
-3.37573
0
LINE
8
BLACK
6
CONTINUOUS
10
4.70618
20
-3.37573
11
4.70618
21
-3.33682
0
LINE
8
BLACK
6
CONTINUOUS
10
4.70618
20
-3.33682
11
4.71516
21
-3.33682
0
LINE
8
BLACK
6
CONTINUOUS
10
4.71516
20
-3.33682
11
4.71516
21
-3.37573
0
LINE
8
BLACK
6
CONTINUOUS
10
4.69546
20
-3.37573
11
4.68648
21
-3.37573
0
LINE
8
BLACK
6
CONTINUOUS
10
4.68648
20
-3.37573
11
4.68648
21
-3.33682
0
LINE
8
BLACK
6
CONTINUOUS
10
4.68648
20
-3.33682
11
4.69546
21
-3.33682
0
LINE
8
BLACK
6
CONTINUOUS
10
4.69546
20
-3.33682
11
4.69546
21
-3.37573
0
LINE
8
BLACK
6
CONTINUOUS
10
4.75446
20
-3.37573
11
4.74548
21
-3.37573
0
LINE
8
BLACK
6
CONTINUOUS
10
4.74548
20
-3.37573
11
4.74548
21
-3.33682
0
LINE
8
BLACK
6
CONTINUOUS
10
4.74548
20
-3.33682
11
4.75446
21
-3.33682
0
LINE
8
BLACK
6
CONTINUOUS
10
4.75446
20
-3.33682
11
4.75446
21
-3.37573
0
LINE
8
BLACK
6
CONTINUOUS
10
4.73476
20
-3.37573
11
4.72578
21
-3.37573
0
LINE
8
BLACK
6
CONTINUOUS
10
4.72578
20
-3.37573
11
4.72578
21
-3.33682
0
LINE
8
BLACK
6
CONTINUOUS
10
4.72578
20
-3.33682
11
4.73476
21
-3.33682
0
LINE
8
BLACK
6
CONTINUOUS
10
4.73476
20
-3.33682
11
4.73476
21
-3.37573
0
LINE
8
BLACK
6
CONTINUOUS
10
4.77416
20
-3.37573
11
4.76518
21
-3.37573
0
LINE
8
BLACK
6
CONTINUOUS
10
4.76518
20
-3.37573
11
4.76518
21
-3.33682
0
LINE
8
BLACK
6
CONTINUOUS
10
4.76518
20
-3.33682
11
4.77416
21
-3.33682
0
LINE
8
BLACK
6
CONTINUOUS
10
4.77416
20
-3.33682
11
4.77416
21
-3.37573
0
LINE
8
BLACK
6
CONTINUOUS
10
4.87256
20
-3.37573
11
4.86358
21
-3.37573
0
LINE
8
BLACK
6
CONTINUOUS
10
4.86358
20
-3.37573
11
4.86358
21
-3.33682
0
LINE
8
BLACK
6
CONTINUOUS
10
4.86358
20
-3.33682
11
4.87256
21
-3.33682
0
LINE
8
BLACK
6
CONTINUOUS
10
4.87256
20
-3.33682
11
4.87256
21
-3.37573
0
LINE
8
BLACK
6
CONTINUOUS
10
4.57736
20
-3.37573
11
4.56838
21
-3.37573
0
LINE
8
BLACK
6
CONTINUOUS
10
4.56838
20
-3.37573
11
4.56838
21
-3.33682
0
LINE
8
BLACK
6
CONTINUOUS
10
4.56838
20
-3.33682
11
4.57736
21
-3.33682
0
LINE
8
BLACK
6
CONTINUOUS
10
4.57736
20
-3.33682
11
4.57736
21
-3.37573
0
LINE
8
BLACK
6
CONTINUOUS
10
4.59696
20
-3.37573
11
4.58798
21
-3.37573
0
LINE
8
BLACK
6
CONTINUOUS
10
4.58798
20
-3.37573
11
4.58798
21
-3.33682
0
LINE
8
BLACK
6
CONTINUOUS
10
4.58798
20
-3.33682
11
4.59696
21
-3.33682
0
LINE
8
BLACK
6
CONTINUOUS
10
4.59696
20
-3.33682
11
4.59696
21
-3.37573
0
LINE
8
BLACK
6
CONTINUOUS
10
4.61666
20
-3.37573
11
4.60768
21
-3.37573
0
LINE
8
BLACK
6
CONTINUOUS
10
4.60768
20
-3.37573
11
4.60768
21
-3.33682
0
LINE
8
BLACK
6
CONTINUOUS
10
4.60768
20
-3.33682
11
4.61666
21
-3.33682
0
LINE
8
BLACK
6
CONTINUOUS
10
4.61666
20
-3.33682
11
4.61666
21
-3.37573
0
LINE
8
BLACK
6
CONTINUOUS
10
4.63636
20
-3.37573
11
4.62738
21
-3.37573
0
LINE
8
BLACK
6
CONTINUOUS
10
4.62738
20
-3.37573
11
4.62738
21
-3.33682
0
LINE
8
BLACK
6
CONTINUOUS
10
4.62738
20
-3.33682
11
4.63636
21
-3.33682
0
LINE
8
BLACK
6
CONTINUOUS
10
4.63636
20
-3.33682
11
4.63636
21
-3.37573
0
LINE
8
BLACK
6
CONTINUOUS
10
4.65606
20
-3.37573
11
4.64708
21
-3.37573
0
LINE
8
BLACK
6
CONTINUOUS
10
4.64708
20
-3.37573
11
4.64708
21
-3.33682
0
LINE
8
BLACK
6
CONTINUOUS
10
4.64708
20
-3.33682
11
4.65606
21
-3.33682
0
LINE
8
BLACK
6
CONTINUOUS
10
4.65606
20
-3.33682
11
4.65606
21
-3.37573
0
LINE
8
BLACK
6
CONTINUOUS
10
4.67576
20
-3.37573
11
4.66678
21
-3.37573
0
LINE
8
BLACK
6
CONTINUOUS
10
4.66678
20
-3.37573
11
4.66678
21
-3.33682
0
LINE
8
BLACK
6
CONTINUOUS
10
4.66678
20
-3.33682
11
4.67576
21
-3.33682
0
LINE
8
BLACK
6
CONTINUOUS
10
4.67576
20
-3.33682
11
4.67576
21
-3.37573
0
LINE
8
BLACK
6
CONTINUOUS
10
4.85296
20
-3.37573
11
4.84398
21
-3.37573
0
LINE
8
BLACK
6
CONTINUOUS
10
4.84398
20
-3.37573
11
4.84398
21
-3.33682
0
LINE
8
BLACK
6
CONTINUOUS
10
4.84398
20
-3.33682
11
4.85296
21
-3.33682
0
LINE
8
BLACK
6
CONTINUOUS
10
4.85296
20
-3.33682
11
4.85296
21
-3.37573
0
LINE
8
BLACK
6
CONTINUOUS
10
4.83326
20
-3.37573
11
4.82428
21
-3.37573
0
LINE
8
BLACK
6
CONTINUOUS
10
4.82428
20
-3.37573
11
4.82428
21
-3.33682
0
LINE
8
BLACK
6
CONTINUOUS
10
4.82428
20
-3.33682
11
4.83326
21
-3.33682
0
LINE
8
BLACK
6
CONTINUOUS
10
4.83326
20
-3.33682
11
4.83326
21
-3.37573
0
LINE
8
BLACK
6
CONTINUOUS
10
4.81356
20
-3.37573
11
4.80458
21
-3.37573
0
LINE
8
BLACK
6
CONTINUOUS
10
4.80458
20
-3.37573
11
4.80458
21
-3.33682
0
LINE
8
BLACK
6
CONTINUOUS
10
4.80458
20
-3.33682
11
4.81356
21
-3.33682
0
LINE
8
BLACK
6
CONTINUOUS
10
4.81356
20
-3.33682
11
4.81356
21
-3.37573
0
LINE
8
BLACK
6
CONTINUOUS
10
4.79386
20
-3.37573
11
4.78488
21
-3.37573
0
LINE
8
BLACK
6
CONTINUOUS
10
4.78488
20
-3.37573
11
4.78488
21
-3.33682
0
LINE
8
BLACK
6
CONTINUOUS
10
4.78488
20
-3.33682
11
4.79386
21
-3.33682
0
LINE
8
BLACK
6
CONTINUOUS
10
4.79386
20
-3.33682
11
4.79386
21
-3.37573
0
LINE
8
BLACK
6
CONTINUOUS
10
5.02657
20
-3.37205
11
4.99705
21
-3.37205
0
LINE
8
BLACK
6
CONTINUOUS
10
4.99705
20
-3.37205
11
4.99705
21
-3.34055
0
LINE
8
BLACK
6
CONTINUOUS
10
4.99705
20
-3.34055
11
5.02657
21
-3.34055
0
LINE
8
BLACK
6
CONTINUOUS
10
5.02657
20
-3.34055
11
5.02657
21
-3.37205
0
LINE
8
BLACK
6
CONTINUOUS
10
5.1998
20
-3.37205
11
5.17028
21
-3.37205
0
LINE
8
BLACK
6
CONTINUOUS
10
5.17028
20
-3.37205
11
5.17028
21
-3.34055
0
LINE
8
BLACK
6
CONTINUOUS
10
5.17028
20
-3.34055
11
5.1998
21
-3.34055
0
LINE
8
BLACK
6
CONTINUOUS
10
5.1998
20
-3.34055
11
5.1998
21
-3.37205
0
LINE
8
BLACK
6
CONTINUOUS
10
3.80472
20
-3.3689
11
3.78583
21
-3.3689
0
LINE
8
BLACK
6
CONTINUOUS
10
3.78583
20
-3.3689
11
3.78583
21
-3.35945
0
LINE
8
BLACK
6
CONTINUOUS
10
3.78583
20
-3.35945
11
3.80472
21
-3.35945
0
LINE
8
BLACK
6
CONTINUOUS
10
3.80472
20
-3.35945
11
3.80472
21
-3.3689
0
LINE
8
BLACK
6
CONTINUOUS
10
3.65512
20
-3.3689
11
3.63622
21
-3.3689
0
LINE
8
BLACK
6
CONTINUOUS
10
3.63622
20
-3.3689
11
3.63622
21
-3.35945
0
LINE
8
BLACK
6
CONTINUOUS
10
3.63622
20
-3.35945
11
3.65512
21
-3.35945
0
LINE
8
BLACK
6
CONTINUOUS
10
3.65512
20
-3.35945
11
3.65512
21
-3.3689
0
LINE
8
BLACK
6
CONTINUOUS
10
3.54823
20
-3.36417
11
3.5187
21
-3.36417
0
LINE
8
BLACK
6
CONTINUOUS
10
3.5187
20
-3.36417
11
3.5187
21
-3.33268
0
LINE
8
BLACK
6
CONTINUOUS
10
3.5187
20
-3.33268
11
3.54823
21
-3.33268
0
LINE
8
BLACK
6
CONTINUOUS
10
3.54823
20
-3.33268
11
3.54823
21
-3.36417
0
LINE
8
BLACK
6
CONTINUOUS
10
3.61024
20
-3.35827
11
3.5748
21
-3.35827
0
LINE
8
BLACK
6
CONTINUOUS
10
3.5748
20
-3.35827
11
3.5748
21
-3.33858
0
LINE
8
BLACK
6
CONTINUOUS
10
3.5748
20
-3.33858
11
3.61024
21
-3.33858
0
LINE
8
BLACK
6
CONTINUOUS
10
3.61024
20
-3.33858
11
3.61024
21
-3.35827
0
LINE
8
BLACK
6
CONTINUOUS
10
5.15551
20
-3.34252
11
5.12008
21
-3.34252
0
LINE
8
BLACK
6
CONTINUOUS
10
5.12008
20
-3.34252
11
5.12008
21
-3.31102
0
LINE
8
BLACK
6
CONTINUOUS
10
5.12008
20
-3.31102
11
5.15551
21
-3.31102
0
LINE
8
BLACK
6
CONTINUOUS
10
5.15551
20
-3.31102
11
5.15551
21
-3.34252
0
LINE
8
BLACK
6
CONTINUOUS
10
3.26378
20
-3.34114
11
3.23228
21
-3.34114
0
LINE
8
BLACK
6
CONTINUOUS
10
3.23228
20
-3.34114
11
3.23228
21
-3.31752
0
LINE
8
BLACK
6
CONTINUOUS
10
3.23228
20
-3.31752
11
3.26378
21
-3.31752
0
LINE
8
BLACK
6
CONTINUOUS
10
3.26378
20
-3.31752
11
3.26378
21
-3.34114
0
LINE
8
BLACK
6
CONTINUOUS
10
3.80472
20
-3.3374
11
3.78583
21
-3.3374
0
LINE
8
BLACK
6
CONTINUOUS
10
3.78583
20
-3.3374
11
3.78583
21
-3.32795
0
LINE
8
BLACK
6
CONTINUOUS
10
3.78583
20
-3.32795
11
3.80472
21
-3.32795
0
LINE
8
BLACK
6
CONTINUOUS
10
3.80472
20
-3.32795
11
3.80472
21
-3.3374
0
LINE
8
BLACK
6
CONTINUOUS
10
3.65512
20
-3.3374
11
3.63622
21
-3.3374
0
LINE
8
BLACK
6
CONTINUOUS
10
3.63622
20
-3.3374
11
3.63622
21
-3.32795
0
LINE
8
BLACK
6
CONTINUOUS
10
3.63622
20
-3.32795
11
3.65512
21
-3.32795
0
LINE
8
BLACK
6
CONTINUOUS
10
3.65512
20
-3.32795
11
3.65512
21
-3.3374
0
LINE
8
BLACK
6
CONTINUOUS
10
5.02657
20
-3.31299
11
4.99705
21
-3.31299
0
LINE
8
BLACK
6
CONTINUOUS
10
4.99705
20
-3.31299
11
4.99705
21
-3.2815
0
LINE
8
BLACK
6
CONTINUOUS
10
4.99705
20
-3.2815
11
5.02657
21
-3.2815
0
LINE
8
BLACK
6
CONTINUOUS
10
5.02657
20
-3.2815
11
5.02657
21
-3.31299
0
LINE
8
BLACK
6
CONTINUOUS
10
5.1998
20
-3.31299
11
5.17028
21
-3.31299
0
LINE
8
BLACK
6
CONTINUOUS
10
5.17028
20
-3.31299
11
5.17028
21
-3.2815
0
LINE
8
BLACK
6
CONTINUOUS
10
5.17028
20
-3.2815
11
5.1998
21
-3.2815
0
LINE
8
BLACK
6
CONTINUOUS
10
5.1998
20
-3.2815
11
5.1998
21
-3.31299
0
LINE
8
BLACK
6
CONTINUOUS
10
5.07677
20
-3.30512
11
5.04134
21
-3.30512
0
LINE
8
BLACK
6
CONTINUOUS
10
5.04134
20
-3.30512
11
5.04134
21
-3.27362
0
LINE
8
BLACK
6
CONTINUOUS
10
5.04134
20
-3.27362
11
5.07677
21
-3.27362
0
LINE
8
BLACK
6
CONTINUOUS
10
5.07677
20
-3.27362
11
5.07677
21
-3.30512
0
LINE
8
BLACK
6
CONTINUOUS
10
4.78543
20
-3.30217
11
4.75394
21
-3.30217
0
LINE
8
BLACK
6
CONTINUOUS
10
4.75394
20
-3.30217
11
4.75394
21
-3.27264
0
LINE
8
BLACK
6
CONTINUOUS
10
4.75394
20
-3.27264
11
4.78543
21
-3.27264
0
LINE
8
BLACK
6
CONTINUOUS
10
4.78543
20
-3.27264
11
4.78543
21
-3.30217
0
LINE
8
BLACK
6
CONTINUOUS
10
4.90354
20
-3.30217
11
4.87205
21
-3.30217
0
LINE
8
BLACK
6
CONTINUOUS
10
4.87205
20
-3.30217
11
4.87205
21
-3.27264
0
LINE
8
BLACK
6
CONTINUOUS
10
4.87205
20
-3.27264
11
4.90354
21
-3.27264
0
LINE
8
BLACK
6
CONTINUOUS
10
4.90354
20
-3.27264
11
4.90354
21
-3.30217
0
LINE
8
BLACK
6
CONTINUOUS
10
4.9626
20
-3.30217
11
4.9311
21
-3.30217
0
LINE
8
BLACK
6
CONTINUOUS
10
4.9311
20
-3.30217
11
4.9311
21
-3.27264
0
LINE
8
BLACK
6
CONTINUOUS
10
4.9311
20
-3.27264
11
4.9626
21
-3.27264
0
LINE
8
BLACK
6
CONTINUOUS
10
4.9626
20
-3.27264
11
4.9626
21
-3.30217
0
LINE
8
BLACK
6
CONTINUOUS
10
4.84449
20
-3.30217
11
4.81299
21
-3.30217
0
LINE
8
BLACK
6
CONTINUOUS
10
4.81299
20
-3.30217
11
4.81299
21
-3.27264
0
LINE
8
BLACK
6
CONTINUOUS
10
4.81299
20
-3.27264
11
4.84449
21
-3.27264
0
LINE
8
BLACK
6
CONTINUOUS
10
4.84449
20
-3.27264
11
4.84449
21
-3.30217
0
LINE
8
BLACK
6
CONTINUOUS
10
3.26378
20
-3.29114
11
3.23228
21
-3.29114
0
LINE
8
BLACK
6
CONTINUOUS
10
3.23228
20
-3.29114
11
3.23228
21
-3.26752
0
LINE
8
BLACK
6
CONTINUOUS
10
3.23228
20
-3.26752
11
3.26378
21
-3.26752
0
LINE
8
BLACK
6
CONTINUOUS
10
3.26378
20
-3.26752
11
3.26378
21
-3.29114
0
LINE
8
BLACK
6
CONTINUOUS
10
3.48238
20
-3.29114
11
3.469
21
-3.29114
0
LINE
8
BLACK
6
CONTINUOUS
10
3.469
20
-3.29114
11
3.469
21
-3.26752
0
LINE
8
BLACK
6
CONTINUOUS
10
3.469
20
-3.26752
11
3.48238
21
-3.26752
0
LINE
8
BLACK
6
CONTINUOUS
10
3.48238
20
-3.26752
11
3.48238
21
-3.29114
0
LINE
8
BLACK
6
CONTINUOUS
10
3.35451
20
-3.26262
11
3.326
21
-3.26262
0
LINE
8
BLACK
6
CONTINUOUS
10
3.326
20
-3.26262
11
3.326
21
-3.24703
0
LINE
8
BLACK
6
CONTINUOUS
10
3.326
20
-3.24703
11
3.35451
21
-3.24703
0
LINE
8
BLACK
6
CONTINUOUS
10
3.35451
20
-3.24703
11
3.35451
21
-3.26262
  0
ENDSEC
  0
EOF
