  0
SECTION
  2
HEADER
  9
$ANGBASE
  50
0.0
  9
$ANGDIR
  70
1
  9
$MEASUREMENT
  70
0
  0
ENDSEC
  0
SECTION
  2
TABLES
  0
TABLE
  2
LTYPE
  70
4
  0
LTYPE
  5
40F
  2
CONTINUOUS
  70
0
  3
Solid line
  72
65
  73
0
  40
0.0
  0
LTYPE
  5
410
  2
DASHDOT
 70
0
  3
Dash Dot ____ _ ____ _
 72
65
 73
4
 40
2.0
 49
1.25
 49
-0.25
 49
0.25
 49
-0.25
  0
LTYPE
  5
411
  2
DASHED
 70
0
  3
Dashed __ __ __ __ __
 72
65
 73
2
 40
0.75
 49
0.5
 49
-0.25
  0
LTYPE
  5
43B
  2
DOTTED
 70
0
  3
Dotted .  .  .  .
 72
65
 73
2
 40
0.2
 49
0.0
 49
-0.2
  0
ENDTAB
  0
TABLE
  2
STYLE
  70
4
  0
STYLE
  2
KICAD
  70
0
  40
0
  41
1
  42
1
  50
0
  71
0
  3
isocp.shx
  0
STYLE
  2
KICADB
  70
0
  40
0
  41
1
  42
1
  50
0
  71
0
  3
isocp.shx
  0
STYLE
  2
KICADI
  70
0
  40
0
  41
1
  42
1
  50
15
  71
0
  3
isocp.shx
  0
STYLE
  2
KICADBI
  70
0
  40
0
  41
1
  42
1
  50
15
  71
0
  3
isocp.shx
  0
ENDTAB
  0
TABLE
  2
LAYER
  70
1
  0
LAYER
  2
BLACK
  70
0
  62
7
  6
CONTINUOUS
  0
ENDTAB
  0
ENDSEC
  0
SECTION
  2
ENTITIES
0
LINE
8
BLACK
6
CONTINUOUS
10
3.06398
20
-3.81988
11
3.12205
21
-3.81988
0
LINE
8
BLACK
6
CONTINUOUS
10
3.12205
20
-3.81988
11
3.12274
21
-3.82017
0
LINE
8
BLACK
6
CONTINUOUS
10
3.12274
20
-3.82017
11
3.12303
21
-3.82087
0
LINE
8
BLACK
6
CONTINUOUS
10
3.12303
20
-3.82087
11
3.12303
21
-3.92323
0
LINE
8
BLACK
6
CONTINUOUS
10
3.12303
20
-3.92323
11
3.12274
21
-3.92392
0
LINE
8
BLACK
6
CONTINUOUS
10
3.12274
20
-3.92392
11
3.12205
21
-3.92421
0
LINE
8
BLACK
6
CONTINUOUS
10
3.12205
20
-3.92421
11
3.05906
21
-3.92421
0
LINE
8
BLACK
6
CONTINUOUS
10
3.05906
20
-3.92421
11
3.05836
21
-3.92392
0
LINE
8
BLACK
6
CONTINUOUS
10
3.05836
20
-3.92392
11
3.05807
21
-3.92323
0
LINE
8
BLACK
6
CONTINUOUS
10
3.05807
20
-3.92323
11
3.05807
21
-3.92224
0
LINE
8
BLACK
6
CONTINUOUS
10
3.05807
20
-3.92224
11
2.84252
21
-3.92224
0
LINE
8
BLACK
6
CONTINUOUS
10
2.84252
20
-3.92224
11
2.84182
21
-3.92196
0
LINE
8
BLACK
6
CONTINUOUS
10
2.84182
20
-3.92196
11
2.84154
21
-3.92126
0
LINE
8
BLACK
6
CONTINUOUS
10
2.84154
20
-3.92126
11
2.84154
21
-3.77953
0
LINE
8
BLACK
6
CONTINUOUS
10
2.84154
20
-3.77953
11
2.84182
21
-3.77883
0
LINE
8
BLACK
6
CONTINUOUS
10
2.84182
20
-3.77883
11
2.84252
21
-3.77854
0
LINE
8
BLACK
6
CONTINUOUS
10
2.84252
20
-3.77854
11
2.89764
21
-3.77854
0
LINE
8
BLACK
6
CONTINUOUS
10
2.89764
20
-3.77854
11
2.89694
21
-3.77826
0
LINE
8
BLACK
6
CONTINUOUS
10
2.89694
20
-3.77826
11
2.89665
21
-3.77756
0
LINE
8
BLACK
6
CONTINUOUS
10
2.89665
20
-3.77756
11
2.89665
21
-3.7185
0
LINE
8
BLACK
6
CONTINUOUS
10
2.89665
20
-3.7185
11
2.89694
21
-3.71781
0
LINE
8
BLACK
6
CONTINUOUS
10
2.89694
20
-3.71781
11
2.89764
21
-3.71752
0
LINE
8
BLACK
6
CONTINUOUS
10
2.89764
20
-3.71752
11
3.01181
21
-3.71752
0
LINE
8
BLACK
6
CONTINUOUS
10
3.01181
20
-3.71752
11
3.01251
21
-3.71781
0
LINE
8
BLACK
6
CONTINUOUS
10
3.01251
20
-3.71781
11
3.0128
21
-3.7185
0
LINE
8
BLACK
6
CONTINUOUS
10
3.0128
20
-3.7185
11
3.0128
21
-3.77756
0
LINE
8
BLACK
6
CONTINUOUS
10
3.0128
20
-3.77756
11
3.01251
21
-3.77826
0
LINE
8
BLACK
6
CONTINUOUS
10
3.01251
20
-3.77826
11
3.01181
21
-3.77854
0
LINE
8
BLACK
6
CONTINUOUS
10
3.01181
20
-3.77854
11
3.05807
21
-3.77854
0
LINE
8
BLACK
6
CONTINUOUS
10
3.05807
20
-3.77854
11
3.05807
21
-3.7126
0
LINE
8
BLACK
6
CONTINUOUS
10
3.05807
20
-3.7126
11
3.05836
21
-3.7119
0
LINE
8
BLACK
6
CONTINUOUS
10
3.05836
20
-3.7119
11
3.05906
21
-3.71161
0
LINE
8
BLACK
6
CONTINUOUS
10
3.05906
20
-3.71161
11
3.12205
21
-3.71161
0
LINE
8
BLACK
6
CONTINUOUS
10
3.12205
20
-3.71161
11
3.12274
21
-3.7119
0
LINE
8
BLACK
6
CONTINUOUS
10
3.12274
20
-3.7119
11
3.12303
21
-3.7126
0
LINE
8
BLACK
6
CONTINUOUS
10
3.12303
20
-3.7126
11
3.12303
21
-3.81496
0
LINE
8
BLACK
6
CONTINUOUS
10
3.12303
20
-3.81496
11
3.12274
21
-3.81566
0
LINE
8
BLACK
6
CONTINUOUS
10
3.12274
20
-3.81566
11
3.12205
21
-3.81594
0
LINE
8
BLACK
6
CONTINUOUS
10
3.12205
20
-3.81594
11
3.06398
21
-3.81594
0
LINE
8
BLACK
6
CONTINUOUS
10
3.06398
20
-3.81594
11
3.06398
21
-3.81988
0
LINE
8
BLACK
6
CONTINUOUS
10
3.12106
20
-3.82185
11
3.06398
21
-3.82185
0
LINE
8
BLACK
6
CONTINUOUS
10
3.06398
20
-3.82185
11
3.06398
21
-3.92126
0
LINE
8
BLACK
6
CONTINUOUS
10
3.06398
20
-3.92126
11
3.06369
21
-3.92196
0
LINE
8
BLACK
6
CONTINUOUS
10
3.06369
20
-3.92196
11
3.06299
21
-3.92224
0
LINE
8
BLACK
6
CONTINUOUS
10
3.06299
20
-3.92224
11
3.12106
21
-3.92224
0
LINE
8
BLACK
6
CONTINUOUS
10
3.12106
20
-3.92224
11
3.12106
21
-3.82185
0
LINE
8
BLACK
6
CONTINUOUS
10
2.8435
20
-3.78051
11
2.8435
21
-3.92028
0
LINE
8
BLACK
6
CONTINUOUS
10
2.8435
20
-3.92028
11
3.05807
21
-3.92028
0
LINE
8
BLACK
6
CONTINUOUS
10
3.05807
20
-3.92028
11
3.05807
21
-3.82087
0
LINE
8
BLACK
6
CONTINUOUS
10
3.05807
20
-3.82087
11
3.05836
21
-3.82017
0
LINE
8
BLACK
6
CONTINUOUS
10
3.05836
20
-3.82017
11
3.05906
21
-3.81988
0
LINE
8
BLACK
6
CONTINUOUS
10
3.05906
20
-3.81988
11
3.06201
21
-3.81988
0
LINE
8
BLACK
6
CONTINUOUS
10
3.06201
20
-3.81988
11
3.06201
21
-3.81594
0
LINE
8
BLACK
6
CONTINUOUS
10
3.06201
20
-3.81594
11
3.05906
21
-3.81594
0
LINE
8
BLACK
6
CONTINUOUS
10
3.05906
20
-3.81594
11
3.05836
21
-3.81566
0
LINE
8
BLACK
6
CONTINUOUS
10
3.05836
20
-3.81566
11
3.05807
21
-3.81496
0
LINE
8
BLACK
6
CONTINUOUS
10
3.05807
20
-3.81496
11
3.05807
21
-3.78051
0
LINE
8
BLACK
6
CONTINUOUS
10
3.05807
20
-3.78051
11
2.8435
21
-3.78051
0
LINE
8
BLACK
6
CONTINUOUS
10
3.06004
20
-3.82185
11
3.06004
21
-3.92028
0
LINE
8
BLACK
6
CONTINUOUS
10
3.06004
20
-3.92028
11
3.06201
21
-3.92028
0
LINE
8
BLACK
6
CONTINUOUS
10
3.06201
20
-3.92028
11
3.06201
21
-3.82185
0
LINE
8
BLACK
6
CONTINUOUS
10
3.06201
20
-3.82185
11
3.06004
21
-3.82185
0
LINE
8
BLACK
6
CONTINUOUS
10
3.06004
20
-3.78051
11
3.06004
21
-3.81398
0
LINE
8
BLACK
6
CONTINUOUS
10
3.06004
20
-3.81398
11
3.06201
21
-3.81398
0
LINE
8
BLACK
6
CONTINUOUS
10
3.06201
20
-3.81398
11
3.06201
21
-3.78051
0
LINE
8
BLACK
6
CONTINUOUS
10
3.06201
20
-3.78051
11
3.06004
21
-3.78051
0
LINE
8
BLACK
6
CONTINUOUS
10
3.06398
20
-3.77953
11
3.06398
21
-3.81398
0
LINE
8
BLACK
6
CONTINUOUS
10
3.06398
20
-3.81398
11
3.12106
21
-3.81398
0
LINE
8
BLACK
6
CONTINUOUS
10
3.12106
20
-3.81398
11
3.12106
21
-3.71358
0
LINE
8
BLACK
6
CONTINUOUS
10
3.12106
20
-3.71358
11
3.06004
21
-3.71358
0
LINE
8
BLACK
6
CONTINUOUS
10
3.06004
20
-3.71358
11
3.06004
21
-3.77854
0
LINE
8
BLACK
6
CONTINUOUS
10
3.06004
20
-3.77854
11
3.06299
21
-3.77854
0
LINE
8
BLACK
6
CONTINUOUS
10
3.06299
20
-3.77854
11
3.06369
21
-3.77883
0
LINE
8
BLACK
6
CONTINUOUS
10
3.06369
20
-3.77883
11
3.06398
21
-3.77953
0
LINE
8
BLACK
6
CONTINUOUS
10
2.89862
20
-3.71949
11
2.89862
21
-3.77657
0
LINE
8
BLACK
6
CONTINUOUS
10
2.89862
20
-3.77657
11
3.01083
21
-3.77657
0
LINE
8
BLACK
6
CONTINUOUS
10
3.01083
20
-3.77657
11
3.01083
21
-3.71949
0
LINE
8
BLACK
6
CONTINUOUS
10
3.01083
20
-3.71949
11
2.89862
21
-3.71949
0
LINE
8
BLACK
6
CONTINUOUS
10
4.59576
20
-3.90098
11
4.59547
21
-3.90028
0
LINE
8
BLACK
6
CONTINUOUS
10
4.59547
20
-3.90028
11
4.59547
21
-3.79004
0
LINE
8
BLACK
6
CONTINUOUS
10
4.59547
20
-3.79004
11
4.59576
21
-3.78935
0
LINE
8
BLACK
6
CONTINUOUS
10
4.59576
20
-3.78935
11
4.59646
21
-3.78906
0
LINE
8
BLACK
6
CONTINUOUS
10
4.59646
20
-3.78906
11
4.64764
21
-3.78906
0
LINE
8
BLACK
6
CONTINUOUS
10
4.64764
20
-3.78906
11
4.64833
21
-3.78935
0
LINE
8
BLACK
6
CONTINUOUS
10
4.64833
20
-3.78935
11
4.64862
21
-3.79004
0
LINE
8
BLACK
6
CONTINUOUS
10
4.64862
20
-3.79004
11
4.64862
21
-3.90028
0
LINE
8
BLACK
6
CONTINUOUS
10
4.64862
20
-3.90028
11
4.64833
21
-3.90098
0
LINE
8
BLACK
6
CONTINUOUS
10
4.64833
20
-3.90098
11
4.64764
21
-3.90126
0
LINE
8
BLACK
6
CONTINUOUS
10
4.64764
20
-3.90126
11
4.59646
21
-3.90126
0
LINE
8
BLACK
6
CONTINUOUS
10
4.59646
20
-3.90126
11
4.59576
21
-3.90098
0
LINE
8
BLACK
6
CONTINUOUS
10
4.59744
20
-3.79103
11
4.59744
21
-3.8993
0
LINE
8
BLACK
6
CONTINUOUS
10
4.59744
20
-3.8993
11
4.64665
21
-3.8993
0
LINE
8
BLACK
6
CONTINUOUS
10
4.64665
20
-3.8993
11
4.64665
21
-3.79103
0
LINE
8
BLACK
6
CONTINUOUS
10
4.64665
20
-3.79103
11
4.59744
21
-3.79103
0
LINE
8
BLACK
6
CONTINUOUS
10
4.956
20
-3.89833
11
4.95571
21
-3.89764
0
LINE
8
BLACK
6
CONTINUOUS
10
4.95571
20
-3.89764
11
4.95571
21
-3.90028
0
LINE
8
BLACK
6
CONTINUOUS
10
4.95571
20
-3.90028
11
4.95542
21
-3.90098
0
LINE
8
BLACK
6
CONTINUOUS
10
4.95542
20
-3.90098
11
4.95472
21
-3.90126
0
LINE
8
BLACK
6
CONTINUOUS
10
4.95472
20
-3.90126
11
4.90354
21
-3.90126
0
LINE
8
BLACK
6
CONTINUOUS
10
4.90354
20
-3.90126
11
4.90285
21
-3.90098
0
LINE
8
BLACK
6
CONTINUOUS
10
4.90285
20
-3.90098
11
4.90256
21
-3.90028
0
LINE
8
BLACK
6
CONTINUOUS
10
4.90256
20
-3.90028
11
4.90256
21
-3.79004
0
LINE
8
BLACK
6
CONTINUOUS
10
4.90256
20
-3.79004
11
4.90285
21
-3.78935
0
LINE
8
BLACK
6
CONTINUOUS
10
4.90285
20
-3.78935
11
4.90354
21
-3.78906
0
LINE
8
BLACK
6
CONTINUOUS
10
4.90354
20
-3.78906
11
4.95472
21
-3.78906
0
LINE
8
BLACK
6
CONTINUOUS
10
4.95472
20
-3.78906
11
4.95542
21
-3.78935
0
LINE
8
BLACK
6
CONTINUOUS
10
4.95542
20
-3.78935
11
4.95571
21
-3.79004
0
LINE
8
BLACK
6
CONTINUOUS
10
4.95571
20
-3.79004
11
4.95571
21
-3.7874
0
LINE
8
BLACK
6
CONTINUOUS
10
4.95571
20
-3.7874
11
4.956
21
-3.78671
0
LINE
8
BLACK
6
CONTINUOUS
10
4.956
20
-3.78671
11
4.95669
21
-3.78642
0
LINE
8
BLACK
6
CONTINUOUS
10
4.95669
20
-3.78642
11
5.00787
21
-3.78642
0
LINE
8
BLACK
6
CONTINUOUS
10
5.00787
20
-3.78642
11
5.00857
21
-3.78671
0
LINE
8
BLACK
6
CONTINUOUS
10
5.00857
20
-3.78671
11
5.00886
21
-3.7874
0
LINE
8
BLACK
6
CONTINUOUS
10
5.00886
20
-3.7874
11
5.00886
21
-3.89764
0
LINE
8
BLACK
6
CONTINUOUS
10
5.00886
20
-3.89764
11
5.00857
21
-3.89833
0
LINE
8
BLACK
6
CONTINUOUS
10
5.00857
20
-3.89833
11
5.00787
21
-3.89862
0
LINE
8
BLACK
6
CONTINUOUS
10
5.00787
20
-3.89862
11
4.95669
21
-3.89862
0
LINE
8
BLACK
6
CONTINUOUS
10
4.95669
20
-3.89862
11
4.956
21
-3.89833
0
LINE
8
BLACK
6
CONTINUOUS
10
4.90453
20
-3.79103
11
4.90453
21
-3.8993
0
LINE
8
BLACK
6
CONTINUOUS
10
4.90453
20
-3.8993
11
4.95374
21
-3.8993
0
LINE
8
BLACK
6
CONTINUOUS
10
4.95374
20
-3.8993
11
4.95374
21
-3.79103
0
LINE
8
BLACK
6
CONTINUOUS
10
4.95374
20
-3.79103
11
4.90453
21
-3.79103
0
LINE
8
BLACK
6
CONTINUOUS
10
4.95768
20
-3.78839
11
4.95768
21
-3.89665
0
LINE
8
BLACK
6
CONTINUOUS
10
4.95768
20
-3.89665
11
5.00689
21
-3.89665
0
LINE
8
BLACK
6
CONTINUOUS
10
5.00689
20
-3.89665
11
5.00689
21
-3.78839
0
LINE
8
BLACK
6
CONTINUOUS
10
5.00689
20
-3.78839
11
4.95768
21
-3.78839
0
LINE
8
BLACK
6
CONTINUOUS
10
5.12529
20
-3.89637
11
5.125
21
-3.89567
0
LINE
8
BLACK
6
CONTINUOUS
10
5.125
20
-3.89567
11
5.125
21
-3.89075
0
LINE
8
BLACK
6
CONTINUOUS
10
5.125
20
-3.89075
11
5.01772
21
-3.89075
0
LINE
8
BLACK
6
CONTINUOUS
10
5.01772
20
-3.89075
11
5.01702
21
-3.89046
0
LINE
8
BLACK
6
CONTINUOUS
10
5.01702
20
-3.89046
11
5.01673
21
-3.88976
0
LINE
8
BLACK
6
CONTINUOUS
10
5.01673
20
-3.88976
11
5.01673
21
-3.79134
0
LINE
8
BLACK
6
CONTINUOUS
10
5.01673
20
-3.79134
11
5.01702
21
-3.79064
0
LINE
8
BLACK
6
CONTINUOUS
10
5.01702
20
-3.79064
11
5.01772
21
-3.79035
0
LINE
8
BLACK
6
CONTINUOUS
10
5.01772
20
-3.79035
11
5.125
21
-3.79035
0
LINE
8
BLACK
6
CONTINUOUS
10
5.125
20
-3.79035
11
5.125
21
-3.78543
0
LINE
8
BLACK
6
CONTINUOUS
10
5.125
20
-3.78543
11
5.12529
21
-3.78474
0
LINE
8
BLACK
6
CONTINUOUS
10
5.12529
20
-3.78474
11
5.12598
21
-3.78445
0
LINE
8
BLACK
6
CONTINUOUS
10
5.12598
20
-3.78445
11
5.17717
21
-3.78445
0
LINE
8
BLACK
6
CONTINUOUS
10
5.17717
20
-3.78445
11
5.17786
21
-3.78474
0
LINE
8
BLACK
6
CONTINUOUS
10
5.17786
20
-3.78474
11
5.17815
21
-3.78543
0
LINE
8
BLACK
6
CONTINUOUS
10
5.17815
20
-3.78543
11
5.17815
21
-3.89567
0
LINE
8
BLACK
6
CONTINUOUS
10
5.17815
20
-3.89567
11
5.17786
21
-3.89637
0
LINE
8
BLACK
6
CONTINUOUS
10
5.17786
20
-3.89637
11
5.17717
21
-3.89665
0
LINE
8
BLACK
6
CONTINUOUS
10
5.17717
20
-3.89665
11
5.12598
21
-3.89665
0
LINE
8
BLACK
6
CONTINUOUS
10
5.12598
20
-3.89665
11
5.12529
21
-3.89637
0
LINE
8
BLACK
6
CONTINUOUS
10
5.12894
20
-3.79134
11
5.12894
21
-3.88976
0
LINE
8
BLACK
6
CONTINUOUS
10
5.12894
20
-3.88976
11
5.12865
21
-3.89046
0
LINE
8
BLACK
6
CONTINUOUS
10
5.12865
20
-3.89046
11
5.12795
21
-3.89075
0
LINE
8
BLACK
6
CONTINUOUS
10
5.12795
20
-3.89075
11
5.12697
21
-3.89075
0
LINE
8
BLACK
6
CONTINUOUS
10
5.12697
20
-3.89075
11
5.12697
21
-3.89469
0
LINE
8
BLACK
6
CONTINUOUS
10
5.12697
20
-3.89469
11
5.17618
21
-3.89469
0
LINE
8
BLACK
6
CONTINUOUS
10
5.17618
20
-3.89469
11
5.17618
21
-3.78642
0
LINE
8
BLACK
6
CONTINUOUS
10
5.17618
20
-3.78642
11
5.12697
21
-3.78642
0
LINE
8
BLACK
6
CONTINUOUS
10
5.12697
20
-3.78642
11
5.12697
21
-3.79035
0
LINE
8
BLACK
6
CONTINUOUS
10
5.12697
20
-3.79035
11
5.12795
21
-3.79035
0
LINE
8
BLACK
6
CONTINUOUS
10
5.12795
20
-3.79035
11
5.12865
21
-3.79064
0
LINE
8
BLACK
6
CONTINUOUS
10
5.12865
20
-3.79064
11
5.12894
21
-3.79134
0
LINE
8
BLACK
6
CONTINUOUS
10
5.07382
20
-3.79232
11
5.07382
21
-3.88878
0
LINE
8
BLACK
6
CONTINUOUS
10
5.07382
20
-3.88878
11
5.125
21
-3.88878
0
LINE
8
BLACK
6
CONTINUOUS
10
5.125
20
-3.88878
11
5.125
21
-3.79232
0
LINE
8
BLACK
6
CONTINUOUS
10
5.125
20
-3.79232
11
5.07382
21
-3.79232
0
LINE
8
BLACK
6
CONTINUOUS
10
5.0187
20
-3.79232
11
5.0187
21
-3.88878
0
LINE
8
BLACK
6
CONTINUOUS
10
5.0187
20
-3.88878
11
5.07185
21
-3.88878
0
LINE
8
BLACK
6
CONTINUOUS
10
5.07185
20
-3.88878
11
5.07185
21
-3.79232
0
LINE
8
BLACK
6
CONTINUOUS
10
5.07185
20
-3.79232
11
5.0187
21
-3.79232
0
LINE
8
BLACK
6
CONTINUOUS
10
4.2094
20
-3.30807
11
4.36811
21
-3.30807
0
LINE
8
BLACK
6
CONTINUOUS
10
4.36811
20
-3.30807
11
4.36881
21
-3.30836
0
LINE
8
BLACK
6
CONTINUOUS
10
4.36881
20
-3.30836
11
4.36909
21
-3.30906
0
LINE
8
BLACK
6
CONTINUOUS
10
4.36909
20
-3.30906
11
4.36909
21
-3.85669
0
LINE
8
BLACK
6
CONTINUOUS
10
4.36909
20
-3.85669
11
4.36881
21
-3.85739
0
LINE
8
BLACK
6
CONTINUOUS
10
4.36881
20
-3.85739
11
4.36811
21
-3.85768
0
LINE
8
BLACK
6
CONTINUOUS
10
4.36811
20
-3.85768
11
4.19882
21
-3.85768
0
LINE
8
BLACK
6
CONTINUOUS
10
4.19882
20
-3.85768
11
4.19812
21
-3.85739
0
LINE
8
BLACK
6
CONTINUOUS
10
4.19812
20
-3.85739
11
4.19808
21
-3.85728
0
LINE
8
BLACK
6
CONTINUOUS
10
4.19808
20
-3.85728
11
4.04995
21
-3.85728
0
LINE
8
BLACK
6
CONTINUOUS
10
4.04995
20
-3.85728
11
4.04991
21
-3.85739
0
LINE
8
BLACK
6
CONTINUOUS
10
4.04991
20
-3.85739
11
4.04921
21
-3.85768
0
LINE
8
BLACK
6
CONTINUOUS
10
4.04921
20
-3.85768
11
3.87992
21
-3.85768
0
LINE
8
BLACK
6
CONTINUOUS
10
3.87992
20
-3.85768
11
3.87923
21
-3.85739
0
LINE
8
BLACK
6
CONTINUOUS
10
3.87923
20
-3.85739
11
3.87918
21
-3.85728
0
LINE
8
BLACK
6
CONTINUOUS
10
3.87918
20
-3.85728
11
3.73105
21
-3.85728
0
LINE
8
BLACK
6
CONTINUOUS
10
3.73105
20
-3.85728
11
3.73101
21
-3.85739
0
LINE
8
BLACK
6
CONTINUOUS
10
3.73101
20
-3.85739
11
3.73031
21
-3.85768
0
LINE
8
BLACK
6
CONTINUOUS
10
3.73031
20
-3.85768
11
3.56102
21
-3.85768
0
LINE
8
BLACK
6
CONTINUOUS
10
3.56102
20
-3.85768
11
3.56033
21
-3.85739
0
LINE
8
BLACK
6
CONTINUOUS
10
3.56033
20
-3.85739
11
3.56004
21
-3.85669
0
LINE
8
BLACK
6
CONTINUOUS
10
3.56004
20
-3.85669
11
3.56004
21
-3.30906
0
LINE
8
BLACK
6
CONTINUOUS
10
3.56004
20
-3.30906
11
3.56033
21
-3.30836
0
LINE
8
BLACK
6
CONTINUOUS
10
3.56033
20
-3.30836
11
3.56102
21
-3.30807
0
LINE
8
BLACK
6
CONTINUOUS
10
3.56102
20
-3.30807
11
3.71973
21
-3.30807
0
LINE
8
BLACK
6
CONTINUOUS
10
3.71973
20
-3.30807
11
3.71978
21
-3.30797
0
LINE
8
BLACK
6
CONTINUOUS
10
3.71978
20
-3.30797
11
3.72047
21
-3.30768
0
LINE
8
BLACK
6
CONTINUOUS
10
3.72047
20
-3.30768
11
3.88976
21
-3.30768
0
LINE
8
BLACK
6
CONTINUOUS
10
3.88976
20
-3.30768
11
3.89046
21
-3.30797
0
LINE
8
BLACK
6
CONTINUOUS
10
3.89046
20
-3.30797
11
3.8905
21
-3.30807
0
LINE
8
BLACK
6
CONTINUOUS
10
3.8905
20
-3.30807
11
4.03863
21
-3.30807
0
LINE
8
BLACK
6
CONTINUOUS
10
4.03863
20
-3.30807
11
4.03867
21
-3.30797
0
LINE
8
BLACK
6
CONTINUOUS
10
4.03867
20
-3.30797
11
4.03937
21
-3.30768
0
LINE
8
BLACK
6
CONTINUOUS
10
4.03937
20
-3.30768
11
4.20866
21
-3.30768
0
LINE
8
BLACK
6
CONTINUOUS
10
4.20866
20
-3.30768
11
4.20936
21
-3.30797
0
LINE
8
BLACK
6
CONTINUOUS
10
4.20936
20
-3.30797
11
4.2094
21
-3.30807
0
LINE
8
BLACK
6
CONTINUOUS
10
4.20965
20
-3.78091
11
4.20965
21
-3.85571
0
LINE
8
BLACK
6
CONTINUOUS
10
4.20965
20
-3.85571
11
4.36713
21
-3.85571
0
LINE
8
BLACK
6
CONTINUOUS
10
4.36713
20
-3.85571
11
4.36713
21
-3.78091
0
LINE
8
BLACK
6
CONTINUOUS
10
4.36713
20
-3.78091
11
4.20965
21
-3.78091
0
LINE
8
BLACK
6
CONTINUOUS
10
3.89075
20
-3.78091
11
3.89075
21
-3.85571
0
LINE
8
BLACK
6
CONTINUOUS
10
3.89075
20
-3.85571
11
4.03839
21
-3.85571
0
LINE
8
BLACK
6
CONTINUOUS
10
4.03839
20
-3.85571
11
4.03839
21
-3.78091
0
LINE
8
BLACK
6
CONTINUOUS
10
4.03839
20
-3.78091
11
3.89075
21
-3.78091
0
LINE
8
BLACK
6
CONTINUOUS
10
3.56201
20
-3.78091
11
3.56201
21
-3.85571
0
LINE
8
BLACK
6
CONTINUOUS
10
3.56201
20
-3.85571
11
3.71949
21
-3.85571
0
LINE
8
BLACK
6
CONTINUOUS
10
3.71949
20
-3.85571
11
3.71949
21
-3.78091
0
LINE
8
BLACK
6
CONTINUOUS
10
3.71949
20
-3.78091
11
3.56201
21
-3.78091
0
LINE
8
BLACK
6
CONTINUOUS
10
4.04035
20
-3.78091
11
4.04035
21
-3.85531
0
LINE
8
BLACK
6
CONTINUOUS
10
4.04035
20
-3.85531
11
4.04823
21
-3.85531
0
LINE
8
BLACK
6
CONTINUOUS
10
4.04823
20
-3.85531
11
4.04823
21
-3.78091
0
LINE
8
BLACK
6
CONTINUOUS
10
4.04823
20
-3.78091
11
4.04035
21
-3.78091
0
LINE
8
BLACK
6
CONTINUOUS
10
4.0502
20
-3.78051
11
4.0502
21
-3.85531
0
LINE
8
BLACK
6
CONTINUOUS
10
4.0502
20
-3.85531
11
4.19783
21
-3.85531
0
LINE
8
BLACK
6
CONTINUOUS
10
4.19783
20
-3.85531
11
4.19783
21
-3.78051
0
LINE
8
BLACK
6
CONTINUOUS
10
4.19783
20
-3.78051
11
4.0502
21
-3.78051
0
LINE
8
BLACK
6
CONTINUOUS
10
4.1998
20
-3.78091
11
4.1998
21
-3.85531
0
LINE
8
BLACK
6
CONTINUOUS
10
4.1998
20
-3.85531
11
4.20768
21
-3.85531
0
LINE
8
BLACK
6
CONTINUOUS
10
4.20768
20
-3.85531
11
4.20768
21
-3.78091
0
LINE
8
BLACK
6
CONTINUOUS
10
4.20768
20
-3.78091
11
4.1998
21
-3.78091
0
LINE
8
BLACK
6
CONTINUOUS
10
3.72146
20
-3.78091
11
3.72146
21
-3.85531
0
LINE
8
BLACK
6
CONTINUOUS
10
3.72146
20
-3.85531
11
3.72933
21
-3.85531
0
LINE
8
BLACK
6
CONTINUOUS
10
3.72933
20
-3.85531
11
3.72933
21
-3.78091
0
LINE
8
BLACK
6
CONTINUOUS
10
3.72933
20
-3.78091
11
3.72146
21
-3.78091
0
LINE
8
BLACK
6
CONTINUOUS
10
3.7313
20
-3.78051
11
3.7313
21
-3.85531
0
LINE
8
BLACK
6
CONTINUOUS
10
3.7313
20
-3.85531
11
3.87894
21
-3.85531
0
LINE
8
BLACK
6
CONTINUOUS
10
3.87894
20
-3.85531
11
3.87894
21
-3.78051
0
LINE
8
BLACK
6
CONTINUOUS
10
3.87894
20
-3.78051
11
3.7313
21
-3.78051
0
LINE
8
BLACK
6
CONTINUOUS
10
3.88091
20
-3.78091
11
3.88091
21
-3.85531
0
LINE
8
BLACK
6
CONTINUOUS
10
3.88091
20
-3.85531
11
3.88878
21
-3.85531
0
LINE
8
BLACK
6
CONTINUOUS
10
3.88878
20
-3.85531
11
3.88878
21
-3.78091
0
LINE
8
BLACK
6
CONTINUOUS
10
3.88878
20
-3.78091
11
3.88091
21
-3.78091
0
LINE
8
BLACK
6
CONTINUOUS
10
4.20965
20
-3.77067
11
4.20965
21
-3.77894
0
LINE
8
BLACK
6
CONTINUOUS
10
4.20965
20
-3.77894
11
4.36713
21
-3.77894
0
LINE
8
BLACK
6
CONTINUOUS
10
4.36713
20
-3.77894
11
4.36713
21
-3.77067
0
LINE
8
BLACK
6
CONTINUOUS
10
4.36713
20
-3.77067
11
4.20965
21
-3.77067
0
LINE
8
BLACK
6
CONTINUOUS
10
3.89075
20
-3.77067
11
3.89075
21
-3.77894
0
LINE
8
BLACK
6
CONTINUOUS
10
3.89075
20
-3.77894
11
4.03839
21
-3.77894
0
LINE
8
BLACK
6
CONTINUOUS
10
4.03839
20
-3.77894
11
4.03839
21
-3.77067
0
LINE
8
BLACK
6
CONTINUOUS
10
4.03839
20
-3.77067
11
3.89075
21
-3.77067
0
LINE
8
BLACK
6
CONTINUOUS
10
3.56201
20
-3.77067
11
3.56201
21
-3.77894
0
LINE
8
BLACK
6
CONTINUOUS
10
3.56201
20
-3.77894
11
3.71949
21
-3.77894
0
LINE
8
BLACK
6
CONTINUOUS
10
3.71949
20
-3.77894
11
3.71949
21
-3.77067
0
LINE
8
BLACK
6
CONTINUOUS
10
3.71949
20
-3.77067
11
3.56201
21
-3.77067
0
LINE
8
BLACK
6
CONTINUOUS
10
4.04035
20
-3.77067
11
4.04035
21
-3.77854
0
LINE
8
BLACK
6
CONTINUOUS
10
4.04035
20
-3.77854
11
4.04823
21
-3.77854
0
LINE
8
BLACK
6
CONTINUOUS
10
4.04823
20
-3.77854
11
4.04823
21
-3.77067
0
LINE
8
BLACK
6
CONTINUOUS
10
4.04823
20
-3.77067
11
4.04035
21
-3.77067
0
LINE
8
BLACK
6
CONTINUOUS
10
4.0502
20
-3.77028
11
4.0502
21
-3.77854
0
LINE
8
BLACK
6
CONTINUOUS
10
4.0502
20
-3.77854
11
4.19783
21
-3.77854
0
LINE
8
BLACK
6
CONTINUOUS
10
4.19783
20
-3.77854
11
4.19783
21
-3.77028
0
LINE
8
BLACK
6
CONTINUOUS
10
4.19783
20
-3.77028
11
4.0502
21
-3.77028
0
LINE
8
BLACK
6
CONTINUOUS
10
4.1998
20
-3.77067
11
4.1998
21
-3.77854
0
LINE
8
BLACK
6
CONTINUOUS
10
4.1998
20
-3.77854
11
4.20768
21
-3.77854
0
LINE
8
BLACK
6
CONTINUOUS
10
4.20768
20
-3.77854
11
4.20768
21
-3.77067
0
LINE
8
BLACK
6
CONTINUOUS
10
4.20768
20
-3.77067
11
4.1998
21
-3.77067
0
LINE
8
BLACK
6
CONTINUOUS
10
3.72146
20
-3.77067
11
3.72146
21
-3.77854
0
LINE
8
BLACK
6
CONTINUOUS
10
3.72146
20
-3.77854
11
3.72933
21
-3.77854
0
LINE
8
BLACK
6
CONTINUOUS
10
3.72933
20
-3.77854
11
3.72933
21
-3.77067
0
LINE
8
BLACK
6
CONTINUOUS
10
3.72933
20
-3.77067
11
3.72146
21
-3.77067
0
LINE
8
BLACK
6
CONTINUOUS
10
3.7313
20
-3.77028
11
3.7313
21
-3.77854
0
LINE
8
BLACK
6
CONTINUOUS
10
3.7313
20
-3.77854
11
3.87894
21
-3.77854
0
LINE
8
BLACK
6
CONTINUOUS
10
3.87894
20
-3.77854
11
3.87894
21
-3.77028
0
LINE
8
BLACK
6
CONTINUOUS
10
3.87894
20
-3.77028
11
3.7313
21
-3.77028
0
LINE
8
BLACK
6
CONTINUOUS
10
3.88091
20
-3.77067
11
3.88091
21
-3.77854
0
LINE
8
BLACK
6
CONTINUOUS
10
3.88091
20
-3.77854
11
3.88878
21
-3.77854
0
LINE
8
BLACK
6
CONTINUOUS
10
3.88878
20
-3.77854
11
3.88878
21
-3.77067
0
LINE
8
BLACK
6
CONTINUOUS
10
3.88878
20
-3.77067
11
3.88091
21
-3.77067
0
LINE
8
BLACK
6
CONTINUOUS
10
4.20965
20
-3.70413
11
4.20965
21
-3.7687
0
LINE
8
BLACK
6
CONTINUOUS
10
4.20965
20
-3.7687
11
4.36713
21
-3.7687
0
LINE
8
BLACK
6
CONTINUOUS
10
4.36713
20
-3.7687
11
4.36713
21
-3.70413
0
LINE
8
BLACK
6
CONTINUOUS
10
4.36713
20
-3.70413
11
4.20965
21
-3.70413
0
LINE
8
BLACK
6
CONTINUOUS
10
3.89075
20
-3.70413
11
3.89075
21
-3.7687
0
LINE
8
BLACK
6
CONTINUOUS
10
3.89075
20
-3.7687
11
4.03839
21
-3.7687
0
LINE
8
BLACK
6
CONTINUOUS
10
4.03839
20
-3.7687
11
4.03839
21
-3.70413
0
LINE
8
BLACK
6
CONTINUOUS
10
4.03839
20
-3.70413
11
3.89075
21
-3.70413
0
LINE
8
BLACK
6
CONTINUOUS
10
3.56201
20
-3.70413
11
3.56201
21
-3.7687
0
LINE
8
BLACK
6
CONTINUOUS
10
3.56201
20
-3.7687
11
3.71949
21
-3.7687
0
LINE
8
BLACK
6
CONTINUOUS
10
3.71949
20
-3.7687
11
3.71949
21
-3.70413
0
LINE
8
BLACK
6
CONTINUOUS
10
3.71949
20
-3.70413
11
3.56201
21
-3.70413
0
LINE
8
BLACK
6
CONTINUOUS
10
4.04035
20
-3.70413
11
4.04035
21
-3.76831
0
LINE
8
BLACK
6
CONTINUOUS
10
4.04035
20
-3.76831
11
4.04823
21
-3.76831
0
LINE
8
BLACK
6
CONTINUOUS
10
4.04823
20
-3.76831
11
4.04823
21
-3.70413
0
LINE
8
BLACK
6
CONTINUOUS
10
4.04823
20
-3.70413
11
4.04035
21
-3.70413
0
LINE
8
BLACK
6
CONTINUOUS
10
4.0502
20
-3.70374
11
4.0502
21
-3.76831
0
LINE
8
BLACK
6
CONTINUOUS
10
4.0502
20
-3.76831
11
4.19783
21
-3.76831
0
LINE
8
BLACK
6
CONTINUOUS
10
4.19783
20
-3.76831
11
4.19783
21
-3.70374
0
LINE
8
BLACK
6
CONTINUOUS
10
4.19783
20
-3.70374
11
4.0502
21
-3.70374
0
LINE
8
BLACK
6
CONTINUOUS
10
4.1998
20
-3.70413
11
4.1998
21
-3.76831
0
LINE
8
BLACK
6
CONTINUOUS
10
4.1998
20
-3.76831
11
4.20768
21
-3.76831
0
LINE
8
BLACK
6
CONTINUOUS
10
4.20768
20
-3.76831
11
4.20768
21
-3.70413
0
LINE
8
BLACK
6
CONTINUOUS
10
4.20768
20
-3.70413
11
4.1998
21
-3.70413
0
LINE
8
BLACK
6
CONTINUOUS
10
3.72146
20
-3.70413
11
3.72146
21
-3.76831
0
LINE
8
BLACK
6
CONTINUOUS
10
3.72146
20
-3.76831
11
3.72933
21
-3.76831
0
LINE
8
BLACK
6
CONTINUOUS
10
3.72933
20
-3.76831
11
3.72933
21
-3.70413
0
LINE
8
BLACK
6
CONTINUOUS
10
3.72933
20
-3.70413
11
3.72146
21
-3.70413
0
LINE
8
BLACK
6
CONTINUOUS
10
3.7313
20
-3.70374
11
3.7313
21
-3.76831
0
LINE
8
BLACK
6
CONTINUOUS
10
3.7313
20
-3.76831
11
3.87894
21
-3.76831
0
LINE
8
BLACK
6
CONTINUOUS
10
3.87894
20
-3.76831
11
3.87894
21
-3.70374
0
LINE
8
BLACK
6
CONTINUOUS
10
3.87894
20
-3.70374
11
3.7313
21
-3.70374
0
LINE
8
BLACK
6
CONTINUOUS
10
3.88091
20
-3.70413
11
3.88091
21
-3.76831
0
LINE
8
BLACK
6
CONTINUOUS
10
3.88091
20
-3.76831
11
3.88878
21
-3.76831
0
LINE
8
BLACK
6
CONTINUOUS
10
3.88878
20
-3.76831
11
3.88878
21
-3.70413
0
LINE
8
BLACK
6
CONTINUOUS
10
3.88878
20
-3.70413
11
3.88091
21
-3.70413
0
LINE
8
BLACK
6
CONTINUOUS
10
4.20965
20
-3.6939
11
4.20965
21
-3.70217
0
LINE
8
BLACK
6
CONTINUOUS
10
4.20965
20
-3.70217
11
4.36713
21
-3.70217
0
LINE
8
BLACK
6
CONTINUOUS
10
4.36713
20
-3.70217
11
4.36713
21
-3.6939
0
LINE
8
BLACK
6
CONTINUOUS
10
4.36713
20
-3.6939
11
4.20965
21
-3.6939
0
LINE
8
BLACK
6
CONTINUOUS
10
3.89075
20
-3.6939
11
3.89075
21
-3.70217
0
LINE
8
BLACK
6
CONTINUOUS
10
3.89075
20
-3.70217
11
4.03839
21
-3.70217
0
LINE
8
BLACK
6
CONTINUOUS
10
4.03839
20
-3.70217
11
4.03839
21
-3.6939
0
LINE
8
BLACK
6
CONTINUOUS
10
4.03839
20
-3.6939
11
3.89075
21
-3.6939
0
LINE
8
BLACK
6
CONTINUOUS
10
3.56201
20
-3.6939
11
3.56201
21
-3.70217
0
LINE
8
BLACK
6
CONTINUOUS
10
3.56201
20
-3.70217
11
3.71949
21
-3.70217
0
LINE
8
BLACK
6
CONTINUOUS
10
3.71949
20
-3.70217
11
3.71949
21
-3.6939
0
LINE
8
BLACK
6
CONTINUOUS
10
3.71949
20
-3.6939
11
3.56201
21
-3.6939
0
LINE
8
BLACK
6
CONTINUOUS
10
4.04035
20
-3.6939
11
4.04035
21
-3.70177
0
LINE
8
BLACK
6
CONTINUOUS
10
4.04035
20
-3.70177
11
4.04823
21
-3.70177
0
LINE
8
BLACK
6
CONTINUOUS
10
4.04823
20
-3.70177
11
4.04823
21
-3.6939
0
LINE
8
BLACK
6
CONTINUOUS
10
4.04823
20
-3.6939
11
4.04035
21
-3.6939
0
LINE
8
BLACK
6
CONTINUOUS
10
4.0502
20
-3.6935
11
4.0502
21
-3.70177
0
LINE
8
BLACK
6
CONTINUOUS
10
4.0502
20
-3.70177
11
4.19783
21
-3.70177
0
LINE
8
BLACK
6
CONTINUOUS
10
4.19783
20
-3.70177
11
4.19783
21
-3.6935
0
LINE
8
BLACK
6
CONTINUOUS
10
4.19783
20
-3.6935
11
4.0502
21
-3.6935
0
LINE
8
BLACK
6
CONTINUOUS
10
4.1998
20
-3.6939
11
4.1998
21
-3.70177
0
LINE
8
BLACK
6
CONTINUOUS
10
4.1998
20
-3.70177
11
4.20768
21
-3.70177
0
LINE
8
BLACK
6
CONTINUOUS
10
4.20768
20
-3.70177
11
4.20768
21
-3.6939
0
LINE
8
BLACK
6
CONTINUOUS
10
4.20768
20
-3.6939
11
4.1998
21
-3.6939
0
LINE
8
BLACK
6
CONTINUOUS
10
3.72146
20
-3.6939
11
3.72146
21
-3.70177
0
LINE
8
BLACK
6
CONTINUOUS
10
3.72146
20
-3.70177
11
3.72933
21
-3.70177
0
LINE
8
BLACK
6
CONTINUOUS
10
3.72933
20
-3.70177
11
3.72933
21
-3.6939
0
LINE
8
BLACK
6
CONTINUOUS
10
3.72933
20
-3.6939
11
3.72146
21
-3.6939
0
LINE
8
BLACK
6
CONTINUOUS
10
3.7313
20
-3.6935
11
3.7313
21
-3.70177
0
LINE
8
BLACK
6
CONTINUOUS
10
3.7313
20
-3.70177
11
3.87894
21
-3.70177
0
LINE
8
BLACK
6
CONTINUOUS
10
3.87894
20
-3.70177
11
3.87894
21
-3.6935
0
LINE
8
BLACK
6
CONTINUOUS
10
3.87894
20
-3.6935
11
3.7313
21
-3.6935
0
LINE
8
BLACK
6
CONTINUOUS
10
3.88091
20
-3.6939
11
3.88091
21
-3.70177
0
LINE
8
BLACK
6
CONTINUOUS
10
3.88091
20
-3.70177
11
3.88878
21
-3.70177
0
LINE
8
BLACK
6
CONTINUOUS
10
3.88878
20
-3.70177
11
3.88878
21
-3.6939
0
LINE
8
BLACK
6
CONTINUOUS
10
3.88878
20
-3.6939
11
3.88091
21
-3.6939
0
LINE
8
BLACK
6
CONTINUOUS
10
4.20965
20
-3.62736
11
4.20965
21
-3.69193
0
LINE
8
BLACK
6
CONTINUOUS
10
4.20965
20
-3.69193
11
4.36713
21
-3.69193
0
LINE
8
BLACK
6
CONTINUOUS
10
4.36713
20
-3.69193
11
4.36713
21
-3.62736
0
LINE
8
BLACK
6
CONTINUOUS
10
4.36713
20
-3.62736
11
4.20965
21
-3.62736
0
LINE
8
BLACK
6
CONTINUOUS
10
3.89075
20
-3.62736
11
3.89075
21
-3.69193
0
LINE
8
BLACK
6
CONTINUOUS
10
3.89075
20
-3.69193
11
4.03839
21
-3.69193
0
LINE
8
BLACK
6
CONTINUOUS
10
4.03839
20
-3.69193
11
4.03839
21
-3.62736
0
LINE
8
BLACK
6
CONTINUOUS
10
4.03839
20
-3.62736
11
3.89075
21
-3.62736
0
LINE
8
BLACK
6
CONTINUOUS
10
3.56201
20
-3.62736
11
3.56201
21
-3.69193
0
LINE
8
BLACK
6
CONTINUOUS
10
3.56201
20
-3.69193
11
3.71949
21
-3.69193
0
LINE
8
BLACK
6
CONTINUOUS
10
3.71949
20
-3.69193
11
3.71949
21
-3.62736
0
LINE
8
BLACK
6
CONTINUOUS
10
3.71949
20
-3.62736
11
3.56201
21
-3.62736
0
LINE
8
BLACK
6
CONTINUOUS
10
4.04035
20
-3.62736
11
4.04035
21
-3.69154
0
LINE
8
BLACK
6
CONTINUOUS
10
4.04035
20
-3.69154
11
4.04823
21
-3.69154
0
LINE
8
BLACK
6
CONTINUOUS
10
4.04823
20
-3.69154
11
4.04823
21
-3.62736
0
LINE
8
BLACK
6
CONTINUOUS
10
4.04823
20
-3.62736
11
4.04035
21
-3.62736
0
LINE
8
BLACK
6
CONTINUOUS
10
4.0502
20
-3.62697
11
4.0502
21
-3.69154
0
LINE
8
BLACK
6
CONTINUOUS
10
4.0502
20
-3.69154
11
4.19783
21
-3.69154
0
LINE
8
BLACK
6
CONTINUOUS
10
4.19783
20
-3.69154
11
4.19783
21
-3.62697
0
LINE
8
BLACK
6
CONTINUOUS
10
4.19783
20
-3.62697
11
4.0502
21
-3.62697
0
LINE
8
BLACK
6
CONTINUOUS
10
4.1998
20
-3.62736
11
4.1998
21
-3.69154
0
LINE
8
BLACK
6
CONTINUOUS
10
4.1998
20
-3.69154
11
4.20768
21
-3.69154
0
LINE
8
BLACK
6
CONTINUOUS
10
4.20768
20
-3.69154
11
4.20768
21
-3.62736
0
LINE
8
BLACK
6
CONTINUOUS
10
4.20768
20
-3.62736
11
4.1998
21
-3.62736
0
LINE
8
BLACK
6
CONTINUOUS
10
3.72146
20
-3.62736
11
3.72146
21
-3.69154
0
LINE
8
BLACK
6
CONTINUOUS
10
3.72146
20
-3.69154
11
3.72933
21
-3.69154
0
LINE
8
BLACK
6
CONTINUOUS
10
3.72933
20
-3.69154
11
3.72933
21
-3.62736
0
LINE
8
BLACK
6
CONTINUOUS
10
3.72933
20
-3.62736
11
3.72146
21
-3.62736
0
LINE
8
BLACK
6
CONTINUOUS
10
3.7313
20
-3.62697
11
3.7313
21
-3.69154
0
LINE
8
BLACK
6
CONTINUOUS
10
3.7313
20
-3.69154
11
3.87894
21
-3.69154
0
LINE
8
BLACK
6
CONTINUOUS
10
3.87894
20
-3.69154
11
3.87894
21
-3.62697
0
LINE
8
BLACK
6
CONTINUOUS
10
3.87894
20
-3.62697
11
3.7313
21
-3.62697
0
LINE
8
BLACK
6
CONTINUOUS
10
3.88091
20
-3.62736
11
3.88091
21
-3.69154
0
LINE
8
BLACK
6
CONTINUOUS
10
3.88091
20
-3.69154
11
3.88878
21
-3.69154
0
LINE
8
BLACK
6
CONTINUOUS
10
3.88878
20
-3.69154
11
3.88878
21
-3.62736
0
LINE
8
BLACK
6
CONTINUOUS
10
3.88878
20
-3.62736
11
3.88091
21
-3.62736
0
LINE
8
BLACK
6
CONTINUOUS
10
4.20965
20
-3.61713
11
4.20965
21
-3.62539
0
LINE
8
BLACK
6
CONTINUOUS
10
4.20965
20
-3.62539
11
4.36713
21
-3.62539
0
LINE
8
BLACK
6
CONTINUOUS
10
4.36713
20
-3.62539
11
4.36713
21
-3.61713
0
LINE
8
BLACK
6
CONTINUOUS
10
4.36713
20
-3.61713
11
4.20965
21
-3.61713
0
LINE
8
BLACK
6
CONTINUOUS
10
3.89075
20
-3.61713
11
3.89075
21
-3.62539
0
LINE
8
BLACK
6
CONTINUOUS
10
3.89075
20
-3.62539
11
4.03839
21
-3.62539
0
LINE
8
BLACK
6
CONTINUOUS
10
4.03839
20
-3.62539
11
4.03839
21
-3.61713
0
LINE
8
BLACK
6
CONTINUOUS
10
4.03839
20
-3.61713
11
3.89075
21
-3.61713
0
LINE
8
BLACK
6
CONTINUOUS
10
3.56201
20
-3.61713
11
3.56201
21
-3.62539
0
LINE
8
BLACK
6
CONTINUOUS
10
3.56201
20
-3.62539
11
3.71949
21
-3.62539
0
LINE
8
BLACK
6
CONTINUOUS
10
3.71949
20
-3.62539
11
3.71949
21
-3.61713
0
LINE
8
BLACK
6
CONTINUOUS
10
3.71949
20
-3.61713
11
3.56201
21
-3.61713
0
LINE
8
BLACK
6
CONTINUOUS
10
4.04035
20
-3.61713
11
4.04035
21
-3.625
0
LINE
8
BLACK
6
CONTINUOUS
10
4.04035
20
-3.625
11
4.04823
21
-3.625
0
LINE
8
BLACK
6
CONTINUOUS
10
4.04823
20
-3.625
11
4.04823
21
-3.61713
0
LINE
8
BLACK
6
CONTINUOUS
10
4.04823
20
-3.61713
11
4.04035
21
-3.61713
0
LINE
8
BLACK
6
CONTINUOUS
10
4.0502
20
-3.61673
11
4.0502
21
-3.625
0
LINE
8
BLACK
6
CONTINUOUS
10
4.0502
20
-3.625
11
4.19783
21
-3.625
0
LINE
8
BLACK
6
CONTINUOUS
10
4.19783
20
-3.625
11
4.19783
21
-3.61673
0
LINE
8
BLACK
6
CONTINUOUS
10
4.19783
20
-3.61673
11
4.0502
21
-3.61673
0
LINE
8
BLACK
6
CONTINUOUS
10
4.1998
20
-3.61713
11
4.1998
21
-3.625
0
LINE
8
BLACK
6
CONTINUOUS
10
4.1998
20
-3.625
11
4.20768
21
-3.625
0
LINE
8
BLACK
6
CONTINUOUS
10
4.20768
20
-3.625
11
4.20768
21
-3.61713
0
LINE
8
BLACK
6
CONTINUOUS
10
4.20768
20
-3.61713
11
4.1998
21
-3.61713
0
LINE
8
BLACK
6
CONTINUOUS
10
3.72146
20
-3.61713
11
3.72146
21
-3.625
0
LINE
8
BLACK
6
CONTINUOUS
10
3.72146
20
-3.625
11
3.72933
21
-3.625
0
LINE
8
BLACK
6
CONTINUOUS
10
3.72933
20
-3.625
11
3.72933
21
-3.61713
0
LINE
8
BLACK
6
CONTINUOUS
10
3.72933
20
-3.61713
11
3.72146
21
-3.61713
0
LINE
8
BLACK
6
CONTINUOUS
10
3.7313
20
-3.61673
11
3.7313
21
-3.625
0
LINE
8
BLACK
6
CONTINUOUS
10
3.7313
20
-3.625
11
3.87894
21
-3.625
0
LINE
8
BLACK
6
CONTINUOUS
10
3.87894
20
-3.625
11
3.87894
21
-3.61673
0
LINE
8
BLACK
6
CONTINUOUS
10
3.87894
20
-3.61673
11
3.7313
21
-3.61673
0
LINE
8
BLACK
6
CONTINUOUS
10
3.88091
20
-3.61713
11
3.88091
21
-3.625
0
LINE
8
BLACK
6
CONTINUOUS
10
3.88091
20
-3.625
11
3.88878
21
-3.625
0
LINE
8
BLACK
6
CONTINUOUS
10
3.88878
20
-3.625
11
3.88878
21
-3.61713
0
LINE
8
BLACK
6
CONTINUOUS
10
3.88878
20
-3.61713
11
3.88091
21
-3.61713
0
LINE
8
BLACK
6
CONTINUOUS
10
4.20965
20
-3.55059
11
4.20965
21
-3.61516
0
LINE
8
BLACK
6
CONTINUOUS
10
4.20965
20
-3.61516
11
4.36713
21
-3.61516
0
LINE
8
BLACK
6
CONTINUOUS
10
4.36713
20
-3.61516
11
4.36713
21
-3.55059
0
LINE
8
BLACK
6
CONTINUOUS
10
4.36713
20
-3.55059
11
4.20965
21
-3.55059
0
LINE
8
BLACK
6
CONTINUOUS
10
3.89075
20
-3.55059
11
3.89075
21
-3.61516
0
LINE
8
BLACK
6
CONTINUOUS
10
3.89075
20
-3.61516
11
4.03839
21
-3.61516
0
LINE
8
BLACK
6
CONTINUOUS
10
4.03839
20
-3.61516
11
4.03839
21
-3.55059
0
LINE
8
BLACK
6
CONTINUOUS
10
4.03839
20
-3.55059
11
3.89075
21
-3.55059
0
LINE
8
BLACK
6
CONTINUOUS
10
3.56201
20
-3.55059
11
3.56201
21
-3.61516
0
LINE
8
BLACK
6
CONTINUOUS
10
3.56201
20
-3.61516
11
3.71949
21
-3.61516
0
LINE
8
BLACK
6
CONTINUOUS
10
3.71949
20
-3.61516
11
3.71949
21
-3.55059
0
LINE
8
BLACK
6
CONTINUOUS
10
3.71949
20
-3.55059
11
3.56201
21
-3.55059
0
LINE
8
BLACK
6
CONTINUOUS
10
4.04035
20
-3.55059
11
4.04035
21
-3.61476
0
LINE
8
BLACK
6
CONTINUOUS
10
4.04035
20
-3.61476
11
4.04823
21
-3.61476
0
LINE
8
BLACK
6
CONTINUOUS
10
4.04823
20
-3.61476
11
4.04823
21
-3.55059
0
LINE
8
BLACK
6
CONTINUOUS
10
4.04823
20
-3.55059
11
4.04035
21
-3.55059
0
LINE
8
BLACK
6
CONTINUOUS
10
4.0502
20
-3.5502
11
4.0502
21
-3.61476
0
LINE
8
BLACK
6
CONTINUOUS
10
4.0502
20
-3.61476
11
4.19783
21
-3.61476
0
LINE
8
BLACK
6
CONTINUOUS
10
4.19783
20
-3.61476
11
4.19783
21
-3.5502
0
LINE
8
BLACK
6
CONTINUOUS
10
4.19783
20
-3.5502
11
4.0502
21
-3.5502
0
LINE
8
BLACK
6
CONTINUOUS
10
4.1998
20
-3.55059
11
4.1998
21
-3.61476
0
LINE
8
BLACK
6
CONTINUOUS
10
4.1998
20
-3.61476
11
4.20768
21
-3.61476
0
LINE
8
BLACK
6
CONTINUOUS
10
4.20768
20
-3.61476
11
4.20768
21
-3.55059
0
LINE
8
BLACK
6
CONTINUOUS
10
4.20768
20
-3.55059
11
4.1998
21
-3.55059
0
LINE
8
BLACK
6
CONTINUOUS
10
3.72146
20
-3.55059
11
3.72146
21
-3.61476
0
LINE
8
BLACK
6
CONTINUOUS
10
3.72146
20
-3.61476
11
3.72933
21
-3.61476
0
LINE
8
BLACK
6
CONTINUOUS
10
3.72933
20
-3.61476
11
3.72933
21
-3.55059
0
LINE
8
BLACK
6
CONTINUOUS
10
3.72933
20
-3.55059
11
3.72146
21
-3.55059
0
LINE
8
BLACK
6
CONTINUOUS
10
3.7313
20
-3.5502
11
3.7313
21
-3.61476
0
LINE
8
BLACK
6
CONTINUOUS
10
3.7313
20
-3.61476
11
3.87894
21
-3.61476
0
LINE
8
BLACK
6
CONTINUOUS
10
3.87894
20
-3.61476
11
3.87894
21
-3.5502
0
LINE
8
BLACK
6
CONTINUOUS
10
3.87894
20
-3.5502
11
3.7313
21
-3.5502
0
LINE
8
BLACK
6
CONTINUOUS
10
3.88091
20
-3.55059
11
3.88091
21
-3.61476
0
LINE
8
BLACK
6
CONTINUOUS
10
3.88091
20
-3.61476
11
3.88878
21
-3.61476
0
LINE
8
BLACK
6
CONTINUOUS
10
3.88878
20
-3.61476
11
3.88878
21
-3.55059
0
LINE
8
BLACK
6
CONTINUOUS
10
3.88878
20
-3.55059
11
3.88091
21
-3.55059
0
LINE
8
BLACK
6
CONTINUOUS
10
4.20965
20
-3.54035
11
4.20965
21
-3.54862
0
LINE
8
BLACK
6
CONTINUOUS
10
4.20965
20
-3.54862
11
4.36713
21
-3.54862
0
LINE
8
BLACK
6
CONTINUOUS
10
4.36713
20
-3.54862
11
4.36713
21
-3.54035
0
LINE
8
BLACK
6
CONTINUOUS
10
4.36713
20
-3.54035
11
4.20965
21
-3.54035
0
LINE
8
BLACK
6
CONTINUOUS
10
3.89075
20
-3.54035
11
3.89075
21
-3.54862
0
LINE
8
BLACK
6
CONTINUOUS
10
3.89075
20
-3.54862
11
4.03839
21
-3.54862
0
LINE
8
BLACK
6
CONTINUOUS
10
4.03839
20
-3.54862
11
4.03839
21
-3.54035
0
LINE
8
BLACK
6
CONTINUOUS
10
4.03839
20
-3.54035
11
3.89075
21
-3.54035
0
LINE
8
BLACK
6
CONTINUOUS
10
3.56201
20
-3.54035
11
3.56201
21
-3.54862
0
LINE
8
BLACK
6
CONTINUOUS
10
3.56201
20
-3.54862
11
3.71949
21
-3.54862
0
LINE
8
BLACK
6
CONTINUOUS
10
3.71949
20
-3.54862
11
3.71949
21
-3.54035
0
LINE
8
BLACK
6
CONTINUOUS
10
3.71949
20
-3.54035
11
3.56201
21
-3.54035
0
LINE
8
BLACK
6
CONTINUOUS
10
4.04035
20
-3.54035
11
4.04035
21
-3.54823
0
LINE
8
BLACK
6
CONTINUOUS
10
4.04035
20
-3.54823
11
4.04823
21
-3.54823
0
LINE
8
BLACK
6
CONTINUOUS
10
4.04823
20
-3.54823
11
4.04823
21
-3.54035
0
LINE
8
BLACK
6
CONTINUOUS
10
4.04823
20
-3.54035
11
4.04035
21
-3.54035
0
LINE
8
BLACK
6
CONTINUOUS
10
4.0502
20
-3.53996
11
4.0502
21
-3.54823
0
LINE
8
BLACK
6
CONTINUOUS
10
4.0502
20
-3.54823
11
4.19783
21
-3.54823
0
LINE
8
BLACK
6
CONTINUOUS
10
4.19783
20
-3.54823
11
4.19783
21
-3.53996
0
LINE
8
BLACK
6
CONTINUOUS
10
4.19783
20
-3.53996
11
4.0502
21
-3.53996
0
LINE
8
BLACK
6
CONTINUOUS
10
4.1998
20
-3.54035
11
4.1998
21
-3.54823
0
LINE
8
BLACK
6
CONTINUOUS
10
4.1998
20
-3.54823
11
4.20768
21
-3.54823
0
LINE
8
BLACK
6
CONTINUOUS
10
4.20768
20
-3.54823
11
4.20768
21
-3.54035
0
LINE
8
BLACK
6
CONTINUOUS
10
4.20768
20
-3.54035
11
4.1998
21
-3.54035
0
LINE
8
BLACK
6
CONTINUOUS
10
3.72146
20
-3.54035
11
3.72146
21
-3.54823
0
LINE
8
BLACK
6
CONTINUOUS
10
3.72146
20
-3.54823
11
3.72933
21
-3.54823
0
LINE
8
BLACK
6
CONTINUOUS
10
3.72933
20
-3.54823
11
3.72933
21
-3.54035
0
LINE
8
BLACK
6
CONTINUOUS
10
3.72933
20
-3.54035
11
3.72146
21
-3.54035
0
LINE
8
BLACK
6
CONTINUOUS
10
3.7313
20
-3.53996
11
3.7313
21
-3.54823
0
LINE
8
BLACK
6
CONTINUOUS
10
3.7313
20
-3.54823
11
3.87894
21
-3.54823
0
LINE
8
BLACK
6
CONTINUOUS
10
3.87894
20
-3.54823
11
3.87894
21
-3.53996
0
LINE
8
BLACK
6
CONTINUOUS
10
3.87894
20
-3.53996
11
3.7313
21
-3.53996
0
LINE
8
BLACK
6
CONTINUOUS
10
3.88091
20
-3.54035
11
3.88091
21
-3.54823
0
LINE
8
BLACK
6
CONTINUOUS
10
3.88091
20
-3.54823
11
3.88878
21
-3.54823
0
LINE
8
BLACK
6
CONTINUOUS
10
3.88878
20
-3.54823
11
3.88878
21
-3.54035
0
LINE
8
BLACK
6
CONTINUOUS
10
3.88878
20
-3.54035
11
3.88091
21
-3.54035
0
LINE
8
BLACK
6
CONTINUOUS
10
4.20965
20
-3.47382
11
4.20965
21
-3.53839
0
LINE
8
BLACK
6
CONTINUOUS
10
4.20965
20
-3.53839
11
4.36713
21
-3.53839
0
LINE
8
BLACK
6
CONTINUOUS
10
4.36713
20
-3.53839
11
4.36713
21
-3.47382
0
LINE
8
BLACK
6
CONTINUOUS
10
4.36713
20
-3.47382
11
4.20965
21
-3.47382
0
LINE
8
BLACK
6
CONTINUOUS
10
3.89075
20
-3.47382
11
3.89075
21
-3.53839
0
LINE
8
BLACK
6
CONTINUOUS
10
3.89075
20
-3.53839
11
4.03839
21
-3.53839
0
LINE
8
BLACK
6
CONTINUOUS
10
4.03839
20
-3.53839
11
4.03839
21
-3.47382
0
LINE
8
BLACK
6
CONTINUOUS
10
4.03839
20
-3.47382
11
3.89075
21
-3.47382
0
LINE
8
BLACK
6
CONTINUOUS
10
3.56201
20
-3.47382
11
3.56201
21
-3.53839
0
LINE
8
BLACK
6
CONTINUOUS
10
3.56201
20
-3.53839
11
3.71949
21
-3.53839
0
LINE
8
BLACK
6
CONTINUOUS
10
3.71949
20
-3.53839
11
3.71949
21
-3.47382
0
LINE
8
BLACK
6
CONTINUOUS
10
3.71949
20
-3.47382
11
3.56201
21
-3.47382
0
LINE
8
BLACK
6
CONTINUOUS
10
4.04035
20
-3.47382
11
4.04035
21
-3.53799
0
LINE
8
BLACK
6
CONTINUOUS
10
4.04035
20
-3.53799
11
4.04823
21
-3.53799
0
LINE
8
BLACK
6
CONTINUOUS
10
4.04823
20
-3.53799
11
4.04823
21
-3.47382
0
LINE
8
BLACK
6
CONTINUOUS
10
4.04823
20
-3.47382
11
4.04035
21
-3.47382
0
LINE
8
BLACK
6
CONTINUOUS
10
4.0502
20
-3.47343
11
4.0502
21
-3.53799
0
LINE
8
BLACK
6
CONTINUOUS
10
4.0502
20
-3.53799
11
4.19783
21
-3.53799
0
LINE
8
BLACK
6
CONTINUOUS
10
4.19783
20
-3.53799
11
4.19783
21
-3.47343
0
LINE
8
BLACK
6
CONTINUOUS
10
4.19783
20
-3.47343
11
4.0502
21
-3.47343
0
LINE
8
BLACK
6
CONTINUOUS
10
4.1998
20
-3.47382
11
4.1998
21
-3.53799
0
LINE
8
BLACK
6
CONTINUOUS
10
4.1998
20
-3.53799
11
4.20768
21
-3.53799
0
LINE
8
BLACK
6
CONTINUOUS
10
4.20768
20
-3.53799
11
4.20768
21
-3.47382
0
LINE
8
BLACK
6
CONTINUOUS
10
4.20768
20
-3.47382
11
4.1998
21
-3.47382
0
LINE
8
BLACK
6
CONTINUOUS
10
3.72146
20
-3.47382
11
3.72146
21
-3.53799
0
LINE
8
BLACK
6
CONTINUOUS
10
3.72146
20
-3.53799
11
3.72933
21
-3.53799
0
LINE
8
BLACK
6
CONTINUOUS
10
3.72933
20
-3.53799
11
3.72933
21
-3.47382
0
LINE
8
BLACK
6
CONTINUOUS
10
3.72933
20
-3.47382
11
3.72146
21
-3.47382
0
LINE
8
BLACK
6
CONTINUOUS
10
3.7313
20
-3.47343
11
3.7313
21
-3.53799
0
LINE
8
BLACK
6
CONTINUOUS
10
3.7313
20
-3.53799
11
3.87894
21
-3.53799
0
LINE
8
BLACK
6
CONTINUOUS
10
3.87894
20
-3.53799
11
3.87894
21
-3.47343
0
LINE
8
BLACK
6
CONTINUOUS
10
3.87894
20
-3.47343
11
3.7313
21
-3.47343
0
LINE
8
BLACK
6
CONTINUOUS
10
3.88091
20
-3.47382
11
3.88091
21
-3.53799
0
LINE
8
BLACK
6
CONTINUOUS
10
3.88091
20
-3.53799
11
3.88878
21
-3.53799
0
LINE
8
BLACK
6
CONTINUOUS
10
3.88878
20
-3.53799
11
3.88878
21
-3.47382
0
LINE
8
BLACK
6
CONTINUOUS
10
3.88878
20
-3.47382
11
3.88091
21
-3.47382
0
LINE
8
BLACK
6
CONTINUOUS
10
4.20965
20
-3.46358
11
4.20965
21
-3.47185
0
LINE
8
BLACK
6
CONTINUOUS
10
4.20965
20
-3.47185
11
4.36713
21
-3.47185
0
LINE
8
BLACK
6
CONTINUOUS
10
4.36713
20
-3.47185
11
4.36713
21
-3.46358
0
LINE
8
BLACK
6
CONTINUOUS
10
4.36713
20
-3.46358
11
4.20965
21
-3.46358
0
LINE
8
BLACK
6
CONTINUOUS
10
3.89075
20
-3.46358
11
3.89075
21
-3.47185
0
LINE
8
BLACK
6
CONTINUOUS
10
3.89075
20
-3.47185
11
4.03839
21
-3.47185
0
LINE
8
BLACK
6
CONTINUOUS
10
4.03839
20
-3.47185
11
4.03839
21
-3.46358
0
LINE
8
BLACK
6
CONTINUOUS
10
4.03839
20
-3.46358
11
3.89075
21
-3.46358
0
LINE
8
BLACK
6
CONTINUOUS
10
3.56201
20
-3.46358
11
3.56201
21
-3.47185
0
LINE
8
BLACK
6
CONTINUOUS
10
3.56201
20
-3.47185
11
3.71949
21
-3.47185
0
LINE
8
BLACK
6
CONTINUOUS
10
3.71949
20
-3.47185
11
3.71949
21
-3.46358
0
LINE
8
BLACK
6
CONTINUOUS
10
3.71949
20
-3.46358
11
3.56201
21
-3.46358
0
LINE
8
BLACK
6
CONTINUOUS
10
4.04035
20
-3.46358
11
4.04035
21
-3.47146
0
LINE
8
BLACK
6
CONTINUOUS
10
4.04035
20
-3.47146
11
4.04823
21
-3.47146
0
LINE
8
BLACK
6
CONTINUOUS
10
4.04823
20
-3.47146
11
4.04823
21
-3.46358
0
LINE
8
BLACK
6
CONTINUOUS
10
4.04823
20
-3.46358
11
4.04035
21
-3.46358
0
LINE
8
BLACK
6
CONTINUOUS
10
4.0502
20
-3.46319
11
4.0502
21
-3.47146
0
LINE
8
BLACK
6
CONTINUOUS
10
4.0502
20
-3.47146
11
4.19783
21
-3.47146
0
LINE
8
BLACK
6
CONTINUOUS
10
4.19783
20
-3.47146
11
4.19783
21
-3.46319
0
LINE
8
BLACK
6
CONTINUOUS
10
4.19783
20
-3.46319
11
4.0502
21
-3.46319
0
LINE
8
BLACK
6
CONTINUOUS
10
4.1998
20
-3.46358
11
4.1998
21
-3.47146
0
LINE
8
BLACK
6
CONTINUOUS
10
4.1998
20
-3.47146
11
4.20768
21
-3.47146
0
LINE
8
BLACK
6
CONTINUOUS
10
4.20768
20
-3.47146
11
4.20768
21
-3.46358
0
LINE
8
BLACK
6
CONTINUOUS
10
4.20768
20
-3.46358
11
4.1998
21
-3.46358
0
LINE
8
BLACK
6
CONTINUOUS
10
3.72146
20
-3.46358
11
3.72146
21
-3.47146
0
LINE
8
BLACK
6
CONTINUOUS
10
3.72146
20
-3.47146
11
3.72933
21
-3.47146
0
LINE
8
BLACK
6
CONTINUOUS
10
3.72933
20
-3.47146
11
3.72933
21
-3.46358
0
LINE
8
BLACK
6
CONTINUOUS
10
3.72933
20
-3.46358
11
3.72146
21
-3.46358
0
LINE
8
BLACK
6
CONTINUOUS
10
3.7313
20
-3.46319
11
3.7313
21
-3.47146
0
LINE
8
BLACK
6
CONTINUOUS
10
3.7313
20
-3.47146
11
3.87894
21
-3.47146
0
LINE
8
BLACK
6
CONTINUOUS
10
3.87894
20
-3.47146
11
3.87894
21
-3.46319
0
LINE
8
BLACK
6
CONTINUOUS
10
3.87894
20
-3.46319
11
3.7313
21
-3.46319
0
LINE
8
BLACK
6
CONTINUOUS
10
3.88091
20
-3.46358
11
3.88091
21
-3.47146
0
LINE
8
BLACK
6
CONTINUOUS
10
3.88091
20
-3.47146
11
3.88878
21
-3.47146
0
LINE
8
BLACK
6
CONTINUOUS
10
3.88878
20
-3.47146
11
3.88878
21
-3.46358
0
LINE
8
BLACK
6
CONTINUOUS
10
3.88878
20
-3.46358
11
3.88091
21
-3.46358
0
LINE
8
BLACK
6
CONTINUOUS
10
4.20965
20
-3.39705
11
4.20965
21
-3.46161
0
LINE
8
BLACK
6
CONTINUOUS
10
4.20965
20
-3.46161
11
4.36713
21
-3.46161
0
LINE
8
BLACK
6
CONTINUOUS
10
4.36713
20
-3.46161
11
4.36713
21
-3.39705
0
LINE
8
BLACK
6
CONTINUOUS
10
4.36713
20
-3.39705
11
4.20965
21
-3.39705
0
LINE
8
BLACK
6
CONTINUOUS
10
3.89075
20
-3.39705
11
3.89075
21
-3.46161
0
LINE
8
BLACK
6
CONTINUOUS
10
3.89075
20
-3.46161
11
4.03839
21
-3.46161
0
LINE
8
BLACK
6
CONTINUOUS
10
4.03839
20
-3.46161
11
4.03839
21
-3.39705
0
LINE
8
BLACK
6
CONTINUOUS
10
4.03839
20
-3.39705
11
3.89075
21
-3.39705
0
LINE
8
BLACK
6
CONTINUOUS
10
3.56201
20
-3.39705
11
3.56201
21
-3.46161
0
LINE
8
BLACK
6
CONTINUOUS
10
3.56201
20
-3.46161
11
3.71949
21
-3.46161
0
LINE
8
BLACK
6
CONTINUOUS
10
3.71949
20
-3.46161
11
3.71949
21
-3.39705
0
LINE
8
BLACK
6
CONTINUOUS
10
3.71949
20
-3.39705
11
3.56201
21
-3.39705
0
LINE
8
BLACK
6
CONTINUOUS
10
4.04035
20
-3.39705
11
4.04035
21
-3.46122
0
LINE
8
BLACK
6
CONTINUOUS
10
4.04035
20
-3.46122
11
4.04823
21
-3.46122
0
LINE
8
BLACK
6
CONTINUOUS
10
4.04823
20
-3.46122
11
4.04823
21
-3.39705
0
LINE
8
BLACK
6
CONTINUOUS
10
4.04823
20
-3.39705
11
4.04035
21
-3.39705
0
LINE
8
BLACK
6
CONTINUOUS
10
4.0502
20
-3.39665
11
4.0502
21
-3.46122
0
LINE
8
BLACK
6
CONTINUOUS
10
4.0502
20
-3.46122
11
4.19783
21
-3.46122
0
LINE
8
BLACK
6
CONTINUOUS
10
4.19783
20
-3.46122
11
4.19783
21
-3.39665
0
LINE
8
BLACK
6
CONTINUOUS
10
4.19783
20
-3.39665
11
4.0502
21
-3.39665
0
LINE
8
BLACK
6
CONTINUOUS
10
4.1998
20
-3.39705
11
4.1998
21
-3.46122
0
LINE
8
BLACK
6
CONTINUOUS
10
4.1998
20
-3.46122
11
4.20768
21
-3.46122
0
LINE
8
BLACK
6
CONTINUOUS
10
4.20768
20
-3.46122
11
4.20768
21
-3.39705
0
LINE
8
BLACK
6
CONTINUOUS
10
4.20768
20
-3.39705
11
4.1998
21
-3.39705
0
LINE
8
BLACK
6
CONTINUOUS
10
3.72146
20
-3.39705
11
3.72146
21
-3.46122
0
LINE
8
BLACK
6
CONTINUOUS
10
3.72146
20
-3.46122
11
3.72933
21
-3.46122
0
LINE
8
BLACK
6
CONTINUOUS
10
3.72933
20
-3.46122
11
3.72933
21
-3.39705
0
LINE
8
BLACK
6
CONTINUOUS
10
3.72933
20
-3.39705
11
3.72146
21
-3.39705
0
LINE
8
BLACK
6
CONTINUOUS
10
3.7313
20
-3.39665
11
3.7313
21
-3.46122
0
LINE
8
BLACK
6
CONTINUOUS
10
3.7313
20
-3.46122
11
3.87894
21
-3.46122
0
LINE
8
BLACK
6
CONTINUOUS
10
3.87894
20
-3.46122
11
3.87894
21
-3.39665
0
LINE
8
BLACK
6
CONTINUOUS
10
3.87894
20
-3.39665
11
3.7313
21
-3.39665
0
LINE
8
BLACK
6
CONTINUOUS
10
3.88091
20
-3.39705
11
3.88091
21
-3.46122
0
LINE
8
BLACK
6
CONTINUOUS
10
3.88091
20
-3.46122
11
3.88878
21
-3.46122
0
LINE
8
BLACK
6
CONTINUOUS
10
3.88878
20
-3.46122
11
3.88878
21
-3.39705
0
LINE
8
BLACK
6
CONTINUOUS
10
3.88878
20
-3.39705
11
3.88091
21
-3.39705
0
LINE
8
BLACK
6
CONTINUOUS
10
4.20965
20
-3.38681
11
4.20965
21
-3.39508
0
LINE
8
BLACK
6
CONTINUOUS
10
4.20965
20
-3.39508
11
4.36713
21
-3.39508
0
LINE
8
BLACK
6
CONTINUOUS
10
4.36713
20
-3.39508
11
4.36713
21
-3.38681
0
LINE
8
BLACK
6
CONTINUOUS
10
4.36713
20
-3.38681
11
4.20965
21
-3.38681
0
LINE
8
BLACK
6
CONTINUOUS
10
3.89075
20
-3.38681
11
3.89075
21
-3.39508
0
LINE
8
BLACK
6
CONTINUOUS
10
3.89075
20
-3.39508
11
4.03839
21
-3.39508
0
LINE
8
BLACK
6
CONTINUOUS
10
4.03839
20
-3.39508
11
4.03839
21
-3.38681
0
LINE
8
BLACK
6
CONTINUOUS
10
4.03839
20
-3.38681
11
3.89075
21
-3.38681
0
LINE
8
BLACK
6
CONTINUOUS
10
3.56201
20
-3.38681
11
3.56201
21
-3.39508
0
LINE
8
BLACK
6
CONTINUOUS
10
3.56201
20
-3.39508
11
3.71949
21
-3.39508
0
LINE
8
BLACK
6
CONTINUOUS
10
3.71949
20
-3.39508
11
3.71949
21
-3.38681
0
LINE
8
BLACK
6
CONTINUOUS
10
3.71949
20
-3.38681
11
3.56201
21
-3.38681
0
LINE
8
BLACK
6
CONTINUOUS
10
4.04035
20
-3.38681
11
4.04035
21
-3.39469
0
LINE
8
BLACK
6
CONTINUOUS
10
4.04035
20
-3.39469
11
4.04823
21
-3.39469
0
LINE
8
BLACK
6
CONTINUOUS
10
4.04823
20
-3.39469
11
4.04823
21
-3.38681
0
LINE
8
BLACK
6
CONTINUOUS
10
4.04823
20
-3.38681
11
4.04035
21
-3.38681
0
LINE
8
BLACK
6
CONTINUOUS
10
4.0502
20
-3.38642
11
4.0502
21
-3.39469
0
LINE
8
BLACK
6
CONTINUOUS
10
4.0502
20
-3.39469
11
4.19783
21
-3.39469
0
LINE
8
BLACK
6
CONTINUOUS
10
4.19783
20
-3.39469
11
4.19783
21
-3.38642
0
LINE
8
BLACK
6
CONTINUOUS
10
4.19783
20
-3.38642
11
4.0502
21
-3.38642
0
LINE
8
BLACK
6
CONTINUOUS
10
4.1998
20
-3.38681
11
4.1998
21
-3.39469
0
LINE
8
BLACK
6
CONTINUOUS
10
4.1998
20
-3.39469
11
4.20768
21
-3.39469
0
LINE
8
BLACK
6
CONTINUOUS
10
4.20768
20
-3.39469
11
4.20768
21
-3.38681
0
LINE
8
BLACK
6
CONTINUOUS
10
4.20768
20
-3.38681
11
4.1998
21
-3.38681
0
LINE
8
BLACK
6
CONTINUOUS
10
3.72146
20
-3.38681
11
3.72146
21
-3.39469
0
LINE
8
BLACK
6
CONTINUOUS
10
3.72146
20
-3.39469
11
3.72933
21
-3.39469
0
LINE
8
BLACK
6
CONTINUOUS
10
3.72933
20
-3.39469
11
3.72933
21
-3.38681
0
LINE
8
BLACK
6
CONTINUOUS
10
3.72933
20
-3.38681
11
3.72146
21
-3.38681
0
LINE
8
BLACK
6
CONTINUOUS
10
3.7313
20
-3.38642
11
3.7313
21
-3.39469
0
LINE
8
BLACK
6
CONTINUOUS
10
3.7313
20
-3.39469
11
3.87894
21
-3.39469
0
LINE
8
BLACK
6
CONTINUOUS
10
3.87894
20
-3.39469
11
3.87894
21
-3.38642
0
LINE
8
BLACK
6
CONTINUOUS
10
3.87894
20
-3.38642
11
3.7313
21
-3.38642
0
LINE
8
BLACK
6
CONTINUOUS
10
3.88091
20
-3.38681
11
3.88091
21
-3.39469
0
LINE
8
BLACK
6
CONTINUOUS
10
3.88091
20
-3.39469
11
3.88878
21
-3.39469
0
LINE
8
BLACK
6
CONTINUOUS
10
3.88878
20
-3.39469
11
3.88878
21
-3.38681
0
LINE
8
BLACK
6
CONTINUOUS
10
3.88878
20
-3.38681
11
3.88091
21
-3.38681
0
LINE
8
BLACK
6
CONTINUOUS
10
4.20965
20
-3.31004
11
4.20965
21
-3.38484
0
LINE
8
BLACK
6
CONTINUOUS
10
4.20965
20
-3.38484
11
4.36713
21
-3.38484
0
LINE
8
BLACK
6
CONTINUOUS
10
4.36713
20
-3.38484
11
4.36713
21
-3.31004
0
LINE
8
BLACK
6
CONTINUOUS
10
4.36713
20
-3.31004
11
4.20965
21
-3.31004
0
LINE
8
BLACK
6
CONTINUOUS
10
3.89075
20
-3.31004
11
3.89075
21
-3.38484
0
LINE
8
BLACK
6
CONTINUOUS
10
3.89075
20
-3.38484
11
4.03839
21
-3.38484
0
LINE
8
BLACK
6
CONTINUOUS
10
4.03839
20
-3.38484
11
4.03839
21
-3.31004
0
LINE
8
BLACK
6
CONTINUOUS
10
4.03839
20
-3.31004
11
3.89075
21
-3.31004
0
LINE
8
BLACK
6
CONTINUOUS
10
3.56201
20
-3.31004
11
3.56201
21
-3.38484
0
LINE
8
BLACK
6
CONTINUOUS
10
3.56201
20
-3.38484
11
3.71949
21
-3.38484
0
LINE
8
BLACK
6
CONTINUOUS
10
3.71949
20
-3.38484
11
3.71949
21
-3.31004
0
LINE
8
BLACK
6
CONTINUOUS
10
3.71949
20
-3.31004
11
3.56201
21
-3.31004
0
LINE
8
BLACK
6
CONTINUOUS
10
4.04035
20
-3.31004
11
4.04035
21
-3.38445
0
LINE
8
BLACK
6
CONTINUOUS
10
4.04035
20
-3.38445
11
4.04823
21
-3.38445
0
LINE
8
BLACK
6
CONTINUOUS
10
4.04823
20
-3.38445
11
4.04823
21
-3.31004
0
LINE
8
BLACK
6
CONTINUOUS
10
4.04823
20
-3.31004
11
4.04035
21
-3.31004
0
LINE
8
BLACK
6
CONTINUOUS
10
4.0502
20
-3.30965
11
4.0502
21
-3.38445
0
LINE
8
BLACK
6
CONTINUOUS
10
4.0502
20
-3.38445
11
4.19783
21
-3.38445
0
LINE
8
BLACK
6
CONTINUOUS
10
4.19783
20
-3.38445
11
4.19783
21
-3.30965
0
LINE
8
BLACK
6
CONTINUOUS
10
4.19783
20
-3.30965
11
4.0502
21
-3.30965
0
LINE
8
BLACK
6
CONTINUOUS
10
4.1998
20
-3.31004
11
4.1998
21
-3.38445
0
LINE
8
BLACK
6
CONTINUOUS
10
4.1998
20
-3.38445
11
4.20768
21
-3.38445
0
LINE
8
BLACK
6
CONTINUOUS
10
4.20768
20
-3.38445
11
4.20768
21
-3.31004
0
LINE
8
BLACK
6
CONTINUOUS
10
4.20768
20
-3.31004
11
4.1998
21
-3.31004
0
LINE
8
BLACK
6
CONTINUOUS
10
3.72146
20
-3.31004
11
3.72146
21
-3.38445
0
LINE
8
BLACK
6
CONTINUOUS
10
3.72146
20
-3.38445
11
3.72933
21
-3.38445
0
LINE
8
BLACK
6
CONTINUOUS
10
3.72933
20
-3.38445
11
3.72933
21
-3.31004
0
LINE
8
BLACK
6
CONTINUOUS
10
3.72933
20
-3.31004
11
3.72146
21
-3.31004
0
LINE
8
BLACK
6
CONTINUOUS
10
3.7313
20
-3.30965
11
3.7313
21
-3.38445
0
LINE
8
BLACK
6
CONTINUOUS
10
3.7313
20
-3.38445
11
3.87894
21
-3.38445
0
LINE
8
BLACK
6
CONTINUOUS
10
3.87894
20
-3.38445
11
3.87894
21
-3.30965
0
LINE
8
BLACK
6
CONTINUOUS
10
3.87894
20
-3.30965
11
3.7313
21
-3.30965
0
LINE
8
BLACK
6
CONTINUOUS
10
3.88091
20
-3.31004
11
3.88091
21
-3.38445
0
LINE
8
BLACK
6
CONTINUOUS
10
3.88091
20
-3.38445
11
3.88878
21
-3.38445
0
LINE
8
BLACK
6
CONTINUOUS
10
3.88878
20
-3.38445
11
3.88878
21
-3.31004
0
LINE
8
BLACK
6
CONTINUOUS
10
3.88878
20
-3.31004
11
3.88091
21
-3.31004
0
LINE
8
BLACK
6
CONTINUOUS
10
4.77657
20
-3.64961
11
4.77657
21
-3.70177
0
LINE
8
BLACK
6
CONTINUOUS
10
4.77657
20
-3.70177
11
4.78642
21
-3.70177
0
LINE
8
BLACK
6
CONTINUOUS
10
4.78642
20
-3.70177
11
4.78642
21
-3.64961
0
LINE
8
BLACK
6
CONTINUOUS
10
4.78642
20
-3.64961
11
4.78671
21
-3.64891
0
LINE
8
BLACK
6
CONTINUOUS
10
4.78671
20
-3.64891
11
4.7874
21
-3.64862
0
LINE
8
BLACK
6
CONTINUOUS
10
4.7874
20
-3.64862
11
4.78839
21
-3.64862
0
LINE
8
BLACK
6
CONTINUOUS
10
4.78839
20
-3.64862
11
4.78839
21
-3.60236
0
LINE
8
BLACK
6
CONTINUOUS
10
4.78839
20
-3.60236
11
4.78867
21
-3.60167
0
LINE
8
BLACK
6
CONTINUOUS
10
4.78867
20
-3.60167
11
4.78937
21
-3.60138
0
LINE
8
BLACK
6
CONTINUOUS
10
4.78937
20
-3.60138
11
4.8878
21
-3.60138
0
LINE
8
BLACK
6
CONTINUOUS
10
4.8878
20
-3.60138
11
4.88849
21
-3.60167
0
LINE
8
BLACK
6
CONTINUOUS
10
4.88849
20
-3.60167
11
4.88878
21
-3.60236
0
LINE
8
BLACK
6
CONTINUOUS
10
4.88878
20
-3.60236
11
4.88878
21
-3.64272
0
LINE
8
BLACK
6
CONTINUOUS
10
4.88878
20
-3.64272
11
4.93898
21
-3.64272
0
LINE
8
BLACK
6
CONTINUOUS
10
4.93898
20
-3.64272
11
4.93967
21
-3.643
0
LINE
8
BLACK
6
CONTINUOUS
10
4.93967
20
-3.643
11
4.93996
21
-3.6437
0
LINE
8
BLACK
6
CONTINUOUS
10
4.93996
20
-3.6437
11
4.93996
21
-3.75787
0
LINE
8
BLACK
6
CONTINUOUS
10
4.93996
20
-3.75787
11
4.93967
21
-3.75857
0
LINE
8
BLACK
6
CONTINUOUS
10
4.93967
20
-3.75857
11
4.93898
21
-3.75886
0
LINE
8
BLACK
6
CONTINUOUS
10
4.93898
20
-3.75886
11
4.89665
21
-3.75886
0
LINE
8
BLACK
6
CONTINUOUS
10
4.89665
20
-3.75886
11
4.89665
21
-3.76181
0
LINE
8
BLACK
6
CONTINUOUS
10
4.89665
20
-3.76181
11
4.89637
21
-3.76251
0
LINE
8
BLACK
6
CONTINUOUS
10
4.89637
20
-3.76251
11
4.89567
21
-3.7628
0
LINE
8
BLACK
6
CONTINUOUS
10
4.89567
20
-3.7628
11
4.55807
21
-3.7628
0
LINE
8
BLACK
6
CONTINUOUS
10
4.55807
20
-3.7628
11
4.55807
21
-3.77559
0
LINE
8
BLACK
6
CONTINUOUS
10
4.55807
20
-3.77559
11
4.55778
21
-3.77629
0
LINE
8
BLACK
6
CONTINUOUS
10
4.55778
20
-3.77629
11
4.55709
21
-3.77657
0
LINE
8
BLACK
6
CONTINUOUS
10
4.55709
20
-3.77657
11
4.50591
21
-3.77657
0
LINE
8
BLACK
6
CONTINUOUS
10
4.50591
20
-3.77657
11
4.50521
21
-3.77629
0
LINE
8
BLACK
6
CONTINUOUS
10
4.50521
20
-3.77629
11
4.50492
21
-3.77559
0
LINE
8
BLACK
6
CONTINUOUS
10
4.50492
20
-3.77559
11
4.50492
21
-3.66535
0
LINE
8
BLACK
6
CONTINUOUS
10
4.50492
20
-3.66535
11
4.50521
21
-3.66466
0
LINE
8
BLACK
6
CONTINUOUS
10
4.50521
20
-3.66466
11
4.50591
21
-3.66437
0
LINE
8
BLACK
6
CONTINUOUS
10
4.50591
20
-3.66437
11
4.55709
21
-3.66437
0
LINE
8
BLACK
6
CONTINUOUS
10
4.55709
20
-3.66437
11
4.55778
21
-3.66466
0
LINE
8
BLACK
6
CONTINUOUS
10
4.55778
20
-3.66466
11
4.55807
21
-3.66535
0
LINE
8
BLACK
6
CONTINUOUS
10
4.55807
20
-3.66535
11
4.55807
21
-3.70177
0
LINE
8
BLACK
6
CONTINUOUS
10
4.55807
20
-3.70177
11
4.56201
21
-3.70177
0
LINE
8
BLACK
6
CONTINUOUS
10
4.56201
20
-3.70177
11
4.56201
21
-3.64961
0
LINE
8
BLACK
6
CONTINUOUS
10
4.56201
20
-3.64961
11
4.5623
21
-3.64891
0
LINE
8
BLACK
6
CONTINUOUS
10
4.5623
20
-3.64891
11
4.56299
21
-3.64862
0
LINE
8
BLACK
6
CONTINUOUS
10
4.56299
20
-3.64862
11
4.66535
21
-3.64862
0
LINE
8
BLACK
6
CONTINUOUS
10
4.66535
20
-3.64862
11
4.66605
21
-3.64891
0
LINE
8
BLACK
6
CONTINUOUS
10
4.66605
20
-3.64891
11
4.66634
21
-3.64961
0
LINE
8
BLACK
6
CONTINUOUS
10
4.66634
20
-3.64961
11
4.66634
21
-3.70177
0
LINE
8
BLACK
6
CONTINUOUS
10
4.66634
20
-3.70177
11
4.67224
21
-3.70177
0
LINE
8
BLACK
6
CONTINUOUS
10
4.67224
20
-3.70177
11
4.67224
21
-3.64961
0
LINE
8
BLACK
6
CONTINUOUS
10
4.67224
20
-3.64961
11
4.67253
21
-3.64891
0
LINE
8
BLACK
6
CONTINUOUS
10
4.67253
20
-3.64891
11
4.67323
21
-3.64862
0
LINE
8
BLACK
6
CONTINUOUS
10
4.67323
20
-3.64862
11
4.67421
21
-3.64862
0
LINE
8
BLACK
6
CONTINUOUS
10
4.67421
20
-3.64862
11
4.67421
21
-3.60236
0
LINE
8
BLACK
6
CONTINUOUS
10
4.67421
20
-3.60236
11
4.6745
21
-3.60167
0
LINE
8
BLACK
6
CONTINUOUS
10
4.6745
20
-3.60167
11
4.6752
21
-3.60138
0
LINE
8
BLACK
6
CONTINUOUS
10
4.6752
20
-3.60138
11
4.77362
21
-3.60138
0
LINE
8
BLACK
6
CONTINUOUS
10
4.77362
20
-3.60138
11
4.77432
21
-3.60167
0
LINE
8
BLACK
6
CONTINUOUS
10
4.77432
20
-3.60167
11
4.77461
21
-3.60236
0
LINE
8
BLACK
6
CONTINUOUS
10
4.77461
20
-3.60236
11
4.77461
21
-3.64862
0
LINE
8
BLACK
6
CONTINUOUS
10
4.77461
20
-3.64862
11
4.77559
21
-3.64862
0
LINE
8
BLACK
6
CONTINUOUS
10
4.77559
20
-3.64862
11
4.77629
21
-3.64891
0
LINE
8
BLACK
6
CONTINUOUS
10
4.77629
20
-3.64891
11
4.77657
21
-3.64961
0
LINE
8
BLACK
6
CONTINUOUS
10
4.50689
20
-3.66634
11
4.50689
21
-3.77461
0
LINE
8
BLACK
6
CONTINUOUS
10
4.50689
20
-3.77461
11
4.5561
21
-3.77461
0
LINE
8
BLACK
6
CONTINUOUS
10
4.5561
20
-3.77461
11
4.5561
21
-3.66634
0
LINE
8
BLACK
6
CONTINUOUS
10
4.5561
20
-3.66634
11
4.50689
21
-3.66634
0
LINE
8
BLACK
6
CONTINUOUS
10
4.78248
20
-3.70374
11
4.78248
21
-3.76083
0
LINE
8
BLACK
6
CONTINUOUS
10
4.78248
20
-3.76083
11
4.89469
21
-3.76083
0
LINE
8
BLACK
6
CONTINUOUS
10
4.89469
20
-3.76083
11
4.89469
21
-3.75886
0
LINE
8
BLACK
6
CONTINUOUS
10
4.89469
20
-3.75886
11
4.87992
21
-3.75886
0
LINE
8
BLACK
6
CONTINUOUS
10
4.87992
20
-3.75886
11
4.87923
21
-3.75857
0
LINE
8
BLACK
6
CONTINUOUS
10
4.87923
20
-3.75857
11
4.87894
21
-3.75787
0
LINE
8
BLACK
6
CONTINUOUS
10
4.87894
20
-3.75787
11
4.87894
21
-3.71358
0
LINE
8
BLACK
6
CONTINUOUS
10
4.87894
20
-3.71358
11
4.7874
21
-3.71358
0
LINE
8
BLACK
6
CONTINUOUS
10
4.7874
20
-3.71358
11
4.78671
21
-3.71329
0
LINE
8
BLACK
6
CONTINUOUS
10
4.78671
20
-3.71329
11
4.78642
21
-3.7126
0
LINE
8
BLACK
6
CONTINUOUS
10
4.78642
20
-3.7126
11
4.78642
21
-3.70374
0
LINE
8
BLACK
6
CONTINUOUS
10
4.78642
20
-3.70374
11
4.78248
21
-3.70374
0
LINE
8
BLACK
6
CONTINUOUS
10
4.67253
20
-3.71329
11
4.67224
21
-3.7126
0
LINE
8
BLACK
6
CONTINUOUS
10
4.67224
20
-3.7126
11
4.67224
21
-3.76083
0
LINE
8
BLACK
6
CONTINUOUS
10
4.67224
20
-3.76083
11
4.78051
21
-3.76083
0
LINE
8
BLACK
6
CONTINUOUS
10
4.78051
20
-3.76083
11
4.78051
21
-3.70374
0
LINE
8
BLACK
6
CONTINUOUS
10
4.78051
20
-3.70374
11
4.77657
21
-3.70374
0
LINE
8
BLACK
6
CONTINUOUS
10
4.77657
20
-3.70374
11
4.77657
21
-3.7126
0
LINE
8
BLACK
6
CONTINUOUS
10
4.77657
20
-3.7126
11
4.77629
21
-3.71329
0
LINE
8
BLACK
6
CONTINUOUS
10
4.77629
20
-3.71329
11
4.77559
21
-3.71358
0
LINE
8
BLACK
6
CONTINUOUS
10
4.77559
20
-3.71358
11
4.67323
21
-3.71358
0
LINE
8
BLACK
6
CONTINUOUS
10
4.67323
20
-3.71358
11
4.67253
21
-3.71329
0
LINE
8
BLACK
6
CONTINUOUS
10
4.5623
20
-3.71329
11
4.56201
21
-3.7126
0
LINE
8
BLACK
6
CONTINUOUS
10
4.56201
20
-3.7126
11
4.56201
21
-3.70374
0
LINE
8
BLACK
6
CONTINUOUS
10
4.56201
20
-3.70374
11
4.55807
21
-3.70374
0
LINE
8
BLACK
6
CONTINUOUS
10
4.55807
20
-3.70374
11
4.55807
21
-3.76083
0
LINE
8
BLACK
6
CONTINUOUS
10
4.55807
20
-3.76083
11
4.66634
21
-3.76083
0
LINE
8
BLACK
6
CONTINUOUS
10
4.66634
20
-3.76083
11
4.66634
21
-3.7126
0
LINE
8
BLACK
6
CONTINUOUS
10
4.66634
20
-3.7126
11
4.66605
21
-3.71329
0
LINE
8
BLACK
6
CONTINUOUS
10
4.66605
20
-3.71329
11
4.66535
21
-3.71358
0
LINE
8
BLACK
6
CONTINUOUS
10
4.66535
20
-3.71358
11
4.56299
21
-3.71358
0
LINE
8
BLACK
6
CONTINUOUS
10
4.56299
20
-3.71358
11
4.5623
21
-3.71329
0
LINE
8
BLACK
6
CONTINUOUS
10
4.66831
20
-3.70374
11
4.66831
21
-3.76083
0
LINE
8
BLACK
6
CONTINUOUS
10
4.66831
20
-3.76083
11
4.67028
21
-3.76083
0
LINE
8
BLACK
6
CONTINUOUS
10
4.67028
20
-3.76083
11
4.67028
21
-3.70374
0
LINE
8
BLACK
6
CONTINUOUS
10
4.67028
20
-3.70374
11
4.66831
21
-3.70374
0
LINE
8
BLACK
6
CONTINUOUS
10
4.88091
20
-3.75689
11
4.89469
21
-3.75689
0
LINE
8
BLACK
6
CONTINUOUS
10
4.89469
20
-3.75689
11
4.89469
21
-3.70374
0
LINE
8
BLACK
6
CONTINUOUS
10
4.89469
20
-3.70374
11
4.89075
21
-3.70374
0
LINE
8
BLACK
6
CONTINUOUS
10
4.89075
20
-3.70374
11
4.89075
21
-3.7126
0
LINE
8
BLACK
6
CONTINUOUS
10
4.89075
20
-3.7126
11
4.89046
21
-3.71329
0
LINE
8
BLACK
6
CONTINUOUS
10
4.89046
20
-3.71329
11
4.88976
21
-3.71358
0
LINE
8
BLACK
6
CONTINUOUS
10
4.88976
20
-3.71358
11
4.88091
21
-3.71358
0
LINE
8
BLACK
6
CONTINUOUS
10
4.88091
20
-3.71358
11
4.88091
21
-3.75689
0
LINE
8
BLACK
6
CONTINUOUS
10
4.89075
20
-3.64961
11
4.89075
21
-3.70177
0
LINE
8
BLACK
6
CONTINUOUS
10
4.89075
20
-3.70177
11
4.89567
21
-3.70177
0
LINE
8
BLACK
6
CONTINUOUS
10
4.89567
20
-3.70177
11
4.89637
21
-3.70206
0
LINE
8
BLACK
6
CONTINUOUS
10
4.89637
20
-3.70206
11
4.89665
21
-3.70276
0
LINE
8
BLACK
6
CONTINUOUS
10
4.89665
20
-3.70276
11
4.89665
21
-3.75689
0
LINE
8
BLACK
6
CONTINUOUS
10
4.89665
20
-3.75689
11
4.93799
21
-3.75689
0
LINE
8
BLACK
6
CONTINUOUS
10
4.93799
20
-3.75689
11
4.93799
21
-3.64469
0
LINE
8
BLACK
6
CONTINUOUS
10
4.93799
20
-3.64469
11
4.88878
21
-3.64469
0
LINE
8
BLACK
6
CONTINUOUS
10
4.88878
20
-3.64469
11
4.88878
21
-3.64862
0
LINE
8
BLACK
6
CONTINUOUS
10
4.88878
20
-3.64862
11
4.88976
21
-3.64862
0
LINE
8
BLACK
6
CONTINUOUS
10
4.88976
20
-3.64862
11
4.89046
21
-3.64891
0
LINE
8
BLACK
6
CONTINUOUS
10
4.89046
20
-3.64891
11
4.89075
21
-3.64961
0
LINE
8
BLACK
6
CONTINUOUS
10
4.78839
20
-3.70374
11
4.78839
21
-3.71161
0
LINE
8
BLACK
6
CONTINUOUS
10
4.78839
20
-3.71161
11
4.87894
21
-3.71161
0
LINE
8
BLACK
6
CONTINUOUS
10
4.87894
20
-3.71161
11
4.87894
21
-3.70374
0
LINE
8
BLACK
6
CONTINUOUS
10
4.87894
20
-3.70374
11
4.78839
21
-3.70374
0
LINE
8
BLACK
6
CONTINUOUS
10
4.88091
20
-3.70374
11
4.88091
21
-3.71161
0
LINE
8
BLACK
6
CONTINUOUS
10
4.88091
20
-3.71161
11
4.88878
21
-3.71161
0
LINE
8
BLACK
6
CONTINUOUS
10
4.88878
20
-3.71161
11
4.88878
21
-3.70374
0
LINE
8
BLACK
6
CONTINUOUS
10
4.88878
20
-3.70374
11
4.88091
21
-3.70374
0
LINE
8
BLACK
6
CONTINUOUS
10
4.67421
20
-3.70374
11
4.67421
21
-3.71161
0
LINE
8
BLACK
6
CONTINUOUS
10
4.67421
20
-3.71161
11
4.77461
21
-3.71161
0
LINE
8
BLACK
6
CONTINUOUS
10
4.77461
20
-3.71161
11
4.77461
21
-3.70374
0
LINE
8
BLACK
6
CONTINUOUS
10
4.77461
20
-3.70374
11
4.67421
21
-3.70374
0
LINE
8
BLACK
6
CONTINUOUS
10
4.56398
20
-3.70374
11
4.56398
21
-3.71161
0
LINE
8
BLACK
6
CONTINUOUS
10
4.56398
20
-3.71161
11
4.66437
21
-3.71161
0
LINE
8
BLACK
6
CONTINUOUS
10
4.66437
20
-3.71161
11
4.66437
21
-3.70374
0
LINE
8
BLACK
6
CONTINUOUS
10
4.66437
20
-3.70374
11
4.56398
21
-3.70374
0
LINE
8
BLACK
6
CONTINUOUS
10
4.87894
20
-3.70177
11
4.87894
21
-3.65846
0
LINE
8
BLACK
6
CONTINUOUS
10
4.87894
20
-3.65846
11
4.78937
21
-3.65846
0
LINE
8
BLACK
6
CONTINUOUS
10
4.78937
20
-3.65846
11
4.78867
21
-3.65818
0
LINE
8
BLACK
6
CONTINUOUS
10
4.78867
20
-3.65818
11
4.78839
21
-3.65748
0
LINE
8
BLACK
6
CONTINUOUS
10
4.78839
20
-3.65748
11
4.78839
21
-3.70177
0
LINE
8
BLACK
6
CONTINUOUS
10
4.78839
20
-3.70177
11
4.87894
21
-3.70177
0
LINE
8
BLACK
6
CONTINUOUS
10
4.88091
20
-3.70177
11
4.88878
21
-3.70177
0
LINE
8
BLACK
6
CONTINUOUS
10
4.88878
20
-3.70177
11
4.88878
21
-3.65748
0
LINE
8
BLACK
6
CONTINUOUS
10
4.88878
20
-3.65748
11
4.88849
21
-3.65818
0
LINE
8
BLACK
6
CONTINUOUS
10
4.88849
20
-3.65818
11
4.8878
21
-3.65846
0
LINE
8
BLACK
6
CONTINUOUS
10
4.8878
20
-3.65846
11
4.88091
21
-3.65846
0
LINE
8
BLACK
6
CONTINUOUS
10
4.88091
20
-3.65846
11
4.88091
21
-3.70177
0
LINE
8
BLACK
6
CONTINUOUS
10
4.6745
20
-3.65818
11
4.67421
21
-3.65748
0
LINE
8
BLACK
6
CONTINUOUS
10
4.67421
20
-3.65748
11
4.67421
21
-3.70177
0
LINE
8
BLACK
6
CONTINUOUS
10
4.67421
20
-3.70177
11
4.77461
21
-3.70177
0
LINE
8
BLACK
6
CONTINUOUS
10
4.77461
20
-3.70177
11
4.77461
21
-3.65748
0
LINE
8
BLACK
6
CONTINUOUS
10
4.77461
20
-3.65748
11
4.77432
21
-3.65818
0
LINE
8
BLACK
6
CONTINUOUS
10
4.77432
20
-3.65818
11
4.77362
21
-3.65846
0
LINE
8
BLACK
6
CONTINUOUS
10
4.77362
20
-3.65846
11
4.6752
21
-3.65846
0
LINE
8
BLACK
6
CONTINUOUS
10
4.6752
20
-3.65846
11
4.6745
21
-3.65818
0
LINE
8
BLACK
6
CONTINUOUS
10
4.56398
20
-3.65059
11
4.56398
21
-3.70177
0
LINE
8
BLACK
6
CONTINUOUS
10
4.56398
20
-3.70177
11
4.66437
21
-3.70177
0
LINE
8
BLACK
6
CONTINUOUS
10
4.66437
20
-3.70177
11
4.66437
21
-3.65059
0
LINE
8
BLACK
6
CONTINUOUS
10
4.66437
20
-3.65059
11
4.56398
21
-3.65059
0
LINE
8
BLACK
6
CONTINUOUS
10
4.79035
20
-3.65059
11
4.79035
21
-3.6565
0
LINE
8
BLACK
6
CONTINUOUS
10
4.79035
20
-3.6565
11
4.87894
21
-3.6565
0
LINE
8
BLACK
6
CONTINUOUS
10
4.87894
20
-3.6565
11
4.87894
21
-3.65059
0
LINE
8
BLACK
6
CONTINUOUS
10
4.87894
20
-3.65059
11
4.79035
21
-3.65059
0
LINE
8
BLACK
6
CONTINUOUS
10
4.88091
20
-3.65059
11
4.88091
21
-3.6565
0
LINE
8
BLACK
6
CONTINUOUS
10
4.88091
20
-3.6565
11
4.88681
21
-3.6565
0
LINE
8
BLACK
6
CONTINUOUS
10
4.88681
20
-3.6565
11
4.88681
21
-3.65059
0
LINE
8
BLACK
6
CONTINUOUS
10
4.88681
20
-3.65059
11
4.88091
21
-3.65059
0
LINE
8
BLACK
6
CONTINUOUS
10
4.67618
20
-3.65059
11
4.67618
21
-3.6565
0
LINE
8
BLACK
6
CONTINUOUS
10
4.67618
20
-3.6565
11
4.77264
21
-3.6565
0
LINE
8
BLACK
6
CONTINUOUS
10
4.77264
20
-3.6565
11
4.77264
21
-3.65059
0
LINE
8
BLACK
6
CONTINUOUS
10
4.77264
20
-3.65059
11
4.67618
21
-3.65059
0
LINE
8
BLACK
6
CONTINUOUS
10
4.79035
20
-3.60335
11
4.79035
21
-3.64862
0
LINE
8
BLACK
6
CONTINUOUS
10
4.79035
20
-3.64862
11
4.87894
21
-3.64862
0
LINE
8
BLACK
6
CONTINUOUS
10
4.87894
20
-3.64862
11
4.87894
21
-3.6437
0
LINE
8
BLACK
6
CONTINUOUS
10
4.87894
20
-3.6437
11
4.87923
21
-3.643
0
LINE
8
BLACK
6
CONTINUOUS
10
4.87923
20
-3.643
11
4.87992
21
-3.64272
0
LINE
8
BLACK
6
CONTINUOUS
10
4.87992
20
-3.64272
11
4.88681
21
-3.64272
0
LINE
8
BLACK
6
CONTINUOUS
10
4.88681
20
-3.64272
11
4.88681
21
-3.60335
0
LINE
8
BLACK
6
CONTINUOUS
10
4.88681
20
-3.60335
11
4.79035
21
-3.60335
0
LINE
8
BLACK
6
CONTINUOUS
10
4.88091
20
-3.64469
11
4.88091
21
-3.64862
0
LINE
8
BLACK
6
CONTINUOUS
10
4.88091
20
-3.64862
11
4.88681
21
-3.64862
0
LINE
8
BLACK
6
CONTINUOUS
10
4.88681
20
-3.64862
11
4.88681
21
-3.64469
0
LINE
8
BLACK
6
CONTINUOUS
10
4.88681
20
-3.64469
11
4.88091
21
-3.64469
0
LINE
8
BLACK
6
CONTINUOUS
10
4.67618
20
-3.60335
11
4.67618
21
-3.64862
0
LINE
8
BLACK
6
CONTINUOUS
10
4.67618
20
-3.64862
11
4.77264
21
-3.64862
0
LINE
8
BLACK
6
CONTINUOUS
10
4.77264
20
-3.64862
11
4.77264
21
-3.60335
0
LINE
8
BLACK
6
CONTINUOUS
10
4.77264
20
-3.60335
11
4.67618
21
-3.60335
0
LINE
8
BLACK
6
CONTINUOUS
10
3.12274
20
-3.68377
11
3.12205
21
-3.68406
0
LINE
8
BLACK
6
CONTINUOUS
10
3.12205
20
-3.68406
11
3.06398
21
-3.68406
0
LINE
8
BLACK
6
CONTINUOUS
10
3.06398
20
-3.68406
11
3.06398
21
-3.69291
0
LINE
8
BLACK
6
CONTINUOUS
10
3.06398
20
-3.69291
11
3.06369
21
-3.69361
0
LINE
8
BLACK
6
CONTINUOUS
10
3.06369
20
-3.69361
11
3.06299
21
-3.6939
0
LINE
8
BLACK
6
CONTINUOUS
10
3.06299
20
-3.6939
11
2.84252
21
-3.6939
0
LINE
8
BLACK
6
CONTINUOUS
10
2.84252
20
-3.6939
11
2.84182
21
-3.69361
0
LINE
8
BLACK
6
CONTINUOUS
10
2.84182
20
-3.69361
11
2.84154
21
-3.69291
0
LINE
8
BLACK
6
CONTINUOUS
10
2.84154
20
-3.69291
11
2.84154
21
-3.55118
0
LINE
8
BLACK
6
CONTINUOUS
10
2.84154
20
-3.55118
11
2.84182
21
-3.55049
0
LINE
8
BLACK
6
CONTINUOUS
10
2.84182
20
-3.55049
11
2.84252
21
-3.5502
0
LINE
8
BLACK
6
CONTINUOUS
10
2.84252
20
-3.5502
11
2.89567
21
-3.5502
0
LINE
8
BLACK
6
CONTINUOUS
10
2.89567
20
-3.5502
11
2.89497
21
-3.54991
0
LINE
8
BLACK
6
CONTINUOUS
10
2.89497
20
-3.54991
11
2.89469
21
-3.54921
0
LINE
8
BLACK
6
CONTINUOUS
10
2.89469
20
-3.54921
11
2.89469
21
-3.49016
0
LINE
8
BLACK
6
CONTINUOUS
10
2.89469
20
-3.49016
11
2.89497
21
-3.48946
0
LINE
8
BLACK
6
CONTINUOUS
10
2.89497
20
-3.48946
11
2.89567
21
-3.48917
0
LINE
8
BLACK
6
CONTINUOUS
10
2.89567
20
-3.48917
11
3.00984
21
-3.48917
0
LINE
8
BLACK
6
CONTINUOUS
10
3.00984
20
-3.48917
11
3.01054
21
-3.48946
0
LINE
8
BLACK
6
CONTINUOUS
10
3.01054
20
-3.48946
11
3.01083
21
-3.49016
0
LINE
8
BLACK
6
CONTINUOUS
10
3.01083
20
-3.49016
11
3.01083
21
-3.54921
0
LINE
8
BLACK
6
CONTINUOUS
10
3.01083
20
-3.54921
11
3.01054
21
-3.54991
0
LINE
8
BLACK
6
CONTINUOUS
10
3.01054
20
-3.54991
11
3.00984
21
-3.5502
0
LINE
8
BLACK
6
CONTINUOUS
10
3.00984
20
-3.5502
11
3.05807
21
-3.5502
0
LINE
8
BLACK
6
CONTINUOUS
10
3.05807
20
-3.5502
11
3.05807
21
-3.48228
0
LINE
8
BLACK
6
CONTINUOUS
10
3.05807
20
-3.48228
11
3.05836
21
-3.48159
0
LINE
8
BLACK
6
CONTINUOUS
10
3.05836
20
-3.48159
11
3.05906
21
-3.4813
0
LINE
8
BLACK
6
CONTINUOUS
10
3.05906
20
-3.4813
11
3.12205
21
-3.4813
0
LINE
8
BLACK
6
CONTINUOUS
10
3.12205
20
-3.4813
11
3.12274
21
-3.48159
0
LINE
8
BLACK
6
CONTINUOUS
10
3.12274
20
-3.48159
11
3.12303
21
-3.48228
0
LINE
8
BLACK
6
CONTINUOUS
10
3.12303
20
-3.48228
11
3.12303
21
-3.68307
0
LINE
8
BLACK
6
CONTINUOUS
10
3.12303
20
-3.68307
11
3.12274
21
-3.68377
0
LINE
8
BLACK
6
CONTINUOUS
10
2.8435
20
-3.55217
11
2.8435
21
-3.69193
0
LINE
8
BLACK
6
CONTINUOUS
10
2.8435
20
-3.69193
11
3.06201
21
-3.69193
0
LINE
8
BLACK
6
CONTINUOUS
10
3.06201
20
-3.69193
11
3.06201
21
-3.68406
0
LINE
8
BLACK
6
CONTINUOUS
10
3.06201
20
-3.68406
11
3.05906
21
-3.68406
0
LINE
8
BLACK
6
CONTINUOUS
10
3.05906
20
-3.68406
11
3.05836
21
-3.68377
0
LINE
8
BLACK
6
CONTINUOUS
10
3.05836
20
-3.68377
11
3.05807
21
-3.68307
0
LINE
8
BLACK
6
CONTINUOUS
10
3.05807
20
-3.68307
11
3.05807
21
-3.55217
0
LINE
8
BLACK
6
CONTINUOUS
10
3.05807
20
-3.55217
11
2.8435
21
-3.55217
0
LINE
8
BLACK
6
CONTINUOUS
10
3.06004
20
-3.58563
11
3.06004
21
-3.68209
0
LINE
8
BLACK
6
CONTINUOUS
10
3.06004
20
-3.68209
11
3.06201
21
-3.68209
0
LINE
8
BLACK
6
CONTINUOUS
10
3.06201
20
-3.68209
11
3.06201
21
-3.58563
0
LINE
8
BLACK
6
CONTINUOUS
10
3.06201
20
-3.58563
11
3.06004
21
-3.58563
0
LINE
8
BLACK
6
CONTINUOUS
10
3.06398
20
-3.58563
11
3.06398
21
-3.68209
0
LINE
8
BLACK
6
CONTINUOUS
10
3.06398
20
-3.68209
11
3.12106
21
-3.68209
0
LINE
8
BLACK
6
CONTINUOUS
10
3.12106
20
-3.68209
11
3.12106
21
-3.58563
0
LINE
8
BLACK
6
CONTINUOUS
10
3.12106
20
-3.58563
11
3.06398
21
-3.58563
0
LINE
8
BLACK
6
CONTINUOUS
10
3.06004
20
-3.58169
11
3.06004
21
-3.58366
0
LINE
8
BLACK
6
CONTINUOUS
10
3.06004
20
-3.58366
11
3.06201
21
-3.58366
0
LINE
8
BLACK
6
CONTINUOUS
10
3.06201
20
-3.58366
11
3.06201
21
-3.58169
0
LINE
8
BLACK
6
CONTINUOUS
10
3.06201
20
-3.58169
11
3.06004
21
-3.58169
0
LINE
8
BLACK
6
CONTINUOUS
10
3.06398
20
-3.58169
11
3.06398
21
-3.58366
0
LINE
8
BLACK
6
CONTINUOUS
10
3.06398
20
-3.58366
11
3.12106
21
-3.58366
0
LINE
8
BLACK
6
CONTINUOUS
10
3.12106
20
-3.58366
11
3.12106
21
-3.58169
0
LINE
8
BLACK
6
CONTINUOUS
10
3.12106
20
-3.58169
11
3.06398
21
-3.58169
0
LINE
8
BLACK
6
CONTINUOUS
10
3.06004
20
-3.55217
11
3.06004
21
-3.57972
0
LINE
8
BLACK
6
CONTINUOUS
10
3.06004
20
-3.57972
11
3.06201
21
-3.57972
0
LINE
8
BLACK
6
CONTINUOUS
10
3.06201
20
-3.57972
11
3.06201
21
-3.55217
0
LINE
8
BLACK
6
CONTINUOUS
10
3.06201
20
-3.55217
11
3.06004
21
-3.55217
0
LINE
8
BLACK
6
CONTINUOUS
10
3.06398
20
-3.55118
11
3.06398
21
-3.57972
0
LINE
8
BLACK
6
CONTINUOUS
10
3.06398
20
-3.57972
11
3.12106
21
-3.57972
0
LINE
8
BLACK
6
CONTINUOUS
10
3.12106
20
-3.57972
11
3.12106
21
-3.48327
0
LINE
8
BLACK
6
CONTINUOUS
10
3.12106
20
-3.48327
11
3.06004
21
-3.48327
0
LINE
8
BLACK
6
CONTINUOUS
10
3.06004
20
-3.48327
11
3.06004
21
-3.5502
0
LINE
8
BLACK
6
CONTINUOUS
10
3.06004
20
-3.5502
11
3.06299
21
-3.5502
0
LINE
8
BLACK
6
CONTINUOUS
10
3.06299
20
-3.5502
11
3.06369
21
-3.55049
0
LINE
8
BLACK
6
CONTINUOUS
10
3.06369
20
-3.55049
11
3.06398
21
-3.55118
0
LINE
8
BLACK
6
CONTINUOUS
10
2.89665
20
-3.49114
11
2.89665
21
-3.54823
0
LINE
8
BLACK
6
CONTINUOUS
10
2.89665
20
-3.54823
11
3.00886
21
-3.54823
0
LINE
8
BLACK
6
CONTINUOUS
10
3.00886
20
-3.54823
11
3.00886
21
-3.49114
0
LINE
8
BLACK
6
CONTINUOUS
10
3.00886
20
-3.49114
11
2.89665
21
-3.49114
0
LINE
8
BLACK
6
CONTINUOUS
10
4.60531
20
-3.42913
11
4.60531
21
-3.53051
0
LINE
8
BLACK
6
CONTINUOUS
10
4.60531
20
-3.53051
11
4.6122
21
-3.53051
0
LINE
8
BLACK
6
CONTINUOUS
10
4.6122
20
-3.53051
11
4.6129
21
-3.5308
0
LINE
8
BLACK
6
CONTINUOUS
10
4.6129
20
-3.5308
11
4.61319
21
-3.5315
0
LINE
8
BLACK
6
CONTINUOUS
10
4.61319
20
-3.5315
11
4.61319
21
-3.63386
0
LINE
8
BLACK
6
CONTINUOUS
10
4.61319
20
-3.63386
11
4.6129
21
-3.63455
0
LINE
8
BLACK
6
CONTINUOUS
10
4.6129
20
-3.63455
11
4.6122
21
-3.63484
0
LINE
8
BLACK
6
CONTINUOUS
10
4.6122
20
-3.63484
11
4.51378
21
-3.63484
0
LINE
8
BLACK
6
CONTINUOUS
10
4.51378
20
-3.63484
11
4.51308
21
-3.63455
0
LINE
8
BLACK
6
CONTINUOUS
10
4.51308
20
-3.63455
11
4.5128
21
-3.63386
0
LINE
8
BLACK
6
CONTINUOUS
10
4.5128
20
-3.63386
11
4.5128
21
-3.54232
0
LINE
8
BLACK
6
CONTINUOUS
10
4.5128
20
-3.54232
11
4.50197
21
-3.54232
0
LINE
8
BLACK
6
CONTINUOUS
10
4.50197
20
-3.54232
11
4.50127
21
-3.54203
0
LINE
8
BLACK
6
CONTINUOUS
10
4.50127
20
-3.54203
11
4.50098
21
-3.54134
0
LINE
8
BLACK
6
CONTINUOUS
10
4.50098
20
-3.54134
11
4.50098
21
-3.42717
0
LINE
8
BLACK
6
CONTINUOUS
10
4.50098
20
-3.42717
11
4.50127
21
-3.42647
0
LINE
8
BLACK
6
CONTINUOUS
10
4.50127
20
-3.42647
11
4.50197
21
-3.42618
0
LINE
8
BLACK
6
CONTINUOUS
10
4.50197
20
-3.42618
11
4.56102
21
-3.42618
0
LINE
8
BLACK
6
CONTINUOUS
10
4.56102
20
-3.42618
11
4.56172
21
-3.42647
0
LINE
8
BLACK
6
CONTINUOUS
10
4.56172
20
-3.42647
11
4.56201
21
-3.42717
0
LINE
8
BLACK
6
CONTINUOUS
10
4.56201
20
-3.42717
11
4.56201
21
-3.42815
0
LINE
8
BLACK
6
CONTINUOUS
10
4.56201
20
-3.42815
11
4.60433
21
-3.42815
0
LINE
8
BLACK
6
CONTINUOUS
10
4.60433
20
-3.42815
11
4.60503
21
-3.42844
0
LINE
8
BLACK
6
CONTINUOUS
10
4.60503
20
-3.42844
11
4.60531
21
-3.42913
0
LINE
8
BLACK
6
CONTINUOUS
10
4.51476
20
-3.5876
11
4.51476
21
-3.63287
0
LINE
8
BLACK
6
CONTINUOUS
10
4.51476
20
-3.63287
11
4.61122
21
-3.63287
0
LINE
8
BLACK
6
CONTINUOUS
10
4.61122
20
-3.63287
11
4.61122
21
-3.5876
0
LINE
8
BLACK
6
CONTINUOUS
10
4.61122
20
-3.5876
11
4.51476
21
-3.5876
0
LINE
8
BLACK
6
CONTINUOUS
10
4.51476
20
-3.57972
11
4.51476
21
-3.58563
0
LINE
8
BLACK
6
CONTINUOUS
10
4.51476
20
-3.58563
11
4.61122
21
-3.58563
0
LINE
8
BLACK
6
CONTINUOUS
10
4.61122
20
-3.58563
11
4.61122
21
-3.57972
0
LINE
8
BLACK
6
CONTINUOUS
10
4.61122
20
-3.57972
11
4.51476
21
-3.57972
0
LINE
8
BLACK
6
CONTINUOUS
10
4.56201
20
-3.54134
11
4.56172
21
-3.54203
0
LINE
8
BLACK
6
CONTINUOUS
10
4.56172
20
-3.54203
11
4.56102
21
-3.54232
0
LINE
8
BLACK
6
CONTINUOUS
10
4.56102
20
-3.54232
11
4.51476
21
-3.54232
0
LINE
8
BLACK
6
CONTINUOUS
10
4.51476
20
-3.54232
11
4.51476
21
-3.57776
0
LINE
8
BLACK
6
CONTINUOUS
10
4.51476
20
-3.57776
11
4.61122
21
-3.57776
0
LINE
8
BLACK
6
CONTINUOUS
10
4.61122
20
-3.57776
11
4.61122
21
-3.53248
0
LINE
8
BLACK
6
CONTINUOUS
10
4.61122
20
-3.53248
11
4.60531
21
-3.53248
0
LINE
8
BLACK
6
CONTINUOUS
10
4.60531
20
-3.53248
11
4.60531
21
-3.53937
0
LINE
8
BLACK
6
CONTINUOUS
10
4.60531
20
-3.53937
11
4.60503
21
-3.54007
0
LINE
8
BLACK
6
CONTINUOUS
10
4.60503
20
-3.54007
11
4.60433
21
-3.54035
0
LINE
8
BLACK
6
CONTINUOUS
10
4.60433
20
-3.54035
11
4.56201
21
-3.54035
0
LINE
8
BLACK
6
CONTINUOUS
10
4.56201
20
-3.54035
11
4.56201
21
-3.54134
0
LINE
8
BLACK
6
CONTINUOUS
10
4.50295
20
-3.54035
11
4.5128
21
-3.54035
0
LINE
8
BLACK
6
CONTINUOUS
10
4.5128
20
-3.54035
11
4.5128
21
-3.5315
0
LINE
8
BLACK
6
CONTINUOUS
10
4.5128
20
-3.5315
11
4.51308
21
-3.5308
0
LINE
8
BLACK
6
CONTINUOUS
10
4.51308
20
-3.5308
11
4.51378
21
-3.53051
0
LINE
8
BLACK
6
CONTINUOUS
10
4.51378
20
-3.53051
11
4.55217
21
-3.53051
0
LINE
8
BLACK
6
CONTINUOUS
10
4.55217
20
-3.53051
11
4.55217
21
-3.42913
0
LINE
8
BLACK
6
CONTINUOUS
10
4.55217
20
-3.42913
11
4.55245
21
-3.42844
0
LINE
8
BLACK
6
CONTINUOUS
10
4.55245
20
-3.42844
11
4.55315
21
-3.42815
0
LINE
8
BLACK
6
CONTINUOUS
10
4.55315
20
-3.42815
11
4.50295
21
-3.42815
0
LINE
8
BLACK
6
CONTINUOUS
10
4.50295
20
-3.42815
11
4.50295
21
-3.54035
0
LINE
8
BLACK
6
CONTINUOUS
10
4.55245
20
-3.54007
11
4.55217
21
-3.53937
0
LINE
8
BLACK
6
CONTINUOUS
10
4.55217
20
-3.53937
11
4.55217
21
-3.53248
0
LINE
8
BLACK
6
CONTINUOUS
10
4.55217
20
-3.53248
11
4.51476
21
-3.53248
0
LINE
8
BLACK
6
CONTINUOUS
10
4.51476
20
-3.53248
11
4.51476
21
-3.54035
0
LINE
8
BLACK
6
CONTINUOUS
10
4.51476
20
-3.54035
11
4.55315
21
-3.54035
0
LINE
8
BLACK
6
CONTINUOUS
10
4.55315
20
-3.54035
11
4.55245
21
-3.54007
0
LINE
8
BLACK
6
CONTINUOUS
10
4.55413
20
-3.53248
11
4.55413
21
-3.53839
0
LINE
8
BLACK
6
CONTINUOUS
10
4.55413
20
-3.53839
11
4.56004
21
-3.53839
0
LINE
8
BLACK
6
CONTINUOUS
10
4.56004
20
-3.53839
11
4.56004
21
-3.53248
0
LINE
8
BLACK
6
CONTINUOUS
10
4.56004
20
-3.53248
11
4.55413
21
-3.53248
0
LINE
8
BLACK
6
CONTINUOUS
10
4.56201
20
-3.53248
11
4.56201
21
-3.53839
0
LINE
8
BLACK
6
CONTINUOUS
10
4.56201
20
-3.53839
11
4.60335
21
-3.53839
0
LINE
8
BLACK
6
CONTINUOUS
10
4.60335
20
-3.53839
11
4.60335
21
-3.53248
0
LINE
8
BLACK
6
CONTINUOUS
10
4.60335
20
-3.53248
11
4.56201
21
-3.53248
0
LINE
8
BLACK
6
CONTINUOUS
10
4.55413
20
-3.43012
11
4.55413
21
-3.53051
0
LINE
8
BLACK
6
CONTINUOUS
10
4.55413
20
-3.53051
11
4.56004
21
-3.53051
0
LINE
8
BLACK
6
CONTINUOUS
10
4.56004
20
-3.53051
11
4.56004
21
-3.43012
0
LINE
8
BLACK
6
CONTINUOUS
10
4.56004
20
-3.43012
11
4.55413
21
-3.43012
0
LINE
8
BLACK
6
CONTINUOUS
10
4.56201
20
-3.43012
11
4.56201
21
-3.53051
0
LINE
8
BLACK
6
CONTINUOUS
10
4.56201
20
-3.53051
11
4.60335
21
-3.53051
0
LINE
8
BLACK
6
CONTINUOUS
10
4.60335
20
-3.53051
11
4.60335
21
-3.43012
0
LINE
8
BLACK
6
CONTINUOUS
10
4.60335
20
-3.43012
11
4.56201
21
-3.43012
0
LINE
8
BLACK
6
CONTINUOUS
10
4.73327
20
-3.27756
11
4.73327
21
-3.28563
0
LINE
8
BLACK
6
CONTINUOUS
10
4.73327
20
-3.28563
11
4.8239
21
-3.28563
0
LINE
8
BLACK
6
CONTINUOUS
10
4.8239
20
-3.28563
11
4.82411
21
-3.28513
0
LINE
8
BLACK
6
CONTINUOUS
10
4.82411
20
-3.28513
11
4.8248
21
-3.28484
0
LINE
8
BLACK
6
CONTINUOUS
10
4.8248
20
-3.28484
11
4.92717
21
-3.28484
0
LINE
8
BLACK
6
CONTINUOUS
10
4.92717
20
-3.28484
11
4.92786
21
-3.28513
0
LINE
8
BLACK
6
CONTINUOUS
10
4.92786
20
-3.28513
11
4.92815
21
-3.28583
0
LINE
8
BLACK
6
CONTINUOUS
10
4.92815
20
-3.28583
11
4.92815
21
-3.34882
0
LINE
8
BLACK
6
CONTINUOUS
10
4.92815
20
-3.34882
11
4.92786
21
-3.34951
0
LINE
8
BLACK
6
CONTINUOUS
10
4.92786
20
-3.34951
11
4.92764
21
-3.34961
0
LINE
8
BLACK
6
CONTINUOUS
10
4.92764
20
-3.34961
11
4.92786
21
-3.3497
0
LINE
8
BLACK
6
CONTINUOUS
10
4.92786
20
-3.3497
11
4.92815
21
-3.35039
0
LINE
8
BLACK
6
CONTINUOUS
10
4.92815
20
-3.35039
11
4.92815
21
-3.52362
0
LINE
8
BLACK
6
CONTINUOUS
10
4.92815
20
-3.52362
11
4.92786
21
-3.52432
0
LINE
8
BLACK
6
CONTINUOUS
10
4.92786
20
-3.52432
11
4.92717
21
-3.52461
0
LINE
8
BLACK
6
CONTINUOUS
10
4.92717
20
-3.52461
11
4.85138
21
-3.52461
0
LINE
8
BLACK
6
CONTINUOUS
10
4.85138
20
-3.52461
11
4.85138
21
-3.52756
0
LINE
8
BLACK
6
CONTINUOUS
10
4.85138
20
-3.52756
11
4.85109
21
-3.52826
0
LINE
8
BLACK
6
CONTINUOUS
10
4.85109
20
-3.52826
11
4.85039
21
-3.52854
0
LINE
8
BLACK
6
CONTINUOUS
10
4.85039
20
-3.52854
11
4.75984
21
-3.52854
0
LINE
8
BLACK
6
CONTINUOUS
10
4.75984
20
-3.52854
11
4.75915
21
-3.52826
0
LINE
8
BLACK
6
CONTINUOUS
10
4.75915
20
-3.52826
11
4.75886
21
-3.52756
0
LINE
8
BLACK
6
CONTINUOUS
10
4.75886
20
-3.52756
11
4.75886
21
-3.45965
0
LINE
8
BLACK
6
CONTINUOUS
10
4.75886
20
-3.45965
11
4.71654
21
-3.45965
0
LINE
8
BLACK
6
CONTINUOUS
10
4.71654
20
-3.45965
11
4.71584
21
-3.45936
0
LINE
8
BLACK
6
CONTINUOUS
10
4.71584
20
-3.45936
11
4.71555
21
-3.45866
0
LINE
8
BLACK
6
CONTINUOUS
10
4.71555
20
-3.45866
11
4.71555
21
-3.42028
0
LINE
8
BLACK
6
CONTINUOUS
10
4.71555
20
-3.42028
11
4.58268
21
-3.42028
0
LINE
8
BLACK
6
CONTINUOUS
10
4.58268
20
-3.42028
11
4.58198
21
-3.41999
0
LINE
8
BLACK
6
CONTINUOUS
10
4.58198
20
-3.41999
11
4.58169
21
-3.41929
0
LINE
8
BLACK
6
CONTINUOUS
10
4.58169
20
-3.41929
11
4.58169
21
-3.40846
0
LINE
8
BLACK
6
CONTINUOUS
10
4.58169
20
-3.40846
11
4.50591
21
-3.40846
0
LINE
8
BLACK
6
CONTINUOUS
10
4.50591
20
-3.40846
11
4.50521
21
-3.40818
0
LINE
8
BLACK
6
CONTINUOUS
10
4.50521
20
-3.40818
11
4.50492
21
-3.40748
0
LINE
8
BLACK
6
CONTINUOUS
10
4.50492
20
-3.40748
11
4.50492
21
-3.23425
0
LINE
8
BLACK
6
CONTINUOUS
10
4.50492
20
-3.23425
11
4.50521
21
-3.23356
0
LINE
8
BLACK
6
CONTINUOUS
10
4.50521
20
-3.23356
11
4.50591
21
-3.23327
0
LINE
8
BLACK
6
CONTINUOUS
10
4.50591
20
-3.23327
11
4.60039
21
-3.23327
0
LINE
8
BLACK
6
CONTINUOUS
10
4.60039
20
-3.23327
11
4.60109
21
-3.23356
0
LINE
8
BLACK
6
CONTINUOUS
10
4.60109
20
-3.23356
11
4.60138
21
-3.23425
0
LINE
8
BLACK
6
CONTINUOUS
10
4.60138
20
-3.23425
11
4.60138
21
-3.27657
0
LINE
8
BLACK
6
CONTINUOUS
10
4.60138
20
-3.27657
11
4.73228
21
-3.27657
0
LINE
8
BLACK
6
CONTINUOUS
10
4.73228
20
-3.27657
11
4.73298
21
-3.27686
0
LINE
8
BLACK
6
CONTINUOUS
10
4.73298
20
-3.27686
11
4.73327
21
-3.27756
0
LINE
8
BLACK
6
CONTINUOUS
10
4.76083
20
-3.35531
11
4.77953
21
-3.35531
0
LINE
8
BLACK
6
CONTINUOUS
10
4.77953
20
-3.35531
11
4.78022
21
-3.3556
0
LINE
8
BLACK
6
CONTINUOUS
10
4.78022
20
-3.3556
11
4.78051
21
-3.3563
0
LINE
8
BLACK
6
CONTINUOUS
10
4.78051
20
-3.3563
11
4.78051
21
-3.45866
0
LINE
8
BLACK
6
CONTINUOUS
10
4.78051
20
-3.45866
11
4.78022
21
-3.45936
0
LINE
8
BLACK
6
CONTINUOUS
10
4.78022
20
-3.45936
11
4.77953
21
-3.45965
0
LINE
8
BLACK
6
CONTINUOUS
10
4.77953
20
-3.45965
11
4.76083
21
-3.45965
0
LINE
8
BLACK
6
CONTINUOUS
10
4.76083
20
-3.45965
11
4.76083
21
-3.52657
0
LINE
8
BLACK
6
CONTINUOUS
10
4.76083
20
-3.52657
11
4.84941
21
-3.52657
0
LINE
8
BLACK
6
CONTINUOUS
10
4.84941
20
-3.52657
11
4.84941
21
-3.52461
0
LINE
8
BLACK
6
CONTINUOUS
10
4.84941
20
-3.52461
11
4.83268
21
-3.52461
0
LINE
8
BLACK
6
CONTINUOUS
10
4.83268
20
-3.52461
11
4.83198
21
-3.52432
0
LINE
8
BLACK
6
CONTINUOUS
10
4.83198
20
-3.52432
11
4.83169
21
-3.52362
0
LINE
8
BLACK
6
CONTINUOUS
10
4.83169
20
-3.52362
11
4.83169
21
-3.35039
0
LINE
8
BLACK
6
CONTINUOUS
10
4.83169
20
-3.35039
11
4.83194
21
-3.3498
0
LINE
8
BLACK
6
CONTINUOUS
10
4.83194
20
-3.3498
11
4.83161
21
-3.3498
0
LINE
8
BLACK
6
CONTINUOUS
10
4.83161
20
-3.3498
11
4.8314
21
-3.3503
0
LINE
8
BLACK
6
CONTINUOUS
10
4.8314
20
-3.3503
11
4.83071
21
-3.35059
0
LINE
8
BLACK
6
CONTINUOUS
10
4.83071
20
-3.35059
11
4.76083
21
-3.35059
0
LINE
8
BLACK
6
CONTINUOUS
10
4.76083
20
-3.35059
11
4.76083
21
-3.35531
0
LINE
8
BLACK
6
CONTINUOUS
10
4.83366
20
-3.35138
11
4.83366
21
-3.52264
0
LINE
8
BLACK
6
CONTINUOUS
10
4.83366
20
-3.52264
11
4.84941
21
-3.52264
0
LINE
8
BLACK
6
CONTINUOUS
10
4.84941
20
-3.52264
11
4.84941
21
-3.35138
0
LINE
8
BLACK
6
CONTINUOUS
10
4.84941
20
-3.35138
11
4.83366
21
-3.35138
0
LINE
8
BLACK
6
CONTINUOUS
10
4.85138
20
-3.35138
11
4.85138
21
-3.52264
0
LINE
8
BLACK
6
CONTINUOUS
10
4.85138
20
-3.52264
11
4.92618
21
-3.52264
0
LINE
8
BLACK
6
CONTINUOUS
10
4.92618
20
-3.52264
11
4.92618
21
-3.35138
0
LINE
8
BLACK
6
CONTINUOUS
10
4.92618
20
-3.35138
11
4.85138
21
-3.35138
0
LINE
8
BLACK
6
CONTINUOUS
10
4.71752
20
-3.45768
11
4.75886
21
-3.45768
0
LINE
8
BLACK
6
CONTINUOUS
10
4.75886
20
-3.45768
11
4.75886
21
-3.35728
0
LINE
8
BLACK
6
CONTINUOUS
10
4.75886
20
-3.35728
11
4.73327
21
-3.35728
0
LINE
8
BLACK
6
CONTINUOUS
10
4.73327
20
-3.35728
11
4.73327
21
-3.41929
0
LINE
8
BLACK
6
CONTINUOUS
10
4.73327
20
-3.41929
11
4.73298
21
-3.41999
0
LINE
8
BLACK
6
CONTINUOUS
10
4.73298
20
-3.41999
11
4.73228
21
-3.42028
0
LINE
8
BLACK
6
CONTINUOUS
10
4.73228
20
-3.42028
11
4.71752
21
-3.42028
0
LINE
8
BLACK
6
CONTINUOUS
10
4.71752
20
-3.42028
11
4.71752
21
-3.45768
0
LINE
8
BLACK
6
CONTINUOUS
10
4.76083
20
-3.35728
11
4.76083
21
-3.45768
0
LINE
8
BLACK
6
CONTINUOUS
10
4.76083
20
-3.45768
11
4.77854
21
-3.45768
0
LINE
8
BLACK
6
CONTINUOUS
10
4.77854
20
-3.45768
11
4.77854
21
-3.35728
0
LINE
8
BLACK
6
CONTINUOUS
10
4.77854
20
-3.35728
11
4.76083
21
-3.35728
0
LINE
8
BLACK
6
CONTINUOUS
10
4.58366
20
-3.41831
11
4.71555
21
-3.41831
0
LINE
8
BLACK
6
CONTINUOUS
10
4.71555
20
-3.41831
11
4.71555
21
-3.3563
0
LINE
8
BLACK
6
CONTINUOUS
10
4.71555
20
-3.3563
11
4.71584
21
-3.3556
0
LINE
8
BLACK
6
CONTINUOUS
10
4.71584
20
-3.3556
11
4.71654
21
-3.35531
0
LINE
8
BLACK
6
CONTINUOUS
10
4.71654
20
-3.35531
11
4.7313
21
-3.35531
0
LINE
8
BLACK
6
CONTINUOUS
10
4.7313
20
-3.35531
11
4.7313
21
-3.35059
0
LINE
8
BLACK
6
CONTINUOUS
10
4.7313
20
-3.35059
11
4.72835
21
-3.35059
0
LINE
8
BLACK
6
CONTINUOUS
10
4.72835
20
-3.35059
11
4.72765
21
-3.3503
0
LINE
8
BLACK
6
CONTINUOUS
10
4.72765
20
-3.3503
11
4.72736
21
-3.34961
0
LINE
8
BLACK
6
CONTINUOUS
10
4.72736
20
-3.34961
11
4.72736
21
-3.28661
0
LINE
8
BLACK
6
CONTINUOUS
10
4.72736
20
-3.28661
11
4.72765
21
-3.28592
0
LINE
8
BLACK
6
CONTINUOUS
10
4.72765
20
-3.28592
11
4.72835
21
-3.28563
0
LINE
8
BLACK
6
CONTINUOUS
10
4.72835
20
-3.28563
11
4.7313
21
-3.28563
0
LINE
8
BLACK
6
CONTINUOUS
10
4.7313
20
-3.28563
11
4.7313
21
-3.27854
0
LINE
8
BLACK
6
CONTINUOUS
10
4.7313
20
-3.27854
11
4.60138
21
-3.27854
0
LINE
8
BLACK
6
CONTINUOUS
10
4.60138
20
-3.27854
11
4.60138
21
-3.40748
0
LINE
8
BLACK
6
CONTINUOUS
10
4.60138
20
-3.40748
11
4.60109
21
-3.40818
0
LINE
8
BLACK
6
CONTINUOUS
10
4.60109
20
-3.40818
11
4.60039
21
-3.40846
0
LINE
8
BLACK
6
CONTINUOUS
10
4.60039
20
-3.40846
11
4.58366
21
-3.40846
0
LINE
8
BLACK
6
CONTINUOUS
10
4.58366
20
-3.40846
11
4.58366
21
-3.41831
0
LINE
8
BLACK
6
CONTINUOUS
10
4.71752
20
-3.35728
11
4.71752
21
-3.41831
0
LINE
8
BLACK
6
CONTINUOUS
10
4.71752
20
-3.41831
11
4.7313
21
-3.41831
0
LINE
8
BLACK
6
CONTINUOUS
10
4.7313
20
-3.41831
11
4.7313
21
-3.35728
0
LINE
8
BLACK
6
CONTINUOUS
10
4.7313
20
-3.35728
11
4.71752
21
-3.35728
0
LINE
8
BLACK
6
CONTINUOUS
10
4.50689
20
-3.23524
11
4.50689
21
-3.4065
0
LINE
8
BLACK
6
CONTINUOUS
10
4.50689
20
-3.4065
11
4.58169
21
-3.4065
0
LINE
8
BLACK
6
CONTINUOUS
10
4.58169
20
-3.4065
11
4.58169
21
-3.27756
0
LINE
8
BLACK
6
CONTINUOUS
10
4.58169
20
-3.27756
11
4.58198
21
-3.27686
0
LINE
8
BLACK
6
CONTINUOUS
10
4.58198
20
-3.27686
11
4.58268
21
-3.27657
0
LINE
8
BLACK
6
CONTINUOUS
10
4.58268
20
-3.27657
11
4.59941
21
-3.27657
0
LINE
8
BLACK
6
CONTINUOUS
10
4.59941
20
-3.27657
11
4.59941
21
-3.23524
0
LINE
8
BLACK
6
CONTINUOUS
10
4.59941
20
-3.23524
11
4.50689
21
-3.23524
0
LINE
8
BLACK
6
CONTINUOUS
10
4.58366
20
-3.27854
11
4.58366
21
-3.4065
0
LINE
8
BLACK
6
CONTINUOUS
10
4.58366
20
-3.4065
11
4.59941
21
-3.4065
0
LINE
8
BLACK
6
CONTINUOUS
10
4.59941
20
-3.4065
11
4.59941
21
-3.27854
0
LINE
8
BLACK
6
CONTINUOUS
10
4.59941
20
-3.27854
11
4.58366
21
-3.27854
0
LINE
8
BLACK
6
CONTINUOUS
10
4.73327
20
-3.35059
11
4.73327
21
-3.35531
0
LINE
8
BLACK
6
CONTINUOUS
10
4.73327
20
-3.35531
11
4.75886
21
-3.35531
0
LINE
8
BLACK
6
CONTINUOUS
10
4.75886
20
-3.35531
11
4.75886
21
-3.35059
0
LINE
8
BLACK
6
CONTINUOUS
10
4.75886
20
-3.35059
11
4.73327
21
-3.35059
0
LINE
8
BLACK
6
CONTINUOUS
10
4.72933
20
-3.2876
11
4.72933
21
-3.34862
0
LINE
8
BLACK
6
CONTINUOUS
10
4.72933
20
-3.34862
11
4.7313
21
-3.34862
0
LINE
8
BLACK
6
CONTINUOUS
10
4.7313
20
-3.34862
11
4.7313
21
-3.2876
0
LINE
8
BLACK
6
CONTINUOUS
10
4.7313
20
-3.2876
11
4.72933
21
-3.2876
0
LINE
8
BLACK
6
CONTINUOUS
10
4.73327
20
-3.2876
11
4.73327
21
-3.34862
0
LINE
8
BLACK
6
CONTINUOUS
10
4.73327
20
-3.34862
11
4.75886
21
-3.34862
0
LINE
8
BLACK
6
CONTINUOUS
10
4.75886
20
-3.34862
11
4.75886
21
-3.34252
0
LINE
8
BLACK
6
CONTINUOUS
10
4.75886
20
-3.34252
11
4.75915
21
-3.34182
0
LINE
8
BLACK
6
CONTINUOUS
10
4.75915
20
-3.34182
11
4.75984
21
-3.34154
0
LINE
8
BLACK
6
CONTINUOUS
10
4.75984
20
-3.34154
11
4.82382
21
-3.34154
0
LINE
8
BLACK
6
CONTINUOUS
10
4.82382
20
-3.34154
11
4.82382
21
-3.2876
0
LINE
8
BLACK
6
CONTINUOUS
10
4.82382
20
-3.2876
11
4.73327
21
-3.2876
0
LINE
8
BLACK
6
CONTINUOUS
10
4.76083
20
-3.3435
11
4.76083
21
-3.34862
0
LINE
8
BLACK
6
CONTINUOUS
10
4.76083
20
-3.34862
11
4.82382
21
-3.34862
0
LINE
8
BLACK
6
CONTINUOUS
10
4.82382
20
-3.34862
11
4.82382
21
-3.3435
0
LINE
8
BLACK
6
CONTINUOUS
10
4.82382
20
-3.3435
11
4.76083
21
-3.3435
0
LINE
8
BLACK
6
CONTINUOUS
10
4.82579
20
-3.3435
11
4.82579
21
-3.34783
0
LINE
8
BLACK
6
CONTINUOUS
10
4.82579
20
-3.34783
11
4.82972
21
-3.34783
0
LINE
8
BLACK
6
CONTINUOUS
10
4.82972
20
-3.34783
11
4.82972
21
-3.3435
0
LINE
8
BLACK
6
CONTINUOUS
10
4.82972
20
-3.3435
11
4.82579
21
-3.3435
0
LINE
8
BLACK
6
CONTINUOUS
10
4.83169
20
-3.3435
11
4.83169
21
-3.34783
0
LINE
8
BLACK
6
CONTINUOUS
10
4.83169
20
-3.34783
11
4.84941
21
-3.34783
0
LINE
8
BLACK
6
CONTINUOUS
10
4.84941
20
-3.34783
11
4.84941
21
-3.3435
0
LINE
8
BLACK
6
CONTINUOUS
10
4.84941
20
-3.3435
11
4.83169
21
-3.3435
0
LINE
8
BLACK
6
CONTINUOUS
10
4.85138
20
-3.34252
11
4.85138
21
-3.34783
0
LINE
8
BLACK
6
CONTINUOUS
10
4.85138
20
-3.34783
11
4.92618
21
-3.34783
0
LINE
8
BLACK
6
CONTINUOUS
10
4.92618
20
-3.34783
11
4.92618
21
-3.28681
0
LINE
8
BLACK
6
CONTINUOUS
10
4.92618
20
-3.28681
11
4.83169
21
-3.28681
0
LINE
8
BLACK
6
CONTINUOUS
10
4.83169
20
-3.28681
11
4.83169
21
-3.34154
0
LINE
8
BLACK
6
CONTINUOUS
10
4.83169
20
-3.34154
11
4.85039
21
-3.34154
0
LINE
8
BLACK
6
CONTINUOUS
10
4.85039
20
-3.34154
11
4.85109
21
-3.34182
0
LINE
8
BLACK
6
CONTINUOUS
10
4.85109
20
-3.34182
11
4.85138
21
-3.34252
0
LINE
8
BLACK
6
CONTINUOUS
10
4.82579
20
-3.2876
11
4.82579
21
-3.34154
0
LINE
8
BLACK
6
CONTINUOUS
10
4.82579
20
-3.34154
11
4.82972
21
-3.34154
0
LINE
8
BLACK
6
CONTINUOUS
10
4.82972
20
-3.34154
11
4.82972
21
-3.2876
0
LINE
8
BLACK
6
CONTINUOUS
10
4.82972
20
-3.2876
11
4.82579
21
-3.2876
0
LINE
8
BLACK
6
CONTINUOUS
10
3.12332
20
-3.49676
11
3.12303
21
-3.49606
0
LINE
8
BLACK
6
CONTINUOUS
10
3.12303
20
-3.49606
11
3.12303
21
-3.44094
0
LINE
8
BLACK
6
CONTINUOUS
10
3.12303
20
-3.44094
11
3.12332
21
-3.44025
0
LINE
8
BLACK
6
CONTINUOUS
10
3.12332
20
-3.44025
11
3.12402
21
-3.43996
0
LINE
8
BLACK
6
CONTINUOUS
10
3.12402
20
-3.43996
11
3.22244
21
-3.43996
0
LINE
8
BLACK
6
CONTINUOUS
10
3.22244
20
-3.43996
11
3.22314
21
-3.44025
0
LINE
8
BLACK
6
CONTINUOUS
10
3.22314
20
-3.44025
11
3.22343
21
-3.44094
0
LINE
8
BLACK
6
CONTINUOUS
10
3.22343
20
-3.44094
11
3.22343
21
-3.49606
0
LINE
8
BLACK
6
CONTINUOUS
10
3.22343
20
-3.49606
11
3.22314
21
-3.49676
0
LINE
8
BLACK
6
CONTINUOUS
10
3.22314
20
-3.49676
11
3.22244
21
-3.49705
0
LINE
8
BLACK
6
CONTINUOUS
10
3.22244
20
-3.49705
11
3.12402
21
-3.49705
0
LINE
8
BLACK
6
CONTINUOUS
10
3.12402
20
-3.49705
11
3.12332
21
-3.49676
0
LINE
8
BLACK
6
CONTINUOUS
10
3.125
20
-3.44193
11
3.125
21
-3.49508
0
LINE
8
BLACK
6
CONTINUOUS
10
3.125
20
-3.49508
11
3.22146
21
-3.49508
0
LINE
8
BLACK
6
CONTINUOUS
10
3.22146
20
-3.49508
11
3.22146
21
-3.44193
0
LINE
8
BLACK
6
CONTINUOUS
10
3.22146
20
-3.44193
11
3.125
21
-3.44193
0
LINE
8
BLACK
6
CONTINUOUS
10
3.12274
20
-3.45345
11
3.12205
21
-3.45374
0
LINE
8
BLACK
6
CONTINUOUS
10
3.12205
20
-3.45374
11
3.06398
21
-3.45374
0
LINE
8
BLACK
6
CONTINUOUS
10
3.06398
20
-3.45374
11
3.06398
21
-3.46457
0
LINE
8
BLACK
6
CONTINUOUS
10
3.06398
20
-3.46457
11
3.06369
21
-3.46526
0
LINE
8
BLACK
6
CONTINUOUS
10
3.06369
20
-3.46526
11
3.06299
21
-3.46555
0
LINE
8
BLACK
6
CONTINUOUS
10
3.06299
20
-3.46555
11
2.84252
21
-3.46555
0
LINE
8
BLACK
6
CONTINUOUS
10
2.84252
20
-3.46555
11
2.84182
21
-3.46526
0
LINE
8
BLACK
6
CONTINUOUS
10
2.84182
20
-3.46526
11
2.84154
21
-3.46457
0
LINE
8
BLACK
6
CONTINUOUS
10
2.84154
20
-3.46457
11
2.84154
21
-3.32283
0
LINE
8
BLACK
6
CONTINUOUS
10
2.84154
20
-3.32283
11
2.84182
21
-3.32214
0
LINE
8
BLACK
6
CONTINUOUS
10
2.84182
20
-3.32214
11
2.84252
21
-3.32185
0
LINE
8
BLACK
6
CONTINUOUS
10
2.84252
20
-3.32185
11
3.05807
21
-3.32185
0
LINE
8
BLACK
6
CONTINUOUS
10
3.05807
20
-3.32185
11
3.05807
21
-3.26181
0
LINE
8
BLACK
6
CONTINUOUS
10
3.05807
20
-3.26181
11
3.05836
21
-3.26112
0
LINE
8
BLACK
6
CONTINUOUS
10
3.05836
20
-3.26112
11
3.05906
21
-3.26083
0
LINE
8
BLACK
6
CONTINUOUS
10
3.05906
20
-3.26083
11
3.12205
21
-3.26083
0
LINE
8
BLACK
6
CONTINUOUS
10
3.12205
20
-3.26083
11
3.12274
21
-3.26112
0
LINE
8
BLACK
6
CONTINUOUS
10
3.12274
20
-3.26112
11
3.12303
21
-3.26181
0
LINE
8
BLACK
6
CONTINUOUS
10
3.12303
20
-3.26181
11
3.12303
21
-3.45276
0
LINE
8
BLACK
6
CONTINUOUS
10
3.12303
20
-3.45276
11
3.12274
21
-3.45345
0
LINE
8
BLACK
6
CONTINUOUS
10
2.8435
20
-3.32382
11
2.8435
21
-3.46358
0
LINE
8
BLACK
6
CONTINUOUS
10
2.8435
20
-3.46358
11
3.06201
21
-3.46358
0
LINE
8
BLACK
6
CONTINUOUS
10
3.06201
20
-3.46358
11
3.06201
21
-3.45374
0
LINE
8
BLACK
6
CONTINUOUS
10
3.06201
20
-3.45374
11
3.05906
21
-3.45374
0
LINE
8
BLACK
6
CONTINUOUS
10
3.05906
20
-3.45374
11
3.05836
21
-3.45345
0
LINE
8
BLACK
6
CONTINUOUS
10
3.05836
20
-3.45345
11
3.05807
21
-3.45276
0
LINE
8
BLACK
6
CONTINUOUS
10
3.05807
20
-3.45276
11
3.05807
21
-3.32382
0
LINE
8
BLACK
6
CONTINUOUS
10
3.05807
20
-3.32382
11
2.8435
21
-3.32382
0
LINE
8
BLACK
6
CONTINUOUS
10
3.06004
20
-3.36516
11
3.06004
21
-3.45177
0
LINE
8
BLACK
6
CONTINUOUS
10
3.06004
20
-3.45177
11
3.06201
21
-3.45177
0
LINE
8
BLACK
6
CONTINUOUS
10
3.06201
20
-3.45177
11
3.06201
21
-3.36516
0
LINE
8
BLACK
6
CONTINUOUS
10
3.06201
20
-3.36516
11
3.06004
21
-3.36516
0
LINE
8
BLACK
6
CONTINUOUS
10
3.06398
20
-3.36516
11
3.06398
21
-3.45177
0
LINE
8
BLACK
6
CONTINUOUS
10
3.06398
20
-3.45177
11
3.12106
21
-3.45177
0
LINE
8
BLACK
6
CONTINUOUS
10
3.12106
20
-3.45177
11
3.12106
21
-3.36516
0
LINE
8
BLACK
6
CONTINUOUS
10
3.12106
20
-3.36516
11
3.06398
21
-3.36516
0
LINE
8
BLACK
6
CONTINUOUS
10
3.06004
20
-3.35138
11
3.06004
21
-3.36319
0
LINE
8
BLACK
6
CONTINUOUS
10
3.06004
20
-3.36319
11
3.06201
21
-3.36319
0
LINE
8
BLACK
6
CONTINUOUS
10
3.06201
20
-3.36319
11
3.06201
21
-3.35138
0
LINE
8
BLACK
6
CONTINUOUS
10
3.06201
20
-3.35138
11
3.06004
21
-3.35138
0
LINE
8
BLACK
6
CONTINUOUS
10
3.06398
20
-3.35138
11
3.06398
21
-3.36319
0
LINE
8
BLACK
6
CONTINUOUS
10
3.06398
20
-3.36319
11
3.12106
21
-3.36319
0
LINE
8
BLACK
6
CONTINUOUS
10
3.12106
20
-3.36319
11
3.12106
21
-3.35138
0
LINE
8
BLACK
6
CONTINUOUS
10
3.12106
20
-3.35138
11
3.06398
21
-3.35138
0
LINE
8
BLACK
6
CONTINUOUS
10
3.06004
20
-3.32382
11
3.06004
21
-3.34941
0
LINE
8
BLACK
6
CONTINUOUS
10
3.06004
20
-3.34941
11
3.06201
21
-3.34941
0
LINE
8
BLACK
6
CONTINUOUS
10
3.06201
20
-3.34941
11
3.06201
21
-3.32382
0
LINE
8
BLACK
6
CONTINUOUS
10
3.06201
20
-3.32382
11
3.06004
21
-3.32382
0
LINE
8
BLACK
6
CONTINUOUS
10
3.06398
20
-3.32283
11
3.06398
21
-3.34941
0
LINE
8
BLACK
6
CONTINUOUS
10
3.06398
20
-3.34941
11
3.12106
21
-3.34941
0
LINE
8
BLACK
6
CONTINUOUS
10
3.12106
20
-3.34941
11
3.12106
21
-3.2628
0
LINE
8
BLACK
6
CONTINUOUS
10
3.12106
20
-3.2628
11
3.06004
21
-3.2628
0
LINE
8
BLACK
6
CONTINUOUS
10
3.06004
20
-3.2628
11
3.06004
21
-3.32185
0
LINE
8
BLACK
6
CONTINUOUS
10
3.06004
20
-3.32185
11
3.06299
21
-3.32185
0
LINE
8
BLACK
6
CONTINUOUS
10
3.06299
20
-3.32185
11
3.06369
21
-3.32214
0
LINE
8
BLACK
6
CONTINUOUS
10
3.06369
20
-3.32214
11
3.06398
21
-3.32283
0
LINE
8
BLACK
6
CONTINUOUS
10
4.98946
20
-3.357
11
4.98917
21
-3.3563
0
LINE
8
BLACK
6
CONTINUOUS
10
4.98917
20
-3.3563
11
4.98917
21
-3.25394
0
LINE
8
BLACK
6
CONTINUOUS
10
4.98917
20
-3.25394
11
4.98946
21
-3.25324
0
LINE
8
BLACK
6
CONTINUOUS
10
4.98946
20
-3.25324
11
4.99016
21
-3.25295
0
LINE
8
BLACK
6
CONTINUOUS
10
4.99016
20
-3.25295
11
5.11417
21
-3.25295
0
LINE
8
BLACK
6
CONTINUOUS
10
5.11417
20
-3.25295
11
5.11487
21
-3.25324
0
LINE
8
BLACK
6
CONTINUOUS
10
5.11487
20
-3.25324
11
5.11516
21
-3.25394
0
LINE
8
BLACK
6
CONTINUOUS
10
5.11516
20
-3.25394
11
5.11516
21
-3.3563
0
LINE
8
BLACK
6
CONTINUOUS
10
5.11516
20
-3.3563
11
5.11487
21
-3.357
0
LINE
8
BLACK
6
CONTINUOUS
10
5.11487
20
-3.357
11
5.11417
21
-3.35728
0
LINE
8
BLACK
6
CONTINUOUS
10
5.11417
20
-3.35728
11
4.99016
21
-3.35728
0
LINE
8
BLACK
6
CONTINUOUS
10
4.99016
20
-3.35728
11
4.98946
21
-3.357
0
LINE
8
BLACK
6
CONTINUOUS
10
5.05413
20
-3.25492
11
5.05413
21
-3.35531
0
LINE
8
BLACK
6
CONTINUOUS
10
5.05413
20
-3.35531
11
5.11319
21
-3.35531
0
LINE
8
BLACK
6
CONTINUOUS
10
5.11319
20
-3.35531
11
5.11319
21
-3.25492
0
LINE
8
BLACK
6
CONTINUOUS
10
5.11319
20
-3.25492
11
5.05413
21
-3.25492
0
LINE
8
BLACK
6
CONTINUOUS
10
4.99114
20
-3.25492
11
4.99114
21
-3.35531
0
LINE
8
BLACK
6
CONTINUOUS
10
4.99114
20
-3.35531
11
5.0502
21
-3.35531
0
LINE
8
BLACK
6
CONTINUOUS
10
5.0502
20
-3.35531
11
5.0502
21
-3.25492
0
LINE
8
BLACK
6
CONTINUOUS
10
5.0502
20
-3.25492
11
4.99114
21
-3.25492
0
LINE
8
BLACK
6
CONTINUOUS
10
4.93237
20
-3.35503
11
4.93209
21
-3.35433
0
LINE
8
BLACK
6
CONTINUOUS
10
4.93209
20
-3.35433
11
4.93209
21
-3.25591
0
LINE
8
BLACK
6
CONTINUOUS
10
4.93209
20
-3.25591
11
4.93237
21
-3.25521
0
LINE
8
BLACK
6
CONTINUOUS
10
4.93237
20
-3.25521
11
4.93307
21
-3.25492
0
LINE
8
BLACK
6
CONTINUOUS
10
4.93307
20
-3.25492
11
4.98819
21
-3.25492
0
LINE
8
BLACK
6
CONTINUOUS
10
4.98819
20
-3.25492
11
4.98888
21
-3.25521
0
LINE
8
BLACK
6
CONTINUOUS
10
4.98888
20
-3.25521
11
4.98917
21
-3.25591
0
LINE
8
BLACK
6
CONTINUOUS
10
4.98917
20
-3.25591
11
4.98917
21
-3.35433
0
LINE
8
BLACK
6
CONTINUOUS
10
4.98917
20
-3.35433
11
4.98888
21
-3.35503
0
LINE
8
BLACK
6
CONTINUOUS
10
4.98888
20
-3.35503
11
4.98819
21
-3.35531
0
LINE
8
BLACK
6
CONTINUOUS
10
4.98819
20
-3.35531
11
4.93307
21
-3.35531
0
LINE
8
BLACK
6
CONTINUOUS
10
4.93307
20
-3.35531
11
4.93237
21
-3.35503
0
LINE
8
BLACK
6
CONTINUOUS
10
4.93406
20
-3.25689
11
4.93406
21
-3.35335
0
LINE
8
BLACK
6
CONTINUOUS
10
4.93406
20
-3.35335
11
4.9872
21
-3.35335
0
LINE
8
BLACK
6
CONTINUOUS
10
4.9872
20
-3.35335
11
4.9872
21
-3.25689
0
LINE
8
BLACK
6
CONTINUOUS
10
4.9872
20
-3.25689
11
4.93406
21
-3.25689
0
LINE
8
BLACK
6
CONTINUOUS
10
2.89497
20
-3.32156
11
2.89469
21
-3.32087
0
LINE
8
BLACK
6
CONTINUOUS
10
2.89469
20
-3.32087
11
2.89469
21
-3.26181
0
LINE
8
BLACK
6
CONTINUOUS
10
2.89469
20
-3.26181
11
2.89497
21
-3.26112
0
LINE
8
BLACK
6
CONTINUOUS
10
2.89497
20
-3.26112
11
2.89567
21
-3.26083
0
LINE
8
BLACK
6
CONTINUOUS
10
2.89567
20
-3.26083
11
3.00984
21
-3.26083
0
LINE
8
BLACK
6
CONTINUOUS
10
3.00984
20
-3.26083
11
3.01054
21
-3.26112
0
LINE
8
BLACK
6
CONTINUOUS
10
3.01054
20
-3.26112
11
3.01083
21
-3.26181
0
LINE
8
BLACK
6
CONTINUOUS
10
3.01083
20
-3.26181
11
3.01083
21
-3.32087
0
LINE
8
BLACK
6
CONTINUOUS
10
3.01083
20
-3.32087
11
3.01054
21
-3.32156
0
LINE
8
BLACK
6
CONTINUOUS
10
3.01054
20
-3.32156
11
3.00984
21
-3.32185
0
LINE
8
BLACK
6
CONTINUOUS
10
3.00984
20
-3.32185
11
2.89567
21
-3.32185
0
LINE
8
BLACK
6
CONTINUOUS
10
2.89567
20
-3.32185
11
2.89497
21
-3.32156
0
LINE
8
BLACK
6
CONTINUOUS
10
2.89665
20
-3.2628
11
2.89665
21
-3.31988
0
LINE
8
BLACK
6
CONTINUOUS
10
2.89665
20
-3.31988
11
3.00886
21
-3.31988
0
LINE
8
BLACK
6
CONTINUOUS
10
3.00886
20
-3.31988
11
3.00886
21
-3.2628
0
LINE
8
BLACK
6
CONTINUOUS
10
3.00886
20
-3.2628
11
2.89665
21
-3.2628
  0
ENDSEC
  0
EOF
