  0
SECTION
  2
HEADER
  9
$ANGBASE
  50
0.0
  9
$ANGDIR
  70
1
  9
$MEASUREMENT
  70
0
  0
ENDSEC
  0
SECTION
  2
TABLES
  0
TABLE
  2
LTYPE
  70
4
  0
LTYPE
  5
40F
  2
CONTINUOUS
  70
0
  3
Solid line
  72
65
  73
0
  40
0.0
  0
LTYPE
  5
410
  2
DASHDOT
 70
0
  3
Dash Dot ____ _ ____ _
 72
65
 73
4
 40
2.0
 49
1.25
 49
-0.25
 49
0.25
 49
-0.25
  0
LTYPE
  5
411
  2
DASHED
 70
0
  3
Dashed __ __ __ __ __
 72
65
 73
2
 40
0.75
 49
0.5
 49
-0.25
  0
LTYPE
  5
43B
  2
DOTTED
 70
0
  3
Dotted .  .  .  .
 72
65
 73
2
 40
0.2
 49
0.0
 49
-0.2
  0
ENDTAB
  0
TABLE
  2
STYLE
  70
4
  0
STYLE
  2
KICAD
  70
0
  40
0
  41
1
  42
1
  50
0
  71
0
  3
isocp.shx
  0
STYLE
  2
KICADB
  70
0
  40
0
  41
1
  42
1
  50
0
  71
0
  3
isocp.shx
  0
STYLE
  2
KICADI
  70
0
  40
0
  41
1
  42
1
  50
15
  71
0
  3
isocp.shx
  0
STYLE
  2
KICADBI
  70
0
  40
0
  41
1
  42
1
  50
15
  71
0
  3
isocp.shx
  0
ENDTAB
  0
TABLE
  2
LAYER
  70
1
  0
LAYER
  2
BLACK
  70
0
  62
7
  6
CONTINUOUS
  0
ENDTAB
  0
ENDSEC
  0
SECTION
  2
ENTITIES
0
LINE
8
BLACK
6
CONTINUOUS
10
4.62726
20
-3.90818
11
4.62697
21
-3.90748
0
LINE
8
BLACK
6
CONTINUOUS
10
4.62697
20
-3.90748
11
4.62697
21
-3.90453
0
LINE
8
BLACK
6
CONTINUOUS
10
4.62697
20
-3.90453
11
4.52362
21
-3.90453
0
LINE
8
BLACK
6
CONTINUOUS
10
4.52362
20
-3.90453
11
4.52293
21
-3.90424
0
LINE
8
BLACK
6
CONTINUOUS
10
4.52293
20
-3.90424
11
4.52264
21
-3.90354
0
LINE
8
BLACK
6
CONTINUOUS
10
4.52264
20
-3.90354
11
4.52264
21
-3.85236
0
LINE
8
BLACK
6
CONTINUOUS
10
4.52264
20
-3.85236
11
4.52293
21
-3.85167
0
LINE
8
BLACK
6
CONTINUOUS
10
4.52293
20
-3.85167
11
4.52362
21
-3.85138
0
LINE
8
BLACK
6
CONTINUOUS
10
4.52362
20
-3.85138
11
4.62697
21
-3.85138
0
LINE
8
BLACK
6
CONTINUOUS
10
4.62697
20
-3.85138
11
4.62697
21
-3.84843
0
LINE
8
BLACK
6
CONTINUOUS
10
4.62697
20
-3.84843
11
4.62726
21
-3.84773
0
LINE
8
BLACK
6
CONTINUOUS
10
4.62726
20
-3.84773
11
4.62795
21
-3.84744
0
LINE
8
BLACK
6
CONTINUOUS
10
4.62795
20
-3.84744
11
4.74213
21
-3.84744
0
LINE
8
BLACK
6
CONTINUOUS
10
4.74213
20
-3.84744
11
4.74282
21
-3.84773
0
LINE
8
BLACK
6
CONTINUOUS
10
4.74282
20
-3.84773
11
4.74311
21
-3.84843
0
LINE
8
BLACK
6
CONTINUOUS
10
4.74311
20
-3.84843
11
4.74311
21
-3.90748
0
LINE
8
BLACK
6
CONTINUOUS
10
4.74311
20
-3.90748
11
4.74282
21
-3.90818
0
LINE
8
BLACK
6
CONTINUOUS
10
4.74282
20
-3.90818
11
4.74213
21
-3.90846
0
LINE
8
BLACK
6
CONTINUOUS
10
4.74213
20
-3.90846
11
4.62795
21
-3.90846
0
LINE
8
BLACK
6
CONTINUOUS
10
4.62795
20
-3.90846
11
4.62726
21
-3.90818
0
LINE
8
BLACK
6
CONTINUOUS
10
4.63484
20
-3.85236
11
4.63484
21
-3.90354
0
LINE
8
BLACK
6
CONTINUOUS
10
4.63484
20
-3.90354
11
4.63455
21
-3.90424
0
LINE
8
BLACK
6
CONTINUOUS
10
4.63455
20
-3.90424
11
4.63386
21
-3.90453
0
LINE
8
BLACK
6
CONTINUOUS
10
4.63386
20
-3.90453
11
4.62894
21
-3.90453
0
LINE
8
BLACK
6
CONTINUOUS
10
4.62894
20
-3.90453
11
4.62894
21
-3.9065
0
LINE
8
BLACK
6
CONTINUOUS
10
4.62894
20
-3.9065
11
4.74114
21
-3.9065
0
LINE
8
BLACK
6
CONTINUOUS
10
4.74114
20
-3.9065
11
4.74114
21
-3.84941
0
LINE
8
BLACK
6
CONTINUOUS
10
4.74114
20
-3.84941
11
4.62894
21
-3.84941
0
LINE
8
BLACK
6
CONTINUOUS
10
4.62894
20
-3.84941
11
4.62894
21
-3.85138
0
LINE
8
BLACK
6
CONTINUOUS
10
4.62894
20
-3.85138
11
4.63386
21
-3.85138
0
LINE
8
BLACK
6
CONTINUOUS
10
4.63386
20
-3.85138
11
4.63455
21
-3.85167
0
LINE
8
BLACK
6
CONTINUOUS
10
4.63455
20
-3.85167
11
4.63484
21
-3.85236
0
LINE
8
BLACK
6
CONTINUOUS
10
4.52461
20
-3.85335
11
4.52461
21
-3.90256
0
LINE
8
BLACK
6
CONTINUOUS
10
4.52461
20
-3.90256
11
4.62697
21
-3.90256
0
LINE
8
BLACK
6
CONTINUOUS
10
4.62697
20
-3.90256
11
4.62697
21
-3.85335
0
LINE
8
BLACK
6
CONTINUOUS
10
4.62697
20
-3.85335
11
4.52461
21
-3.85335
0
LINE
8
BLACK
6
CONTINUOUS
10
4.62894
20
-3.85335
11
4.62894
21
-3.90256
0
LINE
8
BLACK
6
CONTINUOUS
10
4.62894
20
-3.90256
11
4.63287
21
-3.90256
0
LINE
8
BLACK
6
CONTINUOUS
10
4.63287
20
-3.90256
11
4.63287
21
-3.85335
0
LINE
8
BLACK
6
CONTINUOUS
10
4.63287
20
-3.85335
11
4.62894
21
-3.85335
0
LINE
8
BLACK
6
CONTINUOUS
10
5.16634
20
-3.76643
11
5.16634
21
-3.77922
0
LINE
8
BLACK
6
CONTINUOUS
10
5.16634
20
-3.77922
11
5.21063
21
-3.77922
0
LINE
8
BLACK
6
CONTINUOUS
10
5.21063
20
-3.77922
11
5.21133
21
-3.77951
0
LINE
8
BLACK
6
CONTINUOUS
10
5.21133
20
-3.77951
11
5.21161
21
-3.78021
0
LINE
8
BLACK
6
CONTINUOUS
10
5.21161
20
-3.78021
11
5.21161
21
-3.89044
0
LINE
8
BLACK
6
CONTINUOUS
10
5.21161
20
-3.89044
11
5.21133
21
-3.89114
0
LINE
8
BLACK
6
CONTINUOUS
10
5.21133
20
-3.89114
11
5.21063
21
-3.89143
0
LINE
8
BLACK
6
CONTINUOUS
10
5.21063
20
-3.89143
11
5.16634
21
-3.89143
0
LINE
8
BLACK
6
CONTINUOUS
10
5.16634
20
-3.89143
11
5.16634
21
-3.90422
0
LINE
8
BLACK
6
CONTINUOUS
10
5.16634
20
-3.90422
11
5.16605
21
-3.90492
0
LINE
8
BLACK
6
CONTINUOUS
10
5.16605
20
-3.90492
11
5.16535
21
-3.90521
0
LINE
8
BLACK
6
CONTINUOUS
10
5.16535
20
-3.90521
11
5.0315
21
-3.90521
0
LINE
8
BLACK
6
CONTINUOUS
10
5.0315
20
-3.90521
11
5.0308
21
-3.90492
0
LINE
8
BLACK
6
CONTINUOUS
10
5.0308
20
-3.90492
11
5.03051
21
-3.90422
0
LINE
8
BLACK
6
CONTINUOUS
10
5.03051
20
-3.90422
11
5.03051
21
-3.89143
0
LINE
8
BLACK
6
CONTINUOUS
10
5.03051
20
-3.89143
11
4.98622
21
-3.89143
0
LINE
8
BLACK
6
CONTINUOUS
10
4.98622
20
-3.89143
11
4.98552
21
-3.89114
0
LINE
8
BLACK
6
CONTINUOUS
10
4.98552
20
-3.89114
11
4.98524
21
-3.89044
0
LINE
8
BLACK
6
CONTINUOUS
10
4.98524
20
-3.89044
11
4.98524
21
-3.78021
0
LINE
8
BLACK
6
CONTINUOUS
10
4.98524
20
-3.78021
11
4.98552
21
-3.77951
0
LINE
8
BLACK
6
CONTINUOUS
10
4.98552
20
-3.77951
11
4.98622
21
-3.77922
0
LINE
8
BLACK
6
CONTINUOUS
10
4.98622
20
-3.77922
11
5.03051
21
-3.77922
0
LINE
8
BLACK
6
CONTINUOUS
10
5.03051
20
-3.77922
11
5.03051
21
-3.76643
0
LINE
8
BLACK
6
CONTINUOUS
10
5.03051
20
-3.76643
11
5.0308
21
-3.76573
0
LINE
8
BLACK
6
CONTINUOUS
10
5.0308
20
-3.76573
11
5.0315
21
-3.76544
0
LINE
8
BLACK
6
CONTINUOUS
10
5.0315
20
-3.76544
11
5.07382
21
-3.76544
0
LINE
8
BLACK
6
CONTINUOUS
10
5.07382
20
-3.76544
11
5.07382
21
-3.67717
0
LINE
8
BLACK
6
CONTINUOUS
10
5.07382
20
-3.67717
11
5.07411
21
-3.67647
0
LINE
8
BLACK
6
CONTINUOUS
10
5.07411
20
-3.67647
11
5.0748
21
-3.67618
0
LINE
8
BLACK
6
CONTINUOUS
10
5.0748
20
-3.67618
11
5.12992
21
-3.67618
0
LINE
8
BLACK
6
CONTINUOUS
10
5.12992
20
-3.67618
11
5.13062
21
-3.67647
0
LINE
8
BLACK
6
CONTINUOUS
10
5.13062
20
-3.67647
11
5.13091
21
-3.67717
0
LINE
8
BLACK
6
CONTINUOUS
10
5.13091
20
-3.67717
11
5.13091
21
-3.76544
0
LINE
8
BLACK
6
CONTINUOUS
10
5.13091
20
-3.76544
11
5.16535
21
-3.76544
0
LINE
8
BLACK
6
CONTINUOUS
10
5.16535
20
-3.76544
11
5.16605
21
-3.76573
0
LINE
8
BLACK
6
CONTINUOUS
10
5.16605
20
-3.76573
11
5.16634
21
-3.76643
0
LINE
8
BLACK
6
CONTINUOUS
10
5.07411
20
-3.77629
11
5.07382
21
-3.77559
0
LINE
8
BLACK
6
CONTINUOUS
10
5.07382
20
-3.77559
11
5.07382
21
-3.76741
0
LINE
8
BLACK
6
CONTINUOUS
10
5.07382
20
-3.76741
11
5.03248
21
-3.76741
0
LINE
8
BLACK
6
CONTINUOUS
10
5.03248
20
-3.76741
11
5.03248
21
-3.77922
0
LINE
8
BLACK
6
CONTINUOUS
10
5.03248
20
-3.77922
11
5.0374
21
-3.77922
0
LINE
8
BLACK
6
CONTINUOUS
10
5.0374
20
-3.77922
11
5.0381
21
-3.77951
0
LINE
8
BLACK
6
CONTINUOUS
10
5.0381
20
-3.77951
11
5.03839
21
-3.78021
0
LINE
8
BLACK
6
CONTINUOUS
10
5.03839
20
-3.78021
11
5.03839
21
-3.89044
0
LINE
8
BLACK
6
CONTINUOUS
10
5.03839
20
-3.89044
11
5.0381
21
-3.89114
0
LINE
8
BLACK
6
CONTINUOUS
10
5.0381
20
-3.89114
11
5.0374
21
-3.89143
0
LINE
8
BLACK
6
CONTINUOUS
10
5.0374
20
-3.89143
11
5.03248
21
-3.89143
0
LINE
8
BLACK
6
CONTINUOUS
10
5.03248
20
-3.89143
11
5.03248
21
-3.90324
0
LINE
8
BLACK
6
CONTINUOUS
10
5.03248
20
-3.90324
11
5.16437
21
-3.90324
0
LINE
8
BLACK
6
CONTINUOUS
10
5.16437
20
-3.90324
11
5.16437
21
-3.89143
0
LINE
8
BLACK
6
CONTINUOUS
10
5.16437
20
-3.89143
11
5.15945
21
-3.89143
0
LINE
8
BLACK
6
CONTINUOUS
10
5.15945
20
-3.89143
11
5.15875
21
-3.89114
0
LINE
8
BLACK
6
CONTINUOUS
10
5.15875
20
-3.89114
11
5.15846
21
-3.89044
0
LINE
8
BLACK
6
CONTINUOUS
10
5.15846
20
-3.89044
11
5.15846
21
-3.78021
0
LINE
8
BLACK
6
CONTINUOUS
10
5.15846
20
-3.78021
11
5.15875
21
-3.77951
0
LINE
8
BLACK
6
CONTINUOUS
10
5.15875
20
-3.77951
11
5.15945
21
-3.77922
0
LINE
8
BLACK
6
CONTINUOUS
10
5.15945
20
-3.77922
11
5.16437
21
-3.77922
0
LINE
8
BLACK
6
CONTINUOUS
10
5.16437
20
-3.77922
11
5.16437
21
-3.76741
0
LINE
8
BLACK
6
CONTINUOUS
10
5.16437
20
-3.76741
11
5.13091
21
-3.76741
0
LINE
8
BLACK
6
CONTINUOUS
10
5.13091
20
-3.76741
11
5.13091
21
-3.77559
0
LINE
8
BLACK
6
CONTINUOUS
10
5.13091
20
-3.77559
11
5.13062
21
-3.77629
0
LINE
8
BLACK
6
CONTINUOUS
10
5.13062
20
-3.77629
11
5.12992
21
-3.77657
0
LINE
8
BLACK
6
CONTINUOUS
10
5.12992
20
-3.77657
11
5.0748
21
-3.77657
0
LINE
8
BLACK
6
CONTINUOUS
10
5.0748
20
-3.77657
11
5.07411
21
-3.77629
0
LINE
8
BLACK
6
CONTINUOUS
10
5.16043
20
-3.78119
11
5.16043
21
-3.88946
0
LINE
8
BLACK
6
CONTINUOUS
10
5.16043
20
-3.88946
11
5.16437
21
-3.88946
0
LINE
8
BLACK
6
CONTINUOUS
10
5.16437
20
-3.88946
11
5.16437
21
-3.78119
0
LINE
8
BLACK
6
CONTINUOUS
10
5.16437
20
-3.78119
11
5.16043
21
-3.78119
0
LINE
8
BLACK
6
CONTINUOUS
10
5.16634
20
-3.78119
11
5.16634
21
-3.88946
0
LINE
8
BLACK
6
CONTINUOUS
10
5.16634
20
-3.88946
11
5.20965
21
-3.88946
0
LINE
8
BLACK
6
CONTINUOUS
10
5.20965
20
-3.88946
11
5.20965
21
-3.78119
0
LINE
8
BLACK
6
CONTINUOUS
10
5.20965
20
-3.78119
11
5.16634
21
-3.78119
0
LINE
8
BLACK
6
CONTINUOUS
10
4.9872
20
-3.78119
11
4.9872
21
-3.88946
0
LINE
8
BLACK
6
CONTINUOUS
10
4.9872
20
-3.88946
11
5.03051
21
-3.88946
0
LINE
8
BLACK
6
CONTINUOUS
10
5.03051
20
-3.88946
11
5.03051
21
-3.78119
0
LINE
8
BLACK
6
CONTINUOUS
10
5.03051
20
-3.78119
11
4.9872
21
-3.78119
0
LINE
8
BLACK
6
CONTINUOUS
10
5.03248
20
-3.78119
11
5.03248
21
-3.88946
0
LINE
8
BLACK
6
CONTINUOUS
10
5.03248
20
-3.88946
11
5.03642
21
-3.88946
0
LINE
8
BLACK
6
CONTINUOUS
10
5.03642
20
-3.88946
11
5.03642
21
-3.78119
0
LINE
8
BLACK
6
CONTINUOUS
10
5.03642
20
-3.78119
11
5.03248
21
-3.78119
0
LINE
8
BLACK
6
CONTINUOUS
10
5.07579
20
-3.76741
11
5.07579
21
-3.77461
0
LINE
8
BLACK
6
CONTINUOUS
10
5.07579
20
-3.77461
11
5.12894
21
-3.77461
0
LINE
8
BLACK
6
CONTINUOUS
10
5.12894
20
-3.77461
11
5.12894
21
-3.76741
0
LINE
8
BLACK
6
CONTINUOUS
10
5.12894
20
-3.76741
11
5.07579
21
-3.76741
0
LINE
8
BLACK
6
CONTINUOUS
10
5.07579
20
-3.67815
11
5.07579
21
-3.76544
0
LINE
8
BLACK
6
CONTINUOUS
10
5.07579
20
-3.76544
11
5.12894
21
-3.76544
0
LINE
8
BLACK
6
CONTINUOUS
10
5.12894
20
-3.76544
11
5.12894
21
-3.67815
0
LINE
8
BLACK
6
CONTINUOUS
10
5.12894
20
-3.67815
11
5.07579
21
-3.67815
0
LINE
8
BLACK
6
CONTINUOUS
10
4.7808
20
-3.90424
11
4.78051
21
-3.90354
0
LINE
8
BLACK
6
CONTINUOUS
10
4.78051
20
-3.90354
11
4.78051
21
-3.85236
0
LINE
8
BLACK
6
CONTINUOUS
10
4.78051
20
-3.85236
11
4.7808
21
-3.85167
0
LINE
8
BLACK
6
CONTINUOUS
10
4.7808
20
-3.85167
11
4.7815
21
-3.85138
0
LINE
8
BLACK
6
CONTINUOUS
10
4.7815
20
-3.85138
11
4.89173
21
-3.85138
0
LINE
8
BLACK
6
CONTINUOUS
10
4.89173
20
-3.85138
11
4.89243
21
-3.85167
0
LINE
8
BLACK
6
CONTINUOUS
10
4.89243
20
-3.85167
11
4.89272
21
-3.85236
0
LINE
8
BLACK
6
CONTINUOUS
10
4.89272
20
-3.85236
11
4.89272
21
-3.90354
0
LINE
8
BLACK
6
CONTINUOUS
10
4.89272
20
-3.90354
11
4.89243
21
-3.90424
0
LINE
8
BLACK
6
CONTINUOUS
10
4.89243
20
-3.90424
11
4.89173
21
-3.90453
0
LINE
8
BLACK
6
CONTINUOUS
10
4.89173
20
-3.90453
11
4.7815
21
-3.90453
0
LINE
8
BLACK
6
CONTINUOUS
10
4.7815
20
-3.90453
11
4.7808
21
-3.90424
0
LINE
8
BLACK
6
CONTINUOUS
10
4.78248
20
-3.85335
11
4.78248
21
-3.90256
0
LINE
8
BLACK
6
CONTINUOUS
10
4.78248
20
-3.90256
11
4.89075
21
-3.90256
0
LINE
8
BLACK
6
CONTINUOUS
10
4.89075
20
-3.90256
11
4.89075
21
-3.85335
0
LINE
8
BLACK
6
CONTINUOUS
10
4.89075
20
-3.85335
11
4.78248
21
-3.85335
0
LINE
8
BLACK
6
CONTINUOUS
10
4.91072
20
-3.89243
11
4.91043
21
-3.89173
0
LINE
8
BLACK
6
CONTINUOUS
10
4.91043
20
-3.89173
11
4.91043
21
-3.77756
0
LINE
8
BLACK
6
CONTINUOUS
10
4.91043
20
-3.77756
11
4.91072
21
-3.77686
0
LINE
8
BLACK
6
CONTINUOUS
10
4.91072
20
-3.77686
11
4.91142
21
-3.77657
0
LINE
8
BLACK
6
CONTINUOUS
10
4.91142
20
-3.77657
11
4.97047
21
-3.77657
0
LINE
8
BLACK
6
CONTINUOUS
10
4.97047
20
-3.77657
11
4.97117
21
-3.77686
0
LINE
8
BLACK
6
CONTINUOUS
10
4.97117
20
-3.77686
11
4.97146
21
-3.77756
0
LINE
8
BLACK
6
CONTINUOUS
10
4.97146
20
-3.77756
11
4.97146
21
-3.89173
0
LINE
8
BLACK
6
CONTINUOUS
10
4.97146
20
-3.89173
11
4.97117
21
-3.89243
0
LINE
8
BLACK
6
CONTINUOUS
10
4.97117
20
-3.89243
11
4.97047
21
-3.89272
0
LINE
8
BLACK
6
CONTINUOUS
10
4.97047
20
-3.89272
11
4.91142
21
-3.89272
0
LINE
8
BLACK
6
CONTINUOUS
10
4.91142
20
-3.89272
11
4.91072
21
-3.89243
0
LINE
8
BLACK
6
CONTINUOUS
10
4.9124
20
-3.77854
11
4.9124
21
-3.89075
0
LINE
8
BLACK
6
CONTINUOUS
10
4.9124
20
-3.89075
11
4.96949
21
-3.89075
0
LINE
8
BLACK
6
CONTINUOUS
10
4.96949
20
-3.89075
11
4.96949
21
-3.77854
0
LINE
8
BLACK
6
CONTINUOUS
10
4.96949
20
-3.77854
11
4.9124
21
-3.77854
0
LINE
8
BLACK
6
CONTINUOUS
10
4.36909
20
-3.30866
11
4.36909
21
-3.8563
0
LINE
8
BLACK
6
CONTINUOUS
10
4.36909
20
-3.8563
11
4.36881
21
-3.857
0
LINE
8
BLACK
6
CONTINUOUS
10
4.36881
20
-3.857
11
4.36811
21
-3.85728
0
LINE
8
BLACK
6
CONTINUOUS
10
4.36811
20
-3.85728
11
4.2094
21
-3.85728
0
LINE
8
BLACK
6
CONTINUOUS
10
4.2094
20
-3.85728
11
4.20936
21
-3.85739
0
LINE
8
BLACK
6
CONTINUOUS
10
4.20936
20
-3.85739
11
4.20866
21
-3.85768
0
LINE
8
BLACK
6
CONTINUOUS
10
4.20866
20
-3.85768
11
4.03937
21
-3.85768
0
LINE
8
BLACK
6
CONTINUOUS
10
4.03937
20
-3.85768
11
4.03867
21
-3.85739
0
LINE
8
BLACK
6
CONTINUOUS
10
4.03867
20
-3.85739
11
4.03863
21
-3.85728
0
LINE
8
BLACK
6
CONTINUOUS
10
4.03863
20
-3.85728
11
3.87992
21
-3.85728
0
LINE
8
BLACK
6
CONTINUOUS
10
3.87992
20
-3.85728
11
3.87923
21
-3.857
0
LINE
8
BLACK
6
CONTINUOUS
10
3.87923
20
-3.857
11
3.87894
21
-3.8563
0
LINE
8
BLACK
6
CONTINUOUS
10
3.87894
20
-3.8563
11
3.87894
21
-3.84744
0
LINE
8
BLACK
6
CONTINUOUS
10
3.87894
20
-3.84744
11
3.8189
21
-3.84744
0
LINE
8
BLACK
6
CONTINUOUS
10
3.8189
20
-3.84744
11
3.8182
21
-3.84715
0
LINE
8
BLACK
6
CONTINUOUS
10
3.8182
20
-3.84715
11
3.81791
21
-3.84646
0
LINE
8
BLACK
6
CONTINUOUS
10
3.81791
20
-3.84646
11
3.81791
21
-3.74409
0
LINE
8
BLACK
6
CONTINUOUS
10
3.81791
20
-3.74409
11
3.8182
21
-3.7434
0
LINE
8
BLACK
6
CONTINUOUS
10
3.8182
20
-3.7434
11
3.8189
21
-3.74311
0
LINE
8
BLACK
6
CONTINUOUS
10
3.8189
20
-3.74311
11
3.87894
21
-3.74311
0
LINE
8
BLACK
6
CONTINUOUS
10
3.87894
20
-3.74311
11
3.87894
21
-3.67028
0
LINE
8
BLACK
6
CONTINUOUS
10
3.87894
20
-3.67028
11
3.8189
21
-3.67028
0
LINE
8
BLACK
6
CONTINUOUS
10
3.8189
20
-3.67028
11
3.8182
21
-3.66999
0
LINE
8
BLACK
6
CONTINUOUS
10
3.8182
20
-3.66999
11
3.81791
21
-3.66929
0
LINE
8
BLACK
6
CONTINUOUS
10
3.81791
20
-3.66929
11
3.81791
21
-3.56693
0
LINE
8
BLACK
6
CONTINUOUS
10
3.81791
20
-3.56693
11
3.8182
21
-3.56623
0
LINE
8
BLACK
6
CONTINUOUS
10
3.8182
20
-3.56623
11
3.8189
21
-3.56594
0
LINE
8
BLACK
6
CONTINUOUS
10
3.8189
20
-3.56594
11
3.87894
21
-3.56594
0
LINE
8
BLACK
6
CONTINUOUS
10
3.87894
20
-3.56594
11
3.87894
21
-3.49311
0
LINE
8
BLACK
6
CONTINUOUS
10
3.87894
20
-3.49311
11
3.81693
21
-3.49311
0
LINE
8
BLACK
6
CONTINUOUS
10
3.81693
20
-3.49311
11
3.81623
21
-3.49282
0
LINE
8
BLACK
6
CONTINUOUS
10
3.81623
20
-3.49282
11
3.81594
21
-3.49213
0
LINE
8
BLACK
6
CONTINUOUS
10
3.81594
20
-3.49213
11
3.81594
21
-3.38976
0
LINE
8
BLACK
6
CONTINUOUS
10
3.81594
20
-3.38976
11
3.81623
21
-3.38907
0
LINE
8
BLACK
6
CONTINUOUS
10
3.81623
20
-3.38907
11
3.81693
21
-3.38878
0
LINE
8
BLACK
6
CONTINUOUS
10
3.81693
20
-3.38878
11
3.87894
21
-3.38878
0
LINE
8
BLACK
6
CONTINUOUS
10
3.87894
20
-3.38878
11
3.87894
21
-3.30866
0
LINE
8
BLACK
6
CONTINUOUS
10
3.87894
20
-3.30866
11
3.87923
21
-3.30797
0
LINE
8
BLACK
6
CONTINUOUS
10
3.87923
20
-3.30797
11
3.87992
21
-3.30768
0
LINE
8
BLACK
6
CONTINUOUS
10
3.87992
20
-3.30768
11
4.04921
21
-3.30768
0
LINE
8
BLACK
6
CONTINUOUS
10
4.04921
20
-3.30768
11
4.04991
21
-3.30797
0
LINE
8
BLACK
6
CONTINUOUS
10
4.04991
20
-3.30797
11
4.04995
21
-3.30807
0
LINE
8
BLACK
6
CONTINUOUS
10
4.04995
20
-3.30807
11
4.19808
21
-3.30807
0
LINE
8
BLACK
6
CONTINUOUS
10
4.19808
20
-3.30807
11
4.19812
21
-3.30797
0
LINE
8
BLACK
6
CONTINUOUS
10
4.19812
20
-3.30797
11
4.19882
21
-3.30768
0
LINE
8
BLACK
6
CONTINUOUS
10
4.19882
20
-3.30768
11
4.36811
21
-3.30768
0
LINE
8
BLACK
6
CONTINUOUS
10
4.36811
20
-3.30768
11
4.36881
21
-3.30797
0
LINE
8
BLACK
6
CONTINUOUS
10
4.36881
20
-3.30797
11
4.36909
21
-3.30866
0
LINE
8
BLACK
6
CONTINUOUS
10
4.0502
20
-3.78091
11
4.0502
21
-3.85571
0
LINE
8
BLACK
6
CONTINUOUS
10
4.0502
20
-3.85571
11
4.19783
21
-3.85571
0
LINE
8
BLACK
6
CONTINUOUS
10
4.19783
20
-3.85571
11
4.19783
21
-3.78091
0
LINE
8
BLACK
6
CONTINUOUS
10
4.19783
20
-3.78091
11
4.0502
21
-3.78091
0
LINE
8
BLACK
6
CONTINUOUS
10
4.1998
20
-3.78091
11
4.1998
21
-3.85531
0
LINE
8
BLACK
6
CONTINUOUS
10
4.1998
20
-3.85531
11
4.20768
21
-3.85531
0
LINE
8
BLACK
6
CONTINUOUS
10
4.20768
20
-3.85531
11
4.20768
21
-3.78091
0
LINE
8
BLACK
6
CONTINUOUS
10
4.20768
20
-3.78091
11
4.1998
21
-3.78091
0
LINE
8
BLACK
6
CONTINUOUS
10
4.20965
20
-3.78051
11
4.20965
21
-3.85531
0
LINE
8
BLACK
6
CONTINUOUS
10
4.20965
20
-3.85531
11
4.36713
21
-3.85531
0
LINE
8
BLACK
6
CONTINUOUS
10
4.36713
20
-3.85531
11
4.36713
21
-3.78051
0
LINE
8
BLACK
6
CONTINUOUS
10
4.36713
20
-3.78051
11
4.20965
21
-3.78051
0
LINE
8
BLACK
6
CONTINUOUS
10
3.88091
20
-3.85531
11
4.03839
21
-3.85531
0
LINE
8
BLACK
6
CONTINUOUS
10
4.03839
20
-3.85531
11
4.03839
21
-3.78051
0
LINE
8
BLACK
6
CONTINUOUS
10
4.03839
20
-3.78051
11
3.88287
21
-3.78051
0
LINE
8
BLACK
6
CONTINUOUS
10
3.88287
20
-3.78051
11
3.88287
21
-3.84646
0
LINE
8
BLACK
6
CONTINUOUS
10
3.88287
20
-3.84646
11
3.88259
21
-3.84715
0
LINE
8
BLACK
6
CONTINUOUS
10
3.88259
20
-3.84715
11
3.88189
21
-3.84744
0
LINE
8
BLACK
6
CONTINUOUS
10
3.88189
20
-3.84744
11
3.88091
21
-3.84744
0
LINE
8
BLACK
6
CONTINUOUS
10
3.88091
20
-3.84744
11
3.88091
21
-3.85531
0
LINE
8
BLACK
6
CONTINUOUS
10
4.04035
20
-3.78091
11
4.04035
21
-3.85531
0
LINE
8
BLACK
6
CONTINUOUS
10
4.04035
20
-3.85531
11
4.04823
21
-3.85531
0
LINE
8
BLACK
6
CONTINUOUS
10
4.04823
20
-3.85531
11
4.04823
21
-3.78091
0
LINE
8
BLACK
6
CONTINUOUS
10
4.04823
20
-3.78091
11
4.04035
21
-3.78091
0
LINE
8
BLACK
6
CONTINUOUS
10
3.81988
20
-3.74508
11
3.81988
21
-3.84547
0
LINE
8
BLACK
6
CONTINUOUS
10
3.81988
20
-3.84547
11
3.87894
21
-3.84547
0
LINE
8
BLACK
6
CONTINUOUS
10
3.87894
20
-3.84547
11
3.87894
21
-3.74508
0
LINE
8
BLACK
6
CONTINUOUS
10
3.87894
20
-3.74508
11
3.81988
21
-3.74508
0
LINE
8
BLACK
6
CONTINUOUS
10
4.0502
20
-3.77067
11
4.0502
21
-3.77894
0
LINE
8
BLACK
6
CONTINUOUS
10
4.0502
20
-3.77894
11
4.19783
21
-3.77894
0
LINE
8
BLACK
6
CONTINUOUS
10
4.19783
20
-3.77894
11
4.19783
21
-3.77067
0
LINE
8
BLACK
6
CONTINUOUS
10
4.19783
20
-3.77067
11
4.0502
21
-3.77067
0
LINE
8
BLACK
6
CONTINUOUS
10
4.1998
20
-3.77067
11
4.1998
21
-3.77854
0
LINE
8
BLACK
6
CONTINUOUS
10
4.1998
20
-3.77854
11
4.20768
21
-3.77854
0
LINE
8
BLACK
6
CONTINUOUS
10
4.20768
20
-3.77854
11
4.20768
21
-3.77067
0
LINE
8
BLACK
6
CONTINUOUS
10
4.20768
20
-3.77067
11
4.1998
21
-3.77067
0
LINE
8
BLACK
6
CONTINUOUS
10
4.20965
20
-3.77028
11
4.20965
21
-3.77854
0
LINE
8
BLACK
6
CONTINUOUS
10
4.20965
20
-3.77854
11
4.36713
21
-3.77854
0
LINE
8
BLACK
6
CONTINUOUS
10
4.36713
20
-3.77854
11
4.36713
21
-3.77028
0
LINE
8
BLACK
6
CONTINUOUS
10
4.36713
20
-3.77028
11
4.20965
21
-3.77028
0
LINE
8
BLACK
6
CONTINUOUS
10
3.88287
20
-3.77028
11
3.88287
21
-3.77854
0
LINE
8
BLACK
6
CONTINUOUS
10
3.88287
20
-3.77854
11
4.03839
21
-3.77854
0
LINE
8
BLACK
6
CONTINUOUS
10
4.03839
20
-3.77854
11
4.03839
21
-3.77028
0
LINE
8
BLACK
6
CONTINUOUS
10
4.03839
20
-3.77028
11
3.88287
21
-3.77028
0
LINE
8
BLACK
6
CONTINUOUS
10
4.04035
20
-3.77067
11
4.04035
21
-3.77854
0
LINE
8
BLACK
6
CONTINUOUS
10
4.04035
20
-3.77854
11
4.04823
21
-3.77854
0
LINE
8
BLACK
6
CONTINUOUS
10
4.04823
20
-3.77854
11
4.04823
21
-3.77067
0
LINE
8
BLACK
6
CONTINUOUS
10
4.04823
20
-3.77067
11
4.04035
21
-3.77067
0
LINE
8
BLACK
6
CONTINUOUS
10
4.0502
20
-3.70413
11
4.0502
21
-3.7687
0
LINE
8
BLACK
6
CONTINUOUS
10
4.0502
20
-3.7687
11
4.19783
21
-3.7687
0
LINE
8
BLACK
6
CONTINUOUS
10
4.19783
20
-3.7687
11
4.19783
21
-3.70413
0
LINE
8
BLACK
6
CONTINUOUS
10
4.19783
20
-3.70413
11
4.0502
21
-3.70413
0
LINE
8
BLACK
6
CONTINUOUS
10
4.1998
20
-3.70413
11
4.1998
21
-3.76831
0
LINE
8
BLACK
6
CONTINUOUS
10
4.1998
20
-3.76831
11
4.20768
21
-3.76831
0
LINE
8
BLACK
6
CONTINUOUS
10
4.20768
20
-3.76831
11
4.20768
21
-3.70413
0
LINE
8
BLACK
6
CONTINUOUS
10
4.20768
20
-3.70413
11
4.1998
21
-3.70413
0
LINE
8
BLACK
6
CONTINUOUS
10
4.20965
20
-3.70374
11
4.20965
21
-3.76831
0
LINE
8
BLACK
6
CONTINUOUS
10
4.20965
20
-3.76831
11
4.36713
21
-3.76831
0
LINE
8
BLACK
6
CONTINUOUS
10
4.36713
20
-3.76831
11
4.36713
21
-3.70374
0
LINE
8
BLACK
6
CONTINUOUS
10
4.36713
20
-3.70374
11
4.20965
21
-3.70374
0
LINE
8
BLACK
6
CONTINUOUS
10
3.88287
20
-3.74409
11
3.88287
21
-3.76831
0
LINE
8
BLACK
6
CONTINUOUS
10
3.88287
20
-3.76831
11
4.03839
21
-3.76831
0
LINE
8
BLACK
6
CONTINUOUS
10
4.03839
20
-3.76831
11
4.03839
21
-3.70374
0
LINE
8
BLACK
6
CONTINUOUS
10
4.03839
20
-3.70374
11
3.88091
21
-3.70374
0
LINE
8
BLACK
6
CONTINUOUS
10
3.88091
20
-3.70374
11
3.88091
21
-3.74311
0
LINE
8
BLACK
6
CONTINUOUS
10
3.88091
20
-3.74311
11
3.88189
21
-3.74311
0
LINE
8
BLACK
6
CONTINUOUS
10
3.88189
20
-3.74311
11
3.88259
21
-3.7434
0
LINE
8
BLACK
6
CONTINUOUS
10
3.88259
20
-3.7434
11
3.88287
21
-3.74409
0
LINE
8
BLACK
6
CONTINUOUS
10
4.04035
20
-3.70413
11
4.04035
21
-3.76831
0
LINE
8
BLACK
6
CONTINUOUS
10
4.04035
20
-3.76831
11
4.04823
21
-3.76831
0
LINE
8
BLACK
6
CONTINUOUS
10
4.04823
20
-3.76831
11
4.04823
21
-3.70413
0
LINE
8
BLACK
6
CONTINUOUS
10
4.04823
20
-3.70413
11
4.04035
21
-3.70413
0
LINE
8
BLACK
6
CONTINUOUS
10
4.0502
20
-3.6939
11
4.0502
21
-3.70217
0
LINE
8
BLACK
6
CONTINUOUS
10
4.0502
20
-3.70217
11
4.19783
21
-3.70217
0
LINE
8
BLACK
6
CONTINUOUS
10
4.19783
20
-3.70217
11
4.19783
21
-3.6939
0
LINE
8
BLACK
6
CONTINUOUS
10
4.19783
20
-3.6939
11
4.0502
21
-3.6939
0
LINE
8
BLACK
6
CONTINUOUS
10
4.1998
20
-3.6939
11
4.1998
21
-3.70177
0
LINE
8
BLACK
6
CONTINUOUS
10
4.1998
20
-3.70177
11
4.20768
21
-3.70177
0
LINE
8
BLACK
6
CONTINUOUS
10
4.20768
20
-3.70177
11
4.20768
21
-3.6939
0
LINE
8
BLACK
6
CONTINUOUS
10
4.20768
20
-3.6939
11
4.1998
21
-3.6939
0
LINE
8
BLACK
6
CONTINUOUS
10
4.20965
20
-3.6935
11
4.20965
21
-3.70177
0
LINE
8
BLACK
6
CONTINUOUS
10
4.20965
20
-3.70177
11
4.36713
21
-3.70177
0
LINE
8
BLACK
6
CONTINUOUS
10
4.36713
20
-3.70177
11
4.36713
21
-3.6935
0
LINE
8
BLACK
6
CONTINUOUS
10
4.36713
20
-3.6935
11
4.20965
21
-3.6935
0
LINE
8
BLACK
6
CONTINUOUS
10
3.88091
20
-3.6935
11
3.88091
21
-3.70177
0
LINE
8
BLACK
6
CONTINUOUS
10
3.88091
20
-3.70177
11
4.03839
21
-3.70177
0
LINE
8
BLACK
6
CONTINUOUS
10
4.03839
20
-3.70177
11
4.03839
21
-3.6935
0
LINE
8
BLACK
6
CONTINUOUS
10
4.03839
20
-3.6935
11
3.88091
21
-3.6935
0
LINE
8
BLACK
6
CONTINUOUS
10
4.04035
20
-3.6939
11
4.04035
21
-3.70177
0
LINE
8
BLACK
6
CONTINUOUS
10
4.04035
20
-3.70177
11
4.04823
21
-3.70177
0
LINE
8
BLACK
6
CONTINUOUS
10
4.04823
20
-3.70177
11
4.04823
21
-3.6939
0
LINE
8
BLACK
6
CONTINUOUS
10
4.04823
20
-3.6939
11
4.04035
21
-3.6939
0
LINE
8
BLACK
6
CONTINUOUS
10
4.0502
20
-3.62736
11
4.0502
21
-3.69193
0
LINE
8
BLACK
6
CONTINUOUS
10
4.0502
20
-3.69193
11
4.19783
21
-3.69193
0
LINE
8
BLACK
6
CONTINUOUS
10
4.19783
20
-3.69193
11
4.19783
21
-3.62736
0
LINE
8
BLACK
6
CONTINUOUS
10
4.19783
20
-3.62736
11
4.0502
21
-3.62736
0
LINE
8
BLACK
6
CONTINUOUS
10
4.1998
20
-3.62736
11
4.1998
21
-3.69154
0
LINE
8
BLACK
6
CONTINUOUS
10
4.1998
20
-3.69154
11
4.20768
21
-3.69154
0
LINE
8
BLACK
6
CONTINUOUS
10
4.20768
20
-3.69154
11
4.20768
21
-3.62736
0
LINE
8
BLACK
6
CONTINUOUS
10
4.20768
20
-3.62736
11
4.1998
21
-3.62736
0
LINE
8
BLACK
6
CONTINUOUS
10
4.20965
20
-3.62697
11
4.20965
21
-3.69154
0
LINE
8
BLACK
6
CONTINUOUS
10
4.20965
20
-3.69154
11
4.36713
21
-3.69154
0
LINE
8
BLACK
6
CONTINUOUS
10
4.36713
20
-3.69154
11
4.36713
21
-3.62697
0
LINE
8
BLACK
6
CONTINUOUS
10
4.36713
20
-3.62697
11
4.20965
21
-3.62697
0
LINE
8
BLACK
6
CONTINUOUS
10
3.88091
20
-3.69154
11
4.03839
21
-3.69154
0
LINE
8
BLACK
6
CONTINUOUS
10
4.03839
20
-3.69154
11
4.03839
21
-3.62697
0
LINE
8
BLACK
6
CONTINUOUS
10
4.03839
20
-3.62697
11
3.88287
21
-3.62697
0
LINE
8
BLACK
6
CONTINUOUS
10
3.88287
20
-3.62697
11
3.88287
21
-3.66929
0
LINE
8
BLACK
6
CONTINUOUS
10
3.88287
20
-3.66929
11
3.88259
21
-3.66999
0
LINE
8
BLACK
6
CONTINUOUS
10
3.88259
20
-3.66999
11
3.88189
21
-3.67028
0
LINE
8
BLACK
6
CONTINUOUS
10
3.88189
20
-3.67028
11
3.88091
21
-3.67028
0
LINE
8
BLACK
6
CONTINUOUS
10
3.88091
20
-3.67028
11
3.88091
21
-3.69154
0
LINE
8
BLACK
6
CONTINUOUS
10
4.04035
20
-3.62736
11
4.04035
21
-3.69154
0
LINE
8
BLACK
6
CONTINUOUS
10
4.04035
20
-3.69154
11
4.04823
21
-3.69154
0
LINE
8
BLACK
6
CONTINUOUS
10
4.04823
20
-3.69154
11
4.04823
21
-3.62736
0
LINE
8
BLACK
6
CONTINUOUS
10
4.04823
20
-3.62736
11
4.04035
21
-3.62736
0
LINE
8
BLACK
6
CONTINUOUS
10
3.81988
20
-3.56791
11
3.81988
21
-3.66831
0
LINE
8
BLACK
6
CONTINUOUS
10
3.81988
20
-3.66831
11
3.87894
21
-3.66831
0
LINE
8
BLACK
6
CONTINUOUS
10
3.87894
20
-3.66831
11
3.87894
21
-3.56791
0
LINE
8
BLACK
6
CONTINUOUS
10
3.87894
20
-3.56791
11
3.81988
21
-3.56791
0
LINE
8
BLACK
6
CONTINUOUS
10
4.0502
20
-3.61713
11
4.0502
21
-3.62539
0
LINE
8
BLACK
6
CONTINUOUS
10
4.0502
20
-3.62539
11
4.19783
21
-3.62539
0
LINE
8
BLACK
6
CONTINUOUS
10
4.19783
20
-3.62539
11
4.19783
21
-3.61713
0
LINE
8
BLACK
6
CONTINUOUS
10
4.19783
20
-3.61713
11
4.0502
21
-3.61713
0
LINE
8
BLACK
6
CONTINUOUS
10
4.1998
20
-3.61713
11
4.1998
21
-3.625
0
LINE
8
BLACK
6
CONTINUOUS
10
4.1998
20
-3.625
11
4.20768
21
-3.625
0
LINE
8
BLACK
6
CONTINUOUS
10
4.20768
20
-3.625
11
4.20768
21
-3.61713
0
LINE
8
BLACK
6
CONTINUOUS
10
4.20768
20
-3.61713
11
4.1998
21
-3.61713
0
LINE
8
BLACK
6
CONTINUOUS
10
4.20965
20
-3.61673
11
4.20965
21
-3.625
0
LINE
8
BLACK
6
CONTINUOUS
10
4.20965
20
-3.625
11
4.36713
21
-3.625
0
LINE
8
BLACK
6
CONTINUOUS
10
4.36713
20
-3.625
11
4.36713
21
-3.61673
0
LINE
8
BLACK
6
CONTINUOUS
10
4.36713
20
-3.61673
11
4.20965
21
-3.61673
0
LINE
8
BLACK
6
CONTINUOUS
10
3.88287
20
-3.61673
11
3.88287
21
-3.625
0
LINE
8
BLACK
6
CONTINUOUS
10
3.88287
20
-3.625
11
4.03839
21
-3.625
0
LINE
8
BLACK
6
CONTINUOUS
10
4.03839
20
-3.625
11
4.03839
21
-3.61673
0
LINE
8
BLACK
6
CONTINUOUS
10
4.03839
20
-3.61673
11
3.88287
21
-3.61673
0
LINE
8
BLACK
6
CONTINUOUS
10
4.04035
20
-3.61713
11
4.04035
21
-3.625
0
LINE
8
BLACK
6
CONTINUOUS
10
4.04035
20
-3.625
11
4.04823
21
-3.625
0
LINE
8
BLACK
6
CONTINUOUS
10
4.04823
20
-3.625
11
4.04823
21
-3.61713
0
LINE
8
BLACK
6
CONTINUOUS
10
4.04823
20
-3.61713
11
4.04035
21
-3.61713
0
LINE
8
BLACK
6
CONTINUOUS
10
4.0502
20
-3.55059
11
4.0502
21
-3.61516
0
LINE
8
BLACK
6
CONTINUOUS
10
4.0502
20
-3.61516
11
4.19783
21
-3.61516
0
LINE
8
BLACK
6
CONTINUOUS
10
4.19783
20
-3.61516
11
4.19783
21
-3.55059
0
LINE
8
BLACK
6
CONTINUOUS
10
4.19783
20
-3.55059
11
4.0502
21
-3.55059
0
LINE
8
BLACK
6
CONTINUOUS
10
4.1998
20
-3.55059
11
4.1998
21
-3.61476
0
LINE
8
BLACK
6
CONTINUOUS
10
4.1998
20
-3.61476
11
4.20768
21
-3.61476
0
LINE
8
BLACK
6
CONTINUOUS
10
4.20768
20
-3.61476
11
4.20768
21
-3.55059
0
LINE
8
BLACK
6
CONTINUOUS
10
4.20768
20
-3.55059
11
4.1998
21
-3.55059
0
LINE
8
BLACK
6
CONTINUOUS
10
4.20965
20
-3.5502
11
4.20965
21
-3.61476
0
LINE
8
BLACK
6
CONTINUOUS
10
4.20965
20
-3.61476
11
4.36713
21
-3.61476
0
LINE
8
BLACK
6
CONTINUOUS
10
4.36713
20
-3.61476
11
4.36713
21
-3.5502
0
LINE
8
BLACK
6
CONTINUOUS
10
4.36713
20
-3.5502
11
4.20965
21
-3.5502
0
LINE
8
BLACK
6
CONTINUOUS
10
3.88287
20
-3.56693
11
3.88287
21
-3.61476
0
LINE
8
BLACK
6
CONTINUOUS
10
3.88287
20
-3.61476
11
4.03839
21
-3.61476
0
LINE
8
BLACK
6
CONTINUOUS
10
4.03839
20
-3.61476
11
4.03839
21
-3.5502
0
LINE
8
BLACK
6
CONTINUOUS
10
4.03839
20
-3.5502
11
3.88091
21
-3.5502
0
LINE
8
BLACK
6
CONTINUOUS
10
3.88091
20
-3.5502
11
3.88091
21
-3.56594
0
LINE
8
BLACK
6
CONTINUOUS
10
3.88091
20
-3.56594
11
3.88189
21
-3.56594
0
LINE
8
BLACK
6
CONTINUOUS
10
3.88189
20
-3.56594
11
3.88259
21
-3.56623
0
LINE
8
BLACK
6
CONTINUOUS
10
3.88259
20
-3.56623
11
3.88287
21
-3.56693
0
LINE
8
BLACK
6
CONTINUOUS
10
4.04035
20
-3.55059
11
4.04035
21
-3.61476
0
LINE
8
BLACK
6
CONTINUOUS
10
4.04035
20
-3.61476
11
4.04823
21
-3.61476
0
LINE
8
BLACK
6
CONTINUOUS
10
4.04823
20
-3.61476
11
4.04823
21
-3.55059
0
LINE
8
BLACK
6
CONTINUOUS
10
4.04823
20
-3.55059
11
4.04035
21
-3.55059
0
LINE
8
BLACK
6
CONTINUOUS
10
4.0502
20
-3.54035
11
4.0502
21
-3.54862
0
LINE
8
BLACK
6
CONTINUOUS
10
4.0502
20
-3.54862
11
4.19783
21
-3.54862
0
LINE
8
BLACK
6
CONTINUOUS
10
4.19783
20
-3.54862
11
4.19783
21
-3.54035
0
LINE
8
BLACK
6
CONTINUOUS
10
4.19783
20
-3.54035
11
4.0502
21
-3.54035
0
LINE
8
BLACK
6
CONTINUOUS
10
4.1998
20
-3.54035
11
4.1998
21
-3.54823
0
LINE
8
BLACK
6
CONTINUOUS
10
4.1998
20
-3.54823
11
4.20768
21
-3.54823
0
LINE
8
BLACK
6
CONTINUOUS
10
4.20768
20
-3.54823
11
4.20768
21
-3.54035
0
LINE
8
BLACK
6
CONTINUOUS
10
4.20768
20
-3.54035
11
4.1998
21
-3.54035
0
LINE
8
BLACK
6
CONTINUOUS
10
4.20965
20
-3.53996
11
4.20965
21
-3.54823
0
LINE
8
BLACK
6
CONTINUOUS
10
4.20965
20
-3.54823
11
4.36713
21
-3.54823
0
LINE
8
BLACK
6
CONTINUOUS
10
4.36713
20
-3.54823
11
4.36713
21
-3.53996
0
LINE
8
BLACK
6
CONTINUOUS
10
4.36713
20
-3.53996
11
4.20965
21
-3.53996
0
LINE
8
BLACK
6
CONTINUOUS
10
3.88091
20
-3.53996
11
3.88091
21
-3.54823
0
LINE
8
BLACK
6
CONTINUOUS
10
3.88091
20
-3.54823
11
4.03839
21
-3.54823
0
LINE
8
BLACK
6
CONTINUOUS
10
4.03839
20
-3.54823
11
4.03839
21
-3.53996
0
LINE
8
BLACK
6
CONTINUOUS
10
4.03839
20
-3.53996
11
3.88091
21
-3.53996
0
LINE
8
BLACK
6
CONTINUOUS
10
4.04035
20
-3.54035
11
4.04035
21
-3.54823
0
LINE
8
BLACK
6
CONTINUOUS
10
4.04035
20
-3.54823
11
4.04823
21
-3.54823
0
LINE
8
BLACK
6
CONTINUOUS
10
4.04823
20
-3.54823
11
4.04823
21
-3.54035
0
LINE
8
BLACK
6
CONTINUOUS
10
4.04823
20
-3.54035
11
4.04035
21
-3.54035
0
LINE
8
BLACK
6
CONTINUOUS
10
4.0502
20
-3.47382
11
4.0502
21
-3.53839
0
LINE
8
BLACK
6
CONTINUOUS
10
4.0502
20
-3.53839
11
4.19783
21
-3.53839
0
LINE
8
BLACK
6
CONTINUOUS
10
4.19783
20
-3.53839
11
4.19783
21
-3.47382
0
LINE
8
BLACK
6
CONTINUOUS
10
4.19783
20
-3.47382
11
4.0502
21
-3.47382
0
LINE
8
BLACK
6
CONTINUOUS
10
4.1998
20
-3.47382
11
4.1998
21
-3.53799
0
LINE
8
BLACK
6
CONTINUOUS
10
4.1998
20
-3.53799
11
4.20768
21
-3.53799
0
LINE
8
BLACK
6
CONTINUOUS
10
4.20768
20
-3.53799
11
4.20768
21
-3.47382
0
LINE
8
BLACK
6
CONTINUOUS
10
4.20768
20
-3.47382
11
4.1998
21
-3.47382
0
LINE
8
BLACK
6
CONTINUOUS
10
4.20965
20
-3.47343
11
4.20965
21
-3.53799
0
LINE
8
BLACK
6
CONTINUOUS
10
4.20965
20
-3.53799
11
4.36713
21
-3.53799
0
LINE
8
BLACK
6
CONTINUOUS
10
4.36713
20
-3.53799
11
4.36713
21
-3.47343
0
LINE
8
BLACK
6
CONTINUOUS
10
4.36713
20
-3.47343
11
4.20965
21
-3.47343
0
LINE
8
BLACK
6
CONTINUOUS
10
3.88091
20
-3.47343
11
3.88091
21
-3.53799
0
LINE
8
BLACK
6
CONTINUOUS
10
3.88091
20
-3.53799
11
4.03839
21
-3.53799
0
LINE
8
BLACK
6
CONTINUOUS
10
4.03839
20
-3.53799
11
4.03839
21
-3.47343
0
LINE
8
BLACK
6
CONTINUOUS
10
4.03839
20
-3.47343
11
3.88091
21
-3.47343
0
LINE
8
BLACK
6
CONTINUOUS
10
4.04035
20
-3.47382
11
4.04035
21
-3.53799
0
LINE
8
BLACK
6
CONTINUOUS
10
4.04035
20
-3.53799
11
4.04823
21
-3.53799
0
LINE
8
BLACK
6
CONTINUOUS
10
4.04823
20
-3.53799
11
4.04823
21
-3.47382
0
LINE
8
BLACK
6
CONTINUOUS
10
4.04823
20
-3.47382
11
4.04035
21
-3.47382
0
LINE
8
BLACK
6
CONTINUOUS
10
3.81791
20
-3.39075
11
3.81791
21
-3.49114
0
LINE
8
BLACK
6
CONTINUOUS
10
3.81791
20
-3.49114
11
3.87894
21
-3.49114
0
LINE
8
BLACK
6
CONTINUOUS
10
3.87894
20
-3.49114
11
3.87894
21
-3.39075
0
LINE
8
BLACK
6
CONTINUOUS
10
3.87894
20
-3.39075
11
3.81791
21
-3.39075
0
LINE
8
BLACK
6
CONTINUOUS
10
4.0502
20
-3.46358
11
4.0502
21
-3.47185
0
LINE
8
BLACK
6
CONTINUOUS
10
4.0502
20
-3.47185
11
4.19783
21
-3.47185
0
LINE
8
BLACK
6
CONTINUOUS
10
4.19783
20
-3.47185
11
4.19783
21
-3.46358
0
LINE
8
BLACK
6
CONTINUOUS
10
4.19783
20
-3.46358
11
4.0502
21
-3.46358
0
LINE
8
BLACK
6
CONTINUOUS
10
4.1998
20
-3.46358
11
4.1998
21
-3.47146
0
LINE
8
BLACK
6
CONTINUOUS
10
4.1998
20
-3.47146
11
4.20768
21
-3.47146
0
LINE
8
BLACK
6
CONTINUOUS
10
4.20768
20
-3.47146
11
4.20768
21
-3.46358
0
LINE
8
BLACK
6
CONTINUOUS
10
4.20768
20
-3.46358
11
4.1998
21
-3.46358
0
LINE
8
BLACK
6
CONTINUOUS
10
4.20965
20
-3.46319
11
4.20965
21
-3.47146
0
LINE
8
BLACK
6
CONTINUOUS
10
4.20965
20
-3.47146
11
4.36713
21
-3.47146
0
LINE
8
BLACK
6
CONTINUOUS
10
4.36713
20
-3.47146
11
4.36713
21
-3.46319
0
LINE
8
BLACK
6
CONTINUOUS
10
4.36713
20
-3.46319
11
4.20965
21
-3.46319
0
LINE
8
BLACK
6
CONTINUOUS
10
3.88091
20
-3.46319
11
3.88091
21
-3.47146
0
LINE
8
BLACK
6
CONTINUOUS
10
3.88091
20
-3.47146
11
4.03839
21
-3.47146
0
LINE
8
BLACK
6
CONTINUOUS
10
4.03839
20
-3.47146
11
4.03839
21
-3.46319
0
LINE
8
BLACK
6
CONTINUOUS
10
4.03839
20
-3.46319
11
3.88091
21
-3.46319
0
LINE
8
BLACK
6
CONTINUOUS
10
4.04035
20
-3.46358
11
4.04035
21
-3.47146
0
LINE
8
BLACK
6
CONTINUOUS
10
4.04035
20
-3.47146
11
4.04823
21
-3.47146
0
LINE
8
BLACK
6
CONTINUOUS
10
4.04823
20
-3.47146
11
4.04823
21
-3.46358
0
LINE
8
BLACK
6
CONTINUOUS
10
4.04823
20
-3.46358
11
4.04035
21
-3.46358
0
LINE
8
BLACK
6
CONTINUOUS
10
4.0502
20
-3.39705
11
4.0502
21
-3.46161
0
LINE
8
BLACK
6
CONTINUOUS
10
4.0502
20
-3.46161
11
4.19783
21
-3.46161
0
LINE
8
BLACK
6
CONTINUOUS
10
4.19783
20
-3.46161
11
4.19783
21
-3.39705
0
LINE
8
BLACK
6
CONTINUOUS
10
4.19783
20
-3.39705
11
4.0502
21
-3.39705
0
LINE
8
BLACK
6
CONTINUOUS
10
4.1998
20
-3.39705
11
4.1998
21
-3.46122
0
LINE
8
BLACK
6
CONTINUOUS
10
4.1998
20
-3.46122
11
4.20768
21
-3.46122
0
LINE
8
BLACK
6
CONTINUOUS
10
4.20768
20
-3.46122
11
4.20768
21
-3.39705
0
LINE
8
BLACK
6
CONTINUOUS
10
4.20768
20
-3.39705
11
4.1998
21
-3.39705
0
LINE
8
BLACK
6
CONTINUOUS
10
4.20965
20
-3.39665
11
4.20965
21
-3.46122
0
LINE
8
BLACK
6
CONTINUOUS
10
4.20965
20
-3.46122
11
4.36713
21
-3.46122
0
LINE
8
BLACK
6
CONTINUOUS
10
4.36713
20
-3.46122
11
4.36713
21
-3.39665
0
LINE
8
BLACK
6
CONTINUOUS
10
4.36713
20
-3.39665
11
4.20965
21
-3.39665
0
LINE
8
BLACK
6
CONTINUOUS
10
3.88091
20
-3.39665
11
3.88091
21
-3.46122
0
LINE
8
BLACK
6
CONTINUOUS
10
3.88091
20
-3.46122
11
4.03839
21
-3.46122
0
LINE
8
BLACK
6
CONTINUOUS
10
4.03839
20
-3.46122
11
4.03839
21
-3.39665
0
LINE
8
BLACK
6
CONTINUOUS
10
4.03839
20
-3.39665
11
3.88091
21
-3.39665
0
LINE
8
BLACK
6
CONTINUOUS
10
4.04035
20
-3.39705
11
4.04035
21
-3.46122
0
LINE
8
BLACK
6
CONTINUOUS
10
4.04035
20
-3.46122
11
4.04823
21
-3.46122
0
LINE
8
BLACK
6
CONTINUOUS
10
4.04823
20
-3.46122
11
4.04823
21
-3.39705
0
LINE
8
BLACK
6
CONTINUOUS
10
4.04823
20
-3.39705
11
4.04035
21
-3.39705
0
LINE
8
BLACK
6
CONTINUOUS
10
4.0502
20
-3.38681
11
4.0502
21
-3.39508
0
LINE
8
BLACK
6
CONTINUOUS
10
4.0502
20
-3.39508
11
4.19783
21
-3.39508
0
LINE
8
BLACK
6
CONTINUOUS
10
4.19783
20
-3.39508
11
4.19783
21
-3.38681
0
LINE
8
BLACK
6
CONTINUOUS
10
4.19783
20
-3.38681
11
4.0502
21
-3.38681
0
LINE
8
BLACK
6
CONTINUOUS
10
4.1998
20
-3.38681
11
4.1998
21
-3.39469
0
LINE
8
BLACK
6
CONTINUOUS
10
4.1998
20
-3.39469
11
4.20768
21
-3.39469
0
LINE
8
BLACK
6
CONTINUOUS
10
4.20768
20
-3.39469
11
4.20768
21
-3.38681
0
LINE
8
BLACK
6
CONTINUOUS
10
4.20768
20
-3.38681
11
4.1998
21
-3.38681
0
LINE
8
BLACK
6
CONTINUOUS
10
4.20965
20
-3.38642
11
4.20965
21
-3.39469
0
LINE
8
BLACK
6
CONTINUOUS
10
4.20965
20
-3.39469
11
4.36713
21
-3.39469
0
LINE
8
BLACK
6
CONTINUOUS
10
4.36713
20
-3.39469
11
4.36713
21
-3.38642
0
LINE
8
BLACK
6
CONTINUOUS
10
4.36713
20
-3.38642
11
4.20965
21
-3.38642
0
LINE
8
BLACK
6
CONTINUOUS
10
4.03839
20
-3.39469
11
4.03839
21
-3.38642
0
LINE
8
BLACK
6
CONTINUOUS
10
4.03839
20
-3.38642
11
3.88091
21
-3.38642
0
LINE
8
BLACK
6
CONTINUOUS
10
3.88091
20
-3.38642
11
3.88091
21
-3.39469
0
LINE
8
BLACK
6
CONTINUOUS
10
3.88091
20
-3.39469
11
4.03839
21
-3.39469
0
LINE
8
BLACK
6
CONTINUOUS
10
4.04035
20
-3.38681
11
4.04035
21
-3.39469
0
LINE
8
BLACK
6
CONTINUOUS
10
4.04035
20
-3.39469
11
4.04823
21
-3.39469
0
LINE
8
BLACK
6
CONTINUOUS
10
4.04823
20
-3.39469
11
4.04823
21
-3.38681
0
LINE
8
BLACK
6
CONTINUOUS
10
4.04823
20
-3.38681
11
4.04035
21
-3.38681
0
LINE
8
BLACK
6
CONTINUOUS
10
4.0502
20
-3.31004
11
4.0502
21
-3.38484
0
LINE
8
BLACK
6
CONTINUOUS
10
4.0502
20
-3.38484
11
4.19783
21
-3.38484
0
LINE
8
BLACK
6
CONTINUOUS
10
4.19783
20
-3.38484
11
4.19783
21
-3.31004
0
LINE
8
BLACK
6
CONTINUOUS
10
4.19783
20
-3.31004
11
4.0502
21
-3.31004
0
LINE
8
BLACK
6
CONTINUOUS
10
4.1998
20
-3.31004
11
4.1998
21
-3.38445
0
LINE
8
BLACK
6
CONTINUOUS
10
4.1998
20
-3.38445
11
4.20768
21
-3.38445
0
LINE
8
BLACK
6
CONTINUOUS
10
4.20768
20
-3.38445
11
4.20768
21
-3.31004
0
LINE
8
BLACK
6
CONTINUOUS
10
4.20768
20
-3.31004
11
4.1998
21
-3.31004
0
LINE
8
BLACK
6
CONTINUOUS
10
4.20965
20
-3.30965
11
4.20965
21
-3.38445
0
LINE
8
BLACK
6
CONTINUOUS
10
4.20965
20
-3.38445
11
4.36713
21
-3.38445
0
LINE
8
BLACK
6
CONTINUOUS
10
4.36713
20
-3.38445
11
4.36713
21
-3.30965
0
LINE
8
BLACK
6
CONTINUOUS
10
4.36713
20
-3.30965
11
4.20965
21
-3.30965
0
LINE
8
BLACK
6
CONTINUOUS
10
3.88091
20
-3.30965
11
3.88091
21
-3.38445
0
LINE
8
BLACK
6
CONTINUOUS
10
3.88091
20
-3.38445
11
4.03839
21
-3.38445
0
LINE
8
BLACK
6
CONTINUOUS
10
4.03839
20
-3.38445
11
4.03839
21
-3.30965
0
LINE
8
BLACK
6
CONTINUOUS
10
4.03839
20
-3.30965
11
3.88091
21
-3.30965
0
LINE
8
BLACK
6
CONTINUOUS
10
4.04035
20
-3.31004
11
4.04035
21
-3.38445
0
LINE
8
BLACK
6
CONTINUOUS
10
4.04035
20
-3.38445
11
4.04823
21
-3.38445
0
LINE
8
BLACK
6
CONTINUOUS
10
4.04823
20
-3.38445
11
4.04823
21
-3.31004
0
LINE
8
BLACK
6
CONTINUOUS
10
4.04823
20
-3.31004
11
4.04035
21
-3.31004
0
LINE
8
BLACK
6
CONTINUOUS
10
3.625
20
-3.68504
11
3.625
21
-3.7874
0
LINE
8
BLACK
6
CONTINUOUS
10
3.625
20
-3.7874
11
3.62471
21
-3.7881
0
LINE
8
BLACK
6
CONTINUOUS
10
3.62471
20
-3.7881
11
3.62402
21
-3.78839
0
LINE
8
BLACK
6
CONTINUOUS
10
3.62402
20
-3.78839
11
3.62106
21
-3.78839
0
LINE
8
BLACK
6
CONTINUOUS
10
3.62106
20
-3.78839
11
3.62106
21
-3.84449
0
LINE
8
BLACK
6
CONTINUOUS
10
3.62106
20
-3.84449
11
3.62077
21
-3.84518
0
LINE
8
BLACK
6
CONTINUOUS
10
3.62077
20
-3.84518
11
3.62008
21
-3.84547
0
LINE
8
BLACK
6
CONTINUOUS
10
3.62008
20
-3.84547
11
3.50591
21
-3.84547
0
LINE
8
BLACK
6
CONTINUOUS
10
3.50591
20
-3.84547
11
3.50521
21
-3.84518
0
LINE
8
BLACK
6
CONTINUOUS
10
3.50521
20
-3.84518
11
3.50492
21
-3.84449
0
LINE
8
BLACK
6
CONTINUOUS
10
3.50492
20
-3.84449
11
3.50492
21
-3.79429
0
LINE
8
BLACK
6
CONTINUOUS
10
3.50492
20
-3.79429
11
3.50394
21
-3.79429
0
LINE
8
BLACK
6
CONTINUOUS
10
3.50394
20
-3.79429
11
3.50324
21
-3.794
0
LINE
8
BLACK
6
CONTINUOUS
10
3.50324
20
-3.794
11
3.50295
21
-3.79331
0
LINE
8
BLACK
6
CONTINUOUS
10
3.50295
20
-3.79331
11
3.50295
21
-3.67913
0
LINE
8
BLACK
6
CONTINUOUS
10
3.50295
20
-3.67913
11
3.50324
21
-3.67844
0
LINE
8
BLACK
6
CONTINUOUS
10
3.50324
20
-3.67844
11
3.50394
21
-3.67815
0
LINE
8
BLACK
6
CONTINUOUS
10
3.50394
20
-3.67815
11
3.56299
21
-3.67815
0
LINE
8
BLACK
6
CONTINUOUS
10
3.56299
20
-3.67815
11
3.56369
21
-3.67844
0
LINE
8
BLACK
6
CONTINUOUS
10
3.56369
20
-3.67844
11
3.56398
21
-3.67913
0
LINE
8
BLACK
6
CONTINUOUS
10
3.56398
20
-3.67913
11
3.56398
21
-3.68406
0
LINE
8
BLACK
6
CONTINUOUS
10
3.56398
20
-3.68406
11
3.62402
21
-3.68406
0
LINE
8
BLACK
6
CONTINUOUS
10
3.62402
20
-3.68406
11
3.62471
21
-3.68434
0
LINE
8
BLACK
6
CONTINUOUS
10
3.62471
20
-3.68434
11
3.625
21
-3.68504
0
LINE
8
BLACK
6
CONTINUOUS
10
3.50689
20
-3.8435
11
3.61909
21
-3.8435
0
LINE
8
BLACK
6
CONTINUOUS
10
3.61909
20
-3.8435
11
3.61909
21
-3.78839
0
LINE
8
BLACK
6
CONTINUOUS
10
3.61909
20
-3.78839
11
3.56398
21
-3.78839
0
LINE
8
BLACK
6
CONTINUOUS
10
3.56398
20
-3.78839
11
3.56398
21
-3.79331
0
LINE
8
BLACK
6
CONTINUOUS
10
3.56398
20
-3.79331
11
3.56369
21
-3.794
0
LINE
8
BLACK
6
CONTINUOUS
10
3.56369
20
-3.794
11
3.56299
21
-3.79429
0
LINE
8
BLACK
6
CONTINUOUS
10
3.56299
20
-3.79429
11
3.50689
21
-3.79429
0
LINE
8
BLACK
6
CONTINUOUS
10
3.50689
20
-3.79429
11
3.50689
21
-3.8435
0
LINE
8
BLACK
6
CONTINUOUS
10
3.50521
20
-3.78474
11
3.50591
21
-3.78445
0
LINE
8
BLACK
6
CONTINUOUS
10
3.50591
20
-3.78445
11
3.56004
21
-3.78445
0
LINE
8
BLACK
6
CONTINUOUS
10
3.56004
20
-3.78445
11
3.56004
21
-3.68504
0
LINE
8
BLACK
6
CONTINUOUS
10
3.56004
20
-3.68504
11
3.56033
21
-3.68434
0
LINE
8
BLACK
6
CONTINUOUS
10
3.56033
20
-3.68434
11
3.56102
21
-3.68406
0
LINE
8
BLACK
6
CONTINUOUS
10
3.56102
20
-3.68406
11
3.56201
21
-3.68406
0
LINE
8
BLACK
6
CONTINUOUS
10
3.56201
20
-3.68406
11
3.56201
21
-3.68012
0
LINE
8
BLACK
6
CONTINUOUS
10
3.56201
20
-3.68012
11
3.50492
21
-3.68012
0
LINE
8
BLACK
6
CONTINUOUS
10
3.50492
20
-3.68012
11
3.50492
21
-3.78543
0
LINE
8
BLACK
6
CONTINUOUS
10
3.50492
20
-3.78543
11
3.50521
21
-3.78474
0
LINE
8
BLACK
6
CONTINUOUS
10
3.50689
20
-3.78642
11
3.50689
21
-3.79232
0
LINE
8
BLACK
6
CONTINUOUS
10
3.50689
20
-3.79232
11
3.56201
21
-3.79232
0
LINE
8
BLACK
6
CONTINUOUS
10
3.56201
20
-3.79232
11
3.56201
21
-3.78839
0
LINE
8
BLACK
6
CONTINUOUS
10
3.56201
20
-3.78839
11
3.56102
21
-3.78839
0
LINE
8
BLACK
6
CONTINUOUS
10
3.56102
20
-3.78839
11
3.56033
21
-3.7881
0
LINE
8
BLACK
6
CONTINUOUS
10
3.56033
20
-3.7881
11
3.56004
21
-3.7874
0
LINE
8
BLACK
6
CONTINUOUS
10
3.56004
20
-3.7874
11
3.56004
21
-3.78642
0
LINE
8
BLACK
6
CONTINUOUS
10
3.56004
20
-3.78642
11
3.50689
21
-3.78642
0
LINE
8
BLACK
6
CONTINUOUS
10
3.62106
20
-3.78543
11
3.62106
21
-3.78642
0
LINE
8
BLACK
6
CONTINUOUS
10
3.62106
20
-3.78642
11
3.62303
21
-3.78642
0
LINE
8
BLACK
6
CONTINUOUS
10
3.62303
20
-3.78642
11
3.62303
21
-3.68602
0
LINE
8
BLACK
6
CONTINUOUS
10
3.62303
20
-3.68602
11
3.56398
21
-3.68602
0
LINE
8
BLACK
6
CONTINUOUS
10
3.56398
20
-3.68602
11
3.56398
21
-3.78445
0
LINE
8
BLACK
6
CONTINUOUS
10
3.56398
20
-3.78445
11
3.62008
21
-3.78445
0
LINE
8
BLACK
6
CONTINUOUS
10
3.62008
20
-3.78445
11
3.62077
21
-3.78474
0
LINE
8
BLACK
6
CONTINUOUS
10
3.62077
20
-3.78474
11
3.62106
21
-3.78543
0
LINE
8
BLACK
6
CONTINUOUS
10
3.625
20
-3.50591
11
3.625
21
-3.60827
0
LINE
8
BLACK
6
CONTINUOUS
10
3.625
20
-3.60827
11
3.62471
21
-3.60896
0
LINE
8
BLACK
6
CONTINUOUS
10
3.62471
20
-3.60896
11
3.62402
21
-3.60925
0
LINE
8
BLACK
6
CONTINUOUS
10
3.62402
20
-3.60925
11
3.62106
21
-3.60925
0
LINE
8
BLACK
6
CONTINUOUS
10
3.62106
20
-3.60925
11
3.62106
21
-3.66535
0
LINE
8
BLACK
6
CONTINUOUS
10
3.62106
20
-3.66535
11
3.62077
21
-3.66605
0
LINE
8
BLACK
6
CONTINUOUS
10
3.62077
20
-3.66605
11
3.62008
21
-3.66634
0
LINE
8
BLACK
6
CONTINUOUS
10
3.62008
20
-3.66634
11
3.50591
21
-3.66634
0
LINE
8
BLACK
6
CONTINUOUS
10
3.50591
20
-3.66634
11
3.50521
21
-3.66605
0
LINE
8
BLACK
6
CONTINUOUS
10
3.50521
20
-3.66605
11
3.50492
21
-3.66535
0
LINE
8
BLACK
6
CONTINUOUS
10
3.50492
20
-3.66535
11
3.50492
21
-3.61122
0
LINE
8
BLACK
6
CONTINUOUS
10
3.50492
20
-3.61122
11
3.50394
21
-3.61122
0
LINE
8
BLACK
6
CONTINUOUS
10
3.50394
20
-3.61122
11
3.50324
21
-3.61093
0
LINE
8
BLACK
6
CONTINUOUS
10
3.50324
20
-3.61093
11
3.50295
21
-3.61024
0
LINE
8
BLACK
6
CONTINUOUS
10
3.50295
20
-3.61024
11
3.50295
21
-3.49606
0
LINE
8
BLACK
6
CONTINUOUS
10
3.50295
20
-3.49606
11
3.50324
21
-3.49537
0
LINE
8
BLACK
6
CONTINUOUS
10
3.50324
20
-3.49537
11
3.50394
21
-3.49508
0
LINE
8
BLACK
6
CONTINUOUS
10
3.50394
20
-3.49508
11
3.56299
21
-3.49508
0
LINE
8
BLACK
6
CONTINUOUS
10
3.56299
20
-3.49508
11
3.56369
21
-3.49537
0
LINE
8
BLACK
6
CONTINUOUS
10
3.56369
20
-3.49537
11
3.56398
21
-3.49606
0
LINE
8
BLACK
6
CONTINUOUS
10
3.56398
20
-3.49606
11
3.56398
21
-3.50492
0
LINE
8
BLACK
6
CONTINUOUS
10
3.56398
20
-3.50492
11
3.62402
21
-3.50492
0
LINE
8
BLACK
6
CONTINUOUS
10
3.62402
20
-3.50492
11
3.62471
21
-3.50521
0
LINE
8
BLACK
6
CONTINUOUS
10
3.62471
20
-3.50521
11
3.625
21
-3.50591
0
LINE
8
BLACK
6
CONTINUOUS
10
3.50689
20
-3.66437
11
3.61909
21
-3.66437
0
LINE
8
BLACK
6
CONTINUOUS
10
3.61909
20
-3.66437
11
3.61909
21
-3.60925
0
LINE
8
BLACK
6
CONTINUOUS
10
3.61909
20
-3.60925
11
3.56398
21
-3.60925
0
LINE
8
BLACK
6
CONTINUOUS
10
3.56398
20
-3.60925
11
3.56398
21
-3.61024
0
LINE
8
BLACK
6
CONTINUOUS
10
3.56398
20
-3.61024
11
3.56369
21
-3.61093
0
LINE
8
BLACK
6
CONTINUOUS
10
3.56369
20
-3.61093
11
3.56299
21
-3.61122
0
LINE
8
BLACK
6
CONTINUOUS
10
3.56299
20
-3.61122
11
3.50689
21
-3.61122
0
LINE
8
BLACK
6
CONTINUOUS
10
3.50689
20
-3.61122
11
3.50689
21
-3.66437
0
LINE
8
BLACK
6
CONTINUOUS
10
3.50521
20
-3.6056
11
3.50591
21
-3.60531
0
LINE
8
BLACK
6
CONTINUOUS
10
3.50591
20
-3.60531
11
3.56004
21
-3.60531
0
LINE
8
BLACK
6
CONTINUOUS
10
3.56004
20
-3.60531
11
3.56004
21
-3.50591
0
LINE
8
BLACK
6
CONTINUOUS
10
3.56004
20
-3.50591
11
3.56033
21
-3.50521
0
LINE
8
BLACK
6
CONTINUOUS
10
3.56033
20
-3.50521
11
3.56102
21
-3.50492
0
LINE
8
BLACK
6
CONTINUOUS
10
3.56102
20
-3.50492
11
3.56201
21
-3.50492
0
LINE
8
BLACK
6
CONTINUOUS
10
3.56201
20
-3.50492
11
3.56201
21
-3.49705
0
LINE
8
BLACK
6
CONTINUOUS
10
3.56201
20
-3.49705
11
3.50492
21
-3.49705
0
LINE
8
BLACK
6
CONTINUOUS
10
3.50492
20
-3.49705
11
3.50492
21
-3.6063
0
LINE
8
BLACK
6
CONTINUOUS
10
3.50492
20
-3.6063
11
3.50521
21
-3.6056
0
LINE
8
BLACK
6
CONTINUOUS
10
3.56033
20
-3.60896
11
3.56004
21
-3.60827
0
LINE
8
BLACK
6
CONTINUOUS
10
3.56004
20
-3.60827
11
3.56004
21
-3.60728
0
LINE
8
BLACK
6
CONTINUOUS
10
3.56004
20
-3.60728
11
3.50689
21
-3.60728
0
LINE
8
BLACK
6
CONTINUOUS
10
3.50689
20
-3.60728
11
3.50689
21
-3.60925
0
LINE
8
BLACK
6
CONTINUOUS
10
3.50689
20
-3.60925
11
3.56102
21
-3.60925
0
LINE
8
BLACK
6
CONTINUOUS
10
3.56102
20
-3.60925
11
3.56033
21
-3.60896
0
LINE
8
BLACK
6
CONTINUOUS
10
3.62106
20
-3.6063
11
3.62106
21
-3.60728
0
LINE
8
BLACK
6
CONTINUOUS
10
3.62106
20
-3.60728
11
3.62303
21
-3.60728
0
LINE
8
BLACK
6
CONTINUOUS
10
3.62303
20
-3.60728
11
3.62303
21
-3.50689
0
LINE
8
BLACK
6
CONTINUOUS
10
3.62303
20
-3.50689
11
3.56398
21
-3.50689
0
LINE
8
BLACK
6
CONTINUOUS
10
3.56398
20
-3.50689
11
3.56398
21
-3.60531
0
LINE
8
BLACK
6
CONTINUOUS
10
3.56398
20
-3.60531
11
3.62008
21
-3.60531
0
LINE
8
BLACK
6
CONTINUOUS
10
3.62008
20
-3.60531
11
3.62077
21
-3.6056
0
LINE
8
BLACK
6
CONTINUOUS
10
3.62077
20
-3.6056
11
3.62106
21
-3.6063
0
LINE
8
BLACK
6
CONTINUOUS
10
5.07214
20
-3.66211
11
5.07185
21
-3.66142
0
LINE
8
BLACK
6
CONTINUOUS
10
5.07185
20
-3.66142
11
5.07185
21
-3.56299
0
LINE
8
BLACK
6
CONTINUOUS
10
5.07185
20
-3.56299
11
5.07214
21
-3.5623
0
LINE
8
BLACK
6
CONTINUOUS
10
5.07214
20
-3.5623
11
5.07283
21
-3.56201
0
LINE
8
BLACK
6
CONTINUOUS
10
5.07283
20
-3.56201
11
5.12795
21
-3.56201
0
LINE
8
BLACK
6
CONTINUOUS
10
5.12795
20
-3.56201
11
5.12865
21
-3.5623
0
LINE
8
BLACK
6
CONTINUOUS
10
5.12865
20
-3.5623
11
5.12894
21
-3.56299
0
LINE
8
BLACK
6
CONTINUOUS
10
5.12894
20
-3.56299
11
5.12894
21
-3.66142
0
LINE
8
BLACK
6
CONTINUOUS
10
5.12894
20
-3.66142
11
5.12865
21
-3.66211
0
LINE
8
BLACK
6
CONTINUOUS
10
5.12865
20
-3.66211
11
5.12795
21
-3.6624
0
LINE
8
BLACK
6
CONTINUOUS
10
5.12795
20
-3.6624
11
5.07283
21
-3.6624
0
LINE
8
BLACK
6
CONTINUOUS
10
5.07283
20
-3.6624
11
5.07214
21
-3.66211
0
LINE
8
BLACK
6
CONTINUOUS
10
5.07382
20
-3.56398
11
5.07382
21
-3.66043
0
LINE
8
BLACK
6
CONTINUOUS
10
5.07382
20
-3.66043
11
5.12697
21
-3.66043
0
LINE
8
BLACK
6
CONTINUOUS
10
5.12697
20
-3.66043
11
5.12697
21
-3.56398
0
LINE
8
BLACK
6
CONTINUOUS
10
5.12697
20
-3.56398
11
5.07382
21
-3.56398
0
LINE
8
BLACK
6
CONTINUOUS
10
5.04852
20
-3.52235
11
5.04823
21
-3.52165
0
LINE
8
BLACK
6
CONTINUOUS
10
5.04823
20
-3.52165
11
5.04823
21
-3.46654
0
LINE
8
BLACK
6
CONTINUOUS
10
5.04823
20
-3.46654
11
5.04852
21
-3.46584
0
LINE
8
BLACK
6
CONTINUOUS
10
5.04852
20
-3.46584
11
5.04921
21
-3.46555
0
LINE
8
BLACK
6
CONTINUOUS
10
5.04921
20
-3.46555
11
5.14764
21
-3.46555
0
LINE
8
BLACK
6
CONTINUOUS
10
5.14764
20
-3.46555
11
5.14833
21
-3.46584
0
LINE
8
BLACK
6
CONTINUOUS
10
5.14833
20
-3.46584
11
5.14862
21
-3.46654
0
LINE
8
BLACK
6
CONTINUOUS
10
5.14862
20
-3.46654
11
5.14862
21
-3.52165
0
LINE
8
BLACK
6
CONTINUOUS
10
5.14862
20
-3.52165
11
5.14833
21
-3.52235
0
LINE
8
BLACK
6
CONTINUOUS
10
5.14833
20
-3.52235
11
5.14764
21
-3.52264
0
LINE
8
BLACK
6
CONTINUOUS
10
5.14764
20
-3.52264
11
5.04921
21
-3.52264
0
LINE
8
BLACK
6
CONTINUOUS
10
5.04921
20
-3.52264
11
5.04852
21
-3.52235
0
LINE
8
BLACK
6
CONTINUOUS
10
5.0502
20
-3.46752
11
5.0502
21
-3.52067
0
LINE
8
BLACK
6
CONTINUOUS
10
5.0502
20
-3.52067
11
5.14665
21
-3.52067
0
LINE
8
BLACK
6
CONTINUOUS
10
5.14665
20
-3.52067
11
5.14665
21
-3.46752
0
LINE
8
BLACK
6
CONTINUOUS
10
5.14665
20
-3.46752
11
5.0502
21
-3.46752
0
LINE
8
BLACK
6
CONTINUOUS
10
3.625
20
-3.32677
11
3.625
21
-3.42913
0
LINE
8
BLACK
6
CONTINUOUS
10
3.625
20
-3.42913
11
3.62471
21
-3.42983
0
LINE
8
BLACK
6
CONTINUOUS
10
3.62471
20
-3.42983
11
3.62402
21
-3.43012
0
LINE
8
BLACK
6
CONTINUOUS
10
3.62402
20
-3.43012
11
3.61713
21
-3.43012
0
LINE
8
BLACK
6
CONTINUOUS
10
3.61713
20
-3.43012
11
3.61713
21
-3.48622
0
LINE
8
BLACK
6
CONTINUOUS
10
3.61713
20
-3.48622
11
3.61684
21
-3.48692
0
LINE
8
BLACK
6
CONTINUOUS
10
3.61684
20
-3.48692
11
3.61614
21
-3.4872
0
LINE
8
BLACK
6
CONTINUOUS
10
3.61614
20
-3.4872
11
3.50197
21
-3.4872
0
LINE
8
BLACK
6
CONTINUOUS
10
3.50197
20
-3.4872
11
3.50127
21
-3.48692
0
LINE
8
BLACK
6
CONTINUOUS
10
3.50127
20
-3.48692
11
3.50098
21
-3.48622
0
LINE
8
BLACK
6
CONTINUOUS
10
3.50098
20
-3.48622
11
3.50098
21
-3.42717
0
LINE
8
BLACK
6
CONTINUOUS
10
3.50098
20
-3.42717
11
3.50127
21
-3.42647
0
LINE
8
BLACK
6
CONTINUOUS
10
3.50127
20
-3.42647
11
3.50197
21
-3.42618
0
LINE
8
BLACK
6
CONTINUOUS
10
3.50197
20
-3.42618
11
3.50295
21
-3.42618
0
LINE
8
BLACK
6
CONTINUOUS
10
3.50295
20
-3.42618
11
3.50295
21
-3.32087
0
LINE
8
BLACK
6
CONTINUOUS
10
3.50295
20
-3.32087
11
3.50324
21
-3.32017
0
LINE
8
BLACK
6
CONTINUOUS
10
3.50324
20
-3.32017
11
3.50394
21
-3.31988
0
LINE
8
BLACK
6
CONTINUOUS
10
3.50394
20
-3.31988
11
3.56299
21
-3.31988
0
LINE
8
BLACK
6
CONTINUOUS
10
3.56299
20
-3.31988
11
3.56369
21
-3.32017
0
LINE
8
BLACK
6
CONTINUOUS
10
3.56369
20
-3.32017
11
3.56398
21
-3.32087
0
LINE
8
BLACK
6
CONTINUOUS
10
3.56398
20
-3.32087
11
3.56398
21
-3.32579
0
LINE
8
BLACK
6
CONTINUOUS
10
3.56398
20
-3.32579
11
3.62402
21
-3.32579
0
LINE
8
BLACK
6
CONTINUOUS
10
3.62402
20
-3.32579
11
3.62471
21
-3.32608
0
LINE
8
BLACK
6
CONTINUOUS
10
3.62471
20
-3.32608
11
3.625
21
-3.32677
0
LINE
8
BLACK
6
CONTINUOUS
10
3.50324
20
-3.43574
11
3.50295
21
-3.43504
0
LINE
8
BLACK
6
CONTINUOUS
10
3.50295
20
-3.43504
11
3.50295
21
-3.48524
0
LINE
8
BLACK
6
CONTINUOUS
10
3.50295
20
-3.48524
11
3.61516
21
-3.48524
0
LINE
8
BLACK
6
CONTINUOUS
10
3.61516
20
-3.48524
11
3.61516
21
-3.43012
0
LINE
8
BLACK
6
CONTINUOUS
10
3.61516
20
-3.43012
11
3.56398
21
-3.43012
0
LINE
8
BLACK
6
CONTINUOUS
10
3.56398
20
-3.43012
11
3.56398
21
-3.43504
0
LINE
8
BLACK
6
CONTINUOUS
10
3.56398
20
-3.43504
11
3.56369
21
-3.43574
0
LINE
8
BLACK
6
CONTINUOUS
10
3.56369
20
-3.43574
11
3.56299
21
-3.43602
0
LINE
8
BLACK
6
CONTINUOUS
10
3.56299
20
-3.43602
11
3.50394
21
-3.43602
0
LINE
8
BLACK
6
CONTINUOUS
10
3.50394
20
-3.43602
11
3.50324
21
-3.43574
0
LINE
8
BLACK
6
CONTINUOUS
10
3.50492
20
-3.42815
11
3.50492
21
-3.43406
0
LINE
8
BLACK
6
CONTINUOUS
10
3.50492
20
-3.43406
11
3.56201
21
-3.43406
0
LINE
8
BLACK
6
CONTINUOUS
10
3.56201
20
-3.43406
11
3.56201
21
-3.43012
0
LINE
8
BLACK
6
CONTINUOUS
10
3.56201
20
-3.43012
11
3.56102
21
-3.43012
0
LINE
8
BLACK
6
CONTINUOUS
10
3.56102
20
-3.43012
11
3.56033
21
-3.42983
0
LINE
8
BLACK
6
CONTINUOUS
10
3.56033
20
-3.42983
11
3.56004
21
-3.42913
0
LINE
8
BLACK
6
CONTINUOUS
10
3.56004
20
-3.42913
11
3.56004
21
-3.42815
0
LINE
8
BLACK
6
CONTINUOUS
10
3.56004
20
-3.42815
11
3.50492
21
-3.42815
0
LINE
8
BLACK
6
CONTINUOUS
10
3.61713
20
-3.42717
11
3.61713
21
-3.42815
0
LINE
8
BLACK
6
CONTINUOUS
10
3.61713
20
-3.42815
11
3.62303
21
-3.42815
0
LINE
8
BLACK
6
CONTINUOUS
10
3.62303
20
-3.42815
11
3.62303
21
-3.32776
0
LINE
8
BLACK
6
CONTINUOUS
10
3.62303
20
-3.32776
11
3.56398
21
-3.32776
0
LINE
8
BLACK
6
CONTINUOUS
10
3.56398
20
-3.32776
11
3.56398
21
-3.42618
0
LINE
8
BLACK
6
CONTINUOUS
10
3.56398
20
-3.42618
11
3.61614
21
-3.42618
0
LINE
8
BLACK
6
CONTINUOUS
10
3.61614
20
-3.42618
11
3.61684
21
-3.42647
0
LINE
8
BLACK
6
CONTINUOUS
10
3.61684
20
-3.42647
11
3.61713
21
-3.42717
0
LINE
8
BLACK
6
CONTINUOUS
10
3.50492
20
-3.32185
11
3.50492
21
-3.42618
0
LINE
8
BLACK
6
CONTINUOUS
10
3.50492
20
-3.42618
11
3.56004
21
-3.42618
0
LINE
8
BLACK
6
CONTINUOUS
10
3.56004
20
-3.42618
11
3.56004
21
-3.32677
0
LINE
8
BLACK
6
CONTINUOUS
10
3.56004
20
-3.32677
11
3.56033
21
-3.32608
0
LINE
8
BLACK
6
CONTINUOUS
10
3.56033
20
-3.32608
11
3.56102
21
-3.32579
0
LINE
8
BLACK
6
CONTINUOUS
10
3.56102
20
-3.32579
11
3.56201
21
-3.32579
0
LINE
8
BLACK
6
CONTINUOUS
10
3.56201
20
-3.32579
11
3.56201
21
-3.32185
0
LINE
8
BLACK
6
CONTINUOUS
10
3.56201
20
-3.32185
11
3.50492
21
-3.32185
0
LINE
8
BLACK
6
CONTINUOUS
10
5.04852
20
-3.46133
11
5.04823
21
-3.46063
0
LINE
8
BLACK
6
CONTINUOUS
10
5.04823
20
-3.46063
11
5.04823
21
-3.40551
0
LINE
8
BLACK
6
CONTINUOUS
10
5.04823
20
-3.40551
11
5.04852
21
-3.40482
0
LINE
8
BLACK
6
CONTINUOUS
10
5.04852
20
-3.40482
11
5.04921
21
-3.40453
0
LINE
8
BLACK
6
CONTINUOUS
10
5.04921
20
-3.40453
11
5.14764
21
-3.40453
0
LINE
8
BLACK
6
CONTINUOUS
10
5.14764
20
-3.40453
11
5.14833
21
-3.40482
0
LINE
8
BLACK
6
CONTINUOUS
10
5.14833
20
-3.40482
11
5.14862
21
-3.40551
0
LINE
8
BLACK
6
CONTINUOUS
10
5.14862
20
-3.40551
11
5.14862
21
-3.46063
0
LINE
8
BLACK
6
CONTINUOUS
10
5.14862
20
-3.46063
11
5.14833
21
-3.46133
0
LINE
8
BLACK
6
CONTINUOUS
10
5.14833
20
-3.46133
11
5.14764
21
-3.46161
0
LINE
8
BLACK
6
CONTINUOUS
10
5.14764
20
-3.46161
11
5.04921
21
-3.46161
0
LINE
8
BLACK
6
CONTINUOUS
10
5.04921
20
-3.46161
11
5.04852
21
-3.46133
0
LINE
8
BLACK
6
CONTINUOUS
10
5.0502
20
-3.4065
11
5.0502
21
-3.45965
0
LINE
8
BLACK
6
CONTINUOUS
10
5.0502
20
-3.45965
11
5.14665
21
-3.45965
0
LINE
8
BLACK
6
CONTINUOUS
10
5.14665
20
-3.45965
11
5.14665
21
-3.4065
0
LINE
8
BLACK
6
CONTINUOUS
10
5.14665
20
-3.4065
11
5.0502
21
-3.4065
0
LINE
8
BLACK
6
CONTINUOUS
10
5.21161
20
-3.27165
11
5.21161
21
-3.38189
0
LINE
8
BLACK
6
CONTINUOUS
10
5.21161
20
-3.38189
11
5.21133
21
-3.38259
0
LINE
8
BLACK
6
CONTINUOUS
10
5.21133
20
-3.38259
11
5.21063
21
-3.38287
0
LINE
8
BLACK
6
CONTINUOUS
10
5.21063
20
-3.38287
11
5.16634
21
-3.38287
0
LINE
8
BLACK
6
CONTINUOUS
10
5.16634
20
-3.38287
11
5.16634
21
-3.39567
0
LINE
8
BLACK
6
CONTINUOUS
10
5.16634
20
-3.39567
11
5.16605
21
-3.39637
0
LINE
8
BLACK
6
CONTINUOUS
10
5.16605
20
-3.39637
11
5.16535
21
-3.39665
0
LINE
8
BLACK
6
CONTINUOUS
10
5.16535
20
-3.39665
11
5.0315
21
-3.39665
0
LINE
8
BLACK
6
CONTINUOUS
10
5.0315
20
-3.39665
11
5.0308
21
-3.39637
0
LINE
8
BLACK
6
CONTINUOUS
10
5.0308
20
-3.39637
11
5.03051
21
-3.39567
0
LINE
8
BLACK
6
CONTINUOUS
10
5.03051
20
-3.39567
11
5.03051
21
-3.38287
0
LINE
8
BLACK
6
CONTINUOUS
10
5.03051
20
-3.38287
11
4.98622
21
-3.38287
0
LINE
8
BLACK
6
CONTINUOUS
10
4.98622
20
-3.38287
11
4.98552
21
-3.38259
0
LINE
8
BLACK
6
CONTINUOUS
10
4.98552
20
-3.38259
11
4.98524
21
-3.38189
0
LINE
8
BLACK
6
CONTINUOUS
10
4.98524
20
-3.38189
11
4.98524
21
-3.27165
0
LINE
8
BLACK
6
CONTINUOUS
10
4.98524
20
-3.27165
11
4.98552
21
-3.27096
0
LINE
8
BLACK
6
CONTINUOUS
10
4.98552
20
-3.27096
11
4.98622
21
-3.27067
0
LINE
8
BLACK
6
CONTINUOUS
10
4.98622
20
-3.27067
11
5.03051
21
-3.27067
0
LINE
8
BLACK
6
CONTINUOUS
10
5.03051
20
-3.27067
11
5.03051
21
-3.25787
0
LINE
8
BLACK
6
CONTINUOUS
10
5.03051
20
-3.25787
11
5.0308
21
-3.25718
0
LINE
8
BLACK
6
CONTINUOUS
10
5.0308
20
-3.25718
11
5.0315
21
-3.25689
0
LINE
8
BLACK
6
CONTINUOUS
10
5.0315
20
-3.25689
11
5.16535
21
-3.25689
0
LINE
8
BLACK
6
CONTINUOUS
10
5.16535
20
-3.25689
11
5.16605
21
-3.25718
0
LINE
8
BLACK
6
CONTINUOUS
10
5.16605
20
-3.25718
11
5.16634
21
-3.25787
0
LINE
8
BLACK
6
CONTINUOUS
10
5.16634
20
-3.25787
11
5.16634
21
-3.27067
0
LINE
8
BLACK
6
CONTINUOUS
10
5.16634
20
-3.27067
11
5.21063
21
-3.27067
0
LINE
8
BLACK
6
CONTINUOUS
10
5.21063
20
-3.27067
11
5.21133
21
-3.27096
0
LINE
8
BLACK
6
CONTINUOUS
10
5.21133
20
-3.27096
11
5.21161
21
-3.27165
0
LINE
8
BLACK
6
CONTINUOUS
10
5.03839
20
-3.27165
11
5.03839
21
-3.38189
0
LINE
8
BLACK
6
CONTINUOUS
10
5.03839
20
-3.38189
11
5.0381
21
-3.38259
0
LINE
8
BLACK
6
CONTINUOUS
10
5.0381
20
-3.38259
11
5.0374
21
-3.38287
0
LINE
8
BLACK
6
CONTINUOUS
10
5.0374
20
-3.38287
11
5.03248
21
-3.38287
0
LINE
8
BLACK
6
CONTINUOUS
10
5.03248
20
-3.38287
11
5.03248
21
-3.39469
0
LINE
8
BLACK
6
CONTINUOUS
10
5.03248
20
-3.39469
11
5.16437
21
-3.39469
0
LINE
8
BLACK
6
CONTINUOUS
10
5.16437
20
-3.39469
11
5.16437
21
-3.38287
0
LINE
8
BLACK
6
CONTINUOUS
10
5.16437
20
-3.38287
11
5.15945
21
-3.38287
0
LINE
8
BLACK
6
CONTINUOUS
10
5.15945
20
-3.38287
11
5.15875
21
-3.38259
0
LINE
8
BLACK
6
CONTINUOUS
10
5.15875
20
-3.38259
11
5.15846
21
-3.38189
0
LINE
8
BLACK
6
CONTINUOUS
10
5.15846
20
-3.38189
11
5.15846
21
-3.27165
0
LINE
8
BLACK
6
CONTINUOUS
10
5.15846
20
-3.27165
11
5.15875
21
-3.27096
0
LINE
8
BLACK
6
CONTINUOUS
10
5.15875
20
-3.27096
11
5.15945
21
-3.27067
0
LINE
8
BLACK
6
CONTINUOUS
10
5.15945
20
-3.27067
11
5.16437
21
-3.27067
0
LINE
8
BLACK
6
CONTINUOUS
10
5.16437
20
-3.27067
11
5.16437
21
-3.25886
0
LINE
8
BLACK
6
CONTINUOUS
10
5.16437
20
-3.25886
11
5.03248
21
-3.25886
0
LINE
8
BLACK
6
CONTINUOUS
10
5.03248
20
-3.25886
11
5.03248
21
-3.27067
0
LINE
8
BLACK
6
CONTINUOUS
10
5.03248
20
-3.27067
11
5.0374
21
-3.27067
0
LINE
8
BLACK
6
CONTINUOUS
10
5.0374
20
-3.27067
11
5.0381
21
-3.27096
0
LINE
8
BLACK
6
CONTINUOUS
10
5.0381
20
-3.27096
11
5.03839
21
-3.27165
0
LINE
8
BLACK
6
CONTINUOUS
10
5.16043
20
-3.27264
11
5.16043
21
-3.38091
0
LINE
8
BLACK
6
CONTINUOUS
10
5.16043
20
-3.38091
11
5.16437
21
-3.38091
0
LINE
8
BLACK
6
CONTINUOUS
10
5.16437
20
-3.38091
11
5.16437
21
-3.27264
0
LINE
8
BLACK
6
CONTINUOUS
10
5.16437
20
-3.27264
11
5.16043
21
-3.27264
0
LINE
8
BLACK
6
CONTINUOUS
10
5.16634
20
-3.27264
11
5.16634
21
-3.38091
0
LINE
8
BLACK
6
CONTINUOUS
10
5.16634
20
-3.38091
11
5.20965
21
-3.38091
0
LINE
8
BLACK
6
CONTINUOUS
10
5.20965
20
-3.38091
11
5.20965
21
-3.27264
0
LINE
8
BLACK
6
CONTINUOUS
10
5.20965
20
-3.27264
11
5.16634
21
-3.27264
0
LINE
8
BLACK
6
CONTINUOUS
10
4.9872
20
-3.27264
11
4.9872
21
-3.38091
0
LINE
8
BLACK
6
CONTINUOUS
10
4.9872
20
-3.38091
11
5.03051
21
-3.38091
0
LINE
8
BLACK
6
CONTINUOUS
10
5.03051
20
-3.38091
11
5.03051
21
-3.27264
0
LINE
8
BLACK
6
CONTINUOUS
10
5.03051
20
-3.27264
11
4.9872
21
-3.27264
0
LINE
8
BLACK
6
CONTINUOUS
10
5.03248
20
-3.27264
11
5.03248
21
-3.38091
0
LINE
8
BLACK
6
CONTINUOUS
10
5.03248
20
-3.38091
11
5.03642
21
-3.38091
0
LINE
8
BLACK
6
CONTINUOUS
10
5.03642
20
-3.38091
11
5.03642
21
-3.27264
0
LINE
8
BLACK
6
CONTINUOUS
10
5.03642
20
-3.27264
11
5.03248
21
-3.27264
0
LINE
8
BLACK
6
CONTINUOUS
10
4.74143
20
-3.31763
11
4.74114
21
-3.31693
0
LINE
8
BLACK
6
CONTINUOUS
10
4.74114
20
-3.31693
11
4.74114
21
-3.25787
0
LINE
8
BLACK
6
CONTINUOUS
10
4.74114
20
-3.25787
11
4.74143
21
-3.25718
0
LINE
8
BLACK
6
CONTINUOUS
10
4.74143
20
-3.25718
11
4.74213
21
-3.25689
0
LINE
8
BLACK
6
CONTINUOUS
10
4.74213
20
-3.25689
11
4.8563
21
-3.25689
0
LINE
8
BLACK
6
CONTINUOUS
10
4.8563
20
-3.25689
11
4.857
21
-3.25718
0
LINE
8
BLACK
6
CONTINUOUS
10
4.857
20
-3.25718
11
4.85728
21
-3.25787
0
LINE
8
BLACK
6
CONTINUOUS
10
4.85728
20
-3.25787
11
4.85728
21
-3.31693
0
LINE
8
BLACK
6
CONTINUOUS
10
4.85728
20
-3.31693
11
4.857
21
-3.31763
0
LINE
8
BLACK
6
CONTINUOUS
10
4.857
20
-3.31763
11
4.8563
21
-3.31791
0
LINE
8
BLACK
6
CONTINUOUS
10
4.8563
20
-3.31791
11
4.74213
21
-3.31791
0
LINE
8
BLACK
6
CONTINUOUS
10
4.74213
20
-3.31791
11
4.74143
21
-3.31763
0
LINE
8
BLACK
6
CONTINUOUS
10
4.74311
20
-3.25886
11
4.74311
21
-3.31594
0
LINE
8
BLACK
6
CONTINUOUS
10
4.74311
20
-3.31594
11
4.85531
21
-3.31594
0
LINE
8
BLACK
6
CONTINUOUS
10
4.85531
20
-3.31594
11
4.85531
21
-3.25886
0
LINE
8
BLACK
6
CONTINUOUS
10
4.85531
20
-3.25886
11
4.74311
21
-3.25886
0
LINE
8
BLACK
6
CONTINUOUS
10
4.86151
20
-3.31369
11
4.86122
21
-3.31299
0
LINE
8
BLACK
6
CONTINUOUS
10
4.86122
20
-3.31299
11
4.86122
21
-3.26181
0
LINE
8
BLACK
6
CONTINUOUS
10
4.86122
20
-3.26181
11
4.86151
21
-3.26112
0
LINE
8
BLACK
6
CONTINUOUS
10
4.86151
20
-3.26112
11
4.8622
21
-3.26083
0
LINE
8
BLACK
6
CONTINUOUS
10
4.8622
20
-3.26083
11
4.97244
21
-3.26083
0
LINE
8
BLACK
6
CONTINUOUS
10
4.97244
20
-3.26083
11
4.97314
21
-3.26112
0
LINE
8
BLACK
6
CONTINUOUS
10
4.97314
20
-3.26112
11
4.97343
21
-3.26181
0
LINE
8
BLACK
6
CONTINUOUS
10
4.97343
20
-3.26181
11
4.97343
21
-3.31299
0
LINE
8
BLACK
6
CONTINUOUS
10
4.97343
20
-3.31299
11
4.97314
21
-3.31369
0
LINE
8
BLACK
6
CONTINUOUS
10
4.97314
20
-3.31369
11
4.97244
21
-3.31398
0
LINE
8
BLACK
6
CONTINUOUS
10
4.97244
20
-3.31398
11
4.8622
21
-3.31398
0
LINE
8
BLACK
6
CONTINUOUS
10
4.8622
20
-3.31398
11
4.86151
21
-3.31369
0
LINE
8
BLACK
6
CONTINUOUS
10
4.86319
20
-3.2628
11
4.86319
21
-3.31201
0
LINE
8
BLACK
6
CONTINUOUS
10
4.86319
20
-3.31201
11
4.97146
21
-3.31201
0
LINE
8
BLACK
6
CONTINUOUS
10
4.97146
20
-3.31201
11
4.97146
21
-3.2628
0
LINE
8
BLACK
6
CONTINUOUS
10
4.97146
20
-3.2628
11
4.86319
21
-3.2628
  0
ENDSEC
  0
EOF
