  0
SECTION
  2
HEADER
  9
$ANGBASE
  50
0.0
  9
$ANGDIR
  70
1
  9
$MEASUREMENT
  70
0
  0
ENDSEC
  0
SECTION
  2
TABLES
  0
TABLE
  2
LTYPE
  70
4
  0
LTYPE
  5
40F
  2
CONTINUOUS
  70
0
  3
Solid line
  72
65
  73
0
  40
0.0
  0
LTYPE
  5
410
  2
DASHDOT
 70
0
  3
Dash Dot ____ _ ____ _
 72
65
 73
4
 40
2.0
 49
1.25
 49
-0.25
 49
0.25
 49
-0.25
  0
LTYPE
  5
411
  2
DASHED
 70
0
  3
Dashed __ __ __ __ __
 72
65
 73
2
 40
0.75
 49
0.5
 49
-0.25
  0
LTYPE
  5
43B
  2
DOTTED
 70
0
  3
Dotted .  .  .  .
 72
65
 73
2
 40
0.2
 49
0.0
 49
-0.2
  0
ENDTAB
  0
TABLE
  2
STYLE
  70
4
  0
STYLE
  2
KICAD
  70
0
  40
0
  41
1
  42
1
  50
0
  71
0
  3
isocp.shx
  0
STYLE
  2
KICADB
  70
0
  40
0
  41
1
  42
1
  50
0
  71
0
  3
isocp.shx
  0
STYLE
  2
KICADI
  70
0
  40
0
  41
1
  42
1
  50
15
  71
0
  3
isocp.shx
  0
STYLE
  2
KICADBI
  70
0
  40
0
  41
1
  42
1
  50
15
  71
0
  3
isocp.shx
  0
ENDTAB
  0
TABLE
  2
LAYER
  70
1
  0
LAYER
  2
BLACK
  70
0
  62
7
  6
CONTINUOUS
  0
ENDTAB
  0
ENDSEC
  0
SECTION
  2
ENTITIES
0
LINE
8
BLACK
6
CONTINUOUS
10
2.85236
20
-3.57539
11
2.85236
21
-3.59193
0
LINE
8
BLACK
6
CONTINUOUS
10
2.85236
20
-3.59193
11
2.8874
21
-3.59193
0
LINE
8
BLACK
6
CONTINUOUS
10
2.8874
20
-3.59193
11
2.8874
21
-3.57539
0
LINE
8
BLACK
6
CONTINUOUS
10
2.8874
20
-3.57539
11
2.85236
21
-3.57539
0
LINE
8
BLACK
6
CONTINUOUS
10
2.85236
20
-3.60098
11
2.85236
21
-3.61752
0
LINE
8
BLACK
6
CONTINUOUS
10
2.85236
20
-3.61752
11
2.8874
21
-3.61752
0
LINE
8
BLACK
6
CONTINUOUS
10
2.8874
20
-3.61752
11
2.8874
21
-3.60098
0
LINE
8
BLACK
6
CONTINUOUS
10
2.8874
20
-3.60098
11
2.85236
21
-3.60098
0
LINE
8
BLACK
6
CONTINUOUS
10
2.85236
20
-3.62657
11
2.85236
21
-3.64311
0
LINE
8
BLACK
6
CONTINUOUS
10
2.85236
20
-3.64311
11
2.8874
21
-3.64311
0
LINE
8
BLACK
6
CONTINUOUS
10
2.8874
20
-3.64311
11
2.8874
21
-3.62657
0
LINE
8
BLACK
6
CONTINUOUS
10
2.8874
20
-3.62657
11
2.85236
21
-3.62657
0
LINE
8
BLACK
6
CONTINUOUS
10
2.85236
20
-3.65217
11
2.85236
21
-3.6687
0
LINE
8
BLACK
6
CONTINUOUS
10
2.85236
20
-3.6687
11
2.8874
21
-3.6687
0
LINE
8
BLACK
6
CONTINUOUS
10
2.8874
20
-3.6687
11
2.8874
21
-3.65217
0
LINE
8
BLACK
6
CONTINUOUS
10
2.8874
20
-3.65217
11
2.85236
21
-3.65217
0
LINE
8
BLACK
6
CONTINUOUS
10
3.01811
20
-3.65217
11
3.01811
21
-3.6687
0
LINE
8
BLACK
6
CONTINUOUS
10
3.01811
20
-3.6687
11
3.05315
21
-3.6687
0
LINE
8
BLACK
6
CONTINUOUS
10
3.05315
20
-3.6687
11
3.05315
21
-3.65217
0
LINE
8
BLACK
6
CONTINUOUS
10
3.05315
20
-3.65217
11
3.01811
21
-3.65217
0
LINE
8
BLACK
6
CONTINUOUS
10
3.01811
20
-3.62657
11
3.01811
21
-3.64311
0
LINE
8
BLACK
6
CONTINUOUS
10
3.01811
20
-3.64311
11
3.05315
21
-3.64311
0
LINE
8
BLACK
6
CONTINUOUS
10
3.05315
20
-3.64311
11
3.05315
21
-3.62657
0
LINE
8
BLACK
6
CONTINUOUS
10
3.05315
20
-3.62657
11
3.01811
21
-3.62657
0
LINE
8
BLACK
6
CONTINUOUS
10
3.01811
20
-3.60098
11
3.01811
21
-3.61752
0
LINE
8
BLACK
6
CONTINUOUS
10
3.01811
20
-3.61752
11
3.05315
21
-3.61752
0
LINE
8
BLACK
6
CONTINUOUS
10
3.05315
20
-3.61752
11
3.05315
21
-3.60098
0
LINE
8
BLACK
6
CONTINUOUS
10
3.05315
20
-3.60098
11
3.01811
21
-3.60098
0
LINE
8
BLACK
6
CONTINUOUS
10
3.01811
20
-3.57539
11
3.01811
21
-3.59193
0
LINE
8
BLACK
6
CONTINUOUS
10
3.01811
20
-3.59193
11
3.05315
21
-3.59193
0
LINE
8
BLACK
6
CONTINUOUS
10
3.05315
20
-3.59193
11
3.05315
21
-3.57539
0
LINE
8
BLACK
6
CONTINUOUS
10
3.05315
20
-3.57539
11
3.01811
21
-3.57539
0
LINE
8
BLACK
6
CONTINUOUS
10
2.85236
20
-3.80374
11
2.85236
21
-3.82028
0
LINE
8
BLACK
6
CONTINUOUS
10
2.85236
20
-3.82028
11
2.8874
21
-3.82028
0
LINE
8
BLACK
6
CONTINUOUS
10
2.8874
20
-3.82028
11
2.8874
21
-3.80374
0
LINE
8
BLACK
6
CONTINUOUS
10
2.8874
20
-3.80374
11
2.85236
21
-3.80374
0
LINE
8
BLACK
6
CONTINUOUS
10
2.85236
20
-3.82933
11
2.85236
21
-3.84587
0
LINE
8
BLACK
6
CONTINUOUS
10
2.85236
20
-3.84587
11
2.8874
21
-3.84587
0
LINE
8
BLACK
6
CONTINUOUS
10
2.8874
20
-3.84587
11
2.8874
21
-3.82933
0
LINE
8
BLACK
6
CONTINUOUS
10
2.8874
20
-3.82933
11
2.85236
21
-3.82933
0
LINE
8
BLACK
6
CONTINUOUS
10
2.85236
20
-3.85492
11
2.85236
21
-3.87146
0
LINE
8
BLACK
6
CONTINUOUS
10
2.85236
20
-3.87146
11
2.8874
21
-3.87146
0
LINE
8
BLACK
6
CONTINUOUS
10
2.8874
20
-3.87146
11
2.8874
21
-3.85492
0
LINE
8
BLACK
6
CONTINUOUS
10
2.8874
20
-3.85492
11
2.85236
21
-3.85492
0
LINE
8
BLACK
6
CONTINUOUS
10
2.85236
20
-3.88051
11
2.85236
21
-3.89705
0
LINE
8
BLACK
6
CONTINUOUS
10
2.85236
20
-3.89705
11
2.8874
21
-3.89705
0
LINE
8
BLACK
6
CONTINUOUS
10
2.8874
20
-3.89705
11
2.8874
21
-3.88051
0
LINE
8
BLACK
6
CONTINUOUS
10
2.8874
20
-3.88051
11
2.85236
21
-3.88051
0
LINE
8
BLACK
6
CONTINUOUS
10
3.01811
20
-3.88051
11
3.01811
21
-3.89705
0
LINE
8
BLACK
6
CONTINUOUS
10
3.01811
20
-3.89705
11
3.05315
21
-3.89705
0
LINE
8
BLACK
6
CONTINUOUS
10
3.05315
20
-3.89705
11
3.05315
21
-3.88051
0
LINE
8
BLACK
6
CONTINUOUS
10
3.05315
20
-3.88051
11
3.01811
21
-3.88051
0
LINE
8
BLACK
6
CONTINUOUS
10
3.01811
20
-3.85492
11
3.01811
21
-3.87146
0
LINE
8
BLACK
6
CONTINUOUS
10
3.01811
20
-3.87146
11
3.05315
21
-3.87146
0
LINE
8
BLACK
6
CONTINUOUS
10
3.05315
20
-3.87146
11
3.05315
21
-3.85492
0
LINE
8
BLACK
6
CONTINUOUS
10
3.05315
20
-3.85492
11
3.01811
21
-3.85492
0
LINE
8
BLACK
6
CONTINUOUS
10
3.01811
20
-3.82933
11
3.01811
21
-3.84587
0
LINE
8
BLACK
6
CONTINUOUS
10
3.01811
20
-3.84587
11
3.05315
21
-3.84587
0
LINE
8
BLACK
6
CONTINUOUS
10
3.05315
20
-3.84587
11
3.05315
21
-3.82933
0
LINE
8
BLACK
6
CONTINUOUS
10
3.05315
20
-3.82933
11
3.01811
21
-3.82933
0
LINE
8
BLACK
6
CONTINUOUS
10
3.01811
20
-3.80374
11
3.01811
21
-3.82028
0
LINE
8
BLACK
6
CONTINUOUS
10
3.01811
20
-3.82028
11
3.05315
21
-3.82028
0
LINE
8
BLACK
6
CONTINUOUS
10
3.05315
20
-3.82028
11
3.05315
21
-3.80374
0
LINE
8
BLACK
6
CONTINUOUS
10
3.05315
20
-3.80374
11
3.01811
21
-3.80374
0
LINE
8
BLACK
6
CONTINUOUS
10
2.85236
20
-3.34705
11
2.85236
21
-3.36358
0
LINE
8
BLACK
6
CONTINUOUS
10
2.85236
20
-3.36358
11
2.8874
21
-3.36358
0
LINE
8
BLACK
6
CONTINUOUS
10
2.8874
20
-3.36358
11
2.8874
21
-3.34705
0
LINE
8
BLACK
6
CONTINUOUS
10
2.8874
20
-3.34705
11
2.85236
21
-3.34705
0
LINE
8
BLACK
6
CONTINUOUS
10
2.85236
20
-3.37264
11
2.85236
21
-3.38917
0
LINE
8
BLACK
6
CONTINUOUS
10
2.85236
20
-3.38917
11
2.8874
21
-3.38917
0
LINE
8
BLACK
6
CONTINUOUS
10
2.8874
20
-3.38917
11
2.8874
21
-3.37264
0
LINE
8
BLACK
6
CONTINUOUS
10
2.8874
20
-3.37264
11
2.85236
21
-3.37264
0
LINE
8
BLACK
6
CONTINUOUS
10
2.85236
20
-3.39823
11
2.85236
21
-3.41476
0
LINE
8
BLACK
6
CONTINUOUS
10
2.85236
20
-3.41476
11
2.8874
21
-3.41476
0
LINE
8
BLACK
6
CONTINUOUS
10
2.8874
20
-3.41476
11
2.8874
21
-3.39823
0
LINE
8
BLACK
6
CONTINUOUS
10
2.8874
20
-3.39823
11
2.85236
21
-3.39823
0
LINE
8
BLACK
6
CONTINUOUS
10
2.85236
20
-3.42382
11
2.85236
21
-3.44035
0
LINE
8
BLACK
6
CONTINUOUS
10
2.85236
20
-3.44035
11
2.8874
21
-3.44035
0
LINE
8
BLACK
6
CONTINUOUS
10
2.8874
20
-3.44035
11
2.8874
21
-3.42382
0
LINE
8
BLACK
6
CONTINUOUS
10
2.8874
20
-3.42382
11
2.85236
21
-3.42382
0
LINE
8
BLACK
6
CONTINUOUS
10
3.01811
20
-3.42382
11
3.01811
21
-3.44035
0
LINE
8
BLACK
6
CONTINUOUS
10
3.01811
20
-3.44035
11
3.05315
21
-3.44035
0
LINE
8
BLACK
6
CONTINUOUS
10
3.05315
20
-3.44035
11
3.05315
21
-3.42382
0
LINE
8
BLACK
6
CONTINUOUS
10
3.05315
20
-3.42382
11
3.01811
21
-3.42382
0
LINE
8
BLACK
6
CONTINUOUS
10
3.01811
20
-3.39823
11
3.01811
21
-3.41476
0
LINE
8
BLACK
6
CONTINUOUS
10
3.01811
20
-3.41476
11
3.05315
21
-3.41476
0
LINE
8
BLACK
6
CONTINUOUS
10
3.05315
20
-3.41476
11
3.05315
21
-3.39823
0
LINE
8
BLACK
6
CONTINUOUS
10
3.05315
20
-3.39823
11
3.01811
21
-3.39823
0
LINE
8
BLACK
6
CONTINUOUS
10
3.01811
20
-3.37264
11
3.01811
21
-3.38917
0
LINE
8
BLACK
6
CONTINUOUS
10
3.01811
20
-3.38917
11
3.05315
21
-3.38917
0
LINE
8
BLACK
6
CONTINUOUS
10
3.05315
20
-3.38917
11
3.05315
21
-3.37264
0
LINE
8
BLACK
6
CONTINUOUS
10
3.05315
20
-3.37264
11
3.01811
21
-3.37264
0
LINE
8
BLACK
6
CONTINUOUS
10
3.01811
20
-3.34705
11
3.01811
21
-3.36358
0
LINE
8
BLACK
6
CONTINUOUS
10
3.01811
20
-3.36358
11
3.05315
21
-3.36358
0
LINE
8
BLACK
6
CONTINUOUS
10
3.05315
20
-3.36358
11
3.05315
21
-3.34705
0
LINE
8
BLACK
6
CONTINUOUS
10
3.05315
20
-3.34705
11
3.01811
21
-3.34705
0
LINE
8
BLACK
6
CONTINUOUS
10
2.90945
20
-3.73327
11
2.90945
21
-3.7628
0
LINE
8
BLACK
6
CONTINUOUS
10
2.90945
20
-3.7628
11
2.94094
21
-3.7628
0
LINE
8
BLACK
6
CONTINUOUS
10
2.94094
20
-3.7628
11
2.94094
21
-3.73327
0
LINE
8
BLACK
6
CONTINUOUS
10
2.94094
20
-3.73327
11
2.90945
21
-3.73327
0
LINE
8
BLACK
6
CONTINUOUS
10
2.9685
20
-3.73327
11
2.9685
21
-3.7628
0
LINE
8
BLACK
6
CONTINUOUS
10
2.9685
20
-3.7628
11
3
21
-3.7628
0
LINE
8
BLACK
6
CONTINUOUS
10
3
20
-3.7628
11
3
21
-3.73327
0
LINE
8
BLACK
6
CONTINUOUS
10
3
20
-3.73327
11
2.9685
21
-3.73327
0
LINE
8
BLACK
6
CONTINUOUS
10
2.90748
20
-3.50492
11
2.90748
21
-3.53445
0
LINE
8
BLACK
6
CONTINUOUS
10
2.90748
20
-3.53445
11
2.93898
21
-3.53445
0
LINE
8
BLACK
6
CONTINUOUS
10
2.93898
20
-3.53445
11
2.93898
21
-3.50492
0
LINE
8
BLACK
6
CONTINUOUS
10
2.93898
20
-3.50492
11
2.90748
21
-3.50492
0
LINE
8
BLACK
6
CONTINUOUS
10
2.96654
20
-3.50492
11
2.96654
21
-3.53445
0
LINE
8
BLACK
6
CONTINUOUS
10
2.96654
20
-3.53445
11
2.99803
21
-3.53445
0
LINE
8
BLACK
6
CONTINUOUS
10
2.99803
20
-3.53445
11
2.99803
21
-3.50492
0
LINE
8
BLACK
6
CONTINUOUS
10
2.99803
20
-3.50492
11
2.96654
21
-3.50492
0
LINE
8
BLACK
6
CONTINUOUS
10
2.90748
20
-3.27657
11
2.90748
21
-3.3061
0
LINE
8
BLACK
6
CONTINUOUS
10
2.90748
20
-3.3061
11
2.93898
21
-3.3061
0
LINE
8
BLACK
6
CONTINUOUS
10
2.93898
20
-3.3061
11
2.93898
21
-3.27657
0
LINE
8
BLACK
6
CONTINUOUS
10
2.93898
20
-3.27657
11
2.90748
21
-3.27657
0
LINE
8
BLACK
6
CONTINUOUS
10
2.96654
20
-3.27657
11
2.96654
21
-3.3061
0
LINE
8
BLACK
6
CONTINUOUS
10
2.96654
20
-3.3061
11
2.99803
21
-3.3061
0
LINE
8
BLACK
6
CONTINUOUS
10
2.99803
20
-3.3061
11
2.99803
21
-3.27657
0
LINE
8
BLACK
6
CONTINUOUS
10
2.99803
20
-3.27657
11
2.96654
21
-3.27657
0
LINE
8
BLACK
6
CONTINUOUS
10
4.88386
20
-3.74705
11
4.88386
21
-3.71752
0
LINE
8
BLACK
6
CONTINUOUS
10
4.88386
20
-3.71752
11
4.85236
21
-3.71752
0
LINE
8
BLACK
6
CONTINUOUS
10
4.85236
20
-3.71752
11
4.85236
21
-3.74705
0
LINE
8
BLACK
6
CONTINUOUS
10
4.85236
20
-3.74705
11
4.88386
21
-3.74705
0
LINE
8
BLACK
6
CONTINUOUS
10
4.8248
20
-3.74705
11
4.8248
21
-3.71752
0
LINE
8
BLACK
6
CONTINUOUS
10
4.8248
20
-3.71752
11
4.79331
21
-3.71752
0
LINE
8
BLACK
6
CONTINUOUS
10
4.79331
20
-3.71752
11
4.79331
21
-3.74705
0
LINE
8
BLACK
6
CONTINUOUS
10
4.79331
20
-3.74705
11
4.8248
21
-3.74705
0
LINE
8
BLACK
6
CONTINUOUS
10
4.76969
20
-3.74705
11
4.76969
21
-3.71752
0
LINE
8
BLACK
6
CONTINUOUS
10
4.76969
20
-3.71752
11
4.73819
21
-3.71752
0
LINE
8
BLACK
6
CONTINUOUS
10
4.73819
20
-3.71752
11
4.73819
21
-3.74705
0
LINE
8
BLACK
6
CONTINUOUS
10
4.73819
20
-3.74705
11
4.76969
21
-3.74705
0
LINE
8
BLACK
6
CONTINUOUS
10
4.71063
20
-3.74705
11
4.71063
21
-3.71752
0
LINE
8
BLACK
6
CONTINUOUS
10
4.71063
20
-3.71752
11
4.67913
21
-3.71752
0
LINE
8
BLACK
6
CONTINUOUS
10
4.67913
20
-3.71752
11
4.67913
21
-3.74705
0
LINE
8
BLACK
6
CONTINUOUS
10
4.67913
20
-3.74705
11
4.71063
21
-3.74705
0
LINE
8
BLACK
6
CONTINUOUS
10
4.65945
20
-3.74705
11
4.65945
21
-3.71752
0
LINE
8
BLACK
6
CONTINUOUS
10
4.65945
20
-3.71752
11
4.62795
21
-3.71752
0
LINE
8
BLACK
6
CONTINUOUS
10
4.62795
20
-3.71752
11
4.62795
21
-3.74705
0
LINE
8
BLACK
6
CONTINUOUS
10
4.62795
20
-3.74705
11
4.65945
21
-3.74705
0
LINE
8
BLACK
6
CONTINUOUS
10
4.60039
20
-3.74705
11
4.60039
21
-3.71752
0
LINE
8
BLACK
6
CONTINUOUS
10
4.60039
20
-3.71752
11
4.5689
21
-3.71752
0
LINE
8
BLACK
6
CONTINUOUS
10
4.5689
20
-3.71752
11
4.5689
21
-3.74705
0
LINE
8
BLACK
6
CONTINUOUS
10
4.5689
20
-3.74705
11
4.60039
21
-3.74705
0
LINE
8
BLACK
6
CONTINUOUS
10
4.51673
20
-3.52953
11
4.54626
21
-3.52953
0
LINE
8
BLACK
6
CONTINUOUS
10
4.54626
20
-3.52953
11
4.54626
21
-3.49803
0
LINE
8
BLACK
6
CONTINUOUS
10
4.54626
20
-3.49803
11
4.51673
21
-3.49803
0
LINE
8
BLACK
6
CONTINUOUS
10
4.51673
20
-3.49803
11
4.51673
21
-3.52953
0
LINE
8
BLACK
6
CONTINUOUS
10
4.51673
20
-3.47047
11
4.54626
21
-3.47047
0
LINE
8
BLACK
6
CONTINUOUS
10
4.54626
20
-3.47047
11
4.54626
21
-3.43898
0
LINE
8
BLACK
6
CONTINUOUS
10
4.54626
20
-3.43898
11
4.51673
21
-3.43898
0
LINE
8
BLACK
6
CONTINUOUS
10
4.51673
20
-3.43898
11
4.51673
21
-3.47047
0
LINE
8
BLACK
6
CONTINUOUS
10
4.89469
20
-3.74606
11
4.92421
21
-3.74606
0
LINE
8
BLACK
6
CONTINUOUS
10
4.92421
20
-3.74606
11
4.92421
21
-3.71457
0
LINE
8
BLACK
6
CONTINUOUS
10
4.92421
20
-3.71457
11
4.89469
21
-3.71457
0
LINE
8
BLACK
6
CONTINUOUS
10
4.89469
20
-3.71457
11
4.89469
21
-3.74606
0
LINE
8
BLACK
6
CONTINUOUS
10
4.89469
20
-3.68701
11
4.92421
21
-3.68701
0
LINE
8
BLACK
6
CONTINUOUS
10
4.92421
20
-3.68701
11
4.92421
21
-3.65551
0
LINE
8
BLACK
6
CONTINUOUS
10
4.92421
20
-3.65551
11
4.89469
21
-3.65551
0
LINE
8
BLACK
6
CONTINUOUS
10
4.89469
20
-3.65551
11
4.89469
21
-3.68701
0
LINE
8
BLACK
6
CONTINUOUS
10
5.03937
20
-3.26575
11
5.00394
21
-3.26575
0
LINE
8
BLACK
6
CONTINUOUS
10
5.00394
20
-3.26575
11
5.00394
21
-3.28543
0
LINE
8
BLACK
6
CONTINUOUS
10
5.00394
20
-3.28543
11
5.03937
21
-3.28543
0
LINE
8
BLACK
6
CONTINUOUS
10
5.03937
20
-3.28543
11
5.03937
21
-3.26575
0
LINE
8
BLACK
6
CONTINUOUS
10
5.03937
20
-3.3248
11
5.00394
21
-3.3248
0
LINE
8
BLACK
6
CONTINUOUS
10
5.00394
20
-3.3248
11
5.00394
21
-3.34449
0
LINE
8
BLACK
6
CONTINUOUS
10
5.00394
20
-3.34449
11
5.03937
21
-3.34449
0
LINE
8
BLACK
6
CONTINUOUS
10
5.03937
20
-3.34449
11
5.03937
21
-3.3248
0
LINE
8
BLACK
6
CONTINUOUS
10
5.10039
20
-3.26575
11
5.06496
21
-3.26575
0
LINE
8
BLACK
6
CONTINUOUS
10
5.06496
20
-3.26575
11
5.06496
21
-3.28543
0
LINE
8
BLACK
6
CONTINUOUS
10
5.06496
20
-3.28543
11
5.10039
21
-3.28543
0
LINE
8
BLACK
6
CONTINUOUS
10
5.10039
20
-3.28543
11
5.10039
21
-3.26575
0
LINE
8
BLACK
6
CONTINUOUS
10
5.10039
20
-3.3248
11
5.06496
21
-3.3248
0
LINE
8
BLACK
6
CONTINUOUS
10
5.06496
20
-3.3248
11
5.06496
21
-3.34449
0
LINE
8
BLACK
6
CONTINUOUS
10
5.06496
20
-3.34449
11
5.10039
21
-3.34449
0
LINE
8
BLACK
6
CONTINUOUS
10
5.10039
20
-3.34449
11
5.10039
21
-3.3248
0
LINE
8
BLACK
6
CONTINUOUS
10
3.07283
20
-3.57283
11
3.10827
21
-3.57283
0
LINE
8
BLACK
6
CONTINUOUS
10
3.10827
20
-3.57283
11
3.10827
21
-3.55315
0
LINE
8
BLACK
6
CONTINUOUS
10
3.10827
20
-3.55315
11
3.07283
21
-3.55315
0
LINE
8
BLACK
6
CONTINUOUS
10
3.07283
20
-3.55315
11
3.07283
21
-3.57283
0
LINE
8
BLACK
6
CONTINUOUS
10
3.07283
20
-3.51378
11
3.10827
21
-3.51378
0
LINE
8
BLACK
6
CONTINUOUS
10
3.10827
20
-3.51378
11
3.10827
21
-3.49409
0
LINE
8
BLACK
6
CONTINUOUS
10
3.10827
20
-3.49409
11
3.07283
21
-3.49409
0
LINE
8
BLACK
6
CONTINUOUS
10
3.07283
20
-3.49409
11
3.07283
21
-3.51378
0
LINE
8
BLACK
6
CONTINUOUS
10
3.07283
20
-3.67126
11
3.10827
21
-3.67126
0
LINE
8
BLACK
6
CONTINUOUS
10
3.10827
20
-3.67126
11
3.10827
21
-3.65157
0
LINE
8
BLACK
6
CONTINUOUS
10
3.10827
20
-3.65157
11
3.07283
21
-3.65157
0
LINE
8
BLACK
6
CONTINUOUS
10
3.07283
20
-3.65157
11
3.07283
21
-3.67126
0
LINE
8
BLACK
6
CONTINUOUS
10
3.07283
20
-3.6122
11
3.10827
21
-3.6122
0
LINE
8
BLACK
6
CONTINUOUS
10
3.10827
20
-3.6122
11
3.10827
21
-3.59252
0
LINE
8
BLACK
6
CONTINUOUS
10
3.10827
20
-3.59252
11
3.07283
21
-3.59252
0
LINE
8
BLACK
6
CONTINUOUS
10
3.07283
20
-3.59252
11
3.07283
21
-3.6122
0
LINE
8
BLACK
6
CONTINUOUS
10
3.07283
20
-3.80315
11
3.10827
21
-3.80315
0
LINE
8
BLACK
6
CONTINUOUS
10
3.10827
20
-3.80315
11
3.10827
21
-3.78346
0
LINE
8
BLACK
6
CONTINUOUS
10
3.10827
20
-3.78346
11
3.07283
21
-3.78346
0
LINE
8
BLACK
6
CONTINUOUS
10
3.07283
20
-3.78346
11
3.07283
21
-3.80315
0
LINE
8
BLACK
6
CONTINUOUS
10
3.07283
20
-3.74409
11
3.10827
21
-3.74409
0
LINE
8
BLACK
6
CONTINUOUS
10
3.10827
20
-3.74409
11
3.10827
21
-3.72441
0
LINE
8
BLACK
6
CONTINUOUS
10
3.10827
20
-3.72441
11
3.07283
21
-3.72441
0
LINE
8
BLACK
6
CONTINUOUS
10
3.07283
20
-3.72441
11
3.07283
21
-3.74409
0
LINE
8
BLACK
6
CONTINUOUS
10
3.07283
20
-3.91142
11
3.10827
21
-3.91142
0
LINE
8
BLACK
6
CONTINUOUS
10
3.10827
20
-3.91142
11
3.10827
21
-3.89173
0
LINE
8
BLACK
6
CONTINUOUS
10
3.10827
20
-3.89173
11
3.07283
21
-3.89173
0
LINE
8
BLACK
6
CONTINUOUS
10
3.07283
20
-3.89173
11
3.07283
21
-3.91142
0
LINE
8
BLACK
6
CONTINUOUS
10
3.07283
20
-3.85236
11
3.10827
21
-3.85236
0
LINE
8
BLACK
6
CONTINUOUS
10
3.10827
20
-3.85236
11
3.10827
21
-3.83268
0
LINE
8
BLACK
6
CONTINUOUS
10
3.10827
20
-3.83268
11
3.07283
21
-3.83268
0
LINE
8
BLACK
6
CONTINUOUS
10
3.07283
20
-3.83268
11
3.07283
21
-3.85236
0
LINE
8
BLACK
6
CONTINUOUS
10
3.07283
20
-3.35236
11
3.10827
21
-3.35236
0
LINE
8
BLACK
6
CONTINUOUS
10
3.10827
20
-3.35236
11
3.10827
21
-3.33268
0
LINE
8
BLACK
6
CONTINUOUS
10
3.10827
20
-3.33268
11
3.07283
21
-3.33268
0
LINE
8
BLACK
6
CONTINUOUS
10
3.07283
20
-3.33268
11
3.07283
21
-3.35236
0
LINE
8
BLACK
6
CONTINUOUS
10
3.07283
20
-3.29331
11
3.10827
21
-3.29331
0
LINE
8
BLACK
6
CONTINUOUS
10
3.10827
20
-3.29331
11
3.10827
21
-3.27362
0
LINE
8
BLACK
6
CONTINUOUS
10
3.10827
20
-3.27362
11
3.07283
21
-3.27362
0
LINE
8
BLACK
6
CONTINUOUS
10
3.07283
20
-3.27362
11
3.07283
21
-3.29331
0
LINE
8
BLACK
6
CONTINUOUS
10
3.07283
20
-3.44094
11
3.10827
21
-3.44094
0
LINE
8
BLACK
6
CONTINUOUS
10
3.10827
20
-3.44094
11
3.10827
21
-3.42126
0
LINE
8
BLACK
6
CONTINUOUS
10
3.10827
20
-3.42126
11
3.07283
21
-3.42126
0
LINE
8
BLACK
6
CONTINUOUS
10
3.07283
20
-3.42126
11
3.07283
21
-3.44094
0
LINE
8
BLACK
6
CONTINUOUS
10
3.07283
20
-3.38189
11
3.10827
21
-3.38189
0
LINE
8
BLACK
6
CONTINUOUS
10
3.10827
20
-3.38189
11
3.10827
21
-3.3622
0
LINE
8
BLACK
6
CONTINUOUS
10
3.10827
20
-3.3622
11
3.07283
21
-3.3622
0
LINE
8
BLACK
6
CONTINUOUS
10
3.07283
20
-3.3622
11
3.07283
21
-3.38189
0
LINE
8
BLACK
6
CONTINUOUS
10
4.87795
20
-3.69882
11
4.87795
21
-3.66339
0
LINE
8
BLACK
6
CONTINUOUS
10
4.87795
20
-3.66339
11
4.85827
21
-3.66339
0
LINE
8
BLACK
6
CONTINUOUS
10
4.85827
20
-3.66339
11
4.85827
21
-3.69882
0
LINE
8
BLACK
6
CONTINUOUS
10
4.85827
20
-3.69882
11
4.87795
21
-3.69882
0
LINE
8
BLACK
6
CONTINUOUS
10
4.8189
20
-3.69882
11
4.8189
21
-3.66339
0
LINE
8
BLACK
6
CONTINUOUS
10
4.8189
20
-3.66339
11
4.79921
21
-3.66339
0
LINE
8
BLACK
6
CONTINUOUS
10
4.79921
20
-3.66339
11
4.79921
21
-3.69882
0
LINE
8
BLACK
6
CONTINUOUS
10
4.79921
20
-3.69882
11
4.8189
21
-3.69882
0
LINE
8
BLACK
6
CONTINUOUS
10
4.76378
20
-3.69882
11
4.76378
21
-3.66339
0
LINE
8
BLACK
6
CONTINUOUS
10
4.76378
20
-3.66339
11
4.74409
21
-3.66339
0
LINE
8
BLACK
6
CONTINUOUS
10
4.74409
20
-3.66339
11
4.74409
21
-3.69882
0
LINE
8
BLACK
6
CONTINUOUS
10
4.74409
20
-3.69882
11
4.76378
21
-3.69882
0
LINE
8
BLACK
6
CONTINUOUS
10
4.70472
20
-3.69882
11
4.70472
21
-3.66339
0
LINE
8
BLACK
6
CONTINUOUS
10
4.70472
20
-3.66339
11
4.68504
21
-3.66339
0
LINE
8
BLACK
6
CONTINUOUS
10
4.68504
20
-3.66339
11
4.68504
21
-3.69882
0
LINE
8
BLACK
6
CONTINUOUS
10
4.68504
20
-3.69882
11
4.70472
21
-3.69882
0
LINE
8
BLACK
6
CONTINUOUS
10
4.65354
20
-3.69882
11
4.65354
21
-3.66339
0
LINE
8
BLACK
6
CONTINUOUS
10
4.65354
20
-3.66339
11
4.63386
21
-3.66339
0
LINE
8
BLACK
6
CONTINUOUS
10
4.63386
20
-3.66339
11
4.63386
21
-3.69882
0
LINE
8
BLACK
6
CONTINUOUS
10
4.63386
20
-3.69882
11
4.65354
21
-3.69882
0
LINE
8
BLACK
6
CONTINUOUS
10
4.59449
20
-3.69882
11
4.59449
21
-3.66339
0
LINE
8
BLACK
6
CONTINUOUS
10
4.59449
20
-3.66339
11
4.5748
21
-3.66339
0
LINE
8
BLACK
6
CONTINUOUS
10
4.5748
20
-3.66339
11
4.5748
21
-3.69882
0
LINE
8
BLACK
6
CONTINUOUS
10
4.5748
20
-3.69882
11
4.59449
21
-3.69882
0
LINE
8
BLACK
6
CONTINUOUS
10
4.73031
20
-3.44685
11
4.76575
21
-3.44685
0
LINE
8
BLACK
6
CONTINUOUS
10
4.76575
20
-3.44685
11
4.76575
21
-3.42717
0
LINE
8
BLACK
6
CONTINUOUS
10
4.76575
20
-3.42717
11
4.73031
21
-3.42717
0
LINE
8
BLACK
6
CONTINUOUS
10
4.73031
20
-3.42717
11
4.73031
21
-3.44685
0
LINE
8
BLACK
6
CONTINUOUS
10
4.73031
20
-3.3878
11
4.76575
21
-3.3878
0
LINE
8
BLACK
6
CONTINUOUS
10
4.76575
20
-3.3878
11
4.76575
21
-3.36811
0
LINE
8
BLACK
6
CONTINUOUS
10
4.76575
20
-3.36811
11
4.73031
21
-3.36811
0
LINE
8
BLACK
6
CONTINUOUS
10
4.73031
20
-3.36811
11
4.73031
21
-3.3878
0
LINE
8
BLACK
6
CONTINUOUS
10
4.51969
20
-3.39567
11
4.58661
21
-3.39567
0
LINE
8
BLACK
6
CONTINUOUS
10
4.58661
20
-3.39567
11
4.58661
21
-3.36024
0
LINE
8
BLACK
6
CONTINUOUS
10
4.58661
20
-3.36024
11
4.51969
21
-3.36024
0
LINE
8
BLACK
6
CONTINUOUS
10
4.51969
20
-3.36024
11
4.51969
21
-3.39567
0
LINE
8
BLACK
6
CONTINUOUS
10
4.51969
20
-3.2815
11
4.58661
21
-3.2815
0
LINE
8
BLACK
6
CONTINUOUS
10
4.58661
20
-3.2815
11
4.58661
21
-3.24606
0
LINE
8
BLACK
6
CONTINUOUS
10
4.58661
20
-3.24606
11
4.51969
21
-3.24606
0
LINE
8
BLACK
6
CONTINUOUS
10
4.51969
20
-3.24606
11
4.51969
21
-3.2815
0
LINE
8
BLACK
6
CONTINUOUS
10
4.91339
20
-3.3622
11
4.84646
21
-3.3622
0
LINE
8
BLACK
6
CONTINUOUS
10
4.84646
20
-3.3622
11
4.84646
21
-3.39764
0
LINE
8
BLACK
6
CONTINUOUS
10
4.84646
20
-3.39764
11
4.91339
21
-3.39764
0
LINE
8
BLACK
6
CONTINUOUS
10
4.91339
20
-3.39764
11
4.91339
21
-3.3622
0
LINE
8
BLACK
6
CONTINUOUS
10
4.91339
20
-3.47638
11
4.84646
21
-3.47638
0
LINE
8
BLACK
6
CONTINUOUS
10
4.84646
20
-3.47638
11
4.84646
21
-3.51181
0
LINE
8
BLACK
6
CONTINUOUS
10
4.84646
20
-3.51181
11
4.91339
21
-3.51181
0
LINE
8
BLACK
6
CONTINUOUS
10
4.91339
20
-3.51181
11
4.91339
21
-3.47638
0
LINE
8
BLACK
6
CONTINUOUS
10
4.7815
20
-3.51772
11
4.82874
21
-3.51772
0
LINE
8
BLACK
6
CONTINUOUS
10
4.82874
20
-3.51772
11
4.82874
21
-3.48228
0
LINE
8
BLACK
6
CONTINUOUS
10
4.82874
20
-3.48228
11
4.7815
21
-3.48228
0
LINE
8
BLACK
6
CONTINUOUS
10
4.7815
20
-3.48228
11
4.7815
21
-3.51772
0
LINE
8
BLACK
6
CONTINUOUS
10
4.7815
20
-3.3878
11
4.82874
21
-3.3878
0
LINE
8
BLACK
6
CONTINUOUS
10
4.82874
20
-3.3878
11
4.82874
21
-3.35236
0
LINE
8
BLACK
6
CONTINUOUS
10
4.82874
20
-3.35236
11
4.7815
21
-3.35236
0
LINE
8
BLACK
6
CONTINUOUS
10
4.7815
20
-3.35236
11
4.7815
21
-3.3878
0
LINE
8
BLACK
6
CONTINUOUS
10
4.91535
20
-3.33504
11
4.91535
21
-3.29961
0
LINE
8
BLACK
6
CONTINUOUS
10
4.91535
20
-3.29961
11
4.89567
21
-3.29961
0
LINE
8
BLACK
6
CONTINUOUS
10
4.89567
20
-3.29961
11
4.89567
21
-3.33504
0
LINE
8
BLACK
6
CONTINUOUS
10
4.89567
20
-3.33504
11
4.91535
21
-3.33504
0
LINE
8
BLACK
6
CONTINUOUS
10
4.8563
20
-3.33504
11
4.8563
21
-3.29961
0
LINE
8
BLACK
6
CONTINUOUS
10
4.8563
20
-3.29961
11
4.83661
21
-3.29961
0
LINE
8
BLACK
6
CONTINUOUS
10
4.83661
20
-3.29961
11
4.83661
21
-3.33504
0
LINE
8
BLACK
6
CONTINUOUS
10
4.83661
20
-3.33504
11
4.8563
21
-3.33504
0
LINE
8
BLACK
6
CONTINUOUS
10
4.74016
20
-3.30039
11
4.74016
21
-3.33583
0
LINE
8
BLACK
6
CONTINUOUS
10
4.74016
20
-3.33583
11
4.75984
21
-3.33583
0
LINE
8
BLACK
6
CONTINUOUS
10
4.75984
20
-3.33583
11
4.75984
21
-3.30039
0
LINE
8
BLACK
6
CONTINUOUS
10
4.75984
20
-3.30039
11
4.74016
21
-3.30039
0
LINE
8
BLACK
6
CONTINUOUS
10
4.79921
20
-3.30039
11
4.79921
21
-3.33583
0
LINE
8
BLACK
6
CONTINUOUS
10
4.79921
20
-3.33583
11
4.8189
21
-3.33583
0
LINE
8
BLACK
6
CONTINUOUS
10
4.8189
20
-3.33583
11
4.8189
21
-3.30039
0
LINE
8
BLACK
6
CONTINUOUS
10
4.8189
20
-3.30039
11
4.79921
21
-3.30039
0
LINE
8
BLACK
6
CONTINUOUS
10
4.72165
20
-3.39862
11
4.72165
21
-3.37303
0
LINE
8
BLACK
6
CONTINUOUS
10
4.72165
20
-3.37303
11
4.67992
21
-3.37303
0
LINE
8
BLACK
6
CONTINUOUS
10
4.67992
20
-3.37303
11
4.67992
21
-3.39862
0
LINE
8
BLACK
6
CONTINUOUS
10
4.67992
20
-3.39862
11
4.72165
21
-3.39862
0
LINE
8
BLACK
6
CONTINUOUS
10
4.72165
20
-3.36122
11
4.72165
21
-3.33563
0
LINE
8
BLACK
6
CONTINUOUS
10
4.72165
20
-3.33563
11
4.67992
21
-3.33563
0
LINE
8
BLACK
6
CONTINUOUS
10
4.67992
20
-3.33563
11
4.67992
21
-3.36122
0
LINE
8
BLACK
6
CONTINUOUS
10
4.67992
20
-3.36122
11
4.72165
21
-3.36122
0
LINE
8
BLACK
6
CONTINUOUS
10
4.72165
20
-3.32382
11
4.72165
21
-3.29823
0
LINE
8
BLACK
6
CONTINUOUS
10
4.72165
20
-3.29823
11
4.67992
21
-3.29823
0
LINE
8
BLACK
6
CONTINUOUS
10
4.67992
20
-3.29823
11
4.67992
21
-3.32382
0
LINE
8
BLACK
6
CONTINUOUS
10
4.67992
20
-3.32382
11
4.72165
21
-3.32382
0
LINE
8
BLACK
6
CONTINUOUS
10
4.63504
20
-3.32382
11
4.63504
21
-3.29823
0
LINE
8
BLACK
6
CONTINUOUS
10
4.63504
20
-3.29823
11
4.59331
21
-3.29823
0
LINE
8
BLACK
6
CONTINUOUS
10
4.59331
20
-3.29823
11
4.59331
21
-3.32382
0
LINE
8
BLACK
6
CONTINUOUS
10
4.59331
20
-3.32382
11
4.63504
21
-3.32382
0
LINE
8
BLACK
6
CONTINUOUS
10
4.63504
20
-3.36122
11
4.63504
21
-3.33563
0
LINE
8
BLACK
6
CONTINUOUS
10
4.63504
20
-3.33563
11
4.59331
21
-3.33563
0
LINE
8
BLACK
6
CONTINUOUS
10
4.59331
20
-3.33563
11
4.59331
21
-3.36122
0
LINE
8
BLACK
6
CONTINUOUS
10
4.59331
20
-3.36122
11
4.63504
21
-3.36122
0
LINE
8
BLACK
6
CONTINUOUS
10
4.63504
20
-3.39862
11
4.63504
21
-3.37303
0
LINE
8
BLACK
6
CONTINUOUS
10
4.63504
20
-3.37303
11
4.59331
21
-3.37303
0
LINE
8
BLACK
6
CONTINUOUS
10
4.59331
20
-3.37303
11
4.59331
21
-3.39862
0
LINE
8
BLACK
6
CONTINUOUS
10
4.59331
20
-3.39862
11
4.63504
21
-3.39862
0
LINE
8
BLACK
6
CONTINUOUS
10
4.39764
20
-3.45866
11
4.44488
21
-3.45866
0
LINE
8
BLACK
6
CONTINUOUS
10
4.44488
20
-3.45866
11
4.44488
21
-3.41142
0
LINE
8
BLACK
6
CONTINUOUS
10
4.44488
20
-3.41142
11
4.39764
21
-3.41142
0
LINE
8
BLACK
6
CONTINUOUS
10
4.39764
20
-3.41142
11
4.39764
21
-3.45866
0
LINE
8
BLACK
6
CONTINUOUS
10
4.39764
20
-3.51772
11
4.44488
21
-3.51772
0
LINE
8
BLACK
6
CONTINUOUS
10
4.44488
20
-3.51772
11
4.44488
21
-3.47047
0
LINE
8
BLACK
6
CONTINUOUS
10
4.44488
20
-3.47047
11
4.39764
21
-3.47047
0
LINE
8
BLACK
6
CONTINUOUS
10
4.39764
20
-3.47047
11
4.39764
21
-3.51772
0
LINE
8
BLACK
6
CONTINUOUS
10
4.39764
20
-3.57677
11
4.44488
21
-3.57677
0
LINE
8
BLACK
6
CONTINUOUS
10
4.44488
20
-3.57677
11
4.44488
21
-3.52953
0
LINE
8
BLACK
6
CONTINUOUS
10
4.44488
20
-3.52953
11
4.39764
21
-3.52953
0
LINE
8
BLACK
6
CONTINUOUS
10
4.39764
20
-3.52953
11
4.39764
21
-3.57677
0
LINE
8
BLACK
6
CONTINUOUS
10
4.39764
20
-3.63583
11
4.44488
21
-3.63583
0
LINE
8
BLACK
6
CONTINUOUS
10
4.44488
20
-3.63583
11
4.44488
21
-3.58858
0
LINE
8
BLACK
6
CONTINUOUS
10
4.44488
20
-3.58858
11
4.39764
21
-3.58858
0
LINE
8
BLACK
6
CONTINUOUS
10
4.39764
20
-3.58858
11
4.39764
21
-3.63583
0
LINE
8
BLACK
6
CONTINUOUS
10
4.39764
20
-3.69488
11
4.44488
21
-3.69488
0
LINE
8
BLACK
6
CONTINUOUS
10
4.44488
20
-3.69488
11
4.44488
21
-3.64764
0
LINE
8
BLACK
6
CONTINUOUS
10
4.44488
20
-3.64764
11
4.39764
21
-3.64764
0
LINE
8
BLACK
6
CONTINUOUS
10
4.39764
20
-3.64764
11
4.39764
21
-3.69488
0
LINE
8
BLACK
6
CONTINUOUS
10
4.39764
20
-3.75394
11
4.44488
21
-3.75394
0
LINE
8
BLACK
6
CONTINUOUS
10
4.44488
20
-3.75394
11
4.44488
21
-3.70669
0
LINE
8
BLACK
6
CONTINUOUS
10
4.44488
20
-3.70669
11
4.39764
21
-3.70669
0
LINE
8
BLACK
6
CONTINUOUS
10
4.39764
20
-3.70669
11
4.39764
21
-3.75394
0
LINE
8
BLACK
6
CONTINUOUS
10
5.04626
20
-3.70669
11
4.99902
21
-3.70669
0
LINE
8
BLACK
6
CONTINUOUS
10
4.99902
20
-3.70669
11
4.99902
21
-3.75394
0
LINE
8
BLACK
6
CONTINUOUS
10
4.99902
20
-3.75394
11
5.04626
21
-3.75394
0
LINE
8
BLACK
6
CONTINUOUS
10
5.04626
20
-3.75394
11
5.04626
21
-3.70669
0
LINE
8
BLACK
6
CONTINUOUS
10
5.04626
20
-3.64764
11
4.99902
21
-3.64764
0
LINE
8
BLACK
6
CONTINUOUS
10
4.99902
20
-3.64764
11
4.99902
21
-3.69488
0
LINE
8
BLACK
6
CONTINUOUS
10
4.99902
20
-3.69488
11
5.04626
21
-3.69488
0
LINE
8
BLACK
6
CONTINUOUS
10
5.04626
20
-3.69488
11
5.04626
21
-3.64764
0
LINE
8
BLACK
6
CONTINUOUS
10
5.04626
20
-3.58858
11
4.99902
21
-3.58858
0
LINE
8
BLACK
6
CONTINUOUS
10
4.99902
20
-3.58858
11
4.99902
21
-3.63583
0
LINE
8
BLACK
6
CONTINUOUS
10
4.99902
20
-3.63583
11
5.04626
21
-3.63583
0
LINE
8
BLACK
6
CONTINUOUS
10
5.04626
20
-3.63583
11
5.04626
21
-3.58858
0
LINE
8
BLACK
6
CONTINUOUS
10
5.04626
20
-3.52953
11
4.99902
21
-3.52953
0
LINE
8
BLACK
6
CONTINUOUS
10
4.99902
20
-3.52953
11
4.99902
21
-3.57677
0
LINE
8
BLACK
6
CONTINUOUS
10
4.99902
20
-3.57677
11
5.04626
21
-3.57677
0
LINE
8
BLACK
6
CONTINUOUS
10
5.04626
20
-3.57677
11
5.04626
21
-3.52953
0
LINE
8
BLACK
6
CONTINUOUS
10
5.04626
20
-3.47047
11
4.99902
21
-3.47047
0
LINE
8
BLACK
6
CONTINUOUS
10
4.99902
20
-3.47047
11
4.99902
21
-3.51772
0
LINE
8
BLACK
6
CONTINUOUS
10
4.99902
20
-3.51772
11
5.04626
21
-3.51772
0
LINE
8
BLACK
6
CONTINUOUS
10
5.04626
20
-3.51772
11
5.04626
21
-3.47047
0
LINE
8
BLACK
6
CONTINUOUS
10
5.04626
20
-3.41142
11
4.99902
21
-3.41142
0
LINE
8
BLACK
6
CONTINUOUS
10
4.99902
20
-3.41142
11
4.99902
21
-3.45866
0
LINE
8
BLACK
6
CONTINUOUS
10
4.99902
20
-3.45866
11
5.04626
21
-3.45866
0
LINE
8
BLACK
6
CONTINUOUS
10
5.04626
20
-3.45866
11
5.04626
21
-3.41142
0
LINE
8
BLACK
6
CONTINUOUS
10
4.60236
20
-3.62402
11
4.60236
21
-3.58858
0
LINE
8
BLACK
6
CONTINUOUS
10
4.60236
20
-3.58858
11
4.58268
21
-3.58858
0
LINE
8
BLACK
6
CONTINUOUS
10
4.58268
20
-3.58858
11
4.58268
21
-3.62402
0
LINE
8
BLACK
6
CONTINUOUS
10
4.58268
20
-3.62402
11
4.60236
21
-3.62402
0
LINE
8
BLACK
6
CONTINUOUS
10
4.54331
20
-3.62402
11
4.54331
21
-3.58858
0
LINE
8
BLACK
6
CONTINUOUS
10
4.54331
20
-3.58858
11
4.52362
21
-3.58858
0
LINE
8
BLACK
6
CONTINUOUS
10
4.52362
20
-3.58858
11
4.52362
21
-3.62402
0
LINE
8
BLACK
6
CONTINUOUS
10
4.52362
20
-3.62402
11
4.54331
21
-3.62402
0
LINE
8
BLACK
6
CONTINUOUS
10
4.60236
20
-3.57677
11
4.60236
21
-3.54134
0
LINE
8
BLACK
6
CONTINUOUS
10
4.60236
20
-3.54134
11
4.58268
21
-3.54134
0
LINE
8
BLACK
6
CONTINUOUS
10
4.58268
20
-3.54134
11
4.58268
21
-3.57677
0
LINE
8
BLACK
6
CONTINUOUS
10
4.58268
20
-3.57677
11
4.60236
21
-3.57677
0
LINE
8
BLACK
6
CONTINUOUS
10
4.54331
20
-3.57677
11
4.54331
21
-3.54134
0
LINE
8
BLACK
6
CONTINUOUS
10
4.54331
20
-3.54134
11
4.52362
21
-3.54134
0
LINE
8
BLACK
6
CONTINUOUS
10
4.52362
20
-3.54134
11
4.52362
21
-3.57677
0
LINE
8
BLACK
6
CONTINUOUS
10
4.52362
20
-3.57677
11
4.54331
21
-3.57677
0
LINE
8
BLACK
6
CONTINUOUS
10
4.79921
20
-3.6122
11
4.79921
21
-3.64764
0
LINE
8
BLACK
6
CONTINUOUS
10
4.79921
20
-3.64764
11
4.8189
21
-3.64764
0
LINE
8
BLACK
6
CONTINUOUS
10
4.8189
20
-3.64764
11
4.8189
21
-3.6122
0
LINE
8
BLACK
6
CONTINUOUS
10
4.8189
20
-3.6122
11
4.79921
21
-3.6122
0
LINE
8
BLACK
6
CONTINUOUS
10
4.85827
20
-3.6122
11
4.85827
21
-3.64764
0
LINE
8
BLACK
6
CONTINUOUS
10
4.85827
20
-3.64764
11
4.87795
21
-3.64764
0
LINE
8
BLACK
6
CONTINUOUS
10
4.87795
20
-3.64764
11
4.87795
21
-3.6122
0
LINE
8
BLACK
6
CONTINUOUS
10
4.87795
20
-3.6122
11
4.85827
21
-3.6122
0
LINE
8
BLACK
6
CONTINUOUS
10
4.76378
20
-3.64764
11
4.76378
21
-3.6122
0
LINE
8
BLACK
6
CONTINUOUS
10
4.76378
20
-3.6122
11
4.74409
21
-3.6122
0
LINE
8
BLACK
6
CONTINUOUS
10
4.74409
20
-3.6122
11
4.74409
21
-3.64764
0
LINE
8
BLACK
6
CONTINUOUS
10
4.74409
20
-3.64764
11
4.76378
21
-3.64764
0
LINE
8
BLACK
6
CONTINUOUS
10
4.70472
20
-3.64764
11
4.70472
21
-3.6122
0
LINE
8
BLACK
6
CONTINUOUS
10
4.70472
20
-3.6122
11
4.68504
21
-3.6122
0
LINE
8
BLACK
6
CONTINUOUS
10
4.68504
20
-3.6122
11
4.68504
21
-3.64764
0
LINE
8
BLACK
6
CONTINUOUS
10
4.68504
20
-3.64764
11
4.70472
21
-3.64764
0
LINE
8
BLACK
6
CONTINUOUS
10
4.9439
20
-3.79989
11
4.91437
21
-3.79989
0
LINE
8
BLACK
6
CONTINUOUS
10
4.91437
20
-3.79989
11
4.91437
21
-3.83138
0
LINE
8
BLACK
6
CONTINUOUS
10
4.91437
20
-3.83138
11
4.9439
21
-3.83138
0
LINE
8
BLACK
6
CONTINUOUS
10
4.9439
20
-3.83138
11
4.9439
21
-3.79989
0
LINE
8
BLACK
6
CONTINUOUS
10
4.9439
20
-3.85894
11
4.91437
21
-3.85894
0
LINE
8
BLACK
6
CONTINUOUS
10
4.91437
20
-3.85894
11
4.91437
21
-3.89044
0
LINE
8
BLACK
6
CONTINUOUS
10
4.91437
20
-3.89044
11
4.9439
21
-3.89044
0
LINE
8
BLACK
6
CONTINUOUS
10
4.9439
20
-3.89044
11
4.9439
21
-3.85894
0
LINE
8
BLACK
6
CONTINUOUS
10
4.60728
20
-3.89044
11
4.63681
21
-3.89044
0
LINE
8
BLACK
6
CONTINUOUS
10
4.63681
20
-3.89044
11
4.63681
21
-3.85894
0
LINE
8
BLACK
6
CONTINUOUS
10
4.63681
20
-3.85894
11
4.60728
21
-3.85894
0
LINE
8
BLACK
6
CONTINUOUS
10
4.60728
20
-3.85894
11
4.60728
21
-3.89044
0
LINE
8
BLACK
6
CONTINUOUS
10
4.60728
20
-3.83138
11
4.63681
21
-3.83138
0
LINE
8
BLACK
6
CONTINUOUS
10
4.63681
20
-3.83138
11
4.63681
21
-3.79989
0
LINE
8
BLACK
6
CONTINUOUS
10
4.63681
20
-3.79989
11
4.60728
21
-3.79989
0
LINE
8
BLACK
6
CONTINUOUS
10
4.60728
20
-3.79989
11
4.60728
21
-3.83138
0
LINE
8
BLACK
6
CONTINUOUS
10
4.89066
20
-3.82156
11
4.89066
21
-3.77436
0
LINE
8
BLACK
6
CONTINUOUS
10
4.89066
20
-3.77436
11
4.81976
21
-3.77436
0
LINE
8
BLACK
6
CONTINUOUS
10
4.81976
20
-3.77436
11
4.81976
21
-3.82156
0
LINE
8
BLACK
6
CONTINUOUS
10
4.81976
20
-3.82156
11
4.89066
21
-3.82156
0
LINE
8
BLACK
6
CONTINUOUS
10
4.73326
20
-3.91596
11
4.73326
21
-3.86876
0
LINE
8
BLACK
6
CONTINUOUS
10
4.73326
20
-3.86876
11
4.66236
21
-3.86876
0
LINE
8
BLACK
6
CONTINUOUS
10
4.66236
20
-3.86876
11
4.66236
21
-3.91596
0
LINE
8
BLACK
6
CONTINUOUS
10
4.66236
20
-3.91596
11
4.73326
21
-3.91596
0
LINE
8
BLACK
6
CONTINUOUS
10
4.89066
20
-3.91596
11
4.89066
21
-3.86876
0
LINE
8
BLACK
6
CONTINUOUS
10
4.89066
20
-3.86876
11
4.81976
21
-3.86876
0
LINE
8
BLACK
6
CONTINUOUS
10
4.81976
20
-3.86876
11
4.81976
21
-3.91596
0
LINE
8
BLACK
6
CONTINUOUS
10
4.81976
20
-3.91596
11
4.89066
21
-3.91596
0
LINE
8
BLACK
6
CONTINUOUS
10
4.73326
20
-3.82156
11
4.73326
21
-3.77436
0
LINE
8
BLACK
6
CONTINUOUS
10
4.73326
20
-3.77436
11
4.66236
21
-3.77436
0
LINE
8
BLACK
6
CONTINUOUS
10
4.66236
20
-3.77436
11
4.66236
21
-3.82156
0
LINE
8
BLACK
6
CONTINUOUS
10
4.66236
20
-3.82156
11
4.73326
21
-3.82156
0
LINE
8
BLACK
6
CONTINUOUS
10
4.35827
20
-3.76969
11
4.35827
21
-3.70276
0
LINE
8
BLACK
6
CONTINUOUS
10
4.35827
20
-3.70276
11
4.32283
21
-3.70276
0
LINE
8
BLACK
6
CONTINUOUS
10
4.32283
20
-3.70276
11
4.32283
21
-3.76969
0
LINE
8
BLACK
6
CONTINUOUS
10
4.32283
20
-3.76969
11
4.35827
21
-3.76969
0
LINE
8
BLACK
6
CONTINUOUS
10
4.24409
20
-3.76969
11
4.24409
21
-3.70276
0
LINE
8
BLACK
6
CONTINUOUS
10
4.24409
20
-3.70276
11
4.20866
21
-3.70276
0
LINE
8
BLACK
6
CONTINUOUS
10
4.20866
20
-3.70276
11
4.20866
21
-3.76969
0
LINE
8
BLACK
6
CONTINUOUS
10
4.20866
20
-3.76969
11
4.24409
21
-3.76969
0
LINE
8
BLACK
6
CONTINUOUS
10
3.73031
20
-3.70276
11
3.73031
21
-3.76969
0
LINE
8
BLACK
6
CONTINUOUS
10
3.73031
20
-3.76969
11
3.76575
21
-3.76969
0
LINE
8
BLACK
6
CONTINUOUS
10
3.76575
20
-3.76969
11
3.76575
21
-3.70276
0
LINE
8
BLACK
6
CONTINUOUS
10
3.76575
20
-3.70276
11
3.73031
21
-3.70276
0
LINE
8
BLACK
6
CONTINUOUS
10
3.84449
20
-3.70276
11
3.84449
21
-3.76969
0
LINE
8
BLACK
6
CONTINUOUS
10
3.84449
20
-3.76969
11
3.87992
21
-3.76969
0
LINE
8
BLACK
6
CONTINUOUS
10
3.87992
20
-3.76969
11
3.87992
21
-3.70276
0
LINE
8
BLACK
6
CONTINUOUS
10
3.87992
20
-3.70276
11
3.84449
21
-3.70276
0
LINE
8
BLACK
6
CONTINUOUS
10
4.03937
20
-3.61614
11
4.03937
21
-3.54921
0
LINE
8
BLACK
6
CONTINUOUS
10
4.03937
20
-3.54921
11
4.00394
21
-3.54921
0
LINE
8
BLACK
6
CONTINUOUS
10
4.00394
20
-3.54921
11
4.00394
21
-3.61614
0
LINE
8
BLACK
6
CONTINUOUS
10
4.00394
20
-3.61614
11
4.03937
21
-3.61614
0
LINE
8
BLACK
6
CONTINUOUS
10
3.9252
20
-3.61614
11
3.9252
21
-3.54921
0
LINE
8
BLACK
6
CONTINUOUS
10
3.9252
20
-3.54921
11
3.88976
21
-3.54921
0
LINE
8
BLACK
6
CONTINUOUS
10
3.88976
20
-3.54921
11
3.88976
21
-3.61614
0
LINE
8
BLACK
6
CONTINUOUS
10
3.88976
20
-3.61614
11
3.9252
21
-3.61614
0
LINE
8
BLACK
6
CONTINUOUS
10
4.35827
20
-3.61614
11
4.35827
21
-3.54921
0
LINE
8
BLACK
6
CONTINUOUS
10
4.35827
20
-3.54921
11
4.32283
21
-3.54921
0
LINE
8
BLACK
6
CONTINUOUS
10
4.32283
20
-3.54921
11
4.32283
21
-3.61614
0
LINE
8
BLACK
6
CONTINUOUS
10
4.32283
20
-3.61614
11
4.35827
21
-3.61614
0
LINE
8
BLACK
6
CONTINUOUS
10
4.24409
20
-3.61614
11
4.24409
21
-3.54921
0
LINE
8
BLACK
6
CONTINUOUS
10
4.24409
20
-3.54921
11
4.20866
21
-3.54921
0
LINE
8
BLACK
6
CONTINUOUS
10
4.20866
20
-3.54921
11
4.20866
21
-3.61614
0
LINE
8
BLACK
6
CONTINUOUS
10
4.20866
20
-3.61614
11
4.24409
21
-3.61614
0
LINE
8
BLACK
6
CONTINUOUS
10
3.72047
20
-3.76969
11
3.72047
21
-3.70276
0
LINE
8
BLACK
6
CONTINUOUS
10
3.72047
20
-3.70276
11
3.68504
21
-3.70276
0
LINE
8
BLACK
6
CONTINUOUS
10
3.68504
20
-3.70276
11
3.68504
21
-3.76969
0
LINE
8
BLACK
6
CONTINUOUS
10
3.68504
20
-3.76969
11
3.72047
21
-3.76969
0
LINE
8
BLACK
6
CONTINUOUS
10
3.6063
20
-3.76969
11
3.6063
21
-3.70276
0
LINE
8
BLACK
6
CONTINUOUS
10
3.6063
20
-3.70276
11
3.57087
21
-3.70276
0
LINE
8
BLACK
6
CONTINUOUS
10
3.57087
20
-3.70276
11
3.57087
21
-3.76969
0
LINE
8
BLACK
6
CONTINUOUS
10
3.57087
20
-3.76969
11
3.6063
21
-3.76969
0
LINE
8
BLACK
6
CONTINUOUS
10
4.03937
20
-3.38583
11
4.03937
21
-3.3189
0
LINE
8
BLACK
6
CONTINUOUS
10
4.03937
20
-3.3189
11
4.00394
21
-3.3189
0
LINE
8
BLACK
6
CONTINUOUS
10
4.00394
20
-3.3189
11
4.00394
21
-3.38583
0
LINE
8
BLACK
6
CONTINUOUS
10
4.00394
20
-3.38583
11
4.03937
21
-3.38583
0
LINE
8
BLACK
6
CONTINUOUS
10
3.9252
20
-3.38583
11
3.9252
21
-3.3189
0
LINE
8
BLACK
6
CONTINUOUS
10
3.9252
20
-3.3189
11
3.88976
21
-3.3189
0
LINE
8
BLACK
6
CONTINUOUS
10
3.88976
20
-3.3189
11
3.88976
21
-3.38583
0
LINE
8
BLACK
6
CONTINUOUS
10
3.88976
20
-3.38583
11
3.9252
21
-3.38583
0
LINE
8
BLACK
6
CONTINUOUS
10
3.73031
20
-3.3189
11
3.73031
21
-3.38583
0
LINE
8
BLACK
6
CONTINUOUS
10
3.73031
20
-3.38583
11
3.76575
21
-3.38583
0
LINE
8
BLACK
6
CONTINUOUS
10
3.76575
20
-3.38583
11
3.76575
21
-3.3189
0
LINE
8
BLACK
6
CONTINUOUS
10
3.76575
20
-3.3189
11
3.73031
21
-3.3189
0
LINE
8
BLACK
6
CONTINUOUS
10
3.84449
20
-3.3189
11
3.84449
21
-3.38583
0
LINE
8
BLACK
6
CONTINUOUS
10
3.84449
20
-3.38583
11
3.87992
21
-3.38583
0
LINE
8
BLACK
6
CONTINUOUS
10
3.87992
20
-3.38583
11
3.87992
21
-3.3189
0
LINE
8
BLACK
6
CONTINUOUS
10
3.87992
20
-3.3189
11
3.84449
21
-3.3189
0
LINE
8
BLACK
6
CONTINUOUS
10
3.73031
20
-3.62598
11
3.73031
21
-3.69291
0
LINE
8
BLACK
6
CONTINUOUS
10
3.73031
20
-3.69291
11
3.76575
21
-3.69291
0
LINE
8
BLACK
6
CONTINUOUS
10
3.76575
20
-3.69291
11
3.76575
21
-3.62598
0
LINE
8
BLACK
6
CONTINUOUS
10
3.76575
20
-3.62598
11
3.73031
21
-3.62598
0
LINE
8
BLACK
6
CONTINUOUS
10
3.84449
20
-3.62598
11
3.84449
21
-3.69291
0
LINE
8
BLACK
6
CONTINUOUS
10
3.84449
20
-3.69291
11
3.87992
21
-3.69291
0
LINE
8
BLACK
6
CONTINUOUS
10
3.87992
20
-3.69291
11
3.87992
21
-3.62598
0
LINE
8
BLACK
6
CONTINUOUS
10
3.87992
20
-3.62598
11
3.84449
21
-3.62598
0
LINE
8
BLACK
6
CONTINUOUS
10
4.35827
20
-3.69291
11
4.35827
21
-3.62598
0
LINE
8
BLACK
6
CONTINUOUS
10
4.35827
20
-3.62598
11
4.32283
21
-3.62598
0
LINE
8
BLACK
6
CONTINUOUS
10
4.32283
20
-3.62598
11
4.32283
21
-3.69291
0
LINE
8
BLACK
6
CONTINUOUS
10
4.32283
20
-3.69291
11
4.35827
21
-3.69291
0
LINE
8
BLACK
6
CONTINUOUS
10
4.24409
20
-3.69291
11
4.24409
21
-3.62598
0
LINE
8
BLACK
6
CONTINUOUS
10
4.24409
20
-3.62598
11
4.20866
21
-3.62598
0
LINE
8
BLACK
6
CONTINUOUS
10
4.20866
20
-3.62598
11
4.20866
21
-3.69291
0
LINE
8
BLACK
6
CONTINUOUS
10
4.20866
20
-3.69291
11
4.24409
21
-3.69291
0
LINE
8
BLACK
6
CONTINUOUS
10
4.04921
20
-3.77953
11
4.04921
21
-3.84646
0
LINE
8
BLACK
6
CONTINUOUS
10
4.04921
20
-3.84646
11
4.08465
21
-3.84646
0
LINE
8
BLACK
6
CONTINUOUS
10
4.08465
20
-3.84646
11
4.08465
21
-3.77953
0
LINE
8
BLACK
6
CONTINUOUS
10
4.08465
20
-3.77953
11
4.04921
21
-3.77953
0
LINE
8
BLACK
6
CONTINUOUS
10
4.16339
20
-3.77953
11
4.16339
21
-3.84646
0
LINE
8
BLACK
6
CONTINUOUS
10
4.16339
20
-3.84646
11
4.19882
21
-3.84646
0
LINE
8
BLACK
6
CONTINUOUS
10
4.19882
20
-3.84646
11
4.19882
21
-3.77953
0
LINE
8
BLACK
6
CONTINUOUS
10
4.19882
20
-3.77953
11
4.16339
21
-3.77953
0
LINE
8
BLACK
6
CONTINUOUS
10
4.04921
20
-3.3189
11
4.04921
21
-3.38583
0
LINE
8
BLACK
6
CONTINUOUS
10
4.04921
20
-3.38583
11
4.08465
21
-3.38583
0
LINE
8
BLACK
6
CONTINUOUS
10
4.08465
20
-3.38583
11
4.08465
21
-3.3189
0
LINE
8
BLACK
6
CONTINUOUS
10
4.08465
20
-3.3189
11
4.04921
21
-3.3189
0
LINE
8
BLACK
6
CONTINUOUS
10
4.16339
20
-3.3189
11
4.16339
21
-3.38583
0
LINE
8
BLACK
6
CONTINUOUS
10
4.16339
20
-3.38583
11
4.19882
21
-3.38583
0
LINE
8
BLACK
6
CONTINUOUS
10
4.19882
20
-3.38583
11
4.19882
21
-3.3189
0
LINE
8
BLACK
6
CONTINUOUS
10
4.19882
20
-3.3189
11
4.16339
21
-3.3189
0
LINE
8
BLACK
6
CONTINUOUS
10
4.03937
20
-3.69291
11
4.03937
21
-3.62598
0
LINE
8
BLACK
6
CONTINUOUS
10
4.03937
20
-3.62598
11
4.00394
21
-3.62598
0
LINE
8
BLACK
6
CONTINUOUS
10
4.00394
20
-3.62598
11
4.00394
21
-3.69291
0
LINE
8
BLACK
6
CONTINUOUS
10
4.00394
20
-3.69291
11
4.03937
21
-3.69291
0
LINE
8
BLACK
6
CONTINUOUS
10
3.9252
20
-3.69291
11
3.9252
21
-3.62598
0
LINE
8
BLACK
6
CONTINUOUS
10
3.9252
20
-3.62598
11
3.88976
21
-3.62598
0
LINE
8
BLACK
6
CONTINUOUS
10
3.88976
20
-3.62598
11
3.88976
21
-3.69291
0
LINE
8
BLACK
6
CONTINUOUS
10
3.88976
20
-3.69291
11
3.9252
21
-3.69291
0
LINE
8
BLACK
6
CONTINUOUS
10
4.04921
20
-3.39567
11
4.04921
21
-3.4626
0
LINE
8
BLACK
6
CONTINUOUS
10
4.04921
20
-3.4626
11
4.08465
21
-3.4626
0
LINE
8
BLACK
6
CONTINUOUS
10
4.08465
20
-3.4626
11
4.08465
21
-3.39567
0
LINE
8
BLACK
6
CONTINUOUS
10
4.08465
20
-3.39567
11
4.04921
21
-3.39567
0
LINE
8
BLACK
6
CONTINUOUS
10
4.16339
20
-3.39567
11
4.16339
21
-3.4626
0
LINE
8
BLACK
6
CONTINUOUS
10
4.16339
20
-3.4626
11
4.19882
21
-3.4626
0
LINE
8
BLACK
6
CONTINUOUS
10
4.19882
20
-3.4626
11
4.19882
21
-3.39567
0
LINE
8
BLACK
6
CONTINUOUS
10
4.19882
20
-3.39567
11
4.16339
21
-3.39567
0
LINE
8
BLACK
6
CONTINUOUS
10
4.04921
20
-3.70276
11
4.04921
21
-3.76969
0
LINE
8
BLACK
6
CONTINUOUS
10
4.04921
20
-3.76969
11
4.08465
21
-3.76969
0
LINE
8
BLACK
6
CONTINUOUS
10
4.08465
20
-3.76969
11
4.08465
21
-3.70276
0
LINE
8
BLACK
6
CONTINUOUS
10
4.08465
20
-3.70276
11
4.04921
21
-3.70276
0
LINE
8
BLACK
6
CONTINUOUS
10
4.16339
20
-3.70276
11
4.16339
21
-3.76969
0
LINE
8
BLACK
6
CONTINUOUS
10
4.16339
20
-3.76969
11
4.19882
21
-3.76969
0
LINE
8
BLACK
6
CONTINUOUS
10
4.19882
20
-3.76969
11
4.19882
21
-3.70276
0
LINE
8
BLACK
6
CONTINUOUS
10
4.19882
20
-3.70276
11
4.16339
21
-3.70276
0
LINE
8
BLACK
6
CONTINUOUS
10
4.03937
20
-3.76969
11
4.03937
21
-3.70276
0
LINE
8
BLACK
6
CONTINUOUS
10
4.03937
20
-3.70276
11
4.00394
21
-3.70276
0
LINE
8
BLACK
6
CONTINUOUS
10
4.00394
20
-3.70276
11
4.00394
21
-3.76969
0
LINE
8
BLACK
6
CONTINUOUS
10
4.00394
20
-3.76969
11
4.03937
21
-3.76969
0
LINE
8
BLACK
6
CONTINUOUS
10
3.9252
20
-3.76969
11
3.9252
21
-3.70276
0
LINE
8
BLACK
6
CONTINUOUS
10
3.9252
20
-3.70276
11
3.88976
21
-3.70276
0
LINE
8
BLACK
6
CONTINUOUS
10
3.88976
20
-3.70276
11
3.88976
21
-3.76969
0
LINE
8
BLACK
6
CONTINUOUS
10
3.88976
20
-3.76969
11
3.9252
21
-3.76969
0
LINE
8
BLACK
6
CONTINUOUS
10
3.73031
20
-3.77953
11
3.73031
21
-3.84646
0
LINE
8
BLACK
6
CONTINUOUS
10
3.73031
20
-3.84646
11
3.76575
21
-3.84646
0
LINE
8
BLACK
6
CONTINUOUS
10
3.76575
20
-3.84646
11
3.76575
21
-3.77953
0
LINE
8
BLACK
6
CONTINUOUS
10
3.76575
20
-3.77953
11
3.73031
21
-3.77953
0
LINE
8
BLACK
6
CONTINUOUS
10
3.84449
20
-3.77953
11
3.84449
21
-3.84646
0
LINE
8
BLACK
6
CONTINUOUS
10
3.84449
20
-3.84646
11
3.87992
21
-3.84646
0
LINE
8
BLACK
6
CONTINUOUS
10
3.87992
20
-3.84646
11
3.87992
21
-3.77953
0
LINE
8
BLACK
6
CONTINUOUS
10
3.87992
20
-3.77953
11
3.84449
21
-3.77953
0
LINE
8
BLACK
6
CONTINUOUS
10
4.04921
20
-3.62598
11
4.04921
21
-3.69291
0
LINE
8
BLACK
6
CONTINUOUS
10
4.04921
20
-3.69291
11
4.08465
21
-3.69291
0
LINE
8
BLACK
6
CONTINUOUS
10
4.08465
20
-3.69291
11
4.08465
21
-3.62598
0
LINE
8
BLACK
6
CONTINUOUS
10
4.08465
20
-3.62598
11
4.04921
21
-3.62598
0
LINE
8
BLACK
6
CONTINUOUS
10
4.16339
20
-3.62598
11
4.16339
21
-3.69291
0
LINE
8
BLACK
6
CONTINUOUS
10
4.16339
20
-3.69291
11
4.19882
21
-3.69291
0
LINE
8
BLACK
6
CONTINUOUS
10
4.19882
20
-3.69291
11
4.19882
21
-3.62598
0
LINE
8
BLACK
6
CONTINUOUS
10
4.19882
20
-3.62598
11
4.16339
21
-3.62598
0
LINE
8
BLACK
6
CONTINUOUS
10
4.03937
20
-3.84646
11
4.03937
21
-3.77953
0
LINE
8
BLACK
6
CONTINUOUS
10
4.03937
20
-3.77953
11
4.00394
21
-3.77953
0
LINE
8
BLACK
6
CONTINUOUS
10
4.00394
20
-3.77953
11
4.00394
21
-3.84646
0
LINE
8
BLACK
6
CONTINUOUS
10
4.00394
20
-3.84646
11
4.03937
21
-3.84646
0
LINE
8
BLACK
6
CONTINUOUS
10
3.9252
20
-3.84646
11
3.9252
21
-3.77953
0
LINE
8
BLACK
6
CONTINUOUS
10
3.9252
20
-3.77953
11
3.88976
21
-3.77953
0
LINE
8
BLACK
6
CONTINUOUS
10
3.88976
20
-3.77953
11
3.88976
21
-3.84646
0
LINE
8
BLACK
6
CONTINUOUS
10
3.88976
20
-3.84646
11
3.9252
21
-3.84646
0
LINE
8
BLACK
6
CONTINUOUS
10
3.73031
20
-3.54921
11
3.73031
21
-3.61614
0
LINE
8
BLACK
6
CONTINUOUS
10
3.73031
20
-3.61614
11
3.76575
21
-3.61614
0
LINE
8
BLACK
6
CONTINUOUS
10
3.76575
20
-3.61614
11
3.76575
21
-3.54921
0
LINE
8
BLACK
6
CONTINUOUS
10
3.76575
20
-3.54921
11
3.73031
21
-3.54921
0
LINE
8
BLACK
6
CONTINUOUS
10
3.84449
20
-3.54921
11
3.84449
21
-3.61614
0
LINE
8
BLACK
6
CONTINUOUS
10
3.84449
20
-3.61614
11
3.87992
21
-3.61614
0
LINE
8
BLACK
6
CONTINUOUS
10
3.87992
20
-3.61614
11
3.87992
21
-3.54921
0
LINE
8
BLACK
6
CONTINUOUS
10
3.87992
20
-3.54921
11
3.84449
21
-3.54921
0
LINE
8
BLACK
6
CONTINUOUS
10
3.72047
20
-3.61614
11
3.72047
21
-3.54921
0
LINE
8
BLACK
6
CONTINUOUS
10
3.72047
20
-3.54921
11
3.68504
21
-3.54921
0
LINE
8
BLACK
6
CONTINUOUS
10
3.68504
20
-3.54921
11
3.68504
21
-3.61614
0
LINE
8
BLACK
6
CONTINUOUS
10
3.68504
20
-3.61614
11
3.72047
21
-3.61614
0
LINE
8
BLACK
6
CONTINUOUS
10
3.6063
20
-3.61614
11
3.6063
21
-3.54921
0
LINE
8
BLACK
6
CONTINUOUS
10
3.6063
20
-3.54921
11
3.57087
21
-3.54921
0
LINE
8
BLACK
6
CONTINUOUS
10
3.57087
20
-3.54921
11
3.57087
21
-3.61614
0
LINE
8
BLACK
6
CONTINUOUS
10
3.57087
20
-3.61614
11
3.6063
21
-3.61614
0
LINE
8
BLACK
6
CONTINUOUS
10
4.03937
20
-3.53937
11
4.03937
21
-3.47244
0
LINE
8
BLACK
6
CONTINUOUS
10
4.03937
20
-3.47244
11
4.00394
21
-3.47244
0
LINE
8
BLACK
6
CONTINUOUS
10
4.00394
20
-3.47244
11
4.00394
21
-3.53937
0
LINE
8
BLACK
6
CONTINUOUS
10
4.00394
20
-3.53937
11
4.03937
21
-3.53937
0
LINE
8
BLACK
6
CONTINUOUS
10
3.9252
20
-3.53937
11
3.9252
21
-3.47244
0
LINE
8
BLACK
6
CONTINUOUS
10
3.9252
20
-3.47244
11
3.88976
21
-3.47244
0
LINE
8
BLACK
6
CONTINUOUS
10
3.88976
20
-3.47244
11
3.88976
21
-3.53937
0
LINE
8
BLACK
6
CONTINUOUS
10
3.88976
20
-3.53937
11
3.9252
21
-3.53937
0
LINE
8
BLACK
6
CONTINUOUS
10
4.35827
20
-3.84646
11
4.35827
21
-3.77953
0
LINE
8
BLACK
6
CONTINUOUS
10
4.35827
20
-3.77953
11
4.32283
21
-3.77953
0
LINE
8
BLACK
6
CONTINUOUS
10
4.32283
20
-3.77953
11
4.32283
21
-3.84646
0
LINE
8
BLACK
6
CONTINUOUS
10
4.32283
20
-3.84646
11
4.35827
21
-3.84646
0
LINE
8
BLACK
6
CONTINUOUS
10
4.24409
20
-3.84646
11
4.24409
21
-3.77953
0
LINE
8
BLACK
6
CONTINUOUS
10
4.24409
20
-3.77953
11
4.20866
21
-3.77953
0
LINE
8
BLACK
6
CONTINUOUS
10
4.20866
20
-3.77953
11
4.20866
21
-3.84646
0
LINE
8
BLACK
6
CONTINUOUS
10
4.20866
20
-3.84646
11
4.24409
21
-3.84646
0
LINE
8
BLACK
6
CONTINUOUS
10
5.19882
20
-3.70669
11
5.15157
21
-3.70669
0
LINE
8
BLACK
6
CONTINUOUS
10
5.15157
20
-3.70669
11
5.15157
21
-3.75394
0
LINE
8
BLACK
6
CONTINUOUS
10
5.15157
20
-3.75394
11
5.19882
21
-3.75394
0
LINE
8
BLACK
6
CONTINUOUS
10
5.19882
20
-3.75394
11
5.19882
21
-3.70669
0
LINE
8
BLACK
6
CONTINUOUS
10
5.19882
20
-3.64764
11
5.15157
21
-3.64764
0
LINE
8
BLACK
6
CONTINUOUS
10
5.15157
20
-3.64764
11
5.15157
21
-3.69488
0
LINE
8
BLACK
6
CONTINUOUS
10
5.15157
20
-3.69488
11
5.19882
21
-3.69488
0
LINE
8
BLACK
6
CONTINUOUS
10
5.19882
20
-3.69488
11
5.19882
21
-3.64764
0
LINE
8
BLACK
6
CONTINUOUS
10
5.19882
20
-3.58858
11
5.15157
21
-3.58858
0
LINE
8
BLACK
6
CONTINUOUS
10
5.15157
20
-3.58858
11
5.15157
21
-3.63583
0
LINE
8
BLACK
6
CONTINUOUS
10
5.15157
20
-3.63583
11
5.19882
21
-3.63583
0
LINE
8
BLACK
6
CONTINUOUS
10
5.19882
20
-3.63583
11
5.19882
21
-3.58858
0
LINE
8
BLACK
6
CONTINUOUS
10
5.19882
20
-3.52953
11
5.15157
21
-3.52953
0
LINE
8
BLACK
6
CONTINUOUS
10
5.15157
20
-3.52953
11
5.15157
21
-3.57677
0
LINE
8
BLACK
6
CONTINUOUS
10
5.15157
20
-3.57677
11
5.19882
21
-3.57677
0
LINE
8
BLACK
6
CONTINUOUS
10
5.19882
20
-3.57677
11
5.19882
21
-3.52953
0
LINE
8
BLACK
6
CONTINUOUS
10
5.19882
20
-3.47047
11
5.15157
21
-3.47047
0
LINE
8
BLACK
6
CONTINUOUS
10
5.15157
20
-3.47047
11
5.15157
21
-3.51772
0
LINE
8
BLACK
6
CONTINUOUS
10
5.15157
20
-3.51772
11
5.19882
21
-3.51772
0
LINE
8
BLACK
6
CONTINUOUS
10
5.19882
20
-3.51772
11
5.19882
21
-3.47047
0
LINE
8
BLACK
6
CONTINUOUS
10
5.19882
20
-3.41142
11
5.15157
21
-3.41142
0
LINE
8
BLACK
6
CONTINUOUS
10
5.15157
20
-3.41142
11
5.15157
21
-3.45866
0
LINE
8
BLACK
6
CONTINUOUS
10
5.15157
20
-3.45866
11
5.19882
21
-3.45866
0
LINE
8
BLACK
6
CONTINUOUS
10
5.19882
20
-3.45866
11
5.19882
21
-3.41142
0
LINE
8
BLACK
6
CONTINUOUS
10
4.35827
20
-3.53937
11
4.35827
21
-3.47244
0
LINE
8
BLACK
6
CONTINUOUS
10
4.35827
20
-3.47244
11
4.32283
21
-3.47244
0
LINE
8
BLACK
6
CONTINUOUS
10
4.32283
20
-3.47244
11
4.32283
21
-3.53937
0
LINE
8
BLACK
6
CONTINUOUS
10
4.32283
20
-3.53937
11
4.35827
21
-3.53937
0
LINE
8
BLACK
6
CONTINUOUS
10
4.24409
20
-3.53937
11
4.24409
21
-3.47244
0
LINE
8
BLACK
6
CONTINUOUS
10
4.24409
20
-3.47244
11
4.20866
21
-3.47244
0
LINE
8
BLACK
6
CONTINUOUS
10
4.20866
20
-3.47244
11
4.20866
21
-3.53937
0
LINE
8
BLACK
6
CONTINUOUS
10
4.20866
20
-3.53937
11
4.24409
21
-3.53937
0
LINE
8
BLACK
6
CONTINUOUS
10
3.72047
20
-3.84646
11
3.72047
21
-3.77953
0
LINE
8
BLACK
6
CONTINUOUS
10
3.72047
20
-3.77953
11
3.68504
21
-3.77953
0
LINE
8
BLACK
6
CONTINUOUS
10
3.68504
20
-3.77953
11
3.68504
21
-3.84646
0
LINE
8
BLACK
6
CONTINUOUS
10
3.68504
20
-3.84646
11
3.72047
21
-3.84646
0
LINE
8
BLACK
6
CONTINUOUS
10
3.6063
20
-3.84646
11
3.6063
21
-3.77953
0
LINE
8
BLACK
6
CONTINUOUS
10
3.6063
20
-3.77953
11
3.57087
21
-3.77953
0
LINE
8
BLACK
6
CONTINUOUS
10
3.57087
20
-3.77953
11
3.57087
21
-3.84646
0
LINE
8
BLACK
6
CONTINUOUS
10
3.57087
20
-3.84646
11
3.6063
21
-3.84646
0
LINE
8
BLACK
6
CONTINUOUS
10
4.03937
20
-3.4626
11
4.03937
21
-3.39567
0
LINE
8
BLACK
6
CONTINUOUS
10
4.03937
20
-3.39567
11
4.00394
21
-3.39567
0
LINE
8
BLACK
6
CONTINUOUS
10
4.00394
20
-3.39567
11
4.00394
21
-3.4626
0
LINE
8
BLACK
6
CONTINUOUS
10
4.00394
20
-3.4626
11
4.03937
21
-3.4626
0
LINE
8
BLACK
6
CONTINUOUS
10
3.9252
20
-3.4626
11
3.9252
21
-3.39567
0
LINE
8
BLACK
6
CONTINUOUS
10
3.9252
20
-3.39567
11
3.88976
21
-3.39567
0
LINE
8
BLACK
6
CONTINUOUS
10
3.88976
20
-3.39567
11
3.88976
21
-3.4626
0
LINE
8
BLACK
6
CONTINUOUS
10
3.88976
20
-3.4626
11
3.9252
21
-3.4626
0
LINE
8
BLACK
6
CONTINUOUS
10
3.73031
20
-3.47244
11
3.73031
21
-3.53937
0
LINE
8
BLACK
6
CONTINUOUS
10
3.73031
20
-3.53937
11
3.76575
21
-3.53937
0
LINE
8
BLACK
6
CONTINUOUS
10
3.76575
20
-3.53937
11
3.76575
21
-3.47244
0
LINE
8
BLACK
6
CONTINUOUS
10
3.76575
20
-3.47244
11
3.73031
21
-3.47244
0
LINE
8
BLACK
6
CONTINUOUS
10
3.84449
20
-3.47244
11
3.84449
21
-3.53937
0
LINE
8
BLACK
6
CONTINUOUS
10
3.84449
20
-3.53937
11
3.87992
21
-3.53937
0
LINE
8
BLACK
6
CONTINUOUS
10
3.87992
20
-3.53937
11
3.87992
21
-3.47244
0
LINE
8
BLACK
6
CONTINUOUS
10
3.87992
20
-3.47244
11
3.84449
21
-3.47244
0
LINE
8
BLACK
6
CONTINUOUS
10
3.73031
20
-3.39567
11
3.73031
21
-3.4626
0
LINE
8
BLACK
6
CONTINUOUS
10
3.73031
20
-3.4626
11
3.76575
21
-3.4626
0
LINE
8
BLACK
6
CONTINUOUS
10
3.76575
20
-3.4626
11
3.76575
21
-3.39567
0
LINE
8
BLACK
6
CONTINUOUS
10
3.76575
20
-3.39567
11
3.73031
21
-3.39567
0
LINE
8
BLACK
6
CONTINUOUS
10
3.84449
20
-3.39567
11
3.84449
21
-3.4626
0
LINE
8
BLACK
6
CONTINUOUS
10
3.84449
20
-3.4626
11
3.87992
21
-3.4626
0
LINE
8
BLACK
6
CONTINUOUS
10
3.87992
20
-3.4626
11
3.87992
21
-3.39567
0
LINE
8
BLACK
6
CONTINUOUS
10
3.87992
20
-3.39567
11
3.84449
21
-3.39567
0
LINE
8
BLACK
6
CONTINUOUS
10
4.04921
20
-3.54921
11
4.04921
21
-3.61614
0
LINE
8
BLACK
6
CONTINUOUS
10
4.04921
20
-3.61614
11
4.08465
21
-3.61614
0
LINE
8
BLACK
6
CONTINUOUS
10
4.08465
20
-3.61614
11
4.08465
21
-3.54921
0
LINE
8
BLACK
6
CONTINUOUS
10
4.08465
20
-3.54921
11
4.04921
21
-3.54921
0
LINE
8
BLACK
6
CONTINUOUS
10
4.16339
20
-3.54921
11
4.16339
21
-3.61614
0
LINE
8
BLACK
6
CONTINUOUS
10
4.16339
20
-3.61614
11
4.19882
21
-3.61614
0
LINE
8
BLACK
6
CONTINUOUS
10
4.19882
20
-3.61614
11
4.19882
21
-3.54921
0
LINE
8
BLACK
6
CONTINUOUS
10
4.19882
20
-3.54921
11
4.16339
21
-3.54921
0
LINE
8
BLACK
6
CONTINUOUS
10
2.68701
20
-3.6378
11
2.71457
21
-3.6378
0
LINE
8
BLACK
6
CONTINUOUS
10
2.71457
20
-3.6378
11
2.71457
21
-3.61024
0
LINE
8
BLACK
6
CONTINUOUS
10
2.71457
20
-3.61024
11
2.68701
21
-3.61024
0
LINE
8
BLACK
6
CONTINUOUS
10
2.68701
20
-3.61024
11
2.68701
21
-3.6378
0
LINE
8
BLACK
6
CONTINUOUS
10
2.74213
20
-3.58268
11
2.76969
21
-3.58268
0
LINE
8
BLACK
6
CONTINUOUS
10
2.76969
20
-3.58268
11
2.76969
21
-3.55512
0
LINE
8
BLACK
6
CONTINUOUS
10
2.76969
20
-3.55512
11
2.74213
21
-3.55512
0
LINE
8
BLACK
6
CONTINUOUS
10
2.74213
20
-3.55512
11
2.74213
21
-3.58268
0
LINE
8
BLACK
6
CONTINUOUS
10
2.71457
20
-3.55512
11
2.74213
21
-3.55512
0
LINE
8
BLACK
6
CONTINUOUS
10
2.74213
20
-3.55512
11
2.74213
21
-3.52756
0
LINE
8
BLACK
6
CONTINUOUS
10
2.74213
20
-3.52756
11
2.71457
21
-3.52756
0
LINE
8
BLACK
6
CONTINUOUS
10
2.71457
20
-3.52756
11
2.71457
21
-3.55512
0
LINE
8
BLACK
6
CONTINUOUS
10
2.68701
20
-3.58268
11
2.71457
21
-3.58268
0
LINE
8
BLACK
6
CONTINUOUS
10
2.71457
20
-3.58268
11
2.71457
21
-3.55512
0
LINE
8
BLACK
6
CONTINUOUS
10
2.71457
20
-3.55512
11
2.68701
21
-3.55512
0
LINE
8
BLACK
6
CONTINUOUS
10
2.68701
20
-3.55512
11
2.68701
21
-3.58268
0
LINE
8
BLACK
6
CONTINUOUS
10
2.74213
20
-3.6378
11
2.76969
21
-3.6378
0
LINE
8
BLACK
6
CONTINUOUS
10
2.76969
20
-3.6378
11
2.76969
21
-3.61024
0
LINE
8
BLACK
6
CONTINUOUS
10
2.76969
20
-3.61024
11
2.74213
21
-3.61024
0
LINE
8
BLACK
6
CONTINUOUS
10
2.74213
20
-3.61024
11
2.74213
21
-3.6378
0
LINE
8
BLACK
6
CONTINUOUS
10
2.71457
20
-3.6378
11
2.74213
21
-3.6378
0
LINE
8
BLACK
6
CONTINUOUS
10
2.74213
20
-3.6378
11
2.74213
21
-3.61024
0
LINE
8
BLACK
6
CONTINUOUS
10
2.74213
20
-3.61024
11
2.71457
21
-3.61024
0
LINE
8
BLACK
6
CONTINUOUS
10
2.71457
20
-3.61024
11
2.71457
21
-3.6378
0
LINE
8
BLACK
6
CONTINUOUS
10
2.71457
20
-3.58268
11
2.74213
21
-3.58268
0
LINE
8
BLACK
6
CONTINUOUS
10
2.74213
20
-3.58268
11
2.74213
21
-3.55512
0
LINE
8
BLACK
6
CONTINUOUS
10
2.74213
20
-3.55512
11
2.71457
21
-3.55512
0
LINE
8
BLACK
6
CONTINUOUS
10
2.71457
20
-3.55512
11
2.71457
21
-3.58268
0
LINE
8
BLACK
6
CONTINUOUS
10
2.74213
20
-3.55512
11
2.76969
21
-3.55512
0
LINE
8
BLACK
6
CONTINUOUS
10
2.76969
20
-3.55512
11
2.76969
21
-3.52756
0
LINE
8
BLACK
6
CONTINUOUS
10
2.76969
20
-3.52756
11
2.74213
21
-3.52756
0
LINE
8
BLACK
6
CONTINUOUS
10
2.74213
20
-3.52756
11
2.74213
21
-3.55512
0
LINE
8
BLACK
6
CONTINUOUS
10
2.74213
20
-3.61024
11
2.76969
21
-3.61024
0
LINE
8
BLACK
6
CONTINUOUS
10
2.76969
20
-3.61024
11
2.76969
21
-3.58268
0
LINE
8
BLACK
6
CONTINUOUS
10
2.76969
20
-3.58268
11
2.74213
21
-3.58268
0
LINE
8
BLACK
6
CONTINUOUS
10
2.74213
20
-3.58268
11
2.74213
21
-3.61024
0
LINE
8
BLACK
6
CONTINUOUS
10
2.71457
20
-3.61024
11
2.74213
21
-3.61024
0
LINE
8
BLACK
6
CONTINUOUS
10
2.74213
20
-3.61024
11
2.74213
21
-3.58268
0
LINE
8
BLACK
6
CONTINUOUS
10
2.74213
20
-3.58268
11
2.71457
21
-3.58268
0
LINE
8
BLACK
6
CONTINUOUS
10
2.71457
20
-3.58268
11
2.71457
21
-3.61024
0
LINE
8
BLACK
6
CONTINUOUS
10
2.68701
20
-3.61024
11
2.71457
21
-3.61024
0
LINE
8
BLACK
6
CONTINUOUS
10
2.71457
20
-3.61024
11
2.71457
21
-3.58268
0
LINE
8
BLACK
6
CONTINUOUS
10
2.71457
20
-3.58268
11
2.68701
21
-3.58268
0
LINE
8
BLACK
6
CONTINUOUS
10
2.68701
20
-3.58268
11
2.68701
21
-3.61024
0
LINE
8
BLACK
6
CONTINUOUS
10
2.68701
20
-3.55512
11
2.71457
21
-3.55512
0
LINE
8
BLACK
6
CONTINUOUS
10
2.71457
20
-3.55512
11
2.71457
21
-3.52756
0
LINE
8
BLACK
6
CONTINUOUS
10
2.71457
20
-3.52756
11
2.68701
21
-3.52756
0
LINE
8
BLACK
6
CONTINUOUS
10
2.68701
20
-3.52756
11
2.68701
21
-3.55512
0
LINE
8
BLACK
6
CONTINUOUS
10
2.74213
20
-3.75591
11
2.71457
21
-3.75591
0
LINE
8
BLACK
6
CONTINUOUS
10
2.71457
20
-3.75591
11
2.71457
21
-3.78346
0
LINE
8
BLACK
6
CONTINUOUS
10
2.71457
20
-3.78346
11
2.74213
21
-3.78346
0
LINE
8
BLACK
6
CONTINUOUS
10
2.74213
20
-3.78346
11
2.74213
21
-3.75591
0
LINE
8
BLACK
6
CONTINUOUS
10
2.76969
20
-3.83858
11
2.74213
21
-3.83858
0
LINE
8
BLACK
6
CONTINUOUS
10
2.74213
20
-3.83858
11
2.74213
21
-3.86614
0
LINE
8
BLACK
6
CONTINUOUS
10
2.74213
20
-3.86614
11
2.76969
21
-3.86614
0
LINE
8
BLACK
6
CONTINUOUS
10
2.76969
20
-3.86614
11
2.76969
21
-3.83858
0
LINE
8
BLACK
6
CONTINUOUS
10
2.71457
20
-3.78346
11
2.68701
21
-3.78346
0
LINE
8
BLACK
6
CONTINUOUS
10
2.68701
20
-3.78346
11
2.68701
21
-3.81102
0
LINE
8
BLACK
6
CONTINUOUS
10
2.68701
20
-3.81102
11
2.71457
21
-3.81102
0
LINE
8
BLACK
6
CONTINUOUS
10
2.71457
20
-3.81102
11
2.71457
21
-3.78346
0
LINE
8
BLACK
6
CONTINUOUS
10
2.71457
20
-3.81102
11
2.68701
21
-3.81102
0
LINE
8
BLACK
6
CONTINUOUS
10
2.68701
20
-3.81102
11
2.68701
21
-3.83858
0
LINE
8
BLACK
6
CONTINUOUS
10
2.68701
20
-3.83858
11
2.71457
21
-3.83858
0
LINE
8
BLACK
6
CONTINUOUS
10
2.71457
20
-3.83858
11
2.71457
21
-3.81102
0
LINE
8
BLACK
6
CONTINUOUS
10
2.74213
20
-3.78346
11
2.71457
21
-3.78346
0
LINE
8
BLACK
6
CONTINUOUS
10
2.71457
20
-3.78346
11
2.71457
21
-3.81102
0
LINE
8
BLACK
6
CONTINUOUS
10
2.71457
20
-3.81102
11
2.74213
21
-3.81102
0
LINE
8
BLACK
6
CONTINUOUS
10
2.74213
20
-3.81102
11
2.74213
21
-3.78346
0
LINE
8
BLACK
6
CONTINUOUS
10
2.71457
20
-3.83858
11
2.68701
21
-3.83858
0
LINE
8
BLACK
6
CONTINUOUS
10
2.68701
20
-3.83858
11
2.68701
21
-3.86614
0
LINE
8
BLACK
6
CONTINUOUS
10
2.68701
20
-3.86614
11
2.71457
21
-3.86614
0
LINE
8
BLACK
6
CONTINUOUS
10
2.71457
20
-3.86614
11
2.71457
21
-3.83858
0
LINE
8
BLACK
6
CONTINUOUS
10
2.71457
20
-3.75591
11
2.68701
21
-3.75591
0
LINE
8
BLACK
6
CONTINUOUS
10
2.68701
20
-3.75591
11
2.68701
21
-3.78346
0
LINE
8
BLACK
6
CONTINUOUS
10
2.68701
20
-3.78346
11
2.71457
21
-3.78346
0
LINE
8
BLACK
6
CONTINUOUS
10
2.71457
20
-3.78346
11
2.71457
21
-3.75591
0
LINE
8
BLACK
6
CONTINUOUS
10
2.74213
20
-3.83858
11
2.71457
21
-3.83858
0
LINE
8
BLACK
6
CONTINUOUS
10
2.71457
20
-3.83858
11
2.71457
21
-3.86614
0
LINE
8
BLACK
6
CONTINUOUS
10
2.71457
20
-3.86614
11
2.74213
21
-3.86614
0
LINE
8
BLACK
6
CONTINUOUS
10
2.74213
20
-3.86614
11
2.74213
21
-3.83858
0
LINE
8
BLACK
6
CONTINUOUS
10
2.76969
20
-3.81102
11
2.74213
21
-3.81102
0
LINE
8
BLACK
6
CONTINUOUS
10
2.74213
20
-3.81102
11
2.74213
21
-3.83858
0
LINE
8
BLACK
6
CONTINUOUS
10
2.74213
20
-3.83858
11
2.76969
21
-3.83858
0
LINE
8
BLACK
6
CONTINUOUS
10
2.76969
20
-3.83858
11
2.76969
21
-3.81102
0
LINE
8
BLACK
6
CONTINUOUS
10
2.76969
20
-3.78346
11
2.74213
21
-3.78346
0
LINE
8
BLACK
6
CONTINUOUS
10
2.74213
20
-3.78346
11
2.74213
21
-3.81102
0
LINE
8
BLACK
6
CONTINUOUS
10
2.74213
20
-3.81102
11
2.76969
21
-3.81102
0
LINE
8
BLACK
6
CONTINUOUS
10
2.76969
20
-3.81102
11
2.76969
21
-3.78346
0
LINE
8
BLACK
6
CONTINUOUS
10
2.76969
20
-3.75591
11
2.74213
21
-3.75591
0
LINE
8
BLACK
6
CONTINUOUS
10
2.74213
20
-3.75591
11
2.74213
21
-3.78346
0
LINE
8
BLACK
6
CONTINUOUS
10
2.74213
20
-3.78346
11
2.76969
21
-3.78346
0
LINE
8
BLACK
6
CONTINUOUS
10
2.76969
20
-3.78346
11
2.76969
21
-3.75591
0
LINE
8
BLACK
6
CONTINUOUS
10
2.74213
20
-3.81102
11
2.71457
21
-3.81102
0
LINE
8
BLACK
6
CONTINUOUS
10
2.71457
20
-3.81102
11
2.71457
21
-3.83858
0
LINE
8
BLACK
6
CONTINUOUS
10
2.71457
20
-3.83858
11
2.74213
21
-3.83858
0
LINE
8
BLACK
6
CONTINUOUS
10
2.74213
20
-3.83858
11
2.74213
21
-3.81102
0
LINE
8
BLACK
6
CONTINUOUS
10
2.71457
20
-3.40945
11
2.74213
21
-3.40945
0
LINE
8
BLACK
6
CONTINUOUS
10
2.74213
20
-3.40945
11
2.74213
21
-3.38189
0
LINE
8
BLACK
6
CONTINUOUS
10
2.74213
20
-3.38189
11
2.71457
21
-3.38189
0
LINE
8
BLACK
6
CONTINUOUS
10
2.71457
20
-3.38189
11
2.71457
21
-3.40945
0
LINE
8
BLACK
6
CONTINUOUS
10
2.71457
20
-3.38189
11
2.74213
21
-3.38189
0
LINE
8
BLACK
6
CONTINUOUS
10
2.74213
20
-3.38189
11
2.74213
21
-3.35433
0
LINE
8
BLACK
6
CONTINUOUS
10
2.74213
20
-3.35433
11
2.71457
21
-3.35433
0
LINE
8
BLACK
6
CONTINUOUS
10
2.71457
20
-3.35433
11
2.71457
21
-3.38189
0
LINE
8
BLACK
6
CONTINUOUS
10
2.68701
20
-3.38189
11
2.71457
21
-3.38189
0
LINE
8
BLACK
6
CONTINUOUS
10
2.71457
20
-3.38189
11
2.71457
21
-3.35433
0
LINE
8
BLACK
6
CONTINUOUS
10
2.71457
20
-3.35433
11
2.68701
21
-3.35433
0
LINE
8
BLACK
6
CONTINUOUS
10
2.68701
20
-3.35433
11
2.68701
21
-3.38189
0
LINE
8
BLACK
6
CONTINUOUS
10
2.74213
20
-3.32677
11
2.76969
21
-3.32677
0
LINE
8
BLACK
6
CONTINUOUS
10
2.76969
20
-3.32677
11
2.76969
21
-3.29921
0
LINE
8
BLACK
6
CONTINUOUS
10
2.76969
20
-3.29921
11
2.74213
21
-3.29921
0
LINE
8
BLACK
6
CONTINUOUS
10
2.74213
20
-3.29921
11
2.74213
21
-3.32677
0
LINE
8
BLACK
6
CONTINUOUS
10
2.68701
20
-3.35433
11
2.71457
21
-3.35433
0
LINE
8
BLACK
6
CONTINUOUS
10
2.71457
20
-3.35433
11
2.71457
21
-3.32677
0
LINE
8
BLACK
6
CONTINUOUS
10
2.71457
20
-3.32677
11
2.68701
21
-3.32677
0
LINE
8
BLACK
6
CONTINUOUS
10
2.68701
20
-3.32677
11
2.68701
21
-3.35433
0
LINE
8
BLACK
6
CONTINUOUS
10
2.71457
20
-3.32677
11
2.74213
21
-3.32677
0
LINE
8
BLACK
6
CONTINUOUS
10
2.74213
20
-3.32677
11
2.74213
21
-3.29921
0
LINE
8
BLACK
6
CONTINUOUS
10
2.74213
20
-3.29921
11
2.71457
21
-3.29921
0
LINE
8
BLACK
6
CONTINUOUS
10
2.71457
20
-3.29921
11
2.71457
21
-3.32677
0
LINE
8
BLACK
6
CONTINUOUS
10
2.68701
20
-3.40945
11
2.71457
21
-3.40945
0
LINE
8
BLACK
6
CONTINUOUS
10
2.71457
20
-3.40945
11
2.71457
21
-3.38189
0
LINE
8
BLACK
6
CONTINUOUS
10
2.71457
20
-3.38189
11
2.68701
21
-3.38189
0
LINE
8
BLACK
6
CONTINUOUS
10
2.68701
20
-3.38189
11
2.68701
21
-3.40945
0
LINE
8
BLACK
6
CONTINUOUS
10
2.74213
20
-3.35433
11
2.76969
21
-3.35433
0
LINE
8
BLACK
6
CONTINUOUS
10
2.76969
20
-3.35433
11
2.76969
21
-3.32677
0
LINE
8
BLACK
6
CONTINUOUS
10
2.76969
20
-3.32677
11
2.74213
21
-3.32677
0
LINE
8
BLACK
6
CONTINUOUS
10
2.74213
20
-3.32677
11
2.74213
21
-3.35433
0
LINE
8
BLACK
6
CONTINUOUS
10
2.74213
20
-3.38189
11
2.76969
21
-3.38189
0
LINE
8
BLACK
6
CONTINUOUS
10
2.76969
20
-3.38189
11
2.76969
21
-3.35433
0
LINE
8
BLACK
6
CONTINUOUS
10
2.76969
20
-3.35433
11
2.74213
21
-3.35433
0
LINE
8
BLACK
6
CONTINUOUS
10
2.74213
20
-3.35433
11
2.74213
21
-3.38189
0
LINE
8
BLACK
6
CONTINUOUS
10
2.68701
20
-3.32677
11
2.71457
21
-3.32677
0
LINE
8
BLACK
6
CONTINUOUS
10
2.71457
20
-3.32677
11
2.71457
21
-3.29921
0
LINE
8
BLACK
6
CONTINUOUS
10
2.71457
20
-3.29921
11
2.68701
21
-3.29921
0
LINE
8
BLACK
6
CONTINUOUS
10
2.68701
20
-3.29921
11
2.68701
21
-3.32677
0
LINE
8
BLACK
6
CONTINUOUS
10
2.74213
20
-3.40945
11
2.76969
21
-3.40945
0
LINE
8
BLACK
6
CONTINUOUS
10
2.76969
20
-3.40945
11
2.76969
21
-3.38189
0
LINE
8
BLACK
6
CONTINUOUS
10
2.76969
20
-3.38189
11
2.74213
21
-3.38189
0
LINE
8
BLACK
6
CONTINUOUS
10
2.74213
20
-3.38189
11
2.74213
21
-3.40945
0
LINE
8
BLACK
6
CONTINUOUS
10
2.71457
20
-3.35433
11
2.74213
21
-3.35433
0
LINE
8
BLACK
6
CONTINUOUS
10
2.74213
20
-3.35433
11
2.74213
21
-3.32677
0
LINE
8
BLACK
6
CONTINUOUS
10
2.74213
20
-3.32677
11
2.71457
21
-3.32677
0
LINE
8
BLACK
6
CONTINUOUS
10
2.71457
20
-3.32677
11
2.71457
21
-3.35433
0
LINE
8
BLACK
6
CONTINUOUS
10
3.15945
20
-3.55709
11
3.13189
21
-3.55709
0
LINE
8
BLACK
6
CONTINUOUS
10
3.13189
20
-3.55709
11
3.13189
21
-3.58465
0
LINE
8
BLACK
6
CONTINUOUS
10
3.13189
20
-3.58465
11
3.15945
21
-3.58465
0
LINE
8
BLACK
6
CONTINUOUS
10
3.15945
20
-3.58465
11
3.15945
21
-3.55709
0
LINE
8
BLACK
6
CONTINUOUS
10
3.18701
20
-3.55709
11
3.15945
21
-3.55709
0
LINE
8
BLACK
6
CONTINUOUS
10
3.15945
20
-3.55709
11
3.15945
21
-3.58465
0
LINE
8
BLACK
6
CONTINUOUS
10
3.15945
20
-3.58465
11
3.18701
21
-3.58465
0
LINE
8
BLACK
6
CONTINUOUS
10
3.18701
20
-3.58465
11
3.18701
21
-3.55709
0
LINE
8
BLACK
6
CONTINUOUS
10
3.15945
20
-3.52953
11
3.13189
21
-3.52953
0
LINE
8
BLACK
6
CONTINUOUS
10
3.13189
20
-3.52953
11
3.13189
21
-3.55709
0
LINE
8
BLACK
6
CONTINUOUS
10
3.13189
20
-3.55709
11
3.15945
21
-3.55709
0
LINE
8
BLACK
6
CONTINUOUS
10
3.15945
20
-3.55709
11
3.15945
21
-3.52953
0
LINE
8
BLACK
6
CONTINUOUS
10
3.18701
20
-3.58465
11
3.15945
21
-3.58465
0
LINE
8
BLACK
6
CONTINUOUS
10
3.15945
20
-3.58465
11
3.15945
21
-3.6122
0
LINE
8
BLACK
6
CONTINUOUS
10
3.15945
20
-3.6122
11
3.18701
21
-3.6122
0
LINE
8
BLACK
6
CONTINUOUS
10
3.18701
20
-3.6122
11
3.18701
21
-3.58465
0
LINE
8
BLACK
6
CONTINUOUS
10
3.21457
20
-3.58465
11
3.18701
21
-3.58465
0
LINE
8
BLACK
6
CONTINUOUS
10
3.18701
20
-3.58465
11
3.18701
21
-3.6122
0
LINE
8
BLACK
6
CONTINUOUS
10
3.18701
20
-3.6122
11
3.21457
21
-3.6122
0
LINE
8
BLACK
6
CONTINUOUS
10
3.21457
20
-3.6122
11
3.21457
21
-3.58465
0
LINE
8
BLACK
6
CONTINUOUS
10
3.21457
20
-3.6122
11
3.18701
21
-3.6122
0
LINE
8
BLACK
6
CONTINUOUS
10
3.18701
20
-3.6122
11
3.18701
21
-3.63976
0
LINE
8
BLACK
6
CONTINUOUS
10
3.18701
20
-3.63976
11
3.21457
21
-3.63976
0
LINE
8
BLACK
6
CONTINUOUS
10
3.21457
20
-3.63976
11
3.21457
21
-3.6122
0
LINE
8
BLACK
6
CONTINUOUS
10
3.15945
20
-3.58465
11
3.13189
21
-3.58465
0
LINE
8
BLACK
6
CONTINUOUS
10
3.13189
20
-3.58465
11
3.13189
21
-3.6122
0
LINE
8
BLACK
6
CONTINUOUS
10
3.13189
20
-3.6122
11
3.15945
21
-3.6122
0
LINE
8
BLACK
6
CONTINUOUS
10
3.15945
20
-3.6122
11
3.15945
21
-3.58465
0
LINE
8
BLACK
6
CONTINUOUS
10
3.18701
20
-3.52953
11
3.15945
21
-3.52953
0
LINE
8
BLACK
6
CONTINUOUS
10
3.15945
20
-3.52953
11
3.15945
21
-3.55709
0
LINE
8
BLACK
6
CONTINUOUS
10
3.15945
20
-3.55709
11
3.18701
21
-3.55709
0
LINE
8
BLACK
6
CONTINUOUS
10
3.18701
20
-3.55709
11
3.18701
21
-3.52953
0
LINE
8
BLACK
6
CONTINUOUS
10
3.15945
20
-3.6122
11
3.13189
21
-3.6122
0
LINE
8
BLACK
6
CONTINUOUS
10
3.13189
20
-3.6122
11
3.13189
21
-3.63976
0
LINE
8
BLACK
6
CONTINUOUS
10
3.13189
20
-3.63976
11
3.15945
21
-3.63976
0
LINE
8
BLACK
6
CONTINUOUS
10
3.15945
20
-3.63976
11
3.15945
21
-3.6122
0
LINE
8
BLACK
6
CONTINUOUS
10
3.21457
20
-3.55709
11
3.18701
21
-3.55709
0
LINE
8
BLACK
6
CONTINUOUS
10
3.18701
20
-3.55709
11
3.18701
21
-3.58465
0
LINE
8
BLACK
6
CONTINUOUS
10
3.18701
20
-3.58465
11
3.21457
21
-3.58465
0
LINE
8
BLACK
6
CONTINUOUS
10
3.21457
20
-3.58465
11
3.21457
21
-3.55709
0
LINE
8
BLACK
6
CONTINUOUS
10
3.21457
20
-3.52953
11
3.18701
21
-3.52953
0
LINE
8
BLACK
6
CONTINUOUS
10
3.18701
20
-3.52953
11
3.18701
21
-3.55709
0
LINE
8
BLACK
6
CONTINUOUS
10
3.18701
20
-3.55709
11
3.21457
21
-3.55709
0
LINE
8
BLACK
6
CONTINUOUS
10
3.21457
20
-3.55709
11
3.21457
21
-3.52953
0
LINE
8
BLACK
6
CONTINUOUS
10
3.18701
20
-3.6122
11
3.15945
21
-3.6122
0
LINE
8
BLACK
6
CONTINUOUS
10
3.15945
20
-3.6122
11
3.15945
21
-3.63976
0
LINE
8
BLACK
6
CONTINUOUS
10
3.15945
20
-3.63976
11
3.18701
21
-3.63976
0
LINE
8
BLACK
6
CONTINUOUS
10
3.18701
20
-3.63976
11
3.18701
21
-3.6122
0
LINE
8
BLACK
6
CONTINUOUS
10
3.13189
20
-3.86614
11
3.15945
21
-3.86614
0
LINE
8
BLACK
6
CONTINUOUS
10
3.15945
20
-3.86614
11
3.15945
21
-3.83858
0
LINE
8
BLACK
6
CONTINUOUS
10
3.15945
20
-3.83858
11
3.13189
21
-3.83858
0
LINE
8
BLACK
6
CONTINUOUS
10
3.13189
20
-3.83858
11
3.13189
21
-3.86614
0
LINE
8
BLACK
6
CONTINUOUS
10
3.13189
20
-3.83858
11
3.15945
21
-3.83858
0
LINE
8
BLACK
6
CONTINUOUS
10
3.15945
20
-3.83858
11
3.15945
21
-3.81102
0
LINE
8
BLACK
6
CONTINUOUS
10
3.15945
20
-3.81102
11
3.13189
21
-3.81102
0
LINE
8
BLACK
6
CONTINUOUS
10
3.13189
20
-3.81102
11
3.13189
21
-3.83858
0
LINE
8
BLACK
6
CONTINUOUS
10
3.15945
20
-3.83858
11
3.18701
21
-3.83858
0
LINE
8
BLACK
6
CONTINUOUS
10
3.18701
20
-3.83858
11
3.18701
21
-3.81102
0
LINE
8
BLACK
6
CONTINUOUS
10
3.18701
20
-3.81102
11
3.15945
21
-3.81102
0
LINE
8
BLACK
6
CONTINUOUS
10
3.15945
20
-3.81102
11
3.15945
21
-3.83858
0
LINE
8
BLACK
6
CONTINUOUS
10
3.13189
20
-3.78346
11
3.15945
21
-3.78346
0
LINE
8
BLACK
6
CONTINUOUS
10
3.15945
20
-3.78346
11
3.15945
21
-3.75591
0
LINE
8
BLACK
6
CONTINUOUS
10
3.15945
20
-3.75591
11
3.13189
21
-3.75591
0
LINE
8
BLACK
6
CONTINUOUS
10
3.13189
20
-3.75591
11
3.13189
21
-3.78346
0
LINE
8
BLACK
6
CONTINUOUS
10
3.13189
20
-3.81102
11
3.15945
21
-3.81102
0
LINE
8
BLACK
6
CONTINUOUS
10
3.15945
20
-3.81102
11
3.15945
21
-3.78346
0
LINE
8
BLACK
6
CONTINUOUS
10
3.15945
20
-3.78346
11
3.13189
21
-3.78346
0
LINE
8
BLACK
6
CONTINUOUS
10
3.13189
20
-3.78346
11
3.13189
21
-3.81102
0
LINE
8
BLACK
6
CONTINUOUS
10
3.18701
20
-3.78346
11
3.21457
21
-3.78346
0
LINE
8
BLACK
6
CONTINUOUS
10
3.21457
20
-3.78346
11
3.21457
21
-3.75591
0
LINE
8
BLACK
6
CONTINUOUS
10
3.21457
20
-3.75591
11
3.18701
21
-3.75591
0
LINE
8
BLACK
6
CONTINUOUS
10
3.18701
20
-3.75591
11
3.18701
21
-3.78346
0
LINE
8
BLACK
6
CONTINUOUS
10
3.15945
20
-3.86614
11
3.18701
21
-3.86614
0
LINE
8
BLACK
6
CONTINUOUS
10
3.18701
20
-3.86614
11
3.18701
21
-3.83858
0
LINE
8
BLACK
6
CONTINUOUS
10
3.18701
20
-3.83858
11
3.15945
21
-3.83858
0
LINE
8
BLACK
6
CONTINUOUS
10
3.15945
20
-3.83858
11
3.15945
21
-3.86614
0
LINE
8
BLACK
6
CONTINUOUS
10
3.18701
20
-3.81102
11
3.21457
21
-3.81102
0
LINE
8
BLACK
6
CONTINUOUS
10
3.21457
20
-3.81102
11
3.21457
21
-3.78346
0
LINE
8
BLACK
6
CONTINUOUS
10
3.21457
20
-3.78346
11
3.18701
21
-3.78346
0
LINE
8
BLACK
6
CONTINUOUS
10
3.18701
20
-3.78346
11
3.18701
21
-3.81102
0
LINE
8
BLACK
6
CONTINUOUS
10
3.15945
20
-3.81102
11
3.18701
21
-3.81102
0
LINE
8
BLACK
6
CONTINUOUS
10
3.18701
20
-3.81102
11
3.18701
21
-3.78346
0
LINE
8
BLACK
6
CONTINUOUS
10
3.18701
20
-3.78346
11
3.15945
21
-3.78346
0
LINE
8
BLACK
6
CONTINUOUS
10
3.15945
20
-3.78346
11
3.15945
21
-3.81102
0
LINE
8
BLACK
6
CONTINUOUS
10
3.18701
20
-3.86614
11
3.21457
21
-3.86614
0
LINE
8
BLACK
6
CONTINUOUS
10
3.21457
20
-3.86614
11
3.21457
21
-3.83858
0
LINE
8
BLACK
6
CONTINUOUS
10
3.21457
20
-3.83858
11
3.18701
21
-3.83858
0
LINE
8
BLACK
6
CONTINUOUS
10
3.18701
20
-3.83858
11
3.18701
21
-3.86614
0
LINE
8
BLACK
6
CONTINUOUS
10
3.15945
20
-3.78346
11
3.18701
21
-3.78346
0
LINE
8
BLACK
6
CONTINUOUS
10
3.18701
20
-3.78346
11
3.18701
21
-3.75591
0
LINE
8
BLACK
6
CONTINUOUS
10
3.18701
20
-3.75591
11
3.15945
21
-3.75591
0
LINE
8
BLACK
6
CONTINUOUS
10
3.15945
20
-3.75591
11
3.15945
21
-3.78346
0
LINE
8
BLACK
6
CONTINUOUS
10
3.18701
20
-3.83858
11
3.21457
21
-3.83858
0
LINE
8
BLACK
6
CONTINUOUS
10
3.21457
20
-3.83858
11
3.21457
21
-3.81102
0
LINE
8
BLACK
6
CONTINUOUS
10
3.21457
20
-3.81102
11
3.18701
21
-3.81102
0
LINE
8
BLACK
6
CONTINUOUS
10
3.18701
20
-3.81102
11
3.18701
21
-3.83858
0
LINE
8
BLACK
6
CONTINUOUS
10
3.13189
20
-3.38583
11
3.15945
21
-3.38583
0
LINE
8
BLACK
6
CONTINUOUS
10
3.15945
20
-3.38583
11
3.15945
21
-3.35827
0
LINE
8
BLACK
6
CONTINUOUS
10
3.15945
20
-3.35827
11
3.13189
21
-3.35827
0
LINE
8
BLACK
6
CONTINUOUS
10
3.13189
20
-3.35827
11
3.13189
21
-3.38583
0
LINE
8
BLACK
6
CONTINUOUS
10
3.15945
20
-3.38583
11
3.18701
21
-3.38583
0
LINE
8
BLACK
6
CONTINUOUS
10
3.18701
20
-3.38583
11
3.18701
21
-3.35827
0
LINE
8
BLACK
6
CONTINUOUS
10
3.18701
20
-3.35827
11
3.15945
21
-3.35827
0
LINE
8
BLACK
6
CONTINUOUS
10
3.15945
20
-3.35827
11
3.15945
21
-3.38583
0
LINE
8
BLACK
6
CONTINUOUS
10
3.18701
20
-3.41339
11
3.21457
21
-3.41339
0
LINE
8
BLACK
6
CONTINUOUS
10
3.21457
20
-3.41339
11
3.21457
21
-3.38583
0
LINE
8
BLACK
6
CONTINUOUS
10
3.21457
20
-3.38583
11
3.18701
21
-3.38583
0
LINE
8
BLACK
6
CONTINUOUS
10
3.18701
20
-3.38583
11
3.18701
21
-3.41339
0
LINE
8
BLACK
6
CONTINUOUS
10
3.15945
20
-3.41339
11
3.18701
21
-3.41339
0
LINE
8
BLACK
6
CONTINUOUS
10
3.18701
20
-3.41339
11
3.18701
21
-3.38583
0
LINE
8
BLACK
6
CONTINUOUS
10
3.18701
20
-3.38583
11
3.15945
21
-3.38583
0
LINE
8
BLACK
6
CONTINUOUS
10
3.15945
20
-3.38583
11
3.15945
21
-3.41339
0
LINE
8
BLACK
6
CONTINUOUS
10
3.18701
20
-3.38583
11
3.21457
21
-3.38583
0
LINE
8
BLACK
6
CONTINUOUS
10
3.21457
20
-3.38583
11
3.21457
21
-3.35827
0
LINE
8
BLACK
6
CONTINUOUS
10
3.21457
20
-3.35827
11
3.18701
21
-3.35827
0
LINE
8
BLACK
6
CONTINUOUS
10
3.18701
20
-3.35827
11
3.18701
21
-3.38583
0
LINE
8
BLACK
6
CONTINUOUS
10
3.15945
20
-3.35827
11
3.18701
21
-3.35827
0
LINE
8
BLACK
6
CONTINUOUS
10
3.18701
20
-3.35827
11
3.18701
21
-3.33071
0
LINE
8
BLACK
6
CONTINUOUS
10
3.18701
20
-3.33071
11
3.15945
21
-3.33071
0
LINE
8
BLACK
6
CONTINUOUS
10
3.15945
20
-3.33071
11
3.15945
21
-3.35827
0
LINE
8
BLACK
6
CONTINUOUS
10
3.18701
20
-3.33071
11
3.21457
21
-3.33071
0
LINE
8
BLACK
6
CONTINUOUS
10
3.21457
20
-3.33071
11
3.21457
21
-3.30315
0
LINE
8
BLACK
6
CONTINUOUS
10
3.21457
20
-3.30315
11
3.18701
21
-3.30315
0
LINE
8
BLACK
6
CONTINUOUS
10
3.18701
20
-3.30315
11
3.18701
21
-3.33071
0
LINE
8
BLACK
6
CONTINUOUS
10
3.18701
20
-3.35827
11
3.21457
21
-3.35827
0
LINE
8
BLACK
6
CONTINUOUS
10
3.21457
20
-3.35827
11
3.21457
21
-3.33071
0
LINE
8
BLACK
6
CONTINUOUS
10
3.21457
20
-3.33071
11
3.18701
21
-3.33071
0
LINE
8
BLACK
6
CONTINUOUS
10
3.18701
20
-3.33071
11
3.18701
21
-3.35827
0
LINE
8
BLACK
6
CONTINUOUS
10
3.13189
20
-3.33071
11
3.15945
21
-3.33071
0
LINE
8
BLACK
6
CONTINUOUS
10
3.15945
20
-3.33071
11
3.15945
21
-3.30315
0
LINE
8
BLACK
6
CONTINUOUS
10
3.15945
20
-3.30315
11
3.13189
21
-3.30315
0
LINE
8
BLACK
6
CONTINUOUS
10
3.13189
20
-3.30315
11
3.13189
21
-3.33071
0
LINE
8
BLACK
6
CONTINUOUS
10
3.13189
20
-3.41339
11
3.15945
21
-3.41339
0
LINE
8
BLACK
6
CONTINUOUS
10
3.15945
20
-3.41339
11
3.15945
21
-3.38583
0
LINE
8
BLACK
6
CONTINUOUS
10
3.15945
20
-3.38583
11
3.13189
21
-3.38583
0
LINE
8
BLACK
6
CONTINUOUS
10
3.13189
20
-3.38583
11
3.13189
21
-3.41339
0
LINE
8
BLACK
6
CONTINUOUS
10
3.15945
20
-3.33071
11
3.18701
21
-3.33071
0
LINE
8
BLACK
6
CONTINUOUS
10
3.18701
20
-3.33071
11
3.18701
21
-3.30315
0
LINE
8
BLACK
6
CONTINUOUS
10
3.18701
20
-3.30315
11
3.15945
21
-3.30315
0
LINE
8
BLACK
6
CONTINUOUS
10
3.15945
20
-3.30315
11
3.15945
21
-3.33071
0
LINE
8
BLACK
6
CONTINUOUS
10
3.13189
20
-3.35827
11
3.15945
21
-3.35827
0
LINE
8
BLACK
6
CONTINUOUS
10
3.15945
20
-3.35827
11
3.15945
21
-3.33071
0
LINE
8
BLACK
6
CONTINUOUS
10
3.15945
20
-3.33071
11
3.13189
21
-3.33071
0
LINE
8
BLACK
6
CONTINUOUS
10
3.13189
20
-3.33071
11
3.13189
21
-3.35827
0
LINE
8
BLACK
6
CONTINUOUS
10
4.96752
20
-3.8878
11
4.99705
21
-3.8878
0
LINE
8
BLACK
6
CONTINUOUS
10
4.99705
20
-3.8878
11
4.99705
21
-3.8563
0
LINE
8
BLACK
6
CONTINUOUS
10
4.99705
20
-3.8563
11
4.96752
21
-3.8563
0
LINE
8
BLACK
6
CONTINUOUS
10
4.96752
20
-3.8563
11
4.96752
21
-3.8878
0
LINE
8
BLACK
6
CONTINUOUS
10
4.96752
20
-3.82874
11
4.99705
21
-3.82874
0
LINE
8
BLACK
6
CONTINUOUS
10
4.99705
20
-3.82874
11
4.99705
21
-3.79724
0
LINE
8
BLACK
6
CONTINUOUS
10
4.99705
20
-3.79724
11
4.96752
21
-3.79724
0
LINE
8
BLACK
6
CONTINUOUS
10
4.96752
20
-3.79724
11
4.96752
21
-3.82874
0
LINE
8
BLACK
6
CONTINUOUS
10
5.02756
20
-3.87992
11
5.06299
21
-3.87992
0
LINE
8
BLACK
6
CONTINUOUS
10
5.06299
20
-3.87992
11
5.06299
21
-3.86024
0
LINE
8
BLACK
6
CONTINUOUS
10
5.06299
20
-3.86024
11
5.02756
21
-3.86024
0
LINE
8
BLACK
6
CONTINUOUS
10
5.02756
20
-3.86024
11
5.02756
21
-3.87992
0
LINE
8
BLACK
6
CONTINUOUS
10
5.02756
20
-3.82087
11
5.06299
21
-3.82087
0
LINE
8
BLACK
6
CONTINUOUS
10
5.06299
20
-3.82087
11
5.06299
21
-3.80118
0
LINE
8
BLACK
6
CONTINUOUS
10
5.06299
20
-3.80118
11
5.02756
21
-3.80118
0
LINE
8
BLACK
6
CONTINUOUS
10
5.02756
20
-3.80118
11
5.02756
21
-3.82087
0
LINE
8
BLACK
6
CONTINUOUS
10
3.13386
20
-3.45079
11
3.13386
21
-3.48622
0
LINE
8
BLACK
6
CONTINUOUS
10
3.13386
20
-3.48622
11
3.15354
21
-3.48622
0
LINE
8
BLACK
6
CONTINUOUS
10
3.15354
20
-3.48622
11
3.15354
21
-3.45079
0
LINE
8
BLACK
6
CONTINUOUS
10
3.15354
20
-3.45079
11
3.13386
21
-3.45079
0
LINE
8
BLACK
6
CONTINUOUS
10
3.19291
20
-3.45079
11
3.19291
21
-3.48622
0
LINE
8
BLACK
6
CONTINUOUS
10
3.19291
20
-3.48622
11
3.2126
21
-3.48622
0
LINE
8
BLACK
6
CONTINUOUS
10
3.2126
20
-3.48622
11
3.2126
21
-3.45079
0
LINE
8
BLACK
6
CONTINUOUS
10
3.2126
20
-3.45079
11
3.19291
21
-3.45079
0
LINE
8
BLACK
6
CONTINUOUS
10
4.97835
20
-3.26575
11
4.94291
21
-3.26575
0
LINE
8
BLACK
6
CONTINUOUS
10
4.94291
20
-3.26575
11
4.94291
21
-3.28543
0
LINE
8
BLACK
6
CONTINUOUS
10
4.94291
20
-3.28543
11
4.97835
21
-3.28543
0
LINE
8
BLACK
6
CONTINUOUS
10
4.97835
20
-3.28543
11
4.97835
21
-3.26575
0
LINE
8
BLACK
6
CONTINUOUS
10
4.97835
20
-3.3248
11
4.94291
21
-3.3248
0
LINE
8
BLACK
6
CONTINUOUS
10
4.94291
20
-3.3248
11
4.94291
21
-3.34449
0
LINE
8
BLACK
6
CONTINUOUS
10
4.94291
20
-3.34449
11
4.97835
21
-3.34449
0
LINE
8
BLACK
6
CONTINUOUS
10
4.97835
20
-3.34449
11
4.97835
21
-3.3248
0
LINE
8
BLACK
6
CONTINUOUS
10
5.13681
20
-3.88583
11
5.16634
21
-3.88583
0
LINE
8
BLACK
6
CONTINUOUS
10
5.16634
20
-3.88583
11
5.16634
21
-3.85433
0
LINE
8
BLACK
6
CONTINUOUS
10
5.16634
20
-3.85433
11
5.13681
21
-3.85433
0
LINE
8
BLACK
6
CONTINUOUS
10
5.13681
20
-3.85433
11
5.13681
21
-3.88583
0
LINE
8
BLACK
6
CONTINUOUS
10
5.13681
20
-3.82677
11
5.16634
21
-3.82677
0
LINE
8
BLACK
6
CONTINUOUS
10
5.16634
20
-3.82677
11
5.16634
21
-3.79528
0
LINE
8
BLACK
6
CONTINUOUS
10
5.16634
20
-3.79528
11
5.13681
21
-3.79528
0
LINE
8
BLACK
6
CONTINUOUS
10
5.13681
20
-3.79528
11
5.13681
21
-3.82677
0
LINE
8
BLACK
6
CONTINUOUS
10
5.08268
20
-3.87992
11
5.11811
21
-3.87992
0
LINE
8
BLACK
6
CONTINUOUS
10
5.11811
20
-3.87992
11
5.11811
21
-3.86024
0
LINE
8
BLACK
6
CONTINUOUS
10
5.11811
20
-3.86024
11
5.08268
21
-3.86024
0
LINE
8
BLACK
6
CONTINUOUS
10
5.08268
20
-3.86024
11
5.08268
21
-3.87992
0
LINE
8
BLACK
6
CONTINUOUS
10
5.08268
20
-3.82087
11
5.11811
21
-3.82087
0
LINE
8
BLACK
6
CONTINUOUS
10
5.11811
20
-3.82087
11
5.11811
21
-3.80118
0
LINE
8
BLACK
6
CONTINUOUS
10
5.11811
20
-3.80118
11
5.08268
21
-3.80118
0
LINE
8
BLACK
6
CONTINUOUS
10
5.08268
20
-3.80118
11
5.08268
21
-3.82087
0
LINE
8
BLACK
6
CONTINUOUS
10
3.72047
20
-3.4626
11
3.72047
21
-3.39567
0
LINE
8
BLACK
6
CONTINUOUS
10
3.72047
20
-3.39567
11
3.68504
21
-3.39567
0
LINE
8
BLACK
6
CONTINUOUS
10
3.68504
20
-3.39567
11
3.68504
21
-3.4626
0
LINE
8
BLACK
6
CONTINUOUS
10
3.68504
20
-3.4626
11
3.72047
21
-3.4626
0
LINE
8
BLACK
6
CONTINUOUS
10
3.6063
20
-3.4626
11
3.6063
21
-3.39567
0
LINE
8
BLACK
6
CONTINUOUS
10
3.6063
20
-3.39567
11
3.57087
21
-3.39567
0
LINE
8
BLACK
6
CONTINUOUS
10
3.57087
20
-3.39567
11
3.57087
21
-3.4626
0
LINE
8
BLACK
6
CONTINUOUS
10
3.57087
20
-3.4626
11
3.6063
21
-3.4626
0
LINE
8
BLACK
6
CONTINUOUS
10
4.35827
20
-3.38583
11
4.35827
21
-3.3189
0
LINE
8
BLACK
6
CONTINUOUS
10
4.35827
20
-3.3189
11
4.32283
21
-3.3189
0
LINE
8
BLACK
6
CONTINUOUS
10
4.32283
20
-3.3189
11
4.32283
21
-3.38583
0
LINE
8
BLACK
6
CONTINUOUS
10
4.32283
20
-3.38583
11
4.35827
21
-3.38583
0
LINE
8
BLACK
6
CONTINUOUS
10
4.24409
20
-3.38583
11
4.24409
21
-3.3189
0
LINE
8
BLACK
6
CONTINUOUS
10
4.24409
20
-3.3189
11
4.20866
21
-3.3189
0
LINE
8
BLACK
6
CONTINUOUS
10
4.20866
20
-3.3189
11
4.20866
21
-3.38583
0
LINE
8
BLACK
6
CONTINUOUS
10
4.20866
20
-3.38583
11
4.24409
21
-3.38583
0
LINE
8
BLACK
6
CONTINUOUS
10
3.72047
20
-3.69291
11
3.72047
21
-3.62598
0
LINE
8
BLACK
6
CONTINUOUS
10
3.72047
20
-3.62598
11
3.68504
21
-3.62598
0
LINE
8
BLACK
6
CONTINUOUS
10
3.68504
20
-3.62598
11
3.68504
21
-3.69291
0
LINE
8
BLACK
6
CONTINUOUS
10
3.68504
20
-3.69291
11
3.72047
21
-3.69291
0
LINE
8
BLACK
6
CONTINUOUS
10
3.6063
20
-3.69291
11
3.6063
21
-3.62598
0
LINE
8
BLACK
6
CONTINUOUS
10
3.6063
20
-3.62598
11
3.57087
21
-3.62598
0
LINE
8
BLACK
6
CONTINUOUS
10
3.57087
20
-3.62598
11
3.57087
21
-3.69291
0
LINE
8
BLACK
6
CONTINUOUS
10
3.57087
20
-3.69291
11
3.6063
21
-3.69291
0
LINE
8
BLACK
6
CONTINUOUS
10
3.72047
20
-3.38583
11
3.72047
21
-3.3189
0
LINE
8
BLACK
6
CONTINUOUS
10
3.72047
20
-3.3189
11
3.68504
21
-3.3189
0
LINE
8
BLACK
6
CONTINUOUS
10
3.68504
20
-3.3189
11
3.68504
21
-3.38583
0
LINE
8
BLACK
6
CONTINUOUS
10
3.68504
20
-3.38583
11
3.72047
21
-3.38583
0
LINE
8
BLACK
6
CONTINUOUS
10
3.6063
20
-3.38583
11
3.6063
21
-3.3189
0
LINE
8
BLACK
6
CONTINUOUS
10
3.6063
20
-3.3189
11
3.57087
21
-3.3189
0
LINE
8
BLACK
6
CONTINUOUS
10
3.57087
20
-3.3189
11
3.57087
21
-3.38583
0
LINE
8
BLACK
6
CONTINUOUS
10
3.57087
20
-3.38583
11
3.6063
21
-3.38583
0
LINE
8
BLACK
6
CONTINUOUS
10
4.04921
20
-3.47244
11
4.04921
21
-3.53937
0
LINE
8
BLACK
6
CONTINUOUS
10
4.04921
20
-3.53937
11
4.08465
21
-3.53937
0
LINE
8
BLACK
6
CONTINUOUS
10
4.08465
20
-3.53937
11
4.08465
21
-3.47244
0
LINE
8
BLACK
6
CONTINUOUS
10
4.08465
20
-3.47244
11
4.04921
21
-3.47244
0
LINE
8
BLACK
6
CONTINUOUS
10
4.16339
20
-3.47244
11
4.16339
21
-3.53937
0
LINE
8
BLACK
6
CONTINUOUS
10
4.16339
20
-3.53937
11
4.19882
21
-3.53937
0
LINE
8
BLACK
6
CONTINUOUS
10
4.19882
20
-3.53937
11
4.19882
21
-3.47244
0
LINE
8
BLACK
6
CONTINUOUS
10
4.19882
20
-3.47244
11
4.16339
21
-3.47244
0
LINE
8
BLACK
6
CONTINUOUS
10
4.35827
20
-3.4626
11
4.35827
21
-3.39567
0
LINE
8
BLACK
6
CONTINUOUS
10
4.35827
20
-3.39567
11
4.32283
21
-3.39567
0
LINE
8
BLACK
6
CONTINUOUS
10
4.32283
20
-3.39567
11
4.32283
21
-3.4626
0
LINE
8
BLACK
6
CONTINUOUS
10
4.32283
20
-3.4626
11
4.35827
21
-3.4626
0
LINE
8
BLACK
6
CONTINUOUS
10
4.24409
20
-3.4626
11
4.24409
21
-3.39567
0
LINE
8
BLACK
6
CONTINUOUS
10
4.24409
20
-3.39567
11
4.20866
21
-3.39567
0
LINE
8
BLACK
6
CONTINUOUS
10
4.20866
20
-3.39567
11
4.20866
21
-3.4626
0
LINE
8
BLACK
6
CONTINUOUS
10
4.20866
20
-3.4626
11
4.24409
21
-3.4626
0
LINE
8
BLACK
6
CONTINUOUS
10
3.72047
20
-3.53937
11
3.72047
21
-3.47244
0
LINE
8
BLACK
6
CONTINUOUS
10
3.72047
20
-3.47244
11
3.68504
21
-3.47244
0
LINE
8
BLACK
6
CONTINUOUS
10
3.68504
20
-3.47244
11
3.68504
21
-3.53937
0
LINE
8
BLACK
6
CONTINUOUS
10
3.68504
20
-3.53937
11
3.72047
21
-3.53937
0
LINE
8
BLACK
6
CONTINUOUS
10
3.6063
20
-3.53937
11
3.6063
21
-3.47244
0
LINE
8
BLACK
6
CONTINUOUS
10
3.6063
20
-3.47244
11
3.57087
21
-3.47244
0
LINE
8
BLACK
6
CONTINUOUS
10
3.57087
20
-3.47244
11
3.57087
21
-3.53937
0
LINE
8
BLACK
6
CONTINUOUS
10
3.57087
20
-3.53937
11
3.6063
21
-3.53937
0
LINE
8
BLACK
6
CONTINUOUS
10
3.48799
20
-3.52244
11
3.48799
21
-3.49291
0
LINE
8
BLACK
6
CONTINUOUS
10
3.48799
20
-3.49291
11
3.44862
21
-3.49291
0
LINE
8
BLACK
6
CONTINUOUS
10
3.44862
20
-3.49291
11
3.44862
21
-3.52244
0
LINE
8
BLACK
6
CONTINUOUS
10
3.44862
20
-3.52244
11
3.48799
21
-3.52244
0
LINE
8
BLACK
6
CONTINUOUS
10
3.48799
20
-3.57244
11
3.48799
21
-3.54291
0
LINE
8
BLACK
6
CONTINUOUS
10
3.48799
20
-3.54291
11
3.44862
21
-3.54291
0
LINE
8
BLACK
6
CONTINUOUS
10
3.44862
20
-3.54291
11
3.44862
21
-3.57244
0
LINE
8
BLACK
6
CONTINUOUS
10
3.44862
20
-3.57244
11
3.48799
21
-3.57244
0
LINE
8
BLACK
6
CONTINUOUS
10
3.48799
20
-3.62244
11
3.48799
21
-3.59291
0
LINE
8
BLACK
6
CONTINUOUS
10
3.48799
20
-3.59291
11
3.44862
21
-3.59291
0
LINE
8
BLACK
6
CONTINUOUS
10
3.44862
20
-3.59291
11
3.44862
21
-3.62244
0
LINE
8
BLACK
6
CONTINUOUS
10
3.44862
20
-3.62244
11
3.48799
21
-3.62244
0
LINE
8
BLACK
6
CONTINUOUS
10
3.48799
20
-3.67244
11
3.48799
21
-3.64291
0
LINE
8
BLACK
6
CONTINUOUS
10
3.48799
20
-3.64291
11
3.44862
21
-3.64291
0
LINE
8
BLACK
6
CONTINUOUS
10
3.44862
20
-3.64291
11
3.44862
21
-3.67244
0
LINE
8
BLACK
6
CONTINUOUS
10
3.44862
20
-3.67244
11
3.48799
21
-3.67244
0
LINE
8
BLACK
6
CONTINUOUS
10
3.3939
20
-3.49291
11
3.3939
21
-3.47343
0
LINE
8
BLACK
6
CONTINUOUS
10
3.3939
20
-3.47343
11
3.35827
21
-3.47343
0
LINE
8
BLACK
6
CONTINUOUS
10
3.35827
20
-3.47343
11
3.35827
21
-3.49291
0
LINE
8
BLACK
6
CONTINUOUS
10
3.35827
20
-3.49291
11
3.3939
21
-3.49291
0
LINE
8
BLACK
6
CONTINUOUS
10
3.24902
20
-3.52244
11
3.24902
21
-3.49291
0
LINE
8
BLACK
6
CONTINUOUS
10
3.24902
20
-3.49291
11
3.23228
21
-3.49291
0
LINE
8
BLACK
6
CONTINUOUS
10
3.23228
20
-3.49291
11
3.23228
21
-3.52244
0
LINE
8
BLACK
6
CONTINUOUS
10
3.23228
20
-3.52244
11
3.24902
21
-3.52244
0
LINE
8
BLACK
6
CONTINUOUS
10
3.24902
20
-3.67244
11
3.24902
21
-3.64291
0
LINE
8
BLACK
6
CONTINUOUS
10
3.24902
20
-3.64291
11
3.23228
21
-3.64291
0
LINE
8
BLACK
6
CONTINUOUS
10
3.23228
20
-3.64291
11
3.23228
21
-3.67244
0
LINE
8
BLACK
6
CONTINUOUS
10
3.23228
20
-3.67244
11
3.24902
21
-3.67244
0
LINE
8
BLACK
6
CONTINUOUS
10
3.3939
20
-3.69193
11
3.3939
21
-3.67244
0
LINE
8
BLACK
6
CONTINUOUS
10
3.3939
20
-3.67244
11
3.35827
21
-3.67244
0
LINE
8
BLACK
6
CONTINUOUS
10
3.35827
20
-3.67244
11
3.35827
21
-3.69193
0
LINE
8
BLACK
6
CONTINUOUS
10
3.35827
20
-3.69193
11
3.3939
21
-3.69193
0
LINE
8
BLACK
6
CONTINUOUS
10
3.41063
20
-3.67244
11
3.41063
21
-3.49291
0
LINE
8
BLACK
6
CONTINUOUS
10
3.41063
20
-3.49291
11
3.24902
21
-3.49291
0
LINE
8
BLACK
6
CONTINUOUS
10
3.24902
20
-3.49291
11
3.24902
21
-3.67244
0
LINE
8
BLACK
6
CONTINUOUS
10
3.24902
20
-3.67244
11
3.41063
21
-3.67244
0
LINE
8
BLACK
6
CONTINUOUS
10
3.48819
20
-3.75079
11
3.48819
21
-3.72126
0
LINE
8
BLACK
6
CONTINUOUS
10
3.48819
20
-3.72126
11
3.44882
21
-3.72126
0
LINE
8
BLACK
6
CONTINUOUS
10
3.44882
20
-3.72126
11
3.44882
21
-3.75079
0
LINE
8
BLACK
6
CONTINUOUS
10
3.44882
20
-3.75079
11
3.48819
21
-3.75079
0
LINE
8
BLACK
6
CONTINUOUS
10
3.48819
20
-3.80079
11
3.48819
21
-3.77126
0
LINE
8
BLACK
6
CONTINUOUS
10
3.48819
20
-3.77126
11
3.44882
21
-3.77126
0
LINE
8
BLACK
6
CONTINUOUS
10
3.44882
20
-3.77126
11
3.44882
21
-3.80079
0
LINE
8
BLACK
6
CONTINUOUS
10
3.44882
20
-3.80079
11
3.48819
21
-3.80079
0
LINE
8
BLACK
6
CONTINUOUS
10
3.48819
20
-3.90079
11
3.48819
21
-3.87126
0
LINE
8
BLACK
6
CONTINUOUS
10
3.48819
20
-3.87126
11
3.44882
21
-3.87126
0
LINE
8
BLACK
6
CONTINUOUS
10
3.44882
20
-3.87126
11
3.44882
21
-3.90079
0
LINE
8
BLACK
6
CONTINUOUS
10
3.44882
20
-3.90079
11
3.48819
21
-3.90079
0
LINE
8
BLACK
6
CONTINUOUS
10
3.48819
20
-3.85079
11
3.48819
21
-3.82126
0
LINE
8
BLACK
6
CONTINUOUS
10
3.48819
20
-3.82126
11
3.44882
21
-3.82126
0
LINE
8
BLACK
6
CONTINUOUS
10
3.44882
20
-3.82126
11
3.44882
21
-3.85079
0
LINE
8
BLACK
6
CONTINUOUS
10
3.44882
20
-3.85079
11
3.48819
21
-3.85079
0
LINE
8
BLACK
6
CONTINUOUS
10
3.24921
20
-3.90079
11
3.24921
21
-3.87126
0
LINE
8
BLACK
6
CONTINUOUS
10
3.24921
20
-3.87126
11
3.23248
21
-3.87126
0
LINE
8
BLACK
6
CONTINUOUS
10
3.23248
20
-3.87126
11
3.23248
21
-3.90079
0
LINE
8
BLACK
6
CONTINUOUS
10
3.23248
20
-3.90079
11
3.24921
21
-3.90079
0
LINE
8
BLACK
6
CONTINUOUS
10
3.41083
20
-3.90079
11
3.41083
21
-3.72126
0
LINE
8
BLACK
6
CONTINUOUS
10
3.41083
20
-3.72126
11
3.24921
21
-3.72126
0
LINE
8
BLACK
6
CONTINUOUS
10
3.24921
20
-3.72126
11
3.24921
21
-3.90079
0
LINE
8
BLACK
6
CONTINUOUS
10
3.24921
20
-3.90079
11
3.41083
21
-3.90079
0
LINE
8
BLACK
6
CONTINUOUS
10
3.39409
20
-3.92028
11
3.39409
21
-3.90079
0
LINE
8
BLACK
6
CONTINUOUS
10
3.39409
20
-3.90079
11
3.35846
21
-3.90079
0
LINE
8
BLACK
6
CONTINUOUS
10
3.35846
20
-3.90079
11
3.35846
21
-3.92028
0
LINE
8
BLACK
6
CONTINUOUS
10
3.35846
20
-3.92028
11
3.39409
21
-3.92028
0
LINE
8
BLACK
6
CONTINUOUS
10
3.24921
20
-3.75079
11
3.24921
21
-3.72126
0
LINE
8
BLACK
6
CONTINUOUS
10
3.24921
20
-3.72126
11
3.23248
21
-3.72126
0
LINE
8
BLACK
6
CONTINUOUS
10
3.23248
20
-3.72126
11
3.23248
21
-3.75079
0
LINE
8
BLACK
6
CONTINUOUS
10
3.23248
20
-3.75079
11
3.24921
21
-3.75079
0
LINE
8
BLACK
6
CONTINUOUS
10
3.39409
20
-3.72126
11
3.39409
21
-3.70177
0
LINE
8
BLACK
6
CONTINUOUS
10
3.39409
20
-3.70177
11
3.35846
21
-3.70177
0
LINE
8
BLACK
6
CONTINUOUS
10
3.35846
20
-3.70177
11
3.35846
21
-3.72126
0
LINE
8
BLACK
6
CONTINUOUS
10
3.35846
20
-3.72126
11
3.39409
21
-3.72126
0
LINE
8
BLACK
6
CONTINUOUS
10
3.48819
20
-3.29409
11
3.48819
21
-3.26457
0
LINE
8
BLACK
6
CONTINUOUS
10
3.48819
20
-3.26457
11
3.44882
21
-3.26457
0
LINE
8
BLACK
6
CONTINUOUS
10
3.44882
20
-3.26457
11
3.44882
21
-3.29409
0
LINE
8
BLACK
6
CONTINUOUS
10
3.44882
20
-3.29409
11
3.48819
21
-3.29409
0
LINE
8
BLACK
6
CONTINUOUS
10
3.48819
20
-3.34409
11
3.48819
21
-3.31457
0
LINE
8
BLACK
6
CONTINUOUS
10
3.48819
20
-3.31457
11
3.44882
21
-3.31457
0
LINE
8
BLACK
6
CONTINUOUS
10
3.44882
20
-3.31457
11
3.44882
21
-3.34409
0
LINE
8
BLACK
6
CONTINUOUS
10
3.44882
20
-3.34409
11
3.48819
21
-3.34409
0
LINE
8
BLACK
6
CONTINUOUS
10
3.48819
20
-3.39409
11
3.48819
21
-3.36457
0
LINE
8
BLACK
6
CONTINUOUS
10
3.48819
20
-3.36457
11
3.44882
21
-3.36457
0
LINE
8
BLACK
6
CONTINUOUS
10
3.44882
20
-3.36457
11
3.44882
21
-3.39409
0
LINE
8
BLACK
6
CONTINUOUS
10
3.44882
20
-3.39409
11
3.48819
21
-3.39409
0
LINE
8
BLACK
6
CONTINUOUS
10
3.48819
20
-3.44409
11
3.48819
21
-3.41457
0
LINE
8
BLACK
6
CONTINUOUS
10
3.48819
20
-3.41457
11
3.44882
21
-3.41457
0
LINE
8
BLACK
6
CONTINUOUS
10
3.44882
20
-3.41457
11
3.44882
21
-3.44409
0
LINE
8
BLACK
6
CONTINUOUS
10
3.44882
20
-3.44409
11
3.48819
21
-3.44409
0
LINE
8
BLACK
6
CONTINUOUS
10
3.41083
20
-3.44409
11
3.41083
21
-3.26457
0
LINE
8
BLACK
6
CONTINUOUS
10
3.41083
20
-3.26457
11
3.24921
21
-3.26457
0
LINE
8
BLACK
6
CONTINUOUS
10
3.24921
20
-3.26457
11
3.24921
21
-3.44409
0
LINE
8
BLACK
6
CONTINUOUS
10
3.24921
20
-3.44409
11
3.41083
21
-3.44409
0
LINE
8
BLACK
6
CONTINUOUS
10
3.24921
20
-3.44409
11
3.24921
21
-3.41457
0
LINE
8
BLACK
6
CONTINUOUS
10
3.24921
20
-3.41457
11
3.23248
21
-3.41457
0
LINE
8
BLACK
6
CONTINUOUS
10
3.23248
20
-3.41457
11
3.23248
21
-3.44409
0
LINE
8
BLACK
6
CONTINUOUS
10
3.23248
20
-3.44409
11
3.24921
21
-3.44409
0
LINE
8
BLACK
6
CONTINUOUS
10
3.39409
20
-3.26457
11
3.39409
21
-3.24508
0
LINE
8
BLACK
6
CONTINUOUS
10
3.39409
20
-3.24508
11
3.35846
21
-3.24508
0
LINE
8
BLACK
6
CONTINUOUS
10
3.35846
20
-3.24508
11
3.35846
21
-3.26457
0
LINE
8
BLACK
6
CONTINUOUS
10
3.35846
20
-3.26457
11
3.39409
21
-3.26457
0
LINE
8
BLACK
6
CONTINUOUS
10
3.39409
20
-3.46358
11
3.39409
21
-3.44409
0
LINE
8
BLACK
6
CONTINUOUS
10
3.39409
20
-3.44409
11
3.35846
21
-3.44409
0
LINE
8
BLACK
6
CONTINUOUS
10
3.35846
20
-3.44409
11
3.35846
21
-3.46358
0
LINE
8
BLACK
6
CONTINUOUS
10
3.35846
20
-3.46358
11
3.39409
21
-3.46358
0
LINE
8
BLACK
6
CONTINUOUS
10
3.24921
20
-3.29409
11
3.24921
21
-3.26457
0
LINE
8
BLACK
6
CONTINUOUS
10
3.24921
20
-3.26457
11
3.23248
21
-3.26457
0
LINE
8
BLACK
6
CONTINUOUS
10
3.23248
20
-3.26457
11
3.23248
21
-3.29409
0
LINE
8
BLACK
6
CONTINUOUS
10
3.23248
20
-3.29409
11
3.24921
21
-3.29409
0
LINE
8
BLACK
6
CONTINUOUS
10
4.54626
20
-3.6752
11
4.51673
21
-3.6752
0
LINE
8
BLACK
6
CONTINUOUS
10
4.51673
20
-3.6752
11
4.51673
21
-3.70669
0
LINE
8
BLACK
6
CONTINUOUS
10
4.51673
20
-3.70669
11
4.54626
21
-3.70669
0
LINE
8
BLACK
6
CONTINUOUS
10
4.54626
20
-3.70669
11
4.54626
21
-3.6752
0
LINE
8
BLACK
6
CONTINUOUS
10
4.54626
20
-3.73425
11
4.51673
21
-3.73425
0
LINE
8
BLACK
6
CONTINUOUS
10
4.51673
20
-3.73425
11
4.51673
21
-3.76575
0
LINE
8
BLACK
6
CONTINUOUS
10
4.51673
20
-3.76575
11
4.54626
21
-3.76575
0
LINE
8
BLACK
6
CONTINUOUS
10
4.54626
20
-3.76575
11
4.54626
21
-3.73425
0
LINE
8
BLACK
6
CONTINUOUS
10
4.5935
20
-3.43898
11
4.56398
21
-3.43898
0
LINE
8
BLACK
6
CONTINUOUS
10
4.56398
20
-3.43898
11
4.56398
21
-3.47047
0
LINE
8
BLACK
6
CONTINUOUS
10
4.56398
20
-3.47047
11
4.5935
21
-3.47047
0
LINE
8
BLACK
6
CONTINUOUS
10
4.5935
20
-3.47047
11
4.5935
21
-3.43898
0
LINE
8
BLACK
6
CONTINUOUS
10
4.5935
20
-3.49803
11
4.56398
21
-3.49803
0
LINE
8
BLACK
6
CONTINUOUS
10
4.56398
20
-3.49803
11
4.56398
21
-3.52953
0
LINE
8
BLACK
6
CONTINUOUS
10
4.56398
20
-3.52953
11
4.5935
21
-3.52953
0
LINE
8
BLACK
6
CONTINUOUS
10
4.5935
20
-3.52953
11
4.5935
21
-3.49803
0
LINE
8
BLACK
6
CONTINUOUS
10
4.76181
20
-3.45472
11
4.62795
21
-3.45472
0
LINE
8
BLACK
6
CONTINUOUS
10
4.62795
20
-3.45472
11
4.62795
21
-3.50591
0
LINE
8
BLACK
6
CONTINUOUS
10
4.62795
20
-3.50591
11
4.76181
21
-3.50591
0
LINE
8
BLACK
6
CONTINUOUS
10
4.76181
20
-3.50591
11
4.76181
21
-3.45472
0
LINE
8
BLACK
6
CONTINUOUS
10
4.76181
20
-3.5374
11
4.62795
21
-3.5374
0
LINE
8
BLACK
6
CONTINUOUS
10
4.62795
20
-3.5374
11
4.62795
21
-3.58858
0
LINE
8
BLACK
6
CONTINUOUS
10
4.62795
20
-3.58858
11
4.76181
21
-3.58858
0
LINE
8
BLACK
6
CONTINUOUS
10
4.76181
20
-3.58858
11
4.76181
21
-3.5374
0
LINE
8
BLACK
6
CONTINUOUS
10
3.55351
20
-3.34273
11
3.55381
21
-3.34292
0
LINE
8
BLACK
6
CONTINUOUS
10
3.55381
20
-3.34292
11
3.55417
21
-3.34297
0
LINE
8
BLACK
6
CONTINUOUS
10
3.55417
20
-3.34297
11
3.55497
21
-3.34367
0
LINE
8
BLACK
6
CONTINUOUS
10
3.55497
20
-3.34367
11
3.55587
21
-3.34425
0
LINE
8
BLACK
6
CONTINUOUS
10
3.55587
20
-3.34425
11
3.55602
21
-3.34458
0
LINE
8
BLACK
6
CONTINUOUS
10
3.55602
20
-3.34458
11
3.55629
21
-3.34482
0
LINE
8
BLACK
6
CONTINUOUS
10
3.55629
20
-3.34482
11
3.55659
21
-3.34584
0
LINE
8
BLACK
6
CONTINUOUS
10
3.55659
20
-3.34584
11
3.55704
21
-3.34682
0
LINE
8
BLACK
6
CONTINUOUS
10
3.55704
20
-3.34682
11
3.55698
21
-3.34717
0
LINE
8
BLACK
6
CONTINUOUS
10
3.55698
20
-3.34717
11
3.55709
21
-3.34752
0
LINE
8
BLACK
6
CONTINUOUS
10
3.55709
20
-3.34752
11
3.55709
21
-3.844
0
LINE
8
BLACK
6
CONTINUOUS
10
3.55709
20
-3.844
11
3.55718
21
-3.84445
0
LINE
8
BLACK
6
CONTINUOUS
10
3.55718
20
-3.84445
11
3.55743
21
-3.84484
0
LINE
8
BLACK
6
CONTINUOUS
10
3.55743
20
-3.84484
11
3.57052
21
-3.85792
0
LINE
8
BLACK
6
CONTINUOUS
10
3.57052
20
-3.85792
11
3.5709
21
-3.85818
0
LINE
8
BLACK
6
CONTINUOUS
10
3.5709
20
-3.85818
11
3.57136
21
-3.85827
0
LINE
8
BLACK
6
CONTINUOUS
10
3.57136
20
-3.85827
11
4.36762
21
-3.85827
0
LINE
8
BLACK
6
CONTINUOUS
10
4.36762
20
-3.85827
11
4.36803
21
-3.85819
0
LINE
8
BLACK
6
CONTINUOUS
10
4.36803
20
-3.85819
11
4.36811
21
-3.85778
0
LINE
8
BLACK
6
CONTINUOUS
10
4.36811
20
-3.85778
11
4.36811
21
-3.80224
0
LINE
8
BLACK
6
CONTINUOUS
10
4.36811
20
-3.80224
11
4.36832
21
-3.80082
0
LINE
8
BLACK
6
CONTINUOUS
10
4.36832
20
-3.80082
11
4.36851
21
-3.80052
0
LINE
8
BLACK
6
CONTINUOUS
10
4.36851
20
-3.80052
11
4.36856
21
-3.80016
0
LINE
8
BLACK
6
CONTINUOUS
10
4.36856
20
-3.80016
11
4.36926
21
-3.79936
0
LINE
8
BLACK
6
CONTINUOUS
10
4.36926
20
-3.79936
11
4.36984
21
-3.79846
0
LINE
8
BLACK
6
CONTINUOUS
10
4.36984
20
-3.79846
11
4.37017
21
-3.79831
0
LINE
8
BLACK
6
CONTINUOUS
10
4.37017
20
-3.79831
11
4.37041
21
-3.79804
0
LINE
8
BLACK
6
CONTINUOUS
10
4.37041
20
-3.79804
11
4.37143
21
-3.79774
0
LINE
8
BLACK
6
CONTINUOUS
10
4.37143
20
-3.79774
11
4.37241
21
-3.79729
0
LINE
8
BLACK
6
CONTINUOUS
10
4.37241
20
-3.79729
11
4.37276
21
-3.79735
0
LINE
8
BLACK
6
CONTINUOUS
10
4.37276
20
-3.79735
11
4.37311
21
-3.79724
0
LINE
8
BLACK
6
CONTINUOUS
10
4.37311
20
-3.79724
11
4.50484
21
-3.79724
0
LINE
8
BLACK
6
CONTINUOUS
10
4.50484
20
-3.79724
11
4.50626
21
-3.79745
0
LINE
8
BLACK
6
CONTINUOUS
10
4.50626
20
-3.79745
11
4.50657
21
-3.79765
0
LINE
8
BLACK
6
CONTINUOUS
10
4.50657
20
-3.79765
11
4.50692
21
-3.7977
0
LINE
8
BLACK
6
CONTINUOUS
10
4.50692
20
-3.7977
11
4.50773
21
-3.7984
0
LINE
8
BLACK
6
CONTINUOUS
10
4.50773
20
-3.7984
11
4.50863
21
-3.79898
0
LINE
8
BLACK
6
CONTINUOUS
10
4.50863
20
-3.79898
11
4.50878
21
-3.79931
0
LINE
8
BLACK
6
CONTINUOUS
10
4.50878
20
-3.79931
11
4.50905
21
-3.79954
0
LINE
8
BLACK
6
CONTINUOUS
10
4.50905
20
-3.79954
11
4.50935
21
-3.80057
0
LINE
8
BLACK
6
CONTINUOUS
10
4.50935
20
-3.80057
11
4.50979
21
-3.80154
0
LINE
8
BLACK
6
CONTINUOUS
10
4.50979
20
-3.80154
11
4.50974
21
-3.8019
0
LINE
8
BLACK
6
CONTINUOUS
10
4.50974
20
-3.8019
11
4.50984
21
-3.80224
0
LINE
8
BLACK
6
CONTINUOUS
10
4.50984
20
-3.80224
11
4.50984
21
-3.91232
0
LINE
8
BLACK
6
CONTINUOUS
10
4.50984
20
-3.91232
11
4.50964
21
-3.91374
0
LINE
8
BLACK
6
CONTINUOUS
10
4.50964
20
-3.91374
11
4.50944
21
-3.91405
0
LINE
8
BLACK
6
CONTINUOUS
10
4.50944
20
-3.91405
11
4.50939
21
-3.9144
0
LINE
8
BLACK
6
CONTINUOUS
10
4.50939
20
-3.9144
11
4.50869
21
-3.91521
0
LINE
8
BLACK
6
CONTINUOUS
10
4.50869
20
-3.91521
11
4.50811
21
-3.91611
0
LINE
8
BLACK
6
CONTINUOUS
10
4.50811
20
-3.91611
11
4.50778
21
-3.91626
0
LINE
8
BLACK
6
CONTINUOUS
10
4.50778
20
-3.91626
11
4.50754
21
-3.91653
0
LINE
8
BLACK
6
CONTINUOUS
10
4.50754
20
-3.91653
11
4.50652
21
-3.91683
0
LINE
8
BLACK
6
CONTINUOUS
10
4.50652
20
-3.91683
11
4.50555
21
-3.91727
0
LINE
8
BLACK
6
CONTINUOUS
10
4.50555
20
-3.91727
11
4.50519
21
-3.91722
0
LINE
8
BLACK
6
CONTINUOUS
10
4.50519
20
-3.91722
11
4.50484
21
-3.91732
0
LINE
8
BLACK
6
CONTINUOUS
10
4.50484
20
-3.91732
11
3.55522
21
-3.91732
0
LINE
8
BLACK
6
CONTINUOUS
10
3.55522
20
-3.91732
11
3.55434
21
-3.9172
0
LINE
8
BLACK
6
CONTINUOUS
10
3.55434
20
-3.9172
11
3.55416
21
-3.91721
0
LINE
8
BLACK
6
CONTINUOUS
10
3.55416
20
-3.91721
11
3.55406
21
-3.91715
0
LINE
8
BLACK
6
CONTINUOUS
10
3.55406
20
-3.91715
11
3.5538
21
-3.91712
0
LINE
8
BLACK
6
CONTINUOUS
10
3.5538
20
-3.91712
11
3.55277
21
-3.91645
0
LINE
8
BLACK
6
CONTINUOUS
10
3.55277
20
-3.91645
11
3.55169
21
-3.91586
0
LINE
8
BLACK
6
CONTINUOUS
10
3.55169
20
-3.91586
11
3.4995
21
-3.86367
0
LINE
8
BLACK
6
CONTINUOUS
10
3.4995
20
-3.86367
11
3.49896
21
-3.86296
0
LINE
8
BLACK
6
CONTINUOUS
10
3.49896
20
-3.86296
11
3.49882
21
-3.86283
0
LINE
8
BLACK
6
CONTINUOUS
10
3.49882
20
-3.86283
11
3.49879
21
-3.86273
0
LINE
8
BLACK
6
CONTINUOUS
10
3.49879
20
-3.86273
11
3.49864
21
-3.86252
0
LINE
8
BLACK
6
CONTINUOUS
10
3.49864
20
-3.86252
11
3.49838
21
-3.86132
0
LINE
8
BLACK
6
CONTINUOUS
10
3.49838
20
-3.86132
11
3.49803
21
-3.86013
0
LINE
8
BLACK
6
CONTINUOUS
10
3.49803
20
-3.86013
11
3.49803
21
-3.34752
0
LINE
8
BLACK
6
CONTINUOUS
10
3.49803
20
-3.34752
11
3.49824
21
-3.3461
0
LINE
8
BLACK
6
CONTINUOUS
10
3.49824
20
-3.3461
11
3.49843
21
-3.3458
0
LINE
8
BLACK
6
CONTINUOUS
10
3.49843
20
-3.3458
11
3.49849
21
-3.34544
0
LINE
8
BLACK
6
CONTINUOUS
10
3.49849
20
-3.34544
11
3.49919
21
-3.34463
0
LINE
8
BLACK
6
CONTINUOUS
10
3.49919
20
-3.34463
11
3.49976
21
-3.34373
0
LINE
8
BLACK
6
CONTINUOUS
10
3.49976
20
-3.34373
11
3.50009
21
-3.34359
0
LINE
8
BLACK
6
CONTINUOUS
10
3.50009
20
-3.34359
11
3.50033
21
-3.34331
0
LINE
8
BLACK
6
CONTINUOUS
10
3.50033
20
-3.34331
11
3.50136
21
-3.34301
0
LINE
8
BLACK
6
CONTINUOUS
10
3.50136
20
-3.34301
11
3.50233
21
-3.34257
0
LINE
8
BLACK
6
CONTINUOUS
10
3.50233
20
-3.34257
11
3.50268
21
-3.34262
0
LINE
8
BLACK
6
CONTINUOUS
10
3.50268
20
-3.34262
11
3.50303
21
-3.34252
0
LINE
8
BLACK
6
CONTINUOUS
10
3.50303
20
-3.34252
11
3.55209
21
-3.34252
0
LINE
8
BLACK
6
CONTINUOUS
10
3.55209
20
-3.34252
11
3.55351
21
-3.34273
0
LINE
8
BLACK
6
CONTINUOUS
10
2.77595
20
-3.2758
11
2.77625
21
-3.27599
0
LINE
8
BLACK
6
CONTINUOUS
10
2.77625
20
-3.27599
11
2.77661
21
-3.27604
0
LINE
8
BLACK
6
CONTINUOUS
10
2.77661
20
-3.27604
11
2.77742
21
-3.27674
0
LINE
8
BLACK
6
CONTINUOUS
10
2.77742
20
-3.27674
11
2.77831
21
-3.27732
0
LINE
8
BLACK
6
CONTINUOUS
10
2.77831
20
-3.27732
11
2.77846
21
-3.27765
0
LINE
8
BLACK
6
CONTINUOUS
10
2.77846
20
-3.27765
11
2.77874
21
-3.27789
0
LINE
8
BLACK
6
CONTINUOUS
10
2.77874
20
-3.27789
11
2.77904
21
-3.27891
0
LINE
8
BLACK
6
CONTINUOUS
10
2.77904
20
-3.27891
11
2.77948
21
-3.27989
0
LINE
8
BLACK
6
CONTINUOUS
10
2.77948
20
-3.27989
11
2.77943
21
-3.28024
0
LINE
8
BLACK
6
CONTINUOUS
10
2.77943
20
-3.28024
11
2.77953
21
-3.28059
0
LINE
8
BLACK
6
CONTINUOUS
10
2.77953
20
-3.28059
11
2.77953
21
-3.43004
0
LINE
8
BLACK
6
CONTINUOUS
10
2.77953
20
-3.43004
11
2.77932
21
-3.43146
0
LINE
8
BLACK
6
CONTINUOUS
10
2.77932
20
-3.43146
11
2.77913
21
-3.43176
0
LINE
8
BLACK
6
CONTINUOUS
10
2.77913
20
-3.43176
11
2.77907
21
-3.43212
0
LINE
8
BLACK
6
CONTINUOUS
10
2.77907
20
-3.43212
11
2.77837
21
-3.43293
0
LINE
8
BLACK
6
CONTINUOUS
10
2.77837
20
-3.43293
11
2.77779
21
-3.43382
0
LINE
8
BLACK
6
CONTINUOUS
10
2.77779
20
-3.43382
11
2.77747
21
-3.43397
0
LINE
8
BLACK
6
CONTINUOUS
10
2.77747
20
-3.43397
11
2.77723
21
-3.43425
0
LINE
8
BLACK
6
CONTINUOUS
10
2.77723
20
-3.43425
11
2.7762
21
-3.43455
0
LINE
8
BLACK
6
CONTINUOUS
10
2.7762
20
-3.43455
11
2.77523
21
-3.43499
0
LINE
8
BLACK
6
CONTINUOUS
10
2.77523
20
-3.43499
11
2.77487
21
-3.43494
0
LINE
8
BLACK
6
CONTINUOUS
10
2.77487
20
-3.43494
11
2.77453
21
-3.43504
0
LINE
8
BLACK
6
CONTINUOUS
10
2.77453
20
-3.43504
11
2.66839
21
-3.43504
0
LINE
8
BLACK
6
CONTINUOUS
10
2.66839
20
-3.43504
11
2.66697
21
-3.43483
0
LINE
8
BLACK
6
CONTINUOUS
10
2.66697
20
-3.43483
11
2.66666
21
-3.43464
0
LINE
8
BLACK
6
CONTINUOUS
10
2.66666
20
-3.43464
11
2.6663
21
-3.43459
0
LINE
8
BLACK
6
CONTINUOUS
10
2.6663
20
-3.43459
11
2.6655
21
-3.43389
0
LINE
8
BLACK
6
CONTINUOUS
10
2.6655
20
-3.43389
11
2.6646
21
-3.43331
0
LINE
8
BLACK
6
CONTINUOUS
10
2.6646
20
-3.43331
11
2.66445
21
-3.43298
0
LINE
8
BLACK
6
CONTINUOUS
10
2.66445
20
-3.43298
11
2.66418
21
-3.43274
0
LINE
8
BLACK
6
CONTINUOUS
10
2.66418
20
-3.43274
11
2.66388
21
-3.43172
0
LINE
8
BLACK
6
CONTINUOUS
10
2.66388
20
-3.43172
11
2.66344
21
-3.43074
0
LINE
8
BLACK
6
CONTINUOUS
10
2.66344
20
-3.43074
11
2.66349
21
-3.43039
0
LINE
8
BLACK
6
CONTINUOUS
10
2.66349
20
-3.43039
11
2.66339
21
-3.43004
0
LINE
8
BLACK
6
CONTINUOUS
10
2.66339
20
-3.43004
11
2.66339
21
-3.28059
0
LINE
8
BLACK
6
CONTINUOUS
10
2.66339
20
-3.28059
11
2.66359
21
-3.27917
0
LINE
8
BLACK
6
CONTINUOUS
10
2.66359
20
-3.27917
11
2.66379
21
-3.27887
0
LINE
8
BLACK
6
CONTINUOUS
10
2.66379
20
-3.27887
11
2.66384
21
-3.27851
0
LINE
8
BLACK
6
CONTINUOUS
10
2.66384
20
-3.27851
11
2.66454
21
-3.2777
0
LINE
8
BLACK
6
CONTINUOUS
10
2.66454
20
-3.2777
11
2.66512
21
-3.27681
0
LINE
8
BLACK
6
CONTINUOUS
10
2.66512
20
-3.27681
11
2.66545
21
-3.27666
0
LINE
8
BLACK
6
CONTINUOUS
10
2.66545
20
-3.27666
11
2.66568
21
-3.27638
0
LINE
8
BLACK
6
CONTINUOUS
10
2.66568
20
-3.27638
11
2.66671
21
-3.27608
0
LINE
8
BLACK
6
CONTINUOUS
10
2.66671
20
-3.27608
11
2.66768
21
-3.27564
0
LINE
8
BLACK
6
CONTINUOUS
10
2.66768
20
-3.27564
11
2.66804
21
-3.27569
0
LINE
8
BLACK
6
CONTINUOUS
10
2.66804
20
-3.27569
11
2.66839
21
-3.27559
0
LINE
8
BLACK
6
CONTINUOUS
10
2.66839
20
-3.27559
11
2.77453
21
-3.27559
0
LINE
8
BLACK
6
CONTINUOUS
10
2.77453
20
-3.27559
11
2.77595
21
-3.2758
0
LINE
8
BLACK
6
CONTINUOUS
10
2.77398
20
-3.50414
11
2.77428
21
-3.50434
0
LINE
8
BLACK
6
CONTINUOUS
10
2.77428
20
-3.50434
11
2.77464
21
-3.50439
0
LINE
8
BLACK
6
CONTINUOUS
10
2.77464
20
-3.50439
11
2.77545
21
-3.50509
0
LINE
8
BLACK
6
CONTINUOUS
10
2.77545
20
-3.50509
11
2.77634
21
-3.50567
0
LINE
8
BLACK
6
CONTINUOUS
10
2.77634
20
-3.50567
11
2.77649
21
-3.506
0
LINE
8
BLACK
6
CONTINUOUS
10
2.77649
20
-3.506
11
2.77677
21
-3.50624
0
LINE
8
BLACK
6
CONTINUOUS
10
2.77677
20
-3.50624
11
2.77707
21
-3.50726
0
LINE
8
BLACK
6
CONTINUOUS
10
2.77707
20
-3.50726
11
2.77751
21
-3.50823
0
LINE
8
BLACK
6
CONTINUOUS
10
2.77751
20
-3.50823
11
2.77746
21
-3.50859
0
LINE
8
BLACK
6
CONTINUOUS
10
2.77746
20
-3.50859
11
2.77756
21
-3.50894
0
LINE
8
BLACK
6
CONTINUOUS
10
2.77756
20
-3.50894
11
2.77756
21
-3.65642
0
LINE
8
BLACK
6
CONTINUOUS
10
2.77756
20
-3.65642
11
2.77735
21
-3.65784
0
LINE
8
BLACK
6
CONTINUOUS
10
2.77735
20
-3.65784
11
2.77716
21
-3.65814
0
LINE
8
BLACK
6
CONTINUOUS
10
2.77716
20
-3.65814
11
2.77711
21
-3.6585
0
LINE
8
BLACK
6
CONTINUOUS
10
2.77711
20
-3.6585
11
2.77641
21
-3.65931
0
LINE
8
BLACK
6
CONTINUOUS
10
2.77641
20
-3.65931
11
2.77583
21
-3.6602
0
LINE
8
BLACK
6
CONTINUOUS
10
2.77583
20
-3.6602
11
2.7755
21
-3.66035
0
LINE
8
BLACK
6
CONTINUOUS
10
2.7755
20
-3.66035
11
2.77526
21
-3.66062
0
LINE
8
BLACK
6
CONTINUOUS
10
2.77526
20
-3.66062
11
2.77424
21
-3.66093
0
LINE
8
BLACK
6
CONTINUOUS
10
2.77424
20
-3.66093
11
2.77326
21
-3.66137
0
LINE
8
BLACK
6
CONTINUOUS
10
2.77326
20
-3.66137
11
2.77291
21
-3.66132
0
LINE
8
BLACK
6
CONTINUOUS
10
2.77291
20
-3.66132
11
2.77256
21
-3.66142
0
LINE
8
BLACK
6
CONTINUOUS
10
2.77256
20
-3.66142
11
2.66839
21
-3.66142
0
LINE
8
BLACK
6
CONTINUOUS
10
2.66839
20
-3.66142
11
2.66697
21
-3.66121
0
LINE
8
BLACK
6
CONTINUOUS
10
2.66697
20
-3.66121
11
2.66666
21
-3.66102
0
LINE
8
BLACK
6
CONTINUOUS
10
2.66666
20
-3.66102
11
2.6663
21
-3.66096
0
LINE
8
BLACK
6
CONTINUOUS
10
2.6663
20
-3.66096
11
2.6655
21
-3.66026
0
LINE
8
BLACK
6
CONTINUOUS
10
2.6655
20
-3.66026
11
2.6646
21
-3.65968
0
LINE
8
BLACK
6
CONTINUOUS
10
2.6646
20
-3.65968
11
2.66445
21
-3.65936
0
LINE
8
BLACK
6
CONTINUOUS
10
2.66445
20
-3.65936
11
2.66418
21
-3.65912
0
LINE
8
BLACK
6
CONTINUOUS
10
2.66418
20
-3.65912
11
2.66388
21
-3.65809
0
LINE
8
BLACK
6
CONTINUOUS
10
2.66388
20
-3.65809
11
2.66344
21
-3.65712
0
LINE
8
BLACK
6
CONTINUOUS
10
2.66344
20
-3.65712
11
2.66349
21
-3.65676
0
LINE
8
BLACK
6
CONTINUOUS
10
2.66349
20
-3.65676
11
2.66339
21
-3.65642
0
LINE
8
BLACK
6
CONTINUOUS
10
2.66339
20
-3.65642
11
2.66339
21
-3.50894
0
LINE
8
BLACK
6
CONTINUOUS
10
2.66339
20
-3.50894
11
2.66359
21
-3.50752
0
LINE
8
BLACK
6
CONTINUOUS
10
2.66359
20
-3.50752
11
2.66379
21
-3.50721
0
LINE
8
BLACK
6
CONTINUOUS
10
2.66379
20
-3.50721
11
2.66384
21
-3.50686
0
LINE
8
BLACK
6
CONTINUOUS
10
2.66384
20
-3.50686
11
2.66454
21
-3.50605
0
LINE
8
BLACK
6
CONTINUOUS
10
2.66454
20
-3.50605
11
2.66512
21
-3.50515
0
LINE
8
BLACK
6
CONTINUOUS
10
2.66512
20
-3.50515
11
2.66545
21
-3.505
0
LINE
8
BLACK
6
CONTINUOUS
10
2.66545
20
-3.505
11
2.66568
21
-3.50473
0
LINE
8
BLACK
6
CONTINUOUS
10
2.66568
20
-3.50473
11
2.66671
21
-3.50443
0
LINE
8
BLACK
6
CONTINUOUS
10
2.66671
20
-3.50443
11
2.66768
21
-3.50399
0
LINE
8
BLACK
6
CONTINUOUS
10
2.66768
20
-3.50399
11
2.66804
21
-3.50404
0
LINE
8
BLACK
6
CONTINUOUS
10
2.66804
20
-3.50404
11
2.66839
21
-3.50394
0
LINE
8
BLACK
6
CONTINUOUS
10
2.66839
20
-3.50394
11
2.77256
21
-3.50394
0
LINE
8
BLACK
6
CONTINUOUS
10
2.77256
20
-3.50394
11
2.77398
21
-3.50414
0
LINE
8
BLACK
6
CONTINUOUS
10
3.19172
20
-3.28162
11
3.19191
21
-3.28161
0
LINE
8
BLACK
6
CONTINUOUS
10
3.19191
20
-3.28161
11
3.19201
21
-3.28166
0
LINE
8
BLACK
6
CONTINUOUS
10
3.19201
20
-3.28166
11
3.19226
21
-3.2817
0
LINE
8
BLACK
6
CONTINUOUS
10
3.19226
20
-3.2817
11
3.1933
21
-3.28237
0
LINE
8
BLACK
6
CONTINUOUS
10
3.1933
20
-3.28237
11
3.19438
21
-3.28296
0
LINE
8
BLACK
6
CONTINUOUS
10
3.19438
20
-3.28296
11
3.2131
21
-3.30169
0
LINE
8
BLACK
6
CONTINUOUS
10
3.2131
20
-3.30169
11
3.21364
21
-3.3024
0
LINE
8
BLACK
6
CONTINUOUS
10
3.21364
20
-3.3024
11
3.21377
21
-3.30252
0
LINE
8
BLACK
6
CONTINUOUS
10
3.21377
20
-3.30252
11
3.21381
21
-3.30263
0
LINE
8
BLACK
6
CONTINUOUS
10
3.21381
20
-3.30263
11
3.21396
21
-3.30283
0
LINE
8
BLACK
6
CONTINUOUS
10
3.21396
20
-3.30283
11
3.21422
21
-3.30404
0
LINE
8
BLACK
6
CONTINUOUS
10
3.21422
20
-3.30404
11
3.21457
21
-3.30522
0
LINE
8
BLACK
6
CONTINUOUS
10
3.21457
20
-3.30522
11
3.21457
21
-3.41131
0
LINE
8
BLACK
6
CONTINUOUS
10
3.21457
20
-3.41131
11
3.21444
21
-3.4122
0
LINE
8
BLACK
6
CONTINUOUS
10
3.21444
20
-3.4122
11
3.21445
21
-3.41238
0
LINE
8
BLACK
6
CONTINUOUS
10
3.21445
20
-3.41238
11
3.2144
21
-3.41248
0
LINE
8
BLACK
6
CONTINUOUS
10
3.2144
20
-3.41248
11
3.21436
21
-3.41273
0
LINE
8
BLACK
6
CONTINUOUS
10
3.21436
20
-3.41273
11
3.21369
21
-3.41377
0
LINE
8
BLACK
6
CONTINUOUS
10
3.21369
20
-3.41377
11
3.2131
21
-3.41485
0
LINE
8
BLACK
6
CONTINUOUS
10
3.2131
20
-3.41485
11
3.19438
21
-3.43357
0
LINE
8
BLACK
6
CONTINUOUS
10
3.19438
20
-3.43357
11
3.19366
21
-3.43411
0
LINE
8
BLACK
6
CONTINUOUS
10
3.19366
20
-3.43411
11
3.19354
21
-3.43425
0
LINE
8
BLACK
6
CONTINUOUS
10
3.19354
20
-3.43425
11
3.19344
21
-3.43428
0
LINE
8
BLACK
6
CONTINUOUS
10
3.19344
20
-3.43428
11
3.19323
21
-3.43443
0
LINE
8
BLACK
6
CONTINUOUS
10
3.19323
20
-3.43443
11
3.19202
21
-3.43469
0
LINE
8
BLACK
6
CONTINUOUS
10
3.19202
20
-3.43469
11
3.19084
21
-3.43504
0
LINE
8
BLACK
6
CONTINUOUS
10
3.19084
20
-3.43504
11
3.15561
21
-3.43504
0
LINE
8
BLACK
6
CONTINUOUS
10
3.15561
20
-3.43504
11
3.15473
21
-3.43491
0
LINE
8
BLACK
6
CONTINUOUS
10
3.15473
20
-3.43491
11
3.15455
21
-3.43492
0
LINE
8
BLACK
6
CONTINUOUS
10
3.15455
20
-3.43492
11
3.15445
21
-3.43487
0
LINE
8
BLACK
6
CONTINUOUS
10
3.15445
20
-3.43487
11
3.15419
21
-3.43483
0
LINE
8
BLACK
6
CONTINUOUS
10
3.15419
20
-3.43483
11
3.15316
21
-3.43417
0
LINE
8
BLACK
6
CONTINUOUS
10
3.15316
20
-3.43417
11
3.15208
21
-3.43357
0
LINE
8
BLACK
6
CONTINUOUS
10
3.15208
20
-3.43357
11
3.13335
21
-3.41485
0
LINE
8
BLACK
6
CONTINUOUS
10
3.13335
20
-3.41485
11
3.13282
21
-3.41414
0
LINE
8
BLACK
6
CONTINUOUS
10
3.13282
20
-3.41414
11
3.13268
21
-3.41402
0
LINE
8
BLACK
6
CONTINUOUS
10
3.13268
20
-3.41402
11
3.13265
21
-3.41391
0
LINE
8
BLACK
6
CONTINUOUS
10
3.13265
20
-3.41391
11
3.1325
21
-3.4137
0
LINE
8
BLACK
6
CONTINUOUS
10
3.1325
20
-3.4137
11
3.13224
21
-3.4125
0
LINE
8
BLACK
6
CONTINUOUS
10
3.13224
20
-3.4125
11
3.13189
21
-3.41131
0
LINE
8
BLACK
6
CONTINUOUS
10
3.13189
20
-3.41131
11
3.13189
21
-3.30522
0
LINE
8
BLACK
6
CONTINUOUS
10
3.13189
20
-3.30522
11
3.13202
21
-3.30434
0
LINE
8
BLACK
6
CONTINUOUS
10
3.13202
20
-3.30434
11
3.132
21
-3.30416
0
LINE
8
BLACK
6
CONTINUOUS
10
3.132
20
-3.30416
11
3.13206
21
-3.30406
0
LINE
8
BLACK
6
CONTINUOUS
10
3.13206
20
-3.30406
11
3.1321
21
-3.3038
0
LINE
8
BLACK
6
CONTINUOUS
10
3.1321
20
-3.3038
11
3.13276
21
-3.30277
0
LINE
8
BLACK
6
CONTINUOUS
10
3.13276
20
-3.30277
11
3.13335
21
-3.30169
0
LINE
8
BLACK
6
CONTINUOUS
10
3.13335
20
-3.30169
11
3.15208
21
-3.28296
0
LINE
8
BLACK
6
CONTINUOUS
10
3.15208
20
-3.28296
11
3.15279
21
-3.28243
0
LINE
8
BLACK
6
CONTINUOUS
10
3.15279
20
-3.28243
11
3.15291
21
-3.28229
0
LINE
8
BLACK
6
CONTINUOUS
10
3.15291
20
-3.28229
11
3.15302
21
-3.28226
0
LINE
8
BLACK
6
CONTINUOUS
10
3.15302
20
-3.28226
11
3.15323
21
-3.2821
0
LINE
8
BLACK
6
CONTINUOUS
10
3.15323
20
-3.2821
11
3.15443
21
-3.28184
0
LINE
8
BLACK
6
CONTINUOUS
10
3.15443
20
-3.28184
11
3.15561
21
-3.2815
0
LINE
8
BLACK
6
CONTINUOUS
10
3.15561
20
-3.2815
11
3.19084
21
-3.2815
0
LINE
8
BLACK
6
CONTINUOUS
10
3.19084
20
-3.2815
11
3.19172
21
-3.28162
0
LINE
8
BLACK
6
CONTINUOUS
10
2.77398
20
-3.73249
11
2.77428
21
-3.73269
0
LINE
8
BLACK
6
CONTINUOUS
10
2.77428
20
-3.73269
11
2.77464
21
-3.73274
0
LINE
8
BLACK
6
CONTINUOUS
10
2.77464
20
-3.73274
11
2.77545
21
-3.73344
0
LINE
8
BLACK
6
CONTINUOUS
10
2.77545
20
-3.73344
11
2.77634
21
-3.73402
0
LINE
8
BLACK
6
CONTINUOUS
10
2.77634
20
-3.73402
11
2.77649
21
-3.73435
0
LINE
8
BLACK
6
CONTINUOUS
10
2.77649
20
-3.73435
11
2.77677
21
-3.73458
0
LINE
8
BLACK
6
CONTINUOUS
10
2.77677
20
-3.73458
11
2.77707
21
-3.73561
0
LINE
8
BLACK
6
CONTINUOUS
10
2.77707
20
-3.73561
11
2.77751
21
-3.73658
0
LINE
8
BLACK
6
CONTINUOUS
10
2.77751
20
-3.73658
11
2.77746
21
-3.73694
0
LINE
8
BLACK
6
CONTINUOUS
10
2.77746
20
-3.73694
11
2.77756
21
-3.73728
0
LINE
8
BLACK
6
CONTINUOUS
10
2.77756
20
-3.73728
11
2.77756
21
-3.88476
0
LINE
8
BLACK
6
CONTINUOUS
10
2.77756
20
-3.88476
11
2.77735
21
-3.88618
0
LINE
8
BLACK
6
CONTINUOUS
10
2.77735
20
-3.88618
11
2.77716
21
-3.88649
0
LINE
8
BLACK
6
CONTINUOUS
10
2.77716
20
-3.88649
11
2.77711
21
-3.88685
0
LINE
8
BLACK
6
CONTINUOUS
10
2.77711
20
-3.88685
11
2.77641
21
-3.88765
0
LINE
8
BLACK
6
CONTINUOUS
10
2.77641
20
-3.88765
11
2.77583
21
-3.88855
0
LINE
8
BLACK
6
CONTINUOUS
10
2.77583
20
-3.88855
11
2.7755
21
-3.8887
0
LINE
8
BLACK
6
CONTINUOUS
10
2.7755
20
-3.8887
11
2.77526
21
-3.88897
0
LINE
8
BLACK
6
CONTINUOUS
10
2.77526
20
-3.88897
11
2.77424
21
-3.88927
0
LINE
8
BLACK
6
CONTINUOUS
10
2.77424
20
-3.88927
11
2.77326
21
-3.88971
0
LINE
8
BLACK
6
CONTINUOUS
10
2.77326
20
-3.88971
11
2.77291
21
-3.88966
0
LINE
8
BLACK
6
CONTINUOUS
10
2.77291
20
-3.88966
11
2.77256
21
-3.88976
0
LINE
8
BLACK
6
CONTINUOUS
10
2.77256
20
-3.88976
11
2.66839
21
-3.88976
0
LINE
8
BLACK
6
CONTINUOUS
10
2.66839
20
-3.88976
11
2.66697
21
-3.88956
0
LINE
8
BLACK
6
CONTINUOUS
10
2.66697
20
-3.88956
11
2.66666
21
-3.88936
0
LINE
8
BLACK
6
CONTINUOUS
10
2.66666
20
-3.88936
11
2.6663
21
-3.88931
0
LINE
8
BLACK
6
CONTINUOUS
10
2.6663
20
-3.88931
11
2.6655
21
-3.88861
0
LINE
8
BLACK
6
CONTINUOUS
10
2.6655
20
-3.88861
11
2.6646
21
-3.88803
0
LINE
8
BLACK
6
CONTINUOUS
10
2.6646
20
-3.88803
11
2.66445
21
-3.8877
0
LINE
8
BLACK
6
CONTINUOUS
10
2.66445
20
-3.8877
11
2.66418
21
-3.88746
0
LINE
8
BLACK
6
CONTINUOUS
10
2.66418
20
-3.88746
11
2.66388
21
-3.88644
0
LINE
8
BLACK
6
CONTINUOUS
10
2.66388
20
-3.88644
11
2.66344
21
-3.88547
0
LINE
8
BLACK
6
CONTINUOUS
10
2.66344
20
-3.88547
11
2.66349
21
-3.88511
0
LINE
8
BLACK
6
CONTINUOUS
10
2.66349
20
-3.88511
11
2.66339
21
-3.88476
0
LINE
8
BLACK
6
CONTINUOUS
10
2.66339
20
-3.88476
11
2.66339
21
-3.73728
0
LINE
8
BLACK
6
CONTINUOUS
10
2.66339
20
-3.73728
11
2.66359
21
-3.73586
0
LINE
8
BLACK
6
CONTINUOUS
10
2.66359
20
-3.73586
11
2.66379
21
-3.73556
0
LINE
8
BLACK
6
CONTINUOUS
10
2.66379
20
-3.73556
11
2.66384
21
-3.7352
0
LINE
8
BLACK
6
CONTINUOUS
10
2.66384
20
-3.7352
11
2.66454
21
-3.7344
0
LINE
8
BLACK
6
CONTINUOUS
10
2.66454
20
-3.7344
11
2.66512
21
-3.7335
0
LINE
8
BLACK
6
CONTINUOUS
10
2.66512
20
-3.7335
11
2.66545
21
-3.73335
0
LINE
8
BLACK
6
CONTINUOUS
10
2.66545
20
-3.73335
11
2.66568
21
-3.73308
0
LINE
8
BLACK
6
CONTINUOUS
10
2.66568
20
-3.73308
11
2.66671
21
-3.73278
0
LINE
8
BLACK
6
CONTINUOUS
10
2.66671
20
-3.73278
11
2.66768
21
-3.73233
0
LINE
8
BLACK
6
CONTINUOUS
10
2.66768
20
-3.73233
11
2.66804
21
-3.73239
0
LINE
8
BLACK
6
CONTINUOUS
10
2.66804
20
-3.73239
11
2.66839
21
-3.73228
0
LINE
8
BLACK
6
CONTINUOUS
10
2.66839
20
-3.73228
11
2.77256
21
-3.73228
0
LINE
8
BLACK
6
CONTINUOUS
10
2.77256
20
-3.73228
11
2.77398
21
-3.73249
0
LINE
8
BLACK
6
CONTINUOUS
10
4.50626
20
-3.24824
11
4.50657
21
-3.24843
0
LINE
8
BLACK
6
CONTINUOUS
10
4.50657
20
-3.24843
11
4.50692
21
-3.24849
0
LINE
8
BLACK
6
CONTINUOUS
10
4.50692
20
-3.24849
11
4.50773
21
-3.24919
0
LINE
8
BLACK
6
CONTINUOUS
10
4.50773
20
-3.24919
11
4.50863
21
-3.24976
0
LINE
8
BLACK
6
CONTINUOUS
10
4.50863
20
-3.24976
11
4.50878
21
-3.25009
0
LINE
8
BLACK
6
CONTINUOUS
10
4.50878
20
-3.25009
11
4.50905
21
-3.25033
0
LINE
8
BLACK
6
CONTINUOUS
10
4.50905
20
-3.25033
11
4.50935
21
-3.25136
0
LINE
8
BLACK
6
CONTINUOUS
10
4.50935
20
-3.25136
11
4.50979
21
-3.25233
0
LINE
8
BLACK
6
CONTINUOUS
10
4.50979
20
-3.25233
11
4.50974
21
-3.25268
0
LINE
8
BLACK
6
CONTINUOUS
10
4.50974
20
-3.25268
11
4.50984
21
-3.25303
0
LINE
8
BLACK
6
CONTINUOUS
10
4.50984
20
-3.25303
11
4.50984
21
-3.36311
0
LINE
8
BLACK
6
CONTINUOUS
10
4.50984
20
-3.36311
11
4.50964
21
-3.36453
0
LINE
8
BLACK
6
CONTINUOUS
10
4.50964
20
-3.36453
11
4.50944
21
-3.36483
0
LINE
8
BLACK
6
CONTINUOUS
10
4.50944
20
-3.36483
11
4.50939
21
-3.36519
0
LINE
8
BLACK
6
CONTINUOUS
10
4.50939
20
-3.36519
11
4.50869
21
-3.366
0
LINE
8
BLACK
6
CONTINUOUS
10
4.50869
20
-3.366
11
4.50811
21
-3.3669
0
LINE
8
BLACK
6
CONTINUOUS
10
4.50811
20
-3.3669
11
4.50778
21
-3.36704
0
LINE
8
BLACK
6
CONTINUOUS
10
4.50778
20
-3.36704
11
4.50754
21
-3.36732
0
LINE
8
BLACK
6
CONTINUOUS
10
4.50754
20
-3.36732
11
4.50652
21
-3.36762
0
LINE
8
BLACK
6
CONTINUOUS
10
4.50652
20
-3.36762
11
4.50555
21
-3.36806
0
LINE
8
BLACK
6
CONTINUOUS
10
4.50555
20
-3.36806
11
4.50519
21
-3.36801
0
LINE
8
BLACK
6
CONTINUOUS
10
4.50519
20
-3.36801
11
4.50484
21
-3.36811
0
LINE
8
BLACK
6
CONTINUOUS
10
4.50484
20
-3.36811
11
4.37311
21
-3.36811
0
LINE
8
BLACK
6
CONTINUOUS
10
4.37311
20
-3.36811
11
4.37169
21
-3.3679
0
LINE
8
BLACK
6
CONTINUOUS
10
4.37169
20
-3.3679
11
4.37139
21
-3.36771
0
LINE
8
BLACK
6
CONTINUOUS
10
4.37139
20
-3.36771
11
4.37103
21
-3.36766
0
LINE
8
BLACK
6
CONTINUOUS
10
4.37103
20
-3.36766
11
4.37022
21
-3.36696
0
LINE
8
BLACK
6
CONTINUOUS
10
4.37022
20
-3.36696
11
4.36933
21
-3.36638
0
LINE
8
BLACK
6
CONTINUOUS
10
4.36933
20
-3.36638
11
4.36918
21
-3.36605
0
LINE
8
BLACK
6
CONTINUOUS
10
4.36918
20
-3.36605
11
4.3689
21
-3.36581
0
LINE
8
BLACK
6
CONTINUOUS
10
4.3689
20
-3.36581
11
4.3686
21
-3.36479
0
LINE
8
BLACK
6
CONTINUOUS
10
4.3686
20
-3.36479
11
4.36816
21
-3.36381
0
LINE
8
BLACK
6
CONTINUOUS
10
4.36816
20
-3.36381
11
4.36821
21
-3.36346
0
LINE
8
BLACK
6
CONTINUOUS
10
4.36821
20
-3.36346
11
4.36811
21
-3.36311
0
LINE
8
BLACK
6
CONTINUOUS
10
4.36811
20
-3.36311
11
4.36811
21
-3.30758
0
LINE
8
BLACK
6
CONTINUOUS
10
4.36811
20
-3.30758
11
4.36803
21
-3.30717
0
LINE
8
BLACK
6
CONTINUOUS
10
4.36803
20
-3.30717
11
4.36762
21
-3.30709
0
LINE
8
BLACK
6
CONTINUOUS
10
4.36762
20
-3.30709
11
3.50303
21
-3.30709
0
LINE
8
BLACK
6
CONTINUOUS
10
3.50303
20
-3.30709
11
3.50161
21
-3.30688
0
LINE
8
BLACK
6
CONTINUOUS
10
3.50161
20
-3.30688
11
3.50131
21
-3.30668
0
LINE
8
BLACK
6
CONTINUOUS
10
3.50131
20
-3.30668
11
3.50095
21
-3.30663
0
LINE
8
BLACK
6
CONTINUOUS
10
3.50095
20
-3.30663
11
3.50014
21
-3.30593
0
LINE
8
BLACK
6
CONTINUOUS
10
3.50014
20
-3.30593
11
3.49925
21
-3.30535
0
LINE
8
BLACK
6
CONTINUOUS
10
3.49925
20
-3.30535
11
3.4991
21
-3.30502
0
LINE
8
BLACK
6
CONTINUOUS
10
3.4991
20
-3.30502
11
3.49882
21
-3.30479
0
LINE
8
BLACK
6
CONTINUOUS
10
3.49882
20
-3.30479
11
3.49852
21
-3.30376
0
LINE
8
BLACK
6
CONTINUOUS
10
3.49852
20
-3.30376
11
3.49808
21
-3.30279
0
LINE
8
BLACK
6
CONTINUOUS
10
3.49808
20
-3.30279
11
3.49813
21
-3.30243
0
LINE
8
BLACK
6
CONTINUOUS
10
3.49813
20
-3.30243
11
3.49803
21
-3.30209
0
LINE
8
BLACK
6
CONTINUOUS
10
3.49803
20
-3.30209
11
3.49803
21
-3.25303
0
LINE
8
BLACK
6
CONTINUOUS
10
3.49803
20
-3.25303
11
3.49824
21
-3.25161
0
LINE
8
BLACK
6
CONTINUOUS
10
3.49824
20
-3.25161
11
3.49843
21
-3.25131
0
LINE
8
BLACK
6
CONTINUOUS
10
3.49843
20
-3.25131
11
3.49849
21
-3.25095
0
LINE
8
BLACK
6
CONTINUOUS
10
3.49849
20
-3.25095
11
3.49919
21
-3.25014
0
LINE
8
BLACK
6
CONTINUOUS
10
3.49919
20
-3.25014
11
3.49976
21
-3.24925
0
LINE
8
BLACK
6
CONTINUOUS
10
3.49976
20
-3.24925
11
3.50009
21
-3.2491
0
LINE
8
BLACK
6
CONTINUOUS
10
3.50009
20
-3.2491
11
3.50033
21
-3.24882
0
LINE
8
BLACK
6
CONTINUOUS
10
3.50033
20
-3.24882
11
3.50136
21
-3.24852
0
LINE
8
BLACK
6
CONTINUOUS
10
3.50136
20
-3.24852
11
3.50233
21
-3.24808
0
LINE
8
BLACK
6
CONTINUOUS
10
3.50233
20
-3.24808
11
3.50268
21
-3.24813
0
LINE
8
BLACK
6
CONTINUOUS
10
3.50268
20
-3.24813
11
3.50303
21
-3.24803
0
LINE
8
BLACK
6
CONTINUOUS
10
3.50303
20
-3.24803
11
4.50484
21
-3.24803
0
LINE
8
BLACK
6
CONTINUOUS
10
4.50484
20
-3.24803
11
4.50626
21
-3.24824
0
LINE
8
BLACK
6
CONTINUOUS
10
3.19179
20
-3.73341
11
3.19195
21
-3.73341
0
LINE
8
BLACK
6
CONTINUOUS
10
3.19195
20
-3.73341
11
3.19202
21
-3.73345
0
LINE
8
BLACK
6
CONTINUOUS
10
3.19202
20
-3.73345
11
3.1922
21
-3.73347
0
LINE
8
BLACK
6
CONTINUOUS
10
3.1922
20
-3.73347
11
3.19328
21
-3.73417
0
LINE
8
BLACK
6
CONTINUOUS
10
3.19328
20
-3.73417
11
3.19439
21
-3.73481
0
LINE
8
BLACK
6
CONTINUOUS
10
3.19439
20
-3.73481
11
3.21318
21
-3.75446
0
LINE
8
BLACK
6
CONTINUOUS
10
3.21318
20
-3.75446
11
3.21363
21
-3.75508
0
LINE
8
BLACK
6
CONTINUOUS
10
3.21363
20
-3.75508
11
3.21377
21
-3.75521
0
LINE
8
BLACK
6
CONTINUOUS
10
3.21377
20
-3.75521
11
3.21381
21
-3.75534
0
LINE
8
BLACK
6
CONTINUOUS
10
3.21381
20
-3.75534
11
3.21401
21
-3.75562
0
LINE
8
BLACK
6
CONTINUOUS
10
3.21401
20
-3.75562
11
3.21424
21
-3.75678
0
LINE
8
BLACK
6
CONTINUOUS
10
3.21424
20
-3.75678
11
3.21457
21
-3.75791
0
LINE
8
BLACK
6
CONTINUOUS
10
3.21457
20
-3.75791
11
3.21457
21
-3.8642
0
LINE
8
BLACK
6
CONTINUOUS
10
3.21457
20
-3.8642
11
3.21447
21
-3.86485
0
LINE
8
BLACK
6
CONTINUOUS
10
3.21447
20
-3.86485
11
3.21449
21
-3.86505
0
LINE
8
BLACK
6
CONTINUOUS
10
3.21449
20
-3.86505
11
3.21442
21
-3.86519
0
LINE
8
BLACK
6
CONTINUOUS
10
3.21442
20
-3.86519
11
3.21436
21
-3.86562
0
LINE
8
BLACK
6
CONTINUOUS
10
3.21436
20
-3.86562
11
3.21375
21
-3.86656
0
LINE
8
BLACK
6
CONTINUOUS
10
3.21375
20
-3.86656
11
3.21325
21
-3.86758
0
LINE
8
BLACK
6
CONTINUOUS
10
3.21325
20
-3.86758
11
3.1944
21
-3.88814
0
LINE
8
BLACK
6
CONTINUOUS
10
3.1944
20
-3.88814
11
3.19349
21
-3.88889
0
LINE
8
BLACK
6
CONTINUOUS
10
3.19349
20
-3.88889
11
3.19342
21
-3.88897
0
LINE
8
BLACK
6
CONTINUOUS
10
3.19342
20
-3.88897
11
3.19337
21
-3.88899
0
LINE
8
BLACK
6
CONTINUOUS
10
3.19337
20
-3.88899
11
3.19329
21
-3.88905
0
LINE
8
BLACK
6
CONTINUOUS
10
3.19329
20
-3.88905
11
3.192
21
-3.88939
0
LINE
8
BLACK
6
CONTINUOUS
10
3.192
20
-3.88939
11
3.19071
21
-3.88976
0
LINE
8
BLACK
6
CONTINUOUS
10
3.19071
20
-3.88976
11
3.15574
21
-3.88976
0
LINE
8
BLACK
6
CONTINUOUS
10
3.15574
20
-3.88976
11
3.15458
21
-3.8896
0
LINE
8
BLACK
6
CONTINUOUS
10
3.15458
20
-3.8896
11
3.15447
21
-3.8896
0
LINE
8
BLACK
6
CONTINUOUS
10
3.15447
20
-3.8896
11
3.15442
21
-3.88957
0
LINE
8
BLACK
6
CONTINUOUS
10
3.15442
20
-3.88957
11
3.15432
21
-3.88956
0
LINE
8
BLACK
6
CONTINUOUS
10
3.15432
20
-3.88956
11
3.1532
21
-3.88883
0
LINE
8
BLACK
6
CONTINUOUS
10
3.1532
20
-3.88883
11
3.15206
21
-3.88814
0
LINE
8
BLACK
6
CONTINUOUS
10
3.15206
20
-3.88814
11
3.1332
21
-3.86758
0
LINE
8
BLACK
6
CONTINUOUS
10
3.1332
20
-3.86758
11
3.13283
21
-3.86703
0
LINE
8
BLACK
6
CONTINUOUS
10
3.13283
20
-3.86703
11
3.13268
21
-3.8669
0
LINE
8
BLACK
6
CONTINUOUS
10
3.13268
20
-3.8669
11
3.13264
21
-3.86674
0
LINE
8
BLACK
6
CONTINUOUS
10
3.13264
20
-3.86674
11
3.1324
21
-3.86639
0
LINE
8
BLACK
6
CONTINUOUS
10
3.1324
20
-3.86639
11
3.13221
21
-3.86528
0
LINE
8
BLACK
6
CONTINUOUS
10
3.13221
20
-3.86528
11
3.13189
21
-3.8642
0
LINE
8
BLACK
6
CONTINUOUS
10
3.13189
20
-3.8642
11
3.13189
21
-3.75791
0
LINE
8
BLACK
6
CONTINUOUS
10
3.13189
20
-3.75791
11
3.132
21
-3.75715
0
LINE
8
BLACK
6
CONTINUOUS
10
3.132
20
-3.75715
11
3.13198
21
-3.75696
0
LINE
8
BLACK
6
CONTINUOUS
10
3.13198
20
-3.75696
11
3.13205
21
-3.75683
0
LINE
8
BLACK
6
CONTINUOUS
10
3.13205
20
-3.75683
11
3.1321
21
-3.75649
0
LINE
8
BLACK
6
CONTINUOUS
10
3.1321
20
-3.75649
11
3.13273
21
-3.7555
0
LINE
8
BLACK
6
CONTINUOUS
10
3.13273
20
-3.7555
11
3.13328
21
-3.75446
0
LINE
8
BLACK
6
CONTINUOUS
10
3.13328
20
-3.75446
11
3.15207
21
-3.73481
0
LINE
8
BLACK
6
CONTINUOUS
10
3.15207
20
-3.73481
11
3.15288
21
-3.73418
0
LINE
8
BLACK
6
CONTINUOUS
10
3.15288
20
-3.73418
11
3.15298
21
-3.73406
0
LINE
8
BLACK
6
CONTINUOUS
10
3.15298
20
-3.73406
11
3.15306
21
-3.73404
0
LINE
8
BLACK
6
CONTINUOUS
10
3.15306
20
-3.73404
11
3.1532
21
-3.73393
0
LINE
8
BLACK
6
CONTINUOUS
10
3.1532
20
-3.73393
11
3.15445
21
-3.73363
0
LINE
8
BLACK
6
CONTINUOUS
10
3.15445
20
-3.73363
11
3.15568
21
-3.73327
0
LINE
8
BLACK
6
CONTINUOUS
10
3.15568
20
-3.73327
11
3.19078
21
-3.73327
0
LINE
8
BLACK
6
CONTINUOUS
10
3.19078
20
-3.73327
11
3.19179
21
-3.73341
0
LINE
8
BLACK
6
CONTINUOUS
10
3.19172
20
-3.508
11
3.19191
21
-3.50799
0
LINE
8
BLACK
6
CONTINUOUS
10
3.19191
20
-3.50799
11
3.19201
21
-3.50804
0
LINE
8
BLACK
6
CONTINUOUS
10
3.19201
20
-3.50804
11
3.19226
21
-3.50808
0
LINE
8
BLACK
6
CONTINUOUS
10
3.19226
20
-3.50808
11
3.1933
21
-3.50875
0
LINE
8
BLACK
6
CONTINUOUS
10
3.1933
20
-3.50875
11
3.19438
21
-3.50934
0
LINE
8
BLACK
6
CONTINUOUS
10
3.19438
20
-3.50934
11
3.2131
21
-3.52806
0
LINE
8
BLACK
6
CONTINUOUS
10
3.2131
20
-3.52806
11
3.21364
21
-3.52878
0
LINE
8
BLACK
6
CONTINUOUS
10
3.21364
20
-3.52878
11
3.21377
21
-3.5289
0
LINE
8
BLACK
6
CONTINUOUS
10
3.21377
20
-3.5289
11
3.21381
21
-3.52901
0
LINE
8
BLACK
6
CONTINUOUS
10
3.21381
20
-3.52901
11
3.21396
21
-3.52921
0
LINE
8
BLACK
6
CONTINUOUS
10
3.21396
20
-3.52921
11
3.21422
21
-3.53042
0
LINE
8
BLACK
6
CONTINUOUS
10
3.21422
20
-3.53042
11
3.21457
21
-3.5316
0
LINE
8
BLACK
6
CONTINUOUS
10
3.21457
20
-3.5316
11
3.21457
21
-3.63769
0
LINE
8
BLACK
6
CONTINUOUS
10
3.21457
20
-3.63769
11
3.21444
21
-3.63857
0
LINE
8
BLACK
6
CONTINUOUS
10
3.21444
20
-3.63857
11
3.21445
21
-3.63876
0
LINE
8
BLACK
6
CONTINUOUS
10
3.21445
20
-3.63876
11
3.2144
21
-3.63886
0
LINE
8
BLACK
6
CONTINUOUS
10
3.2144
20
-3.63886
11
3.21436
21
-3.63911
0
LINE
8
BLACK
6
CONTINUOUS
10
3.21436
20
-3.63911
11
3.21369
21
-3.64015
0
LINE
8
BLACK
6
CONTINUOUS
10
3.21369
20
-3.64015
11
3.2131
21
-3.64123
0
LINE
8
BLACK
6
CONTINUOUS
10
3.2131
20
-3.64123
11
3.19438
21
-3.65995
0
LINE
8
BLACK
6
CONTINUOUS
10
3.19438
20
-3.65995
11
3.19366
21
-3.66049
0
LINE
8
BLACK
6
CONTINUOUS
10
3.19366
20
-3.66049
11
3.19354
21
-3.66062
0
LINE
8
BLACK
6
CONTINUOUS
10
3.19354
20
-3.66062
11
3.19344
21
-3.66066
0
LINE
8
BLACK
6
CONTINUOUS
10
3.19344
20
-3.66066
11
3.19323
21
-3.66081
0
LINE
8
BLACK
6
CONTINUOUS
10
3.19323
20
-3.66081
11
3.19202
21
-3.66107
0
LINE
8
BLACK
6
CONTINUOUS
10
3.19202
20
-3.66107
11
3.19084
21
-3.66142
0
LINE
8
BLACK
6
CONTINUOUS
10
3.19084
20
-3.66142
11
3.15561
21
-3.66142
0
LINE
8
BLACK
6
CONTINUOUS
10
3.15561
20
-3.66142
11
3.15473
21
-3.66129
0
LINE
8
BLACK
6
CONTINUOUS
10
3.15473
20
-3.66129
11
3.15455
21
-3.6613
0
LINE
8
BLACK
6
CONTINUOUS
10
3.15455
20
-3.6613
11
3.15445
21
-3.66125
0
LINE
8
BLACK
6
CONTINUOUS
10
3.15445
20
-3.66125
11
3.15419
21
-3.66121
0
LINE
8
BLACK
6
CONTINUOUS
10
3.15419
20
-3.66121
11
3.15316
21
-3.66054
0
LINE
8
BLACK
6
CONTINUOUS
10
3.15316
20
-3.66054
11
3.15208
21
-3.65995
0
LINE
8
BLACK
6
CONTINUOUS
10
3.15208
20
-3.65995
11
3.13335
21
-3.64123
0
LINE
8
BLACK
6
CONTINUOUS
10
3.13335
20
-3.64123
11
3.13282
21
-3.64051
0
LINE
8
BLACK
6
CONTINUOUS
10
3.13282
20
-3.64051
11
3.13268
21
-3.64039
0
LINE
8
BLACK
6
CONTINUOUS
10
3.13268
20
-3.64039
11
3.13265
21
-3.64029
0
LINE
8
BLACK
6
CONTINUOUS
10
3.13265
20
-3.64029
11
3.1325
21
-3.64008
0
LINE
8
BLACK
6
CONTINUOUS
10
3.1325
20
-3.64008
11
3.13224
21
-3.63887
0
LINE
8
BLACK
6
CONTINUOUS
10
3.13224
20
-3.63887
11
3.13189
21
-3.63769
0
LINE
8
BLACK
6
CONTINUOUS
10
3.13189
20
-3.63769
11
3.13189
21
-3.5316
0
LINE
8
BLACK
6
CONTINUOUS
10
3.13189
20
-3.5316
11
3.13202
21
-3.53072
0
LINE
8
BLACK
6
CONTINUOUS
10
3.13202
20
-3.53072
11
3.132
21
-3.53053
0
LINE
8
BLACK
6
CONTINUOUS
10
3.132
20
-3.53053
11
3.13206
21
-3.53043
0
LINE
8
BLACK
6
CONTINUOUS
10
3.13206
20
-3.53043
11
3.1321
21
-3.53018
0
LINE
8
BLACK
6
CONTINUOUS
10
3.1321
20
-3.53018
11
3.13276
21
-3.52914
0
LINE
8
BLACK
6
CONTINUOUS
10
3.13276
20
-3.52914
11
3.13335
21
-3.52806
0
LINE
8
BLACK
6
CONTINUOUS
10
3.13335
20
-3.52806
11
3.15208
21
-3.50934
0
LINE
8
BLACK
6
CONTINUOUS
10
3.15208
20
-3.50934
11
3.15279
21
-3.50881
0
LINE
8
BLACK
6
CONTINUOUS
10
3.15279
20
-3.50881
11
3.15291
21
-3.50867
0
LINE
8
BLACK
6
CONTINUOUS
10
3.15291
20
-3.50867
11
3.15302
21
-3.50863
0
LINE
8
BLACK
6
CONTINUOUS
10
3.15302
20
-3.50863
11
3.15323
21
-3.50848
0
LINE
8
BLACK
6
CONTINUOUS
10
3.15323
20
-3.50848
11
3.15443
21
-3.50822
0
LINE
8
BLACK
6
CONTINUOUS
10
3.15443
20
-3.50822
11
3.15561
21
-3.50787
0
LINE
8
BLACK
6
CONTINUOUS
10
3.15561
20
-3.50787
11
3.19084
21
-3.50787
0
LINE
8
BLACK
6
CONTINUOUS
10
3.19084
20
-3.50787
11
3.19172
21
-3.508
0
LINE
8
BLACK
6
CONTINUOUS
10
3.55673
20
-3.34225
11
3.55714
21
-3.34242
0
LINE
8
BLACK
6
CONTINUOUS
10
3.55714
20
-3.34242
11
3.55718
21
-3.34247
0
LINE
8
BLACK
6
CONTINUOUS
10
3.55718
20
-3.34247
11
3.55736
21
-3.34288
0
LINE
8
BLACK
6
CONTINUOUS
10
3.55736
20
-3.34288
11
3.55736
21
-3.34291
0
LINE
8
BLACK
6
CONTINUOUS
10
3.55736
20
-3.34291
11
3.55736
21
-3.84358
0
LINE
8
BLACK
6
CONTINUOUS
10
3.55736
20
-3.84358
11
3.55793
21
-3.84494
0
LINE
8
BLACK
6
CONTINUOUS
10
3.55793
20
-3.84494
11
3.57042
21
-3.85743
0
LINE
8
BLACK
6
CONTINUOUS
10
3.57042
20
-3.85743
11
3.57178
21
-3.85799
0
LINE
8
BLACK
6
CONTINUOUS
10
3.57178
20
-3.85799
11
4.36593
21
-3.85799
0
LINE
8
BLACK
6
CONTINUOUS
10
4.36593
20
-3.85799
11
4.36728
21
-3.85743
0
LINE
8
BLACK
6
CONTINUOUS
10
4.36728
20
-3.85743
11
4.36783
21
-3.85609
0
LINE
8
BLACK
6
CONTINUOUS
10
4.36783
20
-3.85609
11
4.36783
21
-3.79764
0
LINE
8
BLACK
6
CONTINUOUS
10
4.36783
20
-3.79764
11
4.36784
21
-3.79761
0
LINE
8
BLACK
6
CONTINUOUS
10
4.36784
20
-3.79761
11
4.36801
21
-3.79719
0
LINE
8
BLACK
6
CONTINUOUS
10
4.36801
20
-3.79719
11
4.36806
21
-3.79715
0
LINE
8
BLACK
6
CONTINUOUS
10
4.36806
20
-3.79715
11
4.36847
21
-3.79697
0
LINE
8
BLACK
6
CONTINUOUS
10
4.36847
20
-3.79697
11
4.3685
21
-3.79697
0
LINE
8
BLACK
6
CONTINUOUS
10
4.3685
20
-3.79697
11
4.50945
21
-3.79697
0
LINE
8
BLACK
6
CONTINUOUS
10
4.50945
20
-3.79697
11
4.50948
21
-3.79697
0
LINE
8
BLACK
6
CONTINUOUS
10
4.50948
20
-3.79697
11
4.5099
21
-3.79715
0
LINE
8
BLACK
6
CONTINUOUS
10
4.5099
20
-3.79715
11
4.50994
21
-3.79719
0
LINE
8
BLACK
6
CONTINUOUS
10
4.50994
20
-3.79719
11
4.51011
21
-3.79761
0
LINE
8
BLACK
6
CONTINUOUS
10
4.51011
20
-3.79761
11
4.51012
21
-3.79764
0
LINE
8
BLACK
6
CONTINUOUS
10
4.51012
20
-3.79764
11
4.51012
21
-3.91693
0
LINE
8
BLACK
6
CONTINUOUS
10
4.51012
20
-3.91693
11
4.51011
21
-3.91696
0
LINE
8
BLACK
6
CONTINUOUS
10
4.51011
20
-3.91696
11
4.50994
21
-3.91738
0
LINE
8
BLACK
6
CONTINUOUS
10
4.50994
20
-3.91738
11
4.5099
21
-3.91742
0
LINE
8
BLACK
6
CONTINUOUS
10
4.5099
20
-3.91742
11
4.50948
21
-3.91759
0
LINE
8
BLACK
6
CONTINUOUS
10
4.50948
20
-3.91759
11
4.50945
21
-3.9176
0
LINE
8
BLACK
6
CONTINUOUS
10
4.50945
20
-3.9176
11
3.55354
21
-3.9176
0
LINE
8
BLACK
6
CONTINUOUS
10
3.55354
20
-3.9176
11
3.55351
21
-3.91759
0
LINE
8
BLACK
6
CONTINUOUS
10
3.55351
20
-3.91759
11
3.5527
21
-3.91726
0
LINE
8
BLACK
6
CONTINUOUS
10
3.5527
20
-3.91726
11
3.55268
21
-3.91724
0
LINE
8
BLACK
6
CONTINUOUS
10
3.55268
20
-3.91724
11
3.49811
21
-3.86268
0
LINE
8
BLACK
6
CONTINUOUS
10
3.49811
20
-3.86268
11
3.4981
21
-3.86265
0
LINE
8
BLACK
6
CONTINUOUS
10
3.4981
20
-3.86265
11
3.4979
21
-3.86217
0
LINE
8
BLACK
6
CONTINUOUS
10
3.4979
20
-3.86217
11
3.49811
21
-3.86217
0
LINE
8
BLACK
6
CONTINUOUS
10
3.49811
20
-3.86217
11
3.55318
21
-3.91724
0
LINE
8
BLACK
6
CONTINUOUS
10
3.55318
20
-3.91724
11
4.50976
21
-3.91724
0
LINE
8
BLACK
6
CONTINUOUS
10
4.50976
20
-3.91724
11
4.50976
21
-3.79732
0
LINE
8
BLACK
6
CONTINUOUS
10
4.50976
20
-3.79732
11
4.36819
21
-3.79732
0
LINE
8
BLACK
6
CONTINUOUS
10
4.36819
20
-3.79732
11
4.36819
21
-3.85827
0
LINE
8
BLACK
6
CONTINUOUS
10
4.36819
20
-3.85827
11
4.36815
21
-3.85834
0
LINE
8
BLACK
6
CONTINUOUS
10
4.36815
20
-3.85834
11
4.36811
21
-3.85835
0
LINE
8
BLACK
6
CONTINUOUS
10
4.36811
20
-3.85835
11
3.57087
21
-3.85835
0
LINE
8
BLACK
6
CONTINUOUS
10
3.57087
20
-3.85835
11
3.57081
21
-3.85832
0
LINE
8
BLACK
6
CONTINUOUS
10
3.57081
20
-3.85832
11
3.55703
21
-3.84454
0
LINE
8
BLACK
6
CONTINUOUS
10
3.55703
20
-3.84454
11
3.55701
21
-3.84449
0
LINE
8
BLACK
6
CONTINUOUS
10
3.55701
20
-3.84449
11
3.55701
21
-3.3426
0
LINE
8
BLACK
6
CONTINUOUS
10
3.55701
20
-3.3426
11
3.49811
21
-3.3426
0
LINE
8
BLACK
6
CONTINUOUS
10
3.49811
20
-3.3426
11
3.49811
21
-3.86217
0
LINE
8
BLACK
6
CONTINUOUS
10
3.49811
20
-3.86217
11
3.4979
21
-3.86217
0
LINE
8
BLACK
6
CONTINUOUS
10
3.4979
20
-3.86217
11
3.49776
21
-3.86184
0
LINE
8
BLACK
6
CONTINUOUS
10
3.49776
20
-3.86184
11
3.49776
21
-3.86181
0
LINE
8
BLACK
6
CONTINUOUS
10
3.49776
20
-3.86181
11
3.49776
21
-3.34291
0
LINE
8
BLACK
6
CONTINUOUS
10
3.49776
20
-3.34291
11
3.49776
21
-3.34288
0
LINE
8
BLACK
6
CONTINUOUS
10
3.49776
20
-3.34288
11
3.49793
21
-3.34247
0
LINE
8
BLACK
6
CONTINUOUS
10
3.49793
20
-3.34247
11
3.49798
21
-3.34242
0
LINE
8
BLACK
6
CONTINUOUS
10
3.49798
20
-3.34242
11
3.49839
21
-3.34225
0
LINE
8
BLACK
6
CONTINUOUS
10
3.49839
20
-3.34225
11
3.49842
21
-3.34224
0
LINE
8
BLACK
6
CONTINUOUS
10
3.49842
20
-3.34224
11
3.5567
21
-3.34224
0
LINE
8
BLACK
6
CONTINUOUS
10
3.5567
20
-3.34224
11
3.55673
21
-3.34225
0
LINE
8
BLACK
6
CONTINUOUS
10
2.7772
20
-3.73201
11
2.77761
21
-3.73219
0
LINE
8
BLACK
6
CONTINUOUS
10
2.77761
20
-3.73219
11
2.77766
21
-3.73223
0
LINE
8
BLACK
6
CONTINUOUS
10
2.77766
20
-3.73223
11
2.77783
21
-3.73264
0
LINE
8
BLACK
6
CONTINUOUS
10
2.77783
20
-3.73264
11
2.77783
21
-3.73268
0
LINE
8
BLACK
6
CONTINUOUS
10
2.77783
20
-3.73268
11
2.77783
21
-3.88937
0
LINE
8
BLACK
6
CONTINUOUS
10
2.77783
20
-3.88937
11
2.77783
21
-3.8894
0
LINE
8
BLACK
6
CONTINUOUS
10
2.77783
20
-3.8894
11
2.77766
21
-3.88982
0
LINE
8
BLACK
6
CONTINUOUS
10
2.77766
20
-3.88982
11
2.77761
21
-3.88986
0
LINE
8
BLACK
6
CONTINUOUS
10
2.77761
20
-3.88986
11
2.7772
21
-3.89003
0
LINE
8
BLACK
6
CONTINUOUS
10
2.7772
20
-3.89003
11
2.77717
21
-3.89004
0
LINE
8
BLACK
6
CONTINUOUS
10
2.77717
20
-3.89004
11
2.68422
21
-3.89004
0
LINE
8
BLACK
6
CONTINUOUS
10
2.68422
20
-3.89004
11
2.68419
21
-3.89003
0
LINE
8
BLACK
6
CONTINUOUS
10
2.68419
20
-3.89003
11
2.68359
21
-3.88978
0
LINE
8
BLACK
6
CONTINUOUS
10
2.68359
20
-3.88978
11
2.68355
21
-3.88975
0
LINE
8
BLACK
6
CONTINUOUS
10
2.68355
20
-3.88975
11
2.6835
21
-3.88968
0
LINE
8
BLACK
6
CONTINUOUS
10
2.6835
20
-3.88968
11
2.6835
21
-3.88966
0
LINE
8
BLACK
6
CONTINUOUS
10
2.6835
20
-3.88966
11
2.68012
21
-3.88061
0
LINE
8
BLACK
6
CONTINUOUS
10
2.68012
20
-3.88061
11
2.68012
21
-3.88061
0
LINE
8
BLACK
6
CONTINUOUS
10
2.68012
20
-3.88061
11
2.68007
21
-3.88045
0
LINE
8
BLACK
6
CONTINUOUS
10
2.68007
20
-3.88045
11
2.68007
21
-3.88044
0
LINE
8
BLACK
6
CONTINUOUS
10
2.68007
20
-3.88044
11
2.67771
21
-3.8696
0
LINE
8
BLACK
6
CONTINUOUS
10
2.67771
20
-3.8696
11
2.67771
21
-3.8696
0
LINE
8
BLACK
6
CONTINUOUS
10
2.67771
20
-3.8696
11
2.67769
21
-3.86943
0
LINE
8
BLACK
6
CONTINUOUS
10
2.67769
20
-3.86943
11
2.67769
21
-3.86942
0
LINE
8
BLACK
6
CONTINUOUS
10
2.67769
20
-3.86942
11
2.67689
21
-3.85832
0
LINE
8
BLACK
6
CONTINUOUS
10
2.67689
20
-3.85832
11
2.67689
21
-3.85832
0
LINE
8
BLACK
6
CONTINUOUS
10
2.67689
20
-3.85832
11
2.67689
21
-3.85826
0
LINE
8
BLACK
6
CONTINUOUS
10
2.67689
20
-3.85826
11
2.67724
21
-3.85826
0
LINE
8
BLACK
6
CONTINUOUS
10
2.67724
20
-3.85826
11
2.67804
21
-3.86946
0
LINE
8
BLACK
6
CONTINUOUS
10
2.67804
20
-3.86946
11
2.68043
21
-3.88043
0
LINE
8
BLACK
6
CONTINUOUS
10
2.68043
20
-3.88043
11
2.68388
21
-3.88969
0
LINE
8
BLACK
6
CONTINUOUS
10
2.68388
20
-3.88969
11
2.77748
21
-3.88969
0
LINE
8
BLACK
6
CONTINUOUS
10
2.77748
20
-3.88969
11
2.77748
21
-3.73236
0
LINE
8
BLACK
6
CONTINUOUS
10
2.77748
20
-3.73236
11
2.67724
21
-3.73236
0
LINE
8
BLACK
6
CONTINUOUS
10
2.67724
20
-3.73236
11
2.67724
21
-3.85826
0
LINE
8
BLACK
6
CONTINUOUS
10
2.67724
20
-3.85826
11
2.67689
21
-3.85826
0
LINE
8
BLACK
6
CONTINUOUS
10
2.67689
20
-3.85826
11
2.67689
21
-3.85824
0
LINE
8
BLACK
6
CONTINUOUS
10
2.67689
20
-3.85824
11
2.67689
21
-3.85823
0
LINE
8
BLACK
6
CONTINUOUS
10
2.67689
20
-3.85823
11
2.67689
21
-3.73268
0
LINE
8
BLACK
6
CONTINUOUS
10
2.67689
20
-3.73268
11
2.6769
21
-3.73264
0
LINE
8
BLACK
6
CONTINUOUS
10
2.6769
20
-3.73264
11
2.67707
21
-3.73223
0
LINE
8
BLACK
6
CONTINUOUS
10
2.67707
20
-3.73223
11
2.67711
21
-3.73219
0
LINE
8
BLACK
6
CONTINUOUS
10
2.67711
20
-3.73219
11
2.67753
21
-3.73201
0
LINE
8
BLACK
6
CONTINUOUS
10
2.67753
20
-3.73201
11
2.67756
21
-3.73201
0
LINE
8
BLACK
6
CONTINUOUS
10
2.67756
20
-3.73201
11
2.77717
21
-3.73201
0
LINE
8
BLACK
6
CONTINUOUS
10
2.77717
20
-3.73201
11
2.7772
21
-3.73201
0
LINE
8
BLACK
6
CONTINUOUS
10
3.19254
20
-3.733
11
3.19337
21
-3.73335
0
LINE
8
BLACK
6
CONTINUOUS
10
3.19337
20
-3.73335
11
3.19339
21
-3.73337
0
LINE
8
BLACK
6
CONTINUOUS
10
3.19339
20
-3.73337
11
3.2145
21
-3.75544
0
LINE
8
BLACK
6
CONTINUOUS
10
3.2145
20
-3.75544
11
3.21452
21
-3.75547
0
LINE
8
BLACK
6
CONTINUOUS
10
3.21452
20
-3.75547
11
3.21484
21
-3.75626
0
LINE
8
BLACK
6
CONTINUOUS
10
3.21484
20
-3.75626
11
3.21484
21
-3.75629
0
LINE
8
BLACK
6
CONTINUOUS
10
3.21484
20
-3.75629
11
3.21484
21
-3.86577
0
LINE
8
BLACK
6
CONTINUOUS
10
3.21484
20
-3.86577
11
3.21484
21
-3.8658
0
LINE
8
BLACK
6
CONTINUOUS
10
3.21484
20
-3.8658
11
3.21454
21
-3.86658
0
LINE
8
BLACK
6
CONTINUOUS
10
3.21454
20
-3.86658
11
3.21452
21
-3.8666
0
LINE
8
BLACK
6
CONTINUOUS
10
3.21452
20
-3.8666
11
3.1934
21
-3.88964
0
LINE
8
BLACK
6
CONTINUOUS
10
3.1934
20
-3.88964
11
3.19337
21
-3.88966
0
LINE
8
BLACK
6
CONTINUOUS
10
3.19337
20
-3.88966
11
3.19253
21
-3.89003
0
LINE
8
BLACK
6
CONTINUOUS
10
3.19253
20
-3.89003
11
3.1925
21
-3.89004
0
LINE
8
BLACK
6
CONTINUOUS
10
3.1925
20
-3.89004
11
3.15396
21
-3.89004
0
LINE
8
BLACK
6
CONTINUOUS
10
3.15396
20
-3.89004
11
3.15393
21
-3.89003
0
LINE
8
BLACK
6
CONTINUOUS
10
3.15393
20
-3.89003
11
3.15309
21
-3.88966
0
LINE
8
BLACK
6
CONTINUOUS
10
3.15309
20
-3.88966
11
3.15306
21
-3.88964
0
LINE
8
BLACK
6
CONTINUOUS
10
3.15306
20
-3.88964
11
3.13194
21
-3.8666
0
LINE
8
BLACK
6
CONTINUOUS
10
3.13194
20
-3.8666
11
3.13192
21
-3.86658
0
LINE
8
BLACK
6
CONTINUOUS
10
3.13192
20
-3.86658
11
3.13174
21
-3.86611
0
LINE
8
BLACK
6
CONTINUOUS
10
3.13174
20
-3.86611
11
3.13197
21
-3.86611
0
LINE
8
BLACK
6
CONTINUOUS
10
3.13197
20
-3.86611
11
3.15358
21
-3.88969
0
LINE
8
BLACK
6
CONTINUOUS
10
3.15358
20
-3.88969
11
3.19288
21
-3.88969
0
LINE
8
BLACK
6
CONTINUOUS
10
3.19288
20
-3.88969
11
3.21449
21
-3.86611
0
LINE
8
BLACK
6
CONTINUOUS
10
3.21449
20
-3.86611
11
3.21449
21
-3.75594
0
LINE
8
BLACK
6
CONTINUOUS
10
3.21449
20
-3.75594
11
3.19288
21
-3.73335
0
LINE
8
BLACK
6
CONTINUOUS
10
3.19288
20
-3.73335
11
3.15358
21
-3.73335
0
LINE
8
BLACK
6
CONTINUOUS
10
3.15358
20
-3.73335
11
3.13197
21
-3.75594
0
LINE
8
BLACK
6
CONTINUOUS
10
3.13197
20
-3.75594
11
3.13197
21
-3.86611
0
LINE
8
BLACK
6
CONTINUOUS
10
3.13197
20
-3.86611
11
3.13174
21
-3.86611
0
LINE
8
BLACK
6
CONTINUOUS
10
3.13174
20
-3.86611
11
3.13162
21
-3.8658
0
LINE
8
BLACK
6
CONTINUOUS
10
3.13162
20
-3.8658
11
3.13161
21
-3.86577
0
LINE
8
BLACK
6
CONTINUOUS
10
3.13161
20
-3.86577
11
3.13161
21
-3.75629
0
LINE
8
BLACK
6
CONTINUOUS
10
3.13161
20
-3.75629
11
3.13162
21
-3.75626
0
LINE
8
BLACK
6
CONTINUOUS
10
3.13162
20
-3.75626
11
3.13194
21
-3.75547
0
LINE
8
BLACK
6
CONTINUOUS
10
3.13194
20
-3.75547
11
3.13195
21
-3.75544
0
LINE
8
BLACK
6
CONTINUOUS
10
3.13195
20
-3.75544
11
3.15307
21
-3.73337
0
LINE
8
BLACK
6
CONTINUOUS
10
3.15307
20
-3.73337
11
3.15309
21
-3.73335
0
LINE
8
BLACK
6
CONTINUOUS
10
3.15309
20
-3.73335
11
3.15392
21
-3.733
0
LINE
8
BLACK
6
CONTINUOUS
10
3.15392
20
-3.733
11
3.15395
21
-3.73299
0
LINE
8
BLACK
6
CONTINUOUS
10
3.15395
20
-3.73299
11
3.19251
21
-3.73299
0
LINE
8
BLACK
6
CONTINUOUS
10
3.19251
20
-3.73299
11
3.19254
21
-3.733
0
LINE
8
BLACK
6
CONTINUOUS
10
3.19255
20
-3.5076
11
3.19336
21
-3.50794
0
LINE
8
BLACK
6
CONTINUOUS
10
3.19336
20
-3.50794
11
3.19339
21
-3.50796
0
LINE
8
BLACK
6
CONTINUOUS
10
3.19339
20
-3.50796
11
3.21448
21
-3.52906
0
LINE
8
BLACK
6
CONTINUOUS
10
3.21448
20
-3.52906
11
3.2145
21
-3.52908
0
LINE
8
BLACK
6
CONTINUOUS
10
3.2145
20
-3.52908
11
3.21484
21
-3.52989
0
LINE
8
BLACK
6
CONTINUOUS
10
3.21484
20
-3.52989
11
3.21484
21
-3.52992
0
LINE
8
BLACK
6
CONTINUOUS
10
3.21484
20
-3.52992
11
3.21484
21
-3.63937
0
LINE
8
BLACK
6
CONTINUOUS
10
3.21484
20
-3.63937
11
3.21484
21
-3.6394
0
LINE
8
BLACK
6
CONTINUOUS
10
3.21484
20
-3.6394
11
3.2145
21
-3.64021
0
LINE
8
BLACK
6
CONTINUOUS
10
3.2145
20
-3.64021
11
3.21448
21
-3.64024
0
LINE
8
BLACK
6
CONTINUOUS
10
3.21448
20
-3.64024
11
3.19339
21
-3.66134
0
LINE
8
BLACK
6
CONTINUOUS
10
3.19339
20
-3.66134
11
3.19336
21
-3.66135
0
LINE
8
BLACK
6
CONTINUOUS
10
3.19336
20
-3.66135
11
3.19255
21
-3.66169
0
LINE
8
BLACK
6
CONTINUOUS
10
3.19255
20
-3.66169
11
3.19252
21
-3.66169
0
LINE
8
BLACK
6
CONTINUOUS
10
3.19252
20
-3.66169
11
3.15393
21
-3.66169
0
LINE
8
BLACK
6
CONTINUOUS
10
3.15393
20
-3.66169
11
3.1539
21
-3.66169
0
LINE
8
BLACK
6
CONTINUOUS
10
3.1539
20
-3.66169
11
3.1531
21
-3.66135
0
LINE
8
BLACK
6
CONTINUOUS
10
3.1531
20
-3.66135
11
3.15307
21
-3.66134
0
LINE
8
BLACK
6
CONTINUOUS
10
3.15307
20
-3.66134
11
3.13197
21
-3.64024
0
LINE
8
BLACK
6
CONTINUOUS
10
3.13197
20
-3.64024
11
3.13195
21
-3.64021
0
LINE
8
BLACK
6
CONTINUOUS
10
3.13195
20
-3.64021
11
3.13176
21
-3.63973
0
LINE
8
BLACK
6
CONTINUOUS
10
3.13176
20
-3.63973
11
3.13197
21
-3.63973
0
LINE
8
BLACK
6
CONTINUOUS
10
3.13197
20
-3.63973
11
3.15358
21
-3.66134
0
LINE
8
BLACK
6
CONTINUOUS
10
3.15358
20
-3.66134
11
3.19288
21
-3.66134
0
LINE
8
BLACK
6
CONTINUOUS
10
3.19288
20
-3.66134
11
3.21449
21
-3.63973
0
LINE
8
BLACK
6
CONTINUOUS
10
3.21449
20
-3.63973
11
3.21449
21
-3.52956
0
LINE
8
BLACK
6
CONTINUOUS
10
3.21449
20
-3.52956
11
3.19288
21
-3.50795
0
LINE
8
BLACK
6
CONTINUOUS
10
3.19288
20
-3.50795
11
3.15358
21
-3.50795
0
LINE
8
BLACK
6
CONTINUOUS
10
3.15358
20
-3.50795
11
3.13197
21
-3.52956
0
LINE
8
BLACK
6
CONTINUOUS
10
3.13197
20
-3.52956
11
3.13197
21
-3.63973
0
LINE
8
BLACK
6
CONTINUOUS
10
3.13197
20
-3.63973
11
3.13176
21
-3.63973
0
LINE
8
BLACK
6
CONTINUOUS
10
3.13176
20
-3.63973
11
3.13162
21
-3.6394
0
LINE
8
BLACK
6
CONTINUOUS
10
3.13162
20
-3.6394
11
3.13161
21
-3.63937
0
LINE
8
BLACK
6
CONTINUOUS
10
3.13161
20
-3.63937
11
3.13161
21
-3.52992
0
LINE
8
BLACK
6
CONTINUOUS
10
3.13161
20
-3.52992
11
3.13162
21
-3.52989
0
LINE
8
BLACK
6
CONTINUOUS
10
3.13162
20
-3.52989
11
3.13195
21
-3.52908
0
LINE
8
BLACK
6
CONTINUOUS
10
3.13195
20
-3.52908
11
3.13197
21
-3.52906
0
LINE
8
BLACK
6
CONTINUOUS
10
3.13197
20
-3.52906
11
3.15307
21
-3.50796
0
LINE
8
BLACK
6
CONTINUOUS
10
3.15307
20
-3.50796
11
3.1531
21
-3.50794
0
LINE
8
BLACK
6
CONTINUOUS
10
3.1531
20
-3.50794
11
3.1539
21
-3.5076
0
LINE
8
BLACK
6
CONTINUOUS
10
3.1539
20
-3.5076
11
3.15393
21
-3.5076
0
LINE
8
BLACK
6
CONTINUOUS
10
3.15393
20
-3.5076
11
3.19252
21
-3.5076
0
LINE
8
BLACK
6
CONTINUOUS
10
3.19252
20
-3.5076
11
3.19255
21
-3.5076
0
LINE
8
BLACK
6
CONTINUOUS
10
2.7772
20
-3.50367
11
2.77761
21
-3.50384
0
LINE
8
BLACK
6
CONTINUOUS
10
2.77761
20
-3.50384
11
2.77766
21
-3.50388
0
LINE
8
BLACK
6
CONTINUOUS
10
2.77766
20
-3.50388
11
2.77783
21
-3.5043
0
LINE
8
BLACK
6
CONTINUOUS
10
2.77783
20
-3.5043
11
2.77783
21
-3.50433
0
LINE
8
BLACK
6
CONTINUOUS
10
2.77783
20
-3.50433
11
2.77783
21
-3.66103
0
LINE
8
BLACK
6
CONTINUOUS
10
2.77783
20
-3.66103
11
2.77783
21
-3.66106
0
LINE
8
BLACK
6
CONTINUOUS
10
2.77783
20
-3.66106
11
2.77766
21
-3.66147
0
LINE
8
BLACK
6
CONTINUOUS
10
2.77766
20
-3.66147
11
2.77761
21
-3.66151
0
LINE
8
BLACK
6
CONTINUOUS
10
2.77761
20
-3.66151
11
2.7772
21
-3.66169
0
LINE
8
BLACK
6
CONTINUOUS
10
2.7772
20
-3.66169
11
2.77717
21
-3.66169
0
LINE
8
BLACK
6
CONTINUOUS
10
2.77717
20
-3.66169
11
2.67756
21
-3.66169
0
LINE
8
BLACK
6
CONTINUOUS
10
2.67756
20
-3.66169
11
2.67753
21
-3.66169
0
LINE
8
BLACK
6
CONTINUOUS
10
2.67753
20
-3.66169
11
2.67711
21
-3.66151
0
LINE
8
BLACK
6
CONTINUOUS
10
2.67711
20
-3.66151
11
2.67707
21
-3.66147
0
LINE
8
BLACK
6
CONTINUOUS
10
2.67707
20
-3.66147
11
2.67701
21
-3.66134
0
LINE
8
BLACK
6
CONTINUOUS
10
2.67701
20
-3.66134
11
2.67724
21
-3.66134
0
LINE
8
BLACK
6
CONTINUOUS
10
2.67724
20
-3.66134
11
2.77748
21
-3.66134
0
LINE
8
BLACK
6
CONTINUOUS
10
2.77748
20
-3.66134
11
2.77748
21
-3.50402
0
LINE
8
BLACK
6
CONTINUOUS
10
2.77748
20
-3.50402
11
2.67724
21
-3.50402
0
LINE
8
BLACK
6
CONTINUOUS
10
2.67724
20
-3.50402
11
2.67724
21
-3.66134
0
LINE
8
BLACK
6
CONTINUOUS
10
2.67724
20
-3.66134
11
2.67701
21
-3.66134
0
LINE
8
BLACK
6
CONTINUOUS
10
2.67701
20
-3.66134
11
2.6769
21
-3.66106
0
LINE
8
BLACK
6
CONTINUOUS
10
2.6769
20
-3.66106
11
2.67689
21
-3.66103
0
LINE
8
BLACK
6
CONTINUOUS
10
2.67689
20
-3.66103
11
2.67689
21
-3.50433
0
LINE
8
BLACK
6
CONTINUOUS
10
2.67689
20
-3.50433
11
2.6769
21
-3.5043
0
LINE
8
BLACK
6
CONTINUOUS
10
2.6769
20
-3.5043
11
2.67707
21
-3.50388
0
LINE
8
BLACK
6
CONTINUOUS
10
2.67707
20
-3.50388
11
2.67711
21
-3.50384
0
LINE
8
BLACK
6
CONTINUOUS
10
2.67711
20
-3.50384
11
2.67753
21
-3.50367
0
LINE
8
BLACK
6
CONTINUOUS
10
2.67753
20
-3.50367
11
2.67756
21
-3.50366
0
LINE
8
BLACK
6
CONTINUOUS
10
2.67756
20
-3.50366
11
2.77717
21
-3.50366
0
LINE
8
BLACK
6
CONTINUOUS
10
2.77717
20
-3.50366
11
2.7772
21
-3.50367
0
LINE
8
BLACK
6
CONTINUOUS
10
2.77917
20
-3.27532
11
2.77958
21
-3.27549
0
LINE
8
BLACK
6
CONTINUOUS
10
2.77958
20
-3.27549
11
2.77962
21
-3.27554
0
LINE
8
BLACK
6
CONTINUOUS
10
2.77962
20
-3.27554
11
2.7798
21
-3.27595
0
LINE
8
BLACK
6
CONTINUOUS
10
2.7798
20
-3.27595
11
2.7798
21
-3.27598
0
LINE
8
BLACK
6
CONTINUOUS
10
2.7798
20
-3.27598
11
2.7798
21
-3.43465
0
LINE
8
BLACK
6
CONTINUOUS
10
2.7798
20
-3.43465
11
2.7798
21
-3.43468
0
LINE
8
BLACK
6
CONTINUOUS
10
2.7798
20
-3.43468
11
2.77962
21
-3.43509
0
LINE
8
BLACK
6
CONTINUOUS
10
2.77962
20
-3.43509
11
2.77958
21
-3.43514
0
LINE
8
BLACK
6
CONTINUOUS
10
2.77958
20
-3.43514
11
2.77917
21
-3.43531
0
LINE
8
BLACK
6
CONTINUOUS
10
2.77917
20
-3.43531
11
2.77914
21
-3.43531
0
LINE
8
BLACK
6
CONTINUOUS
10
2.77914
20
-3.43531
11
2.67756
21
-3.43531
0
LINE
8
BLACK
6
CONTINUOUS
10
2.67756
20
-3.43531
11
2.67753
21
-3.43531
0
LINE
8
BLACK
6
CONTINUOUS
10
2.67753
20
-3.43531
11
2.67711
21
-3.43514
0
LINE
8
BLACK
6
CONTINUOUS
10
2.67711
20
-3.43514
11
2.67707
21
-3.43509
0
LINE
8
BLACK
6
CONTINUOUS
10
2.67707
20
-3.43509
11
2.67701
21
-3.43496
0
LINE
8
BLACK
6
CONTINUOUS
10
2.67701
20
-3.43496
11
2.67724
21
-3.43496
0
LINE
8
BLACK
6
CONTINUOUS
10
2.67724
20
-3.43496
11
2.77945
21
-3.43496
0
LINE
8
BLACK
6
CONTINUOUS
10
2.77945
20
-3.43496
11
2.77945
21
-3.27567
0
LINE
8
BLACK
6
CONTINUOUS
10
2.77945
20
-3.27567
11
2.68388
21
-3.27567
0
LINE
8
BLACK
6
CONTINUOUS
10
2.68388
20
-3.27567
11
2.68043
21
-3.28493
0
LINE
8
BLACK
6
CONTINUOUS
10
2.68043
20
-3.28493
11
2.67804
21
-3.29589
0
LINE
8
BLACK
6
CONTINUOUS
10
2.67804
20
-3.29589
11
2.67724
21
-3.30709
0
LINE
8
BLACK
6
CONTINUOUS
10
2.67724
20
-3.30709
11
2.67724
21
-3.43496
0
LINE
8
BLACK
6
CONTINUOUS
10
2.67724
20
-3.43496
11
2.67701
21
-3.43496
0
LINE
8
BLACK
6
CONTINUOUS
10
2.67701
20
-3.43496
11
2.6769
21
-3.43468
0
LINE
8
BLACK
6
CONTINUOUS
10
2.6769
20
-3.43468
11
2.67689
21
-3.43465
0
LINE
8
BLACK
6
CONTINUOUS
10
2.67689
20
-3.43465
11
2.67689
21
-3.30712
0
LINE
8
BLACK
6
CONTINUOUS
10
2.67689
20
-3.30712
11
2.67689
21
-3.30712
0
LINE
8
BLACK
6
CONTINUOUS
10
2.67689
20
-3.30712
11
2.67689
21
-3.30704
0
LINE
8
BLACK
6
CONTINUOUS
10
2.67689
20
-3.30704
11
2.67689
21
-3.30703
0
LINE
8
BLACK
6
CONTINUOUS
10
2.67689
20
-3.30703
11
2.67769
21
-3.29593
0
LINE
8
BLACK
6
CONTINUOUS
10
2.67769
20
-3.29593
11
2.67769
21
-3.29593
0
LINE
8
BLACK
6
CONTINUOUS
10
2.67769
20
-3.29593
11
2.67771
21
-3.29576
0
LINE
8
BLACK
6
CONTINUOUS
10
2.67771
20
-3.29576
11
2.67771
21
-3.29575
0
LINE
8
BLACK
6
CONTINUOUS
10
2.67771
20
-3.29575
11
2.68007
21
-3.28491
0
LINE
8
BLACK
6
CONTINUOUS
10
2.68007
20
-3.28491
11
2.68007
21
-3.28491
0
LINE
8
BLACK
6
CONTINUOUS
10
2.68007
20
-3.28491
11
2.68012
21
-3.28475
0
LINE
8
BLACK
6
CONTINUOUS
10
2.68012
20
-3.28475
11
2.68012
21
-3.28474
0
LINE
8
BLACK
6
CONTINUOUS
10
2.68012
20
-3.28474
11
2.68343
21
-3.27586
0
LINE
8
BLACK
6
CONTINUOUS
10
2.68343
20
-3.27586
11
2.68345
21
-3.27583
0
LINE
8
BLACK
6
CONTINUOUS
10
2.68345
20
-3.27583
11
2.68389
21
-3.27536
0
LINE
8
BLACK
6
CONTINUOUS
10
2.68389
20
-3.27536
11
2.68393
21
-3.27534
0
LINE
8
BLACK
6
CONTINUOUS
10
2.68393
20
-3.27534
11
2.68402
21
-3.27532
0
LINE
8
BLACK
6
CONTINUOUS
10
2.68402
20
-3.27532
11
2.68404
21
-3.27531
0
LINE
8
BLACK
6
CONTINUOUS
10
2.68404
20
-3.27531
11
2.77914
21
-3.27531
0
LINE
8
BLACK
6
CONTINUOUS
10
2.77914
20
-3.27531
11
2.77917
21
-3.27532
0
LINE
8
BLACK
6
CONTINUOUS
10
3.19255
20
-3.28123
11
3.19336
21
-3.28156
0
LINE
8
BLACK
6
CONTINUOUS
10
3.19336
20
-3.28156
11
3.19339
21
-3.28158
0
LINE
8
BLACK
6
CONTINUOUS
10
3.19339
20
-3.28158
11
3.21448
21
-3.30268
0
LINE
8
BLACK
6
CONTINUOUS
10
3.21448
20
-3.30268
11
3.2145
21
-3.3027
0
LINE
8
BLACK
6
CONTINUOUS
10
3.2145
20
-3.3027
11
3.21484
21
-3.30351
0
LINE
8
BLACK
6
CONTINUOUS
10
3.21484
20
-3.30351
11
3.21484
21
-3.30354
0
LINE
8
BLACK
6
CONTINUOUS
10
3.21484
20
-3.30354
11
3.21484
21
-3.41299
0
LINE
8
BLACK
6
CONTINUOUS
10
3.21484
20
-3.41299
11
3.21484
21
-3.41302
0
LINE
8
BLACK
6
CONTINUOUS
10
3.21484
20
-3.41302
11
3.2145
21
-3.41383
0
LINE
8
BLACK
6
CONTINUOUS
10
3.2145
20
-3.41383
11
3.21448
21
-3.41386
0
LINE
8
BLACK
6
CONTINUOUS
10
3.21448
20
-3.41386
11
3.19339
21
-3.43496
0
LINE
8
BLACK
6
CONTINUOUS
10
3.19339
20
-3.43496
11
3.19336
21
-3.43497
0
LINE
8
BLACK
6
CONTINUOUS
10
3.19336
20
-3.43497
11
3.19255
21
-3.43531
0
LINE
8
BLACK
6
CONTINUOUS
10
3.19255
20
-3.43531
11
3.19252
21
-3.43531
0
LINE
8
BLACK
6
CONTINUOUS
10
3.19252
20
-3.43531
11
3.15393
21
-3.43531
0
LINE
8
BLACK
6
CONTINUOUS
10
3.15393
20
-3.43531
11
3.1539
21
-3.43531
0
LINE
8
BLACK
6
CONTINUOUS
10
3.1539
20
-3.43531
11
3.1531
21
-3.43497
0
LINE
8
BLACK
6
CONTINUOUS
10
3.1531
20
-3.43497
11
3.15307
21
-3.43496
0
LINE
8
BLACK
6
CONTINUOUS
10
3.15307
20
-3.43496
11
3.13197
21
-3.41386
0
LINE
8
BLACK
6
CONTINUOUS
10
3.13197
20
-3.41386
11
3.13195
21
-3.41383
0
LINE
8
BLACK
6
CONTINUOUS
10
3.13195
20
-3.41383
11
3.13176
21
-3.41335
0
LINE
8
BLACK
6
CONTINUOUS
10
3.13176
20
-3.41335
11
3.13197
21
-3.41335
0
LINE
8
BLACK
6
CONTINUOUS
10
3.13197
20
-3.41335
11
3.15358
21
-3.43496
0
LINE
8
BLACK
6
CONTINUOUS
10
3.15358
20
-3.43496
11
3.19288
21
-3.43496
0
LINE
8
BLACK
6
CONTINUOUS
10
3.19288
20
-3.43496
11
3.21449
21
-3.41335
0
LINE
8
BLACK
6
CONTINUOUS
10
3.21449
20
-3.41335
11
3.21449
21
-3.30318
0
LINE
8
BLACK
6
CONTINUOUS
10
3.21449
20
-3.30318
11
3.19288
21
-3.28157
0
LINE
8
BLACK
6
CONTINUOUS
10
3.19288
20
-3.28157
11
3.15358
21
-3.28157
0
LINE
8
BLACK
6
CONTINUOUS
10
3.15358
20
-3.28157
11
3.13197
21
-3.30318
0
LINE
8
BLACK
6
CONTINUOUS
10
3.13197
20
-3.30318
11
3.13197
21
-3.41335
0
LINE
8
BLACK
6
CONTINUOUS
10
3.13197
20
-3.41335
11
3.13176
21
-3.41335
0
LINE
8
BLACK
6
CONTINUOUS
10
3.13176
20
-3.41335
11
3.13162
21
-3.41302
0
LINE
8
BLACK
6
CONTINUOUS
10
3.13162
20
-3.41302
11
3.13161
21
-3.41299
0
LINE
8
BLACK
6
CONTINUOUS
10
3.13161
20
-3.41299
11
3.13161
21
-3.30354
0
LINE
8
BLACK
6
CONTINUOUS
10
3.13161
20
-3.30354
11
3.13162
21
-3.30351
0
LINE
8
BLACK
6
CONTINUOUS
10
3.13162
20
-3.30351
11
3.13195
21
-3.3027
0
LINE
8
BLACK
6
CONTINUOUS
10
3.13195
20
-3.3027
11
3.13197
21
-3.30268
0
LINE
8
BLACK
6
CONTINUOUS
10
3.13197
20
-3.30268
11
3.15307
21
-3.28158
0
LINE
8
BLACK
6
CONTINUOUS
10
3.15307
20
-3.28158
11
3.1531
21
-3.28156
0
LINE
8
BLACK
6
CONTINUOUS
10
3.1531
20
-3.28156
11
3.1539
21
-3.28123
0
LINE
8
BLACK
6
CONTINUOUS
10
3.1539
20
-3.28123
11
3.15393
21
-3.28122
0
LINE
8
BLACK
6
CONTINUOUS
10
3.15393
20
-3.28122
11
3.19252
21
-3.28122
0
LINE
8
BLACK
6
CONTINUOUS
10
3.19252
20
-3.28122
11
3.19255
21
-3.28123
0
LINE
8
BLACK
6
CONTINUOUS
10
4.50948
20
-3.24776
11
4.5099
21
-3.24793
0
LINE
8
BLACK
6
CONTINUOUS
10
4.5099
20
-3.24793
11
4.50994
21
-3.24798
0
LINE
8
BLACK
6
CONTINUOUS
10
4.50994
20
-3.24798
11
4.51011
21
-3.24839
0
LINE
8
BLACK
6
CONTINUOUS
10
4.51011
20
-3.24839
11
4.51012
21
-3.24842
0
LINE
8
BLACK
6
CONTINUOUS
10
4.51012
20
-3.24842
11
4.51012
21
-3.36772
0
LINE
8
BLACK
6
CONTINUOUS
10
4.51012
20
-3.36772
11
4.51011
21
-3.36775
0
LINE
8
BLACK
6
CONTINUOUS
10
4.51011
20
-3.36775
11
4.50994
21
-3.36816
0
LINE
8
BLACK
6
CONTINUOUS
10
4.50994
20
-3.36816
11
4.5099
21
-3.36821
0
LINE
8
BLACK
6
CONTINUOUS
10
4.5099
20
-3.36821
11
4.50948
21
-3.36838
0
LINE
8
BLACK
6
CONTINUOUS
10
4.50948
20
-3.36838
11
4.50945
21
-3.36839
0
LINE
8
BLACK
6
CONTINUOUS
10
4.50945
20
-3.36839
11
4.3685
21
-3.36839
0
LINE
8
BLACK
6
CONTINUOUS
10
4.3685
20
-3.36839
11
4.36847
21
-3.36838
0
LINE
8
BLACK
6
CONTINUOUS
10
4.36847
20
-3.36838
11
4.36806
21
-3.36821
0
LINE
8
BLACK
6
CONTINUOUS
10
4.36806
20
-3.36821
11
4.36801
21
-3.36816
0
LINE
8
BLACK
6
CONTINUOUS
10
4.36801
20
-3.36816
11
4.36784
21
-3.36775
0
LINE
8
BLACK
6
CONTINUOUS
10
4.36784
20
-3.36775
11
4.36783
21
-3.36772
0
LINE
8
BLACK
6
CONTINUOUS
10
4.36783
20
-3.36772
11
4.36783
21
-3.30927
0
LINE
8
BLACK
6
CONTINUOUS
10
4.36783
20
-3.30927
11
4.36728
21
-3.30792
0
LINE
8
BLACK
6
CONTINUOUS
10
4.36728
20
-3.30792
11
4.36593
21
-3.30736
0
LINE
8
BLACK
6
CONTINUOUS
10
4.36593
20
-3.30736
11
3.49842
21
-3.30736
0
LINE
8
BLACK
6
CONTINUOUS
10
3.49842
20
-3.30736
11
3.49839
21
-3.30736
0
LINE
8
BLACK
6
CONTINUOUS
10
3.49839
20
-3.30736
11
3.49798
21
-3.30718
0
LINE
8
BLACK
6
CONTINUOUS
10
3.49798
20
-3.30718
11
3.49793
21
-3.30714
0
LINE
8
BLACK
6
CONTINUOUS
10
3.49793
20
-3.30714
11
3.49788
21
-3.30701
0
LINE
8
BLACK
6
CONTINUOUS
10
3.49788
20
-3.30701
11
3.49811
21
-3.30701
0
LINE
8
BLACK
6
CONTINUOUS
10
3.49811
20
-3.30701
11
4.36811
21
-3.30701
0
LINE
8
BLACK
6
CONTINUOUS
10
4.36811
20
-3.30701
11
4.36818
21
-3.30705
0
LINE
8
BLACK
6
CONTINUOUS
10
4.36818
20
-3.30705
11
4.36819
21
-3.30709
0
LINE
8
BLACK
6
CONTINUOUS
10
4.36819
20
-3.30709
11
4.36819
21
-3.36803
0
LINE
8
BLACK
6
CONTINUOUS
10
4.36819
20
-3.36803
11
4.50976
21
-3.36803
0
LINE
8
BLACK
6
CONTINUOUS
10
4.50976
20
-3.36803
11
4.50976
21
-3.24811
0
LINE
8
BLACK
6
CONTINUOUS
10
4.50976
20
-3.24811
11
3.49811
21
-3.24811
0
LINE
8
BLACK
6
CONTINUOUS
10
3.49811
20
-3.24811
11
3.49811
21
-3.30701
0
LINE
8
BLACK
6
CONTINUOUS
10
3.49811
20
-3.30701
11
3.49788
21
-3.30701
0
LINE
8
BLACK
6
CONTINUOUS
10
3.49788
20
-3.30701
11
3.49776
21
-3.30673
0
LINE
8
BLACK
6
CONTINUOUS
10
3.49776
20
-3.30673
11
3.49776
21
-3.3067
0
LINE
8
BLACK
6
CONTINUOUS
10
3.49776
20
-3.3067
11
3.49776
21
-3.24842
0
LINE
8
BLACK
6
CONTINUOUS
10
3.49776
20
-3.24842
11
3.49776
21
-3.24839
0
LINE
8
BLACK
6
CONTINUOUS
10
3.49776
20
-3.24839
11
3.49793
21
-3.24798
0
LINE
8
BLACK
6
CONTINUOUS
10
3.49793
20
-3.24798
11
3.49798
21
-3.24793
0
LINE
8
BLACK
6
CONTINUOUS
10
3.49798
20
-3.24793
11
3.49839
21
-3.24776
0
LINE
8
BLACK
6
CONTINUOUS
10
3.49839
20
-3.24776
11
3.49842
21
-3.24776
0
LINE
8
BLACK
6
CONTINUOUS
10
3.49842
20
-3.24776
11
4.50945
21
-3.24776
0
LINE
8
BLACK
6
CONTINUOUS
10
4.50945
20
-3.24776
11
4.50948
21
-3.24776
  0
ENDSEC
  0
EOF
