  0
SECTION
  2
HEADER
  9
$ANGBASE
  50
0.0
  9
$ANGDIR
  70
1
  9
$MEASUREMENT
  70
0
  0
ENDSEC
  0
SECTION
  2
TABLES
  0
TABLE
  2
LTYPE
  70
4
  0
LTYPE
  5
40F
  2
CONTINUOUS
  70
0
  3
Solid line
  72
65
  73
0
  40
0.0
  0
LTYPE
  5
410
  2
DASHDOT
 70
0
  3
Dash Dot ____ _ ____ _
 72
65
 73
4
 40
2.0
 49
1.25
 49
-0.25
 49
0.25
 49
-0.25
  0
LTYPE
  5
411
  2
DASHED
 70
0
  3
Dashed __ __ __ __ __
 72
65
 73
2
 40
0.75
 49
0.5
 49
-0.25
  0
LTYPE
  5
43B
  2
DOTTED
 70
0
  3
Dotted .  .  .  .
 72
65
 73
2
 40
0.2
 49
0.0
 49
-0.2
  0
ENDTAB
  0
TABLE
  2
STYLE
  70
4
  0
STYLE
  2
KICAD
  70
0
  40
0
  41
1
  42
1
  50
0
  71
0
  3
isocp.shx
  0
STYLE
  2
KICADB
  70
0
  40
0
  41
1
  42
1
  50
0
  71
0
  3
isocp.shx
  0
STYLE
  2
KICADI
  70
0
  40
0
  41
1
  42
1
  50
15
  71
0
  3
isocp.shx
  0
STYLE
  2
KICADBI
  70
0
  40
0
  41
1
  42
1
  50
15
  71
0
  3
isocp.shx
  0
ENDTAB
  0
TABLE
  2
LAYER
  70
1
  0
LAYER
  2
BLACK
  70
0
  62
7
  6
CONTINUOUS
  0
ENDTAB
  0
ENDSEC
  0
SECTION
  2
ENTITIES
0
LINE
8
BLACK
6
CONTINUOUS
10
3.23857
20
-3.91084
11
3.23799
21
-3.90945
0
LINE
8
BLACK
6
CONTINUOUS
10
3.23799
20
-3.90945
11
3.23799
21
-3.7126
0
LINE
8
BLACK
6
CONTINUOUS
10
3.23799
20
-3.7126
11
3.23857
21
-3.71121
0
LINE
8
BLACK
6
CONTINUOUS
10
3.23857
20
-3.71121
11
3.23996
21
-3.71063
0
LINE
8
BLACK
6
CONTINUOUS
10
3.23996
20
-3.71063
11
3.47618
21
-3.71063
0
LINE
8
BLACK
6
CONTINUOUS
10
3.47618
20
-3.71063
11
3.47757
21
-3.71121
0
LINE
8
BLACK
6
CONTINUOUS
10
3.47757
20
-3.71121
11
3.47815
21
-3.7126
0
LINE
8
BLACK
6
CONTINUOUS
10
3.47815
20
-3.7126
11
3.47815
21
-3.90945
0
LINE
8
BLACK
6
CONTINUOUS
10
3.47815
20
-3.90945
11
3.47757
21
-3.91084
0
LINE
8
BLACK
6
CONTINUOUS
10
3.47757
20
-3.91084
11
3.47618
21
-3.91142
0
LINE
8
BLACK
6
CONTINUOUS
10
3.47618
20
-3.91142
11
3.23996
21
-3.91142
0
LINE
8
BLACK
6
CONTINUOUS
10
3.23996
20
-3.91142
11
3.23857
21
-3.91084
0
LINE
8
BLACK
6
CONTINUOUS
10
3.24193
20
-3.71457
11
3.24193
21
-3.90748
0
LINE
8
BLACK
6
CONTINUOUS
10
3.24193
20
-3.90748
11
3.47421
21
-3.90748
0
LINE
8
BLACK
6
CONTINUOUS
10
3.47421
20
-3.90748
11
3.47421
21
-3.71457
0
LINE
8
BLACK
6
CONTINUOUS
10
3.47421
20
-3.71457
11
3.24193
21
-3.71457
0
LINE
8
BLACK
6
CONTINUOUS
10
4.59419
20
-3.8999
11
4.59488
21
-3.90157
0
LINE
8
BLACK
6
CONTINUOUS
10
4.59488
20
-3.90157
11
4.59419
21
-3.90325
0
LINE
8
BLACK
6
CONTINUOUS
10
4.59419
20
-3.90325
11
4.59252
21
-3.90394
0
LINE
8
BLACK
6
CONTINUOUS
10
4.59252
20
-3.90394
11
4.56496
21
-3.90394
0
LINE
8
BLACK
6
CONTINUOUS
10
4.56496
20
-3.90394
11
4.56329
21
-3.90325
0
LINE
8
BLACK
6
CONTINUOUS
10
4.56329
20
-3.90325
11
4.5626
21
-3.90157
0
LINE
8
BLACK
6
CONTINUOUS
10
4.5626
20
-3.90157
11
4.56329
21
-3.8999
0
LINE
8
BLACK
6
CONTINUOUS
10
4.56329
20
-3.8999
11
4.56496
21
-3.89921
0
LINE
8
BLACK
6
CONTINUOUS
10
4.56496
20
-3.89921
11
4.59252
21
-3.89921
0
LINE
8
BLACK
6
CONTINUOUS
10
4.59252
20
-3.89921
11
4.59419
21
-3.8999
0
LINE
8
BLACK
6
CONTINUOUS
10
4.70049
20
-3.8999
11
4.70118
21
-3.90157
0
LINE
8
BLACK
6
CONTINUOUS
10
4.70118
20
-3.90157
11
4.70049
21
-3.90325
0
LINE
8
BLACK
6
CONTINUOUS
10
4.70049
20
-3.90325
11
4.69882
21
-3.90394
0
LINE
8
BLACK
6
CONTINUOUS
10
4.69882
20
-3.90394
11
4.67126
21
-3.90394
0
LINE
8
BLACK
6
CONTINUOUS
10
4.67126
20
-3.90394
11
4.66959
21
-3.90325
0
LINE
8
BLACK
6
CONTINUOUS
10
4.66959
20
-3.90325
11
4.6689
21
-3.90157
0
LINE
8
BLACK
6
CONTINUOUS
10
4.6689
20
-3.90157
11
4.66959
21
-3.8999
0
LINE
8
BLACK
6
CONTINUOUS
10
4.66959
20
-3.8999
11
4.67126
21
-3.89921
0
LINE
8
BLACK
6
CONTINUOUS
10
4.67126
20
-3.89921
11
4.69882
21
-3.89921
0
LINE
8
BLACK
6
CONTINUOUS
10
4.69882
20
-3.89921
11
4.70049
21
-3.8999
0
LINE
8
BLACK
6
CONTINUOUS
10
4.85206
20
-3.8999
11
4.85276
21
-3.90157
0
LINE
8
BLACK
6
CONTINUOUS
10
4.85276
20
-3.90157
11
4.85206
21
-3.90325
0
LINE
8
BLACK
6
CONTINUOUS
10
4.85206
20
-3.90325
11
4.85039
21
-3.90394
0
LINE
8
BLACK
6
CONTINUOUS
10
4.85039
20
-3.90394
11
4.82283
21
-3.90394
0
LINE
8
BLACK
6
CONTINUOUS
10
4.82283
20
-3.90394
11
4.82116
21
-3.90325
0
LINE
8
BLACK
6
CONTINUOUS
10
4.82116
20
-3.90325
11
4.82047
21
-3.90157
0
LINE
8
BLACK
6
CONTINUOUS
10
4.82047
20
-3.90157
11
4.82116
21
-3.8999
0
LINE
8
BLACK
6
CONTINUOUS
10
4.82116
20
-3.8999
11
4.82283
21
-3.89921
0
LINE
8
BLACK
6
CONTINUOUS
10
4.82283
20
-3.89921
11
4.85039
21
-3.89921
0
LINE
8
BLACK
6
CONTINUOUS
10
4.85039
20
-3.89921
11
4.85206
21
-3.8999
0
LINE
8
BLACK
6
CONTINUOUS
10
5.04164
20
-3.8992
11
5.04094
21
-3.89753
0
LINE
8
BLACK
6
CONTINUOUS
10
5.04094
20
-3.89753
11
5.04164
21
-3.89586
0
LINE
8
BLACK
6
CONTINUOUS
10
5.04164
20
-3.89586
11
5.04331
21
-3.89517
0
LINE
8
BLACK
6
CONTINUOUS
10
5.04331
20
-3.89517
11
5.12598
21
-3.89517
0
LINE
8
BLACK
6
CONTINUOUS
10
5.12598
20
-3.89517
11
5.12598
21
-3.86092
0
LINE
8
BLACK
6
CONTINUOUS
10
5.12598
20
-3.86092
11
5.12668
21
-3.85924
0
LINE
8
BLACK
6
CONTINUOUS
10
5.12668
20
-3.85924
11
5.12835
21
-3.85855
0
LINE
8
BLACK
6
CONTINUOUS
10
5.12835
20
-3.85855
11
5.13002
21
-3.85924
0
LINE
8
BLACK
6
CONTINUOUS
10
5.13002
20
-3.85924
11
5.13071
21
-3.86092
0
LINE
8
BLACK
6
CONTINUOUS
10
5.13071
20
-3.86092
11
5.13071
21
-3.89753
0
LINE
8
BLACK
6
CONTINUOUS
10
5.13071
20
-3.89753
11
5.13002
21
-3.8992
0
LINE
8
BLACK
6
CONTINUOUS
10
5.13002
20
-3.8992
11
5.12835
21
-3.89989
0
LINE
8
BLACK
6
CONTINUOUS
10
5.12835
20
-3.89989
11
5.04331
21
-3.89989
0
LINE
8
BLACK
6
CONTINUOUS
10
5.04331
20
-3.89989
11
5.04164
21
-3.8992
0
LINE
8
BLACK
6
CONTINUOUS
10
3.07912
20
-3.7294
11
3.07925
21
-3.72938
0
LINE
8
BLACK
6
CONTINUOUS
10
3.07925
20
-3.72938
11
3.07937
21
-3.72944
0
LINE
8
BLACK
6
CONTINUOUS
10
3.07937
20
-3.72944
11
3.07975
21
-3.72951
0
LINE
8
BLACK
6
CONTINUOUS
10
3.07975
20
-3.72951
11
3.08034
21
-3.73
0
LINE
8
BLACK
6
CONTINUOUS
10
3.08034
20
-3.73
11
3.081
21
-3.73039
0
LINE
8
BLACK
6
CONTINUOUS
10
3.081
20
-3.73039
11
3.08109
21
-3.73064
0
LINE
8
BLACK
6
CONTINUOUS
10
3.08109
20
-3.73064
11
3.0813
21
-3.73081
0
LINE
8
BLACK
6
CONTINUOUS
10
3.0813
20
-3.73081
11
3.08143
21
-3.73156
0
LINE
8
BLACK
6
CONTINUOUS
10
3.08143
20
-3.73156
11
3.08169
21
-3.73228
0
LINE
8
BLACK
6
CONTINUOUS
10
3.08169
20
-3.73228
11
3.08169
21
-3.88976
0
LINE
8
BLACK
6
CONTINUOUS
10
3.08169
20
-3.88976
11
3.08163
21
-3.89015
0
LINE
8
BLACK
6
CONTINUOUS
10
3.08163
20
-3.89015
11
3.08165
21
-3.89028
0
LINE
8
BLACK
6
CONTINUOUS
10
3.08165
20
-3.89028
11
3.08158
21
-3.89039
0
LINE
8
BLACK
6
CONTINUOUS
10
3.08158
20
-3.89039
11
3.08151
21
-3.89077
0
LINE
8
BLACK
6
CONTINUOUS
10
3.08151
20
-3.89077
11
3.08102
21
-3.89136
0
LINE
8
BLACK
6
CONTINUOUS
10
3.08102
20
-3.89136
11
3.08064
21
-3.89203
0
LINE
8
BLACK
6
CONTINUOUS
10
3.08064
20
-3.89203
11
3.08039
21
-3.89212
0
LINE
8
BLACK
6
CONTINUOUS
10
3.08039
20
-3.89212
11
3.08022
21
-3.89232
0
LINE
8
BLACK
6
CONTINUOUS
10
3.08022
20
-3.89232
11
3.07946
21
-3.89245
0
LINE
8
BLACK
6
CONTINUOUS
10
3.07946
20
-3.89245
11
3.07874
21
-3.89272
0
LINE
8
BLACK
6
CONTINUOUS
10
3.07874
20
-3.89272
11
2.82677
21
-3.89272
0
LINE
8
BLACK
6
CONTINUOUS
10
2.82677
20
-3.89272
11
2.82639
21
-3.89265
0
LINE
8
BLACK
6
CONTINUOUS
10
2.82639
20
-3.89265
11
2.82626
21
-3.89267
0
LINE
8
BLACK
6
CONTINUOUS
10
2.82626
20
-3.89267
11
2.82615
21
-3.89261
0
LINE
8
BLACK
6
CONTINUOUS
10
2.82615
20
-3.89261
11
2.82576
21
-3.89254
0
LINE
8
BLACK
6
CONTINUOUS
10
2.82576
20
-3.89254
11
2.82517
21
-3.89205
0
LINE
8
BLACK
6
CONTINUOUS
10
2.82517
20
-3.89205
11
2.82451
21
-3.89166
0
LINE
8
BLACK
6
CONTINUOUS
10
2.82451
20
-3.89166
11
2.82442
21
-3.89141
0
LINE
8
BLACK
6
CONTINUOUS
10
2.82442
20
-3.89141
11
2.82421
21
-3.89124
0
LINE
8
BLACK
6
CONTINUOUS
10
2.82421
20
-3.89124
11
2.82408
21
-3.89048
0
LINE
8
BLACK
6
CONTINUOUS
10
2.82408
20
-3.89048
11
2.82382
21
-3.88976
0
LINE
8
BLACK
6
CONTINUOUS
10
2.82382
20
-3.88976
11
2.82382
21
-3.73228
0
LINE
8
BLACK
6
CONTINUOUS
10
2.82382
20
-3.73228
11
2.82389
21
-3.7319
0
LINE
8
BLACK
6
CONTINUOUS
10
2.82389
20
-3.7319
11
2.82386
21
-3.73177
0
LINE
8
BLACK
6
CONTINUOUS
10
2.82386
20
-3.73177
11
2.82393
21
-3.73166
0
LINE
8
BLACK
6
CONTINUOUS
10
2.82393
20
-3.73166
11
2.824
21
-3.73127
0
LINE
8
BLACK
6
CONTINUOUS
10
2.824
20
-3.73127
11
2.82449
21
-3.73069
0
LINE
8
BLACK
6
CONTINUOUS
10
2.82449
20
-3.73069
11
2.82487
21
-3.73002
0
LINE
8
BLACK
6
CONTINUOUS
10
2.82487
20
-3.73002
11
2.82512
21
-3.72993
0
LINE
8
BLACK
6
CONTINUOUS
10
2.82512
20
-3.72993
11
2.8253
21
-3.72973
0
LINE
8
BLACK
6
CONTINUOUS
10
2.8253
20
-3.72973
11
2.82605
21
-3.72959
0
LINE
8
BLACK
6
CONTINUOUS
10
2.82605
20
-3.72959
11
2.82677
21
-3.72933
0
LINE
8
BLACK
6
CONTINUOUS
10
2.82677
20
-3.72933
11
3.07874
21
-3.72933
0
LINE
8
BLACK
6
CONTINUOUS
10
3.07874
20
-3.72933
11
3.07912
21
-3.7294
0
LINE
8
BLACK
6
CONTINUOUS
10
2.82972
20
-3.73524
11
2.82972
21
-3.88681
0
LINE
8
BLACK
6
CONTINUOUS
10
2.82972
20
-3.88681
11
3.07579
21
-3.88681
0
LINE
8
BLACK
6
CONTINUOUS
10
3.07579
20
-3.88681
11
3.07579
21
-3.73524
0
LINE
8
BLACK
6
CONTINUOUS
10
3.07579
20
-3.73524
11
2.82972
21
-3.73524
0
LINE
8
BLACK
6
CONTINUOUS
10
4.00561
20
-3.85345
11
4.0063
21
-3.85512
0
LINE
8
BLACK
6
CONTINUOUS
10
4.0063
20
-3.85512
11
4.00561
21
-3.85679
0
LINE
8
BLACK
6
CONTINUOUS
10
4.00561
20
-3.85679
11
4.00394
21
-3.85748
0
LINE
8
BLACK
6
CONTINUOUS
10
4.00394
20
-3.85748
11
3.9252
21
-3.85748
0
LINE
8
BLACK
6
CONTINUOUS
10
3.9252
20
-3.85748
11
3.92353
21
-3.85679
0
LINE
8
BLACK
6
CONTINUOUS
10
3.92353
20
-3.85679
11
3.92283
21
-3.85512
0
LINE
8
BLACK
6
CONTINUOUS
10
3.92283
20
-3.85512
11
3.92353
21
-3.85345
0
LINE
8
BLACK
6
CONTINUOUS
10
3.92353
20
-3.85345
11
3.9252
21
-3.85276
0
LINE
8
BLACK
6
CONTINUOUS
10
3.9252
20
-3.85276
11
4.00394
21
-3.85276
0
LINE
8
BLACK
6
CONTINUOUS
10
4.00394
20
-3.85276
11
4.00561
21
-3.85345
0
LINE
8
BLACK
6
CONTINUOUS
10
4.16506
20
-3.85345
11
4.16575
21
-3.85512
0
LINE
8
BLACK
6
CONTINUOUS
10
4.16575
20
-3.85512
11
4.16506
21
-3.85679
0
LINE
8
BLACK
6
CONTINUOUS
10
4.16506
20
-3.85679
11
4.16339
21
-3.85748
0
LINE
8
BLACK
6
CONTINUOUS
10
4.16339
20
-3.85748
11
4.08465
21
-3.85748
0
LINE
8
BLACK
6
CONTINUOUS
10
4.08465
20
-3.85748
11
4.08298
21
-3.85679
0
LINE
8
BLACK
6
CONTINUOUS
10
4.08298
20
-3.85679
11
4.08228
21
-3.85512
0
LINE
8
BLACK
6
CONTINUOUS
10
4.08228
20
-3.85512
11
4.08298
21
-3.85345
0
LINE
8
BLACK
6
CONTINUOUS
10
4.08298
20
-3.85345
11
4.08465
21
-3.85276
0
LINE
8
BLACK
6
CONTINUOUS
10
4.08465
20
-3.85276
11
4.16339
21
-3.85276
0
LINE
8
BLACK
6
CONTINUOUS
10
4.16339
20
-3.85276
11
4.16506
21
-3.85345
0
LINE
8
BLACK
6
CONTINUOUS
10
4.3245
20
-3.85345
11
4.3252
21
-3.85512
0
LINE
8
BLACK
6
CONTINUOUS
10
4.3252
20
-3.85512
11
4.3245
21
-3.85679
0
LINE
8
BLACK
6
CONTINUOUS
10
4.3245
20
-3.85679
11
4.32283
21
-3.85748
0
LINE
8
BLACK
6
CONTINUOUS
10
4.32283
20
-3.85748
11
4.24409
21
-3.85748
0
LINE
8
BLACK
6
CONTINUOUS
10
4.24409
20
-3.85748
11
4.24242
21
-3.85679
0
LINE
8
BLACK
6
CONTINUOUS
10
4.24242
20
-3.85679
11
4.24173
21
-3.85512
0
LINE
8
BLACK
6
CONTINUOUS
10
4.24173
20
-3.85512
11
4.24242
21
-3.85345
0
LINE
8
BLACK
6
CONTINUOUS
10
4.24242
20
-3.85345
11
4.24409
21
-3.85276
0
LINE
8
BLACK
6
CONTINUOUS
10
4.24409
20
-3.85276
11
4.32283
21
-3.85276
0
LINE
8
BLACK
6
CONTINUOUS
10
4.32283
20
-3.85276
11
4.3245
21
-3.85345
0
LINE
8
BLACK
6
CONTINUOUS
10
4.85206
20
-3.85266
11
4.85276
21
-3.85433
0
LINE
8
BLACK
6
CONTINUOUS
10
4.85276
20
-3.85433
11
4.85206
21
-3.856
0
LINE
8
BLACK
6
CONTINUOUS
10
4.85206
20
-3.856
11
4.85039
21
-3.85669
0
LINE
8
BLACK
6
CONTINUOUS
10
4.85039
20
-3.85669
11
4.82283
21
-3.85669
0
LINE
8
BLACK
6
CONTINUOUS
10
4.82283
20
-3.85669
11
4.82116
21
-3.856
0
LINE
8
BLACK
6
CONTINUOUS
10
4.82116
20
-3.856
11
4.82047
21
-3.85433
0
LINE
8
BLACK
6
CONTINUOUS
10
4.82047
20
-3.85433
11
4.82116
21
-3.85266
0
LINE
8
BLACK
6
CONTINUOUS
10
4.82116
20
-3.85266
11
4.82283
21
-3.85197
0
LINE
8
BLACK
6
CONTINUOUS
10
4.82283
20
-3.85197
11
4.85039
21
-3.85197
0
LINE
8
BLACK
6
CONTINUOUS
10
4.85039
20
-3.85197
11
4.85206
21
-3.85266
0
LINE
8
BLACK
6
CONTINUOUS
10
4.70049
20
-3.85266
11
4.70118
21
-3.85433
0
LINE
8
BLACK
6
CONTINUOUS
10
4.70118
20
-3.85433
11
4.70049
21
-3.856
0
LINE
8
BLACK
6
CONTINUOUS
10
4.70049
20
-3.856
11
4.69882
21
-3.85669
0
LINE
8
BLACK
6
CONTINUOUS
10
4.69882
20
-3.85669
11
4.67126
21
-3.85669
0
LINE
8
BLACK
6
CONTINUOUS
10
4.67126
20
-3.85669
11
4.66959
21
-3.856
0
LINE
8
BLACK
6
CONTINUOUS
10
4.66959
20
-3.856
11
4.6689
21
-3.85433
0
LINE
8
BLACK
6
CONTINUOUS
10
4.6689
20
-3.85433
11
4.66959
21
-3.85266
0
LINE
8
BLACK
6
CONTINUOUS
10
4.66959
20
-3.85266
11
4.67126
21
-3.85197
0
LINE
8
BLACK
6
CONTINUOUS
10
4.67126
20
-3.85197
11
4.69882
21
-3.85197
0
LINE
8
BLACK
6
CONTINUOUS
10
4.69882
20
-3.85197
11
4.70049
21
-3.85266
0
LINE
8
BLACK
6
CONTINUOUS
10
4.59419
20
-3.85266
11
4.59488
21
-3.85433
0
LINE
8
BLACK
6
CONTINUOUS
10
4.59488
20
-3.85433
11
4.59419
21
-3.856
0
LINE
8
BLACK
6
CONTINUOUS
10
4.59419
20
-3.856
11
4.59252
21
-3.85669
0
LINE
8
BLACK
6
CONTINUOUS
10
4.59252
20
-3.85669
11
4.56496
21
-3.85669
0
LINE
8
BLACK
6
CONTINUOUS
10
4.56496
20
-3.85669
11
4.56329
21
-3.856
0
LINE
8
BLACK
6
CONTINUOUS
10
4.56329
20
-3.856
11
4.5626
21
-3.85433
0
LINE
8
BLACK
6
CONTINUOUS
10
4.5626
20
-3.85433
11
4.56329
21
-3.85266
0
LINE
8
BLACK
6
CONTINUOUS
10
4.56329
20
-3.85266
11
4.56496
21
-3.85197
0
LINE
8
BLACK
6
CONTINUOUS
10
4.56496
20
-3.85197
11
4.59252
21
-3.85197
0
LINE
8
BLACK
6
CONTINUOUS
10
4.59252
20
-3.85197
11
4.59419
21
-3.85266
0
LINE
8
BLACK
6
CONTINUOUS
10
4.98986
20
-3.81987
11
4.99055
21
-3.82154
0
LINE
8
BLACK
6
CONTINUOUS
10
4.99055
20
-3.82154
11
4.99055
21
-3.8491
0
LINE
8
BLACK
6
CONTINUOUS
10
4.99055
20
-3.8491
11
4.98986
21
-3.85077
0
LINE
8
BLACK
6
CONTINUOUS
10
4.98986
20
-3.85077
11
4.98819
21
-3.85147
0
LINE
8
BLACK
6
CONTINUOUS
10
4.98819
20
-3.85147
11
4.98652
21
-3.85077
0
LINE
8
BLACK
6
CONTINUOUS
10
4.98652
20
-3.85077
11
4.98583
21
-3.8491
0
LINE
8
BLACK
6
CONTINUOUS
10
4.98583
20
-3.8491
11
4.98583
21
-3.82154
0
LINE
8
BLACK
6
CONTINUOUS
10
4.98583
20
-3.82154
11
4.98652
21
-3.81987
0
LINE
8
BLACK
6
CONTINUOUS
10
4.98652
20
-3.81987
11
4.98819
21
-3.81918
0
LINE
8
BLACK
6
CONTINUOUS
10
4.98819
20
-3.81918
11
4.98986
21
-3.81987
0
LINE
8
BLACK
6
CONTINUOUS
10
5.0371
20
-3.81987
11
5.0378
21
-3.82154
0
LINE
8
BLACK
6
CONTINUOUS
10
5.0378
20
-3.82154
11
5.0378
21
-3.8491
0
LINE
8
BLACK
6
CONTINUOUS
10
5.0378
20
-3.8491
11
5.0371
21
-3.85077
0
LINE
8
BLACK
6
CONTINUOUS
10
5.0371
20
-3.85077
11
5.03543
21
-3.85147
0
LINE
8
BLACK
6
CONTINUOUS
10
5.03543
20
-3.85147
11
5.03376
21
-3.85077
0
LINE
8
BLACK
6
CONTINUOUS
10
5.03376
20
-3.85077
11
5.03307
21
-3.8491
0
LINE
8
BLACK
6
CONTINUOUS
10
5.03307
20
-3.8491
11
5.03307
21
-3.82154
0
LINE
8
BLACK
6
CONTINUOUS
10
5.03307
20
-3.82154
11
5.03376
21
-3.81987
0
LINE
8
BLACK
6
CONTINUOUS
10
5.03376
20
-3.81987
11
5.03543
21
-3.81918
0
LINE
8
BLACK
6
CONTINUOUS
10
5.03543
20
-3.81918
11
5.0371
21
-3.81987
0
LINE
8
BLACK
6
CONTINUOUS
10
5.21033
20
-3.81987
11
5.21102
21
-3.82154
0
LINE
8
BLACK
6
CONTINUOUS
10
5.21102
20
-3.82154
11
5.21102
21
-3.8491
0
LINE
8
BLACK
6
CONTINUOUS
10
5.21102
20
-3.8491
11
5.21033
21
-3.85077
0
LINE
8
BLACK
6
CONTINUOUS
10
5.21033
20
-3.85077
11
5.20866
21
-3.85147
0
LINE
8
BLACK
6
CONTINUOUS
10
5.20866
20
-3.85147
11
5.20699
21
-3.85077
0
LINE
8
BLACK
6
CONTINUOUS
10
5.20699
20
-3.85077
11
5.2063
21
-3.8491
0
LINE
8
BLACK
6
CONTINUOUS
10
5.2063
20
-3.8491
11
5.2063
21
-3.82154
0
LINE
8
BLACK
6
CONTINUOUS
10
5.2063
20
-3.82154
11
5.20699
21
-3.81987
0
LINE
8
BLACK
6
CONTINUOUS
10
5.20699
20
-3.81987
11
5.20866
21
-3.81918
0
LINE
8
BLACK
6
CONTINUOUS
10
5.20866
20
-3.81918
11
5.21033
21
-3.81987
0
LINE
8
BLACK
6
CONTINUOUS
10
5.16309
20
-3.81987
11
5.16378
21
-3.82154
0
LINE
8
BLACK
6
CONTINUOUS
10
5.16378
20
-3.82154
11
5.16378
21
-3.8491
0
LINE
8
BLACK
6
CONTINUOUS
10
5.16378
20
-3.8491
11
5.16309
21
-3.85077
0
LINE
8
BLACK
6
CONTINUOUS
10
5.16309
20
-3.85077
11
5.16142
21
-3.85147
0
LINE
8
BLACK
6
CONTINUOUS
10
5.16142
20
-3.85147
11
5.15975
21
-3.85077
0
LINE
8
BLACK
6
CONTINUOUS
10
5.15975
20
-3.85077
11
5.15906
21
-3.8491
0
LINE
8
BLACK
6
CONTINUOUS
10
5.15906
20
-3.8491
11
5.15906
21
-3.82154
0
LINE
8
BLACK
6
CONTINUOUS
10
5.15906
20
-3.82154
11
5.15975
21
-3.81987
0
LINE
8
BLACK
6
CONTINUOUS
10
5.15975
20
-3.81987
11
5.16142
21
-3.81918
0
LINE
8
BLACK
6
CONTINUOUS
10
5.16142
20
-3.81918
11
5.16309
21
-3.81987
0
LINE
8
BLACK
6
CONTINUOUS
10
4.96624
20
-3.8192
11
4.96693
21
-3.82087
0
LINE
8
BLACK
6
CONTINUOUS
10
4.96693
20
-3.82087
11
4.96693
21
-3.84843
0
LINE
8
BLACK
6
CONTINUOUS
10
4.96693
20
-3.84843
11
4.96624
21
-3.8501
0
LINE
8
BLACK
6
CONTINUOUS
10
4.96624
20
-3.8501
11
4.96457
21
-3.85079
0
LINE
8
BLACK
6
CONTINUOUS
10
4.96457
20
-3.85079
11
4.9629
21
-3.8501
0
LINE
8
BLACK
6
CONTINUOUS
10
4.9629
20
-3.8501
11
4.9622
21
-3.84843
0
LINE
8
BLACK
6
CONTINUOUS
10
4.9622
20
-3.84843
11
4.9622
21
-3.82087
0
LINE
8
BLACK
6
CONTINUOUS
10
4.9622
20
-3.82087
11
4.9629
21
-3.8192
0
LINE
8
BLACK
6
CONTINUOUS
10
4.9629
20
-3.8192
11
4.96457
21
-3.8185
0
LINE
8
BLACK
6
CONTINUOUS
10
4.96457
20
-3.8185
11
4.96624
21
-3.8192
0
LINE
8
BLACK
6
CONTINUOUS
10
4.91899
20
-3.8192
11
4.91969
21
-3.82087
0
LINE
8
BLACK
6
CONTINUOUS
10
4.91969
20
-3.82087
11
4.91969
21
-3.84843
0
LINE
8
BLACK
6
CONTINUOUS
10
4.91969
20
-3.84843
11
4.91899
21
-3.8501
0
LINE
8
BLACK
6
CONTINUOUS
10
4.91899
20
-3.8501
11
4.91732
21
-3.85079
0
LINE
8
BLACK
6
CONTINUOUS
10
4.91732
20
-3.85079
11
4.91565
21
-3.8501
0
LINE
8
BLACK
6
CONTINUOUS
10
4.91565
20
-3.8501
11
4.91496
21
-3.84843
0
LINE
8
BLACK
6
CONTINUOUS
10
4.91496
20
-3.84843
11
4.91496
21
-3.82087
0
LINE
8
BLACK
6
CONTINUOUS
10
4.91496
20
-3.82087
11
4.91565
21
-3.8192
0
LINE
8
BLACK
6
CONTINUOUS
10
4.91565
20
-3.8192
11
4.91732
21
-3.8185
0
LINE
8
BLACK
6
CONTINUOUS
10
4.91732
20
-3.8185
11
4.91899
21
-3.8192
0
LINE
8
BLACK
6
CONTINUOUS
10
3.57844
20
-3.83691
11
3.57913
21
-3.83858
0
LINE
8
BLACK
6
CONTINUOUS
10
3.57913
20
-3.83858
11
3.57844
21
-3.84025
0
LINE
8
BLACK
6
CONTINUOUS
10
3.57844
20
-3.84025
11
3.57677
21
-3.84094
0
LINE
8
BLACK
6
CONTINUOUS
10
3.57677
20
-3.84094
11
3.54921
21
-3.84094
0
LINE
8
BLACK
6
CONTINUOUS
10
3.54921
20
-3.84094
11
3.54754
21
-3.84025
0
LINE
8
BLACK
6
CONTINUOUS
10
3.54754
20
-3.84025
11
3.54685
21
-3.83858
0
LINE
8
BLACK
6
CONTINUOUS
10
3.54685
20
-3.83858
11
3.54754
21
-3.83691
0
LINE
8
BLACK
6
CONTINUOUS
10
3.54754
20
-3.83691
11
3.54921
21
-3.83622
0
LINE
8
BLACK
6
CONTINUOUS
10
3.54921
20
-3.83622
11
3.57677
21
-3.83622
0
LINE
8
BLACK
6
CONTINUOUS
10
3.57677
20
-3.83622
11
3.57844
21
-3.83691
0
LINE
8
BLACK
6
CONTINUOUS
10
3.64135
20
-3.83163
11
3.64122
21
-3.83165
0
LINE
8
BLACK
6
CONTINUOUS
10
3.64122
20
-3.83165
11
3.64111
21
-3.83158
0
LINE
8
BLACK
6
CONTINUOUS
10
3.64111
20
-3.83158
11
3.64072
21
-3.83151
0
LINE
8
BLACK
6
CONTINUOUS
10
3.64072
20
-3.83151
11
3.64013
21
-3.83102
0
LINE
8
BLACK
6
CONTINUOUS
10
3.64013
20
-3.83102
11
3.63947
21
-3.83064
0
LINE
8
BLACK
6
CONTINUOUS
10
3.63947
20
-3.83064
11
3.63938
21
-3.83039
0
LINE
8
BLACK
6
CONTINUOUS
10
3.63938
20
-3.83039
11
3.63918
21
-3.83022
0
LINE
8
BLACK
6
CONTINUOUS
10
3.63918
20
-3.83022
11
3.63904
21
-3.82946
0
LINE
8
BLACK
6
CONTINUOUS
10
3.63904
20
-3.82946
11
3.63878
21
-3.82874
0
LINE
8
BLACK
6
CONTINUOUS
10
3.63878
20
-3.82874
11
3.63878
21
-3.67126
0
LINE
8
BLACK
6
CONTINUOUS
10
3.63878
20
-3.67126
11
3.63885
21
-3.67088
0
LINE
8
BLACK
6
CONTINUOUS
10
3.63885
20
-3.67088
11
3.63882
21
-3.67075
0
LINE
8
BLACK
6
CONTINUOUS
10
3.63882
20
-3.67075
11
3.63889
21
-3.67063
0
LINE
8
BLACK
6
CONTINUOUS
10
3.63889
20
-3.67063
11
3.63896
21
-3.67025
0
LINE
8
BLACK
6
CONTINUOUS
10
3.63896
20
-3.67025
11
3.63945
21
-3.66966
0
LINE
8
BLACK
6
CONTINUOUS
10
3.63945
20
-3.66966
11
3.63983
21
-3.669
0
LINE
8
BLACK
6
CONTINUOUS
10
3.63983
20
-3.669
11
3.64008
21
-3.66891
0
LINE
8
BLACK
6
CONTINUOUS
10
3.64008
20
-3.66891
11
3.64026
21
-3.6687
0
LINE
8
BLACK
6
CONTINUOUS
10
3.64026
20
-3.6687
11
3.64101
21
-3.66857
0
LINE
8
BLACK
6
CONTINUOUS
10
3.64101
20
-3.66857
11
3.64173
21
-3.66831
0
LINE
8
BLACK
6
CONTINUOUS
10
3.64173
20
-3.66831
11
3.79921
21
-3.66831
0
LINE
8
BLACK
6
CONTINUOUS
10
3.79921
20
-3.66831
11
3.7996
21
-3.66837
0
LINE
8
BLACK
6
CONTINUOUS
10
3.7996
20
-3.66837
11
3.79973
21
-3.66835
0
LINE
8
BLACK
6
CONTINUOUS
10
3.79973
20
-3.66835
11
3.79984
21
-3.66842
0
LINE
8
BLACK
6
CONTINUOUS
10
3.79984
20
-3.66842
11
3.80022
21
-3.66849
0
LINE
8
BLACK
6
CONTINUOUS
10
3.80022
20
-3.66849
11
3.80081
21
-3.66898
0
LINE
8
BLACK
6
CONTINUOUS
10
3.80081
20
-3.66898
11
3.80147
21
-3.66936
0
LINE
8
BLACK
6
CONTINUOUS
10
3.80147
20
-3.66936
11
3.80157
21
-3.66961
0
LINE
8
BLACK
6
CONTINUOUS
10
3.80157
20
-3.66961
11
3.80177
21
-3.66978
0
LINE
8
BLACK
6
CONTINUOUS
10
3.80177
20
-3.66978
11
3.8019
21
-3.67054
0
LINE
8
BLACK
6
CONTINUOUS
10
3.8019
20
-3.67054
11
3.80217
21
-3.67126
0
LINE
8
BLACK
6
CONTINUOUS
10
3.80217
20
-3.67126
11
3.80217
21
-3.82874
0
LINE
8
BLACK
6
CONTINUOUS
10
3.80217
20
-3.82874
11
3.8021
21
-3.82912
0
LINE
8
BLACK
6
CONTINUOUS
10
3.8021
20
-3.82912
11
3.80212
21
-3.82925
0
LINE
8
BLACK
6
CONTINUOUS
10
3.80212
20
-3.82925
11
3.80205
21
-3.82937
0
LINE
8
BLACK
6
CONTINUOUS
10
3.80205
20
-3.82937
11
3.80199
21
-3.82975
0
LINE
8
BLACK
6
CONTINUOUS
10
3.80199
20
-3.82975
11
3.80149
21
-3.83034
0
LINE
8
BLACK
6
CONTINUOUS
10
3.80149
20
-3.83034
11
3.80111
21
-3.831
0
LINE
8
BLACK
6
CONTINUOUS
10
3.80111
20
-3.831
11
3.80086
21
-3.83109
0
LINE
8
BLACK
6
CONTINUOUS
10
3.80086
20
-3.83109
11
3.80069
21
-3.8313
0
LINE
8
BLACK
6
CONTINUOUS
10
3.80069
20
-3.8313
11
3.79993
21
-3.83143
0
LINE
8
BLACK
6
CONTINUOUS
10
3.79993
20
-3.83143
11
3.79921
21
-3.83169
0
LINE
8
BLACK
6
CONTINUOUS
10
3.79921
20
-3.83169
11
3.64173
21
-3.83169
0
LINE
8
BLACK
6
CONTINUOUS
10
3.64173
20
-3.83169
11
3.64135
21
-3.83163
0
LINE
8
BLACK
6
CONTINUOUS
10
3.64469
20
-3.67421
11
3.64469
21
-3.81177
0
LINE
8
BLACK
6
CONTINUOUS
10
3.64469
20
-3.81177
11
3.6587
21
-3.82579
0
LINE
8
BLACK
6
CONTINUOUS
10
3.6587
20
-3.82579
11
3.79626
21
-3.82579
0
LINE
8
BLACK
6
CONTINUOUS
10
3.79626
20
-3.82579
11
3.79626
21
-3.67421
0
LINE
8
BLACK
6
CONTINUOUS
10
3.79626
20
-3.67421
11
3.64469
21
-3.67421
0
LINE
8
BLACK
6
CONTINUOUS
10
3.82608
20
-3.77369
11
3.82677
21
-3.77559
0
LINE
8
BLACK
6
CONTINUOUS
10
3.82677
20
-3.77559
11
3.82677
21
-3.81496
0
LINE
8
BLACK
6
CONTINUOUS
10
3.82677
20
-3.81496
11
3.82659
21
-3.81597
0
LINE
8
BLACK
6
CONTINUOUS
10
3.82659
20
-3.81597
11
3.8253
21
-3.81752
0
LINE
8
BLACK
6
CONTINUOUS
10
3.8253
20
-3.81752
11
3.82331
21
-3.81787
0
LINE
8
BLACK
6
CONTINUOUS
10
3.82331
20
-3.81787
11
3.82156
21
-3.81686
0
LINE
8
BLACK
6
CONTINUOUS
10
3.82156
20
-3.81686
11
3.82087
21
-3.81496
0
LINE
8
BLACK
6
CONTINUOUS
10
3.82087
20
-3.81496
11
3.82087
21
-3.77559
0
LINE
8
BLACK
6
CONTINUOUS
10
3.82087
20
-3.77559
11
3.82104
21
-3.77458
0
LINE
8
BLACK
6
CONTINUOUS
10
3.82104
20
-3.77458
11
3.82234
21
-3.77303
0
LINE
8
BLACK
6
CONTINUOUS
10
3.82234
20
-3.77303
11
3.82433
21
-3.77268
0
LINE
8
BLACK
6
CONTINUOUS
10
3.82433
20
-3.77268
11
3.82608
21
-3.77369
0
LINE
8
BLACK
6
CONTINUOUS
10
3.87923
20
-3.77369
11
3.87992
21
-3.77559
0
LINE
8
BLACK
6
CONTINUOUS
10
3.87992
20
-3.77559
11
3.87992
21
-3.81496
0
LINE
8
BLACK
6
CONTINUOUS
10
3.87992
20
-3.81496
11
3.87974
21
-3.81597
0
LINE
8
BLACK
6
CONTINUOUS
10
3.87974
20
-3.81597
11
3.87844
21
-3.81752
0
LINE
8
BLACK
6
CONTINUOUS
10
3.87844
20
-3.81752
11
3.87646
21
-3.81787
0
LINE
8
BLACK
6
CONTINUOUS
10
3.87646
20
-3.81787
11
3.87471
21
-3.81686
0
LINE
8
BLACK
6
CONTINUOUS
10
3.87471
20
-3.81686
11
3.87402
21
-3.81496
0
LINE
8
BLACK
6
CONTINUOUS
10
3.87402
20
-3.81496
11
3.87402
21
-3.77559
0
LINE
8
BLACK
6
CONTINUOUS
10
3.87402
20
-3.77559
11
3.87419
21
-3.77458
0
LINE
8
BLACK
6
CONTINUOUS
10
3.87419
20
-3.77458
11
3.87549
21
-3.77303
0
LINE
8
BLACK
6
CONTINUOUS
10
3.87549
20
-3.77303
11
3.87748
21
-3.77268
0
LINE
8
BLACK
6
CONTINUOUS
10
3.87748
20
-3.77268
11
3.87923
21
-3.77369
0
LINE
8
BLACK
6
CONTINUOUS
10
5.13002
20
-3.77145
11
5.13071
21
-3.77312
0
LINE
8
BLACK
6
CONTINUOUS
10
5.13071
20
-3.77312
11
5.13071
21
-3.80973
0
LINE
8
BLACK
6
CONTINUOUS
10
5.13071
20
-3.80973
11
5.13002
21
-3.8114
0
LINE
8
BLACK
6
CONTINUOUS
10
5.13002
20
-3.8114
11
5.12835
21
-3.8121
0
LINE
8
BLACK
6
CONTINUOUS
10
5.12835
20
-3.8121
11
5.12668
21
-3.8114
0
LINE
8
BLACK
6
CONTINUOUS
10
5.12668
20
-3.8114
11
5.12598
21
-3.80973
0
LINE
8
BLACK
6
CONTINUOUS
10
5.12598
20
-3.80973
11
5.12598
21
-3.77548
0
LINE
8
BLACK
6
CONTINUOUS
10
5.12598
20
-3.77548
11
5.07087
21
-3.77548
0
LINE
8
BLACK
6
CONTINUOUS
10
5.07087
20
-3.77548
11
5.0692
21
-3.77479
0
LINE
8
BLACK
6
CONTINUOUS
10
5.0692
20
-3.77479
11
5.0685
21
-3.77312
0
LINE
8
BLACK
6
CONTINUOUS
10
5.0685
20
-3.77312
11
5.0692
21
-3.77145
0
LINE
8
BLACK
6
CONTINUOUS
10
5.0692
20
-3.77145
11
5.07087
21
-3.77076
0
LINE
8
BLACK
6
CONTINUOUS
10
5.07087
20
-3.77076
11
5.12835
21
-3.77076
0
LINE
8
BLACK
6
CONTINUOUS
10
5.12835
20
-3.77076
11
5.13002
21
-3.77145
0
LINE
8
BLACK
6
CONTINUOUS
10
3.57844
20
-3.78967
11
3.57913
21
-3.79134
0
LINE
8
BLACK
6
CONTINUOUS
10
3.57913
20
-3.79134
11
3.57844
21
-3.79301
0
LINE
8
BLACK
6
CONTINUOUS
10
3.57844
20
-3.79301
11
3.57677
21
-3.7937
0
LINE
8
BLACK
6
CONTINUOUS
10
3.57677
20
-3.7937
11
3.54921
21
-3.7937
0
LINE
8
BLACK
6
CONTINUOUS
10
3.54921
20
-3.7937
11
3.54754
21
-3.79301
0
LINE
8
BLACK
6
CONTINUOUS
10
3.54754
20
-3.79301
11
3.54685
21
-3.79134
0
LINE
8
BLACK
6
CONTINUOUS
10
3.54685
20
-3.79134
11
3.54754
21
-3.78967
0
LINE
8
BLACK
6
CONTINUOUS
10
3.54754
20
-3.78967
11
3.54921
21
-3.78898
0
LINE
8
BLACK
6
CONTINUOUS
10
3.54921
20
-3.78898
11
3.57677
21
-3.78898
0
LINE
8
BLACK
6
CONTINUOUS
10
3.57677
20
-3.78898
11
3.57844
21
-3.78967
0
LINE
8
BLACK
6
CONTINUOUS
10
4.54222
20
-3.78166
11
4.5417
21
-3.78144
0
LINE
8
BLACK
6
CONTINUOUS
10
4.5417
20
-3.78144
11
4.5217
21
-3.76144
0
LINE
8
BLACK
6
CONTINUOUS
10
4.5217
20
-3.76144
11
4.52097
21
-3.75968
0
LINE
8
BLACK
6
CONTINUOUS
10
4.52097
20
-3.75968
11
4.52097
21
-3.40568
0
LINE
8
BLACK
6
CONTINUOUS
10
4.52097
20
-3.40568
11
4.5217
21
-3.40391
0
LINE
8
BLACK
6
CONTINUOUS
10
4.5217
20
-3.40391
11
4.5417
21
-3.38391
0
LINE
8
BLACK
6
CONTINUOUS
10
4.5417
20
-3.38391
11
4.54222
21
-3.38369
0
LINE
8
BLACK
6
CONTINUOUS
10
4.54222
20
-3.38369
11
4.54347
21
-3.38318
0
LINE
8
BLACK
6
CONTINUOUS
10
4.54347
20
-3.38318
11
4.89747
21
-3.38318
0
LINE
8
BLACK
6
CONTINUOUS
10
4.89747
20
-3.38318
11
4.89924
21
-3.38391
0
LINE
8
BLACK
6
CONTINUOUS
10
4.89924
20
-3.38391
11
4.91924
21
-3.40391
0
LINE
8
BLACK
6
CONTINUOUS
10
4.91924
20
-3.40391
11
4.91945
21
-3.40443
0
LINE
8
BLACK
6
CONTINUOUS
10
4.91945
20
-3.40443
11
4.91997
21
-3.40568
0
LINE
8
BLACK
6
CONTINUOUS
10
4.91997
20
-3.40568
11
4.91997
21
-3.75968
0
LINE
8
BLACK
6
CONTINUOUS
10
4.91997
20
-3.75968
11
4.91945
21
-3.76093
0
LINE
8
BLACK
6
CONTINUOUS
10
4.91945
20
-3.76093
11
4.91924
21
-3.76144
0
LINE
8
BLACK
6
CONTINUOUS
10
4.91924
20
-3.76144
11
4.89924
21
-3.78144
0
LINE
8
BLACK
6
CONTINUOUS
10
4.89924
20
-3.78144
11
4.89747
21
-3.78218
0
LINE
8
BLACK
6
CONTINUOUS
10
4.89747
20
-3.78218
11
4.54347
21
-3.78218
0
LINE
8
BLACK
6
CONTINUOUS
10
4.54347
20
-3.78218
11
4.54222
21
-3.78166
0
LINE
8
BLACK
6
CONTINUOUS
10
4.54451
20
-3.38818
11
4.52597
21
-3.40671
0
LINE
8
BLACK
6
CONTINUOUS
10
4.52597
20
-3.40671
11
4.52597
21
-3.75864
0
LINE
8
BLACK
6
CONTINUOUS
10
4.52597
20
-3.75864
11
4.54451
21
-3.77718
0
LINE
8
BLACK
6
CONTINUOUS
10
4.54451
20
-3.77718
11
4.89644
21
-3.77718
0
LINE
8
BLACK
6
CONTINUOUS
10
4.89644
20
-3.77718
11
4.91497
21
-3.75864
0
LINE
8
BLACK
6
CONTINUOUS
10
4.91497
20
-3.75864
11
4.91497
21
-3.40671
0
LINE
8
BLACK
6
CONTINUOUS
10
4.91497
20
-3.40671
11
4.89644
21
-3.38818
0
LINE
8
BLACK
6
CONTINUOUS
10
4.89644
20
-3.38818
11
4.54451
21
-3.38818
0
LINE
8
BLACK
6
CONTINUOUS
10
4.86074
20
-3.73456
11
4.86285
21
-3.73007
0
LINE
8
BLACK
6
CONTINUOUS
10
4.86285
20
-3.73007
11
4.86613
21
-3.72635
0
LINE
8
BLACK
6
CONTINUOUS
10
4.86613
20
-3.72635
11
4.87033
21
-3.7237
0
LINE
8
BLACK
6
CONTINUOUS
10
4.87033
20
-3.7237
11
4.8751
21
-3.72234
0
LINE
8
BLACK
6
CONTINUOUS
10
4.8751
20
-3.72234
11
4.88006
21
-3.72237
0
LINE
8
BLACK
6
CONTINUOUS
10
4.88006
20
-3.72237
11
4.88481
21
-3.72379
0
LINE
8
BLACK
6
CONTINUOUS
10
4.88481
20
-3.72379
11
4.88898
21
-3.72649
0
LINE
8
BLACK
6
CONTINUOUS
10
4.88898
20
-3.72649
11
4.89222
21
-3.73025
0
LINE
8
BLACK
6
CONTINUOUS
10
4.89222
20
-3.73025
11
4.89427
21
-3.73477
0
LINE
8
BLACK
6
CONTINUOUS
10
4.89427
20
-3.73477
11
4.89497
21
-3.73968
0
LINE
8
BLACK
6
CONTINUOUS
10
4.89497
20
-3.73968
11
4.89497
21
-3.7401
0
LINE
8
BLACK
6
CONTINUOUS
10
4.89497
20
-3.7401
11
4.89414
21
-3.745
0
LINE
8
BLACK
6
CONTINUOUS
10
4.89414
20
-3.745
11
4.89198
21
-3.74946
0
LINE
8
BLACK
6
CONTINUOUS
10
4.89198
20
-3.74946
11
4.88865
21
-3.75314
0
LINE
8
BLACK
6
CONTINUOUS
10
4.88865
20
-3.75314
11
4.88442
21
-3.75574
0
LINE
8
BLACK
6
CONTINUOUS
10
4.88442
20
-3.75574
11
4.87964
21
-3.75704
0
LINE
8
BLACK
6
CONTINUOUS
10
4.87964
20
-3.75704
11
4.87467
21
-3.75695
0
LINE
8
BLACK
6
CONTINUOUS
10
4.87467
20
-3.75695
11
4.86994
21
-3.75547
0
LINE
8
BLACK
6
CONTINUOUS
10
4.86994
20
-3.75547
11
4.86581
21
-3.75272
0
LINE
8
BLACK
6
CONTINUOUS
10
4.86581
20
-3.75272
11
4.86262
21
-3.74892
0
LINE
8
BLACK
6
CONTINUOUS
10
4.86262
20
-3.74892
11
4.86062
21
-3.74438
0
LINE
8
BLACK
6
CONTINUOUS
10
4.86062
20
-3.74438
11
4.86
21
-3.73968
0
LINE
8
BLACK
6
CONTINUOUS
10
4.86
20
-3.73968
11
4.85997
21
-3.73946
0
LINE
8
BLACK
6
CONTINUOUS
10
4.85997
20
-3.73946
11
4.86074
21
-3.73456
0
LINE
8
BLACK
6
CONTINUOUS
10
4.86775
20
-3.74784
11
4.87113
21
-3.75067
0
LINE
8
BLACK
6
CONTINUOUS
10
4.87113
20
-3.75067
11
4.87527
21
-3.75218
0
LINE
8
BLACK
6
CONTINUOUS
10
4.87527
20
-3.75218
11
4.87968
21
-3.75218
0
LINE
8
BLACK
6
CONTINUOUS
10
4.87968
20
-3.75218
11
4.88382
21
-3.75067
0
LINE
8
BLACK
6
CONTINUOUS
10
4.88382
20
-3.75067
11
4.8872
21
-3.74784
0
LINE
8
BLACK
6
CONTINUOUS
10
4.8872
20
-3.74784
11
4.8894
21
-3.74402
0
LINE
8
BLACK
6
CONTINUOUS
10
4.8894
20
-3.74402
11
4.89017
21
-3.73968
0
LINE
8
BLACK
6
CONTINUOUS
10
4.89017
20
-3.73968
11
4.8894
21
-3.73534
0
LINE
8
BLACK
6
CONTINUOUS
10
4.8894
20
-3.73534
11
4.8872
21
-3.73152
0
LINE
8
BLACK
6
CONTINUOUS
10
4.8872
20
-3.73152
11
4.88382
21
-3.72868
0
LINE
8
BLACK
6
CONTINUOUS
10
4.88382
20
-3.72868
11
4.87968
21
-3.72718
0
LINE
8
BLACK
6
CONTINUOUS
10
4.87968
20
-3.72718
11
4.87527
21
-3.72718
0
LINE
8
BLACK
6
CONTINUOUS
10
4.87527
20
-3.72718
11
4.87113
21
-3.72868
0
LINE
8
BLACK
6
CONTINUOUS
10
4.87113
20
-3.72868
11
4.86775
21
-3.73152
0
LINE
8
BLACK
6
CONTINUOUS
10
4.86775
20
-3.73152
11
4.86555
21
-3.73534
0
LINE
8
BLACK
6
CONTINUOUS
10
4.86555
20
-3.73534
11
4.86478
21
-3.73968
0
LINE
8
BLACK
6
CONTINUOUS
10
4.86478
20
-3.73968
11
4.86555
21
-3.74402
0
LINE
8
BLACK
6
CONTINUOUS
10
4.86555
20
-3.74402
11
4.86775
21
-3.74784
0
LINE
8
BLACK
6
CONTINUOUS
10
4.16506
20
-3.77668
11
4.16575
21
-3.77835
0
LINE
8
BLACK
6
CONTINUOUS
10
4.16575
20
-3.77835
11
4.16506
21
-3.78002
0
LINE
8
BLACK
6
CONTINUOUS
10
4.16506
20
-3.78002
11
4.16339
21
-3.78071
0
LINE
8
BLACK
6
CONTINUOUS
10
4.16339
20
-3.78071
11
4.08465
21
-3.78071
0
LINE
8
BLACK
6
CONTINUOUS
10
4.08465
20
-3.78071
11
4.08298
21
-3.78002
0
LINE
8
BLACK
6
CONTINUOUS
10
4.08298
20
-3.78002
11
4.08228
21
-3.77835
0
LINE
8
BLACK
6
CONTINUOUS
10
4.08228
20
-3.77835
11
4.08298
21
-3.77668
0
LINE
8
BLACK
6
CONTINUOUS
10
4.08298
20
-3.77668
11
4.08465
21
-3.77598
0
LINE
8
BLACK
6
CONTINUOUS
10
4.08465
20
-3.77598
11
4.16339
21
-3.77598
0
LINE
8
BLACK
6
CONTINUOUS
10
4.16339
20
-3.77598
11
4.16506
21
-3.77668
0
LINE
8
BLACK
6
CONTINUOUS
10
4.3245
20
-3.77668
11
4.3252
21
-3.77835
0
LINE
8
BLACK
6
CONTINUOUS
10
4.3252
20
-3.77835
11
4.3245
21
-3.78002
0
LINE
8
BLACK
6
CONTINUOUS
10
4.3245
20
-3.78002
11
4.32283
21
-3.78071
0
LINE
8
BLACK
6
CONTINUOUS
10
4.32283
20
-3.78071
11
4.24409
21
-3.78071
0
LINE
8
BLACK
6
CONTINUOUS
10
4.24409
20
-3.78071
11
4.24242
21
-3.78002
0
LINE
8
BLACK
6
CONTINUOUS
10
4.24242
20
-3.78002
11
4.24173
21
-3.77835
0
LINE
8
BLACK
6
CONTINUOUS
10
4.24173
20
-3.77835
11
4.24242
21
-3.77668
0
LINE
8
BLACK
6
CONTINUOUS
10
4.24242
20
-3.77668
11
4.24409
21
-3.77598
0
LINE
8
BLACK
6
CONTINUOUS
10
4.24409
20
-3.77598
11
4.32283
21
-3.77598
0
LINE
8
BLACK
6
CONTINUOUS
10
4.32283
20
-3.77598
11
4.3245
21
-3.77668
0
LINE
8
BLACK
6
CONTINUOUS
10
4.00561
20
-3.77668
11
4.0063
21
-3.77835
0
LINE
8
BLACK
6
CONTINUOUS
10
4.0063
20
-3.77835
11
4.00561
21
-3.78002
0
LINE
8
BLACK
6
CONTINUOUS
10
4.00561
20
-3.78002
11
4.00394
21
-3.78071
0
LINE
8
BLACK
6
CONTINUOUS
10
4.00394
20
-3.78071
11
3.9252
21
-3.78071
0
LINE
8
BLACK
6
CONTINUOUS
10
3.9252
20
-3.78071
11
3.92353
21
-3.78002
0
LINE
8
BLACK
6
CONTINUOUS
10
3.92353
20
-3.78002
11
3.92283
21
-3.77835
0
LINE
8
BLACK
6
CONTINUOUS
10
3.92283
20
-3.77835
11
3.92353
21
-3.77668
0
LINE
8
BLACK
6
CONTINUOUS
10
3.92353
20
-3.77668
11
3.9252
21
-3.77598
0
LINE
8
BLACK
6
CONTINUOUS
10
3.9252
20
-3.77598
11
4.00394
21
-3.77598
0
LINE
8
BLACK
6
CONTINUOUS
10
4.00394
20
-3.77598
11
4.00561
21
-3.77668
0
LINE
8
BLACK
6
CONTINUOUS
10
4.3245
20
-3.7692
11
4.3252
21
-3.77087
0
LINE
8
BLACK
6
CONTINUOUS
10
4.3252
20
-3.77087
11
4.3245
21
-3.77254
0
LINE
8
BLACK
6
CONTINUOUS
10
4.3245
20
-3.77254
11
4.32283
21
-3.77323
0
LINE
8
BLACK
6
CONTINUOUS
10
4.32283
20
-3.77323
11
4.24409
21
-3.77323
0
LINE
8
BLACK
6
CONTINUOUS
10
4.24409
20
-3.77323
11
4.24242
21
-3.77254
0
LINE
8
BLACK
6
CONTINUOUS
10
4.24242
20
-3.77254
11
4.24173
21
-3.77087
0
LINE
8
BLACK
6
CONTINUOUS
10
4.24173
20
-3.77087
11
4.24242
21
-3.7692
0
LINE
8
BLACK
6
CONTINUOUS
10
4.24242
20
-3.7692
11
4.24409
21
-3.7685
0
LINE
8
BLACK
6
CONTINUOUS
10
4.24409
20
-3.7685
11
4.32283
21
-3.7685
0
LINE
8
BLACK
6
CONTINUOUS
10
4.32283
20
-3.7685
11
4.3245
21
-3.7692
0
LINE
8
BLACK
6
CONTINUOUS
10
4.16506
20
-3.7692
11
4.16575
21
-3.77087
0
LINE
8
BLACK
6
CONTINUOUS
10
4.16575
20
-3.77087
11
4.16506
21
-3.77254
0
LINE
8
BLACK
6
CONTINUOUS
10
4.16506
20
-3.77254
11
4.16339
21
-3.77323
0
LINE
8
BLACK
6
CONTINUOUS
10
4.16339
20
-3.77323
11
4.08465
21
-3.77323
0
LINE
8
BLACK
6
CONTINUOUS
10
4.08465
20
-3.77323
11
4.08298
21
-3.77254
0
LINE
8
BLACK
6
CONTINUOUS
10
4.08298
20
-3.77254
11
4.08228
21
-3.77087
0
LINE
8
BLACK
6
CONTINUOUS
10
4.08228
20
-3.77087
11
4.08298
21
-3.7692
0
LINE
8
BLACK
6
CONTINUOUS
10
4.08298
20
-3.7692
11
4.08465
21
-3.7685
0
LINE
8
BLACK
6
CONTINUOUS
10
4.08465
20
-3.7685
11
4.16339
21
-3.7685
0
LINE
8
BLACK
6
CONTINUOUS
10
4.16339
20
-3.7685
11
4.16506
21
-3.7692
0
LINE
8
BLACK
6
CONTINUOUS
10
4.00561
20
-3.7692
11
4.0063
21
-3.77087
0
LINE
8
BLACK
6
CONTINUOUS
10
4.0063
20
-3.77087
11
4.00561
21
-3.77254
0
LINE
8
BLACK
6
CONTINUOUS
10
4.00561
20
-3.77254
11
4.00394
21
-3.77323
0
LINE
8
BLACK
6
CONTINUOUS
10
4.00394
20
-3.77323
11
3.9252
21
-3.77323
0
LINE
8
BLACK
6
CONTINUOUS
10
3.9252
20
-3.77323
11
3.92353
21
-3.77254
0
LINE
8
BLACK
6
CONTINUOUS
10
3.92353
20
-3.77254
11
3.92283
21
-3.77087
0
LINE
8
BLACK
6
CONTINUOUS
10
3.92283
20
-3.77087
11
3.92353
21
-3.7692
0
LINE
8
BLACK
6
CONTINUOUS
10
3.92353
20
-3.7692
11
3.9252
21
-3.7685
0
LINE
8
BLACK
6
CONTINUOUS
10
3.9252
20
-3.7685
11
4.00394
21
-3.7685
0
LINE
8
BLACK
6
CONTINUOUS
10
4.00394
20
-3.7685
11
4.00561
21
-3.7692
0
LINE
8
BLACK
6
CONTINUOUS
10
3.56821
20
-3.71464
11
3.5689
21
-3.71654
0
LINE
8
BLACK
6
CONTINUOUS
10
3.5689
20
-3.71654
11
3.5689
21
-3.75591
0
LINE
8
BLACK
6
CONTINUOUS
10
3.5689
20
-3.75591
11
3.56872
21
-3.75692
0
LINE
8
BLACK
6
CONTINUOUS
10
3.56872
20
-3.75692
11
3.56742
21
-3.75846
0
LINE
8
BLACK
6
CONTINUOUS
10
3.56742
20
-3.75846
11
3.56543
21
-3.75881
0
LINE
8
BLACK
6
CONTINUOUS
10
3.56543
20
-3.75881
11
3.56368
21
-3.7578
0
LINE
8
BLACK
6
CONTINUOUS
10
3.56368
20
-3.7578
11
3.56299
21
-3.75591
0
LINE
8
BLACK
6
CONTINUOUS
10
3.56299
20
-3.75591
11
3.56299
21
-3.71654
0
LINE
8
BLACK
6
CONTINUOUS
10
3.56299
20
-3.71654
11
3.56317
21
-3.71553
0
LINE
8
BLACK
6
CONTINUOUS
10
3.56317
20
-3.71553
11
3.56447
21
-3.71398
0
LINE
8
BLACK
6
CONTINUOUS
10
3.56447
20
-3.71398
11
3.56646
21
-3.71363
0
LINE
8
BLACK
6
CONTINUOUS
10
3.56646
20
-3.71363
11
3.56821
21
-3.71464
0
LINE
8
BLACK
6
CONTINUOUS
10
3.62136
20
-3.71464
11
3.62205
21
-3.71654
0
LINE
8
BLACK
6
CONTINUOUS
10
3.62205
20
-3.71654
11
3.62205
21
-3.75591
0
LINE
8
BLACK
6
CONTINUOUS
10
3.62205
20
-3.75591
11
3.62187
21
-3.75692
0
LINE
8
BLACK
6
CONTINUOUS
10
3.62187
20
-3.75692
11
3.62057
21
-3.75846
0
LINE
8
BLACK
6
CONTINUOUS
10
3.62057
20
-3.75846
11
3.61858
21
-3.75881
0
LINE
8
BLACK
6
CONTINUOUS
10
3.61858
20
-3.75881
11
3.61683
21
-3.7578
0
LINE
8
BLACK
6
CONTINUOUS
10
3.61683
20
-3.7578
11
3.61614
21
-3.75591
0
LINE
8
BLACK
6
CONTINUOUS
10
3.61614
20
-3.75591
11
3.61614
21
-3.71654
0
LINE
8
BLACK
6
CONTINUOUS
10
3.61614
20
-3.71654
11
3.61632
21
-3.71553
0
LINE
8
BLACK
6
CONTINUOUS
10
3.61632
20
-3.71553
11
3.61762
21
-3.71398
0
LINE
8
BLACK
6
CONTINUOUS
10
3.61762
20
-3.71398
11
3.61961
21
-3.71363
0
LINE
8
BLACK
6
CONTINUOUS
10
3.61961
20
-3.71363
11
3.62136
21
-3.71464
0
LINE
8
BLACK
6
CONTINUOUS
10
3.55876
20
-3.72077
11
3.55945
21
-3.72244
0
LINE
8
BLACK
6
CONTINUOUS
10
3.55945
20
-3.72244
11
3.55945
21
-3.75
0
LINE
8
BLACK
6
CONTINUOUS
10
3.55945
20
-3.75
11
3.55876
21
-3.75167
0
LINE
8
BLACK
6
CONTINUOUS
10
3.55876
20
-3.75167
11
3.55709
21
-3.75236
0
LINE
8
BLACK
6
CONTINUOUS
10
3.55709
20
-3.75236
11
3.55542
21
-3.75167
0
LINE
8
BLACK
6
CONTINUOUS
10
3.55542
20
-3.75167
11
3.55472
21
-3.75
0
LINE
8
BLACK
6
CONTINUOUS
10
3.55472
20
-3.75
11
3.55472
21
-3.72244
0
LINE
8
BLACK
6
CONTINUOUS
10
3.55472
20
-3.72244
11
3.55542
21
-3.72077
0
LINE
8
BLACK
6
CONTINUOUS
10
3.55542
20
-3.72077
11
3.55709
21
-3.72008
0
LINE
8
BLACK
6
CONTINUOUS
10
3.55709
20
-3.72008
11
3.55876
21
-3.72077
0
LINE
8
BLACK
6
CONTINUOUS
10
3.51151
20
-3.72077
11
3.5122
21
-3.72244
0
LINE
8
BLACK
6
CONTINUOUS
10
3.5122
20
-3.72244
11
3.5122
21
-3.75
0
LINE
8
BLACK
6
CONTINUOUS
10
3.5122
20
-3.75
11
3.51151
21
-3.75167
0
LINE
8
BLACK
6
CONTINUOUS
10
3.51151
20
-3.75167
11
3.50984
21
-3.75236
0
LINE
8
BLACK
6
CONTINUOUS
10
3.50984
20
-3.75236
11
3.50817
21
-3.75167
0
LINE
8
BLACK
6
CONTINUOUS
10
3.50817
20
-3.75167
11
3.50748
21
-3.75
0
LINE
8
BLACK
6
CONTINUOUS
10
3.50748
20
-3.75
11
3.50748
21
-3.72244
0
LINE
8
BLACK
6
CONTINUOUS
10
3.50748
20
-3.72244
11
3.50817
21
-3.72077
0
LINE
8
BLACK
6
CONTINUOUS
10
3.50817
20
-3.72077
11
3.50984
21
-3.72008
0
LINE
8
BLACK
6
CONTINUOUS
10
3.50984
20
-3.72008
11
3.51151
21
-3.72077
0
LINE
8
BLACK
6
CONTINUOUS
10
5.07726
20
-3.70502
11
5.07795
21
-3.70669
0
LINE
8
BLACK
6
CONTINUOUS
10
5.07795
20
-3.70669
11
5.07795
21
-3.74606
0
LINE
8
BLACK
6
CONTINUOUS
10
5.07795
20
-3.74606
11
5.07726
21
-3.74773
0
LINE
8
BLACK
6
CONTINUOUS
10
5.07726
20
-3.74773
11
5.07559
21
-3.74843
0
LINE
8
BLACK
6
CONTINUOUS
10
5.07559
20
-3.74843
11
5.07392
21
-3.74773
0
LINE
8
BLACK
6
CONTINUOUS
10
5.07392
20
-3.74773
11
5.07323
21
-3.74606
0
LINE
8
BLACK
6
CONTINUOUS
10
5.07323
20
-3.74606
11
5.07323
21
-3.70669
0
LINE
8
BLACK
6
CONTINUOUS
10
5.07323
20
-3.70669
11
5.07392
21
-3.70502
0
LINE
8
BLACK
6
CONTINUOUS
10
5.07392
20
-3.70502
11
5.07559
21
-3.70433
0
LINE
8
BLACK
6
CONTINUOUS
10
5.07559
20
-3.70433
11
5.07726
21
-3.70502
0
LINE
8
BLACK
6
CONTINUOUS
10
5.1308
20
-3.70502
11
5.1315
21
-3.70669
0
LINE
8
BLACK
6
CONTINUOUS
10
5.1315
20
-3.70669
11
5.1315
21
-3.74606
0
LINE
8
BLACK
6
CONTINUOUS
10
5.1315
20
-3.74606
11
5.1308
21
-3.74773
0
LINE
8
BLACK
6
CONTINUOUS
10
5.1308
20
-3.74773
11
5.12913
21
-3.74843
0
LINE
8
BLACK
6
CONTINUOUS
10
5.12913
20
-3.74843
11
5.12746
21
-3.74773
0
LINE
8
BLACK
6
CONTINUOUS
10
5.12746
20
-3.74773
11
5.12677
21
-3.74606
0
LINE
8
BLACK
6
CONTINUOUS
10
5.12677
20
-3.74606
11
5.12677
21
-3.70669
0
LINE
8
BLACK
6
CONTINUOUS
10
5.12677
20
-3.70669
11
5.12746
21
-3.70502
0
LINE
8
BLACK
6
CONTINUOUS
10
5.12746
20
-3.70502
11
5.12913
21
-3.70433
0
LINE
8
BLACK
6
CONTINUOUS
10
5.12913
20
-3.70433
11
5.1308
21
-3.70502
0
LINE
8
BLACK
6
CONTINUOUS
10
4.3245
20
-3.6999
11
4.3252
21
-3.70157
0
LINE
8
BLACK
6
CONTINUOUS
10
4.3252
20
-3.70157
11
4.3245
21
-3.70325
0
LINE
8
BLACK
6
CONTINUOUS
10
4.3245
20
-3.70325
11
4.32283
21
-3.70394
0
LINE
8
BLACK
6
CONTINUOUS
10
4.32283
20
-3.70394
11
4.24409
21
-3.70394
0
LINE
8
BLACK
6
CONTINUOUS
10
4.24409
20
-3.70394
11
4.24242
21
-3.70325
0
LINE
8
BLACK
6
CONTINUOUS
10
4.24242
20
-3.70325
11
4.24173
21
-3.70157
0
LINE
8
BLACK
6
CONTINUOUS
10
4.24173
20
-3.70157
11
4.24242
21
-3.6999
0
LINE
8
BLACK
6
CONTINUOUS
10
4.24242
20
-3.6999
11
4.24409
21
-3.69921
0
LINE
8
BLACK
6
CONTINUOUS
10
4.24409
20
-3.69921
11
4.32283
21
-3.69921
0
LINE
8
BLACK
6
CONTINUOUS
10
4.32283
20
-3.69921
11
4.3245
21
-3.6999
0
LINE
8
BLACK
6
CONTINUOUS
10
4.16506
20
-3.6999
11
4.16575
21
-3.70157
0
LINE
8
BLACK
6
CONTINUOUS
10
4.16575
20
-3.70157
11
4.16506
21
-3.70325
0
LINE
8
BLACK
6
CONTINUOUS
10
4.16506
20
-3.70325
11
4.16339
21
-3.70394
0
LINE
8
BLACK
6
CONTINUOUS
10
4.16339
20
-3.70394
11
4.08465
21
-3.70394
0
LINE
8
BLACK
6
CONTINUOUS
10
4.08465
20
-3.70394
11
4.08298
21
-3.70325
0
LINE
8
BLACK
6
CONTINUOUS
10
4.08298
20
-3.70325
11
4.08228
21
-3.70157
0
LINE
8
BLACK
6
CONTINUOUS
10
4.08228
20
-3.70157
11
4.08298
21
-3.6999
0
LINE
8
BLACK
6
CONTINUOUS
10
4.08298
20
-3.6999
11
4.08465
21
-3.69921
0
LINE
8
BLACK
6
CONTINUOUS
10
4.08465
20
-3.69921
11
4.16339
21
-3.69921
0
LINE
8
BLACK
6
CONTINUOUS
10
4.16339
20
-3.69921
11
4.16506
21
-3.6999
0
LINE
8
BLACK
6
CONTINUOUS
10
4.00561
20
-3.6999
11
4.0063
21
-3.70157
0
LINE
8
BLACK
6
CONTINUOUS
10
4.0063
20
-3.70157
11
4.00561
21
-3.70325
0
LINE
8
BLACK
6
CONTINUOUS
10
4.00561
20
-3.70325
11
4.00394
21
-3.70394
0
LINE
8
BLACK
6
CONTINUOUS
10
4.00394
20
-3.70394
11
3.9252
21
-3.70394
0
LINE
8
BLACK
6
CONTINUOUS
10
3.9252
20
-3.70394
11
3.92353
21
-3.70325
0
LINE
8
BLACK
6
CONTINUOUS
10
3.92353
20
-3.70325
11
3.92283
21
-3.70157
0
LINE
8
BLACK
6
CONTINUOUS
10
3.92283
20
-3.70157
11
3.92353
21
-3.6999
0
LINE
8
BLACK
6
CONTINUOUS
10
3.92353
20
-3.6999
11
3.9252
21
-3.69921
0
LINE
8
BLACK
6
CONTINUOUS
10
3.9252
20
-3.69921
11
4.00394
21
-3.69921
0
LINE
8
BLACK
6
CONTINUOUS
10
4.00394
20
-3.69921
11
4.00561
21
-3.6999
0
LINE
8
BLACK
6
CONTINUOUS
10
4.16506
20
-3.69242
11
4.16575
21
-3.69409
0
LINE
8
BLACK
6
CONTINUOUS
10
4.16575
20
-3.69409
11
4.16506
21
-3.69576
0
LINE
8
BLACK
6
CONTINUOUS
10
4.16506
20
-3.69576
11
4.16339
21
-3.69646
0
LINE
8
BLACK
6
CONTINUOUS
10
4.16339
20
-3.69646
11
4.08465
21
-3.69646
0
LINE
8
BLACK
6
CONTINUOUS
10
4.08465
20
-3.69646
11
4.08298
21
-3.69576
0
LINE
8
BLACK
6
CONTINUOUS
10
4.08298
20
-3.69576
11
4.08228
21
-3.69409
0
LINE
8
BLACK
6
CONTINUOUS
10
4.08228
20
-3.69409
11
4.08298
21
-3.69242
0
LINE
8
BLACK
6
CONTINUOUS
10
4.08298
20
-3.69242
11
4.08465
21
-3.69173
0
LINE
8
BLACK
6
CONTINUOUS
10
4.08465
20
-3.69173
11
4.16339
21
-3.69173
0
LINE
8
BLACK
6
CONTINUOUS
10
4.16339
20
-3.69173
11
4.16506
21
-3.69242
0
LINE
8
BLACK
6
CONTINUOUS
10
4.3245
20
-3.69242
11
4.3252
21
-3.69409
0
LINE
8
BLACK
6
CONTINUOUS
10
4.3252
20
-3.69409
11
4.3245
21
-3.69576
0
LINE
8
BLACK
6
CONTINUOUS
10
4.3245
20
-3.69576
11
4.32283
21
-3.69646
0
LINE
8
BLACK
6
CONTINUOUS
10
4.32283
20
-3.69646
11
4.24409
21
-3.69646
0
LINE
8
BLACK
6
CONTINUOUS
10
4.24409
20
-3.69646
11
4.24242
21
-3.69576
0
LINE
8
BLACK
6
CONTINUOUS
10
4.24242
20
-3.69576
11
4.24173
21
-3.69409
0
LINE
8
BLACK
6
CONTINUOUS
10
4.24173
20
-3.69409
11
4.24242
21
-3.69242
0
LINE
8
BLACK
6
CONTINUOUS
10
4.24242
20
-3.69242
11
4.24409
21
-3.69173
0
LINE
8
BLACK
6
CONTINUOUS
10
4.24409
20
-3.69173
11
4.32283
21
-3.69173
0
LINE
8
BLACK
6
CONTINUOUS
10
4.32283
20
-3.69173
11
4.3245
21
-3.69242
0
LINE
8
BLACK
6
CONTINUOUS
10
4.00561
20
-3.69242
11
4.0063
21
-3.69409
0
LINE
8
BLACK
6
CONTINUOUS
10
4.0063
20
-3.69409
11
4.00561
21
-3.69576
0
LINE
8
BLACK
6
CONTINUOUS
10
4.00561
20
-3.69576
11
4.00394
21
-3.69646
0
LINE
8
BLACK
6
CONTINUOUS
10
4.00394
20
-3.69646
11
3.9252
21
-3.69646
0
LINE
8
BLACK
6
CONTINUOUS
10
3.9252
20
-3.69646
11
3.92353
21
-3.69576
0
LINE
8
BLACK
6
CONTINUOUS
10
3.92353
20
-3.69576
11
3.92283
21
-3.69409
0
LINE
8
BLACK
6
CONTINUOUS
10
3.92283
20
-3.69409
11
3.92353
21
-3.69242
0
LINE
8
BLACK
6
CONTINUOUS
10
3.92353
20
-3.69242
11
3.9252
21
-3.69173
0
LINE
8
BLACK
6
CONTINUOUS
10
3.9252
20
-3.69173
11
4.00394
21
-3.69173
0
LINE
8
BLACK
6
CONTINUOUS
10
4.00394
20
-3.69173
11
4.00561
21
-3.69242
0
LINE
8
BLACK
6
CONTINUOUS
10
3.23857
20
-3.68249
11
3.23799
21
-3.6811
0
LINE
8
BLACK
6
CONTINUOUS
10
3.23799
20
-3.6811
11
3.23799
21
-3.48425
0
LINE
8
BLACK
6
CONTINUOUS
10
3.23799
20
-3.48425
11
3.23857
21
-3.48286
0
LINE
8
BLACK
6
CONTINUOUS
10
3.23857
20
-3.48286
11
3.23996
21
-3.48228
0
LINE
8
BLACK
6
CONTINUOUS
10
3.23996
20
-3.48228
11
3.47618
21
-3.48228
0
LINE
8
BLACK
6
CONTINUOUS
10
3.47618
20
-3.48228
11
3.47757
21
-3.48286
0
LINE
8
BLACK
6
CONTINUOUS
10
3.47757
20
-3.48286
11
3.47815
21
-3.48425
0
LINE
8
BLACK
6
CONTINUOUS
10
3.47815
20
-3.48425
11
3.47815
21
-3.6811
0
LINE
8
BLACK
6
CONTINUOUS
10
3.47815
20
-3.6811
11
3.47757
21
-3.68249
0
LINE
8
BLACK
6
CONTINUOUS
10
3.47757
20
-3.68249
11
3.47618
21
-3.68307
0
LINE
8
BLACK
6
CONTINUOUS
10
3.47618
20
-3.68307
11
3.23996
21
-3.68307
0
LINE
8
BLACK
6
CONTINUOUS
10
3.23996
20
-3.68307
11
3.23857
21
-3.68249
0
LINE
8
BLACK
6
CONTINUOUS
10
3.24193
20
-3.48622
11
3.24193
21
-3.67913
0
LINE
8
BLACK
6
CONTINUOUS
10
3.24193
20
-3.67913
11
3.47421
21
-3.67913
0
LINE
8
BLACK
6
CONTINUOUS
10
3.47421
20
-3.67913
11
3.47421
21
-3.48622
0
LINE
8
BLACK
6
CONTINUOUS
10
3.47421
20
-3.48622
11
3.24193
21
-3.48622
0
LINE
8
BLACK
6
CONTINUOUS
10
3.07912
20
-3.50105
11
3.07925
21
-3.50103
0
LINE
8
BLACK
6
CONTINUOUS
10
3.07925
20
-3.50103
11
3.07937
21
-3.50109
0
LINE
8
BLACK
6
CONTINUOUS
10
3.07937
20
-3.50109
11
3.07975
21
-3.50116
0
LINE
8
BLACK
6
CONTINUOUS
10
3.07975
20
-3.50116
11
3.08034
21
-3.50166
0
LINE
8
BLACK
6
CONTINUOUS
10
3.08034
20
-3.50166
11
3.081
21
-3.50204
0
LINE
8
BLACK
6
CONTINUOUS
10
3.081
20
-3.50204
11
3.08109
21
-3.50229
0
LINE
8
BLACK
6
CONTINUOUS
10
3.08109
20
-3.50229
11
3.0813
21
-3.50246
0
LINE
8
BLACK
6
CONTINUOUS
10
3.0813
20
-3.50246
11
3.08143
21
-3.50322
0
LINE
8
BLACK
6
CONTINUOUS
10
3.08143
20
-3.50322
11
3.08169
21
-3.50394
0
LINE
8
BLACK
6
CONTINUOUS
10
3.08169
20
-3.50394
11
3.08169
21
-3.66142
0
LINE
8
BLACK
6
CONTINUOUS
10
3.08169
20
-3.66142
11
3.08163
21
-3.6618
0
LINE
8
BLACK
6
CONTINUOUS
10
3.08163
20
-3.6618
11
3.08165
21
-3.66193
0
LINE
8
BLACK
6
CONTINUOUS
10
3.08165
20
-3.66193
11
3.08158
21
-3.66204
0
LINE
8
BLACK
6
CONTINUOUS
10
3.08158
20
-3.66204
11
3.08151
21
-3.66243
0
LINE
8
BLACK
6
CONTINUOUS
10
3.08151
20
-3.66243
11
3.08102
21
-3.66301
0
LINE
8
BLACK
6
CONTINUOUS
10
3.08102
20
-3.66301
11
3.08064
21
-3.66368
0
LINE
8
BLACK
6
CONTINUOUS
10
3.08064
20
-3.66368
11
3.08039
21
-3.66377
0
LINE
8
BLACK
6
CONTINUOUS
10
3.08039
20
-3.66377
11
3.08022
21
-3.66397
0
LINE
8
BLACK
6
CONTINUOUS
10
3.08022
20
-3.66397
11
3.07946
21
-3.66411
0
LINE
8
BLACK
6
CONTINUOUS
10
3.07946
20
-3.66411
11
3.07874
21
-3.66437
0
LINE
8
BLACK
6
CONTINUOUS
10
3.07874
20
-3.66437
11
2.82677
21
-3.66437
0
LINE
8
BLACK
6
CONTINUOUS
10
2.82677
20
-3.66437
11
2.82639
21
-3.6643
0
LINE
8
BLACK
6
CONTINUOUS
10
2.82639
20
-3.6643
11
2.82626
21
-3.66433
0
LINE
8
BLACK
6
CONTINUOUS
10
2.82626
20
-3.66433
11
2.82615
21
-3.66426
0
LINE
8
BLACK
6
CONTINUOUS
10
2.82615
20
-3.66426
11
2.82576
21
-3.66419
0
LINE
8
BLACK
6
CONTINUOUS
10
2.82576
20
-3.66419
11
2.82517
21
-3.6637
0
LINE
8
BLACK
6
CONTINUOUS
10
2.82517
20
-3.6637
11
2.82451
21
-3.66332
0
LINE
8
BLACK
6
CONTINUOUS
10
2.82451
20
-3.66332
11
2.82442
21
-3.66306
0
LINE
8
BLACK
6
CONTINUOUS
10
2.82442
20
-3.66306
11
2.82421
21
-3.66289
0
LINE
8
BLACK
6
CONTINUOUS
10
2.82421
20
-3.66289
11
2.82408
21
-3.66214
0
LINE
8
BLACK
6
CONTINUOUS
10
2.82408
20
-3.66214
11
2.82382
21
-3.66142
0
LINE
8
BLACK
6
CONTINUOUS
10
2.82382
20
-3.66142
11
2.82382
21
-3.50394
0
LINE
8
BLACK
6
CONTINUOUS
10
2.82382
20
-3.50394
11
2.82389
21
-3.50355
0
LINE
8
BLACK
6
CONTINUOUS
10
2.82389
20
-3.50355
11
2.82386
21
-3.50342
0
LINE
8
BLACK
6
CONTINUOUS
10
2.82386
20
-3.50342
11
2.82393
21
-3.50331
0
LINE
8
BLACK
6
CONTINUOUS
10
2.82393
20
-3.50331
11
2.824
21
-3.50293
0
LINE
8
BLACK
6
CONTINUOUS
10
2.824
20
-3.50293
11
2.82449
21
-3.50234
0
LINE
8
BLACK
6
CONTINUOUS
10
2.82449
20
-3.50234
11
2.82487
21
-3.50168
0
LINE
8
BLACK
6
CONTINUOUS
10
2.82487
20
-3.50168
11
2.82512
21
-3.50158
0
LINE
8
BLACK
6
CONTINUOUS
10
2.82512
20
-3.50158
11
2.8253
21
-3.50138
0
LINE
8
BLACK
6
CONTINUOUS
10
2.8253
20
-3.50138
11
2.82605
21
-3.50125
0
LINE
8
BLACK
6
CONTINUOUS
10
2.82605
20
-3.50125
11
2.82677
21
-3.50098
0
LINE
8
BLACK
6
CONTINUOUS
10
2.82677
20
-3.50098
11
3.07874
21
-3.50098
0
LINE
8
BLACK
6
CONTINUOUS
10
3.07874
20
-3.50098
11
3.07912
21
-3.50105
0
LINE
8
BLACK
6
CONTINUOUS
10
2.82972
20
-3.50689
11
2.82972
21
-3.65846
0
LINE
8
BLACK
6
CONTINUOUS
10
2.82972
20
-3.65846
11
3.07579
21
-3.65846
0
LINE
8
BLACK
6
CONTINUOUS
10
3.07579
20
-3.65846
11
3.07579
21
-3.50689
0
LINE
8
BLACK
6
CONTINUOUS
10
3.07579
20
-3.50689
11
2.82972
21
-3.50689
0
LINE
8
BLACK
6
CONTINUOUS
10
3.57844
20
-3.65778
11
3.57913
21
-3.65945
0
LINE
8
BLACK
6
CONTINUOUS
10
3.57913
20
-3.65945
11
3.57844
21
-3.66112
0
LINE
8
BLACK
6
CONTINUOUS
10
3.57844
20
-3.66112
11
3.57677
21
-3.66181
0
LINE
8
BLACK
6
CONTINUOUS
10
3.57677
20
-3.66181
11
3.54921
21
-3.66181
0
LINE
8
BLACK
6
CONTINUOUS
10
3.54921
20
-3.66181
11
3.54754
21
-3.66112
0
LINE
8
BLACK
6
CONTINUOUS
10
3.54754
20
-3.66112
11
3.54685
21
-3.65945
0
LINE
8
BLACK
6
CONTINUOUS
10
3.54685
20
-3.65945
11
3.54754
21
-3.65778
0
LINE
8
BLACK
6
CONTINUOUS
10
3.54754
20
-3.65778
11
3.54921
21
-3.65709
0
LINE
8
BLACK
6
CONTINUOUS
10
3.54921
20
-3.65709
11
3.57677
21
-3.65709
0
LINE
8
BLACK
6
CONTINUOUS
10
3.57677
20
-3.65709
11
3.57844
21
-3.65778
0
LINE
8
BLACK
6
CONTINUOUS
10
3.64135
20
-3.65446
11
3.64122
21
-3.65448
0
LINE
8
BLACK
6
CONTINUOUS
10
3.64122
20
-3.65448
11
3.64111
21
-3.65442
0
LINE
8
BLACK
6
CONTINUOUS
10
3.64111
20
-3.65442
11
3.64072
21
-3.65435
0
LINE
8
BLACK
6
CONTINUOUS
10
3.64072
20
-3.65435
11
3.64013
21
-3.65386
0
LINE
8
BLACK
6
CONTINUOUS
10
3.64013
20
-3.65386
11
3.63947
21
-3.65347
0
LINE
8
BLACK
6
CONTINUOUS
10
3.63947
20
-3.65347
11
3.63938
21
-3.65322
0
LINE
8
BLACK
6
CONTINUOUS
10
3.63938
20
-3.65322
11
3.63918
21
-3.65305
0
LINE
8
BLACK
6
CONTINUOUS
10
3.63918
20
-3.65305
11
3.63904
21
-3.6523
0
LINE
8
BLACK
6
CONTINUOUS
10
3.63904
20
-3.6523
11
3.63878
21
-3.65157
0
LINE
8
BLACK
6
CONTINUOUS
10
3.63878
20
-3.65157
11
3.63878
21
-3.49409
0
LINE
8
BLACK
6
CONTINUOUS
10
3.63878
20
-3.49409
11
3.63885
21
-3.49371
0
LINE
8
BLACK
6
CONTINUOUS
10
3.63885
20
-3.49371
11
3.63882
21
-3.49358
0
LINE
8
BLACK
6
CONTINUOUS
10
3.63882
20
-3.49358
11
3.63889
21
-3.49347
0
LINE
8
BLACK
6
CONTINUOUS
10
3.63889
20
-3.49347
11
3.63896
21
-3.49308
0
LINE
8
BLACK
6
CONTINUOUS
10
3.63896
20
-3.49308
11
3.63945
21
-3.4925
0
LINE
8
BLACK
6
CONTINUOUS
10
3.63945
20
-3.4925
11
3.63983
21
-3.49183
0
LINE
8
BLACK
6
CONTINUOUS
10
3.63983
20
-3.49183
11
3.64008
21
-3.49174
0
LINE
8
BLACK
6
CONTINUOUS
10
3.64008
20
-3.49174
11
3.64026
21
-3.49154
0
LINE
8
BLACK
6
CONTINUOUS
10
3.64026
20
-3.49154
11
3.64101
21
-3.4914
0
LINE
8
BLACK
6
CONTINUOUS
10
3.64101
20
-3.4914
11
3.64173
21
-3.49114
0
LINE
8
BLACK
6
CONTINUOUS
10
3.64173
20
-3.49114
11
3.79921
21
-3.49114
0
LINE
8
BLACK
6
CONTINUOUS
10
3.79921
20
-3.49114
11
3.7996
21
-3.49121
0
LINE
8
BLACK
6
CONTINUOUS
10
3.7996
20
-3.49121
11
3.79973
21
-3.49119
0
LINE
8
BLACK
6
CONTINUOUS
10
3.79973
20
-3.49119
11
3.79984
21
-3.49125
0
LINE
8
BLACK
6
CONTINUOUS
10
3.79984
20
-3.49125
11
3.80022
21
-3.49132
0
LINE
8
BLACK
6
CONTINUOUS
10
3.80022
20
-3.49132
11
3.80081
21
-3.49181
0
LINE
8
BLACK
6
CONTINUOUS
10
3.80081
20
-3.49181
11
3.80147
21
-3.4922
0
LINE
8
BLACK
6
CONTINUOUS
10
3.80147
20
-3.4922
11
3.80157
21
-3.49245
0
LINE
8
BLACK
6
CONTINUOUS
10
3.80157
20
-3.49245
11
3.80177
21
-3.49262
0
LINE
8
BLACK
6
CONTINUOUS
10
3.80177
20
-3.49262
11
3.8019
21
-3.49337
0
LINE
8
BLACK
6
CONTINUOUS
10
3.8019
20
-3.49337
11
3.80217
21
-3.49409
0
LINE
8
BLACK
6
CONTINUOUS
10
3.80217
20
-3.49409
11
3.80217
21
-3.65157
0
LINE
8
BLACK
6
CONTINUOUS
10
3.80217
20
-3.65157
11
3.8021
21
-3.65196
0
LINE
8
BLACK
6
CONTINUOUS
10
3.8021
20
-3.65196
11
3.80212
21
-3.65209
0
LINE
8
BLACK
6
CONTINUOUS
10
3.80212
20
-3.65209
11
3.80205
21
-3.6522
0
LINE
8
BLACK
6
CONTINUOUS
10
3.80205
20
-3.6522
11
3.80199
21
-3.65258
0
LINE
8
BLACK
6
CONTINUOUS
10
3.80199
20
-3.65258
11
3.80149
21
-3.65317
0
LINE
8
BLACK
6
CONTINUOUS
10
3.80149
20
-3.65317
11
3.80111
21
-3.65384
0
LINE
8
BLACK
6
CONTINUOUS
10
3.80111
20
-3.65384
11
3.80086
21
-3.65393
0
LINE
8
BLACK
6
CONTINUOUS
10
3.80086
20
-3.65393
11
3.80069
21
-3.65413
0
LINE
8
BLACK
6
CONTINUOUS
10
3.80069
20
-3.65413
11
3.79993
21
-3.65427
0
LINE
8
BLACK
6
CONTINUOUS
10
3.79993
20
-3.65427
11
3.79921
21
-3.65453
0
LINE
8
BLACK
6
CONTINUOUS
10
3.79921
20
-3.65453
11
3.64173
21
-3.65453
0
LINE
8
BLACK
6
CONTINUOUS
10
3.64173
20
-3.65453
11
3.64135
21
-3.65446
0
LINE
8
BLACK
6
CONTINUOUS
10
3.64469
20
-3.49705
11
3.64469
21
-3.6346
0
LINE
8
BLACK
6
CONTINUOUS
10
3.64469
20
-3.6346
11
3.6587
21
-3.64862
0
LINE
8
BLACK
6
CONTINUOUS
10
3.6587
20
-3.64862
11
3.79626
21
-3.64862
0
LINE
8
BLACK
6
CONTINUOUS
10
3.79626
20
-3.64862
11
3.79626
21
-3.49705
0
LINE
8
BLACK
6
CONTINUOUS
10
3.79626
20
-3.49705
11
3.64469
21
-3.49705
0
LINE
8
BLACK
6
CONTINUOUS
10
3.87923
20
-3.59653
11
3.87992
21
-3.59843
0
LINE
8
BLACK
6
CONTINUOUS
10
3.87992
20
-3.59843
11
3.87992
21
-3.6378
0
LINE
8
BLACK
6
CONTINUOUS
10
3.87992
20
-3.6378
11
3.87974
21
-3.63881
0
LINE
8
BLACK
6
CONTINUOUS
10
3.87974
20
-3.63881
11
3.87844
21
-3.64035
0
LINE
8
BLACK
6
CONTINUOUS
10
3.87844
20
-3.64035
11
3.87646
21
-3.6407
0
LINE
8
BLACK
6
CONTINUOUS
10
3.87646
20
-3.6407
11
3.87471
21
-3.63969
0
LINE
8
BLACK
6
CONTINUOUS
10
3.87471
20
-3.63969
11
3.87402
21
-3.6378
0
LINE
8
BLACK
6
CONTINUOUS
10
3.87402
20
-3.6378
11
3.87402
21
-3.59843
0
LINE
8
BLACK
6
CONTINUOUS
10
3.87402
20
-3.59843
11
3.87419
21
-3.59742
0
LINE
8
BLACK
6
CONTINUOUS
10
3.87419
20
-3.59742
11
3.87549
21
-3.59587
0
LINE
8
BLACK
6
CONTINUOUS
10
3.87549
20
-3.59587
11
3.87748
21
-3.59552
0
LINE
8
BLACK
6
CONTINUOUS
10
3.87748
20
-3.59552
11
3.87923
21
-3.59653
0
LINE
8
BLACK
6
CONTINUOUS
10
3.82608
20
-3.59653
11
3.82677
21
-3.59843
0
LINE
8
BLACK
6
CONTINUOUS
10
3.82677
20
-3.59843
11
3.82677
21
-3.6378
0
LINE
8
BLACK
6
CONTINUOUS
10
3.82677
20
-3.6378
11
3.82659
21
-3.63881
0
LINE
8
BLACK
6
CONTINUOUS
10
3.82659
20
-3.63881
11
3.8253
21
-3.64035
0
LINE
8
BLACK
6
CONTINUOUS
10
3.8253
20
-3.64035
11
3.82331
21
-3.6407
0
LINE
8
BLACK
6
CONTINUOUS
10
3.82331
20
-3.6407
11
3.82156
21
-3.63969
0
LINE
8
BLACK
6
CONTINUOUS
10
3.82156
20
-3.63969
11
3.82087
21
-3.6378
0
LINE
8
BLACK
6
CONTINUOUS
10
3.82087
20
-3.6378
11
3.82087
21
-3.59843
0
LINE
8
BLACK
6
CONTINUOUS
10
3.82087
20
-3.59843
11
3.82104
21
-3.59742
0
LINE
8
BLACK
6
CONTINUOUS
10
3.82104
20
-3.59742
11
3.82234
21
-3.59587
0
LINE
8
BLACK
6
CONTINUOUS
10
3.82234
20
-3.59587
11
3.82433
21
-3.59552
0
LINE
8
BLACK
6
CONTINUOUS
10
3.82433
20
-3.59552
11
3.82608
21
-3.59653
0
LINE
8
BLACK
6
CONTINUOUS
10
5.12884
20
-3.59085
11
5.12953
21
-3.59252
0
LINE
8
BLACK
6
CONTINUOUS
10
5.12953
20
-3.59252
11
5.12953
21
-3.63189
0
LINE
8
BLACK
6
CONTINUOUS
10
5.12953
20
-3.63189
11
5.12884
21
-3.63356
0
LINE
8
BLACK
6
CONTINUOUS
10
5.12884
20
-3.63356
11
5.12717
21
-3.63425
0
LINE
8
BLACK
6
CONTINUOUS
10
5.12717
20
-3.63425
11
5.1255
21
-3.63356
0
LINE
8
BLACK
6
CONTINUOUS
10
5.1255
20
-3.63356
11
5.1248
21
-3.63189
0
LINE
8
BLACK
6
CONTINUOUS
10
5.1248
20
-3.63189
11
5.1248
21
-3.59252
0
LINE
8
BLACK
6
CONTINUOUS
10
5.1248
20
-3.59252
11
5.1255
21
-3.59085
0
LINE
8
BLACK
6
CONTINUOUS
10
5.1255
20
-3.59085
11
5.12717
21
-3.59016
0
LINE
8
BLACK
6
CONTINUOUS
10
5.12717
20
-3.59016
11
5.12884
21
-3.59085
0
LINE
8
BLACK
6
CONTINUOUS
10
5.07529
20
-3.59085
11
5.07598
21
-3.59252
0
LINE
8
BLACK
6
CONTINUOUS
10
5.07598
20
-3.59252
11
5.07598
21
-3.63189
0
LINE
8
BLACK
6
CONTINUOUS
10
5.07598
20
-3.63189
11
5.07529
21
-3.63356
0
LINE
8
BLACK
6
CONTINUOUS
10
5.07529
20
-3.63356
11
5.07362
21
-3.63425
0
LINE
8
BLACK
6
CONTINUOUS
10
5.07362
20
-3.63425
11
5.07195
21
-3.63356
0
LINE
8
BLACK
6
CONTINUOUS
10
5.07195
20
-3.63356
11
5.07126
21
-3.63189
0
LINE
8
BLACK
6
CONTINUOUS
10
5.07126
20
-3.63189
11
5.07126
21
-3.59252
0
LINE
8
BLACK
6
CONTINUOUS
10
5.07126
20
-3.59252
11
5.07195
21
-3.59085
0
LINE
8
BLACK
6
CONTINUOUS
10
5.07195
20
-3.59085
11
5.07362
21
-3.59016
0
LINE
8
BLACK
6
CONTINUOUS
10
5.07362
20
-3.59016
11
5.07529
21
-3.59085
0
LINE
8
BLACK
6
CONTINUOUS
10
4.3245
20
-3.62313
11
4.3252
21
-3.6248
0
LINE
8
BLACK
6
CONTINUOUS
10
4.3252
20
-3.6248
11
4.3245
21
-3.62647
0
LINE
8
BLACK
6
CONTINUOUS
10
4.3245
20
-3.62647
11
4.32283
21
-3.62717
0
LINE
8
BLACK
6
CONTINUOUS
10
4.32283
20
-3.62717
11
4.24409
21
-3.62717
0
LINE
8
BLACK
6
CONTINUOUS
10
4.24409
20
-3.62717
11
4.24242
21
-3.62647
0
LINE
8
BLACK
6
CONTINUOUS
10
4.24242
20
-3.62647
11
4.24173
21
-3.6248
0
LINE
8
BLACK
6
CONTINUOUS
10
4.24173
20
-3.6248
11
4.24242
21
-3.62313
0
LINE
8
BLACK
6
CONTINUOUS
10
4.24242
20
-3.62313
11
4.24409
21
-3.62244
0
LINE
8
BLACK
6
CONTINUOUS
10
4.24409
20
-3.62244
11
4.32283
21
-3.62244
0
LINE
8
BLACK
6
CONTINUOUS
10
4.32283
20
-3.62244
11
4.3245
21
-3.62313
0
LINE
8
BLACK
6
CONTINUOUS
10
4.00561
20
-3.62313
11
4.0063
21
-3.6248
0
LINE
8
BLACK
6
CONTINUOUS
10
4.0063
20
-3.6248
11
4.00561
21
-3.62647
0
LINE
8
BLACK
6
CONTINUOUS
10
4.00561
20
-3.62647
11
4.00394
21
-3.62717
0
LINE
8
BLACK
6
CONTINUOUS
10
4.00394
20
-3.62717
11
3.9252
21
-3.62717
0
LINE
8
BLACK
6
CONTINUOUS
10
3.9252
20
-3.62717
11
3.92353
21
-3.62647
0
LINE
8
BLACK
6
CONTINUOUS
10
3.92353
20
-3.62647
11
3.92283
21
-3.6248
0
LINE
8
BLACK
6
CONTINUOUS
10
3.92283
20
-3.6248
11
3.92353
21
-3.62313
0
LINE
8
BLACK
6
CONTINUOUS
10
3.92353
20
-3.62313
11
3.9252
21
-3.62244
0
LINE
8
BLACK
6
CONTINUOUS
10
3.9252
20
-3.62244
11
4.00394
21
-3.62244
0
LINE
8
BLACK
6
CONTINUOUS
10
4.00394
20
-3.62244
11
4.00561
21
-3.62313
0
LINE
8
BLACK
6
CONTINUOUS
10
4.16506
20
-3.62313
11
4.16575
21
-3.6248
0
LINE
8
BLACK
6
CONTINUOUS
10
4.16575
20
-3.6248
11
4.16506
21
-3.62647
0
LINE
8
BLACK
6
CONTINUOUS
10
4.16506
20
-3.62647
11
4.16339
21
-3.62717
0
LINE
8
BLACK
6
CONTINUOUS
10
4.16339
20
-3.62717
11
4.08465
21
-3.62717
0
LINE
8
BLACK
6
CONTINUOUS
10
4.08465
20
-3.62717
11
4.08298
21
-3.62647
0
LINE
8
BLACK
6
CONTINUOUS
10
4.08298
20
-3.62647
11
4.08228
21
-3.6248
0
LINE
8
BLACK
6
CONTINUOUS
10
4.08228
20
-3.6248
11
4.08298
21
-3.62313
0
LINE
8
BLACK
6
CONTINUOUS
10
4.08298
20
-3.62313
11
4.08465
21
-3.62244
0
LINE
8
BLACK
6
CONTINUOUS
10
4.08465
20
-3.62244
11
4.16339
21
-3.62244
0
LINE
8
BLACK
6
CONTINUOUS
10
4.16339
20
-3.62244
11
4.16506
21
-3.62313
0
LINE
8
BLACK
6
CONTINUOUS
10
4.00561
20
-3.61565
11
4.0063
21
-3.61732
0
LINE
8
BLACK
6
CONTINUOUS
10
4.0063
20
-3.61732
11
4.00561
21
-3.61899
0
LINE
8
BLACK
6
CONTINUOUS
10
4.00561
20
-3.61899
11
4.00394
21
-3.61969
0
LINE
8
BLACK
6
CONTINUOUS
10
4.00394
20
-3.61969
11
3.9252
21
-3.61969
0
LINE
8
BLACK
6
CONTINUOUS
10
3.9252
20
-3.61969
11
3.92353
21
-3.61899
0
LINE
8
BLACK
6
CONTINUOUS
10
3.92353
20
-3.61899
11
3.92283
21
-3.61732
0
LINE
8
BLACK
6
CONTINUOUS
10
3.92283
20
-3.61732
11
3.92353
21
-3.61565
0
LINE
8
BLACK
6
CONTINUOUS
10
3.92353
20
-3.61565
11
3.9252
21
-3.61496
0
LINE
8
BLACK
6
CONTINUOUS
10
3.9252
20
-3.61496
11
4.00394
21
-3.61496
0
LINE
8
BLACK
6
CONTINUOUS
10
4.00394
20
-3.61496
11
4.00561
21
-3.61565
0
LINE
8
BLACK
6
CONTINUOUS
10
4.16506
20
-3.61565
11
4.16575
21
-3.61732
0
LINE
8
BLACK
6
CONTINUOUS
10
4.16575
20
-3.61732
11
4.16506
21
-3.61899
0
LINE
8
BLACK
6
CONTINUOUS
10
4.16506
20
-3.61899
11
4.16339
21
-3.61969
0
LINE
8
BLACK
6
CONTINUOUS
10
4.16339
20
-3.61969
11
4.08465
21
-3.61969
0
LINE
8
BLACK
6
CONTINUOUS
10
4.08465
20
-3.61969
11
4.08298
21
-3.61899
0
LINE
8
BLACK
6
CONTINUOUS
10
4.08298
20
-3.61899
11
4.08228
21
-3.61732
0
LINE
8
BLACK
6
CONTINUOUS
10
4.08228
20
-3.61732
11
4.08298
21
-3.61565
0
LINE
8
BLACK
6
CONTINUOUS
10
4.08298
20
-3.61565
11
4.08465
21
-3.61496
0
LINE
8
BLACK
6
CONTINUOUS
10
4.08465
20
-3.61496
11
4.16339
21
-3.61496
0
LINE
8
BLACK
6
CONTINUOUS
10
4.16339
20
-3.61496
11
4.16506
21
-3.61565
0
LINE
8
BLACK
6
CONTINUOUS
10
4.3245
20
-3.61565
11
4.3252
21
-3.61732
0
LINE
8
BLACK
6
CONTINUOUS
10
4.3252
20
-3.61732
11
4.3245
21
-3.61899
0
LINE
8
BLACK
6
CONTINUOUS
10
4.3245
20
-3.61899
11
4.32283
21
-3.61969
0
LINE
8
BLACK
6
CONTINUOUS
10
4.32283
20
-3.61969
11
4.24409
21
-3.61969
0
LINE
8
BLACK
6
CONTINUOUS
10
4.24409
20
-3.61969
11
4.24242
21
-3.61899
0
LINE
8
BLACK
6
CONTINUOUS
10
4.24242
20
-3.61899
11
4.24173
21
-3.61732
0
LINE
8
BLACK
6
CONTINUOUS
10
4.24173
20
-3.61732
11
4.24242
21
-3.61565
0
LINE
8
BLACK
6
CONTINUOUS
10
4.24242
20
-3.61565
11
4.24409
21
-3.61496
0
LINE
8
BLACK
6
CONTINUOUS
10
4.24409
20
-3.61496
11
4.32283
21
-3.61496
0
LINE
8
BLACK
6
CONTINUOUS
10
4.32283
20
-3.61496
11
4.3245
21
-3.61565
0
LINE
8
BLACK
6
CONTINUOUS
10
3.57844
20
-3.61053
11
3.57913
21
-3.6122
0
LINE
8
BLACK
6
CONTINUOUS
10
3.57913
20
-3.6122
11
3.57844
21
-3.61388
0
LINE
8
BLACK
6
CONTINUOUS
10
3.57844
20
-3.61388
11
3.57677
21
-3.61457
0
LINE
8
BLACK
6
CONTINUOUS
10
3.57677
20
-3.61457
11
3.54921
21
-3.61457
0
LINE
8
BLACK
6
CONTINUOUS
10
3.54921
20
-3.61457
11
3.54754
21
-3.61388
0
LINE
8
BLACK
6
CONTINUOUS
10
3.54754
20
-3.61388
11
3.54685
21
-3.6122
0
LINE
8
BLACK
6
CONTINUOUS
10
3.54685
20
-3.6122
11
3.54754
21
-3.61053
0
LINE
8
BLACK
6
CONTINUOUS
10
3.54754
20
-3.61053
11
3.54921
21
-3.60984
0
LINE
8
BLACK
6
CONTINUOUS
10
3.54921
20
-3.60984
11
3.57677
21
-3.60984
0
LINE
8
BLACK
6
CONTINUOUS
10
3.57677
20
-3.60984
11
3.57844
21
-3.61053
0
LINE
8
BLACK
6
CONTINUOUS
10
3.56821
20
-3.5355
11
3.5689
21
-3.5374
0
LINE
8
BLACK
6
CONTINUOUS
10
3.5689
20
-3.5374
11
3.5689
21
-3.57677
0
LINE
8
BLACK
6
CONTINUOUS
10
3.5689
20
-3.57677
11
3.56872
21
-3.57778
0
LINE
8
BLACK
6
CONTINUOUS
10
3.56872
20
-3.57778
11
3.56742
21
-3.57933
0
LINE
8
BLACK
6
CONTINUOUS
10
3.56742
20
-3.57933
11
3.56543
21
-3.57968
0
LINE
8
BLACK
6
CONTINUOUS
10
3.56543
20
-3.57968
11
3.56368
21
-3.57867
0
LINE
8
BLACK
6
CONTINUOUS
10
3.56368
20
-3.57867
11
3.56299
21
-3.57677
0
LINE
8
BLACK
6
CONTINUOUS
10
3.56299
20
-3.57677
11
3.56299
21
-3.5374
0
LINE
8
BLACK
6
CONTINUOUS
10
3.56299
20
-3.5374
11
3.56317
21
-3.53639
0
LINE
8
BLACK
6
CONTINUOUS
10
3.56317
20
-3.53639
11
3.56447
21
-3.53484
0
LINE
8
BLACK
6
CONTINUOUS
10
3.56447
20
-3.53484
11
3.56646
21
-3.53449
0
LINE
8
BLACK
6
CONTINUOUS
10
3.56646
20
-3.53449
11
3.56821
21
-3.5355
0
LINE
8
BLACK
6
CONTINUOUS
10
3.62136
20
-3.5355
11
3.62205
21
-3.5374
0
LINE
8
BLACK
6
CONTINUOUS
10
3.62205
20
-3.5374
11
3.62205
21
-3.57677
0
LINE
8
BLACK
6
CONTINUOUS
10
3.62205
20
-3.57677
11
3.62187
21
-3.57778
0
LINE
8
BLACK
6
CONTINUOUS
10
3.62187
20
-3.57778
11
3.62057
21
-3.57933
0
LINE
8
BLACK
6
CONTINUOUS
10
3.62057
20
-3.57933
11
3.61858
21
-3.57968
0
LINE
8
BLACK
6
CONTINUOUS
10
3.61858
20
-3.57968
11
3.61683
21
-3.57867
0
LINE
8
BLACK
6
CONTINUOUS
10
3.61683
20
-3.57867
11
3.61614
21
-3.57677
0
LINE
8
BLACK
6
CONTINUOUS
10
3.61614
20
-3.57677
11
3.61614
21
-3.5374
0
LINE
8
BLACK
6
CONTINUOUS
10
3.61614
20
-3.5374
11
3.61632
21
-3.53639
0
LINE
8
BLACK
6
CONTINUOUS
10
3.61632
20
-3.53639
11
3.61762
21
-3.53484
0
LINE
8
BLACK
6
CONTINUOUS
10
3.61762
20
-3.53484
11
3.61961
21
-3.53449
0
LINE
8
BLACK
6
CONTINUOUS
10
3.61961
20
-3.53449
11
3.62136
21
-3.5355
0
LINE
8
BLACK
6
CONTINUOUS
10
3.55876
20
-3.5377
11
3.55945
21
-3.53937
0
LINE
8
BLACK
6
CONTINUOUS
10
3.55945
20
-3.53937
11
3.55945
21
-3.56693
0
LINE
8
BLACK
6
CONTINUOUS
10
3.55945
20
-3.56693
11
3.55876
21
-3.5686
0
LINE
8
BLACK
6
CONTINUOUS
10
3.55876
20
-3.5686
11
3.55709
21
-3.56929
0
LINE
8
BLACK
6
CONTINUOUS
10
3.55709
20
-3.56929
11
3.55542
21
-3.5686
0
LINE
8
BLACK
6
CONTINUOUS
10
3.55542
20
-3.5686
11
3.55472
21
-3.56693
0
LINE
8
BLACK
6
CONTINUOUS
10
3.55472
20
-3.56693
11
3.55472
21
-3.53937
0
LINE
8
BLACK
6
CONTINUOUS
10
3.55472
20
-3.53937
11
3.55542
21
-3.5377
0
LINE
8
BLACK
6
CONTINUOUS
10
3.55542
20
-3.5377
11
3.55709
21
-3.53701
0
LINE
8
BLACK
6
CONTINUOUS
10
3.55709
20
-3.53701
11
3.55876
21
-3.5377
0
LINE
8
BLACK
6
CONTINUOUS
10
3.51151
20
-3.5377
11
3.5122
21
-3.53937
0
LINE
8
BLACK
6
CONTINUOUS
10
3.5122
20
-3.53937
11
3.5122
21
-3.56693
0
LINE
8
BLACK
6
CONTINUOUS
10
3.5122
20
-3.56693
11
3.51151
21
-3.5686
0
LINE
8
BLACK
6
CONTINUOUS
10
3.51151
20
-3.5686
11
3.50984
21
-3.56929
0
LINE
8
BLACK
6
CONTINUOUS
10
3.50984
20
-3.56929
11
3.50817
21
-3.5686
0
LINE
8
BLACK
6
CONTINUOUS
10
3.50817
20
-3.5686
11
3.50748
21
-3.56693
0
LINE
8
BLACK
6
CONTINUOUS
10
3.50748
20
-3.56693
11
3.50748
21
-3.53937
0
LINE
8
BLACK
6
CONTINUOUS
10
3.50748
20
-3.53937
11
3.50817
21
-3.5377
0
LINE
8
BLACK
6
CONTINUOUS
10
3.50817
20
-3.5377
11
3.50984
21
-3.53701
0
LINE
8
BLACK
6
CONTINUOUS
10
3.50984
20
-3.53701
11
3.51151
21
-3.5377
0
LINE
8
BLACK
6
CONTINUOUS
10
4.3245
20
-3.54636
11
4.3252
21
-3.54803
0
LINE
8
BLACK
6
CONTINUOUS
10
4.3252
20
-3.54803
11
4.3245
21
-3.5497
0
LINE
8
BLACK
6
CONTINUOUS
10
4.3245
20
-3.5497
11
4.32283
21
-3.55039
0
LINE
8
BLACK
6
CONTINUOUS
10
4.32283
20
-3.55039
11
4.24409
21
-3.55039
0
LINE
8
BLACK
6
CONTINUOUS
10
4.24409
20
-3.55039
11
4.24242
21
-3.5497
0
LINE
8
BLACK
6
CONTINUOUS
10
4.24242
20
-3.5497
11
4.24173
21
-3.54803
0
LINE
8
BLACK
6
CONTINUOUS
10
4.24173
20
-3.54803
11
4.24242
21
-3.54636
0
LINE
8
BLACK
6
CONTINUOUS
10
4.24242
20
-3.54636
11
4.24409
21
-3.54567
0
LINE
8
BLACK
6
CONTINUOUS
10
4.24409
20
-3.54567
11
4.32283
21
-3.54567
0
LINE
8
BLACK
6
CONTINUOUS
10
4.32283
20
-3.54567
11
4.3245
21
-3.54636
0
LINE
8
BLACK
6
CONTINUOUS
10
4.16506
20
-3.54636
11
4.16575
21
-3.54803
0
LINE
8
BLACK
6
CONTINUOUS
10
4.16575
20
-3.54803
11
4.16506
21
-3.5497
0
LINE
8
BLACK
6
CONTINUOUS
10
4.16506
20
-3.5497
11
4.16339
21
-3.55039
0
LINE
8
BLACK
6
CONTINUOUS
10
4.16339
20
-3.55039
11
4.08465
21
-3.55039
0
LINE
8
BLACK
6
CONTINUOUS
10
4.08465
20
-3.55039
11
4.08298
21
-3.5497
0
LINE
8
BLACK
6
CONTINUOUS
10
4.08298
20
-3.5497
11
4.08228
21
-3.54803
0
LINE
8
BLACK
6
CONTINUOUS
10
4.08228
20
-3.54803
11
4.08298
21
-3.54636
0
LINE
8
BLACK
6
CONTINUOUS
10
4.08298
20
-3.54636
11
4.08465
21
-3.54567
0
LINE
8
BLACK
6
CONTINUOUS
10
4.08465
20
-3.54567
11
4.16339
21
-3.54567
0
LINE
8
BLACK
6
CONTINUOUS
10
4.16339
20
-3.54567
11
4.16506
21
-3.54636
0
LINE
8
BLACK
6
CONTINUOUS
10
4.00561
20
-3.54636
11
4.0063
21
-3.54803
0
LINE
8
BLACK
6
CONTINUOUS
10
4.0063
20
-3.54803
11
4.00561
21
-3.5497
0
LINE
8
BLACK
6
CONTINUOUS
10
4.00561
20
-3.5497
11
4.00394
21
-3.55039
0
LINE
8
BLACK
6
CONTINUOUS
10
4.00394
20
-3.55039
11
3.9252
21
-3.55039
0
LINE
8
BLACK
6
CONTINUOUS
10
3.9252
20
-3.55039
11
3.92353
21
-3.5497
0
LINE
8
BLACK
6
CONTINUOUS
10
3.92353
20
-3.5497
11
3.92283
21
-3.54803
0
LINE
8
BLACK
6
CONTINUOUS
10
3.92283
20
-3.54803
11
3.92353
21
-3.54636
0
LINE
8
BLACK
6
CONTINUOUS
10
3.92353
20
-3.54636
11
3.9252
21
-3.54567
0
LINE
8
BLACK
6
CONTINUOUS
10
3.9252
20
-3.54567
11
4.00394
21
-3.54567
0
LINE
8
BLACK
6
CONTINUOUS
10
4.00394
20
-3.54567
11
4.00561
21
-3.54636
0
LINE
8
BLACK
6
CONTINUOUS
10
4.16506
20
-3.53888
11
4.16575
21
-3.54055
0
LINE
8
BLACK
6
CONTINUOUS
10
4.16575
20
-3.54055
11
4.16506
21
-3.54222
0
LINE
8
BLACK
6
CONTINUOUS
10
4.16506
20
-3.54222
11
4.16339
21
-3.54291
0
LINE
8
BLACK
6
CONTINUOUS
10
4.16339
20
-3.54291
11
4.08465
21
-3.54291
0
LINE
8
BLACK
6
CONTINUOUS
10
4.08465
20
-3.54291
11
4.08298
21
-3.54222
0
LINE
8
BLACK
6
CONTINUOUS
10
4.08298
20
-3.54222
11
4.08228
21
-3.54055
0
LINE
8
BLACK
6
CONTINUOUS
10
4.08228
20
-3.54055
11
4.08298
21
-3.53888
0
LINE
8
BLACK
6
CONTINUOUS
10
4.08298
20
-3.53888
11
4.08465
21
-3.53819
0
LINE
8
BLACK
6
CONTINUOUS
10
4.08465
20
-3.53819
11
4.16339
21
-3.53819
0
LINE
8
BLACK
6
CONTINUOUS
10
4.16339
20
-3.53819
11
4.16506
21
-3.53888
0
LINE
8
BLACK
6
CONTINUOUS
10
4.3245
20
-3.53888
11
4.3252
21
-3.54055
0
LINE
8
BLACK
6
CONTINUOUS
10
4.3252
20
-3.54055
11
4.3245
21
-3.54222
0
LINE
8
BLACK
6
CONTINUOUS
10
4.3245
20
-3.54222
11
4.32283
21
-3.54291
0
LINE
8
BLACK
6
CONTINUOUS
10
4.32283
20
-3.54291
11
4.24409
21
-3.54291
0
LINE
8
BLACK
6
CONTINUOUS
10
4.24409
20
-3.54291
11
4.24242
21
-3.54222
0
LINE
8
BLACK
6
CONTINUOUS
10
4.24242
20
-3.54222
11
4.24173
21
-3.54055
0
LINE
8
BLACK
6
CONTINUOUS
10
4.24173
20
-3.54055
11
4.24242
21
-3.53888
0
LINE
8
BLACK
6
CONTINUOUS
10
4.24242
20
-3.53888
11
4.24409
21
-3.53819
0
LINE
8
BLACK
6
CONTINUOUS
10
4.24409
20
-3.53819
11
4.32283
21
-3.53819
0
LINE
8
BLACK
6
CONTINUOUS
10
4.32283
20
-3.53819
11
4.3245
21
-3.53888
0
LINE
8
BLACK
6
CONTINUOUS
10
4.00561
20
-3.53888
11
4.0063
21
-3.54055
0
LINE
8
BLACK
6
CONTINUOUS
10
4.0063
20
-3.54055
11
4.00561
21
-3.54222
0
LINE
8
BLACK
6
CONTINUOUS
10
4.00561
20
-3.54222
11
4.00394
21
-3.54291
0
LINE
8
BLACK
6
CONTINUOUS
10
4.00394
20
-3.54291
11
3.9252
21
-3.54291
0
LINE
8
BLACK
6
CONTINUOUS
10
3.9252
20
-3.54291
11
3.92353
21
-3.54222
0
LINE
8
BLACK
6
CONTINUOUS
10
3.92353
20
-3.54222
11
3.92283
21
-3.54055
0
LINE
8
BLACK
6
CONTINUOUS
10
3.92283
20
-3.54055
11
3.92353
21
-3.53888
0
LINE
8
BLACK
6
CONTINUOUS
10
3.92353
20
-3.53888
11
3.9252
21
-3.53819
0
LINE
8
BLACK
6
CONTINUOUS
10
3.9252
20
-3.53819
11
4.00394
21
-3.53819
0
LINE
8
BLACK
6
CONTINUOUS
10
4.00394
20
-3.53819
11
4.00561
21
-3.53888
0
LINE
8
BLACK
6
CONTINUOUS
10
5.11978
20
-3.5192
11
5.12047
21
-3.52087
0
LINE
8
BLACK
6
CONTINUOUS
10
5.12047
20
-3.52087
11
5.11978
21
-3.52254
0
LINE
8
BLACK
6
CONTINUOUS
10
5.11978
20
-3.52254
11
5.11811
21
-3.52323
0
LINE
8
BLACK
6
CONTINUOUS
10
5.11811
20
-3.52323
11
5.07874
21
-3.52323
0
LINE
8
BLACK
6
CONTINUOUS
10
5.07874
20
-3.52323
11
5.07707
21
-3.52254
0
LINE
8
BLACK
6
CONTINUOUS
10
5.07707
20
-3.52254
11
5.07638
21
-3.52087
0
LINE
8
BLACK
6
CONTINUOUS
10
5.07638
20
-3.52087
11
5.07707
21
-3.5192
0
LINE
8
BLACK
6
CONTINUOUS
10
5.07707
20
-3.5192
11
5.07874
21
-3.5185
0
LINE
8
BLACK
6
CONTINUOUS
10
5.07874
20
-3.5185
11
5.11811
21
-3.5185
0
LINE
8
BLACK
6
CONTINUOUS
10
5.11811
20
-3.5185
11
5.11978
21
-3.5192
0
LINE
8
BLACK
6
CONTINUOUS
10
3.5745
20
-3.47864
11
3.5752
21
-3.48031
0
LINE
8
BLACK
6
CONTINUOUS
10
3.5752
20
-3.48031
11
3.5745
21
-3.48199
0
LINE
8
BLACK
6
CONTINUOUS
10
3.5745
20
-3.48199
11
3.57283
21
-3.48268
0
LINE
8
BLACK
6
CONTINUOUS
10
3.57283
20
-3.48268
11
3.54528
21
-3.48268
0
LINE
8
BLACK
6
CONTINUOUS
10
3.54528
20
-3.48268
11
3.54361
21
-3.48199
0
LINE
8
BLACK
6
CONTINUOUS
10
3.54361
20
-3.48199
11
3.54291
21
-3.48031
0
LINE
8
BLACK
6
CONTINUOUS
10
3.54291
20
-3.48031
11
3.54361
21
-3.47864
0
LINE
8
BLACK
6
CONTINUOUS
10
3.54361
20
-3.47864
11
3.54528
21
-3.47795
0
LINE
8
BLACK
6
CONTINUOUS
10
3.54528
20
-3.47795
11
3.57283
21
-3.47795
0
LINE
8
BLACK
6
CONTINUOUS
10
3.57283
20
-3.47795
11
3.5745
21
-3.47864
0
LINE
8
BLACK
6
CONTINUOUS
10
3.64135
20
-3.47729
11
3.64122
21
-3.47732
0
LINE
8
BLACK
6
CONTINUOUS
10
3.64122
20
-3.47732
11
3.64111
21
-3.47725
0
LINE
8
BLACK
6
CONTINUOUS
10
3.64111
20
-3.47725
11
3.64072
21
-3.47718
0
LINE
8
BLACK
6
CONTINUOUS
10
3.64072
20
-3.47718
11
3.64013
21
-3.47669
0
LINE
8
BLACK
6
CONTINUOUS
10
3.64013
20
-3.47669
11
3.63947
21
-3.47631
0
LINE
8
BLACK
6
CONTINUOUS
10
3.63947
20
-3.47631
11
3.63938
21
-3.47606
0
LINE
8
BLACK
6
CONTINUOUS
10
3.63938
20
-3.47606
11
3.63918
21
-3.47589
0
LINE
8
BLACK
6
CONTINUOUS
10
3.63918
20
-3.47589
11
3.63904
21
-3.47513
0
LINE
8
BLACK
6
CONTINUOUS
10
3.63904
20
-3.47513
11
3.63878
21
-3.47441
0
LINE
8
BLACK
6
CONTINUOUS
10
3.63878
20
-3.47441
11
3.63878
21
-3.31693
0
LINE
8
BLACK
6
CONTINUOUS
10
3.63878
20
-3.31693
11
3.63885
21
-3.31655
0
LINE
8
BLACK
6
CONTINUOUS
10
3.63885
20
-3.31655
11
3.63882
21
-3.31642
0
LINE
8
BLACK
6
CONTINUOUS
10
3.63882
20
-3.31642
11
3.63889
21
-3.3163
0
LINE
8
BLACK
6
CONTINUOUS
10
3.63889
20
-3.3163
11
3.63896
21
-3.31592
0
LINE
8
BLACK
6
CONTINUOUS
10
3.63896
20
-3.31592
11
3.63945
21
-3.31533
0
LINE
8
BLACK
6
CONTINUOUS
10
3.63945
20
-3.31533
11
3.63983
21
-3.31467
0
LINE
8
BLACK
6
CONTINUOUS
10
3.63983
20
-3.31467
11
3.64008
21
-3.31458
0
LINE
8
BLACK
6
CONTINUOUS
10
3.64008
20
-3.31458
11
3.64026
21
-3.31437
0
LINE
8
BLACK
6
CONTINUOUS
10
3.64026
20
-3.31437
11
3.64101
21
-3.31424
0
LINE
8
BLACK
6
CONTINUOUS
10
3.64101
20
-3.31424
11
3.64173
21
-3.31398
0
LINE
8
BLACK
6
CONTINUOUS
10
3.64173
20
-3.31398
11
3.79921
21
-3.31398
0
LINE
8
BLACK
6
CONTINUOUS
10
3.79921
20
-3.31398
11
3.7996
21
-3.31404
0
LINE
8
BLACK
6
CONTINUOUS
10
3.7996
20
-3.31404
11
3.79973
21
-3.31402
0
LINE
8
BLACK
6
CONTINUOUS
10
3.79973
20
-3.31402
11
3.79984
21
-3.31409
0
LINE
8
BLACK
6
CONTINUOUS
10
3.79984
20
-3.31409
11
3.80022
21
-3.31415
0
LINE
8
BLACK
6
CONTINUOUS
10
3.80022
20
-3.31415
11
3.80081
21
-3.31465
0
LINE
8
BLACK
6
CONTINUOUS
10
3.80081
20
-3.31465
11
3.80147
21
-3.31503
0
LINE
8
BLACK
6
CONTINUOUS
10
3.80147
20
-3.31503
11
3.80157
21
-3.31528
0
LINE
8
BLACK
6
CONTINUOUS
10
3.80157
20
-3.31528
11
3.80177
21
-3.31545
0
LINE
8
BLACK
6
CONTINUOUS
10
3.80177
20
-3.31545
11
3.8019
21
-3.31621
0
LINE
8
BLACK
6
CONTINUOUS
10
3.8019
20
-3.31621
11
3.80217
21
-3.31693
0
LINE
8
BLACK
6
CONTINUOUS
10
3.80217
20
-3.31693
11
3.80217
21
-3.47441
0
LINE
8
BLACK
6
CONTINUOUS
10
3.80217
20
-3.47441
11
3.8021
21
-3.47479
0
LINE
8
BLACK
6
CONTINUOUS
10
3.8021
20
-3.47479
11
3.80212
21
-3.47492
0
LINE
8
BLACK
6
CONTINUOUS
10
3.80212
20
-3.47492
11
3.80205
21
-3.47504
0
LINE
8
BLACK
6
CONTINUOUS
10
3.80205
20
-3.47504
11
3.80199
21
-3.47542
0
LINE
8
BLACK
6
CONTINUOUS
10
3.80199
20
-3.47542
11
3.80149
21
-3.47601
0
LINE
8
BLACK
6
CONTINUOUS
10
3.80149
20
-3.47601
11
3.80111
21
-3.47667
0
LINE
8
BLACK
6
CONTINUOUS
10
3.80111
20
-3.47667
11
3.80086
21
-3.47676
0
LINE
8
BLACK
6
CONTINUOUS
10
3.80086
20
-3.47676
11
3.80069
21
-3.47697
0
LINE
8
BLACK
6
CONTINUOUS
10
3.80069
20
-3.47697
11
3.79993
21
-3.4771
0
LINE
8
BLACK
6
CONTINUOUS
10
3.79993
20
-3.4771
11
3.79921
21
-3.47736
0
LINE
8
BLACK
6
CONTINUOUS
10
3.79921
20
-3.47736
11
3.64173
21
-3.47736
0
LINE
8
BLACK
6
CONTINUOUS
10
3.64173
20
-3.47736
11
3.64135
21
-3.47729
0
LINE
8
BLACK
6
CONTINUOUS
10
3.64469
20
-3.31988
11
3.64469
21
-3.45744
0
LINE
8
BLACK
6
CONTINUOUS
10
3.64469
20
-3.45744
11
3.6587
21
-3.47146
0
LINE
8
BLACK
6
CONTINUOUS
10
3.6587
20
-3.47146
11
3.79626
21
-3.47146
0
LINE
8
BLACK
6
CONTINUOUS
10
3.79626
20
-3.47146
11
3.79626
21
-3.31988
0
LINE
8
BLACK
6
CONTINUOUS
10
3.79626
20
-3.31988
11
3.64469
21
-3.31988
0
LINE
8
BLACK
6
CONTINUOUS
10
4.00561
20
-3.46959
11
4.0063
21
-3.47126
0
LINE
8
BLACK
6
CONTINUOUS
10
4.0063
20
-3.47126
11
4.00561
21
-3.47293
0
LINE
8
BLACK
6
CONTINUOUS
10
4.00561
20
-3.47293
11
4.00394
21
-3.47362
0
LINE
8
BLACK
6
CONTINUOUS
10
4.00394
20
-3.47362
11
3.9252
21
-3.47362
0
LINE
8
BLACK
6
CONTINUOUS
10
3.9252
20
-3.47362
11
3.92353
21
-3.47293
0
LINE
8
BLACK
6
CONTINUOUS
10
3.92353
20
-3.47293
11
3.92283
21
-3.47126
0
LINE
8
BLACK
6
CONTINUOUS
10
3.92283
20
-3.47126
11
3.92353
21
-3.46959
0
LINE
8
BLACK
6
CONTINUOUS
10
3.92353
20
-3.46959
11
3.9252
21
-3.4689
0
LINE
8
BLACK
6
CONTINUOUS
10
3.9252
20
-3.4689
11
4.00394
21
-3.4689
0
LINE
8
BLACK
6
CONTINUOUS
10
4.00394
20
-3.4689
11
4.00561
21
-3.46959
0
LINE
8
BLACK
6
CONTINUOUS
10
4.16506
20
-3.46959
11
4.16575
21
-3.47126
0
LINE
8
BLACK
6
CONTINUOUS
10
4.16575
20
-3.47126
11
4.16506
21
-3.47293
0
LINE
8
BLACK
6
CONTINUOUS
10
4.16506
20
-3.47293
11
4.16339
21
-3.47362
0
LINE
8
BLACK
6
CONTINUOUS
10
4.16339
20
-3.47362
11
4.08465
21
-3.47362
0
LINE
8
BLACK
6
CONTINUOUS
10
4.08465
20
-3.47362
11
4.08298
21
-3.47293
0
LINE
8
BLACK
6
CONTINUOUS
10
4.08298
20
-3.47293
11
4.08228
21
-3.47126
0
LINE
8
BLACK
6
CONTINUOUS
10
4.08228
20
-3.47126
11
4.08298
21
-3.46959
0
LINE
8
BLACK
6
CONTINUOUS
10
4.08298
20
-3.46959
11
4.08465
21
-3.4689
0
LINE
8
BLACK
6
CONTINUOUS
10
4.08465
20
-3.4689
11
4.16339
21
-3.4689
0
LINE
8
BLACK
6
CONTINUOUS
10
4.16339
20
-3.4689
11
4.16506
21
-3.46959
0
LINE
8
BLACK
6
CONTINUOUS
10
4.3245
20
-3.46959
11
4.3252
21
-3.47126
0
LINE
8
BLACK
6
CONTINUOUS
10
4.3252
20
-3.47126
11
4.3245
21
-3.47293
0
LINE
8
BLACK
6
CONTINUOUS
10
4.3245
20
-3.47293
11
4.32283
21
-3.47362
0
LINE
8
BLACK
6
CONTINUOUS
10
4.32283
20
-3.47362
11
4.24409
21
-3.47362
0
LINE
8
BLACK
6
CONTINUOUS
10
4.24409
20
-3.47362
11
4.24242
21
-3.47293
0
LINE
8
BLACK
6
CONTINUOUS
10
4.24242
20
-3.47293
11
4.24173
21
-3.47126
0
LINE
8
BLACK
6
CONTINUOUS
10
4.24173
20
-3.47126
11
4.24242
21
-3.46959
0
LINE
8
BLACK
6
CONTINUOUS
10
4.24242
20
-3.46959
11
4.24409
21
-3.4689
0
LINE
8
BLACK
6
CONTINUOUS
10
4.24409
20
-3.4689
11
4.32283
21
-3.4689
0
LINE
8
BLACK
6
CONTINUOUS
10
4.32283
20
-3.4689
11
4.3245
21
-3.46959
0
LINE
8
BLACK
6
CONTINUOUS
10
5.11978
20
-3.46565
11
5.12047
21
-3.46732
0
LINE
8
BLACK
6
CONTINUOUS
10
5.12047
20
-3.46732
11
5.11978
21
-3.46899
0
LINE
8
BLACK
6
CONTINUOUS
10
5.11978
20
-3.46899
11
5.11811
21
-3.46969
0
LINE
8
BLACK
6
CONTINUOUS
10
5.11811
20
-3.46969
11
5.07874
21
-3.46969
0
LINE
8
BLACK
6
CONTINUOUS
10
5.07874
20
-3.46969
11
5.07707
21
-3.46899
0
LINE
8
BLACK
6
CONTINUOUS
10
5.07707
20
-3.46899
11
5.07638
21
-3.46732
0
LINE
8
BLACK
6
CONTINUOUS
10
5.07638
20
-3.46732
11
5.07707
21
-3.46565
0
LINE
8
BLACK
6
CONTINUOUS
10
5.07707
20
-3.46565
11
5.07874
21
-3.46496
0
LINE
8
BLACK
6
CONTINUOUS
10
5.07874
20
-3.46496
11
5.11811
21
-3.46496
0
LINE
8
BLACK
6
CONTINUOUS
10
5.11811
20
-3.46496
11
5.11978
21
-3.46565
0
LINE
8
BLACK
6
CONTINUOUS
10
4.00561
20
-3.46211
11
4.0063
21
-3.46378
0
LINE
8
BLACK
6
CONTINUOUS
10
4.0063
20
-3.46378
11
4.00561
21
-3.46545
0
LINE
8
BLACK
6
CONTINUOUS
10
4.00561
20
-3.46545
11
4.00394
21
-3.46614
0
LINE
8
BLACK
6
CONTINUOUS
10
4.00394
20
-3.46614
11
3.9252
21
-3.46614
0
LINE
8
BLACK
6
CONTINUOUS
10
3.9252
20
-3.46614
11
3.92353
21
-3.46545
0
LINE
8
BLACK
6
CONTINUOUS
10
3.92353
20
-3.46545
11
3.92283
21
-3.46378
0
LINE
8
BLACK
6
CONTINUOUS
10
3.92283
20
-3.46378
11
3.92353
21
-3.46211
0
LINE
8
BLACK
6
CONTINUOUS
10
3.92353
20
-3.46211
11
3.9252
21
-3.46142
0
LINE
8
BLACK
6
CONTINUOUS
10
3.9252
20
-3.46142
11
4.00394
21
-3.46142
0
LINE
8
BLACK
6
CONTINUOUS
10
4.00394
20
-3.46142
11
4.00561
21
-3.46211
0
LINE
8
BLACK
6
CONTINUOUS
10
4.16506
20
-3.46211
11
4.16575
21
-3.46378
0
LINE
8
BLACK
6
CONTINUOUS
10
4.16575
20
-3.46378
11
4.16506
21
-3.46545
0
LINE
8
BLACK
6
CONTINUOUS
10
4.16506
20
-3.46545
11
4.16339
21
-3.46614
0
LINE
8
BLACK
6
CONTINUOUS
10
4.16339
20
-3.46614
11
4.08465
21
-3.46614
0
LINE
8
BLACK
6
CONTINUOUS
10
4.08465
20
-3.46614
11
4.08298
21
-3.46545
0
LINE
8
BLACK
6
CONTINUOUS
10
4.08298
20
-3.46545
11
4.08228
21
-3.46378
0
LINE
8
BLACK
6
CONTINUOUS
10
4.08228
20
-3.46378
11
4.08298
21
-3.46211
0
LINE
8
BLACK
6
CONTINUOUS
10
4.08298
20
-3.46211
11
4.08465
21
-3.46142
0
LINE
8
BLACK
6
CONTINUOUS
10
4.08465
20
-3.46142
11
4.16339
21
-3.46142
0
LINE
8
BLACK
6
CONTINUOUS
10
4.16339
20
-3.46142
11
4.16506
21
-3.46211
0
LINE
8
BLACK
6
CONTINUOUS
10
4.3245
20
-3.46211
11
4.3252
21
-3.46378
0
LINE
8
BLACK
6
CONTINUOUS
10
4.3252
20
-3.46378
11
4.3245
21
-3.46545
0
LINE
8
BLACK
6
CONTINUOUS
10
4.3245
20
-3.46545
11
4.32283
21
-3.46614
0
LINE
8
BLACK
6
CONTINUOUS
10
4.32283
20
-3.46614
11
4.24409
21
-3.46614
0
LINE
8
BLACK
6
CONTINUOUS
10
4.24409
20
-3.46614
11
4.24242
21
-3.46545
0
LINE
8
BLACK
6
CONTINUOUS
10
4.24242
20
-3.46545
11
4.24173
21
-3.46378
0
LINE
8
BLACK
6
CONTINUOUS
10
4.24173
20
-3.46378
11
4.24242
21
-3.46211
0
LINE
8
BLACK
6
CONTINUOUS
10
4.24242
20
-3.46211
11
4.24409
21
-3.46142
0
LINE
8
BLACK
6
CONTINUOUS
10
4.24409
20
-3.46142
11
4.32283
21
-3.46142
0
LINE
8
BLACK
6
CONTINUOUS
10
4.32283
20
-3.46142
11
4.3245
21
-3.46211
0
LINE
8
BLACK
6
CONTINUOUS
10
3.82411
20
-3.41936
11
3.8248
21
-3.42126
0
LINE
8
BLACK
6
CONTINUOUS
10
3.8248
20
-3.42126
11
3.8248
21
-3.46063
0
LINE
8
BLACK
6
CONTINUOUS
10
3.8248
20
-3.46063
11
3.82463
21
-3.46164
0
LINE
8
BLACK
6
CONTINUOUS
10
3.82463
20
-3.46164
11
3.82333
21
-3.46319
0
LINE
8
BLACK
6
CONTINUOUS
10
3.82333
20
-3.46319
11
3.82134
21
-3.46354
0
LINE
8
BLACK
6
CONTINUOUS
10
3.82134
20
-3.46354
11
3.81959
21
-3.46253
0
LINE
8
BLACK
6
CONTINUOUS
10
3.81959
20
-3.46253
11
3.8189
21
-3.46063
0
LINE
8
BLACK
6
CONTINUOUS
10
3.8189
20
-3.46063
11
3.8189
21
-3.42126
0
LINE
8
BLACK
6
CONTINUOUS
10
3.8189
20
-3.42126
11
3.81908
21
-3.42025
0
LINE
8
BLACK
6
CONTINUOUS
10
3.81908
20
-3.42025
11
3.82037
21
-3.4187
0
LINE
8
BLACK
6
CONTINUOUS
10
3.82037
20
-3.4187
11
3.82236
21
-3.41835
0
LINE
8
BLACK
6
CONTINUOUS
10
3.82236
20
-3.41835
11
3.82411
21
-3.41936
0
LINE
8
BLACK
6
CONTINUOUS
10
3.87726
20
-3.41936
11
3.87795
21
-3.42126
0
LINE
8
BLACK
6
CONTINUOUS
10
3.87795
20
-3.42126
11
3.87795
21
-3.46063
0
LINE
8
BLACK
6
CONTINUOUS
10
3.87795
20
-3.46063
11
3.87777
21
-3.46164
0
LINE
8
BLACK
6
CONTINUOUS
10
3.87777
20
-3.46164
11
3.87648
21
-3.46319
0
LINE
8
BLACK
6
CONTINUOUS
10
3.87648
20
-3.46319
11
3.87449
21
-3.46354
0
LINE
8
BLACK
6
CONTINUOUS
10
3.87449
20
-3.46354
11
3.87274
21
-3.46253
0
LINE
8
BLACK
6
CONTINUOUS
10
3.87274
20
-3.46253
11
3.87205
21
-3.46063
0
LINE
8
BLACK
6
CONTINUOUS
10
3.87205
20
-3.46063
11
3.87205
21
-3.42126
0
LINE
8
BLACK
6
CONTINUOUS
10
3.87205
20
-3.42126
11
3.87223
21
-3.42025
0
LINE
8
BLACK
6
CONTINUOUS
10
3.87223
20
-3.42025
11
3.87352
21
-3.4187
0
LINE
8
BLACK
6
CONTINUOUS
10
3.87352
20
-3.4187
11
3.87551
21
-3.41835
0
LINE
8
BLACK
6
CONTINUOUS
10
3.87551
20
-3.41835
11
3.87726
21
-3.41936
0
LINE
8
BLACK
6
CONTINUOUS
10
5.11978
20
-3.45817
11
5.12047
21
-3.45984
0
LINE
8
BLACK
6
CONTINUOUS
10
5.12047
20
-3.45984
11
5.11978
21
-3.46151
0
LINE
8
BLACK
6
CONTINUOUS
10
5.11978
20
-3.46151
11
5.11811
21
-3.4622
0
LINE
8
BLACK
6
CONTINUOUS
10
5.11811
20
-3.4622
11
5.07874
21
-3.4622
0
LINE
8
BLACK
6
CONTINUOUS
10
5.07874
20
-3.4622
11
5.07707
21
-3.46151
0
LINE
8
BLACK
6
CONTINUOUS
10
5.07707
20
-3.46151
11
5.07638
21
-3.45984
0
LINE
8
BLACK
6
CONTINUOUS
10
5.07638
20
-3.45984
11
5.07707
21
-3.45817
0
LINE
8
BLACK
6
CONTINUOUS
10
5.07707
20
-3.45817
11
5.07874
21
-3.45748
0
LINE
8
BLACK
6
CONTINUOUS
10
5.07874
20
-3.45748
11
5.11811
21
-3.45748
0
LINE
8
BLACK
6
CONTINUOUS
10
5.11811
20
-3.45748
11
5.11978
21
-3.45817
0
LINE
8
BLACK
6
CONTINUOUS
10
3.23857
20
-3.45415
11
3.23799
21
-3.45276
0
LINE
8
BLACK
6
CONTINUOUS
10
3.23799
20
-3.45276
11
3.23799
21
-3.25591
0
LINE
8
BLACK
6
CONTINUOUS
10
3.23799
20
-3.25591
11
3.23857
21
-3.25451
0
LINE
8
BLACK
6
CONTINUOUS
10
3.23857
20
-3.25451
11
3.23996
21
-3.25394
0
LINE
8
BLACK
6
CONTINUOUS
10
3.23996
20
-3.25394
11
3.47618
21
-3.25394
0
LINE
8
BLACK
6
CONTINUOUS
10
3.47618
20
-3.25394
11
3.47757
21
-3.25451
0
LINE
8
BLACK
6
CONTINUOUS
10
3.47757
20
-3.25451
11
3.47815
21
-3.25591
0
LINE
8
BLACK
6
CONTINUOUS
10
3.47815
20
-3.25591
11
3.47815
21
-3.45276
0
LINE
8
BLACK
6
CONTINUOUS
10
3.47815
20
-3.45276
11
3.47757
21
-3.45415
0
LINE
8
BLACK
6
CONTINUOUS
10
3.47757
20
-3.45415
11
3.47618
21
-3.45472
0
LINE
8
BLACK
6
CONTINUOUS
10
3.47618
20
-3.45472
11
3.23996
21
-3.45472
0
LINE
8
BLACK
6
CONTINUOUS
10
3.23996
20
-3.45472
11
3.23857
21
-3.45415
0
LINE
8
BLACK
6
CONTINUOUS
10
3.24193
20
-3.25787
11
3.24193
21
-3.45079
0
LINE
8
BLACK
6
CONTINUOUS
10
3.24193
20
-3.45079
11
3.47421
21
-3.45079
0
LINE
8
BLACK
6
CONTINUOUS
10
3.47421
20
-3.45079
11
3.47421
21
-3.25787
0
LINE
8
BLACK
6
CONTINUOUS
10
3.47421
20
-3.25787
11
3.24193
21
-3.25787
0
LINE
8
BLACK
6
CONTINUOUS
10
3.07912
20
-3.27271
11
3.07925
21
-3.27268
0
LINE
8
BLACK
6
CONTINUOUS
10
3.07925
20
-3.27268
11
3.07937
21
-3.27275
0
LINE
8
BLACK
6
CONTINUOUS
10
3.07937
20
-3.27275
11
3.07975
21
-3.27282
0
LINE
8
BLACK
6
CONTINUOUS
10
3.07975
20
-3.27282
11
3.08034
21
-3.27331
0
LINE
8
BLACK
6
CONTINUOUS
10
3.08034
20
-3.27331
11
3.081
21
-3.27369
0
LINE
8
BLACK
6
CONTINUOUS
10
3.081
20
-3.27369
11
3.08109
21
-3.27394
0
LINE
8
BLACK
6
CONTINUOUS
10
3.08109
20
-3.27394
11
3.0813
21
-3.27411
0
LINE
8
BLACK
6
CONTINUOUS
10
3.0813
20
-3.27411
11
3.08143
21
-3.27487
0
LINE
8
BLACK
6
CONTINUOUS
10
3.08143
20
-3.27487
11
3.08169
21
-3.27559
0
LINE
8
BLACK
6
CONTINUOUS
10
3.08169
20
-3.27559
11
3.08169
21
-3.43307
0
LINE
8
BLACK
6
CONTINUOUS
10
3.08169
20
-3.43307
11
3.08163
21
-3.43345
0
LINE
8
BLACK
6
CONTINUOUS
10
3.08163
20
-3.43345
11
3.08165
21
-3.43358
0
LINE
8
BLACK
6
CONTINUOUS
10
3.08165
20
-3.43358
11
3.08158
21
-3.4337
0
LINE
8
BLACK
6
CONTINUOUS
10
3.08158
20
-3.4337
11
3.08151
21
-3.43408
0
LINE
8
BLACK
6
CONTINUOUS
10
3.08151
20
-3.43408
11
3.08102
21
-3.43467
0
LINE
8
BLACK
6
CONTINUOUS
10
3.08102
20
-3.43467
11
3.08064
21
-3.43533
0
LINE
8
BLACK
6
CONTINUOUS
10
3.08064
20
-3.43533
11
3.08039
21
-3.43542
0
LINE
8
BLACK
6
CONTINUOUS
10
3.08039
20
-3.43542
11
3.08022
21
-3.43563
0
LINE
8
BLACK
6
CONTINUOUS
10
3.08022
20
-3.43563
11
3.07946
21
-3.43576
0
LINE
8
BLACK
6
CONTINUOUS
10
3.07946
20
-3.43576
11
3.07874
21
-3.43602
0
LINE
8
BLACK
6
CONTINUOUS
10
3.07874
20
-3.43602
11
2.82677
21
-3.43602
0
LINE
8
BLACK
6
CONTINUOUS
10
2.82677
20
-3.43602
11
2.82639
21
-3.43596
0
LINE
8
BLACK
6
CONTINUOUS
10
2.82639
20
-3.43596
11
2.82626
21
-3.43598
0
LINE
8
BLACK
6
CONTINUOUS
10
2.82626
20
-3.43598
11
2.82615
21
-3.43591
0
LINE
8
BLACK
6
CONTINUOUS
10
2.82615
20
-3.43591
11
2.82576
21
-3.43585
0
LINE
8
BLACK
6
CONTINUOUS
10
2.82576
20
-3.43585
11
2.82517
21
-3.43535
0
LINE
8
BLACK
6
CONTINUOUS
10
2.82517
20
-3.43535
11
2.82451
21
-3.43497
0
LINE
8
BLACK
6
CONTINUOUS
10
2.82451
20
-3.43497
11
2.82442
21
-3.43472
0
LINE
8
BLACK
6
CONTINUOUS
10
2.82442
20
-3.43472
11
2.82421
21
-3.43455
0
LINE
8
BLACK
6
CONTINUOUS
10
2.82421
20
-3.43455
11
2.82408
21
-3.43379
0
LINE
8
BLACK
6
CONTINUOUS
10
2.82408
20
-3.43379
11
2.82382
21
-3.43307
0
LINE
8
BLACK
6
CONTINUOUS
10
2.82382
20
-3.43307
11
2.82382
21
-3.27559
0
LINE
8
BLACK
6
CONTINUOUS
10
2.82382
20
-3.27559
11
2.82389
21
-3.27521
0
LINE
8
BLACK
6
CONTINUOUS
10
2.82389
20
-3.27521
11
2.82386
21
-3.27508
0
LINE
8
BLACK
6
CONTINUOUS
10
2.82386
20
-3.27508
11
2.82393
21
-3.27496
0
LINE
8
BLACK
6
CONTINUOUS
10
2.82393
20
-3.27496
11
2.824
21
-3.27458
0
LINE
8
BLACK
6
CONTINUOUS
10
2.824
20
-3.27458
11
2.82449
21
-3.27399
0
LINE
8
BLACK
6
CONTINUOUS
10
2.82449
20
-3.27399
11
2.82487
21
-3.27333
0
LINE
8
BLACK
6
CONTINUOUS
10
2.82487
20
-3.27333
11
2.82512
21
-3.27324
0
LINE
8
BLACK
6
CONTINUOUS
10
2.82512
20
-3.27324
11
2.8253
21
-3.27303
0
LINE
8
BLACK
6
CONTINUOUS
10
2.8253
20
-3.27303
11
2.82605
21
-3.2729
0
LINE
8
BLACK
6
CONTINUOUS
10
2.82605
20
-3.2729
11
2.82677
21
-3.27264
0
LINE
8
BLACK
6
CONTINUOUS
10
2.82677
20
-3.27264
11
3.07874
21
-3.27264
0
LINE
8
BLACK
6
CONTINUOUS
10
3.07874
20
-3.27264
11
3.07912
21
-3.27271
0
LINE
8
BLACK
6
CONTINUOUS
10
2.82972
20
-3.27854
11
2.82972
21
-3.43012
0
LINE
8
BLACK
6
CONTINUOUS
10
2.82972
20
-3.43012
11
3.07579
21
-3.43012
0
LINE
8
BLACK
6
CONTINUOUS
10
3.07579
20
-3.43012
11
3.07579
21
-3.27854
0
LINE
8
BLACK
6
CONTINUOUS
10
3.07579
20
-3.27854
11
2.82972
21
-3.27854
0
LINE
8
BLACK
6
CONTINUOUS
10
3.5745
20
-3.4314
11
3.5752
21
-3.43307
0
LINE
8
BLACK
6
CONTINUOUS
10
3.5752
20
-3.43307
11
3.5745
21
-3.43474
0
LINE
8
BLACK
6
CONTINUOUS
10
3.5745
20
-3.43474
11
3.57283
21
-3.43543
0
LINE
8
BLACK
6
CONTINUOUS
10
3.57283
20
-3.43543
11
3.54528
21
-3.43543
0
LINE
8
BLACK
6
CONTINUOUS
10
3.54528
20
-3.43543
11
3.54361
21
-3.43474
0
LINE
8
BLACK
6
CONTINUOUS
10
3.54361
20
-3.43474
11
3.54291
21
-3.43307
0
LINE
8
BLACK
6
CONTINUOUS
10
3.54291
20
-3.43307
11
3.54361
21
-3.4314
0
LINE
8
BLACK
6
CONTINUOUS
10
3.54361
20
-3.4314
11
3.54528
21
-3.43071
0
LINE
8
BLACK
6
CONTINUOUS
10
3.54528
20
-3.43071
11
3.57283
21
-3.43071
0
LINE
8
BLACK
6
CONTINUOUS
10
3.57283
20
-3.43071
11
3.5745
21
-3.4314
0
LINE
8
BLACK
6
CONTINUOUS
10
5.11978
20
-3.40463
11
5.12047
21
-3.4063
0
LINE
8
BLACK
6
CONTINUOUS
10
5.12047
20
-3.4063
11
5.11978
21
-3.40797
0
LINE
8
BLACK
6
CONTINUOUS
10
5.11978
20
-3.40797
11
5.11811
21
-3.40866
0
LINE
8
BLACK
6
CONTINUOUS
10
5.11811
20
-3.40866
11
5.07874
21
-3.40866
0
LINE
8
BLACK
6
CONTINUOUS
10
5.07874
20
-3.40866
11
5.07707
21
-3.40797
0
LINE
8
BLACK
6
CONTINUOUS
10
5.07707
20
-3.40797
11
5.07638
21
-3.4063
0
LINE
8
BLACK
6
CONTINUOUS
10
5.07638
20
-3.4063
11
5.07707
21
-3.40463
0
LINE
8
BLACK
6
CONTINUOUS
10
5.07707
20
-3.40463
11
5.07874
21
-3.40394
0
LINE
8
BLACK
6
CONTINUOUS
10
5.07874
20
-3.40394
11
5.11811
21
-3.40394
0
LINE
8
BLACK
6
CONTINUOUS
10
5.11811
20
-3.40394
11
5.11978
21
-3.40463
0
LINE
8
BLACK
6
CONTINUOUS
10
3.56821
20
-3.35637
11
3.5689
21
-3.35827
0
LINE
8
BLACK
6
CONTINUOUS
10
3.5689
20
-3.35827
11
3.5689
21
-3.39764
0
LINE
8
BLACK
6
CONTINUOUS
10
3.5689
20
-3.39764
11
3.56872
21
-3.39865
0
LINE
8
BLACK
6
CONTINUOUS
10
3.56872
20
-3.39865
11
3.56742
21
-3.40019
0
LINE
8
BLACK
6
CONTINUOUS
10
3.56742
20
-3.40019
11
3.56543
21
-3.40055
0
LINE
8
BLACK
6
CONTINUOUS
10
3.56543
20
-3.40055
11
3.56368
21
-3.39954
0
LINE
8
BLACK
6
CONTINUOUS
10
3.56368
20
-3.39954
11
3.56299
21
-3.39764
0
LINE
8
BLACK
6
CONTINUOUS
10
3.56299
20
-3.39764
11
3.56299
21
-3.35827
0
LINE
8
BLACK
6
CONTINUOUS
10
3.56299
20
-3.35827
11
3.56317
21
-3.35726
0
LINE
8
BLACK
6
CONTINUOUS
10
3.56317
20
-3.35726
11
3.56447
21
-3.35571
0
LINE
8
BLACK
6
CONTINUOUS
10
3.56447
20
-3.35571
11
3.56646
21
-3.35536
0
LINE
8
BLACK
6
CONTINUOUS
10
3.56646
20
-3.35536
11
3.56821
21
-3.35637
0
LINE
8
BLACK
6
CONTINUOUS
10
3.62136
20
-3.35637
11
3.62205
21
-3.35827
0
LINE
8
BLACK
6
CONTINUOUS
10
3.62205
20
-3.35827
11
3.62205
21
-3.39764
0
LINE
8
BLACK
6
CONTINUOUS
10
3.62205
20
-3.39764
11
3.62187
21
-3.39865
0
LINE
8
BLACK
6
CONTINUOUS
10
3.62187
20
-3.39865
11
3.62057
21
-3.40019
0
LINE
8
BLACK
6
CONTINUOUS
10
3.62057
20
-3.40019
11
3.61858
21
-3.40055
0
LINE
8
BLACK
6
CONTINUOUS
10
3.61858
20
-3.40055
11
3.61683
21
-3.39954
0
LINE
8
BLACK
6
CONTINUOUS
10
3.61683
20
-3.39954
11
3.61614
21
-3.39764
0
LINE
8
BLACK
6
CONTINUOUS
10
3.61614
20
-3.39764
11
3.61614
21
-3.35827
0
LINE
8
BLACK
6
CONTINUOUS
10
3.61614
20
-3.35827
11
3.61632
21
-3.35726
0
LINE
8
BLACK
6
CONTINUOUS
10
3.61632
20
-3.35726
11
3.61762
21
-3.35571
0
LINE
8
BLACK
6
CONTINUOUS
10
3.61762
20
-3.35571
11
3.61961
21
-3.35536
0
LINE
8
BLACK
6
CONTINUOUS
10
3.61961
20
-3.35536
11
3.62136
21
-3.35637
0
LINE
8
BLACK
6
CONTINUOUS
10
4.3245
20
-3.39282
11
4.3252
21
-3.39449
0
LINE
8
BLACK
6
CONTINUOUS
10
4.3252
20
-3.39449
11
4.3245
21
-3.39616
0
LINE
8
BLACK
6
CONTINUOUS
10
4.3245
20
-3.39616
11
4.32283
21
-3.39685
0
LINE
8
BLACK
6
CONTINUOUS
10
4.32283
20
-3.39685
11
4.24409
21
-3.39685
0
LINE
8
BLACK
6
CONTINUOUS
10
4.24409
20
-3.39685
11
4.24242
21
-3.39616
0
LINE
8
BLACK
6
CONTINUOUS
10
4.24242
20
-3.39616
11
4.24173
21
-3.39449
0
LINE
8
BLACK
6
CONTINUOUS
10
4.24173
20
-3.39449
11
4.24242
21
-3.39282
0
LINE
8
BLACK
6
CONTINUOUS
10
4.24242
20
-3.39282
11
4.24409
21
-3.39213
0
LINE
8
BLACK
6
CONTINUOUS
10
4.24409
20
-3.39213
11
4.32283
21
-3.39213
0
LINE
8
BLACK
6
CONTINUOUS
10
4.32283
20
-3.39213
11
4.3245
21
-3.39282
0
LINE
8
BLACK
6
CONTINUOUS
10
4.16506
20
-3.39282
11
4.16575
21
-3.39449
0
LINE
8
BLACK
6
CONTINUOUS
10
4.16575
20
-3.39449
11
4.16506
21
-3.39616
0
LINE
8
BLACK
6
CONTINUOUS
10
4.16506
20
-3.39616
11
4.16339
21
-3.39685
0
LINE
8
BLACK
6
CONTINUOUS
10
4.16339
20
-3.39685
11
4.08465
21
-3.39685
0
LINE
8
BLACK
6
CONTINUOUS
10
4.08465
20
-3.39685
11
4.08298
21
-3.39616
0
LINE
8
BLACK
6
CONTINUOUS
10
4.08298
20
-3.39616
11
4.08228
21
-3.39449
0
LINE
8
BLACK
6
CONTINUOUS
10
4.08228
20
-3.39449
11
4.08298
21
-3.39282
0
LINE
8
BLACK
6
CONTINUOUS
10
4.08298
20
-3.39282
11
4.08465
21
-3.39213
0
LINE
8
BLACK
6
CONTINUOUS
10
4.08465
20
-3.39213
11
4.16339
21
-3.39213
0
LINE
8
BLACK
6
CONTINUOUS
10
4.16339
20
-3.39213
11
4.16506
21
-3.39282
0
LINE
8
BLACK
6
CONTINUOUS
10
4.00561
20
-3.39282
11
4.0063
21
-3.39449
0
LINE
8
BLACK
6
CONTINUOUS
10
4.0063
20
-3.39449
11
4.00561
21
-3.39616
0
LINE
8
BLACK
6
CONTINUOUS
10
4.00561
20
-3.39616
11
4.00394
21
-3.39685
0
LINE
8
BLACK
6
CONTINUOUS
10
4.00394
20
-3.39685
11
3.9252
21
-3.39685
0
LINE
8
BLACK
6
CONTINUOUS
10
3.9252
20
-3.39685
11
3.92353
21
-3.39616
0
LINE
8
BLACK
6
CONTINUOUS
10
3.92353
20
-3.39616
11
3.92283
21
-3.39449
0
LINE
8
BLACK
6
CONTINUOUS
10
3.92283
20
-3.39449
11
3.92353
21
-3.39282
0
LINE
8
BLACK
6
CONTINUOUS
10
3.92353
20
-3.39282
11
3.9252
21
-3.39213
0
LINE
8
BLACK
6
CONTINUOUS
10
3.9252
20
-3.39213
11
4.00394
21
-3.39213
0
LINE
8
BLACK
6
CONTINUOUS
10
4.00394
20
-3.39213
11
4.00561
21
-3.39282
0
LINE
8
BLACK
6
CONTINUOUS
10
3.55876
20
-3.3625
11
3.55945
21
-3.36417
0
LINE
8
BLACK
6
CONTINUOUS
10
3.55945
20
-3.36417
11
3.55945
21
-3.39173
0
LINE
8
BLACK
6
CONTINUOUS
10
3.55945
20
-3.39173
11
3.55876
21
-3.3934
0
LINE
8
BLACK
6
CONTINUOUS
10
3.55876
20
-3.3934
11
3.55709
21
-3.39409
0
LINE
8
BLACK
6
CONTINUOUS
10
3.55709
20
-3.39409
11
3.55542
21
-3.3934
0
LINE
8
BLACK
6
CONTINUOUS
10
3.55542
20
-3.3934
11
3.55472
21
-3.39173
0
LINE
8
BLACK
6
CONTINUOUS
10
3.55472
20
-3.39173
11
3.55472
21
-3.36417
0
LINE
8
BLACK
6
CONTINUOUS
10
3.55472
20
-3.36417
11
3.55542
21
-3.3625
0
LINE
8
BLACK
6
CONTINUOUS
10
3.55542
20
-3.3625
11
3.55709
21
-3.36181
0
LINE
8
BLACK
6
CONTINUOUS
10
3.55709
20
-3.36181
11
3.55876
21
-3.3625
0
LINE
8
BLACK
6
CONTINUOUS
10
3.51151
20
-3.3625
11
3.5122
21
-3.36417
0
LINE
8
BLACK
6
CONTINUOUS
10
3.5122
20
-3.36417
11
3.5122
21
-3.39173
0
LINE
8
BLACK
6
CONTINUOUS
10
3.5122
20
-3.39173
11
3.51151
21
-3.3934
0
LINE
8
BLACK
6
CONTINUOUS
10
3.51151
20
-3.3934
11
3.50984
21
-3.39409
0
LINE
8
BLACK
6
CONTINUOUS
10
3.50984
20
-3.39409
11
3.50817
21
-3.3934
0
LINE
8
BLACK
6
CONTINUOUS
10
3.50817
20
-3.3934
11
3.50748
21
-3.39173
0
LINE
8
BLACK
6
CONTINUOUS
10
3.50748
20
-3.39173
11
3.50748
21
-3.36417
0
LINE
8
BLACK
6
CONTINUOUS
10
3.50748
20
-3.36417
11
3.50817
21
-3.3625
0
LINE
8
BLACK
6
CONTINUOUS
10
3.50817
20
-3.3625
11
3.50984
21
-3.36181
0
LINE
8
BLACK
6
CONTINUOUS
10
3.50984
20
-3.36181
11
3.51151
21
-3.3625
0
LINE
8
BLACK
6
CONTINUOUS
10
5.04164
20
-3.39065
11
5.04094
21
-3.38898
0
LINE
8
BLACK
6
CONTINUOUS
10
5.04094
20
-3.38898
11
5.04164
21
-3.38731
0
LINE
8
BLACK
6
CONTINUOUS
10
5.04164
20
-3.38731
11
5.04331
21
-3.38661
0
LINE
8
BLACK
6
CONTINUOUS
10
5.04331
20
-3.38661
11
5.12598
21
-3.38661
0
LINE
8
BLACK
6
CONTINUOUS
10
5.12598
20
-3.38661
11
5.12598
21
-3.35236
0
LINE
8
BLACK
6
CONTINUOUS
10
5.12598
20
-3.35236
11
5.12668
21
-3.35069
0
LINE
8
BLACK
6
CONTINUOUS
10
5.12668
20
-3.35069
11
5.12835
21
-3.35
0
LINE
8
BLACK
6
CONTINUOUS
10
5.12835
20
-3.35
11
5.13002
21
-3.35069
0
LINE
8
BLACK
6
CONTINUOUS
10
5.13002
20
-3.35069
11
5.13071
21
-3.35236
0
LINE
8
BLACK
6
CONTINUOUS
10
5.13071
20
-3.35236
11
5.13071
21
-3.38898
0
LINE
8
BLACK
6
CONTINUOUS
10
5.13071
20
-3.38898
11
5.13002
21
-3.39065
0
LINE
8
BLACK
6
CONTINUOUS
10
5.13002
20
-3.39065
11
5.12835
21
-3.39134
0
LINE
8
BLACK
6
CONTINUOUS
10
5.12835
20
-3.39134
11
5.04331
21
-3.39134
0
LINE
8
BLACK
6
CONTINUOUS
10
5.04331
20
-3.39134
11
5.04164
21
-3.39065
0
LINE
8
BLACK
6
CONTINUOUS
10
4.3245
20
-3.38534
11
4.3252
21
-3.38701
0
LINE
8
BLACK
6
CONTINUOUS
10
4.3252
20
-3.38701
11
4.3245
21
-3.38868
0
LINE
8
BLACK
6
CONTINUOUS
10
4.3245
20
-3.38868
11
4.32283
21
-3.38937
0
LINE
8
BLACK
6
CONTINUOUS
10
4.32283
20
-3.38937
11
4.24409
21
-3.38937
0
LINE
8
BLACK
6
CONTINUOUS
10
4.24409
20
-3.38937
11
4.24242
21
-3.38868
0
LINE
8
BLACK
6
CONTINUOUS
10
4.24242
20
-3.38868
11
4.24173
21
-3.38701
0
LINE
8
BLACK
6
CONTINUOUS
10
4.24173
20
-3.38701
11
4.24242
21
-3.38534
0
LINE
8
BLACK
6
CONTINUOUS
10
4.24242
20
-3.38534
11
4.24409
21
-3.38465
0
LINE
8
BLACK
6
CONTINUOUS
10
4.24409
20
-3.38465
11
4.32283
21
-3.38465
0
LINE
8
BLACK
6
CONTINUOUS
10
4.32283
20
-3.38465
11
4.3245
21
-3.38534
0
LINE
8
BLACK
6
CONTINUOUS
10
4.16506
20
-3.38534
11
4.16575
21
-3.38701
0
LINE
8
BLACK
6
CONTINUOUS
10
4.16575
20
-3.38701
11
4.16506
21
-3.38868
0
LINE
8
BLACK
6
CONTINUOUS
10
4.16506
20
-3.38868
11
4.16339
21
-3.38937
0
LINE
8
BLACK
6
CONTINUOUS
10
4.16339
20
-3.38937
11
4.08465
21
-3.38937
0
LINE
8
BLACK
6
CONTINUOUS
10
4.08465
20
-3.38937
11
4.08298
21
-3.38868
0
LINE
8
BLACK
6
CONTINUOUS
10
4.08298
20
-3.38868
11
4.08228
21
-3.38701
0
LINE
8
BLACK
6
CONTINUOUS
10
4.08228
20
-3.38701
11
4.08298
21
-3.38534
0
LINE
8
BLACK
6
CONTINUOUS
10
4.08298
20
-3.38534
11
4.08465
21
-3.38465
0
LINE
8
BLACK
6
CONTINUOUS
10
4.08465
20
-3.38465
11
4.16339
21
-3.38465
0
LINE
8
BLACK
6
CONTINUOUS
10
4.16339
20
-3.38465
11
4.16506
21
-3.38534
0
LINE
8
BLACK
6
CONTINUOUS
10
4.00561
20
-3.38534
11
4.0063
21
-3.38701
0
LINE
8
BLACK
6
CONTINUOUS
10
4.0063
20
-3.38701
11
4.00561
21
-3.38868
0
LINE
8
BLACK
6
CONTINUOUS
10
4.00561
20
-3.38868
11
4.00394
21
-3.38937
0
LINE
8
BLACK
6
CONTINUOUS
10
4.00394
20
-3.38937
11
3.9252
21
-3.38937
0
LINE
8
BLACK
6
CONTINUOUS
10
3.9252
20
-3.38937
11
3.92353
21
-3.38868
0
LINE
8
BLACK
6
CONTINUOUS
10
3.92353
20
-3.38868
11
3.92283
21
-3.38701
0
LINE
8
BLACK
6
CONTINUOUS
10
3.92283
20
-3.38701
11
3.92353
21
-3.38534
0
LINE
8
BLACK
6
CONTINUOUS
10
3.92353
20
-3.38534
11
3.9252
21
-3.38465
0
LINE
8
BLACK
6
CONTINUOUS
10
3.9252
20
-3.38465
11
4.00394
21
-3.38465
0
LINE
8
BLACK
6
CONTINUOUS
10
4.00394
20
-3.38465
11
4.00561
21
-3.38534
0
LINE
8
BLACK
6
CONTINUOUS
10
4.98986
20
-3.31132
11
4.99055
21
-3.31299
0
LINE
8
BLACK
6
CONTINUOUS
10
4.99055
20
-3.31299
11
4.99055
21
-3.34055
0
LINE
8
BLACK
6
CONTINUOUS
10
4.99055
20
-3.34055
11
4.98986
21
-3.34222
0
LINE
8
BLACK
6
CONTINUOUS
10
4.98986
20
-3.34222
11
4.98819
21
-3.34291
0
LINE
8
BLACK
6
CONTINUOUS
10
4.98819
20
-3.34291
11
4.98652
21
-3.34222
0
LINE
8
BLACK
6
CONTINUOUS
10
4.98652
20
-3.34222
11
4.98583
21
-3.34055
0
LINE
8
BLACK
6
CONTINUOUS
10
4.98583
20
-3.34055
11
4.98583
21
-3.31299
0
LINE
8
BLACK
6
CONTINUOUS
10
4.98583
20
-3.31299
11
4.98652
21
-3.31132
0
LINE
8
BLACK
6
CONTINUOUS
10
4.98652
20
-3.31132
11
4.98819
21
-3.31063
0
LINE
8
BLACK
6
CONTINUOUS
10
4.98819
20
-3.31063
11
4.98986
21
-3.31132
0
LINE
8
BLACK
6
CONTINUOUS
10
5.0371
20
-3.31132
11
5.0378
21
-3.31299
0
LINE
8
BLACK
6
CONTINUOUS
10
5.0378
20
-3.31299
11
5.0378
21
-3.34055
0
LINE
8
BLACK
6
CONTINUOUS
10
5.0378
20
-3.34055
11
5.0371
21
-3.34222
0
LINE
8
BLACK
6
CONTINUOUS
10
5.0371
20
-3.34222
11
5.03543
21
-3.34291
0
LINE
8
BLACK
6
CONTINUOUS
10
5.03543
20
-3.34291
11
5.03376
21
-3.34222
0
LINE
8
BLACK
6
CONTINUOUS
10
5.03376
20
-3.34222
11
5.03307
21
-3.34055
0
LINE
8
BLACK
6
CONTINUOUS
10
5.03307
20
-3.34055
11
5.03307
21
-3.31299
0
LINE
8
BLACK
6
CONTINUOUS
10
5.03307
20
-3.31299
11
5.03376
21
-3.31132
0
LINE
8
BLACK
6
CONTINUOUS
10
5.03376
20
-3.31132
11
5.03543
21
-3.31063
0
LINE
8
BLACK
6
CONTINUOUS
10
5.03543
20
-3.31063
11
5.0371
21
-3.31132
0
LINE
8
BLACK
6
CONTINUOUS
10
5.21033
20
-3.31132
11
5.21102
21
-3.31299
0
LINE
8
BLACK
6
CONTINUOUS
10
5.21102
20
-3.31299
11
5.21102
21
-3.34055
0
LINE
8
BLACK
6
CONTINUOUS
10
5.21102
20
-3.34055
11
5.21033
21
-3.34222
0
LINE
8
BLACK
6
CONTINUOUS
10
5.21033
20
-3.34222
11
5.20866
21
-3.34291
0
LINE
8
BLACK
6
CONTINUOUS
10
5.20866
20
-3.34291
11
5.20699
21
-3.34222
0
LINE
8
BLACK
6
CONTINUOUS
10
5.20699
20
-3.34222
11
5.2063
21
-3.34055
0
LINE
8
BLACK
6
CONTINUOUS
10
5.2063
20
-3.34055
11
5.2063
21
-3.31299
0
LINE
8
BLACK
6
CONTINUOUS
10
5.2063
20
-3.31299
11
5.20699
21
-3.31132
0
LINE
8
BLACK
6
CONTINUOUS
10
5.20699
20
-3.31132
11
5.20866
21
-3.31063
0
LINE
8
BLACK
6
CONTINUOUS
10
5.20866
20
-3.31063
11
5.21033
21
-3.31132
0
LINE
8
BLACK
6
CONTINUOUS
10
5.16309
20
-3.31132
11
5.16378
21
-3.31299
0
LINE
8
BLACK
6
CONTINUOUS
10
5.16378
20
-3.31299
11
5.16378
21
-3.34055
0
LINE
8
BLACK
6
CONTINUOUS
10
5.16378
20
-3.34055
11
5.16309
21
-3.34222
0
LINE
8
BLACK
6
CONTINUOUS
10
5.16309
20
-3.34222
11
5.16142
21
-3.34291
0
LINE
8
BLACK
6
CONTINUOUS
10
5.16142
20
-3.34291
11
5.15975
21
-3.34222
0
LINE
8
BLACK
6
CONTINUOUS
10
5.15975
20
-3.34222
11
5.15906
21
-3.34055
0
LINE
8
BLACK
6
CONTINUOUS
10
5.15906
20
-3.34055
11
5.15906
21
-3.31299
0
LINE
8
BLACK
6
CONTINUOUS
10
5.15906
20
-3.31299
11
5.15975
21
-3.31132
0
LINE
8
BLACK
6
CONTINUOUS
10
5.15975
20
-3.31132
11
5.16142
21
-3.31063
0
LINE
8
BLACK
6
CONTINUOUS
10
5.16142
20
-3.31063
11
5.16309
21
-3.31132
0
LINE
8
BLACK
6
CONTINUOUS
10
4.81466
20
-3.30935
11
4.81535
21
-3.31102
0
LINE
8
BLACK
6
CONTINUOUS
10
4.81535
20
-3.31102
11
4.81466
21
-3.31269
0
LINE
8
BLACK
6
CONTINUOUS
10
4.81466
20
-3.31269
11
4.81299
21
-3.31339
0
LINE
8
BLACK
6
CONTINUOUS
10
4.81299
20
-3.31339
11
4.78543
21
-3.31339
0
LINE
8
BLACK
6
CONTINUOUS
10
4.78543
20
-3.31339
11
4.78376
21
-3.31269
0
LINE
8
BLACK
6
CONTINUOUS
10
4.78376
20
-3.31269
11
4.78307
21
-3.31102
0
LINE
8
BLACK
6
CONTINUOUS
10
4.78307
20
-3.31102
11
4.78376
21
-3.30935
0
LINE
8
BLACK
6
CONTINUOUS
10
4.78376
20
-3.30935
11
4.78543
21
-3.30866
0
LINE
8
BLACK
6
CONTINUOUS
10
4.78543
20
-3.30866
11
4.81299
21
-3.30866
0
LINE
8
BLACK
6
CONTINUOUS
10
4.81299
20
-3.30866
11
4.81466
21
-3.30935
0
LINE
8
BLACK
6
CONTINUOUS
10
4.93277
20
-3.30935
11
4.93346
21
-3.31102
0
LINE
8
BLACK
6
CONTINUOUS
10
4.93346
20
-3.31102
11
4.93277
21
-3.31269
0
LINE
8
BLACK
6
CONTINUOUS
10
4.93277
20
-3.31269
11
4.9311
21
-3.31339
0
LINE
8
BLACK
6
CONTINUOUS
10
4.9311
20
-3.31339
11
4.90354
21
-3.31339
0
LINE
8
BLACK
6
CONTINUOUS
10
4.90354
20
-3.31339
11
4.90187
21
-3.31269
0
LINE
8
BLACK
6
CONTINUOUS
10
4.90187
20
-3.31269
11
4.90118
21
-3.31102
0
LINE
8
BLACK
6
CONTINUOUS
10
4.90118
20
-3.31102
11
4.90187
21
-3.30935
0
LINE
8
BLACK
6
CONTINUOUS
10
4.90187
20
-3.30935
11
4.90354
21
-3.30866
0
LINE
8
BLACK
6
CONTINUOUS
10
4.90354
20
-3.30866
11
4.9311
21
-3.30866
0
LINE
8
BLACK
6
CONTINUOUS
10
4.9311
20
-3.30866
11
4.93277
21
-3.30935
0
LINE
8
BLACK
6
CONTINUOUS
10
4.3245
20
-3.30857
11
4.3252
21
-3.31024
0
LINE
8
BLACK
6
CONTINUOUS
10
4.3252
20
-3.31024
11
4.3245
21
-3.31191
0
LINE
8
BLACK
6
CONTINUOUS
10
4.3245
20
-3.31191
11
4.32283
21
-3.3126
0
LINE
8
BLACK
6
CONTINUOUS
10
4.32283
20
-3.3126
11
4.24409
21
-3.3126
0
LINE
8
BLACK
6
CONTINUOUS
10
4.24409
20
-3.3126
11
4.24242
21
-3.31191
0
LINE
8
BLACK
6
CONTINUOUS
10
4.24242
20
-3.31191
11
4.24173
21
-3.31024
0
LINE
8
BLACK
6
CONTINUOUS
10
4.24173
20
-3.31024
11
4.24242
21
-3.30857
0
LINE
8
BLACK
6
CONTINUOUS
10
4.24242
20
-3.30857
11
4.24409
21
-3.30787
0
LINE
8
BLACK
6
CONTINUOUS
10
4.24409
20
-3.30787
11
4.32283
21
-3.30787
0
LINE
8
BLACK
6
CONTINUOUS
10
4.32283
20
-3.30787
11
4.3245
21
-3.30857
0
LINE
8
BLACK
6
CONTINUOUS
10
4.00561
20
-3.30857
11
4.0063
21
-3.31024
0
LINE
8
BLACK
6
CONTINUOUS
10
4.0063
20
-3.31024
11
4.00561
21
-3.31191
0
LINE
8
BLACK
6
CONTINUOUS
10
4.00561
20
-3.31191
11
4.00394
21
-3.3126
0
LINE
8
BLACK
6
CONTINUOUS
10
4.00394
20
-3.3126
11
3.9252
21
-3.3126
0
LINE
8
BLACK
6
CONTINUOUS
10
3.9252
20
-3.3126
11
3.92353
21
-3.31191
0
LINE
8
BLACK
6
CONTINUOUS
10
3.92353
20
-3.31191
11
3.92283
21
-3.31024
0
LINE
8
BLACK
6
CONTINUOUS
10
3.92283
20
-3.31024
11
3.92353
21
-3.30857
0
LINE
8
BLACK
6
CONTINUOUS
10
3.92353
20
-3.30857
11
3.9252
21
-3.30787
0
LINE
8
BLACK
6
CONTINUOUS
10
3.9252
20
-3.30787
11
4.00394
21
-3.30787
0
LINE
8
BLACK
6
CONTINUOUS
10
4.00394
20
-3.30787
11
4.00561
21
-3.30857
0
LINE
8
BLACK
6
CONTINUOUS
10
4.16506
20
-3.30857
11
4.16575
21
-3.31024
0
LINE
8
BLACK
6
CONTINUOUS
10
4.16575
20
-3.31024
11
4.16506
21
-3.31191
0
LINE
8
BLACK
6
CONTINUOUS
10
4.16506
20
-3.31191
11
4.16339
21
-3.3126
0
LINE
8
BLACK
6
CONTINUOUS
10
4.16339
20
-3.3126
11
4.08465
21
-3.3126
0
LINE
8
BLACK
6
CONTINUOUS
10
4.08465
20
-3.3126
11
4.08298
21
-3.31191
0
LINE
8
BLACK
6
CONTINUOUS
10
4.08298
20
-3.31191
11
4.08228
21
-3.31024
0
LINE
8
BLACK
6
CONTINUOUS
10
4.08228
20
-3.31024
11
4.08298
21
-3.30857
0
LINE
8
BLACK
6
CONTINUOUS
10
4.08298
20
-3.30857
11
4.08465
21
-3.30787
0
LINE
8
BLACK
6
CONTINUOUS
10
4.08465
20
-3.30787
11
4.16339
21
-3.30787
0
LINE
8
BLACK
6
CONTINUOUS
10
4.16339
20
-3.30787
11
4.16506
21
-3.30857
0
LINE
8
BLACK
6
CONTINUOUS
10
5.13002
20
-3.2629
11
5.13071
21
-3.26457
0
LINE
8
BLACK
6
CONTINUOUS
10
5.13071
20
-3.26457
11
5.13071
21
-3.30118
0
LINE
8
BLACK
6
CONTINUOUS
10
5.13071
20
-3.30118
11
5.13002
21
-3.30285
0
LINE
8
BLACK
6
CONTINUOUS
10
5.13002
20
-3.30285
11
5.12835
21
-3.30354
0
LINE
8
BLACK
6
CONTINUOUS
10
5.12835
20
-3.30354
11
5.12668
21
-3.30285
0
LINE
8
BLACK
6
CONTINUOUS
10
5.12668
20
-3.30285
11
5.12598
21
-3.30118
0
LINE
8
BLACK
6
CONTINUOUS
10
5.12598
20
-3.30118
11
5.12598
21
-3.26693
0
LINE
8
BLACK
6
CONTINUOUS
10
5.12598
20
-3.26693
11
5.07087
21
-3.26693
0
LINE
8
BLACK
6
CONTINUOUS
10
5.07087
20
-3.26693
11
5.0692
21
-3.26624
0
LINE
8
BLACK
6
CONTINUOUS
10
5.0692
20
-3.26624
11
5.0685
21
-3.26457
0
LINE
8
BLACK
6
CONTINUOUS
10
5.0685
20
-3.26457
11
5.0692
21
-3.2629
0
LINE
8
BLACK
6
CONTINUOUS
10
5.0692
20
-3.2629
11
5.07087
21
-3.2622
0
LINE
8
BLACK
6
CONTINUOUS
10
5.07087
20
-3.2622
11
5.12835
21
-3.2622
0
LINE
8
BLACK
6
CONTINUOUS
10
5.12835
20
-3.2622
11
5.13002
21
-3.2629
0
LINE
8
BLACK
6
CONTINUOUS
10
4.81466
20
-3.26211
11
4.81535
21
-3.26378
0
LINE
8
BLACK
6
CONTINUOUS
10
4.81535
20
-3.26378
11
4.81466
21
-3.26545
0
LINE
8
BLACK
6
CONTINUOUS
10
4.81466
20
-3.26545
11
4.81299
21
-3.26614
0
LINE
8
BLACK
6
CONTINUOUS
10
4.81299
20
-3.26614
11
4.78543
21
-3.26614
0
LINE
8
BLACK
6
CONTINUOUS
10
4.78543
20
-3.26614
11
4.78376
21
-3.26545
0
LINE
8
BLACK
6
CONTINUOUS
10
4.78376
20
-3.26545
11
4.78307
21
-3.26378
0
LINE
8
BLACK
6
CONTINUOUS
10
4.78307
20
-3.26378
11
4.78376
21
-3.26211
0
LINE
8
BLACK
6
CONTINUOUS
10
4.78376
20
-3.26211
11
4.78543
21
-3.26142
0
LINE
8
BLACK
6
CONTINUOUS
10
4.78543
20
-3.26142
11
4.81299
21
-3.26142
0
LINE
8
BLACK
6
CONTINUOUS
10
4.81299
20
-3.26142
11
4.81466
21
-3.26211
0
LINE
8
BLACK
6
CONTINUOUS
10
4.93277
20
-3.26211
11
4.93346
21
-3.26378
0
LINE
8
BLACK
6
CONTINUOUS
10
4.93346
20
-3.26378
11
4.93277
21
-3.26545
0
LINE
8
BLACK
6
CONTINUOUS
10
4.93277
20
-3.26545
11
4.9311
21
-3.26614
0
LINE
8
BLACK
6
CONTINUOUS
10
4.9311
20
-3.26614
11
4.90354
21
-3.26614
0
LINE
8
BLACK
6
CONTINUOUS
10
4.90354
20
-3.26614
11
4.90187
21
-3.26545
0
LINE
8
BLACK
6
CONTINUOUS
10
4.90187
20
-3.26545
11
4.90118
21
-3.26378
0
LINE
8
BLACK
6
CONTINUOUS
10
4.90118
20
-3.26378
11
4.90187
21
-3.26211
0
LINE
8
BLACK
6
CONTINUOUS
10
4.90187
20
-3.26211
11
4.90354
21
-3.26142
0
LINE
8
BLACK
6
CONTINUOUS
10
4.90354
20
-3.26142
11
4.9311
21
-3.26142
0
LINE
8
BLACK
6
CONTINUOUS
10
4.9311
20
-3.26142
11
4.93277
21
-3.26211
  0
ENDSEC
  0
EOF
